<svg version="1.1" id="Layer_1" xmlns="http://www.w3.org/2000/svg" x="0" y="0" width="75" height="75" viewBox="0 0 300 300" xml:space="preserve" license="CCBY4.0" author="Provart Lab - Bio Analytic Resource, University of Toronto">
  <g id="shapes" fill="none" stroke="#000" stroke-miterlimit="10">
    <path d="M137 256s6-3 7-8-1-8 1-14 10-10 14-20 3-17-3-22-10-6-13-12-1-10 1-14l11-24-4 1-6-1s-18 27-13 40 17 17 20 25-11 20-11 28 0 15-4 21-7 18-7 18"/>
    <path d="M144 142c-3-3-14 12-16 16s-6 17-10 20-20 14-28 6-10-18-7-24 7-11 17-9c10 1 16 2 20 1 5-2 16-15 16-15l-4-3v-6l1-3c2-4 6-5 9-3s7 9 7 10l3-23c0-1-3-1-8-12s-8-22-2-31 12-14 15-14c8 0 20 11 21 23s4 15-3 23-13 11-14 21-4 15-4 15h17c5 1 9-4 15-4s22 4 24 15 4 23-7 23-20 0-22-7-2-10-7-14-7-6-12-7-10 2-10 2-2 2-11 0z"/>
    <path d="M155 98s4-17 2-22m-76 38c4 0 17 1 20 3m-2 54c2-3 9-9 13-9m74-18c6 0 11 3 13 7"/>
    <path d="M115 122c-4-3 1-5-13-21S87 85 78 87s-14 15-15 23 7 17 14 19 17 0 24 0 8 2 17 4l16 3c-4-2-3-5-3-5v-4c1 0-12-2-16-5z"/>
  </g>
  <g id="outlines" fill="none" stroke="#000" stroke-miterlimit="10">
    <path id="root" d="M137 256s6-3 7-8-1-8 1-14 10-10 14-20 3-17-3-22-10-6-13-12-1-10 1-14l11-24-4 1-6-1s-18 27-13 40 17 17 20 25-11 20-11 28 0 15-4 21-7 18-7 18"/>
    <path id="shoot" d="m132 127-1 4s-1 3 3 5l-16-3c-8-2-10-5-17-4H77c-7-1-14-11-14-19s6-20 15-23 10-2 24 14 9 18 13 21 17 5 17 5zm23 15s4-3 10-2 6 3 12 7 5 7 7 14 10 8 22 7 9-12 7-23-18-15-24-15-9 5-15 4h-17l4-15c2-10 8-13 14-21s5-11 3-23-13-23-21-23c-3 0-10 5-15 14s-3 21 2 31 8 11 8 12l-3 23c1-1-4-7-7-10s-7-1-9 3l-1 3v6l4 3s-11 13-16 15c-4 1-10 0-20-1-10-2-14 2-17 9s-1 15 7 24 24-3 28-6 7-16 10-20 13-19 16-17c9 3 11 1 11 1z"/>
  </g>
</svg>