<?xml version="1.0" encoding="utf-8"?>
<!-- Generator: Adobe Illustrator 16.0.0, SVG Export Plug-In . SVG Version: 6.00 Build 0)  -->
<!DOCTYPE svg PUBLIC "-//W3C//DTD SVG 1.1//EN" "http://www.w3.org/Graphics/SVG/1.1/DTD/svg11.dtd">
<svg version="1.1" author="Provart Lab - Bio Analytic Resource, University of Toronto" license="CCBY4.0" id="Layer_1" xmlns="http://www.w3.org/2000/svg" xmlns:xlink="http://www.w3.org/1999/xlink" x="0px" y="0px"
    width="300px" height="300px" viewBox="0 0 300 300" enable-background="new 0 0 300 300" xml:space="preserve">
	<g id="shapes">
		<path fill="none" stroke="#000000" stroke-miterlimit="10" d="M137.356,255.895c0,0,5.252-2.844,7.002-7.877
					s-1.531-8.314,1.094-13.785s9.628-10.504,13.566-20.351s3.063-16.85-3.063-21.444s-10.065-6.346-13.348-12.691
					s-1.095-9.408,1.094-13.566s11.379-24.289,11.379-24.289s-1.094,0.656-3.72,0.656s-6.784-0.219-6.784-0.219
					s-17.943,27.134-12.691,39.388s17.287,17.287,19.694,25.383s-10.503,20.351-10.503,28.228S140.639,249.768,137.356,255.895
					s-7.439,18.162-7.439,18.162" />
		<path fill="none" stroke="#000000" stroke-miterlimit="10" d="M144.14,141.5c-2.89-2.417-14.224,12.995-16.63,16.935
					s-5.033,16.236-9.409,19.519s-19.694,14.462-28.009,5.929s-9.847-18.15-7.002-24.277s7.22-10.716,16.849-8.966
					c9.628,1.75,15.975,2.41,20.351,1.096c4.376-1.312,15.317-14.878,15.317-14.878l-3.938-2.625c0,0-0.739-3.447-0.093-6.647
					c0.216-1.066,0.585-2.105,1.187-2.98c2.407-3.501,6.127-4.814,9.409-2.188s6.565,8.535,6.346,9.628s3.063-22.319,3.501-22.976
					s-3.283-1.313-8.315-11.598s-7.659-22.757-1.969-31.729s12.695-13.651,15.098-13.786c8.169-0.456,19.912,11.16,21.444,22.976
					s3.282,15.536-3.063,23.195s-13.565,10.94-14.66,21.006s-3.939,14.88-3.939,14.88s12.473-1.094,17.725,0s8.753-4.376,14.88-4.376
					s21.443,4.158,23.413,15.099s4.377,23.413-7.002,23.632s-19.256-0.219-21.663-7.221s-1.969-10.503-7.439-14.223
					s-6.127-6.212-11.598-6.869s-9.847,1.446-9.847,1.446S152.917,143.75,144.14,141.5z" />
		<path fill="none" stroke="#000000" stroke-miterlimit="10" d="M154.75,97.5c0,0,3.75-17,2.25-21.25" />
		<path fill="none" stroke="#000000" stroke-miterlimit="10" d="M80.75,114c3.75-0.5,17.5,1,19.75,3.25" />
		<path fill="none" stroke="#000000" stroke-miterlimit="10" d="M98.5,171.25c2.25-3.25,9-9,13-9" />
		<path fill="none" stroke="#000000" stroke-miterlimit="10" d="M186.25,144.25c5.25,0,11,3,13,6.25" />
		<path fill="none" stroke="#000000" stroke-miterlimit="10" d="M114.953,122.197c-3.72-3.282,1.246-5.251-12.759-21.444
					s-15.57-15.974-24.323-13.567s-13.583,14.441-14.458,22.757s6.118,17.288,13.558,18.819s17.064,0.438,23.847,0
					s8.532,1.969,16.847,3.938s18.382,3.769,16.764,3.063c-4.429-1.93-3.263-5.014-3.263-5.014l0.333-3.958l0,0
					C131.5,126.792,118.673,125.479,114.953,122.197z" />
	</g>
	<g id="outlines">
		<path id="root" fill="none" stroke="#000000" stroke-miterlimit="10" d="M137.356,255.895c0,0,5.252-2.844,7.002-7.877
					s-1.531-8.314,1.094-13.785s9.628-10.504,13.566-20.351s3.063-16.85-3.063-21.444s-10.065-6.346-13.348-12.691
					s-1.095-9.408,1.094-13.566s11.379-24.289,11.379-24.289s-1.094,0.656-3.72,0.656s-6.784-0.219-6.784-0.219
					s-17.943,27.134-12.691,39.388s17.287,17.287,19.694,25.383s-10.503,20.351-10.503,28.228S140.639,249.768,137.356,255.895
					s-7.439,18.162-7.439,18.162" />
		<path id="shoot" fill="none" stroke="#000000" stroke-miterlimit="10" d="M131.5,126.792L131.5,126.792l-0.333,3.958
					c0,0-1.167,3.083,3.263,5.014c1.618,0.705-8.449-1.094-16.764-3.063s-10.063-4.376-16.847-3.938s-16.407,1.531-23.847,0
					s-14.433-10.503-13.558-18.819s5.706-20.35,14.458-22.757s10.318-2.626,24.323,13.567s9.039,18.162,12.759,21.444
					S131.5,126.792,131.5,126.792z M155.081,141.5c0,0,4.376-2.103,9.847-1.446s6.127,3.149,11.598,6.869s5.032,7.221,7.439,14.223
					s10.284,7.439,21.663,7.221s8.972-12.691,7.002-23.632s-17.286-15.099-23.413-15.099s-9.628,5.471-14.88,4.376s-17.725,0-17.725,0
					s2.845-4.814,3.939-14.88s8.314-13.348,14.66-21.006s4.596-11.378,3.063-23.195S165,51.5,156.831,51.956
					c-2.403,0.134-9.409,4.814-15.098,13.786s-3.063,21.444,1.969,31.729s8.753,10.941,8.315,11.598s-3.72,24.07-3.501,22.976
					s-3.063-7.002-6.346-9.628s-7.002-1.313-9.409,2.188c-0.602,0.875-0.971,1.914-1.187,2.98c-0.646,3.201,0.092,6.647,0.093,6.647
					l3.938,2.625c0,0-10.941,13.565-15.317,14.878c-4.376,1.313-10.722,0.654-20.351-1.096c-9.628-1.75-14.004,2.839-16.849,8.966
					s-1.313,15.744,7.002,24.277s23.632-2.646,28.009-5.929s7.002-15.579,9.409-19.519s13.74-19.351,16.63-16.935
					C152.917,143.75,155.081,141.5,155.081,141.5z" />
	</g>
</svg>