<svg id="Layer_1" xmlns="http://www.w3.org/2000/svg" viewBox="0 0 300 300"><g id="shapes"><path fill="none" stroke="#000000" stroke-miterlimit="10" d="M137.356 255.895s5.252-2.844 7.002-7.877-1.531-8.314 1.094-13.785 9.628-10.504 13.566-20.351 3.063-16.85-3.063-21.444-10.065-6.346-13.348-12.691-1.095-9.408 1.094-13.566 11.379-24.289 11.379-24.289-1.094.656-3.72.656-6.784-.219-6.784-.219-17.943 27.134-12.691 39.388 17.287 17.287 19.694 25.383-10.503 20.351-10.503 28.228-.437 14.44-3.72 20.567-7.439 18.162-7.439 18.162"/><path fill="none" stroke="#000000" stroke-miterlimit="10" d="M144.14 141.5c-2.89-2.417-14.224 12.995-16.63 16.935s-5.033 16.236-9.409 19.519-19.694 14.462-28.009 5.929-9.847-18.15-7.002-24.277 7.22-10.716 16.849-8.966c9.628 1.75 15.975 2.41 20.351 1.096 4.376-1.312 15.317-14.878 15.317-14.878l-3.938-2.625s-.739-3.447-.093-6.647c.216-1.066.585-2.105 1.187-2.98 2.407-3.501 6.127-4.814 9.409-2.188s6.565 8.535 6.346 9.628 3.063-22.319 3.501-22.976-3.283-1.313-8.315-11.598-7.659-22.757-1.969-31.729 12.695-13.651 15.098-13.786c8.169-.456 19.912 11.16 21.444 22.976s3.282 15.536-3.063 23.195-13.565 10.94-14.66 21.006-3.939 14.88-3.939 14.88 12.473-1.094 17.725 0 8.753-4.376 14.88-4.376 21.443 4.158 23.413 15.099 4.377 23.413-7.002 23.632-19.256-.219-21.663-7.221-1.969-10.503-7.439-14.223-6.127-6.212-11.598-6.869-9.847 1.446-9.847 1.446-2.167 2.248-10.944-.002zM154.75 97.5s3.75-17 2.25-21.25M80.75 114c3.75-.5 17.5 1 19.75 3.25M98.5 171.25c2.25-3.25 9-9 13-9M186.25 144.25c5.25 0 11 3 13 6.25"/><path fill="none" stroke="#000000" stroke-miterlimit="10" d="M114.953 122.197c-3.72-3.282 1.246-5.251-12.759-21.444s-15.57-15.974-24.323-13.567-13.583 14.441-14.458 22.757 6.118 17.288 13.558 18.819 17.064.438 23.847 0 8.532 1.969 16.847 3.938 18.382 3.769 16.764 3.063c-4.429-1.93-3.263-5.014-3.263-5.014l.333-3.958c.001.001-12.826-1.312-16.546-4.594z"/></g><g id="outlines"><path id="root" fill="none" stroke="#000000" stroke-miterlimit="10" d="M137.356 255.895s5.252-2.844 7.002-7.877-1.531-8.314 1.094-13.785 9.628-10.504 13.566-20.351 3.063-16.85-3.063-21.444-10.065-6.346-13.348-12.691-1.095-9.408 1.094-13.566 11.379-24.289 11.379-24.289-1.094.656-3.72.656-6.784-.219-6.784-.219-17.943 27.134-12.691 39.388 17.287 17.287 19.694 25.383-10.503 20.351-10.503 28.228-.437 14.44-3.72 20.567-7.439 18.162-7.439 18.162"/><path id="shoot" fill="none" stroke="#000000" stroke-miterlimit="10" d="M131.5 126.792l-.333 3.958s-1.167 3.083 3.263 5.014c1.618.705-8.449-1.094-16.764-3.063s-10.063-4.376-16.847-3.938-16.407 1.531-23.847 0-14.433-10.503-13.558-18.819 5.706-20.35 14.458-22.757 10.318-2.626 24.323 13.567 9.039 18.162 12.759 21.444 16.546 4.594 16.546 4.594zm23.581 14.708s4.376-2.103 9.847-1.446 6.127 3.149 11.598 6.869 5.032 7.221 7.439 14.223 10.284 7.439 21.663 7.221 8.972-12.691 7.002-23.632-17.286-15.099-23.413-15.099-9.628 5.471-14.88 4.376-17.725 0-17.725 0 2.845-4.814 3.939-14.88 8.314-13.348 14.66-21.006 4.596-11.378 3.063-23.195S165 51.5 156.831 51.956c-2.403.134-9.409 4.814-15.098 13.786s-3.063 21.444 1.969 31.729 8.753 10.941 8.315 11.598-3.72 24.07-3.501 22.976-3.063-7.002-6.346-9.628-7.002-1.313-9.409 2.188c-.602.875-.971 1.914-1.187 2.98-.646 3.201.092 6.647.093 6.647l3.938 2.625s-10.941 13.565-15.317 14.878c-4.376 1.313-10.722.654-20.351-1.096-9.628-1.75-14.004 2.839-16.849 8.966s-1.313 15.744 7.002 24.277 23.632-2.646 28.009-5.929 7.002-15.579 9.409-19.519 13.74-19.351 16.63-16.935c8.779 2.251 10.943.001 10.943.001z"/></g></svg>