<svg version="1.1" id="Layer_1" xmlns="http://www.w3.org/2000/svg" x="0" y="0" viewBox="0 0 300 300" xml:space="preserve" license="CCBY4.0" author="Provart Lab - Bio Analytic Resource, University of Toronto">
  <g id="shapes" fill="none">
    <path id="root" d="m151 104-7 2v1l-1 3c-2 19 6 32 9 36l1 2h1l1 1 2 2s7 11 0 34l-9 17-7 11c-5 11 5 32 10 37 2 3 3 12 3 19l1 2 2-12a16 16 0 0 0 0-15c0-1-6-7-7-20 1-13 6-18 6-18l1-2 2-5c2-1 2-4 4-7l3-8c1 0 5-22 1-26s-6-11-10-21c-2-3-5-18-2-27l-4-6zm-1 144zm4-54v-1 1z"/>
    <path id="shoot" d="M156 109c1 10-6 25 16 31 4-1 10 7 16 14 8 8 13 13 15 13l1-1c3-1 4-4 4-6l2-3 4-4 4-4c4-5 6-14 4-19-3-11-5-14-15-20-8-5-25-8-29-8l1-1c9-2 31-1 31-1l8 1c5 0 12 1 17-1 4-2 4-4 5-7 0-7-11-14-17-18l-3-1c-3-3-25-3-31-2l-5 2c2-2 3-8 0-12-2-3-8-8-12-9h-7c-2 0-12 3-16 9l-2 6v-8c1-6 2-13-1-18l-2-4-5-6-2-2h-3l-4-1h-3c-17-10-29-7-39 10-5 7-5 18-1 27 2 4 6 5 10 6l6 3c1 2 8 2 14 2l2 1c4 0 14 2 18 5l1 5-1 1-4 4-10 4-10 2c-9 1-19 2-23 8-2 3-2 7-1 12l2 5 4 11c0 2 1 4 3 5l7 1 9-2 10-7c2-1 3-3 3-5l2-3 5-6 10-11s7-4 8-3m-6-33v-2 2zm10 43v-4l1 1-1 3zm21-12z"/>
  </g>
  <g id="outlines" fill="none" stroke="#000" stroke-linecap="round" stroke-linejoin="round" stroke-miterlimit="10">
    <path d="M126 29c-17-10-29-7-39 10-4 8-4 18 0 26 3 8 12 5 15 10 2 2 14 2 17 2 4 1 20 5 19 10m-9-57-3-1m10 2-3-1h-4m17 41c-2-7 4-21-1-28l-7-11-2-1m41 72s22 2 30 7c10 6 12 10 15 20 2 6-1 15-4 19l-9 8c-2 4-2 7-5 9-4 3-25-24-33-26-10-3-13-7-15-17v-12c0-3-5-4-5-7"/>
    <path d="M159 93c0-5-12-8-15-8-7 0-6 6-11 9l-11 4c-13 3-40 0-33 22 2 4 5 11 5 15 1 6 11 8 20 4l9-7c3-2 3-6 5-8l16-18m16 61c-8 3-16 27-23 33-10 9-6 15-11 22m27-74c-6 5-17 13-21 21-2 5-1 24-7 26m53-75c9-1 25 15 25 24"/>
    <path d="M158 151c5 9 2 26 0 32l-16 29c-5 10 3 32 8 38s1 33 7 35m-2-136 3 2m-5-3 2 1m-11-43c-4 25 10 41 9 42"/>
    <path d="M156 109c-8 17 8 45 10 49 5 9 2 22 1 26l-10 20c2-2-12 15-6 27 3 8 11 18 6 28-3 5-4 22 0 27m-25-118c-5-4-18 6-23 6m20-112-16-21m28 189c-3 1-6 13-5 16 2 7-5 10-6 16"/>
    <path d="M168 230c4-8-8-26-11-26m22 17c0 8 1 19 5 20m-6-32 1 6c0 3 0 0 0 0v6m-1-14v2m-1-4 1 2m-10-28c-1 4 9 22 9 26m-26 47c-1 1-4 21-7 20m39-210c-2-3-8-8-12-9l-6 1c-4 0-12 3-16 9-5 8-1 14-2 22m36-10c1-2 3-8 0-13m14 22-7 1m-25 19c1 0 5 0 14-3s30-1 30-1c8 0 18 3 25 0 17-9-10-23-15-26-3-2-25-2-30-1l-10 5c-3 2-14 10-14 14m-22 13c2 1 7-1 8-1m-16-11c-1 3 3 12 8 12m-38 17c2-4 11-13 15-13"/>
    <path d="M165 67c-3 3-9 8-8 12"/>
  </g>
</svg>