<?xml version="1.0" encoding="utf-8"?>
<!-- Generator: Adobe Illustrator 16.0.0, SVG Export Plug-In . SVG Version: 6.00 Build 0) -->
<!DOCTYPE svg PUBLIC "-//W3C//DTD SVG 1.1//EN" "http://www.w3.org/Graphics/SVG/1.1/DTD/svg11.dtd">
<svg version="1.1" author="Provart Lab - Bio Analytic Resource, University of Toronto" license="CCBY4.0" id="Layer_1" xmlns="http://www.w3.org/2000/svg" xmlns:xlink="http://www.w3.org/1999/xlink" x="0px" y="0px"
    width="75px" height="75px" viewBox="0 0 300 300" enable-background="new 0 0 300 300" xml:space="preserve">
	<g id="shapes">
		<path id="root" fill="none" d="M150.667,103.667l-7.159,2.423l0.824,1.211
                		c-0.067,0.551-1.106,1.747-1.157,2.289c-1.839,19.363,5.866,32.137,8.499,36.667c0.359,0.617,1.695,1.104,1.803,1.361
                		c-0.002,0.011,0.004,0.023,0.002,0.035c-0.014,0.069-0.012,0.136,0.004,0.201c0.004,0.01-0.002,0.021,0.002,0.031
                		c0.002,0.01,0.015,0.015,0.019,0.024c0.031,0.089,0.082,0.169,0.16,0.228c0.008,0.007,0.021,0.009,0.028,0.015
                		c0.041,0.028,0.082,0.055,0.134,0.07c0.426,0.122,0.827,0.291,1.215,0.487c0.672,0.91,1.358,1.701,2.002,2.375
                		c0,0,7.125,10.75,0.265,33.443c-1.64,2.682-5.882,11.236-9.24,17.264c-2.496,4.479-5.811,9.744-6.724,11.633
                		c-5.164,10.686,4.262,31.344,9.249,37.023c2.566,2.918,2.916,11.229,3.225,18.564l0.978,2.071
                		c0.14-0.344,2.285-11.356,2.437-11.625c3.008-5.381,2.758-9.774,0.692-14.853c-0.174-0.33-0.338-0.666-0.481-1.01
                		c-0.773-0.832-6.035-6.883-7.771-19.264c1.25-13.375,5.842-18.409,5.842-18.409s0.477,0.241,0.532,0.159
                		c0.144-0.207,1.263-1.361,1.125-1.625c0.44-0.963,1.295-3.199,2.25-5.125c1.14-1.742,1.843-4.43,3.093-7.409
                		c1.709-3.481,3.44-6.466,3.834-7.667c0.217-0.67,4.615-22.049,0.49-25.924s-6.008-10.923-10.333-21
                		c-1.512-3.316-4.991-18.41-1.325-27.244L150.667,103.667z M150.115,248.157c-0.43-0.642-0.865-1.359-1.299-2.148
                		C149.253,246.721,149.695,247.445,150.115,248.157z M153.803,193.511l-0.016-0.002c0.082-0.151,0.164-0.301,0.246-0.452
                		C153.955,193.21,153.879,193.359,153.803,193.511z" />
		<path id="shoot" fill="none" d="M155.7,108.618c1.5,10.25-5.25,25.375,15.864,31.199
                		c4.261-0.324,10.067,7.637,16.387,14.053c7.604,7.721,12.738,12.774,15.438,12.774c0.407,0,0.76-0.115,1.057-0.354
                		c2.186-1.75,3.084-3.898,4.035-6.172c0.408-0.973,0.828-1.98,1.365-2.975c0.937-1.74,2.7-2.963,4.568-4.256
                		c1.55-1.074,2.312-2.701,3.41-4.146c3.703-4.869,5.959-13.316,4.125-19.125c-3.34-10.586-5.131-13.477-15.123-19.767
                		c-7.518-4.735-24.682-7.551-28.717-7.958c0.433-0.138,0.875-0.282,1.336-0.436c8.799-2.933,30.386-1.105,30.654-1.083
                		c2.182-0.036,4.729,0.196,7.434,0.446c5.956,0.55,12.706,1.174,17.314-1.087c3.877-1.901,4.623-3.928,4.727-6.616
                		c0.263-6.799-10.404-14.147-16.818-17.934c-1.171-0.691-2.096-1.237-2.664-1.62c-3.316-2.235-25.064-2.636-30.607-1.062
                		c-0.752,0.213-2.83,0.936-4.989,1.825c1.222-2.807,2.718-8.161-0.82-12.728c-1.339-3.022-7.498-8.063-11.836-8.956
                		c-3.524-0.726-4.378-0.46-5.669-0.057c-0.318,0.099-0.666,0.208-1.092,0.309c-1.934,0.428-11.79,2.876-15.857,9.094
                		c-1.44,2.203-2.176,4.268-2.514,6.276c-0.121-2.347,0.27-5.223,0.685-8.237c0.846-6.136,1.805-13.09-1.391-17.723
                		c-0.922-1.335-1.666-2.66-2.385-3.941c-1.296-2.309-2.52-4.489-4.662-6.643c-0.505-0.508-1.13-0.923-1.912-1.268
                		c-1.114-0.492-2.395-0.763-3.388-0.945l-4.069-0.17c-1.08-0.246-1.88,0.662-2.514-0.338h-0.001
                		c-17.225-10-29.386-7.179-39.43,9.873c-4.45,7.555-4.746,17.863-0.756,26.689c2.025,4.476,6.058,5.415,9.617,6.367
                		c2.475,0.662,4.813,1.217,6.038,2.915c1.393,1.928,8.348,2.355,14.758,2.636c0.814,0.036,1.492,0.048,1.964,0.08
                		c4.008,0.27,13.538,2.434,17.688,5.694l0.878,4.61c-0.196,0.301-0.386,0.604-0.575,0.908c-0.971,1.562-1.976,3.176-3.758,4.243
                		c-2.326,1.393-8.273,3.473-10.924,4.093c-2.748,0.645-6.087,1.028-9.622,1.435c-9.001,1.035-19.203,2.207-23.098,8.306
                		c-2.033,3.184-2.17,7.3-0.42,12.584c0.483,1.459,1.094,3.089,1.741,4.815c1.365,3.644,2.912,7.773,3.413,10.846
                		c0.315,1.934,1.625,3.529,3.789,4.612c1.85,0.926,4.091,1.38,6.467,1.38c3.166,0,6.569-0.808,9.593-2.385
                		c0.427-0.224,9.485-6.115,9.791-6.367c1.747-1.453,2.456-3.463,3.081-5.238c0.462-1.31,0.897-2.547,1.679-3.414
                		c0.954-1.057,2.677-3.042,4.673-5.34c3.535-4.072,7.809-8.994,10.304-11.646l0.031,0.016c0,0,7.009-3.377,7.676-2.71
                		 M146.466,71.119l-0.746,0.278c0.006-0.658,0.038-1.313,0.087-1.964c0.04,0.302,0.083,0.6,0.146,0.882
                		c0.052,0.233,0.258,0.392,0.488,0.392c0.011,0,0.022-0.003,0.033-0.003C146.471,70.842,146.468,70.98,146.466,71.119z
                		 M156.417,114.442l-0.035-4.391c0.076,0.19,0.138,0.388,0.167,0.604C156.721,111.933,156.605,113.198,156.417,114.442z
                		 M176.624,102.357c0.058-0.017,0.112-0.034,0.17-0.051c-0.001,0.014,0.003,0.027,0.004,0.041L176.624,102.357z"
		/>
	</g>
	<g id="outlines">
		<path fill="none" stroke="#000000" stroke-linecap="round" stroke-linejoin="round" stroke-miterlimit="10" d="M126.201,28.673
                		c-17.063-9.749-28.945-6.401-38.752,10.247c-4.686,7.956-4.419,18.349-0.731,26.506c3.344,7.39,12.469,5.056,15.604,9.403
                		c1.619,2.241,13.288,2.355,16.351,2.562c4.761,0.321,20.224,4.51,19.578,9.608" />
		<path fill="none" stroke="#000000" stroke-linecap="round" stroke-linejoin="round" stroke-miterlimit="10" d="M128.864,29.623
                		c-0.987-0.225-1.901-0.514-2.663-0.95" />
		<path fill="none" stroke="#000000" stroke-linecap="round" stroke-linejoin="round" stroke-miterlimit="10" d="M136.22,31.261
                		c-0.975-0.43-2.104-0.696-3.274-0.911l-4.082-0.727" />
		<path fill="none" stroke="#000000" stroke-linecap="round" stroke-linejoin="round" stroke-miterlimit="10" d="M145.821,70.556
                		c-1.519-6.85,4.2-20.293-0.853-27.616c-2.558-3.704-3.689-7.197-6.991-10.516c-0.488-0.491-1.086-0.866-1.758-1.163"
		/>
		<path fill="none" stroke="#000000" stroke-linecap="round" stroke-linejoin="round" stroke-miterlimit="10" d="M176.667,102.667
                		c0,0,21.911,1.965,30.21,7.192c10.064,6.336,12.02,9.724,15.296,20.106c1.8,5.702-0.924,14.607-4.524,19.342
                		c-2.321,3.054-7.049,4.578-8.863,7.951c-1.777,3.299-2.26,6.579-5.271,8.993c-3.849,3.093-24.699-24.371-32.432-26.565
                		c-10.145-2.877-12.891-6.859-15.333-16.409c-1.076-4.226,1.246-8.067,0.675-12.339c-0.435-3.234-5.64-3.73-5.15-6.755"
		/>
		<path fill="none" stroke="#000000" stroke-linecap="round" stroke-linejoin="round" stroke-miterlimit="10" d="M159.468,92.708
                		c-0.034-4.398-12.377-7.551-15.756-7.707c-6.386-0.293-5.882,5.975-10.583,8.789c-2.386,1.429-8.321,3.509-11.066,4.152
                		c-13.198,3.097-39.883,0.232-32.779,21.68c1.534,4.629,4.431,11.193,5.173,15.738c0.901,5.524,10.893,7.538,19.123,3.245
                		c0.371-0.194,9.445-6.096,9.703-6.31c2.895-2.405,2.749-6.428,4.709-8.602c2.879-3.189,12.826-14.904,16.059-18.106"
		/>
		<path fill="none" stroke="#000000" stroke-linecap="round" stroke-linejoin="round" stroke-miterlimit="10" d="M160,167
                		c-8.473,2.697-16.488,26.92-22.537,32.529c-10.213,9.471-6.063,15.5-11.005,22.223" />
		<path fill="none" stroke="#000000" stroke-linecap="round" stroke-linejoin="round" stroke-miterlimit="10" d="M153,147.5
                		c-6.42,5.1-16.968,13.727-20.505,21.23c-2.344,4.977-1.038,23.809-7.084,26.33" />
		<path fill="none" stroke="#000000" stroke-linecap="round" stroke-linejoin="round" stroke-miterlimit="10" d="M177.861,119.844
                		c9.127-1.187,25.205,14.706,25.134,24.041" />
		<path fill="none" stroke="#000000" stroke-linecap="round" stroke-linejoin="round" stroke-miterlimit="10" d="M157.734,151.354
                		c4.857,8.172,1.82,25.953-0.215,31.448c-1.922,5.188-13.145,24.265-15.532,29.202c-4.958,10.258,2.844,31.982,8.013,37.871
                		c5.413,6.154,1.297,32.939,6.733,35.336" />
		<path fill="none" stroke="#000000" stroke-linecap="round" stroke-linejoin="round" stroke-miterlimit="10" d="M155.211,148.55
                		c1.012,0.707,1.846,1.661,2.523,2.804" />
		<path fill="none" stroke="#000000" stroke-linecap="round" stroke-linejoin="round" stroke-miterlimit="10" d="M153,147.5
                		c0.816,0.234,1.553,0.59,2.211,1.05" />
		<path fill="none" stroke="#000000" stroke-linecap="round" stroke-linejoin="round" stroke-miterlimit="10" d="M144.05,105.589
                		c-3.777,25.903,9.86,41.637,8.95,41.911" />
		<path fill="none" stroke="#000000" stroke-linecap="round" stroke-linejoin="round" stroke-miterlimit="10" d="M155.75,109
                		c-7.75,16.75,8.062,44.827,10.436,48.898c5.039,8.64,1.498,22.476,0.393,25.871c-1.105,3.395-11.352,22.936-9.643,20.47
                		c1.707-2.466-11.785,14.385-6.072,27.129c3.617,8.063,11.38,18.015,6.072,27.507c-2.691,4.812-3.685,22.377,0.205,26.75"
		/>
		<path fill="none" stroke="#000000" stroke-linecap="round" stroke-linejoin="round" stroke-miterlimit="10" d="M131.967,168.471
                		c-4.505-4.779-17.514,5.993-23.311,5.281" />
		<path fill="none" stroke="#000000" stroke-linecap="round" stroke-linejoin="round" stroke-miterlimit="10" d="M128.871,61.656
                		c-4.512-7.781-10.284-13.832-16.027-20.671" />
		<path fill="none" stroke="#000000" stroke-linecap="round" stroke-linejoin="round" stroke-miterlimit="10" d="M140.825,229.852
                		c-3.224,0.951-5.79,13.338-4.999,16.064c1.977,6.824-4.702,10.432-5.771,16.166" />
		<path fill="none" stroke="#000000" stroke-linecap="round" stroke-linejoin="round" stroke-miterlimit="10" d="M167.938,230.229
                		c3.605-8.347-7.726-25.881-11.002-25.988" />
		<path fill="none" stroke="#000000" stroke-linecap="round" stroke-linejoin="round" stroke-miterlimit="10" d="M179.088,221.258
                		c0.089,7.365,0.752,18.277,4.426,19.333" />
		<path fill="none" stroke="#000000" stroke-linecap="round" stroke-linejoin="round" stroke-miterlimit="10" d="M178.188,209.064
                		c0.396,1.968,0.828,4.219,0.912,5.847c0.157,3.114,0,0,0,0c0.012,0.901-0.049,3.325-0.012,6.347" />
		<path fill="none" stroke="#000000" stroke-linecap="round" stroke-linejoin="round" stroke-miterlimit="10" d="M177.828,207.275
                		c0.107,0.545,0.23,1.151,0.359,1.789" />
		<path fill="none" stroke="#000000" stroke-linecap="round" stroke-linejoin="round" stroke-miterlimit="10" d="M177.496,205.077
                		c0.001,0.409,0.139,1.204,0.332,2.198" />
		<path fill="none" stroke="#000000" stroke-linecap="round" stroke-linejoin="round" stroke-miterlimit="10" d="M168,178.5
                		c-1.098,4.973,9.467,22.846,9.496,26.577" />
		<path fill="none" stroke="#000000" stroke-linecap="round" stroke-linejoin="round" stroke-miterlimit="10" d="M150.5,251.541
                		c-0.104,1.475-3.295,21.729-6.877,20.922" />
		<path fill="none" stroke="#000000" stroke-linecap="round" stroke-linejoin="round" stroke-miterlimit="10" d="M182.626,62.209
                		c-1.153-2.715-7.208-7.841-11.509-8.726c-4.301-0.886-4.428-0.254-6.553,0.25c-3.44,0.761-11.932,3.352-15.547,8.88
                		c-5.221,7.984-0.914,14.207-2.438,22.614" />
		<path fill="none" stroke="#000000" stroke-linecap="round" stroke-linejoin="round" stroke-miterlimit="10" d="M183.005,75.362
                		c1.399-2.785,3.288-8.473-0.379-13.153" />
		<path fill="none" stroke="#000000" stroke-linecap="round" stroke-linejoin="round" stroke-miterlimit="10" d="M196.802,84.148
                		c-2.032,0.363-4.635,0.736-6.737,0.911" />
		<path fill="none" stroke="#000000" stroke-linecap="round" stroke-linejoin="round" stroke-miterlimit="10" d="M164.667,104
                		c1.812,0.291,5,0.333,14-2.667s30.806-1.109,30.806-1.109c7.049-0.129,18.02,2.606,24.536-0.59
                		c17.462-8.565-10.177-22.181-14.815-25.306c-3.197-2.153-24.908-2.498-30.192-0.995c-1.362,0.388-8.14,2.819-10.25,4.541
                		c-2.799,2.286-14.117,10.08-13.819,14.105" />
		<path fill="none" stroke="#000000" stroke-linecap="round" stroke-linejoin="round" stroke-miterlimit="10" d="M143.258,105.274
                		c1.283,0.692,6.724-1.731,8.014-1.092" />
		<path fill="none" stroke="#000000" stroke-linecap="round" stroke-linejoin="round" stroke-miterlimit="10" d="M135,93
                		c-1.25,3.333,3.425,12.024,8.258,12.274" />
		<path fill="none" stroke="#000000" stroke-linecap="round" stroke-linejoin="round" stroke-miterlimit="10" d="M181.596,61.747"
		/>
		<path fill="none" stroke="#000000" stroke-linecap="round" stroke-linejoin="round" stroke-miterlimit="10" d="M105,122
                		c2-4.5,11-13,14.5-13" />
		<path fill="none" stroke="#000000" stroke-linecap="round" stroke-linejoin="round" stroke-miterlimit="10" d="M164.5,66.5
                		c-2.5,3-8.5,8.5-8,12.5" />
	</g>
</svg>
