<svg id="Layer_1" xmlns="http://www.w3.org/2000/svg" width="75" height="75" viewBox="0 0 300 300"><g id="shapes"><path id="root" fill="none" d="M150.667 103.667l-7.159 2.423.824 1.211c-.067.551-1.106 1.747-1.157 2.289-1.839 19.363 5.866 32.137 8.499 36.667.359.617 1.695 1.104 1.803 1.361-.002.011.004.023.002.035-.014.069-.012.136.004.201.004.01-.002.021.002.031.002.01.015.015.019.024.031.089.082.169.16.228.008.007.021.009.028.015.041.028.082.055.134.07.426.122.827.291 1.215.487.672.91 1.358 1.701 2.002 2.375 0 0 7.125 10.75.265 33.443-1.64 2.682-5.882 11.236-9.24 17.264-2.496 4.479-5.811 9.744-6.724 11.633-5.164 10.686 4.262 31.344 9.249 37.023 2.566 2.918 2.916 11.229 3.225 18.564l.978 2.071c.14-.344 2.285-11.356 2.437-11.625 3.008-5.381 2.758-9.774.692-14.853-.174-.33-.338-.666-.481-1.01-.773-.832-6.035-6.883-7.771-19.264 1.25-13.375 5.842-18.409 5.842-18.409s.477.241.532.159c.144-.207 1.263-1.361 1.125-1.625.44-.963 1.295-3.199 2.25-5.125 1.14-1.742 1.843-4.43 3.093-7.409 1.709-3.481 3.44-6.466 3.834-7.667.217-.67 4.615-22.049.49-25.924s-6.008-10.923-10.333-21c-1.512-3.316-4.991-18.41-1.325-27.244l-4.514-6.419zm-.552 144.49c-.43-.642-.865-1.359-1.299-2.148.437.712.879 1.436 1.299 2.148zm3.688-54.646l-.016-.002c.082-.151.164-.301.246-.452-.078.153-.154.302-.23.454z"/><path id="shoot" fill="none" d="M155.7 108.618c1.5 10.25-5.25 25.375 15.864 31.199 4.261-.324 10.067 7.637 16.387 14.053 7.604 7.721 12.738 12.774 15.438 12.774.407 0 .76-.115 1.057-.354 2.186-1.75 3.084-3.898 4.035-6.172.408-.973.828-1.98 1.365-2.975.937-1.74 2.7-2.963 4.568-4.256 1.55-1.074 2.312-2.701 3.41-4.146 3.703-4.869 5.959-13.316 4.125-19.125-3.34-10.586-5.131-13.477-15.123-19.767-7.518-4.735-24.682-7.551-28.717-7.958.433-.138.875-.282 1.336-.436 8.799-2.933 30.386-1.105 30.654-1.083 2.182-.036 4.729.196 7.434.446 5.956.55 12.706 1.174 17.314-1.087 3.877-1.901 4.623-3.928 4.727-6.616.263-6.799-10.404-14.147-16.818-17.934-1.171-.691-2.096-1.237-2.664-1.62-3.316-2.235-25.064-2.636-30.607-1.062-.752.213-2.83.936-4.989 1.825 1.222-2.807 2.718-8.161-.82-12.728-1.339-3.022-7.498-8.063-11.836-8.956-3.524-.726-4.378-.46-5.669-.057-.318.099-.666.208-1.092.309-1.934.428-11.79 2.876-15.857 9.094-1.44 2.203-2.176 4.268-2.514 6.276-.121-2.347.27-5.223.685-8.237.846-6.136 1.805-13.09-1.391-17.723-.922-1.335-1.666-2.66-2.385-3.941-1.296-2.309-2.52-4.489-4.662-6.643-.505-.508-1.13-.923-1.912-1.268-1.114-.492-2.395-.763-3.388-.945l-4.069-.17c-1.08-.246-1.88.662-2.514-.338h-.001c-17.225-10-29.386-7.179-39.43 9.873-4.45 7.555-4.746 17.863-.756 26.689 2.025 4.476 6.058 5.415 9.617 6.367 2.475.662 4.813 1.217 6.038 2.915 1.393 1.928 8.348 2.355 14.758 2.636.814.036 1.492.048 1.964.08 4.008.27 13.538 2.434 17.688 5.694l.878 4.61c-.196.301-.386.604-.575.908-.971 1.562-1.976 3.176-3.758 4.243-2.326 1.393-8.273 3.473-10.924 4.093-2.748.645-6.087 1.028-9.622 1.435-9.001 1.035-19.203 2.207-23.098 8.306-2.033 3.184-2.17 7.3-.42 12.584.483 1.459 1.094 3.089 1.741 4.815 1.365 3.644 2.912 7.773 3.413 10.846.315 1.934 1.625 3.529 3.789 4.612 1.85.926 4.091 1.38 6.467 1.38 3.166 0 6.569-.808 9.593-2.385.427-.224 9.485-6.115 9.791-6.367 1.747-1.453 2.456-3.463 3.081-5.238.462-1.31.897-2.547 1.679-3.414.954-1.057 2.677-3.042 4.673-5.34 3.535-4.072 7.809-8.994 10.304-11.646l.031.016s7.009-3.377 7.676-2.71m-5.203-32.88l-.746.278c.006-.658.038-1.313.087-1.964.04.302.083.6.146.882.052.233.258.392.488.392.011 0 .022-.003.033-.003-.003.138-.006.276-.008.415zm9.951 43.323l-.035-4.391c.076.19.138.388.167.604.172 1.278.056 2.543-.132 3.787zm20.207-12.085c.058-.017.112-.034.17-.051-.001.014.003.027.004.041l-.174.01z"/></g><g id="outlines"><path fill="none" stroke="#000000" stroke-linecap="round" stroke-linejoin="round" stroke-miterlimit="10" d="M126.201 28.673c-17.063-9.749-28.945-6.401-38.752 10.247-4.686 7.956-4.419 18.349-.731 26.506 3.344 7.39 12.469 5.056 15.604 9.403 1.619 2.241 13.288 2.355 16.351 2.562 4.761.321 20.224 4.51 19.578 9.608M128.864 29.623c-.987-.225-1.901-.514-2.663-.95M136.22 31.261c-.975-.43-2.104-.696-3.274-.911l-4.082-.727M145.821 70.556c-1.519-6.85 4.2-20.293-.853-27.616-2.558-3.704-3.689-7.197-6.991-10.516-.488-.491-1.086-.866-1.758-1.163M176.667 102.667s21.911 1.965 30.21 7.192c10.064 6.336 12.02 9.724 15.296 20.106 1.8 5.702-.924 14.607-4.524 19.342-2.321 3.054-7.049 4.578-8.863 7.951-1.777 3.299-2.26 6.579-5.271 8.993-3.849 3.093-24.699-24.371-32.432-26.565-10.145-2.877-12.891-6.859-15.333-16.409-1.076-4.226 1.246-8.067.675-12.339-.435-3.234-5.64-3.73-5.15-6.755"/><path fill="none" stroke="#000000" stroke-linecap="round" stroke-linejoin="round" stroke-miterlimit="10" d="M159.468 92.708c-.034-4.398-12.377-7.551-15.756-7.707-6.386-.293-5.882 5.975-10.583 8.789-2.386 1.429-8.321 3.509-11.066 4.152-13.198 3.097-39.883.232-32.779 21.68 1.534 4.629 4.431 11.193 5.173 15.738.901 5.524 10.893 7.538 19.123 3.245.371-.194 9.445-6.096 9.703-6.31 2.895-2.405 2.749-6.428 4.709-8.602 2.879-3.189 12.826-14.904 16.059-18.106M160 167c-8.473 2.697-16.488 26.92-22.537 32.529-10.213 9.471-6.063 15.5-11.005 22.223M153 147.5c-6.42 5.1-16.968 13.727-20.505 21.23-2.344 4.977-1.038 23.809-7.084 26.33M177.861 119.844c9.127-1.187 25.205 14.706 25.134 24.041"/><path fill="none" stroke="#000000" stroke-linecap="round" stroke-linejoin="round" stroke-miterlimit="10" d="M157.734 151.354c4.857 8.172 1.82 25.953-.215 31.448-1.922 5.188-13.145 24.265-15.532 29.202-4.958 10.258 2.844 31.982 8.013 37.871 5.413 6.154 1.297 32.939 6.733 35.336M155.211 148.55c1.012.707 1.846 1.661 2.523 2.804M153 147.5c.816.234 1.553.59 2.211 1.05M144.05 105.589c-3.777 25.903 9.86 41.637 8.95 41.911"/><path fill="none" stroke="#000000" stroke-linecap="round" stroke-linejoin="round" stroke-miterlimit="10" d="M155.75 109c-7.75 16.75 8.062 44.827 10.436 48.898 5.039 8.64 1.498 22.476.393 25.871-1.105 3.395-11.352 22.936-9.643 20.47 1.707-2.466-11.785 14.385-6.072 27.129 3.617 8.063 11.38 18.015 6.072 27.507-2.691 4.812-3.685 22.377.205 26.75M131.967 168.471c-4.505-4.779-17.514 5.993-23.311 5.281M128.871 61.656c-4.512-7.781-10.284-13.832-16.027-20.671M140.825 229.852c-3.224.951-5.79 13.338-4.999 16.064 1.977 6.824-4.702 10.432-5.771 16.166M167.938 230.229c3.605-8.347-7.726-25.881-11.002-25.988M179.088 221.258c.089 7.365.752 18.277 4.426 19.333M178.188 209.064c.396 1.968.828 4.219.912 5.847.157 3.114 0 0 0 0 .012.901-.049 3.325-.012 6.347M177.828 207.275c.107.545.23 1.151.359 1.789M177.496 205.077c.001.409.139 1.204.332 2.198M168 178.5c-1.098 4.973 9.467 22.846 9.496 26.577M150.5 251.541c-.104 1.475-3.295 21.729-6.877 20.922M182.626 62.209c-1.153-2.715-7.208-7.841-11.509-8.726-4.301-.886-4.428-.254-6.553.25-3.44.761-11.932 3.352-15.547 8.88-5.221 7.984-.914 14.207-2.438 22.614M183.005 75.362c1.399-2.785 3.288-8.473-.379-13.153M196.802 84.148c-2.032.363-4.635.736-6.737.911"/><path fill="none" stroke="#000000" stroke-linecap="round" stroke-linejoin="round" stroke-miterlimit="10" d="M164.667 104c1.812.291 5 .333 14-2.667s30.806-1.109 30.806-1.109c7.049-.129 18.02 2.606 24.536-.59 17.462-8.565-10.177-22.181-14.815-25.306-3.197-2.153-24.908-2.498-30.192-.995-1.362.388-8.14 2.819-10.25 4.541-2.799 2.286-14.117 10.08-13.819 14.105M143.258 105.274c1.283.692 6.724-1.731 8.014-1.092M135 93c-1.25 3.333 3.425 12.024 8.258 12.274M105 122c2-4.5 11-13 14.5-13M164.5 66.5c-2.5 3-8.5 8.5-8 12.5"/></g></svg>