<svg version="1.1" id="Layer_1" xmlns="http://www.w3.org/2000/svg" x="0" y="0" viewBox="0 0 612 792" xml:space="preserve" license="CCBY4.0" author="Provart Lab - Bio Analytic Resource, University of Toronto">
  <g id="shoot">
    <path id="BOTTOM_1_" fill="none" stroke="#000" stroke-miterlimit="10" d="M401 374c-18-1-43-25-45-27l-30-17h-1c-10-3-21-13-25-16l-43-11c-50 9-78 45-78 46h-1c-9 7-31 45-33 48 21 21 34 64 39 127 4 45 3 85 3 90 3 2 13 4 47 4 63 0 164-6 175-7a368 368 0 0 1 26-186c3-28-32-50-34-51z"/>
  </g>
  <path d="M176 349c-17-4-15-22-15-22 5-32-14-58-16-60a51 51 0 0 0-36-17c-15 0-27 9-33 14 1 2 3 11 16 17 14-3 26 0 35 8 10 9 15 22 17 32l2 20h-2s0-34-18-51c-9-7-19-9-32-7h-1s-15 12-14 29c1 13 9 25 25 36l-1 2c-17-12-25-25-26-38-1-15 10-26 14-29-12-6-16-14-16-17l-2 1c-17 20-24 39-18 58 12 44 85 69 89 71 3-5 22-38 32-47zm159-192c3-3 6-6 8-12 8-22-8-46-8-46-14-19-31-28-50-28l-14 1c3 2 8 5 10 11 1 5 0 11-5 17 17 8 25 26 25 51 1 19-4 36-4 36h-2c0-1 18-67-20-85l-7 9s-34 31-23 63l-2 1c-12-34 23-65 24-66 10-10 14-19 12-26-2-6-10-9-11-10l-14 5c-17 9-36 31-38 58-2 15 2 36 29 55 29 20 31 50 28 71-3 19-12 35-14 39l40 10c8-123 24-142 36-154zm49 151c14-4 31-29 31-30 8-10 9-22 4-36-2-7-5-12-7-15l-1 1-4 28c-5 22-13 35-22 39v-2c14-6 21-40 23-58-9 15-33 32-34 33l-1-1s32-23 36-39l1-4c-8-15-22-17-30-17h-4c-35 9-26 77-26 77v1c-3 8-20 37-23 43l29 17c9-25 28-36 28-37zm136-12c-5 4-35 29-34 54 0 2 6 41-7 45v-2c9-3 7-32 5-43-1-14 9-29 17-38l6-7c-8-1-44-7-61 13l-2-2c9-9 23-14 41-14 11-1 21 1 24 2l9-9-5-3-24-3c-19 0-34 6-44 17a68 68 0 0 0-15 46c0 9-21 18-27 21 3 2 11 7 18 14 11 11 17 23 17 35 7-6 16-7 23-7a184 184 0 0 1 16 0l17-2c23-6 43-62 43-63 7-28-8-46-17-54z" id="buds" fill="none" stroke="#000" stroke-miterlimit="10"/>
  <g id="outline">
    <g id="outline_1_" fill="none" stroke="#000" stroke-miterlimit="10">
      <path d="M144 396c-3-1-78-26-90-71-5-19 1-38 19-58l1-2h1v1c1 3 4 11 16 16v1c-3 3-14 14-13 29 0 13 9 25 25 37l1-1c-16-11-25-23-25-36-1-17 14-29 14-29v-1c14-2 25 1 33 8 18 15 19 46 19 50h1l-2-19c-3-9-7-23-17-32-9-7-21-10-35-8v1-1c-13-6-16-14-16-17 6-5 18-14 33-14 13 0 25 6 37 17 1 1 20 28 15 60 0 0-1 17 15 21h1l-1 1c-10 9-29 43-32 47zM74 267l-1 1c-17 19-23 38-18 57 12 43 82 68 89 70 3-5 21-36 31-46-16-5-15-22-15-22 5-32-14-58-15-59a51 51 0 0 0-36-17c-14 0-26 8-32 13 0 3 3 11 15 16 14-2 26 1 35 9 11 8 15 22 18 32l2 20h-3s0-34-19-50c-8-7-19-10-31-8h-1c0 1-14 12-13 29 0 12 9 24 25 36l-2 2c-17-12-26-24-26-38-1-15 9-26 13-29-11-6-14-12-16-16zm226 45h-1l-40-10h-1v-1c3-4 11-20 14-39 4-21 2-50-27-71-27-19-31-40-30-55 3-27 22-50 39-58 0 0 5-3 14-5 2 0 9 3 11 10s-2 16-12 27c0 0-35 31-24 64h1c-11-33 22-62 24-64l7-8v-1l1 1c36 17 21 78 19 84h1c1-2 5-18 5-35 0-25-9-42-25-50v-1c4-6 6-12 4-17-1-5-6-9-9-10l-1-1h1l14-2c20 0 37 10 51 28 0 1 15 24 7 47-2 6-4 9-8 13-11 12-28 30-35 153v1zm-40-11 39 9c7-123 24-141 35-153 4-4 6-7 8-12 8-22-7-46-7-46-14-18-31-28-50-28l-12 2c3 1 7 5 8 10 2 5 0 11-4 17 16 8 25 26 25 51 0 19-5 36-5 36v1l-3-1v-1c1 0 18-65-18-83l-7 8c-2 1-35 31-24 63v1l-3 1v-1c-11-34 24-66 24-66 10-10 14-19 12-25-1-7-8-10-10-10l-14 5c-16 8-35 31-38 57-1 14 3 36 29 54 30 21 32 51 28 72-3 18-11 34-13 39zm96 44-30-17c4-6 21-35 23-43 0-1-9-69 27-78l4-1c8 0 22 3 30 18v4c-4 15-33 36-36 39v1c4-3 26-19 34-33l1-2v2c-3 19-9 51-24 58l1 1c8-4 15-17 20-38a242 242 0 0 0 5-29v-2l1 1 8 16c4 14 3 26-4 37-1 0-17 25-32 30 0 0-19 11-28 36zm-29-17 29 16c9-25 27-36 27-36h1c14-5 31-30 31-30 7-10 8-22 4-36l-7-14v1l-5 27c-5 22-12 35-21 39h-1l-1-2v-1c7-2 17-13 24-55-10 15-33 31-34 32l-2-2 1-1s31-22 36-38v-4c-7-14-21-17-29-17l-4 1c-35 8-26 76-26 76l1 1h-1c-3 8-19 36-23 43zm110 95v-1c0-12-6-24-17-35l-17-14h-1l1-1c6-2 26-12 26-20 0-1-2-28 15-47 11-11 26-16 45-16 7 0 16 0 24 2h1l5 4v1l-10 8-24-2c-18 0-31 5-40 14l1 1c11-12 28-14 40-14l21 2h1l-1 1-5 6c-9 9-18 24-17 38 0 1 5 39-6 44l1 1c11-6 6-45 6-45-1-11 4-22 14-35 8-10 17-17 20-19 10 8 25 26 17 54 0 1-19 58-42 64l-18 2-8-1h-8c-7 0-15 1-23 7l-1 1zm-33-50 17 13c11 11 17 23 17 35 8-6 16-7 23-7h8l8 1 17-2c23-6 42-62 42-63 7-28-7-45-16-53-5 4-35 29-33 53 0 2 6 41-8 46l-1-3c4-1 6-8 7-18l-1-25c-1-15 9-29 17-39l5-5-20-2c-12 0-29 2-40 14l-2-2c9-10 23-15 41-15l24 2 9-8-5-3c-9-2-17-2-24-2-19 0-34 5-44 16-17 18-15 45-15 45 0 10-19 19-26 22z"/>
      <path d="M234 618c-27 0-44-1-48-3v-1c0-4 2-45-2-90-6-63-19-106-39-127 2-5 24-41 33-48v-1s29-36 79-45l44 10c3 4 14 14 24 16h1l30 18c1 1 27 25 45 26 4 2 38 24 35 52-2 5-11 24-18 52-7 30-15 78-8 134v1c-12 0-113 6-176 6zm-47-4c3 2 14 3 47 3 62 0 161-5 175-6a368 368 0 0 1 26-186c2-28-30-48-34-51-8 0-18-5-29-13-9-6-15-13-16-14l-30-17h-1c-10-2-21-13-25-16-4-2-30-8-43-10-49 9-78 45-78 45l-1 1c-9 7-30 43-32 47 20 21 33 64 39 127 4 45 2 84 2 90z"/>
      <path d="m514 290-25-3c-20 0-35 6-46 17a70 70 0 0 0-15 48c0 7-20 16-27 20-16-1-40-23-43-26 8-24 25-35 27-36 15-5 31-30 32-31 18-25-4-54-6-56a34 34 0 0 0-35-18c-16 4-26 19-28 44-2 17 0 33 0 35-3 9-20 39-23 43-10-2-22-13-24-15 7-124 24-141 35-153 4-4 7-7 9-13 8-24-8-48-8-48a64 64 0 0 0-52-29c-18 0-31 7-32 8-17 8-37 31-39 58-2 16 3 38 30 57 23 17 32 40 27 69-4 21-13 37-14 40-48 9-76 42-80 46-15-3-14-19-14-20 5-33-16-61-16-61a53 53 0 0 0-38-18c-22 0-37 17-38 18-17 20-24 40-18 59 6 25 31 43 50 54 20 11 38 18 40 18 49 49 42 216 42 218v1c1 1 5 4 49 4 66 0 176-7 177-7h1v-1a353 353 0 0 1 26-188c7-6 15-7 23-7h16l18-2c10-3 21-14 31-34 8-15 13-30 13-30 10-42-24-61-25-61zm-164-5v-1s-9-68 26-77h4c8 0 22 2 30 17l-1 4c-4 16-36 39-36 39l1 1c1-1 25-18 34-33-2 18-9 52-23 58v2c9-4 17-17 22-39a241 241 0 0 0 5-29c2 3 5 8 7 15 5 14 4 26-4 36 0 1-17 26-31 30 0 1-19 12-28 37l-29-17c3-6 20-35 23-43zm-77-23c3-21 1-51-28-71-27-19-31-40-29-55 2-27 21-49 38-58l14-5c1 1 9 4 11 10 2 7-2 16-12 26-1 1-36 32-24 66l2-1c-11-32 23-63 23-63l7-9c38 18 20 84 20 85h2s5-17 4-36c0-25-8-43-25-51 5-6 6-12 5-17-2-6-7-9-10-11l14-1c19 0 36 9 50 28 0 0 16 24 8 46-2 6-5 9-8 12-12 12-28 31-36 154l-40-10c2-4 11-20 14-39zM55 325c-6-19 1-38 18-58l2-1c0 3 4 11 16 17-4 3-15 14-14 29 1 13 9 26 26 38l1-2c-16-11-24-23-25-36-1-17 14-29 14-29h1c13-2 23 0 32 7 18 17 18 51 18 51h2l-2-20c-2-10-7-23-17-32-9-8-21-11-35-8-13-6-15-15-16-17 6-5 18-14 33-14 13 0 25 6 36 17 2 2 21 28 16 60 0 0-2 18 15 22-10 9-29 42-32 47-4-2-77-27-89-71zm380 100c-2 5-10 24-17 52-8 30-16 78-9 134-11 1-112 7-175 7-34 0-44-2-47-4 0-5 1-45-3-90-5-63-18-106-39-127 2-3 24-41 33-48h1c0-1 28-37 78-46l43 11c4 3 15 13 25 16h1l30 17c2 2 27 26 45 27 2 1 37 23 34 51zm102-75c0 1-20 57-43 63l-17 2a198 198 0 0 1-16 0c-7 0-16 1-23 7 0-12-6-24-17-35-7-7-15-12-18-14 6-3 27-12 27-21 0-1-2-28 15-46 10-11 25-17 44-17l24 3 5 3-9 9c-3-1-13-3-24-2-18 0-32 5-41 14l2 2c17-20 53-14 61-13l-6 7c-8 9-18 24-17 38 2 11 4 40-5 43v2c13-4 7-43 7-45-1-25 29-50 34-54 9 8 24 26 17 54z"/>
      <path d="M234 620c-44 0-48-3-49-4h-1v-1c0-2 8-168-41-217-3-1-21-7-40-19-20-11-44-29-51-53-5-20 1-40 19-60 1-1 16-18 38-18 14 0 26 6 38 18 1 0 21 28 16 61 0 1-1 16 14 19 4-4 33-36 79-45 2-4 11-20 14-40 5-29-4-52-27-68-27-19-31-42-30-58 3-27 23-50 40-59 0 0 14-8 32-8 20 0 38 10 52 29 0 1 17 25 8 49-2 6-5 9-9 13-10 12-27 30-34 152 2 3 13 13 22 16 4-6 20-34 23-43 0-2-2-18 0-35 3-25 13-40 29-44l4-1c7 0 23 2 32 19 1 1 24 31 5 57 0 1-17 26-32 31-1 0-19 11-27 35 4 3 27 24 43 25 7-3 26-12 26-19 0-1-2-29 16-48 11-12 26-17 46-17 8 0 16 0 25 2 1 1 36 20 25 62 0 0-5 15-13 30-10 20-21 32-31 35l-18 2a206 206 0 0 1-16-1c-8 0-15 1-23 8-2 4-39 83-26 187v1l-1 1c-1 0-111 6-177 6zm-49-5c4 3 20 4 49 4 66 0 176-6 177-6v-1a355 355 0 0 1 27-188c7-7 14-8 23-8h8l8 1 18-2c10-3 20-14 31-35l12-29c11-42-24-61-24-61-9-2-18-2-25-2-20 0-35 5-45 17a69 69 0 0 0-16 47c0 9-27 20-27 20-16-1-39-22-44-26 8-24 25-35 27-36 16-5 32-30 32-31 18-25-4-54-5-55a34 34 0 0 0-35-18c-15 3-25 18-28 43-2 17 0 34 0 35v1c-3 8-20 37-23 43-11-3-22-14-24-16 7-124 24-142 35-154 3-3 6-7 8-12 8-24-7-48-8-48-14-19-31-29-51-29-18 0-31 8-31 8-18 8-37 32-40 58-1 16 3 38 30 57 23 16 32 40 27 70-3 20-12 36-14 39v1c-48 9-76 42-79 45v1l-1-1c-16-3-15-19-15-20 5-33-15-60-15-61a53 53 0 0 0-38-17c-21 0-37 17-37 17-18 20-24 40-19 59 7 24 31 43 50 54 20 11 38 17 40 18h1c49 49 41 216 41 218zm49 3c-27 0-44-1-48-3v-1c0-4 2-45-2-90-6-63-19-106-39-127 2-5 24-41 33-48v-1s29-36 79-45l44 10c3 4 14 14 24 16h1l30 18c1 1 27 25 45 26 4 2 38 24 35 52-2 5-11 24-18 52-7 30-15 78-8 134v1c-12 0-113 6-176 6zm-47-4c3 2 14 3 47 3 62 0 161-5 175-6a368 368 0 0 1 26-186c2-28-30-48-34-51-18-1-42-24-45-27l-30-17h-1c-10-2-21-13-25-16-4-2-30-8-43-10-49 9-78 45-78 45l-1 1c-9 7-30 43-32 47 20 21 33 64 39 127 4 45 2 84 2 90zm250-191v-1c0-12-6-24-17-35l-17-14h-1l1-1c6-2 26-12 26-20 0-1-2-28 15-47 11-11 26-16 45-16 7 0 16 0 24 2h1l5 4v1l-10 8-24-2c-18 0-31 5-40 14l1 1c11-12 28-14 40-14l21 2h1l-1 1-5 6c-9 9-18 24-17 38 0 1 5 39-6 44l1 1c11-6 6-44 6-45-1-11 4-22 14-35 8-10 17-17 20-19 10 8 25 26 17 54 0 1-19 58-42 64l-18 2-8-1h-8c-7 0-15 1-23 7l-1 1zm-33-50 17 13c11 11 17 23 17 35 8-6 16-7 23-7h8l8 1 17-2c23-6 42-62 42-63 7-28-7-45-16-53-5 4-35 29-33 53 0 2 6 41-8 46l-1-3c8-3 8-28 6-43-1-15 9-29 17-39l5-5-20-2c-12 0-29 2-40 14l-2-2c9-10 23-15 41-15l24 2 9-8-5-3c-9-2-17-2-24-2-19 0-34 5-44 16-17 18-15 45-15 45 0 10-19 19-26 22zm-260 23c-3-1-78-26-90-71-5-19 1-38 19-58l1-2h1v1c1 3 4 11 16 16v1c-3 3-14 14-13 29 0 13 9 25 25 37l1-1c-16-11-25-23-25-36-1-17 14-29 14-29v-1c14-2 25 1 33 8 18 15 19 46 19 50h1l-2-19c-3-9-7-23-17-32-9-7-21-10-35-8v1-1c-13-6-16-14-16-17 6-5 18-14 33-14 13 0 25 6 37 17 1 1 20 28 15 60 0 0-1 17 15 21h1l-1 1c-10 9-29 43-32 47zM74 267l-1 1c-17 19-23 38-18 57 12 43 82 68 89 70 3-5 21-36 31-46-16-5-15-22-15-22 5-32-14-58-15-59a51 51 0 0 0-36-17c-14 0-26 8-32 13 0 3 3 11 15 16 14-2 26 1 35 9 11 8 15 22 18 32l2 20h-3s0-34-19-50c-8-7-19-10-31-8h-1c0 1-14 12-13 29 0 12 9 24 25 36l-2 2c-17-12-26-24-26-38-1-15 9-26 13-29-11-6-14-12-16-16zm282 78-30-17c4-6 21-35 23-43 0-1-9-69 27-78l4-1c8 0 22 3 30 18v4c-4 15-33 36-36 39v1c4-3 26-19 34-33l1-2v2c-3 19-9 51-24 58l1 1c8-4 15-17 20-38a243 243 0 0 0 5-29v-2l1 1 8 16c4 14 3 26-4 37-1 0-17 25-32 30 0 0-19 11-28 36zm-29-17 29 16c9-25 27-36 27-36h1c14-5 31-30 31-30 7-10 8-22 4-36l-7-14v1l-5 27c-5 22-12 35-21 39h-1l-1-2v-1c7-2 17-13 24-55-10 15-33 31-34 32l-2-2 1-1s31-22 36-38v-4c-7-14-21-17-29-17l-4 1c-35 8-26 76-26 76l1 1h-1c-3 8-19 36-23 43zm-27-16h-1l-40-10h-1v-1c3-4 11-20 14-39 4-21 2-50-27-71-27-19-31-40-30-55 3-27 22-50 39-58 0 0 5-3 14-5 2 0 9 3 11 10s-2 16-12 27c0 0-35 31-24 64h1c-11-33 22-62 24-64l7-8v-1l1 1c36 17 21 78 19 84h1c1-2 5-18 5-35 0-25-9-42-25-50v-1c4-6 6-12 4-17-1-5-6-9-9-10l-1-1h1l14-2c20 0 37 10 51 28 0 1 15 24 7 47-2 6-4 9-8 13-11 12-28 30-35 153v1zm-40-11 39 9c7-123 24-141 35-153 4-4 6-7 8-12 8-22-7-46-7-46-14-18-31-28-50-28l-12 2c3 1 7 5 8 10 2 5 0 11-4 17 16 8 25 26 25 51 0 19-5 36-5 36v1l-3-1v-1c1 0 18-65-18-83l-7 8c-2 1-35 31-24 63v1l-3 1v-1c-11-34 24-66 24-66 10-10 14-19 12-25-1-7-8-10-10-10l-14 5c-16 8-35 31-38 57-1 14 3 36 29 54 30 21 32 51 28 72-3 18-11 34-13 39z"/>
    </g>
  </g>
</svg>