<svg id="Layer_1" xmlns="http://www.w3.org/2000/svg" width="300" height="300" viewBox="0 0 612 792"><g id="shoot"><path id="BOTTOM_1_" fill="none" stroke="#000000" stroke-miterlimit="10" d="M400.662 373.553c-17.86-.971-42.94-24.881-44.794-26.671l-30.094-17.269-.057.092-.703-.15c-10.053-2.141-21.167-12.475-24.518-15.781-4.133-2.106-29.919-7.863-43.278-10.676-49.932 9.379-78.426 45.232-78.708 45.594l-.368.472-.164-.028c-8.978 6.952-30.93 44.965-32.546 47.775 20.334 21.115 33.469 63.945 39.038 127.377 3.947 44.961 2.486 85.067 2.274 90.197 2.769 1.646 13.534 3.479 47.712 3.479 62.083 0 163.508-6.111 175.025-6.817-7.078-55.753.52-103.735 8.172-134.247 6.956-27.738 15.212-46.438 17.833-52.021 2.544-28.309-31.988-49.627-34.824-51.326z"/></g><g id="buds"><path fill="none" stroke="#000000" stroke-miterlimit="10" d="M175.531 348.623c-16.056-4.117-14.818-21.446-14.803-21.628 4.776-31.538-14.227-58.333-15.263-59.762-11.438-11.273-23.543-16.989-35.981-16.989-15.452 0-27.687 8.934-33.249 13.847.405 2.108 2.807 10.655 15.535 16.757l-.001-.007c14.246-2.376 26.06.343 35.115 8.076 10.249 8.752 15.007 22.44 17.193 32.38 2.357 10.718 2.317 19.253 2.314 19.61l-2-.016c.002-.342.041-34.365-18.812-50.459-8.28-7.068-19.062-9.689-32.048-7.829l-.508.415c-.147.12-14.681 12.195-13.987 29.122.514 12.53 9.064 24.591 25.413 35.845l-1.134 1.646c-16.903-11.635-25.744-24.228-26.278-37.427-.615-15.2 9.934-26.344 13.549-29.701-11.724-5.715-15.094-13.351-16.049-16.851-.994.955-1.536 1.557-1.564 1.588-17.296 19.802-23.499 39.18-18.431 57.594 12.186 44.27 85.751 69.535 89.352 70.746 2.654-4.615 21.943-37.874 31.637-46.957zM334.645 157.335c3.494-3.758 6.256-6.726 8.139-12.089 7.981-22.743-7.39-46.243-7.544-46.478-13.783-18.5-30.799-27.903-50.542-27.903-4.878 0-9.42.598-13.43 1.458 3.147 1.576 7.875 4.822 9.418 10.606 1.35 5.062-.074 10.906-4.203 17.445 16.043 7.896 24.649 25.246 24.897 50.28.19 19.146-4.601 36.273-4.649 36.444l-1.924-.545c.188-.665 18.261-66.253-19.439-84.493-1.92 2.784-4.297 5.684-7.166 8.704-.415.368-34.67 30.781-23.528 63.489l-1.894.645c-11.576-33.984 23.682-65.264 24.039-65.576 9.727-10.25 13.766-18.973 11.938-25.864-1.839-6.932-9.277-9.842-10.742-10.353-8.348 2.216-13.701 5.286-13.784 5.334-17.002 8.087-36.208 30.838-38.458 57.151-1.276 14.927 2.724 36.616 29.03 55.174 29.351 20.706 31.378 50.062 27.91 71.042-3.186 19.274-11.486 35.183-13.937 39.576 6.271 1.333 31.892 6.85 40.504 9.77 7.3-123.621 24.184-141.791 35.365-153.817zM383.724 308.469l.199-.088c14.484-4.579 31.048-29.845 31.213-30.099 7.402-10.396 8.771-22.565 4.091-36.207-2.353-6.861-5.724-12.375-7.722-15.309-.081.547-.184 1.099-.328 1.659-.62 5.771-1.975 16.322-4.492 27.271-5.068 22.062-12.216 35.174-21.236 38.969l-.775-1.844c14.771-6.213 21.252-39.936 23.688-57.86-8.931 15.39-32.949 32.529-34.225 33.43l-1.153-1.632c.349-.248 31.892-22.745 36.198-38.509.234-2.166.363-3.64.412-4.219-7.521-14.959-21.66-17.207-29.443-17.207-2.444 0-4.006.237-4.021.239-35.621 8.91-26.262 76.685-26.164 77.369l.035.243-.081.231c-2.942 8.373-19.445 36.7-23.13 42.982l29.148 16.725c8.939-24.992 27.596-36.033 27.786-36.144zM520.04 296.433c-4.789 3.776-35.18 28.766-33.982 53.597.233 1.57 5.799 40.764-6.823 45.322l-.682-1.881c9.212-3.328 7.104-32.348 5.519-43.25-.715-14.719 8.984-29.132 17.249-38.648 1.911-2.203 3.833-4.24 5.679-6.102-8.302-1.596-43.523-6.988-61.205 12.119l-1.467-1.359c8.639-9.336 22.625-14.426 40.442-14.717 11.701-.203 21.577 1.751 23.94 2.261 4.334-4.219 8.022-7.269 9.74-8.635-2.616-2.05-4.572-3.198-5.072-3.481-8.797-1.719-17.059-2.591-24.562-2.591-19.065 0-33.882 5.55-44.032 16.497-16.938 18.266-15.083 45.662-15.062 45.937.002 9.178-20.262 18.558-26.561 21.251 3.188 2.035 10.41 6.969 17.352 13.986 11.254 11.375 17.102 23.484 17.092 35.224 7.883-6.416 15.979-7.344 23.581-7.344 2.478 0 4.965.102 7.603.211 2.729.113 5.555.229 8.461.229 6.497 0 11.973-.617 17.23-1.949 22.928-5.805 42.105-62.279 42.298-62.85 7.211-28.515-7.47-46.004-16.738-53.827z"/></g><g id="outline"><g id="outline_1_"><path fill="none" stroke="#000000" stroke-miterlimit="10" d="M144.123 396.186l-.388-.131c-3.155-1.061-77.4-26.497-89.675-71.087-5.115-18.585 1.122-38.118 18.537-58.056.008-.009.551-.617 1.594-1.619l.607-.583.222.812c1.04 3.808 4.473 11.019 15.786 16.534l.655.319-.534.496c-3.295 3.061-14 14.219-13.39 29.315.523 12.927 9.152 25.29 25.651 36.75l.566-.823c-16.217-11.267-24.701-23.361-25.218-35.952-.704-17.167 14.021-29.408 14.17-29.529l.616-.503.138-.02c13.108-1.876 24.089.811 32.444 7.943 17.753 15.156 18.909 46.039 18.982 50.343l1.003.008c-.022-2.001-.246-9.657-2.301-18.999-2.17-9.866-6.885-23.445-17.029-32.107-8.804-7.519-20.364-10.241-34.198-8.046l.094.473-.901-.425c-12.796-6.134-15.336-14.649-15.81-17.113l-.054-.28.214-.188c5.907-5.218 18.124-13.973 33.58-13.973 12.573 0 24.796 5.764 36.332 17.133.88 1.202 20.231 28.337 15.406 60.193-.009.137-1.18 17.065 14.433 21.069l.883.227-.665.623c-9.716 9.104-29.34 43.007-31.545 46.842l-.205.354zM74.295 266.589c-.618.616-.944.979-.948.984-17.177 19.666-23.343 38.888-18.323 57.129 11.818 42.933 82.084 68.018 88.642 70.273 2.951-5.116 21.143-36.358 30.89-46.103-15.58-4.609-14.34-21.743-14.326-21.919 4.768-31.489-14.354-58.301-15.17-59.427-11.288-11.115-23.275-16.782-35.576-16.782-14.939 0-26.82 8.387-32.7 13.531.581 2.645 3.254 10.339 15.05 16.048 14.286-2.35 26.265.434 35.375 8.213 10.355 8.843 15.154 22.638 17.356 32.653 2.372 10.781 2.329 19.362 2.326 19.722l-.004.5-3-.023.003-.5c.002-.34.026-34.144-18.636-50.075-8.103-6.917-18.757-9.533-31.515-7.733l-.4.327c-.145.119-14.487 12.065-13.804 28.714.507 12.365 8.985 24.293 25.197 35.454l.412.283-1.701 2.47-.412-.284c-17.039-11.729-25.953-24.453-26.494-37.818-.599-14.793 9.33-25.872 13.185-29.592-10.426-5.279-14.12-12.008-15.427-16.045zM299.739 311.837l-.621-.21c-8.696-2.949-35.219-8.643-40.447-9.754l-.663-.141.33-.592c2.455-4.401 10.712-20.249 13.88-39.414 3.444-20.839 1.434-49.996-27.705-70.552-26.5-18.694-30.528-40.568-29.24-55.625 2.266-26.496 21.651-49.432 38.741-57.56.017-.012 5.406-3.118 13.871-5.366l.148-.039.145.05c1.513.528 9.157 3.523 11.061 10.696 1.875 7.068-2.182 15.93-12.058 26.337-.387.341-35.067 31.116-24.087 64.596l.947-.322c-10.64-32.458 22.409-62.29 23.828-63.55 2.771-2.92 5.165-5.828 7.086-8.614l.244-.353.386.187c36.321 17.573 21.422 78.526 19.832 84.597l.963.273c.77-2.914 4.671-18.567 4.5-35.82-.246-24.797-8.759-42.03-24.618-49.836l-.499-.246.297-.47c4.054-6.419 5.447-12.156 4.143-17.049-1.451-5.439-5.781-8.597-9.159-10.288l-1.273-.638 1.392-.298c4.545-.975 9.1-1.47 13.535-1.47 19.91 0 37.049 9.456 50.943 28.104.175.259 15.68 23.972 7.614 46.942-1.917 5.461-4.709 8.463-8.242 12.264-11.127 11.968-27.939 30.055-35.233 153.507l-.041.654zm-40.201-10.802c7.878 1.68 30.493 6.591 39.28 9.439 7.333-123.219 24.256-141.427 35.46-153.479 3.454-3.715 6.183-6.649 8.029-11.914 7.899-22.505-7.334-45.802-7.486-46.035-13.682-18.359-30.549-27.68-50.125-27.68-3.927 0-7.948.394-11.975 1.172 3.318 1.904 7.073 5.117 8.446 10.264 1.347 5.052.011 10.896-3.971 17.373 15.903 8.095 24.435 25.533 24.683 50.476.19 19.183-4.62 36.414-4.668 36.585l-.136.481-2.886-.818.136-.481c.185-.654 18.004-65.414-18.793-83.719-1.908 2.721-4.25 5.548-6.968 8.41-1.437 1.278-34.325 30.966-23.418 62.984l.162.473-2.84.967-.161-.473c-11.681-34.291 23.823-65.799 24.184-66.113 9.588-10.106 13.563-18.649 11.783-25.359-1.721-6.485-8.566-9.338-10.279-9.958-8.229 2.204-13.459 5.213-13.512 5.243-16.875 8.028-35.977 30.637-38.211 56.761-1.265 14.797 2.708 36.302 28.82 54.723 29.562 20.855 31.606 50.411 28.115 71.532-3.068 18.546-10.858 34.008-13.669 39.146zM356.206 345.347l-30.104-17.273.257-.436c3.34-5.693 20.146-34.519 23.09-42.895l.04-.116-.02-.122c-.099-.689-9.416-68.933 26.538-77.925.062-.012 1.646-.254 4.143-.254 7.88 0 22.24 2.271 29.892 17.482l.062.126-.012.141c-.049.581-.178 2.059-.413 4.23-4.085 14.969-32.271 35.86-36.003 38.571l.579.817c3.379-2.43 25.276-18.511 33.672-32.982l1.271-2.186-.343 2.504c-2.563 18.881-9.02 51.335-23.529 58.051l.388.922c8.65-3.979 15.542-16.899 20.487-38.418 2.546-11.071 3.899-21.802 4.48-27.213.141-.559.242-1.085.331-1.679l.188-1.266.72 1.058c1.874 2.751 5.377 8.415 7.781 15.428 4.732 13.803 3.336 26.137-4.156 36.659-.154.238-16.768 25.638-31.47 30.286l-.147.069c-.137.083-18.665 11.106-27.519 35.857l-.203.564zm-28.731-17.639l28.194 16.177c9.054-24.698 27.615-35.739 27.803-35.849l.249-.113c14.415-4.56 30.831-29.661 30.995-29.914 7.309-10.262 8.661-22.292 4.038-35.772-2.1-6.123-5.051-11.202-6.979-14.164-.035.163-.073.321-.113.477-.571 5.362-1.935 16.138-4.489 27.258-5.106 22.229-12.353 35.458-21.531 39.318l-.461.194-1.163-2.766.46-.194c6.062-2.549 17.012-13.122 23.06-55.117-9.831 14.992-32.124 30.859-33.109 31.556l-.408.289-1.73-2.447.407-.289c.314-.225 31.761-22.698 36.007-38.233.203-1.929.328-3.333.385-3.988-7.426-14.618-21.308-16.806-28.936-16.806-2.392 0-3.93.231-3.943.233-35.044 8.768-25.843 76.125-25.745 76.804l.053.364-.122.347c-2.912 8.267-19.054 36.031-22.922 42.635zM437.104 423.016l.003-1.053c.008-11.601-5.854-23.659-16.947-34.873-7.021-7.096-14.412-12.096-17.267-13.917l-.798-.509.87-.373c6.16-2.634 26.259-11.917 26.257-20.791-.02-.24-1.87-27.873 15.196-46.276 10.25-11.053 25.188-16.657 44.398-16.657 7.531 0 15.828.875 24.655 2.6l.15.056c.54.306 2.507 1.464 5.135 3.523l.498.391-.495.394c-1.771 1.411-5.391 4.404-9.703 8.602l-.19.187-.262-.057c-2.594-.559-12.278-2.447-23.826-2.25-17.446.285-31.174 5.19-39.744 14.192l.733.68c10.888-11.429 28.114-13.842 40.717-13.842 9.164 0 16.845 1.213 20.605 1.936l.921.177-.658.666c-2.062 2.076-3.909 4.064-5.656 6.077-8.203 9.448-17.833 23.761-17.128 38.296.053.344 5.478 38.528-5.383 43.554l.341.943c11.73-5.282 6.096-44.193 6.037-44.59-.518-10.637 4.481-22.425 14.854-35.084 8.049-9.825 16.817-17.01 19.313-18.979l.318-.252.312.263c9.431 7.96 24.165 25.604 16.896 54.331-.203.609-19.525 57.355-42.657 63.21-5.299 1.342-10.812 1.967-17.354 1.967-2.964 0-5.896-.122-8.48-.229-2.493-.104-5.072-.211-7.58-.211-7.471 0-15.459.876-23.267 7.229l-.814.669zm-32.886-50.176c3.301 2.161 10.135 6.959 16.65 13.547 10.96 11.078 16.896 23 17.223 34.554 7.79-5.979 15.694-6.822 23.095-6.822 2.528 0 5.117.105 7.621.211 2.577.105 5.497.229 8.44.229 6.458 0 11.895-.613 17.109-1.936 22.607-5.723 41.755-61.956 41.944-62.523 7.042-27.848-7.014-45.087-16.271-53.02-4.816 3.849-34.643 28.703-33.475 52.926.245 1.628 5.95 41.083-7.152 45.816l-.473.17-1.02-2.821.471-.17c3.736-1.35 5.979-7.691 6.479-18.338.407-8.661-.438-18.541-1.287-24.37-.729-14.915 9.044-29.462 17.366-39.048 1.571-1.812 3.228-3.603 5.04-5.455-3.521-.634-10.919-1.747-19.496-1.747-12.534 0-29.705 2.409-40.325 13.886l-.34.368-2.2-2.039.339-.367c8.734-9.439 22.844-14.584 40.804-14.877 11.274-.191 20.832 1.592 23.791 2.216 3.894-3.773 7.203-6.561 9.09-8.083-2.22-1.698-3.872-2.688-4.438-3.013-8.735-1.703-16.939-2.566-24.386-2.566-18.921 0-33.612 5.497-43.666 16.337-16.772 18.087-14.95 45.287-14.932 45.56.005 9.125-18.88 18.258-26.001 21.375z"/><path fill="none" stroke="#000000" stroke-miterlimit="10" d="M234.459 618.463c-27.869 0-44.008-1.193-47.968-3.549l-.256-.152.012-.298c.185-4.472 1.69-44.987-2.272-90.133-5.556-63.286-18.644-106.04-38.9-127.074l-.26-.271.187-.325c2.401-4.175 23.716-40.985 32.673-47.921l.174-.135.085.015.183-.235c.284-.363 28.896-36.365 79.011-45.778l.098-.019.098.021c1.556.328 38.174 8.055 43.402 10.72l.124.089c3.177 3.135 14.315 13.528 24.271 15.648l.353.076.123-.207 30.619 17.587c1.08 1.043 26.662 25.563 44.474 26.532l.123.006.106.064c3.858 2.312 37.617 23.403 35.068 51.797l-.046.168c-2.406 5.127-10.805 24.024-17.802 51.929-7.627 30.409-15.232 78.354-8.161 134.063l.067.529-.533.03c-11.366.702-112.868 6.823-175.053 6.823zm-47.2-4.268c3.001 1.521 13.748 3.268 47.2 3.268 61.282 0 160.787-5.949 174.462-6.785-6.978-55.637.626-103.507 8.249-133.901 6.983-27.849 15.363-46.77 17.828-52.029 2.396-27.503-30.222-48.126-34.489-50.7-7.541-.453-17.143-4.864-28.54-13.115-8.677-6.281-15.456-12.732-16.402-13.645l-29.687-17.034-.969-.208c-10.161-2.164-21.408-12.609-24.708-15.858-4.29-2.107-29.892-7.818-42.989-10.578-49.686 9.374-78.028 45.032-78.309 45.392l-.552.708-.239-.042c-8.738 7.027-29.695 43.074-32.06 47.169 20.27 21.298 33.362 64.16 38.915 127.408 3.892 44.307 2.52 84.166 2.29 89.95z"/><path fill="none" stroke="#000000" stroke-miterlimit="10" d="M514.194 289.824l-.277-.099c-8.98-1.763-17.426-2.658-25.101-2.658-19.652 0-34.966 5.771-45.512 17.149-17.529 18.916-15.601 47.152-15.582 47.359 0 7.577-19.235 16.916-26.919 19.992-16.135-.852-39.611-22.415-43.176-25.773 8.302-23.764 25.623-34.699 27.01-35.543 15.137-4.884 31.483-29.818 32.149-30.845 18.009-25.289-3.886-54.266-5.327-56.117-8.282-16.662-24.651-18.464-31.313-18.464-2.612 0-4.259.252-4.415.281-15.567 3.892-25.295 18.96-28.125 43.575-1.979 17.187.051 33.582.344 35.789-3.165 8.669-20.449 38.253-23.215 42.966-10.046-2.537-21.498-13.735-23.486-15.742 7.245-123.286 23.861-141.167 34.86-152.997 3.509-3.773 6.538-7.032 8.559-12.789 8.319-23.696-7.604-48.006-7.797-48.291-14.212-19.078-31.766-28.751-52.175-28.751-17.811 0-30.925 7.527-31.4 7.808-17.43 8.287-37.204 31.692-39.517 58.748-1.321 15.449 2.789 37.874 29.87 56.979 22.869 16.133 31.987 39.356 27.099 69.025-3.368 20.446-12.6 37.062-14.155 39.753-47.352 8.99-75.677 41.48-79.269 45.809-15.772-3.086-14.658-19.137-14.61-19.76 5.004-33.031-15.479-60.969-15.687-61.248l-.099-.114c-11.843-11.693-24.44-17.622-37.443-17.622-22.12 0-37.37 16.949-38.012 17.676-17.772 20.345-24.116 40.347-18.857 59.448 6.661 24.195 31.034 42.537 50.308 53.664 19.579 11.305 38.01 17.662 40.263 18.419 48.94 48.91 41.62 215.805 41.54 217.486l-.023.496.382.318c1.25 1.041 5.053 4.209 49.375 4.209 65.624 0 175.118-6.818 176.215-6.889l1.066-.066-.137-1.061c-13.602-104.555 24.357-183.555 26.428-187.748 7.229-6.287 14.491-7.58 23.152-7.58 2.436 0 4.902.102 7.52.209 2.751.113 5.596.229 8.543.229 6.667 0 12.299-.639 17.723-2.012 10.131-2.562 20.574-14.178 31.041-34.515 7.73-15.018 12.613-29.492 12.686-29.709 10.567-41.773-24.152-60.806-24.504-60.994zm-164.276-4.915l.081-.231-.035-.243c-.098-.684-9.457-68.459 26.164-77.369.016-.002 1.575-.239 4.021-.239 7.783 0 21.922 2.248 29.443 17.207-.049.579-.178 2.053-.412 4.219-4.309 15.764-35.852 38.262-36.198 38.509l1.153 1.632c1.273-.901 25.294-18.04 34.225-33.43-2.438 17.924-8.918 51.647-23.688 57.86l.775 1.844c9.021-3.795 16.168-16.907 21.236-38.969 2.52-10.949 3.872-21.5 4.492-27.271.146-.561.247-1.112.328-1.659 1.998 2.934 5.369 8.448 7.722 15.309 4.681 13.642 3.312 25.811-4.091 36.207-.165.254-16.729 25.52-31.213 30.099l-.199.088c-.188.11-18.847 11.151-27.787 36.146l-29.146-16.725c3.684-6.284 20.187-34.611 23.129-42.984zm-77.207-23.101c3.468-20.98 1.441-50.336-27.91-71.042-26.306-18.558-30.307-40.247-29.03-55.174 2.25-26.312 21.455-49.064 38.458-57.151.083-.048 5.436-3.118 13.784-5.334 1.464.511 8.902 3.42 10.742 10.353 1.829 6.891-2.21 15.615-11.938 25.864-.357.312-35.615 31.591-24.039 65.576l1.894-.645c-11.142-32.708 23.114-63.121 23.528-63.489 2.868-3.021 5.246-5.92 7.166-8.704 37.7 18.24 19.627 83.828 19.439 84.493l1.924.545c.048-.171 4.839-17.298 4.649-36.444-.249-25.034-8.854-42.383-24.897-50.28 4.129-6.54 5.553-12.383 4.203-17.445-1.542-5.785-6.271-9.03-9.418-10.606 4.01-.86 8.552-1.458 13.43-1.458 19.743 0 36.758 9.402 50.542 27.903.154.235 15.525 23.734 7.544 46.478-1.883 5.363-4.645 8.331-8.139 12.089-11.181 12.026-28.062 30.196-35.366 153.818-8.612-2.92-34.233-8.438-40.504-9.77 2.452-4.394 10.752-20.303 13.938-39.577zM54.542 324.834c-5.068-18.414 1.135-37.792 18.431-57.594.028-.031.57-.633 1.564-1.588.956 3.5 4.326 11.136 16.049 16.851-3.615 3.357-14.164 14.501-13.549 29.701.534 13.199 9.375 25.792 26.278 37.427l1.134-1.646C88.1 336.731 79.55 324.671 79.036 312.14c-.694-16.927 13.84-29.001 13.987-29.122l.508-.415c12.987-1.86 23.769.761 32.048 7.829 18.853 16.094 18.814 50.117 18.812 50.459l2 .016c.003-.357.043-8.893-2.314-19.61-2.186-9.94-6.944-23.628-17.193-32.38-9.055-7.733-20.869-10.452-35.115-8.076l.001.007c-12.728-6.102-15.13-14.648-15.535-16.757 5.562-4.913 17.796-13.847 33.249-13.847 12.438 0 24.542 5.716 35.981 16.989 1.036 1.429 20.04 28.224 15.263 59.762-.015.182-1.252 17.511 14.803 21.628-9.694 9.083-28.983 42.343-31.637 46.958-3.601-1.211-77.166-26.477-89.352-70.747zm380.947 100.043c-2.621 5.584-10.877 24.281-17.833 52.021-7.652 30.512-15.25 78.494-8.172 134.246-11.519.707-112.941 6.818-175.025 6.818-34.178 0-44.943-1.832-47.712-3.479.212-5.129 1.673-45.236-2.274-90.197-5.569-63.432-18.704-106.262-39.038-127.377 1.616-2.81 23.568-40.823 32.546-47.775l.164.028.368-.472c.282-.361 28.777-36.215 78.708-45.594 13.358 2.812 39.145 8.569 43.278 10.676 3.351 3.307 14.465 13.641 24.518 15.781l.703.15.057-.092 30.094 17.269c1.854 1.79 26.934 25.7 44.794 26.671 2.833 1.701 37.365 23.019 34.824 51.326zm101.287-74.618c-.191.569-19.371 57.045-42.299 62.85-5.26 1.332-10.733 1.949-17.23 1.949-2.906 0-5.73-.113-8.461-.229-2.636-.109-5.125-.211-7.603-.211-7.603 0-15.698.928-23.58 7.344.009-11.74-5.839-23.85-17.093-35.224-6.939-7.018-14.162-11.951-17.352-13.986 6.299-2.693 26.562-12.073 26.561-21.251-.021-.274-1.876-27.671 15.062-45.937 10.15-10.947 24.967-16.497 44.032-16.497 7.503 0 15.765.872 24.562 2.591.5.283 2.456 1.432 5.072 3.481-1.717 1.366-5.406 4.416-9.74 8.635-2.363-.51-12.239-2.464-23.938-2.261-17.819.291-31.808 5.381-40.444 14.717l1.467 1.359c17.682-19.107 52.903-13.715 61.205-12.119-1.846 1.861-3.767 3.898-5.679 6.102-8.265 9.517-17.964 23.93-17.249 38.648 1.588 10.902 3.693 39.922-5.519 43.25l.682 1.881c12.622-4.559 7.059-43.752 6.823-45.322-1.195-24.831 29.193-49.82 33.982-53.597 9.271 7.824 23.952 25.313 16.739 53.827z"/><path fill="none" stroke="#000000" stroke-miterlimit="10" d="M234.459 620.463c-44.502 0-48.274-3.142-49.695-4.324l-.574-.479.035-.746c.08-1.677 7.417-168.137-41.312-217.026-2.539-.857-20.854-7.228-40.242-18.423-19.354-11.174-43.834-29.606-50.54-53.964-5.307-19.274 1.073-39.431 18.962-59.91.646-.729 16.028-17.847 38.389-17.847 13.139 0 25.854 5.978 37.794 17.766l.125.142c.232.309 20.842 28.402 15.804 61.65-.047.622-1.062 16.006 13.923 19.136 3.951-4.696 32.373-36.742 79.143-45.708 2.01-3.512 10.715-19.561 13.98-39.386 4.854-29.463-4.195-52.522-26.894-68.535-27.274-19.241-31.412-41.851-30.08-57.43 2.329-27.241 22.245-50.811 39.8-59.157.094-.058 13.499-7.856 31.615-7.856 20.576 0 38.265 9.741 52.577 28.953.179.263 16.339 24.632 7.867 48.755-2.056 5.857-5.118 9.15-8.664 12.963-10.939 11.768-27.472 29.55-34.714 152.462 2.463 2.464 13.173 12.753 22.735 15.357 3.711-6.331 19.778-33.923 22.94-42.443-.309-2.369-2.284-18.776-.327-35.789 2.856-24.84 12.714-40.056 28.501-44.002.049-.01 1.726-.296 4.535-.296 6.749 0 23.354 1.826 31.764 18.742.923 1.168 23.621 30.884 5.287 56.629-.679 1.044-17.014 26.016-32.348 31.013-1.263.779-18.408 11.712-26.641 34.944 3.621 3.386 26.785 24.487 42.513 25.41 7.475-3.007 26.502-12.24 26.502-19.487-.021-.236-2.021-28.562 15.716-47.699 10.646-11.486 26.079-17.31 45.877-17.31 7.704 0 16.184.897 25.196 2.667l.351.118c.423.219 35.476 19.467 24.814 61.592-.054.169-4.945 14.708-12.724 29.815-10.535 20.471-21.088 32.168-31.362 34.771-5.463 1.383-11.134 2.027-17.846 2.027-2.958 0-5.81-.117-8.563-.23-2.616-.108-5.077-.209-7.498-.209-8.521 0-15.654 1.259-22.749 7.392-2.184 4.458-39.859 83.395-26.336 187.372l.205 1.591-1.6.102c-1.068.066-110.435 6.887-176.241 6.887zm-49.246-5.252l.191.159c3.262 2.716 19.766 4.093 49.055 4.093 65.774 0 175.109-6.818 176.183-6.888l.534-.033-.066-.531c-13.668-105.081 24.828-184.693 26.476-188.032l.12-.154c7.353-6.396 14.704-7.703 23.479-7.703 2.44 0 4.911.102 7.526.209 2.759.113 5.598.229 8.535.229 6.627 0 12.22-.635 17.6-1.994 9.985-2.528 20.32-14.057 30.722-34.26 7.718-14.993 12.605-29.497 12.65-29.634 10.459-41.343-23.911-60.217-24.26-60.403l-.21-.069c-8.879-1.738-17.292-2.629-24.934-2.629-19.508 0-34.694 5.716-45.144 16.989-17.487 18.869-15.474 46.698-15.451 46.977.002 9.484-26.959 20.39-27.229 20.499l-.104.041-.108-.006c-16.143-.852-39.062-21.732-43.492-25.909l-.236-.222.107-.307c8.297-23.75 25.309-34.642 27.222-35.805l.106-.049c15.016-4.845 31.199-29.59 31.883-30.641 17.92-25.164-4.345-54.309-5.302-55.538-8.215-16.5-24.357-18.271-30.922-18.271-2.681 0-4.312.27-4.326.273-15.314 3.83-24.91 18.75-27.718 43.14-1.98 17.226.101 33.829.345 35.666l.016.122-.042.115c-3.147 8.619-19.923 37.371-23.253 43.047l-.19.324-.361-.092c-10.128-2.558-21.535-13.673-23.719-15.875l-.157-.159.013-.223c7.256-123.476 23.948-141.428 34.993-153.308 3.47-3.731 6.467-6.953 8.453-12.614 8.298-23.635-7.578-47.606-7.739-47.846-14.101-18.926-31.519-28.531-51.761-28.531-17.846 0-31.015 7.661-31.146 7.739-17.344 8.248-36.976 31.49-39.273 58.359-1.31 15.318 2.773 37.56 29.66 56.527 23.04 16.253 32.226 39.641 27.304 69.515-3.359 20.397-12.431 36.834-14.215 39.922l-.115.198-.225.043c-47.419 9.003-75.888 41.914-78.978 45.637l-.189.229-.292-.057c-16.151-3.16-15.066-19.591-15.012-20.289 4.979-32.876-15.383-60.633-15.589-60.91l-.075-.084c-11.721-11.57-24.2-17.45-37.066-17.45-21.915 0-37.006 16.792-37.638 17.507-17.652 20.208-23.961 40.055-18.75 58.984 6.616 24.031 30.883 42.284 50.076 53.364 19.619 11.328 38.127 17.69 40.173 18.378l.111.036.083.083c49.126 49.099 41.766 216.184 41.686 217.863l-.015.249zm49.246 3.252c-27.869 0-44.008-1.193-47.968-3.549l-.256-.152.012-.298c.185-4.472 1.69-44.984-2.272-90.133-5.556-63.286-18.644-106.04-38.9-127.074l-.26-.271.187-.325c2.401-4.175 23.716-40.985 32.673-47.921l.174-.135.085.015.184-.235c.283-.363 28.894-36.364 79.01-45.777l.098-.019.098.021c1.556.328 38.173 8.055 43.402 10.72l.124.089c3.177 3.135 14.315 13.528 24.271 15.648l.353.075.123-.206 30.619 17.587c1.08 1.043 26.664 25.563 44.474 26.531l.123.007.106.064c3.858 2.311 37.617 23.403 35.068 51.797l-.046.167c-2.406 5.128-10.805 24.025-17.802 51.932-7.627 30.407-15.232 78.353-8.161 134.062l.067.529-.533.03c-11.366.7-112.874 6.821-175.053 6.821zm-47.2-4.268c3.001 1.521 13.748 3.268 47.2 3.268 61.276 0 160.786-5.949 174.462-6.785-6.978-55.638.626-103.507 8.249-133.901 6.983-27.85 15.363-46.77 17.828-52.029 2.396-27.503-30.222-48.126-34.488-50.7-17.766-1.066-42.004-23.925-44.943-26.76l-29.687-17.034-.969-.208c-10.161-2.164-21.408-12.609-24.708-15.858-4.29-2.107-29.892-7.819-42.989-10.578-49.687 9.374-78.028 45.032-78.309 45.392l-.552.708-.239-.042c-8.739 7.028-29.695 43.074-32.06 47.169 20.27 21.298 33.362 64.16 38.915 127.408 3.892 44.308 2.52 84.166 2.29 89.95zm249.845-191.179l.003-1.053c.008-11.601-5.854-23.659-16.947-34.873-7.021-7.096-14.412-12.096-17.267-13.917l-.798-.509.87-.372c6.16-2.634 26.259-11.917 26.257-20.791-.02-.24-1.87-27.873 15.196-46.276 10.25-11.053 25.188-16.657 44.398-16.657 7.532 0 15.83.875 24.655 2.6l.15.056c.54.306 2.507 1.464 5.135 3.523l.498.391-.495.394c-1.771 1.411-5.391 4.404-9.703 8.602l-.19.187-.262-.057c-2.593-.559-12.278-2.456-23.826-2.25-17.446.285-31.174 5.19-39.744 14.192l.733.68c10.888-11.429 28.114-13.842 40.717-13.842 9.164 0 16.845 1.213 20.605 1.936l.921.177-.658.666c-2.061 2.076-3.909 4.063-5.656 6.077-8.203 9.448-17.834 23.761-17.128 38.296.053.344 5.478 38.528-5.383 43.554l.341.943c11.729-5.282 6.096-44.193 6.037-44.59-.518-10.637 4.481-22.425 14.854-35.084 8.049-9.825 16.817-17.01 19.313-18.979l.318-.252.312.263c9.431 7.96 24.165 25.604 16.896 54.331-.203.609-19.52 57.354-42.657 63.21-5.299 1.342-10.812 1.967-17.354 1.967-2.964 0-5.896-.122-8.48-.229-2.493-.104-5.072-.211-7.58-.211-7.471 0-15.459.876-23.267 7.229l-.814.668zm-32.886-50.176c3.301 2.161 10.135 6.96 16.65 13.547 10.96 11.078 16.896 23 17.223 34.554 7.79-5.979 15.694-6.822 23.095-6.822 2.527 0 5.117.105 7.621.211 2.577.105 5.497.229 8.44.229 6.458 0 11.895-.613 17.109-1.936 22.615-5.725 41.755-61.956 41.944-62.523 7.043-27.848-7.014-45.087-16.271-53.02-4.816 3.849-34.643 28.703-33.475 52.926.245 1.628 5.949 41.084-7.152 45.816l-.473.17-1.02-2.821.471-.17c7.898-2.854 7.376-27.71 5.191-42.708-.729-14.915 9.044-29.462 17.366-39.048 1.571-1.812 3.228-3.604 5.04-5.455-3.521-.634-10.92-1.747-19.496-1.747-12.534 0-29.705 2.409-40.325 13.886l-.34.368-2.2-2.039.339-.367c8.734-9.439 22.844-14.584 40.804-14.877 11.271-.199 20.831 1.591 23.791 2.216 3.893-3.773 7.203-6.561 9.09-8.083-2.22-1.698-3.871-2.688-4.439-3.013-8.734-1.703-16.938-2.566-24.385-2.566-18.921 0-33.612 5.497-43.666 16.337-16.772 18.087-14.95 45.287-14.932 45.56.006 9.125-18.879 18.258-26 21.375zm-260.095 23.346l-.388-.131c-3.155-1.061-77.4-26.497-89.675-71.087-5.115-18.585 1.122-38.118 18.537-58.056.009-.01.559-.625 1.594-1.619l.607-.583.222.812c1.04 3.808 4.473 11.019 15.786 16.534l.655.319-.534.496c-3.295 3.061-14 14.219-13.39 29.315.523 12.927 9.152 25.29 25.651 36.75l.566-.823c-16.217-11.267-24.701-23.361-25.218-35.952-.704-17.162 14.021-29.407 14.17-29.529l.616-.503.138-.02c13.108-1.876 24.089.811 32.444 7.943 17.752 15.155 18.909 46.039 18.982 50.343l1.003.008c-.022-2.002-.246-9.658-2.301-18.999-2.169-9.866-6.885-23.445-17.029-32.107-8.805-7.519-20.365-10.244-34.2-8.045l.092.471-.897-.423c-12.796-6.134-15.336-14.649-15.81-17.113l-.054-.28.214-.189c5.907-5.218 18.124-13.973 33.58-13.973 12.573 0 24.796 5.764 36.332 17.133.88 1.202 20.231 28.337 15.407 60.193-.01.137-1.181 17.065 14.433 21.069l.883.227-.665.623c-9.716 9.104-29.34 43.007-31.545 46.842l-.206.354zM74.295 266.589c-.615.613-.945.98-.949.984-17.177 19.665-23.342 38.887-18.322 57.128 11.818 42.933 82.084 68.018 88.642 70.273 2.951-5.116 21.143-36.358 30.89-46.103-15.58-4.609-14.34-21.743-14.326-21.919 4.768-31.489-14.354-58.301-15.17-59.427-11.288-11.115-23.275-16.782-35.576-16.782-14.939 0-26.82 8.387-32.7 13.531.581 2.645 3.254 10.339 15.049 16.048 14.289-2.35 26.266.434 35.375 8.213 10.355 8.843 15.154 22.638 17.356 32.653 2.371 10.78 2.329 19.362 2.326 19.722l-.004.5-3-.023.003-.5c.002-.34.025-34.145-18.636-50.075-8.103-6.917-18.757-9.533-31.515-7.733l-.4.327c-.145.119-14.486 12.067-13.804 28.714.507 12.365 8.985 24.293 25.197 35.453l.412.284-1.701 2.47-.412-.284c-17.04-11.729-25.953-24.453-26.494-37.818-.599-14.793 9.33-25.872 13.185-29.592-10.425-5.278-14.119-12.006-15.426-16.044zm281.911 78.758l-30.104-17.273.257-.436c3.34-5.693 20.146-34.519 23.09-42.896l.04-.115-.02-.122c-.099-.689-9.415-68.933 26.538-77.925.062-.012 1.652-.254 4.143-.254 7.88 0 22.24 2.271 29.892 17.482l.062.126-.012.141c-.049.581-.178 2.059-.413 4.23-4.087 14.976-32.271 35.86-36.003 38.571l.579.817c3.379-2.43 25.276-18.511 33.672-32.982l1.271-2.186-.343 2.504c-2.563 18.881-9.02 51.335-23.529 58.051l.388.922c8.65-3.979 15.542-16.899 20.487-38.418 2.545-11.07 3.899-21.802 4.48-27.213.141-.56.242-1.085.331-1.679l.188-1.266.72 1.058c1.874 2.752 5.377 8.416 7.781 15.428 4.732 13.803 3.336 26.137-4.156 36.659-.154.238-16.769 25.638-31.47 30.286l-.147.069c-.137.083-18.665 11.106-27.519 35.857l-.203.564zm-28.731-17.639l28.194 16.177c9.054-24.698 27.615-35.739 27.803-35.849l.249-.113c14.414-4.56 30.831-29.661 30.996-29.914 7.308-10.262 8.66-22.292 4.037-35.772-2.1-6.122-5.051-11.202-6.979-14.164-.035.163-.073.321-.113.477-.571 5.362-1.935 16.138-4.489 27.259-5.106 22.229-12.353 35.457-21.532 39.318l-.46.194-1.163-2.766.461-.194c6.061-2.548 17.01-13.122 23.059-55.117-9.831 14.992-32.124 30.859-33.109 31.556l-.408.289-1.73-2.447.407-.289c.314-.225 31.759-22.69 36.007-38.233.203-1.929.328-3.333.385-3.988-7.426-14.618-21.308-16.806-28.936-16.806-2.391 0-3.93.231-3.943.233-35.043 8.768-25.843 76.125-25.745 76.804l.053.364-.122.347c-2.913 8.267-19.054 36.03-22.922 42.634zm-27.736-15.871l-.621-.21c-8.696-2.949-35.219-8.643-40.447-9.754l-.663-.141.33-.592c2.455-4.401 10.712-20.249 13.88-39.414 3.444-20.839 1.434-49.996-27.705-70.552-26.5-18.694-30.528-40.568-29.24-55.625 2.266-26.496 21.651-49.432 38.741-57.56.017-.012 5.408-3.119 13.871-5.366l.148-.039.145.05c1.513.528 9.157 3.524 11.061 10.696 1.875 7.068-2.181 15.93-12.058 26.337-.387.341-35.066 31.12-24.087 64.596l.947-.322c-10.641-32.46 22.409-62.29 23.828-63.55 2.77-2.92 5.165-5.828 7.086-8.614l.243-.353.386.187c36.323 17.574 21.422 78.526 19.832 84.597l.963.273c.77-2.913 4.671-18.562 4.5-35.82-.246-24.797-8.759-42.03-24.618-49.836l-.499-.246.297-.47c4.054-6.419 5.447-12.156 4.143-17.049-1.45-5.439-5.781-8.597-9.158-10.288l-1.273-.638 1.392-.298c4.545-.975 9.099-1.47 13.535-1.47 19.91 0 37.049 9.456 50.941 28.104.175.259 15.681 23.967 7.614 46.942-1.917 5.462-4.709 8.463-8.242 12.264-11.127 11.968-27.939 30.055-35.233 153.507l-.039.654zm-40.201-10.802c6.348 1.354 30.308 6.535 39.28 9.439 7.333-123.219 24.256-141.427 35.46-153.479 3.454-3.715 6.183-6.649 8.029-11.914 7.901-22.51-7.334-45.802-7.486-46.035-13.682-18.359-30.549-27.68-50.125-27.68-3.927 0-7.948.394-11.975 1.172 3.318 1.904 7.073 5.117 8.446 10.264 1.347 5.052.011 10.896-3.971 17.373 15.903 8.095 24.435 25.533 24.683 50.476.19 19.189-4.62 36.414-4.668 36.585l-.136.481-2.886-.818.136-.48c.185-.654 18.006-65.413-18.793-83.719-1.907 2.72-4.25 5.548-6.968 8.41-1.437 1.278-34.326 30.963-23.418 62.984l.162.473-2.84.967-.161-.473c-11.68-34.287 23.823-65.799 24.184-66.113 9.587-10.106 13.563-18.649 11.783-25.359-1.721-6.485-8.566-9.338-10.279-9.958-8.228 2.204-13.459 5.213-13.512 5.243-16.875 8.028-35.977 30.637-38.211 56.761-1.265 14.797 2.708 36.302 28.82 54.723 29.562 20.855 31.606 50.411 28.115 71.532-3.068 18.545-10.858 34.007-13.669 39.145z"/></g></g></svg>