<?xml version="1.0" encoding="utf-8"?>
<!-- Generator: Adobe Illustrator 16.0.0, SVG Export Plug-In . SVG Version: 6.00 Build 0) -->
<!DOCTYPE svg PUBLIC "-//W3C//DTD SVG 1.1//EN" "http://www.w3.org/Graphics/SVG/1.1/DTD/svg11.dtd">
<svg version="1.1" author="Provart Lab - Bio Analytic Resource, University of Toronto" license="CCBY4.0" xmlns="http://www.w3.org/2000/svg" xmlns:xlink="http://www.w3.org/1999/xlink" x="0px" y="0px" width="75px"
    height="75px" viewBox="0 0 300 300" enable-background="new 0 0 300 300" xml:space="preserve">
	<g id="shapes">
		<g id="etiolatedseedling">
			<path fill="none" d="M119.25,55c-7.553-7.931,13.703-26.924,20-28.25c21.202-4.464,20.564,11.889,20.476,29.194
                   				c-0.184,35.537,2.087,70.131,14.243,103.9c3.444,9.568,11.786,35.608,0.068,40.647c-13.368,5.748-4.589,27.485-2.493,36.821
                   				c3.729,16.612,2.296,27.188-12.252,38.109c-8.445,6.341-15.83,7.742-25.582,2.966c-2.466-1.207-17.159-9.677-13.46-14.763
                   				c-0.368,0.506,24.585,13.725,32.582,7.562c15.122-11.652,10.489-30.953,7.932-47.363c-1.863-11.961,7.508-19.457,5.014-30.454
                   				c-3.596-15.857-9.717-31.029-13.413-46.906c-4.096-17.59-8.168-36.876-7.168-54.936c0.544-9.821-0.657-19.806-1.119-29.614
                   				c-0.412-8.748,2.623-17.925,0.673-26.414C140.061,41.285,131.5,67.863,119.25,55C116.239,51.838,124.25,60.25,119.25,55z"
			/>
			<path fill="none" d="M186.5,199.75c6.25,10.416-14.914,24.647-19.418,13.812C164.25,206.75,179.592,188.237,186.5,199.75z" />
			<path fill="none" d="M177,198.5C176,199.167,176,199.167,177,198.5L177,198.5z" />
		</g>
	</g>
	<g id="outlines">
		<path fill="none" stroke="#000000" stroke-miterlimit="10" d="M119.25,55c-7.553-7.931,13.703-26.924,20-28.25
                   			c21.202-4.464,20.564,11.889,20.476,29.194c-0.184,35.537,2.087,70.131,14.243,103.9c3.444,9.568,11.786,35.608,0.068,40.647
                   			c-13.368,5.748-4.589,27.485-2.493,36.821c3.729,16.612,2.296,27.188-12.252,38.109c-8.445,6.341-15.83,7.742-25.582,2.966
                   			c-2.466-1.207-17.159-9.677-13.46-14.763c-0.368,0.506,24.585,13.725,32.582,7.562c15.122-11.652,10.489-30.953,7.932-47.363
                   			c-1.863-11.961,7.508-19.457,5.014-30.454c-3.596-15.857-9.717-31.029-13.413-46.906c-4.096-17.59-8.168-36.876-7.168-54.936
                   			c0.544-9.821-0.657-19.806-1.119-29.614c-0.412-8.748,2.623-17.925,0.673-26.414C140.061,41.285,131.5,67.863,119.25,55
                   			C116.239,51.838,124.25,60.25,119.25,55z" />
		<path fill="none" stroke="#000000" stroke-miterlimit="10" d="M186.5,199.75c6.25,10.416-11.977,22.885-19.418,13.812
                   			C163.75,209.5,179.592,188.237,186.5,199.75z" />
		<path fill="none" stroke="#000000" stroke-miterlimit="10" d="M177,198.5C176,199.167,176,199.167,177,198.5L177,198.5z" />
	</g>
</svg>
