<svg xmlns="http://www.w3.org/2000/svg" width="75" height="75" viewBox="0 0 300 300"><g id="shapes"><g id="etiolatedseedling"><path fill="none" d="M119.25 55c-7.553-7.931 13.703-26.924 20-28.25 21.202-4.464 20.564 11.889 20.476 29.194-.184 35.537 2.087 70.131 14.243 103.9 3.444 9.568 11.786 35.608.068 40.647-13.368 5.748-4.589 27.485-2.493 36.821 3.729 16.612 2.296 27.188-12.252 38.109-8.445 6.341-15.83 7.742-25.582 2.966-2.466-1.207-17.159-9.677-13.46-14.763-.368.506 24.585 13.725 32.582 7.562 15.122-11.652 10.489-30.953 7.932-47.363-1.863-11.961 7.508-19.457 5.014-30.454-3.596-15.857-9.717-31.029-13.413-46.906-4.096-17.59-8.168-36.876-7.168-54.936.544-9.821-.657-19.806-1.119-29.614-.412-8.748 2.623-17.925.673-26.414C140.061 41.285 131.5 67.863 119.25 55c-3.011-3.162 5 5.25 0 0z"/><path fill="none" d="M186.5 199.75c6.25 10.416-14.914 24.647-19.418 13.812-2.832-6.812 12.51-25.325 19.418-13.812z"/><path fill="none" d="M177 198.5c-1 .667-1 .667 0 0z"/></g></g><g id="outlines"><path fill="none" stroke="#000000" stroke-miterlimit="10" d="M119.25 55c-7.553-7.931 13.703-26.924 20-28.25 21.202-4.464 20.564 11.889 20.476 29.194-.184 35.537 2.087 70.131 14.243 103.9 3.444 9.568 11.786 35.608.068 40.647-13.368 5.748-4.589 27.485-2.493 36.821 3.729 16.612 2.296 27.188-12.252 38.109-8.445 6.341-15.83 7.742-25.582 2.966-2.466-1.207-17.159-9.677-13.46-14.763-.368.506 24.585 13.725 32.582 7.562 15.122-11.652 10.489-30.953 7.932-47.363-1.863-11.961 7.508-19.457 5.014-30.454-3.596-15.857-9.717-31.029-13.413-46.906-4.096-17.59-8.168-36.876-7.168-54.936.544-9.821-.657-19.806-1.119-29.614-.412-8.748 2.623-17.925.673-26.414C140.061 41.285 131.5 67.863 119.25 55c-3.011-3.162 5 5.25 0 0z"/><path fill="none" stroke="#000000" stroke-miterlimit="10" d="M186.5 199.75c6.25 10.416-11.977 22.885-19.418 13.812-3.332-4.062 12.51-25.325 19.418-13.812z"/><path fill="none" stroke="#000000" stroke-miterlimit="10" d="M177 198.5c-1 .667-1 .667 0 0z"/></g></svg>