<svg xmlns="http://www.w3.org/2000/svg" viewBox="0 0 300 300" xml:space="preserve" license="CCBY4.0" author="Provart Lab - Bio Analytic Resource, University of Toronto">
  <g id="shapes">
    <g id="etiolatedseedling" fill="none">
      <path d="M119 55c-7-8 14-27 20-28 21-5 21 12 21 29 0 35 2 70 14 104 3 9 12 35 0 40-13 6-5 28-2 37 3 17 2 27-13 38-8 7-16 8-25 3-3-1-17-9-14-14 0 0 25 13 33 7 15-11 10-31 8-47-2-12 7-20 5-31l-14-47c-4-17-8-36-7-54 1-10 0-20-1-30 0-9 3-18 1-27-5 6-13 33-26 20-3-3 5 5 0 0z"/>
      <path d="M187 200c6 10-15 24-20 14-3-7 13-26 20-14zm-10-1c-1 0-1 0 0 0z"/>
    </g>
  </g>
  <g id="outlines" fill="none" stroke="#000" stroke-miterlimit="10">
    <path d="M119 55c-7-8 14-27 20-28 21-5 21 12 21 29 0 35 2 70 14 104 3 9 12 35 0 40-13 6-5 28-2 37 3 17 2 27-13 38-8 7-16 8-25 3-3-1-17-9-14-14 0 0 25 13 33 7 15-11 10-31 8-47-2-12 7-20 5-31l-14-47c-4-17-8-36-7-54 1-10 0-20-1-30 0-9 3-18 1-27-5 6-13 33-26 20-3-3 5 5 0 0z"/>
    <path d="M187 200c6 10-12 23-20 14-3-4 13-26 20-14zm-10-1c-1 0-1 0 0 0z"/>
  </g>
</svg>