<svg xmlns="http://www.w3.org/2000/svg" width="75" height="75" viewBox="0 0 24 46" version="1.1" id="svg9480" license="CCBY4.0" author="Provart Lab - Bio Analytic Resource, University of Toronto">
  <g id="layer1" transform="translate(0 -251)">
    <g transform="translate(-602 -133)" id="F5" style="stroke-width:.13229166;stroke-miterlimit:4;stroke-dasharray:none">
      <g id="flowerDevelopmentPart5" transform="translate(475 447) scale(.26458)" style="stroke-width:.5;stroke-miterlimit:4;stroke-dasharray:none">
        <path fill="none" style="fill-opacity:1;stroke:none;stroke-width:.5;stroke-miterlimit:4;stroke-dasharray:none;stroke-opacity:1" d="m520-66-7-19c-16-5-22-24-25-39-3-20-4-43 4-63 2-11 6-21 12-29 6-6 10-17 20-17 2-1 10 0 15 1 9 3 14 14 18 21 4 0-2 3 3 6 9 23 13 49 6 73-5 13-6 29-16 40-3 6-5 16-8 21-7 2-16 2-21 4 1 1-1 1-1 1z" id="path7826-5"/>
      </g>
      <g id="g12162" style="stroke-width:.13229166;stroke-miterlimit:4;stroke-dasharray:none">
        <path style="fill:none;stroke:#000;stroke-width:.13229166;stroke-linecap:butt;stroke-linejoin:miter;stroke-miterlimit:4;stroke-dasharray:none;stroke-opacity:1" d="M620 422h-5s-7-35-1-37" id="path1885"/>
        <path style="fill:none;stroke:#000;stroke-width:.13229166;stroke-linecap:butt;stroke-linejoin:miter;stroke-miterlimit:4;stroke-dasharray:none;stroke-opacity:1" d="m611 390-8 14" id="path1887"/>
        <path style="fill:none;stroke:#000;stroke-width:.13229166;stroke-linecap:butt;stroke-linejoin:miter;stroke-miterlimit:4;stroke-dasharray:none;stroke-opacity:1" d="M615 422s-1 2-4 2" id="path1889"/>
      </g>
    </g>
    <path style="fill:none;stroke:#000;stroke-width:.1;stroke-linecap:butt;stroke-linejoin:miter;stroke-opacity:1;stroke-miterlimit:4;stroke-dasharray:none" d="M8 291a10 10 0 0 1 1 2 45 45 0 0 1 1 2v1h1a6 6 0 0 1 1 0v-1h4v-1a9 9 0 0 0 1-1v-2a15 15 0 0 1 1-2h1a11 11 0 0 0 1-3 24 24 0 0 0 1-3l1-2v-2l1-1a31 31 0 0 0 0-4 28 28 0 0 0-2-12 45 45 0 0 0 0-2v-1a2 2 0 0 1-1 0 1 1 0 0 1 0-1 33 33 0 0 1-1-1v-1a47 47 0 0 0-2-3 6 6 0 0 0-1-1h-2a35 35 0 0 0-1 0h-1a11 11 0 0 0-1 0 4 4 0 0 0-1 0 3 3 0 0 0-1 1 6 6 0 0 0-1 1l-1 1a35 35 0 0 1-1 1l-1 1a23 23 0 0 0-2 7l-1 1a19 19 0 0 0-1 4 27 27 0 0 0 0 7 43 43 0 0 0 1 4v1a26 26 0 0 0 2 7 9 9 0 0 0 4 3z" id="path9529"/>
  </g>
</svg>