<?xml version="1.0" encoding="UTF-8" standalone="no"?>
<!-- Created with Inkscape (http://www.inkscape.org/) -->
<svg author="Provart Lab - Bio Analytic Resource, University of Toronto" license="CCBY4.0" xmlns:dc="http://purl.org/dc/elements/1.1/" xmlns:cc="http://creativecommons.org/ns#" xmlns:rdf="http://www.w3.org/1999/02/22-rdf-syntax-ns#"
  xmlns:svg="http://www.w3.org/2000/svg" xmlns="http://www.w3.org/2000/svg" xmlns:sodipodi="http://sodipodi.sourceforge.net/DTD/sodipodi-0.dtd"
  xmlns:inkscape="http://www.inkscape.org/namespaces/inkscape" width="300px" height="300px" viewBox="0 0 38.492699 50.000001"
  version="1.1" id="svg8514">
  <g id="layer1" transform="translate(0,-246.99999)">
    <g transform="translate(-762.2129,-135.22206)" id="F15-18" style="stroke-width:0.13229166;stroke-miterlimit:4;stroke-dasharray:none">
      <g id="flowerDevelopmentPart15" transform="matrix(0.26458333,0,0,0.26458333,656.72503,312.76496)" fill="none" style="stroke-width:0.5;stroke-miterlimit:4;stroke-dasharray:none">
        <path style="fill-opacity:1;stroke-width:0.5;stroke-miterlimit:4;stroke-dasharray:none" d="m 468.04765,370.80527 c -3.203,-3.88501 -4.5308,-10.24944 -6.7379,-15.33344 -2.1597,-10.06218 -6.7359,-19.49411 -10.1697,-28.93326 -10.7389,1.0234 -17.1588,-10.91911 -20.3372,-18.47205 1.3746,-11.67781 0.9965,-24.33069 9.3512,-33.18701 3.8068,-7.01312 13.639,-6.84484 17.6561,-1.64781 0.9852,1.75943 5.6701,2.71265 6.6,4.45285 15.195,4.65348 20.6554,27.75349 8.0676,38.54706 -6.6876,4.71757 -3.655,14.56522 -1.4749,21.98146 1.7103,8.92468 4.4754,19.97928 7.6531,29.56564 -2.5548,2.37776 -7.5902,1.27152 -10.6083,3.02656 z"
          id="path7976-2" />
        <path style="fill-opacity:1;stroke-width:0.5;stroke-miterlimit:4;stroke-dasharray:none" d="m 514.64095,378.27432 c -8.068,-11.78329 -8.345,-27.50504 -11.6943,-41.45492 -0.9248,-6.95407 -7.6236,-9.9003 -9.4291,-17.10753 -4.8619,-14.12309 2.8775,-32.68997 18.5393,-35.79998 10.4239,0.73609 17.1895,10.41194 23.77,17.51388 2.9823,10.92178 -1.8306,24.34481 -12.8678,28.71301 2.0657,3.07426 -0.7813,8.68102 0.9697,12.89327 0.7941,9.31273 3.7584,19.89669 0.886,28.48 -3.0194,3.2979 -6.4671,4.53052 -10.1738,6.76227 z"
          id="path7986-0" />
        <path style="fill-opacity:1;stroke-width:0.5;stroke-miterlimit:4;stroke-dasharray:none" d="m 422.56132,442.05279 c -3.5777,-3.66359 -14.1726,-0.40367 -10.6591,-8.44709 0.3415,-11.93967 3.0075,-24.11063 1.8196,-35.77889 -5.7944,-7.12617 -13.3123,-15.89795 -8.4812,-26.22111 1.5833,-5.15276 1.7687,-8.17888 7.0408,-11.76305 7.8876,-6.6178 21.9423,-15.95952 29.7507,-4.50132 3.5677,4.72421 7.0874,9.97942 9.3323,15.46408 1.6609,6.04451 2.098,12.13576 -3.0831,16.86198 -4.4236,8.04722 -14.9603,8.90793 -21.4077,13.69834 1.1842,12.55542 -2.404,24.21327 -2.1594,36.33265 -2.1228,0.75503 0.9265,4.95984 -2.1529,4.35441 z"
          id="path7956-5" />
        <path style="fill-opacity:1;stroke-width:0.5;stroke-miterlimit:4;stroke-dasharray:none" d="m 462.65907,449.23711 c -10.4433,-5.97464 -0.4245,-17.4084 -0.018,-26.20327 2.5313,-10.07815 -8.4383,-19.26514 -1.3827,-29.34497 -0.053,-8.49918 10.9651,-12.37174 18.1309,-15.3074 12.9106,0.25095 18.6093,13.51841 20.0307,24.86427 -0.8632,10.71392 -11.1829,12.14137 -18.8497,16.52001 -7.8077,8.01449 -5.2459,22.49152 -13.957,29.12 -1.2874,0.51854 -2.6199,0.25757 -3.9544,0.35136 z"
          id="path7966-2" />
      </g>
      <g id="g12303" style="stroke-width:0.13229166;stroke-miterlimit:4;stroke-dasharray:none">
        <g id="g12262" style="stroke-width:0.13229166;stroke-miterlimit:4;stroke-dasharray:none">
          <path id="path12238" d="m 770.7083,394.27422 c 0,0 0.36728,-3.71088 3.92666,-5.12553 3.55939,-1.41465 3.95626,-3.59746 3.95626,-3.59746"
            style="fill:none;stroke:#000000;stroke-width:0.13229166;stroke-linecap:butt;stroke-linejoin:miter;stroke-miterlimit:4;stroke-dasharray:none;stroke-opacity:1"
          />
          <path id="path12240" d="m 774.23697,389.32051 c 0,0 0.49609,5.82083 3.80338,8.59895 0,0 1.63812,0.44749 3.09333,-1.07387"
            style="fill:none;stroke:#000000;stroke-width:0.13229166;stroke-linecap:butt;stroke-linejoin:miter;stroke-miterlimit:4;stroke-dasharray:none;stroke-opacity:1"
          />
          <path id="path12242" d="m 778.04035,397.91946 c 0,0 0.0995,0.89684 -1.95116,1.24217" style="fill:none;stroke:#000000;stroke-width:0.13229166;stroke-linecap:butt;stroke-linejoin:miter;stroke-miterlimit:4;stroke-dasharray:none;stroke-opacity:1"
          />
        </g>
        <g id="g12257" style="stroke-width:0.13229166;stroke-miterlimit:4;stroke-dasharray:none">
          <path id="path12244" d="m 787.08204,393.40686 c 0,0 3.74176,-3.13375 9.26087,-3.27406" style="fill:none;stroke:#000000;stroke-width:0.13229166;stroke-linecap:butt;stroke-linejoin:miter;stroke-miterlimit:4;stroke-dasharray:none;stroke-opacity:1"
          />
          <path id="path12250" d="m 791.01089,391.16179 c 0,0 -0.98221,5.09815 0.74835,8.74639 0,0 1.70623,1.30067 3.33204,0.206" style="fill:none;stroke:#000000;stroke-width:0.13229166;stroke-linecap:butt;stroke-linejoin:miter;stroke-miterlimit:4;stroke-dasharray:none;stroke-opacity:1"
          />
          <path id="path12252" d="m 791.75924,399.90818 c 0,0 0.0468,1.26285 -2.29182,0.93543" style="fill:none;stroke:#000000;stroke-width:0.13229166;stroke-linecap:butt;stroke-linejoin:miter;stroke-miterlimit:4;stroke-dasharray:none;stroke-opacity:1"
          />
        </g>
        <g id="g12273" style="stroke-width:0.13229166;stroke-miterlimit:4;stroke-dasharray:none">
          <path id="path12264" d="m 764.32957,409.96398 c 0,0 1.14371,-1.68359 4.23068,-1.63681 0,0 1.4967,0.51449 2.99341,-0.14032 1.49671,-0.65481 3.04019,-0.14032 3.04019,-0.14032"
            style="fill:none;stroke:#000000;stroke-width:0.13229166;stroke-linecap:butt;stroke-linejoin:miter;stroke-miterlimit:4;stroke-dasharray:none;stroke-opacity:1"
          />
          <path id="path12266" d="m 769.07474,408.51425 c 0,0 -3.69499,4.30305 -1.73056,8.74641 0,0 0.11211,1.80772 2.3245,1.69898"
            style="fill:none;stroke:#000000;stroke-width:0.13229166;stroke-linecap:butt;stroke-linejoin:miter;stroke-miterlimit:4;stroke-dasharray:none;stroke-opacity:1"
          />
          <path id="path12268" d="m 767.39593,417.93302 c 0,0 -0.21071,0.66585 -1.207,0.0903" style="fill:none;stroke:#000000;stroke-width:0.13229166;stroke-linecap:butt;stroke-linejoin:miter;stroke-miterlimit:4;stroke-dasharray:none;stroke-opacity:1"
          />
        </g>
        <g id="g12285" style="stroke-width:0.13229166;stroke-miterlimit:4;stroke-dasharray:none">
          <path id="path12276" d="m 778.76632,416.92848 c 0,0 0.89236,-1.87357 2.45253,-0.46667 1.56014,1.40689 4.17938,0.56499 4.17938,0.56499 0,0 1.07577,-1.07577 2.85311,-0.18709"
            style="fill:none;stroke:#000000;stroke-width:0.13229166;stroke-linecap:butt;stroke-linejoin:miter;stroke-miterlimit:4;stroke-dasharray:none;stroke-opacity:1"
          />
          <path id="path12278" d="m 781.79678,416.83971 c 0,0 -2.61925,2.57247 -0.23387,6.26748 0,0 0.53409,1.10799 2.29026,0.71459"
            style="fill:none;stroke:#000000;stroke-width:0.13229166;stroke-linecap:butt;stroke-linejoin:miter;stroke-miterlimit:4;stroke-dasharray:none;stroke-opacity:1"
          />
          <path id="path12280" d="m 781.56291,423.10719 c 0,0 -0.8419,0.56126 -2.43215,-0.28064" style="fill:none;stroke:#000000;stroke-width:0.13229166;stroke-linecap:butt;stroke-linejoin:miter;stroke-miterlimit:4;stroke-dasharray:none;stroke-opacity:1"
          />
        </g>
      </g>
    </g>
    <path style="fill:none;stroke:#000000;stroke-width:0.1;stroke-linecap:butt;stroke-linejoin:miter;stroke-miterlimit:4;stroke-dasharray:none;stroke-opacity:1"
      d="m 16.38969,250.29506 -0.01775,0.0595 c 0.149706,-0.026 -0.501663,-0.25122 -0.730878,-0.51912 l -0.306475,-0.37603 -0.868626,-0.46772 -0.467722,-0.11693 -0.484426,-0.0501 -0.3842,0.0334 -0.484425,0.10022 -0.567948,0.20045 -0.317383,0.21716 -0.417608,0.35079 -0.372697,0.54475 -0.22866,0.29047 -0.317383,0.3842 -0.334086,0.51783 -0.3507915,0.66818 -0.233861,0.60135 -0.2505652,0.71829 -0.200452,0.93544 -0.2004523,1.10249 -0.100226,1.11919 -0.1670434,1.9043 -0.033409,0.0167"
      id="path4543" />
    <path style="fill:none;stroke:#000000;stroke-width:0.1;stroke-linecap:butt;stroke-linejoin:miter;stroke-miterlimit:4;stroke-dasharray:none;stroke-opacity:1"
      d="m 16.37832,250.32917 c 0.240222,0.12847 0.480346,0.2569 0.648439,0.37092 0.168093,0.11402 0.264347,0.21379 0.435293,0.31855 0.170946,0.10476 0.41648,0.2145 0.660443,0.33824 0.243964,0.12373 0.486618,0.26161 0.734586,0.44069 0.247968,0.17909 0.50162,0.39966 0.755143,0.67798 0.253523,0.27832 0.507104,0.61459 0.69727,0.8957 0.190166,0.28111 0.316929,0.50708 0.438218,0.78547 0.12129,0.2784 0.237,0.609 0.325212,0.89292 0.08821,0.28391 0.148819,0.52083 0.195698,0.84618 0.04688,0.32534 0.07993,0.73843 0.07167,1.13264 -0.0083,0.3942 -0.05783,0.7688 -0.143292,1.16583 -0.08546,0.39703 -0.206633,0.81563 -0.345092,1.16692 -0.138458,0.35129 -0.291405,0.62987 -0.470974,0.88441 -0.179568,0.25455 -0.395012,0.49424 -0.652089,0.72555 -0.257076,0.23132 -0.56001,0.45913 -0.863609,0.68744"
      id="path4552" />
    <path style="fill:none;stroke:#000000;stroke-width:0.1;stroke-linecap:butt;stroke-linejoin:miter;stroke-miterlimit:4;stroke-dasharray:none;stroke-opacity:1"
      d="m 8.4757628,259.02115 c 0.1622814,0.35637 0.3246114,0.71286 0.5980214,1.2042 0.2734099,0.49134 0.6606324,1.12196 0.9913938,1.58779 0.330762,0.46582 0.606335,0.76895 0.87371,1.01703 0.267374,0.24808 0.526432,0.44099 0.771739,0.59257 0.245306,0.15159 0.476855,0.26185 0.700083,0.34176 0.223228,0.0799 0.438321,0.12955 0.688014,0.153 0.249693,0.0234 0.534553,0.0208 0.818884,0.0181"
      id="path4556" />
    <path style="fill:none;stroke:#000000;stroke-width:0.1;stroke-linecap:butt;stroke-linejoin:miter;stroke-miterlimit:4;stroke-dasharray:none;stroke-opacity:1"
      d="m 18.865236,261.65861 c -0.114366,0.30537 -0.228853,0.61106 -0.305645,0.91607 -0.07679,0.30502 -0.11573,0.60874 -0.11184,0.99486 0.0039,0.38613 0.05062,0.8534 0.171785,1.44373 0.121167,0.59033 0.316557,1.30248 0.527063,2.16008 0.210505,0.85761 0.435867,1.85964 0.773408,3.16366 0.337542,1.30402 0.786956,2.90877 1.019979,3.74438 0.233023,0.83561 0.249538,0.90167 -0.223333,1.01876 -0.472872,0.11709 -1.432782,0.28445 -1.90946,0.38489 -0.476677,0.10044 -0.467112,0.13343 -0.584887,-0.027 -0.117775,-0.16044 -0.362325,-0.51369 -0.659459,-1.18991 -0.297134,-0.67622 -0.646513,-1.67483 -0.951417,-2.60931 -0.304904,-0.93449 -0.565407,-1.80507 -0.84414,-2.67015 -0.278732,-0.86509 -0.57418,-1.72033 -0.881752,-2.55212 -0.307572,-0.8318 -0.641538,-1.67594 -0.967927,-2.50094"
      id="path4564" />
    <path style="fill:none;stroke:#000000;stroke-width:0.1;stroke-linecap:butt;stroke-linejoin:miter;stroke-miterlimit:4;stroke-dasharray:none;stroke-opacity:1"
      d="m 24.86914,258.1848 c 0.199102,-0.63284 0.398103,-1.26536 0.651916,-1.81852 0.253814,-0.55316 0.562651,-1.02745 0.934749,-1.48936 0.372098,-0.46191 0.808116,-0.9123 1.404524,-1.33218 0.596409,-0.41987 1.35342,-0.80962 2.011888,-0.88211 0.658467,-0.0725 1.218576,0.17204 1.691463,0.42104 0.472886,0.249 0.858867,0.50265 1.270487,0.80663 0.41162,0.30398 0.855317,0.6635 1.295842,1.02044"
      id="path4568" />
    <path style="fill:none;stroke:#000000;stroke-width:0.1;stroke-linecap:butt;stroke-linejoin:miter;stroke-miterlimit:4;stroke-dasharray:none;stroke-opacity:1"
      d="m 34.130009,254.91074 c 0.792075,0.77138 1.584127,1.54273 1.981221,2.23505 0.397093,0.69231 0.399193,1.30581 0.372688,1.85793 -0.02651,0.55211 -0.0816,1.0425 -0.197375,1.54977 -0.115771,0.50726 -0.292054,1.0306 -0.479489,1.45789 -0.187435,0.4273 -0.385752,0.75783 -0.624119,1.07631 -0.238367,0.31848 -0.511216,0.61862 -0.90213,0.91745 -0.390914,0.29883 -0.896268,0.59268 -1.402402,0.88698"
      id="path4572" />
    <path style="fill:none;stroke:#000000;stroke-width:0.1;stroke-linecap:butt;stroke-linejoin:miter;stroke-miterlimit:4;stroke-dasharray:none;stroke-opacity:1"
      d="m 24.86914,258.1848 c -0.05334,0.37985 -0.107787,0.76764 -0.130867,1.14102 -0.02308,0.37339 -0.01529,0.7356 0.02142,1.10414 0.03671,0.36855 0.103581,0.75013 0.195202,1.13223 0.09162,0.38211 0.208487,0.76777 0.346058,1.10158 0.13757,0.33382 0.298972,0.6212 0.5056,0.92334 0.206628,0.30215 0.459899,0.62166 0.718239,0.97583 0.25834,0.35417 0.505465,0.71898 0.76074,1.09582"
      id="path4576" />
    <path style="fill:none;stroke:#000000;stroke-width:0.1;stroke-linecap:butt;stroke-linejoin:miter;stroke-miterlimit:4;stroke-dasharray:none;stroke-opacity:1"
      d="m 27.25452,265.62155 c 0.109583,0.34588 0.219219,0.69193 0.322862,1.07694 0.103642,0.38501 0.201191,0.80861 0.304584,1.34805 0.103394,0.53944 0.212479,1.19395 0.309935,1.7592 0.09746,0.56524 0.183176,1.0406 0.27674,1.50843 0.09356,0.46783 0.194859,0.92756 0.343009,1.51627 0.14815,0.58871 0.342952,1.30558 0.521288,1.88543 0.178337,0.57985 0.339995,1.02198 0.548732,1.53526 0.208736,0.51329 0.464189,1.09682 0.82691,1.20202 0.362721,0.1052 0.832023,-0.26808 1.31965,-0.60133 0.487627,-0.33326 0.993469,-0.62646 1.267134,-0.99971 0.273666,-0.37325 0.315451,-0.82646 0.33633,-1.33737 0.02088,-0.51091 0.02088,-1.08039 -0.02199,-1.75449 -0.04287,-0.67411 -0.128656,-1.45401 -0.214915,-2.21424 -0.08626,-0.76024 -0.17308,-1.50162 -0.243239,-1.98488 -0.07016,-0.48326 -0.123698,-0.70879 -0.142642,-0.99291 -0.01894,-0.28413 -0.0033,-0.62742 0.02004,-0.97418 0.02338,-0.34675 0.05459,-0.69783 0.03078,-0.982 -0.0238,-0.28416 -0.102637,-0.5022 -0.181353,-0.71992"
      id="path4580" />
    <path style="fill:none;stroke:#000000;stroke-width:0.1;stroke-linecap:butt;stroke-linejoin:miter;stroke-opacity:1;stroke-miterlimit:4;stroke-dasharray:none"
      d="m 2.1166666,274.74192 c 0.038657,-0.17119 0.07724,-0.34206 0.1448664,-0.50259 0.067626,-0.16052 0.1695265,-0.31903 0.2824117,-0.47871 0.1128852,-0.15968 0.2399191,-0.32538 0.4172233,-0.49436 0.1773043,-0.16897 0.4058812,-0.34225 0.6410617,-0.52544 0.2351805,-0.18319 0.4847369,-0.38248 0.7811096,-0.59901 0.2963727,-0.21653 0.6440471,-0.45383 1.0214564,-0.6935 0.3774092,-0.23966 0.7856629,-0.4824 1.1768862,-0.67524 0.3912233,-0.19284 0.7663374,-0.33627 1.0832205,-0.42677 0.316883,-0.0905 0.5870817,-0.12991 0.7964527,-0.1547 0.2093711,-0.0248 0.3638813,-0.0358 0.5235587,-0.0331 0.1596774,0.003 0.3253477,0.0193 0.5038166,0.0542 0.1784689,0.0349 0.383712,0.0919 0.5709946,0.16627 0.187282,0.0744 0.363849,0.16817 0.55667,0.31967 0.192821,0.1515 0.402396,0.36108 0.622868,0.62013 0.220473,0.25905 0.451983,0.56773 0.645993,0.82953 0.19401,0.26181 0.342937,0.46632 0.495694,0.67609"
      id="path4584" />
    <path style="fill:none;stroke:#000000;stroke-width:0.1;stroke-linecap:butt;stroke-linejoin:miter;stroke-miterlimit:4;stroke-dasharray:none;stroke-opacity:1"
      d="m 2.1166666,274.74192 c 0,0 -0.1756217,0.36869 -0.1756217,0.36869 0,0 -0.2090022,0.75296 -0.2090022,0.75296 0,0 -0.2236403,0.56836 -0.2236403,0.56836 0,0 -0.1520096,0.65481 -0.1520096,0.65481 0,0 -0.035079,0.6782 -0.035079,0.6782 0,0 0.046772,0.47941 0.046772,0.47941 0,0 0.1169304,0.60804 0.1169304,0.60804 0,0 0.2455539,0.67819 0.2455539,0.67819 0,0 0.4911077,0.93545 0.4911077,0.93545 0,0 0.7366617,1.06407 0.7366617,1.06407 0,0 1.0790789,1.32963 1.0790789,1.32963"
      id="path4588" />
    <path style="fill:none;stroke:#000000;stroke-width:0.1;stroke-linecap:butt;stroke-linejoin:miter;stroke-miterlimit:4;stroke-dasharray:none;stroke-opacity:1"
      d="m 12.38095,272.82447 c 0.152625,0.24748 0.305294,0.49503 0.463505,0.75917 0.158212,0.26413 0.321861,0.54467 0.504666,0.89217 0.182805,0.3475 0.384602,0.76164 0.521035,1.11634 0.136432,0.35469 0.207395,0.64971 0.254619,0.97301 0.04723,0.3233 0.07056,0.67334 0.06672,1.00435 -0.0038,0.331 -0.03508,0.64337 -0.110523,0.94303 -0.07544,0.29966 -0.189494,0.57339 -0.357111,0.83825 -0.167618,0.26487 -0.385539,0.51337 -0.56884,0.75515 -0.183301,0.24178 -0.331348,0.47604 -0.499076,0.6753 -0.167729,0.19925 -0.354572,0.36274 -0.651086,0.56953 -0.296515,0.20679 -0.701262,0.45587 -1.169184,0.69764 -0.467922,0.24177 -0.9976009,0.47545 -1.5852685,0.75851 -0.5876677,0.28306 -1.2321363,0.61495 -1.8773138,0.9472"
      id="path4592" />
    <path style="fill:none;stroke:#000000;stroke-width:0.1;stroke-linecap:butt;stroke-linejoin:miter;stroke-miterlimit:4;stroke-dasharray:none;stroke-opacity:1"
      d="m 3.9760268,282.80124 c 0.025122,0.48831 0.050257,0.97686 0.057319,1.48861 0.00706,0.51175 -0.00396,1.04615 -0.034278,1.62784 -0.030321,0.58168 -0.079905,1.20975 -0.1543376,1.9982 -0.074432,0.78845 -0.1736061,1.73611 -0.236109,2.48814 -0.062503,0.75203 -0.088256,1.30765 -0.1323191,1.67423 -0.044062,0.36658 -0.106464,0.54382 -0.1326165,0.70434 -0.026152,0.16052 -0.014364,0.32556 0.035308,0.4608 0.049672,0.13525 0.1377297,0.25082 0.2811526,0.3501 0.143423,0.0993 0.3418094,0.18194 0.631114,0.25081 0.2893045,0.0689 0.6698981,0.12403 0.950915,0.18741 0.281017,0.0634 0.4630417,0.13508 0.6378673,0.22855 0.1748256,0.0935 0.3428843,0.20894 0.4934722,0.21418 0.150588,0.005 0.280004,-0.0966 0.3236255,-0.26654 0.043621,-0.16996 -0.00281,-0.39025 0.013123,-0.54363 0.015934,-0.15339 0.095165,-0.23366 0.1503321,-0.66054 0.055167,-0.42688 0.086483,-1.20026 0.1490235,-2.00882 0.06254,-0.80855 0.1562117,-1.6516 0.2471458,-2.5141 0.090934,-0.8625 0.1791583,-1.74474 0.2118548,-2.53839 0.032697,-0.79365 0.00992,-1.49949 -0.012846,-2.20485"
      id="path4596" />
    <path style="fill:none;stroke:#000000;stroke-width:0.1;stroke-linecap:butt;stroke-linejoin:miter;stroke-miterlimit:4;stroke-dasharray:none;stroke-opacity:1"
      d="m 16.55342,281.70642 c 0.06347,-0.34221 0.127401,-0.68692 0.239914,-0.9814 0.112514,-0.29448 0.27871,-0.54773 0.467434,-0.76781 0.188724,-0.22009 0.411594,-0.41907 0.653096,-0.60213 0.241503,-0.18306 0.50688,-0.35478 0.837959,-0.53004 0.331079,-0.17527 0.729103,-0.35477 1.177211,-0.57906 0.448108,-0.22429 0.947567,-0.49398 1.341152,-0.57961 0.393584,-0.0856 0.681859,0.0123 0.985688,0.10806 0.303829,0.0957 0.623683,0.18934 0.928683,0.32784 0.305,0.1385 0.606953,0.32921 0.871933,0.53964 0.264981,0.21042 0.498895,0.44434 0.736632,0.75611 0.237736,0.31178 0.479394,0.70155 0.687605,1.08449 0.208211,0.38294 0.38292,0.75895 0.557713,1.13514"
      id="path4600" />
    <path style="fill:none;stroke:#000000;stroke-width:0.1;stroke-linecap:butt;stroke-linejoin:miter;stroke-miterlimit:4;stroke-dasharray:none;stroke-opacity:1"
      d="m 16.553405,281.70641 c -0.107641,0.18647 -0.21546,0.37325 -0.304541,0.56424 -0.08908,0.191 -0.159123,0.38556 -0.211805,0.59428 -0.05268,0.20872 -0.0877,0.43052 -0.101367,0.6509 -0.01366,0.22039 -0.0059,0.43837 0.03497,0.70514 0.04085,0.26677 0.115023,0.58298 0.220121,0.95675 0.105099,0.37376 0.241788,0.80726 0.372055,1.2307 0.130268,0.42343 0.254292,0.83736 0.37841,1.25161"
      id="path4604" />
    <path style="fill:none;stroke:#000000;stroke-width:0.1;stroke-linecap:butt;stroke-linejoin:miter;stroke-miterlimit:4;stroke-dasharray:none;stroke-opacity:1"
      d="m 26.006284,281.54457 c 0.147742,0.52898 0.295535,1.05814 0.402893,1.50659 0.107358,0.44846 0.174223,0.81598 0.178152,1.15512 0.0039,0.33914 -0.05513,0.6495 -0.153954,0.93188 -0.09882,0.28238 -0.24079,0.54265 -0.404574,0.78446 -0.163785,0.24181 -0.350645,0.4676 -0.611964,0.68215 -0.26132,0.21455 -0.596094,0.41697 -0.911941,0.59635 -0.315847,0.17937 -0.611799,0.33514 -1.092265,0.5704 -0.480466,0.23527 -1.143765,0.54921 -1.808086,0.86363"
      id="path4608" />
    <path style="fill:none;stroke:#000000;stroke-width:0.1;stroke-linecap:butt;stroke-linejoin:miter;stroke-miterlimit:4;stroke-dasharray:none;stroke-opacity:1"
      d="m 16.941248,287.66003 c 0.02545,0.25222 0.04982,0.49377 0.0623,0.69725 0.01247,0.20349 0.01247,0.36319 -0.0037,0.5416 -0.01613,0.17841 -0.04833,0.37475 -0.07868,0.58991 -0.03035,0.21515 -0.05868,0.44807 -0.11906,0.73598 -0.06038,0.28791 -0.155358,0.63988 -0.279059,1.00843 -0.1237,0.36854 -0.278644,0.76144 -0.416517,1.17778 -0.137873,0.41635 -0.259044,0.85697 -0.327986,1.22916 -0.06894,0.3722 -0.08547,0.67516 -0.07391,0.92322 0.01156,0.24806 0.04902,0.43 0.109692,0.60653 0.06067,0.17653 0.143264,0.34171 0.318888,0.56353 0.175625,0.22181 0.443805,0.49963 0.768351,0.61691 0.324545,0.11727 0.704993,0.0739 0.997992,-0.0625 0.292999,-0.13637 0.498586,-0.36545 0.694943,-0.62039 0.196357,-0.25494 0.384005,-0.53641 0.516217,-0.77609 0.132212,-0.23968 0.209465,-0.43833 0.319339,-0.76791 0.109873,-0.32958 0.253902,-0.7949 0.405424,-1.32661 0.151521,-0.53172 0.311484,-1.13296 0.46552,-1.6412 0.154036,-0.50823 0.302381,-0.92431 0.526747,-1.33787 0.224367,-0.41355 0.524718,-0.8248 0.82486,-1.23577"
      id="path4612" />
  </g>
</svg>