<?xml version="1.0" encoding="UTF-8" standalone="no"?>
<!-- Created with Inkscape (http://www.inkscape.org/) -->
<svg author="Provart Lab - Bio Analytic Resource, University of Toronto" license="CCBY4.0" xmlns:dc="http://purl.org/dc/elements/1.1/" xmlns:cc="http://creativecommons.org/ns#" xmlns:rdf="http://www.w3.org/1999/02/22-rdf-syntax-ns#"
  xmlns:svg="http://www.w3.org/2000/svg" xmlns="http://www.w3.org/2000/svg" xmlns:sodipodi="http://sodipodi.sourceforge.net/DTD/sodipodi-0.dtd"
  xmlns:inkscape="http://www.inkscape.org/namespaces/inkscape" width="300px" height="300px" viewBox="0 0 34 43" version="1.1"
  id="svg5506" sodipodi:docname="F12-14.svg" inkscape:version="0.92.3 (2405546, 2018-03-11)">
  <g id="layer1" transform="translate(0,-254)">
    <g transform="translate(-720.41219,-132.41637)" id="F12-14" style="stroke-width:0.13229166;stroke-miterlimit:4;stroke-dasharray:none">
      <g id="flowerDevelopmentPart12" transform="matrix(0.18743976,0,0,0.18743976,712.74513,340.2234)" fill="none" style="stroke:#000000;stroke-width:0.70578229;stroke-miterlimit:4;stroke-dasharray:none;">
        <path style="fill-opacity:1;stroke-width:0.70578229;stroke-miterlimit:4;stroke-dasharray:none" d="m 67.116667,461.31586 c -4.68795,-5.91976 0.95147,-15.87527 0.0651,-23.43494 -1.14287,-11.49041 2.81843,-27.02933 -6.35984,-35.65341 -5.28107,-3.56666 -8.72602,-11.17513 -12.26446,-15.19367 -1.55546,-12.79854 -4.72882,-28.012 3.00037,-39.10063 -2.90406,-4.30751 3.59762,-10.3232 5.0571,-15.01233 4.88367,-8.97431 18.36857,-7.80769 24.27885,-0.47995 11.91567,5.93979 19.923383,19.43984 22.084453,32.45255 2.00214,6.84323 2.12125,13.71181 -0.22873,20.74745 -1.22011,9.75338 -10.207253,20.70337 -19.448433,20.67147 -0.83419,17.39727 -1.6913,35.41775 -2.752,53.22011 -2.69504,3.07258 -9.20401,0.73763 -13.43238,1.78335 z"
          id="path7996-4" />
        <path style="fill-opacity:1;stroke-width:0.70578229;stroke-miterlimit:4;stroke-dasharray:none" d="m 123.23233,394.3058 c -7.17581,-2.94199 -2.07797,-15.72462 -4.27378,-21.31637 0.16943,-14.23005 -1.5954,-30.1778 -6.23978,-43.07756 -13.48094,-0.93424 -15.67399,-16.81765 -17.46393,-27.33301 -1.88261,-10.30645 2.14357,-21.07139 5.38359,-30.34737 6.54736,-8.73787 14.5015,-22.75284 27.75471,-20.23992 16.94732,8.75309 25.28582,27.36019 27.70633,45.56594 4.37912,10.39334 -0.13077,23.593 -10.34057,28.19412 -3.32233,1.71572 -7.09406,2.23318 -7.91667,6.82335 -8.74745,16.90773 -3.81175,36.8208 -3.93986,55.11912 -3.56675,2.1824 -6.3545,5.81363 -10.67004,6.6117 z"
          id="path8020-5" />
        <path style="fill-opacity:1;stroke-width:0.70578229;stroke-miterlimit:4;stroke-dasharray:none" d="m 180.76812,473.51946 c -11.41491,2.95404 -7.55155,-8.39046 -7.45872,-15.32094 -0.16723,-14.54151 -0.39325,-30.27017 -2.13092,-44.05755 -3.21138,-3.49131 -4.65769,-7.5336 -9.93487,-9.54677 -9.07121,-9.42516 -12.87946,-21.51838 -9.24861,-34.89305 1.64633,-6.55467 4.04138,-12.4283 3.8995,-19.68195 2.19016,-14.0163 16.76259,-23.47897 30.34453,-18.63272 6.79804,4.97515 12.79088,11.71758 19.93918,15.79644 1.2766,7.18246 8.5538,12.36194 8.3605,20.34172 3.7184,12.58294 1.3045,28.4679 -8.1671,36.80486 -4.36426,7.20019 -17.72349,8.17431 -15.44489,19.46168 1.34342,11.67998 -0.095,24.23092 -4.50765,35.43603 -2.00996,3.63669 -0.59211,13.56664 -5.65095,14.29225 z"
          id="path8008-2" />
      </g>
      <g id="g12376" style="stroke-width:0.13229166;stroke-miterlimit:4;stroke-dasharray:none">
        <g id="g12332" style="stroke-width:0.13229166;stroke-miterlimit:4;stroke-dasharray:none">
          <g id="g12318" style="stroke-width:0.13229166;stroke-miterlimit:4;stroke-dasharray:none">
            <path style="fill:none;stroke:#000000;stroke-width:0.13229166;stroke-linecap:butt;stroke-linejoin:miter;stroke-miterlimit:4;stroke-dasharray:none;stroke-opacity:1"
              d="m 722.40912,405.43993 c 0,0 4.61745,-5.29789 9.7156,3.86945" id="path12220" />
            <path style="fill:none;stroke:#000000;stroke-width:0.13229166;stroke-linecap:butt;stroke-linejoin:miter;stroke-miterlimit:4;stroke-dasharray:none;stroke-opacity:1"
              d="m 726.6524,403.97736 c 0,0 0.54483,1.46207 0.60804,5.47235 0.0632,4.01027 0.0632,4.01027 0.0632,4.01027 0,0 0.12387,1.60239 -0.76481,2.53783 0,0 -1.22506,0.68798 -2.41325,-0.38098"
              id="path12222" />
            <path style="fill:none;stroke:#000000;stroke-width:0.13229166;stroke-linecap:butt;stroke-linejoin:miter;stroke-miterlimit:4;stroke-dasharray:none;stroke-opacity:1"
              d="m 726.55884,415.99781 c 0,0 0.88768,0.67585 1.80023,0.3847" id="path12224" />
          </g>
          <g id="g12313" style="stroke-width:0.13229166;stroke-miterlimit:4;stroke-dasharray:none">
            <path style="fill:none;stroke:#000000;stroke-width:0.13229166;stroke-linecap:butt;stroke-linejoin:miter;stroke-miterlimit:4;stroke-dasharray:none;stroke-opacity:1"
              d="m 731.18929,392.28432 c 0,0 4.06918,-2.57247 9.21411,-1.21608" id="path12226" />
            <path style="fill:none;stroke:#000000;stroke-width:0.13229166;stroke-linecap:butt;stroke-linejoin:miter;stroke-miterlimit:4;stroke-dasharray:none;stroke-opacity:1"
              d="m 733.63314,391.34264 c 0,0 -3.81138,6.93311 0.23998,10.71935 2.41434,1.30734 5.03359,-0.23614 5.03359,-0.23614 0,0 4.30302,-5.23848 -0.28065,-11.13179"
              id="path12228" inkscape:connector-curvature="0" />
          </g>
          <g id="g12309" style="stroke-width:0.13229166;stroke-miterlimit:4;stroke-dasharray:none">
            <path style="fill:none;stroke:#000000;stroke-width:0.13229166;stroke-linecap:butt;stroke-linejoin:miter;stroke-miterlimit:4;stroke-dasharray:none;stroke-opacity:1"
              d="m 741.47917,408.28039 c 0,0 1.67632,-5.77511 9.91195,-2.98111" id="path12230" inkscape:connector-curvature="0"
            />
            <path style="fill:none;stroke:#000000;stroke-width:0.13229166;stroke-linecap:butt;stroke-linejoin:miter;stroke-miterlimit:4;stroke-dasharray:none;stroke-opacity:1"
              d="m 745.50158,416.55907 c 0,0 -5.0514,-1.40317 -2.89989,-10.10277" id="path12232" inkscape:connector-curvature="0"
            />
            <path style="fill:none;stroke:#000000;stroke-width:0.13229166;stroke-linecap:butt;stroke-linejoin:miter;stroke-miterlimit:4;stroke-dasharray:none;stroke-opacity:1"
              d="m 745.63194,404.80064 c 0,0 4.92104,-0.30879 4.50009,6.28608 0,0 -0.0468,5.0514 -2.15154,5.51912" id="path12234"
              inkscape:connector-curvature="0" />
            <path style="fill:none;stroke:#000000;stroke-width:0.13229166;stroke-linecap:butt;stroke-linejoin:miter;stroke-miterlimit:4;stroke-dasharray:none;stroke-opacity:1"
              d="m 743.91133,416.69938 1.59025,-0.14031 c 0,0 1.35639,0.65482 2.47891,0.0468 0,0 1.12253,0.7951 1.6838,0.7951"
              id="path12236" inkscape:connector-curvature="0" />
          </g>
        </g>
      </g>
    </g>
    <path style="fill:none;stroke:#000000;stroke-width:0;stroke-linecap:butt;stroke-linejoin:miter;stroke-miterlimit:4;stroke-dasharray:none;stroke-opacity:1"
      d="m 10.847078,259.69547 c 0.06998,-0.17248 0.209805,-0.51712 0.527248,-1.02069 0.317442,-0.50358 0.813322,-1.16734 1.187196,-1.62504 0.373874,-0.4577 0.626384,-0.71021 0.89967,-0.95195 0.273286,-0.24174 0.568058,-0.47335 0.862385,-0.65202 0.294328,-0.17867 0.589084,-0.30499 0.934752,-0.36376 0.345668,-0.0588 0.743476,-0.0502 1.132366,0.0759 0.388891,0.12615 0.76998,0.37018 1.107585,0.61828 0.337605,0.24811 0.632119,0.50054 0.926551,0.79497 0.294432,0.29443 0.588914,0.63099 0.849966,0.98476 0.261053,0.35378 0.488705,0.72483 0.300374,0.84678 -0.188331,0.12195 -0.768655,-2.2e-4 -1.376836,-0.0701 -0.608181,-0.0699 -1.231734,-0.0848 -1.838179,-0.0503 -0.606445,0.0346 -1.195124,0.11867 -1.715499,0.23426 -0.520375,0.11559 -0.97177,0.26256 -1.605173,0.49312 -0.633404,0.23057 -1.447448,0.54424 -1.854916,0.70125 -0.407468,0.15701 -0.407468,0.15693 -0.33749,-0.0156 z"
      id="path6689" inkscape:connector-curvature="0" inkscape:original-d="m 10.7771,259.86795 c 0.140092,-0.3449 0.27992,-0.68954 0.419483,-1.03392 0.495228,-0.6628 0.99111,-1.32656 1.486268,-1.98945 0.252547,-0.25254 0.505055,-0.50505 0.757186,-0.75718 0.294416,-0.23138 0.589186,-0.46299 0.883382,-0.69409 0.294433,-0.12633 0.589186,-0.25266 0.883383,-0.37859 0.397206,0.008 0.795009,0.0168 1.192117,0.0256 0.380862,0.24346 0.761956,0.48749 1.142537,0.73164 0.294674,0.25208 0.589187,0.50452 0.883383,0.75718 0.294704,0.33624 0.589186,0.67279 0.883382,1.00958 0.227941,0.37082 0.45559,0.74187 0.682989,1.1132 -0.606112,-0.11896 -1.184629,-0.24972 -1.77734,-0.37418 -0.62371,-0.0152 -1.247262,-0.0302 -1.87129,-0.0449 -0.588901,0.0839 -1.177579,0.168 -1.766766,0.25239 -0.451584,0.14685 -0.902978,0.29382 -1.354864,0.44112 -0.814924,0.31385 -1.628969,0.62752 -2.44385,0.94168 z"
      inkscape:path-effect="#path-effect6691" />
    <path style="fill:none;stroke:#000000;stroke-width:0.065;stroke-linecap:butt;stroke-linejoin:miter;stroke-miterlimit:4;stroke-dasharray:none;stroke-opacity:1"
      d="m 10.777633,259.86797 c 0.139936,-0.35456 0.279751,-0.7088 0.513109,-1.11842 0.233357,-0.40961 0.560785,-0.87547 0.976561,-1.39984 0.415777,-0.52437 0.92084,-1.10847 1.393952,-1.51911 0.473113,-0.41064 0.914973,-0.64857 1.365813,-0.77382 0.45084,-0.12525 0.911588,-0.13812 1.374012,0.0131 0.462424,0.15126 0.927624,0.46698 1.286216,0.76522 0.358592,0.29824 0.61099,0.57932 0.863356,0.87118 0.252366,0.29185 0.504722,0.5945 0.744724,0.91492 0.240002,0.32041 0.467623,0.65855 0.648039,0.95769 0.180417,0.29914 0.313576,0.55921 0.432242,0.80085 0.118665,0.24164 0.222732,0.46464 0.349186,0.79192 0.126455,0.32729 0.275103,0.75837 0.416421,1.27156 0.141318,0.51319 0.275121,1.10787 0.349044,1.47781 0.07392,0.36994 0.08788,0.51486 0.132549,0.70099 0.04466,0.18614 0.119807,0.41261 0.164894,0.57809 0.04509,0.16548 0.05995,0.26951 0.07484,0.39608 0.01489,0.12657 0.02973,0.27498 0.02974,0.45359 10e-6,0.17861 -0.01484,0.38649 -0.02972,0.57251 -0.01488,0.18602 -0.02973,0.34939 -0.08927,0.58016 -0.05954,0.23077 -0.163464,0.5277 -0.28992,0.79554 -0.126456,0.26784 -0.27502,0.50554 -0.423817,0.70892 -0.148797,0.20338 -0.297331,0.37172 -0.461053,0.52306 -0.163721,0.15135 -0.341894,0.28498 -0.580089,0.42642 -0.238195,0.14145 -0.535153,0.28992 -0.799171,0.41672 -0.264018,0.1268 -0.494118,0.23144 -0.724781,0.33633"
      id="path6742" inkscape:connector-curvature="0" inkscape:path-effect="#path-effect6744" inkscape:original-d="m 10.777633,259.86797 c 0.140076,-0.3545 0.279888,-0.70875 0.419434,-1.06272 0.327084,-0.46527 0.654509,-0.93114 0.981365,-1.3963 0.504662,-0.5836 1.009728,-1.16769 1.514196,-1.75113 0.441686,-0.23796 0.883544,-0.47589 1.32492,-0.71342 0.460353,-0.0131 0.921101,-0.026 1.381253,-0.0386 0.464914,0.31507 0.930112,0.63079 1.394771,0.94659 0.252597,0.28074 0.504996,0.56182 0.757097,0.84314 0.252641,0.3024 0.504997,0.60505 0.757098,0.90799 0.227918,0.33792 0.455537,0.67606 0.682909,1.01449 0.133472,0.2599 0.266632,0.51997 0.399551,0.78035 0.104413,0.22291 0.20848,0.44591 0.312323,0.66926 0.149067,0.43126 0.297715,0.86234 0.446175,1.29391 0.134166,0.59485 0.26797,1.18953 0.401558,1.7847 0.01424,0.14475 0.0282,0.28967 0.0419,0.43491 0.07566,0.22695 0.150799,0.45342 0.225802,0.68053 0.01515,0.10392 0.03001,0.20795 0.04462,0.31232 0.01517,0.14878 0.03001,0.29719 0.04462,0.44618 -0.01463,0.20828 -0.02948,0.41616 -0.04462,0.62464 -0.01463,0.16356 -0.02948,0.32693 -0.04462,0.4908 -0.104026,0.2977 -0.207951,0.59463 -0.312323,0.89235 -0.14862,0.23795 -0.297186,0.47565 -0.446176,0.71388 -0.148654,0.16851 -0.297186,0.33685 -0.446176,0.50566 -0.178502,0.13382 -0.356675,0.26745 -0.53541,0.40156 -0.29768,0.14871 -0.594637,0.29719 -0.892352,0.44618 -0.230325,0.10459 -0.460423,0.20923 -0.691032,0.31424"
    />
    <path style="fill:none;stroke:#000000;stroke-width:0.065;stroke-linecap:butt;stroke-linejoin:miter;stroke-miterlimit:4;stroke-dasharray:none;stroke-opacity:1"
      d="m 10.777633,259.86797 c -0.102372,0.36864 -0.204832,0.7376 -0.300724,1.10815 -0.09589,0.37054 -0.18505,0.74203 -0.244572,1.05447 -0.05952,0.31244 -0.08924,0.56506 -0.111563,0.78827 -0.02232,0.2232 -0.03718,0.41632 -0.03719,0.60983 -10e-6,0.1935 0.01484,0.38656 0.03716,0.60237 0.02232,0.21581 0.05203,0.45347 0.118998,0.84042 0.06697,0.38696 0.170977,0.92185 0.267661,1.34579 0.09668,0.42395 0.185884,0.73615 0.290023,1.01883 0.104139,0.28268 0.223052,0.53537 0.342063,0.75852 0.11901,0.22315 0.237938,0.41641 0.38672,0.60239 0.148782,0.18598 0.327183,0.36438 0.46851,0.48338 0.141328,0.119 0.245444,0.1785 0.394108,0.25283 0.148664,0.0743 0.342163,0.16363 0.528288,0.21816 0.186125,0.0545 0.365135,0.0744 0.543799,0.0942"
      id="path6746" inkscape:connector-curvature="0" inkscape:path-effect="#path-effect6748" inkscape:original-d="m 10.777633,259.86797 c -0.102195,0.36869 -0.204654,0.73765 -0.307378,1.10687 -0.08905,0.37187 -0.178206,0.74336 -0.267706,1.11544 -0.0295,0.25278 -0.05922,0.5054 -0.08923,0.7585 -0.01463,0.1933 -0.02948,0.38642 -0.04462,0.58003 0.01516,0.19336 0.03001,0.38642 0.04462,0.58003 0.03005,0.23799 0.05975,0.47565 0.08923,0.71388 0.104472,0.53566 0.20848,1.07055 0.312324,1.60623 0.08953,0.31218 0.178734,0.62438 0.267705,0.93697 0.119311,0.25271 0.238225,0.5054 0.35694,0.7585 0.119299,0.19316 0.238225,0.38642 0.356941,0.58003 0.178803,0.17827 0.357205,0.35667 0.535411,0.53541 0.104372,0.0592 0.20848,0.11871 0.312322,0.17847 0.193449,0.0889 0.386951,0.1782 0.580029,0.2677 0.179055,0.0196 0.358063,0.0395 0.536698,0.0596"
    />
    <path style="fill:none;stroke:#000000;stroke-width:0.065;stroke-linecap:butt;stroke-linejoin:miter;stroke-miterlimit:4;stroke-dasharray:none;stroke-opacity:1"
      d="m 18.494512,269.40948 c -0.08179,0.1329 -0.163761,0.26612 -0.222115,0.4067 -0.05835,0.14058 -0.0761,0.21642 -0.143133,0.38777 -0.06704,0.17134 -0.174418,0.40088 -0.280402,0.67235 -0.105984,0.27146 -0.209947,0.58335 -0.291801,0.89584 -0.08185,0.31249 -0.141282,0.62449 -0.193361,0.91464 -0.05208,0.29014 -0.09665,0.55759 -0.126426,0.84035 -0.02977,0.28276 -0.04463,0.57987 -0.04463,0.98912 -4e-6,0.40925 0.01486,0.9293 0.02973,1.4202 0.01488,0.49091 0.02974,0.95173 0.04462,1.28642 0.01487,0.3347 0.02974,0.5428 0.05206,0.83304 0.02233,0.29023 0.05203,0.6616 0.07203,1.07878 0.02,0.41718 0.03024,0.87912 0.04048,1.34163"
      id="path6754" inkscape:connector-curvature="0" inkscape:path-effect="#path-effect6756" inkscape:original-d="m 18.494512,269.40948 c -0.08171,0.13295 -0.163688,0.26616 -0.245929,0.39964 -0.02955,0.14881 -0.05209,0.22352 -0.07853,0.33568 -0.107709,0.23055 -0.215088,0.46009 -0.323029,0.69052 -0.103987,0.31249 -0.207951,0.62438 -0.312323,0.93697 -0.05929,0.31238 -0.118715,0.62438 -0.17847,0.93697 -0.0444,0.2677 -0.08897,0.53515 -0.133853,0.80312 -0.01462,0.29752 -0.02948,0.59463 -0.04462,0.89235 0.01515,0.52076 0.03001,1.04081 0.04462,1.56161 0.01515,0.46101 0.03001,0.92183 0.04462,1.38315 0.01515,0.20806 0.03001,0.41616 0.04462,0.62464 0.03004,0.37199 0.05975,0.74336 0.08923,1.11544 0.01051,0.46229 0.02074,0.92423 0.03072,1.38675"
    />
    <path style="fill:none;stroke:#000000;stroke-width:0.065;stroke-linecap:butt;stroke-linejoin:miter;stroke-miterlimit:4;stroke-dasharray:none;stroke-opacity:1"
      d="m 17.431568,280.47632 c -0.20328,0.14235 -0.406863,0.28492 -0.598025,0.42323 -0.191162,0.1383 -0.369365,0.27195 -0.49584,0.36867 -0.126475,0.0967 -0.200724,0.15611 -0.343424,0.22465 -0.142699,0.0686 -0.352134,0.14544 -0.562701,0.22274"
      id="path6758" inkscape:connector-curvature="0" inkscape:path-effect="#path-effect6760" inkscape:original-d="m 17.431568,280.47632 c -0.203318,0.1423 -0.4069,0.28487 -0.610747,0.4277 -0.17847,0.13379 -0.356676,0.26744 -0.53541,0.40156 -0.07422,0.0593 -0.148461,0.11871 -0.223088,0.17847 -0.210805,0.0772 -0.420232,0.15411 -0.630745,0.23156"
    />
    <path style="fill:none;stroke:#000000;stroke-width:0.065;stroke-linecap:butt;stroke-linejoin:miter;stroke-miterlimit:4;stroke-dasharray:none;stroke-opacity:1"
      d="m 15.431578,281.71561 c -0.151619,-0.12178 -0.303267,-0.24358 -0.416323,-0.37893 -0.113055,-0.13534 -0.187405,-0.28404 -0.239438,-0.46249 -0.05203,-0.17846 -0.0818,-0.38683 -0.08922,-0.65438 -0.0074,-0.26756 0.0075,-0.5951 0.02233,-0.92216 0.01487,-0.32706 0.02975,-0.65453 0.03718,-0.86269 0.0074,-0.20816 0.0074,-0.29749 -0.01304,-0.39663 -0.02047,-0.0991 -0.06161,-0.20892 -0.08389,-0.39471 -0.02228,-0.1858 -0.02589,-0.44849 -0.02769,-0.78766 -0.0018,-0.33918 -0.0018,-0.75603 -0.03154,-1.2169 -0.02974,-0.46087 -0.08927,-0.96686 -0.141312,-1.39312 -0.05204,-0.42626 -0.09668,-0.77345 -0.163583,-1.19962 -0.0669,-0.42618 -0.156194,-0.93217 -0.267716,-1.43028 -0.111522,-0.49811 -0.245431,-0.98911 -0.341879,-1.31625 -0.09645,-0.32713 -0.15553,-0.49075 -0.214539,-0.65416"
      id="path6762" inkscape:connector-curvature="0" inkscape:path-effect="#path-effect6764" inkscape:original-d="m 15.431578,281.71561 c -0.151385,-0.12207 -0.303035,-0.24387 -0.454949,-0.36541 -0.07411,-0.14902 -0.148461,-0.29772 -0.223088,-0.44618 -0.02946,-0.20833 -0.05923,-0.4167 -0.08924,-0.62464 0.01512,-0.32712 0.03001,-0.65466 0.04462,-0.98159 0.01512,-0.32719 0.03001,-0.65466 0.04462,-0.98159 2.64e-4,-0.0894 2.64e-4,-0.17873 0,-0.2677 -0.04063,-0.10942 -0.08176,-0.21921 -0.123039,-0.32842 -0.0033,-0.26226 -0.0069,-0.52495 -0.01081,-0.78702 2.65e-4,-0.41628 2.65e-4,-0.83313 0,-1.24929 -0.05919,-0.50561 -0.118715,-1.0116 -0.17847,-1.517 -0.04433,-0.34713 -0.08897,-0.69432 -0.133852,-1.04108 -0.08891,-0.5056 -0.178206,-1.01159 -0.267706,-1.517 -0.133532,-0.49085 -0.267441,-0.98185 -0.401558,-1.47238 -0.05878,-0.16376 -0.117857,-0.32738 -0.177183,-0.49068"
    />
    <path style="fill:none;stroke:#000000;stroke-width:0.065;stroke-linecap:butt;stroke-linejoin:miter;stroke-miterlimit:4;stroke-dasharray:none;stroke-opacity:1"
      d="m 21.06698,275.86402 c 0.106682,-0.29836 0.213251,-0.59641 0.296221,-0.89399 0.08297,-0.29758 0.142525,-0.59535 0.170322,-0.85558 0.0278,-0.26022 0.02404,-0.47916 0.05378,-0.72443 0.02975,-0.24527 0.09311,-0.51538 0.184213,-0.76912 0.09111,-0.25375 0.210225,-0.49198 0.299447,-0.65552 0.08922,-0.16354 0.148784,-0.25288 0.237824,-0.37902 0.08904,-0.12613 0.208423,-0.29029 0.349591,-0.44629 0.141169,-0.156 0.305068,-0.305 0.498234,-0.46101 0.193166,-0.156 0.416627,-0.31988 0.624729,-0.4462 0.208101,-0.12633 0.401694,-0.21567 0.646841,-0.29738 0.245147,-0.0817 0.543089,-0.15618 0.884932,-0.19333 0.341842,-0.0371 0.728932,-0.0371 1.057649,-9.7e-4 0.328716,0.0362 0.599933,0.10856 0.847658,0.2349 0.247725,0.12635 0.472601,0.30696 0.711357,0.50873 0.238756,0.20177 0.491625,0.42489 0.796504,0.68515 0.304879,0.26026 0.661842,0.55774 0.996468,0.82544 0.334626,0.2677 0.646972,0.50568 0.852649,0.64865 0.205678,0.14297 0.304678,0.19095 0.403528,0.23886"
      id="path6766" inkscape:connector-curvature="0" inkscape:path-effect="#path-effect6768" inkscape:original-d="m 21.06698,275.86402 c 0.106833,-0.29831 0.213401,-0.59636 0.319705,-0.89414 0.05969,-0.29739 0.119245,-0.59516 0.178471,-0.89235 -0.01459,-0.22312 -0.0073,-0.44225 -0.01139,-0.66299 0.06348,-0.26974 0.126837,-0.53985 0.189858,-0.80939 0.119109,-0.23795 0.238225,-0.47618 0.356941,-0.71388 0.05967,-0.0894 0.119245,-0.17873 0.17847,-0.2677 0.118838,-0.16331 0.238225,-0.32746 0.356941,-0.4908 0.163563,-0.14871 0.32746,-0.29771 0.490793,-0.44617 0.222975,-0.16359 0.44644,-0.32746 0.669263,-0.4908 0.193349,-0.0894 0.38695,-0.17873 0.580028,-0.2677 0.297225,-0.0745 0.595166,-0.14899 0.892352,-0.22309 0.386545,-2.6e-4 0.773635,-2.6e-4 1.160057,0 0.271101,0.072 0.54231,0.14442 0.813068,0.21702 0.224843,0.18011 0.449721,0.36072 0.674182,0.54148 0.253064,0.22279 0.505931,0.44591 0.7585,0.66926 0.35718,0.29717 0.714145,0.59464 1.070822,0.89236 0.312565,0.23767 0.624908,0.47565 0.936969,0.71388 0.09922,0.0477 0.19821,0.0957 0.296918,0.1439"
    />
    <path style="fill:none;stroke:#000000;stroke-width:0.065;stroke-linecap:butt;stroke-linejoin:miter;stroke-miterlimit:4;stroke-dasharray:none;stroke-opacity:1"
      d="m 30.978935,272.88291 c 0.01997,0.13029 0.03997,0.26079 0.124452,0.46762 0.08448,0.20684 0.232959,0.48895 0.38915,0.76414 0.156191,0.2752 0.319735,0.54282 0.438722,0.74361 0.118988,0.20079 0.193333,0.3346 0.27516,0.51313 0.08183,0.17852 0.171001,0.40146 0.228859,0.62963 0.05786,0.22818 0.08428,0.46126 0.121476,0.69192 0.0372,0.23065 0.08507,0.45824 0.131367,0.69868 0.04629,0.24043 0.09087,0.49304 0.120637,0.76829 0.02976,0.27525 0.04463,0.57245 0.0372,0.87001 -0.0074,0.29756 -0.03715,0.59476 -0.08178,0.90723 -0.04463,0.31247 -0.104066,0.63935 -0.178441,0.92947 -0.07437,0.29013 -0.163527,0.54273 -0.275137,0.81309 -0.111611,0.27037 -0.245298,0.55754 -0.401519,0.82043 -0.156222,0.26289 -0.334495,0.50059 -0.487234,0.67891 -0.15274,0.17831 -0.279487,0.29665 -0.383713,0.41573 -0.104226,0.11908 -0.185365,0.2383 -0.322897,0.37263 -0.137532,0.13434 -0.33038,0.28268 -0.516418,0.41911 -0.186038,0.13644 -0.364236,0.26019 -0.520865,0.35786 -0.156629,0.0977 -0.290965,0.16879 -0.425853,0.2402"
      id="path6770" inkscape:connector-curvature="0" inkscape:path-effect="#path-effect6772" inkscape:original-d="m 30.978935,272.88291 c 0.02027,0.13024 0.04028,0.26074 0.06001,0.39151 0.149241,0.28278 0.297718,0.56489 0.446178,0.84773 0.163917,0.26753 0.327459,0.53515 0.490791,0.80312 0.07465,0.13362 0.14899,0.26744 0.223089,0.40155 0.08956,0.22298 0.178734,0.44592 0.267706,0.66927 0.02672,0.2331 0.05314,0.46618 0.07931,0.69967 0.04824,0.22779 0.09611,0.45538 0.143777,0.68347 0.04492,0.25279 0.0895,0.5054 0.133853,0.7585 0.01513,0.29744 0.03001,0.59464 0.04462,0.89235 -0.02951,0.29744 -0.05922,0.59464 -0.08924,0.89235 -0.05928,0.32725 -0.118716,0.65413 -0.17847,0.98159 -0.08905,0.2528 -0.178205,0.5054 -0.267705,0.7585 -0.133758,0.28763 -0.267441,0.57481 -0.401558,0.8626 -0.178404,0.23796 -0.356677,0.47566 -0.535411,0.71389 -0.126796,0.11836 -0.25354,0.2367 -0.380706,0.35544 -0.08122,0.11947 -0.162362,0.23869 -0.243941,0.35844 -0.193569,0.14884 -0.386419,0.29718 -0.580028,0.44617 -0.178477,0.12386 -0.356676,0.24761 -0.53541,0.37182 -0.134533,0.0711 -0.268873,0.14221 -0.403707,0.21372"
    />
    <path style="fill:none;stroke:#000000;stroke-width:0.065;stroke-linecap:butt;stroke-linejoin:miter;stroke-miterlimit:4;stroke-dasharray:none;stroke-opacity:1"
      d="m 29.2521,284.9846 c -0.220584,0.18734 -0.441455,0.37492 -0.610468,0.55064 -0.169013,0.17571 -0.285793,0.3392 -0.373599,0.50891 -0.08781,0.1697 -0.146162,0.34477 -0.165956,0.54566 -0.0198,0.20089 -8.63e-4,0.42639 0.02254,0.76573 0.0234,0.33933 0.05118,0.79115 0.06509,1.15182 0.01391,0.36068 0.01391,0.62948 -0.0036,0.95121 -0.01754,0.32173 -0.05259,0.69554 -0.08767,1.01134 -0.03509,0.31581 -0.07014,0.57286 -0.122784,0.86147 -0.05265,0.28861 -0.122723,0.60785 -0.204608,0.93151 -0.08188,0.32366 -0.175338,0.65075 -0.259927,0.92174 -0.08459,0.27099 -0.160098,0.48515 -0.21859,0.64698 -0.05849,0.16183 -0.09978,0.27082 -0.143935,0.43094 -0.04415,0.16012 -0.09079,0.36998 -0.131758,0.62355 -0.04097,0.25357 -0.076,0.54936 -0.146142,0.8028 -0.07015,0.25344 -0.175282,0.46371 -0.290233,0.6024 -0.114951,0.1387 -0.239399,0.20526 -0.391647,0.25213 -0.152247,0.0469 -0.331178,0.0737 -0.479462,0.0813 -0.148283,0.008 -0.265022,-0.004 -0.387977,-0.0392 -0.122954,-0.0351 -0.251335,-0.0935 -0.350845,-0.20472 -0.09951,-0.11125 -0.169604,-0.2748 -0.210506,-0.44434 -0.0409,-0.16954 -0.0526,-0.34508 -0.04675,-0.54956 0.0059,-0.20448 0.02927,-0.43867 0.0468,-0.69574 0.01752,-0.25707 0.02923,-0.53805 0.03507,-0.83801 0.0058,-0.29996 0.0058,-0.61988 0.0058,-1.00751 0,-0.38763 0,-0.84404 -0.0058,-1.2454 -0.0058,-0.40135 -0.01755,-0.74844 -0.02924,-1.12053 -0.01169,-0.37208 -0.02339,-0.76994 -0.04092,-1.20827 -0.01754,-0.43833 -0.04094,-0.91806 -0.07016,-1.37397 -0.02923,-0.45591 -0.06432,-0.88878 -0.104654,-1.29545 -0.04033,-0.40668 -0.08595,-0.78782 -0.144371,-1.00985 -0.05842,-0.22203 -0.129803,-0.28547 -0.212279,-0.38738 -0.08248,-0.10191 -0.176002,-0.2422 -0.29354,-0.40219 -0.117537,-0.16 -0.259209,-0.33987 -0.400788,-0.51962"
      id="path6782" inkscape:connector-curvature="0" inkscape:path-effect="#path-effect6784" inkscape:original-d="m 29.2521,284.9846 c -0.220607,0.18731 -0.441478,0.37489 -0.662612,0.56274 -0.116819,0.16365 -0.233598,0.32714 -0.350792,0.4911 -0.05831,0.17546 -0.116666,0.35053 -0.175395,0.52619 0.01926,0.22605 0.0382,0.45155 0.0569,0.67772 0.0281,0.4525 0.05588,0.90432 0.08342,1.35687 2.65e-4,0.26882 2.65e-4,0.53762 0,0.80682 -0.03485,0.37428 -0.0699,0.74809 -0.105238,1.12253 -0.03484,0.25718 -0.0699,0.51423 -0.105238,0.77174 -0.06997,0.31972 -0.140052,0.63896 -0.210473,0.95883 -0.09337,0.32746 -0.186825,0.65455 -0.280633,0.98222 -0.07539,0.21431 -0.150903,0.42847 -0.226751,0.64311 -0.04114,0.10903 -0.08243,0.21801 -0.124042,0.32741 -0.04664,0.21083 -0.09328,0.42069 -0.140316,0.63142 -0.03486,0.2964 -0.06989,0.59219 -0.105238,0.88868 -0.105077,0.21041 -0.210209,0.42068 -0.315712,0.63142 -0.124557,0.0665 -0.249004,0.13307 -0.373903,0.2 -0.179574,0.0267 -0.358504,0.0535 -0.538153,0.0806 -0.11686,-0.012 -0.233597,-0.0237 -0.350792,-0.0351 -0.128618,-0.0588 -0.256982,-0.11719 -0.38587,-0.17539 -0.06996,-0.16412 -0.140052,-0.32767 -0.210475,-0.49111 -0.01142,-0.17552 -0.02312,-0.35106 -0.03508,-0.52619 0.02362,-0.23379 0.04704,-0.46798 0.07016,-0.70158 0.01194,-0.28055 0.02365,-0.56153 0.03508,-0.8419 2.65e-4,-0.31956 2.65e-4,-0.63948 0,-0.95883 2.65e-4,-0.45591 2.65e-4,-0.91232 0,-1.36808 -0.01142,-0.34696 -0.02312,-0.69405 -0.03508,-1.04068 -0.01142,-0.39754 -0.02312,-0.7954 -0.03508,-1.19269 -0.02311,-0.47937 -0.04651,-0.9591 -0.07016,-1.43825 -0.0348,-0.43268 -0.06989,-0.86555 -0.105237,-1.29793 -0.04531,-0.38098 -0.09093,-0.76213 -0.136795,-1.14281 -0.07103,-0.0636 -0.1424,-0.12706 -0.213997,-0.19019 -0.0933,-0.14061 -0.186824,-0.2809 -0.280633,-0.42095 -0.141281,-0.17997 -0.282951,-0.35984 -0.424823,-0.53936"
    />
    <path style="fill:none;stroke:#000000;stroke-width:0.065;stroke-linecap:butt;stroke-linejoin:miter;stroke-miterlimit:4;stroke-dasharray:none;stroke-opacity:1"
      d="m 23.499142,284.28301 c -0.162392,-0.13981 -0.324803,-0.27963 -0.481884,-0.3861 -0.157082,-0.10648 -0.30891,-0.17963 -0.5137,-0.37272 -0.20479,-0.19309 -0.462022,-0.50557 -0.678432,-0.79641 -0.216411,-0.29083 -0.391825,-0.5598 -0.532134,-0.82874 -0.140309,-0.26895 -0.245573,-0.53795 -0.339093,-0.81268 -0.09352,-0.27473 -0.175414,-0.55551 -0.239702,-0.85361 -0.06429,-0.2981 -0.11109,-0.61401 -0.128613,-0.95885 -0.01752,-0.34484 -0.0058,-0.71928 0.03511,-1.07386 0.04093,-0.35458 0.111139,-0.69003 0.187482,-1.01676 0.07634,-0.32673 0.157533,-0.6399 0.202189,-0.86794 0.04466,-0.22804 0.05014,-0.33027 0.05663,-0.45132"
      id="path6786" inkscape:connector-curvature="0" inkscape:path-effect="#path-effect6788" inkscape:original-d="m 23.499142,284.28301 c -0.162147,-0.14009 -0.32456,-0.27991 -0.487236,-0.41947 -0.151589,-0.0734 -0.303404,-0.14658 -0.455503,-0.21947 -0.257346,-0.31321 -0.51458,-0.62569 -0.772266,-0.93814 -0.175116,-0.26918 -0.350527,-0.53815 -0.526187,-0.80682 -0.104948,-0.26914 -0.21021,-0.53815 -0.315712,-0.80682 -0.08154,-0.28075 -0.163438,-0.56153 -0.245554,-0.8419 -0.04648,-0.31578 -0.09328,-0.63169 -0.140317,-0.94714 0.01195,-0.37418 0.02365,-0.74862 0.03508,-1.12253 0.07037,-0.33522 0.140581,-0.67067 0.210475,-1.0056 0.09372,-0.31569 0.163967,-0.63169 0.245554,-0.94714 0.01195,-0.14044 0.01327,-0.2429 0.01951,-0.36396"
    />
    <path style="fill:none;stroke:#000000;stroke-width:0.169;stroke-linecap:butt;stroke-linejoin:miter;stroke-miterlimit:4;stroke-dasharray:none;stroke-opacity:1"
      d="m 25.532608,272.36811 c -0.210457,0.007 -0.421499,0.0132 -0.633089,0.0199" id="path6790" inkscape:connector-curvature="0"
      inkscape:path-effect="#path-effect6792" inkscape:original-d="m 25.532608,272.36811 c -0.210476,0.006 -0.421507,0.013 -0.633089,0.0199"
    />
    <path style="fill:none;stroke:#000000;stroke-width:0.065;stroke-linecap:butt;stroke-linejoin:miter;stroke-miterlimit:4;stroke-dasharray:none;stroke-opacity:1"
      d="m 1.99693,273.02356 c -0.040058,-0.0888 -0.080082,-0.17745 -0.1041991,-0.27964 -0.024117,-0.10219 -0.032397,-0.2181 -0.00346,-0.35853 0.028942,-0.14042 0.095226,-0.30613 0.1819539,-0.49609 0.086728,-0.18996 0.1944229,-0.40535 0.3183571,-0.62842 0.1239343,-0.22307 0.2647053,-0.45492 0.3599504,-0.63145 0.095245,-0.17653 0.1453684,-0.2984 0.2238156,-0.43462 0.078447,-0.13622 0.1857714,-0.28777 0.325975,-0.42931 0.1402037,-0.14155 0.3141807,-0.2741 0.4340311,-0.35672 0.1198505,-0.0826 0.1860996,-0.11574 0.293236,-0.16106 0.1071364,-0.0453 0.2566672,-0.10347 0.417699,-0.14474 0.1610317,-0.0413 0.3350434,-0.0661 0.4919935,-0.0744 0.1569502,-0.008 0.2977512,4e-5 0.4753062,0.0248 0.177555,0.0248 0.392906,0.0662 0.5788449,0.11578 0.1859388,0.0496 0.3431721,0.10752 0.4795083,0.16949 0.1363361,0.062 0.252209,0.12819 0.3761549,0.21496 0.1239459,0.0868 0.2563371,0.19433 0.3659485,0.29209 0.1096113,0.0978 0.1966165,0.18587 0.271092,0.24378 0.074476,0.0579 0.1363314,0.0856 0.2332487,0.14066 0.096917,0.0551 0.2294502,0.13793 0.3782238,0.23711 0.1487735,0.0992 0.3142277,0.215 0.4919452,0.35828 0.1777176,0.14328 0.3679472,0.31421 0.5456936,0.49057 0.1777464,0.17637 0.3431264,0.35829 0.5415625,0.59944 0.198436,0.24116 0.4299289,0.54155 0.5994249,0.79096 0.169496,0.24941 0.276969,0.44782 0.409296,0.72074 0.132328,0.27292 0.289349,0.62002 0.429932,0.99628 0.140582,0.37625 0.264562,0.78125 0.348059,1.07875 0.0835,0.2975 0.129901,0.50259 0.165159,0.7165 0.03526,0.21391 0.06102,0.44383 0.08684,0.67421"
      id="path6794" inkscape:connector-curvature="0" inkscape:path-effect="#path-effect6796" inkscape:original-d="m 1.99693,273.02356 c -0.039749,-0.0889 -0.079763,-0.17759 -0.120042,-0.26599 -0.00799,-0.11586 -0.016272,-0.23177 -0.024805,-0.34727 0.066271,-0.16528 0.1325563,-0.33099 0.1984375,-0.49609 0.107544,-0.21482 0.2152385,-0.43021 0.3224609,-0.64492 0.1406169,-0.23143 0.2813844,-0.46329 0.4216797,-0.69453 0.050254,-0.12181 0.1003771,-0.24368 0.1501688,-0.36512 0.1070237,-0.15101 0.2143448,-0.30256 0.3211203,-0.45344 0.1735516,-0.13229 0.3475302,-0.26484 0.5208984,-0.39687 0.066298,-0.0333 0.1325563,-0.0664 0.1984375,-0.0992 0.1483783,-0.0579 0.2979208,-0.11602 0.4464844,-0.17363 0.1735251,-0.025 0.3475302,-0.0499 0.5208984,-0.0744 0.1405845,0.008 0.2813844,0.0163 0.4216797,0.0248 0.2148591,0.041 0.4302125,0.0824 0.6449219,0.12402 0.1572103,0.0576 0.3144572,0.11549 0.471289,0.17363 0.1159113,0.0658 0.231775,0.13203 0.3472656,0.19844 0.1324587,0.10714 0.2648479,0.21471 0.396875,0.32246 0.087229,0.0878 0.1742324,0.17591 0.2609514,0.26426 0.06211,0.0274 0.1239533,0.0551 0.185533,0.083 0.1322956,0.0823 0.2648479,0.1651 0.396875,0.24804 0.16554,0.11543 0.3309937,0.23125 0.4960937,0.34727 0.1903728,0.17056 0.3806034,0.34149 0.5705074,0.51263 0.165617,0.18162 0.3309937,0.36354 0.4960937,0.5457 0.231792,0.30017 0.4632857,0.60056 0.6945317,0.90124 0.107766,0.1982 0.215239,0.39661 0.322461,0.59531 0.157436,0.34717 0.314458,0.69427 0.471289,1.0418 0.124331,0.40502 0.248312,0.81002 0.372071,1.21543 0.04162,0.18998 0.08963,0.39471 0.134049,0.59246 0.02608,0.23011 0.05185,0.46003 0.07737,0.69044"
    />
    <path style="fill:none;stroke:#000000;stroke-width:0.065;stroke-linecap:butt;stroke-linejoin:miter;stroke-miterlimit:4;stroke-dasharray:none;stroke-opacity:1"
      d="m 11.71253,276.89301 c 0.04023,0.0492 0.08055,0.0984 0.118225,0.28379 0.03768,0.18536 0.07274,0.50673 0.07567,0.84594 0.0029,0.3392 -0.02628,0.69558 -0.084,1.04339 -0.05773,0.34781 -0.143861,0.68628 -0.19358,0.89389 -0.04972,0.20761 -0.06289,0.28386 -0.09295,0.41595 -0.03006,0.13209 -0.07665,0.31844 -0.138071,0.50275 -0.06142,0.18432 -0.137301,0.36526 -0.23971,0.57302 -0.102409,0.20776 -0.230806,0.44121 -0.385828,0.66938 -0.155021,0.22818 -0.336019,0.45005 -0.491021,0.62554 -0.155001,0.17549 -0.2834596,0.30395 -0.4327001,0.42688 -0.1492406,0.12292 -0.3184417,0.23961 -0.470562,0.33324 -0.1521204,0.0936 -0.286358,0.16366 -0.4122012,0.21928 -0.1258433,0.0556 -0.2424888,0.0964 -0.3566512,0.12866 -0.1141625,0.0322 -0.2249366,0.0556 -0.3349687,0.0727 -0.1100321,0.0171 -0.2183763,0.0279 -0.327319,0.0387"
      id="path6798" inkscape:connector-curvature="0" inkscape:path-effect="#path-effect6800" inkscape:original-d="m 11.71253,276.89301 c 0.04054,0.0489 0.08082,0.0982 0.120828,0.14764 0.03536,0.32148 0.07042,0.64285 0.105238,0.96467 -0.02899,0.35664 -0.0582,0.71302 -0.0877,1.06992 -0.08601,0.33875 -0.172145,0.67722 -0.258615,1.01623 -0.01293,0.0762 -0.02611,0.15245 -0.03956,0.22908 -0.04669,0.18756 -0.09328,0.37391 -0.140316,0.56126 -0.07587,0.18128 -0.151745,0.36222 -0.228015,0.54373 -0.128585,0.23401 -0.256982,0.46746 -0.38587,0.70158 -0.181221,0.2222 -0.36222,0.44407 -0.543726,0.66651 -0.128526,0.12852 -0.2569827,0.25698 -0.3858707,0.38587 -0.169633,0.1169 -0.338834,0.23359 -0.5086477,0.35079 -0.134445,0.07 -0.268675,0.14005 -0.40341,0.21047 -0.1169408,0.0408 -0.2335958,0.0816 -0.3507909,0.12278 -0.1111216,0.0232 -0.2219031,0.0465 -0.3332517,0.0702 -0.1086863,0.0106 -0.2170374,0.0213 -0.3259532,0.0324"
    />
    <path style="fill:none;stroke:#000000;stroke-width:0.065;stroke-linecap:butt;stroke-linejoin:miter;stroke-miterlimit:4;stroke-dasharray:none;stroke-opacity:1"
      d="m 3.7333898,283.20046 c -0.1355356,-0.10635 -0.2711088,-0.21273 -0.4354137,-0.37413 -0.1643049,-0.1614 -0.3571881,-0.37766 -0.5384389,-0.61154 -0.1812508,-0.23387 -0.350813,-0.48529 -0.5086517,-0.72205 -0.1578387,-0.23676 -0.3040366,-0.45898 -0.4354533,-0.64319 -0.1314167,-0.18422 -0.258855,-0.34399 -0.3377802,-0.56817 -0.078925,-0.22418 -0.114727,-0.51945 -0.1618336,-0.90365 -0.047107,-0.3842 -0.1056175,-0.85814 -0.1465339,-1.22447 -0.040917,-0.36632 -0.064314,-0.62564 -0.075996,-0.91491 -0.011682,-0.28927 -0.011682,-0.60917 -0.011682,-0.81569 0,-0.20653 0,-0.30018 0.00876,-0.46064 0.00876,-0.16047 0.026345,-0.38913 0.067253,-0.65205 0.040908,-0.26292 0.1052991,-0.56146 0.1929673,-0.85657 0.087668,-0.2951 0.1988672,-0.58773 0.307753,-0.82104 0.1088858,-0.2333 0.2266124,-0.42575 0.3385943,-0.6088"
      id="path6802" inkscape:connector-curvature="0" inkscape:path-effect="#path-effect6804" inkscape:original-d="m 3.7333898,283.20046 c -0.1353084,-0.10664 -0.2708817,-0.21302 -0.4067196,-0.31914 -0.1927206,-0.21664 -0.3856056,-0.4329 -0.5788054,-0.64896 -0.169272,-0.25165 -0.3388336,-0.50307 -0.5086473,-0.7542 -0.145864,-0.22238 -0.2920615,-0.4446 -0.4384891,-0.6665 -0.1166326,-0.14639 -0.2438611,-0.30633 -0.3661885,-0.4591 -0.035521,-0.2954 -0.071322,-0.59067 -0.1073797,-0.8856 -0.058155,-0.47347 -0.1166658,-0.94741 -0.1753956,-1.42071 -0.02311,-0.25934 -0.046508,-0.51866 -0.070158,-0.77759 2.645e-4,-0.31958 2.645e-4,-0.63948 0,-0.95883 2.645e-4,-0.0937 2.645e-4,-0.18735 0,-0.28063 0.017755,-0.22763 0.035344,-0.45629 0.052619,-0.68404 0.064496,-0.29807 0.128888,-0.59661 0.1929351,-0.89452 0.111234,-0.29229 0.2224324,-0.58492 0.3332517,-0.87698 0.1053871,-0.17547 0.22461,-0.367 0.3365181,-0.5501"
    />
    <path style="fill:none;stroke:#000000;stroke-width:0.065;stroke-linecap:butt;stroke-linejoin:miter;stroke-miterlimit:4;stroke-dasharray:none;stroke-opacity:1"
      d="m 4.0107134,283.47767 c 0.1168881,0.18118 0.2338171,0.36242 0.3478385,0.58168 0.1140215,0.21926 0.225065,0.47641 0.3098642,0.78632 0.084799,0.30991 0.1432359,0.67222 0.1841775,1.02505 0.040942,0.35283 0.064313,0.69561 0.067244,1.08649 0.00293,0.39089 -0.014596,0.82907 -0.026294,1.18677 -0.011698,0.3577 -0.01754,0.63426 -0.011696,0.89554 0.00584,0.26128 0.023366,0.50659 0.037982,0.67911 0.014616,0.17251 0.026301,0.27183 0.026311,0.40159 1.01e-5,0.12975 -0.011656,0.28919 -0.029209,0.46573 -0.017553,0.17653 -0.040897,0.36912 -0.075999,0.58074 -0.035102,0.21162 -0.081804,0.44124 -0.1256882,0.69087 -0.043884,0.24964 -0.084755,0.51822 -0.1110858,0.75903 -0.026331,0.24081 -0.038011,0.453 -0.032174,0.63241 0.00584,0.17942 0.029194,0.3254 0.089063,0.49121 0.05987,0.1658 0.1559539,0.35059 0.2760163,0.43246 0.1200624,0.0819 0.2634723,0.0605 0.4402074,0.0557 0.176735,-0.005 0.3876447,0.007 0.6009233,0.0128 0.2132787,0.006 0.429856,0.006 0.5905812,-2e-5 0.1607252,-0.006 0.2660897,-0.0176 0.3566224,-0.0351 0.090533,-0.0176 0.1667288,-0.041 0.2487824,-0.0863 0.082054,-0.0452 0.1694145,-0.11163 0.2218652,-0.30988 0.052451,-0.19825 0.070012,-0.53026 0.09629,-0.97805 0.026277,-0.44779 0.061386,-1.01343 0.096454,-1.68655 0.035068,-0.67313 0.070164,-1.455 0.1140047,-2.39415 0.04384,-0.93915 0.096477,-2.03673 0.1386177,-2.86049 0.04214,-0.82375 0.073816,-1.37434 0.105467,-1.92452"
      id="path6806" inkscape:connector-curvature="0" inkscape:path-effect="#path-effect6808" inkscape:original-d="m 4.0107134,283.47767 c 0.1171948,0.18098 0.2341253,0.36222 0.3507912,0.54373 0.111389,0.25707 0.2224323,0.51422 0.3332517,0.77173 0.058759,0.3624 0.1171951,0.72471 0.1753955,1.08746 0.023664,0.34294 0.047037,0.68572 0.070158,1.02899 -0.017288,0.43853 -0.034814,0.87671 -0.052619,1.31546 -0.00559,0.27665 -0.011427,0.55321 -0.017539,0.83021 0.017822,0.24553 0.035344,0.49084 0.052619,0.73666 0.01197,0.0992 0.023651,0.19852 0.035079,0.29817 -0.011456,0.15991 -0.023122,0.31935 -0.035079,0.47942 -0.023162,0.19301 -0.046507,0.3856 -0.070158,0.5788 -0.046578,0.23005 -0.09328,0.45967 -0.1403165,0.68989 -0.040715,0.26904 -0.081587,0.53762 -0.122777,0.80682 -0.011441,0.2124 -0.023122,0.42459 -0.035079,0.63727 0.02368,0.14609 0.047037,0.29207 0.070158,0.43849 0.096634,0.18508 0.1927174,0.36987 0.2886794,0.55519 0.143823,-0.0216 0.2872264,-0.043 0.4304425,-0.0641 0.2103032,0.0114 0.4212142,0.0231 0.6314244,0.0351 0.2163297,-2.6e-4 0.432907,-2.6e-4 0.6489639,0 0.1053732,-0.0119 0.2107393,-0.0236 0.3157119,-0.0351 0.07606,-0.0236 0.1522743,-0.047 0.2280145,-0.0702 0.081775,-0.0759 0.1757344,-0.13361 0.2632048,-0.20003 0.017709,-0.33003 0.03527,-0.66204 0.052507,-0.99266 0.035315,-0.56495 0.070423,-1.13059 0.1052375,-1.69549 0.035326,-0.78136 0.070423,-1.56323 0.1052373,-2.34445 0.052865,-1.09708 0.105502,-2.19466 0.1578562,-3.29159 0.031924,-0.55058 0.063599,-1.10117 0.095002,-1.65136"
    />
  </g>
</svg>