<svg xmlns="http://www.w3.org/2000/svg" viewBox="0 0 38.492699 50.000001" id="svg8514"><g id="layer1" transform="translate(0 -246.99999)"><g transform="translate(-762.2129 -135.22206)" id="F15-18" stroke-width=".13229166"><g id="flowerDevelopmentPart15" transform="matrix(.26458 0 0 .26458 656.72503 312.76496)" fill="none" stroke-width=".5"><path d="M468.04765 370.80527c-3.203-3.88501-4.5308-10.24944-6.7379-15.33344-2.1597-10.06218-6.7359-19.49411-10.1697-28.93326-10.7389 1.0234-17.1588-10.91911-20.3372-18.47205 1.3746-11.67781.9965-24.33069 9.3512-33.18701 3.8068-7.01312 13.639-6.84484 17.6561-1.64781.9852 1.75943 5.6701 2.71265 6.6 4.45285 15.195 4.65348 20.6554 27.75349 8.0676 38.54706-6.6876 4.71757-3.655 14.56522-1.4749 21.98146 1.7103 8.92468 4.4754 19.97928 7.6531 29.56564-2.5548 2.37776-7.5902 1.27152-10.6083 3.02656z" id="path7976-2"/><path d="M514.64095 378.27432c-8.068-11.78329-8.345-27.50504-11.6943-41.45492-.9248-6.95407-7.6236-9.9003-9.4291-17.10753-4.8619-14.12309 2.8775-32.68997 18.5393-35.79998 10.4239.73609 17.1895 10.41194 23.77 17.51388 2.9823 10.92178-1.8306 24.34481-12.8678 28.71301 2.0657 3.07426-.7813 8.68102.9697 12.89327.7941 9.31273 3.7584 19.89669.886 28.48-3.0194 3.2979-6.4671 4.53052-10.1738 6.76227z" id="path7986-0"/><path d="M422.56132 442.05279c-3.5777-3.66359-14.1726-.40367-10.6591-8.44709.3415-11.93967 3.0075-24.11063 1.8196-35.77889-5.7944-7.12617-13.3123-15.89795-8.4812-26.22111 1.5833-5.15276 1.7687-8.17888 7.0408-11.76305 7.8876-6.6178 21.9423-15.95952 29.7507-4.50132 3.5677 4.72421 7.0874 9.97942 9.3323 15.46408 1.6609 6.04451 2.098 12.13576-3.0831 16.86198-4.4236 8.04722-14.9603 8.90793-21.4077 13.69834 1.1842 12.55542-2.404 24.21327-2.1594 36.33265-2.1228.75503.9265 4.95984-2.1529 4.35441z" id="path7956-5"/><path d="M462.65907 449.23711c-10.4433-5.97464-.4245-17.4084-.018-26.20327 2.5313-10.07815-8.4383-19.26514-1.3827-29.34497-.053-8.49918 10.9651-12.37174 18.1309-15.3074 12.9106.25095 18.6093 13.51841 20.0307 24.86427-.8632 10.71392-11.1829 12.14137-18.8497 16.52001-7.8077 8.01449-5.2459 22.49152-13.957 29.12-1.2874.51854-2.6199.25757-3.9544.35136z" id="path7966-2"/></g><g id="g12303"><g id="g12262"><path id="path12238" d="M770.7083 394.27422s.36728-3.71088 3.92666-5.12553c3.55939-1.41465 3.95626-3.59746 3.95626-3.59746" fill="none" stroke="#000"/><path id="path12240" d="M774.23697 389.32051s.49609 5.82083 3.80338 8.59895c0 0 1.63812.44749 3.09333-1.07387" fill="none" stroke="#000"/><path id="path12242" d="M778.04035 397.91946s.0995.89684-1.95116 1.24217" fill="none" stroke="#000"/></g><g id="g12257"><path id="path12244" d="M787.08204 393.40686s3.74176-3.13375 9.26087-3.27406" fill="none" stroke="#000"/><path id="path12250" d="M791.01089 391.16179s-.98221 5.09815.74835 8.74639c0 0 1.70623 1.30067 3.33204.206" fill="none" stroke="#000"/><path id="path12252" d="M791.75924 399.90818s.0468 1.26285-2.29182.93543" fill="none" stroke="#000"/></g><g id="g12273"><path id="path12264" d="M764.32957 409.96398s1.14371-1.68359 4.23068-1.63681c0 0 1.4967.51449 2.99341-.14032s3.04019-.14032 3.04019-.14032" fill="none" stroke="#000"/><path id="path12266" d="M769.07474 408.51425s-3.69499 4.30305-1.73056 8.74641c0 0 .11211 1.80772 2.3245 1.69898" fill="none" stroke="#000"/><path id="path12268" d="M767.39593 417.93302s-.21071.66585-1.207.0903" fill="none" stroke="#000"/></g><g id="g12285"><path id="path12276" d="M778.76632 416.92848s.89236-1.87357 2.45253-.46667c1.56014 1.40689 4.17938.56499 4.17938.56499s1.07577-1.07577 2.85311-.18709" fill="none" stroke="#000"/><path id="path12278" d="M781.79678 416.83971s-2.61925 2.57247-.23387 6.26748c0 0 .53409 1.10799 2.29026.71459" fill="none" stroke="#000"/><path id="path12280" d="M781.56291 423.10719s-.8419.56126-2.43215-.28064" fill="none" stroke="#000"/></g></g></g><path d="M16.38969 250.29506l-.01775.0595c.149706-.026-.501663-.25122-.730878-.51912l-.306475-.37603-.868626-.46772-.467722-.11693-.484426-.0501-.3842.0334-.484425.10022-.567948.20045-.317383.21716-.417608.35079-.372697.54475-.22866.29047-.317383.3842-.334086.51783-.3507915.66818-.233861.60135-.2505652.71829-.200452.93544-.2004523 1.10249-.100226 1.11919-.1670434 1.9043-.033409.0167" id="path4543" fill="none" stroke="#000" stroke-width=".1"/><path d="M16.37832 250.32917c.240222.12847.480346.2569.648439.37092.168093.11402.264347.21379.435293.31855.170946.10476.41648.2145.660443.33824.243964.12373.486618.26161.734586.44069.247968.17909.50162.39966.755143.67798.253523.27832.507104.61459.69727.8957.190166.28111.316929.50708.438218.78547.12129.2784.237.609.325212.89292.08821.28391.148819.52083.195698.84618.04688.32534.07993.73843.07167 1.13264-.0083.3942-.05783.7688-.143292 1.16583-.08546.39703-.206633.81563-.345092 1.16692-.138458.35129-.291405.62987-.470974.88441-.179568.25455-.395012.49424-.652089.72555-.257076.23132-.56001.45913-.863609.68744" id="path4552" fill="none" stroke="#000" stroke-width=".1"/><path d="M8.4757628 259.02115c.1622814.35637.3246114.71286.5980214 1.2042.2734099.49134.6606324 1.12196.9913938 1.58779.330762.46582.606335.76895.87371 1.01703.267374.24808.526432.44099.771739.59257.245306.15159.476855.26185.700083.34176.223228.0799.438321.12955.688014.153.249693.0234.534553.0208.818884.0181" id="path4556" fill="none" stroke="#000" stroke-width=".1"/><path d="M18.865236 261.65861c-.114366.30537-.228853.61106-.305645.91607-.07679.30502-.11573.60874-.11184.99486.0039.38613.05062.8534.171785 1.44373.121167.59033.316557 1.30248.527063 2.16008.210505.85761.435867 1.85964.773408 3.16366.337542 1.30402.786956 2.90877 1.019979 3.74438.233023.83561.249538.90167-.223333 1.01876-.472872.11709-1.432782.28445-1.90946.38489-.476677.10044-.467112.13343-.584887-.027-.117775-.16044-.362325-.51369-.659459-1.18991s-.646513-1.67483-.951417-2.60931c-.304904-.93449-.565407-1.80507-.84414-2.67015-.278732-.86509-.57418-1.72033-.881752-2.55212-.307572-.8318-.641538-1.67594-.967927-2.50094" id="path4564" fill="none" stroke="#000" stroke-width=".1"/><path d="M24.86914 258.1848c.199102-.63284.398103-1.26536.651916-1.81852.253814-.55316.562651-1.02745.934749-1.48936.372098-.46191.808116-.9123 1.404524-1.33218.596409-.41987 1.35342-.80962 2.011888-.88211.658467-.0725 1.218576.17204 1.691463.42104.472886.249.858867.50265 1.270487.80663.41162.30398.855317.6635 1.295842 1.02044" id="path4568" fill="none" stroke="#000" stroke-width=".1"/><path d="M34.130009 254.91074c.792075.77138 1.584127 1.54273 1.981221 2.23505.397093.69231.399193 1.30581.372688 1.85793-.02651.55211-.0816 1.0425-.197375 1.54977-.115771.50726-.292054 1.0306-.479489 1.45789-.187435.4273-.385752.75783-.624119 1.07631-.238367.31848-.511216.61862-.90213.91745-.390914.29883-.896268.59268-1.402402.88698" id="path4572" fill="none" stroke="#000" stroke-width=".1"/><path d="M24.86914 258.1848c-.05334.37985-.107787.76764-.130867 1.14102-.02308.37339-.01529.7356.02142 1.10414.03671.36855.103581.75013.195202 1.13223.09162.38211.208487.76777.346058 1.10158.13757.33382.298972.6212.5056.92334.206628.30215.459899.62166.718239.97583.25834.35417.505465.71898.76074 1.09582" id="path4576" fill="none" stroke="#000" stroke-width=".1"/><path d="M27.25452 265.62155c.109583.34588.219219.69193.322862 1.07694.103642.38501.201191.80861.304584 1.34805.103394.53944.212479 1.19395.309935 1.7592.09746.56524.183176 1.0406.27674 1.50843.09356.46783.194859.92756.343009 1.51627s.342952 1.30558.521288 1.88543c.178337.57985.339995 1.02198.548732 1.53526.208736.51329.464189 1.09682.82691 1.20202.362721.1052.832023-.26808 1.31965-.60133.487627-.33326.993469-.62646 1.267134-.99971.273666-.37325.315451-.82646.33633-1.33737.02088-.51091.02088-1.08039-.02199-1.75449-.04287-.67411-.128656-1.45401-.214915-2.21424-.08626-.76024-.17308-1.50162-.243239-1.98488-.07016-.48326-.123698-.70879-.142642-.99291-.01894-.28413-.0033-.62742.02004-.97418.02338-.34675.05459-.69783.03078-.982-.0238-.28416-.102637-.5022-.181353-.71992" id="path4580" fill="none" stroke="#000" stroke-width=".1"/><path d="M2.1166666 274.74192c.038657-.17119.07724-.34206.1448664-.50259.067626-.16052.1695265-.31903.2824117-.47871.1128852-.15968.2399191-.32538.4172233-.49436.1773043-.16897.4058812-.34225.6410617-.52544.2351805-.18319.4847369-.38248.7811096-.59901.2963727-.21653.6440471-.45383 1.0214564-.6935.3774092-.23966.7856629-.4824 1.1768862-.67524.3912233-.19284.7663374-.33627 1.0832205-.42677.316883-.0905.5870817-.12991.7964527-.1547.2093711-.0248.3638813-.0358.5235587-.0331.1596774.003.3253477.0193.5038166.0542.1784689.0349.383712.0919.5709946.16627.187282.0744.363849.16817.55667.31967.192821.1515.402396.36108.622868.62013.220473.25905.451983.56773.645993.82953.19401.26181.342937.46632.495694.67609" id="path4584" fill="none" stroke="#000" stroke-width=".1"/><path d="M2.1166666 274.74192l-.1756217.36869-.2090022.75296-.2236403.56836-.1520096.65481-.035079.6782.046772.47941.1169304.60804.2455539.67819.4911077.93545.7366617 1.06407 1.0790789 1.32963" id="path4588" fill="none" stroke="#000" stroke-width=".1"/><path d="M12.38095 272.82447c.152625.24748.305294.49503.463505.75917.158212.26413.321861.54467.504666.89217.182805.3475.384602.76164.521035 1.11634.136432.35469.207395.64971.254619.97301.04723.3233.07056.67334.06672 1.00435-.0038.331-.03508.64337-.110523.94303-.07544.29966-.189494.57339-.357111.83825-.167618.26487-.385539.51337-.56884.75515s-.331348.47604-.499076.6753c-.167729.19925-.354572.36274-.651086.56953-.296515.20679-.701262.45587-1.169184.69764-.467922.24177-.9976009.47545-1.5852685.75851-.5876677.28306-1.2321363.61495-1.8773138.9472" id="path4592" fill="none" stroke="#000" stroke-width=".1"/><path d="M3.9760268 282.80124c.025122.48831.050257.97686.057319 1.48861.00706.51175-.00396 1.04615-.034278 1.62784-.030321.58168-.079905 1.20975-.1543376 1.9982-.074432.78845-.1736061 1.73611-.236109 2.48814-.062503.75203-.088256 1.30765-.1323191 1.67423-.044062.36658-.106464.54382-.1326165.70434-.026152.16052-.014364.32556.035308.4608.049672.13525.1377297.25082.2811526.3501.143423.0993.3418094.18194.631114.25081.2893045.0689.6698981.12403.950915.18741.281017.0634.4630417.13508.6378673.22855.1748256.0935.3428843.20894.4934722.21418.150588.005.280004-.0966.3236255-.26654.043621-.16996-.00281-.39025.013123-.54363.015934-.15339.095165-.23366.1503321-.66054.055167-.42688.086483-1.20026.1490235-2.00882.06254-.80855.1562117-1.6516.2471458-2.5141.090934-.8625.1791583-1.74474.2118548-2.53839.032697-.79365.00992-1.49949-.012846-2.20485" id="path4596" fill="none" stroke="#000" stroke-width=".1"/><path d="M16.55342 281.70642c.06347-.34221.127401-.68692.239914-.9814.112514-.29448.27871-.54773.467434-.76781.188724-.22009.411594-.41907.653096-.60213.241503-.18306.50688-.35478.837959-.53004.331079-.17527.729103-.35477 1.177211-.57906.448108-.22429.947567-.49398 1.341152-.57961.393584-.0856.681859.0123.985688.10806.303829.0957.623683.18934.928683.32784.305.1385.606953.32921.871933.53964.264981.21042.498895.44434.736632.75611.237736.31178.479394.70155.687605 1.08449.208211.38294.38292.75895.557713 1.13514" id="path4600" fill="none" stroke="#000" stroke-width=".1"/><path d="M16.553405 281.70641c-.107641.18647-.21546.37325-.304541.56424-.08908.191-.159123.38556-.211805.59428-.05268.20872-.0877.43052-.101367.6509-.01366.22039-.0059.43837.03497.70514.04085.26677.115023.58298.220121.95675.105099.37376.241788.80726.372055 1.2307.130268.42343.254292.83736.37841 1.25161" id="path4604" fill="none" stroke="#000" stroke-width=".1"/><path d="M26.006284 281.54457c.147742.52898.295535 1.05814.402893 1.50659.107358.44846.174223.81598.178152 1.15512.0039.33914-.05513.6495-.153954.93188-.09882.28238-.24079.54265-.404574.78446-.163785.24181-.350645.4676-.611964.68215-.26132.21455-.596094.41697-.911941.59635-.315847.17937-.611799.33514-1.092265.5704-.480466.23527-1.143765.54921-1.808086.86363" id="path4608" fill="none" stroke="#000" stroke-width=".1"/><path d="M16.941248 287.66003c.02545.25222.04982.49377.0623.69725.01247.20349.01247.36319-.0037.5416-.01613.17841-.04833.37475-.07868.58991-.03035.21515-.05868.44807-.11906.73598-.06038.28791-.155358.63988-.279059 1.00843-.1237.36854-.278644.76144-.416517 1.17778-.137873.41635-.259044.85697-.327986 1.22916-.06894.3722-.08547.67516-.07391.92322.01156.24806.04902.43.109692.60653.06067.17653.143264.34171.318888.56353.175625.22181.443805.49963.768351.61691.324545.11727.704993.0739.997992-.0625.292999-.13637.498586-.36545.694943-.62039s.384005-.53641.516217-.77609c.132212-.23968.209465-.43833.319339-.76791.109873-.32958.253902-.7949.405424-1.32661.151521-.53172.311484-1.13296.46552-1.6412.154036-.50823.302381-.92431.526747-1.33787.224367-.41355.524718-.8248.82486-1.23577" id="path4612" fill="none" stroke="#000" stroke-width=".1"/></g></svg>