<svg xmlns="http://www.w3.org/2000/svg" viewBox="0 0 300 300" xml:space="preserve" license="CCBY4.0" author="Provart Lab - Bio Analytic Resource, University of Toronto">
  <g id="shapes" fill="none" stroke="#000" stroke-width=".5" stroke-miterlimit="10">
    <path d="M121 212v21l6 26 22-6c1-5 3-28 2-33-4 3-10 8-12 8-4-3-10-5-12-14l-6-2z" id="receptacle"/>
    <path d="M121 212s-11-2-12-4c-4-3-12-10-13-13-4-4-19-15-20-22l-5-24c0-5 4-14 5-15 2-1 5 0 7 5 3 5 9 22 10 26 3 7 15 21 18 25l-1-32v-15c-3-3-18-10-25-14-4-4-6-1-10-14-1-4 0-5 3-4 6 1 10 5 10 4 0-6 0-10-7-14-8-4-12-8-14-10-5-1-12-8-16-12-4-5-5-9-6-13-4-6-10-13-6-15 5 1 8 1 16-1 5 0 10 4 16 9 8 4 22 9 27 16l10 14 2-16c-3-3-5-7 1-6l14-1c-2-3 0-8 8-9l17 3c2-2-1 8-2 9l2 24c3-6 5-15 5-27-3-2-7-5-1-10 3-4 10-7 10-1 0 4 0 6 10-5 8-5 12-8 20-8 10 0 23-2 25-1 3 1 8 3 5 13l-12 25c3 0 11-2 14-6s6-7 14-7c7-1 9-2 12 4 1 5 0 15-11 21-10 4-28 13-38 22-9 9-30 25-27 41 4-3 16-14 20-20l11-16c2 1 6 13 4 24-3 9-3 17-21 39-3 5-5 11-11 15l-10 7-18 17-12 8c-4-3-10-7-12-14-2 0-6-4-6-2z" id="flower"/>
  </g>
  <g id="outline" fill="none" stroke="#000" stroke-width=".5" stroke-miterlimit="10">
    <path d="M121 212v21l6 26 22-6c1-5 3-28 2-33-4 3-10 8-12 8-4-3-10-5-12-14l-6-2z"/>
    <path d="M121 212s-11-2-12-4c-4-3-12-10-13-13-4-4-19-15-20-22l-5-24c0-5 4-14 5-15 2-1 5 0 7 5 3 5 9 22 10 26 3 7 15 21 18 25l-1-32v-15c-3-3-18-10-25-14-4-4-6-1-10-14-1-4 0-5 3-4 6 1 10 5 10 4 0-6 0-10-7-14-8-4-12-8-14-10-5-1-12-8-16-12-4-5-5-9-6-13-4-6-10-13-6-15 5 1 8 1 16-1 5 0 10 4 16 9 8 4 22 9 27 16l10 14 2-16c-3-3-5-7 1-6l14-1c-2-3 0-8 8-9l17 3c2-2-1 8-2 9l2 24c3-6 5-15 5-27-3-2-7-5-1-10 3-4 10-7 10-1 0 4 0 6 10-5 8-5 12-8 20-8 10 0 23-2 25-1 3 1 8 3 5 13l-12 25c3 0 11-2 14-6s6-7 14-7c7-1 9-2 12 4 1 5 0 15-11 21-10 4-28 13-38 22-9 9-30 25-27 41 4-3 16-14 20-20l11-16c2 1 6 13 4 24-3 9-3 17-21 39-3 5-5 11-11 15l-10 7-18 17-12 8c-4-3-10-7-12-14-2 0-6-4-6-2z"/>
    <path d="m208 59-2 1-2 2-2 1-2 2-5 5-3 3a168 168 0 0 0-14 15l-1 1m17-38-3 3-5 5-11 13m74-4zm0-1-3 4-3 3-1 1-4 2h-2a93 93 0 0 1-9 3l-4 1-7 4h-1a79 79 0 0 1-15 9l1-1a32 32 0 0 0 6-6l5-8m-63 76 4-4 1-1 2-3 1-5 1-2 1-12v-2a46 46 0 0 1 1-11l1-4v-3l1-2v1c1 2 4 3 6 3a20 20 0 0 0 3 0v1l-3 3-3 9-1 12 2 9m-15-50-4 12v9a44 44 0 0 0 0 8l1 18v30m26-64h-6l-4-2-1-2 1-1v-1h-1l2-3 4-1c4 0 6 3 6 6v1l-1 3zm-21 44s2-10 1-21c-2-11 0-26 3-37 2-10 4-26 8-35-1 1-3 9-9 9 0 0 1 0 0 0m-8 2c-5 5-15 2-17 1l-3-2h-1v-1l-1-1m-17 8 6 3 2-1 6-3 3-6-1 5v20a133 133 0 0 1 0 19v3m-17-25v5l2 12 1 3v7-2m-22 1 14 2h5l2-1h2l5-1h7l5 2 2 1c3 2 6 4 6 7l1 4v18a229 229 0 0 1-1 31v10m-10-66h-4l-2 1h-1a36 36 0 0 1-5 0h-7a138 138 0 0 1-11-2l-7-2m20 24 2 4 1 2c3 4 5 8 6 13a518 518 0 0 0 5 36l1 3 1 4v2h1a11 11 0 0 0-1 2 35 35 0 0 1-4-6l-3-4-2-3-1-2-2-1-3-3m13 24c1-2 9-13 12-20l2-5 2-2a61 61 0 0 0 3-7l8-12 3-5 5-6 4-6h5l4 6v-1m0 1v10l-1 7-1 9-4 22m40-82-1 3v1l-4 11-1 6-7 15-1 1-4 6-2 2-1 2-1 2-1 1-1 1v1a52 52 0 0 1-9 9v-9a66 66 0 0 0 1-12l2-9m-10-9-3 6 4-8v-1l1-2 2-5 2-4 1-3 2-5 1-3 3-6 1-1 1-1 3-2v-1l6-5 11-11"/>
    <path d="M130 162v-2l-1-2-2-10a129 129 0 0 0-5-13h-1v-1l-2-3m-28-31c1-2-2-5-3-6l-7-6-6-5-3-2-1-1h-1c0-1-1-2-3-2m-5-11h-1l2 1 5 3a119 119 0 0 1 17 13l2 1a30 30 0 0 1 3 3"/>
  </g>
</svg>