<?xml version="1.0" encoding="utf-8"?>
<!-- Generator: Adobe Illustrator 16.0.0, SVG Export Plug-In . SVG Version: 6.00 Build 0)  -->
<!DOCTYPE svg PUBLIC "-//W3C//DTD SVG 1.1//EN" "http://www.w3.org/Graphics/SVG/1.1/DTD/svg11.dtd">
<svg version="1.1" author="Provart Lab - Bio Analytic Resource, University of Toronto" license="CCBY4.0" xmlns="http://www.w3.org/2000/svg" xmlns:xlink="http://www.w3.org/1999/xlink" x="0px" y="0px" width="300px"
    height="300px" viewBox="0 0 300 300" enable-background="new 0 0 300 300" xml:space="preserve">
	<g id="shapes">
		<path id="flowerBud" fill="none" d="M100.985,56.913c0,0,3.122-10.751,15.262-15.955c9.018-3.817,13.182-6.938,16.997-2.776
				c3.815-5.896,13.527-16.649,27.748-1.041c9.019-0.693,29.832,3.472,38.851,26.71c3.122,9.019,12.484,41.972,6.936,65.558
				c-3.121,14.568-10.058,31.563-28.789,57.926c1.041,1.734,2.774,6.591-4.161,15.608c-2.429,7.978-10.062,37.808-5.551,50.294
				c-4.511,1.041-21.853,5.552-21.853,5.552c-1.733-7.977-9.365-43.705-16.302-53.071c-3.815-4.162-4.857-13.18-3.47-17.343
				c-5.203-5.897-49.948-42.664-38.502-92.612C91.966,78.072,98.905,60.728,100.985,56.913z" />
	</g>
	<g id="outline">
		<path fill="none" stroke="#000000" stroke-width="0.5" stroke-miterlimit="10" d="M100.985,56.913c0,0,3.122-10.751,15.262-15.955
				c9.018-3.817,13.182-6.938,16.997-2.776c3.815-5.896,13.527-16.649,27.748-1.041c9.019-0.693,29.832,3.472,38.851,26.71
				c3.122,9.019,12.484,41.972,6.936,65.558c-3.121,14.568-10.058,31.563-28.789,57.926c1.041,1.734,2.774,6.591-4.161,15.608
				c-2.429,7.978-10.062,37.808-5.551,50.294c-4.511,1.041-21.853,5.552-21.853,5.552c-1.733-7.977-9.365-43.705-16.302-53.071
				c-3.815-4.162-4.857-13.18-3.47-17.343c-5.203-5.897-49.948-42.664-38.502-92.612C91.966,78.072,98.905,60.728,100.985,56.913z"
		/>
		<path fill="none" stroke="#000000" stroke-width="0.5" stroke-miterlimit="10" d="M133.244,38.182
				c-2.123,3.641-9.52,14.111-17.424,34.667c-22.991,63.229,10.504,93.501,10.845,93.79 M172.181,167.381
				c45.883-68.822,0.229-118.992-11.188-130.24 M127.914,190.335c4.631,1.201,17.832,4.341,30.008,4.341
				c7.79,0,15.127-1.327,19.497-5.243" />
	</g>
</svg>