<svg xmlns="http://www.w3.org/2000/svg" viewBox="0 0 300 300"><g id="shapes"><path id="flowerBud" fill="none" d="M100.985 56.913s3.122-10.751 15.262-15.955c9.018-3.817 13.182-6.938 16.997-2.776 3.815-5.896 13.527-16.649 27.748-1.041 9.019-.693 29.832 3.472 38.851 26.71 3.122 9.019 12.484 41.972 6.936 65.558-3.121 14.568-10.058 31.563-28.789 57.926 1.041 1.734 2.774 6.591-4.161 15.608-2.429 7.978-10.062 37.808-5.551 50.294-4.511 1.041-21.853 5.552-21.853 5.552-1.733-7.977-9.365-43.705-16.302-53.071-3.815-4.162-4.857-13.18-3.47-17.343-5.203-5.897-49.948-42.664-38.502-92.612 3.815-17.691 10.754-35.035 12.834-38.85z"/></g><g id="outline"><path fill="none" stroke="#000000" stroke-width=".5" stroke-miterlimit="10" d="M100.985 56.913s3.122-10.751 15.262-15.955c9.018-3.817 13.182-6.938 16.997-2.776 3.815-5.896 13.527-16.649 27.748-1.041 9.019-.693 29.832 3.472 38.851 26.71 3.122 9.019 12.484 41.972 6.936 65.558-3.121 14.568-10.058 31.563-28.789 57.926 1.041 1.734 2.774 6.591-4.161 15.608-2.429 7.978-10.062 37.808-5.551 50.294-4.511 1.041-21.853 5.552-21.853 5.552-1.733-7.977-9.365-43.705-16.302-53.071-3.815-4.162-4.857-13.18-3.47-17.343-5.203-5.897-49.948-42.664-38.502-92.612 3.815-17.691 10.754-35.035 12.834-38.85z"/><path fill="none" stroke="#000000" stroke-width=".5" stroke-miterlimit="10" d="M133.244 38.182c-2.123 3.641-9.52 14.111-17.424 34.667-22.991 63.229 10.504 93.501 10.845 93.79m45.516.742c45.883-68.822.229-118.992-11.188-130.24m-33.079 153.194c4.631 1.201 17.832 4.341 30.008 4.341 7.79 0 15.127-1.327 19.497-5.243"/></g></svg>