<svg xmlns="http://www.w3.org/2000/svg" width="75" height="75" viewBox="0 0 44 47" version="1.1" id="svg6935" license="CCBY4.0" author="Provart Lab - Bio Analytic Resource, University of Toronto">
  <g id="layer1" transform="translate(0 -250)">
    <g transform="translate(-451 -134)" id="F1" style="stroke-width:.13229166;stroke-miterlimit:4;stroke-dasharray:none">
      <g id="flowerDevelopmentPart1" transform="matrix(.27648 0 0 .27643 325 599)" style="stroke-width:.47853157;stroke-miterlimit:4;stroke-dasharray:none">
        <path fill="none" style="ll-opacity:1;stroke:#000;stroke-width:.47853157;stroke-miterlimit:4;stroke-dasharray:none;stroke-opacity:1" d="M530-616c-5-6-1-18-3-25-9 1-19-6-28-8l-23-15c-6-2-10-9-13-14-2-5-6-17 2-11l27 18 32 19c-8-16-14-32-21-49-7-13-13-26-15-40 0-9 8-22 17-15 4 4 4-8 6-10 5-9 17-6 22 1 6-2 15-2 21 4 5 6-2 13-7 13-5 2-1 14-1 13 3-5 9-14 15-11 1 5-1 12 1 15 2-9 11-15 18-20 2-9 16-12 21-3 13 10 6 31-3 43 0 5-2 12-4 15 6 0 14-10 18-2-3 4-11 6-15 11-15 10-26 25-40 37-5 4-11 7-9 15 0 7 5 20-6 17l-12 2z" id="path7754-4"/>
      </g>
      <g id="g1810" style="stroke-width:.13229166;stroke-miterlimit:4;stroke-dasharray:none">
        <path style="fill:none;stroke:#000;stroke-width:.13229166;stroke-linecap:butt;stroke-linejoin:miter;stroke-miterlimit:4;stroke-dasharray:none;stroke-opacity:1" d="M474 423s-3 0-4-4c0 0-1-9 4-12l3 3v9s0 2-3 4z" id="path1744"/>
        <path style="fill:none;stroke:#000;stroke-width:.13229166;stroke-linecap:butt;stroke-linejoin:miter;stroke-miterlimit:4;stroke-dasharray:none;stroke-opacity:1" d="M477 419s5-8 12-12" id="path1746"/>
        <path style="fill:none;stroke:#000;stroke-width:.13229166;stroke-linecap:butt;stroke-linejoin:miter;stroke-miterlimit:4;stroke-dasharray:none;stroke-opacity:1" d="M477 410s2-3 2-7l1-6" id="path1748"/>
        <path style="fill:none;stroke:#000;stroke-width:.13229166;stroke-linecap:butt;stroke-linejoin:miter;stroke-miterlimit:4;stroke-dasharray:none;stroke-opacity:1" d="M485 392s6-3 6 3c0 0-2 6-9 14l-4 8" id="path1750"/>
        <path style="fill:none;stroke:#000;stroke-width:.13229166;stroke-linecap:butt;stroke-linejoin:miter;stroke-miterlimit:4;stroke-dasharray:none;stroke-opacity:1" d="M482 409s3 0 9-6" id="path1752"/>
        <path style="fill:none;stroke:#000;stroke-width:.13229166;stroke-linecap:butt;stroke-linejoin:miter;stroke-miterlimit:4;stroke-dasharray:none;stroke-opacity:1" d="m473 409-4-9s-1-5-4-9" id="path1754"/>
        <path style="fill:none;stroke:#000;stroke-width:.13229166;stroke-linecap:butt;stroke-linejoin:miter;stroke-miterlimit:4;stroke-dasharray:none;stroke-opacity:1" d="m477 421-1 1" id="path1756"/>
        <path style="fill:none;stroke:#000;stroke-width:.13229166;stroke-linecap:butt;stroke-linejoin:miter;stroke-miterlimit:4;stroke-dasharray:none;stroke-opacity:1" d="M471 422h1" id="path1758"/>
        <path style="fill:none;stroke:#000;stroke-width:.13229166;stroke-linecap:butt;stroke-linejoin:miter;stroke-miterlimit:4;stroke-dasharray:none;stroke-opacity:1" d="M473 388s-4 2 0 4l3 1" id="path1760"/>
        <path style="fill:none;stroke:#000;stroke-width:.13229166;stroke-linecap:butt;stroke-linejoin:miter;stroke-miterlimit:4;stroke-dasharray:none;stroke-opacity:1" d="M473 393v15" id="path1764"/>
        <path style="fill:none;stroke:#000;stroke-width:.13229166;stroke-linecap:butt;stroke-linejoin:miter;stroke-miterlimit:4;stroke-dasharray:none;stroke-opacity:1" d="M476 396v13" id="path1766"/>
        <path style="fill:none;stroke:#000;stroke-width:.13229166;stroke-linecap:butt;stroke-linejoin:miter;stroke-miterlimit:4;stroke-dasharray:none;stroke-opacity:1" d="M474 407v-7s1-1 1 1v7" id="path1768"/>
        <path style="fill:none;stroke:#000;stroke-width:.13229166;stroke-linecap:butt;stroke-linejoin:miter;stroke-miterlimit:4;stroke-dasharray:none;stroke-opacity:1" d="m474 401-1-3 2-1 1 1-1 3" id="path1772"/>
        <path style="fill:none;stroke:#000;stroke-width:.13229166;stroke-linecap:butt;stroke-linejoin:miter;stroke-miterlimit:4;stroke-dasharray:none;stroke-opacity:1" d="m477 415 3-7c1-4 3-5 3-5" id="path1774"/>
        <path style="fill:none;stroke:#000;stroke-width:.13229166;stroke-linecap:butt;stroke-linejoin:miter;stroke-miterlimit:4;stroke-dasharray:none;stroke-opacity:1" d="m471 412-3-6" id="path1776"/>
      </g>
    </g>
  </g>
</svg>