<?xml version="1.0" encoding="utf-8"?>
<!-- Generator: Adobe Illustrator 16.0.0, SVG Export Plug-In . SVG Version: 6.00 Build 0) -->
<!DOCTYPE svg PUBLIC "-//W3C//DTD SVG 1.1//EN" "http://www.w3.org/Graphics/SVG/1.1/DTD/svg11.dtd">
<svg author="Provart Lab - Bio Analytic Resource, University of Toronto" license="CCBY4.0" version="1.1" xmlns="http://www.w3.org/2000/svg" xmlns:xlink="http://www.w3.org/1999/xlink" x="0px" y="0px" width="75px"
    height="75px" viewBox="0 0 300 300" enable-background="new 0 0 300 300" xml:space="preserve">
	<g id="shapes">
		<g id="petals">
			<path fill="none" stroke="#000000" stroke-width="1" stroke-miterlimit="10" d="M95.705,131.386c0,0-5.321-12.884,7.562-29.13
                   			c7.002-4.763,20.168-14.847,21.849-15.406c4.48-0.56,15.126-2.8,13.164,1.961c-2.802,3.081-5.042,7.842-15.125,11.203
                   			c-6.163,4.763-15.126,12.884-19.327,21.008C99.907,129.146,97.667,136.147,95.705,131.386z" />
			<path fill="none" stroke="#000000" stroke-width="1" stroke-miterlimit="10" d="M202.704,177.884c0,0,0-12.045,4.201-2.802
                   			c0.562,5.602,2.804,17.367-12.043,33.894c-4.482,4.48-22.69,17.926-28.292,11.203c0.841-3.081,11.765-8.963,23.529-23.248
                   			C198.502,187.127,202.704,181.807,202.704,177.884z" />
			<path fill="none" stroke="#000000" stroke-width="1" stroke-miterlimit="10" d="M97.667,182.366c0,0,0.84-10.085,5.042,0.278
                   			c3.081,7.563,3.923,15.127,23.529,27.171c8.963,5.042,15.966,9.245,11.483,11.205c-5.602,0.279-29.412-0.562-35.573-20.448
                   			C99.066,191.329,97.667,186.289,97.667,182.366z" />
			<path fill="none" stroke="#000000" stroke-width="1" stroke-miterlimit="10" d="M167.411,88.53c0,0-2.8-5.881,5.322-5.602
                   			c6.441,0.84,18.485,3.359,27.449,17.925c1.681,5.604,5.602,16.526,4.202,23.529c-1.681,2.802-4.202,6.724-6.723-3.64
                   			c-3.361-8.124-7.844-15.966-22.688-25.209C169.932,92.172,167.411,88.53,167.411,88.53z" />
		</g>
		<g id="stamen">
			<path fill="none" stroke="#000000" stroke-width="1" stroke-miterlimit="10" d="M139.681,119.341c0,0-4.482,8.123-8.403-0.84
                   			c-1.96-4.202-1.4-10.083,8.684-12.043c2.802,0.279,7.562,0,8.123,11.483C148.084,121.021,145.282,125.783,139.681,119.341z"
			/>
			<path fill="none" stroke="#000000" stroke-width="1" stroke-miterlimit="10" d="M158.729,185.726c0,0,4.202-5.042,7.562,3.361
                   			c0.561,3.642-6.722,17.368-16.246,7.003c-0.841-3.642,0-16.806,6.723-10.924C158.167,186.847,158.729,185.726,158.729,185.726z"
			/>
			<path fill="none" stroke="#000000" stroke-width="1" stroke-miterlimit="10" d="M134.359,187.688c0,0,3.921-6.162,7.282,1.961
                   			c1.121,3.641,1.401,14.564-10.644,10.363c-3.082-1.961-7.003-3.083-3.642-11.766C128.757,186.006,131.279,182.365,134.359,187.688
                   			z" />
			<path fill="none" stroke="#000000" stroke-width="1" stroke-miterlimit="10" d="M196.821,150.994c0,0-6.162-6.723,2.521-10.365
                   			c3.923-0.56,13.445,0.281,12.886,10.365c-0.281,4.48-4.481,14.285-13.165,8.122C196.543,156.876,193.461,155.195,196.821,150.994z
                   			" />
			<path fill="none" stroke="#000000" stroke-width="1" stroke-miterlimit="10" d="M106.349,151.834c0,0,8.404-4.48-1.96-8.962
                   			c-5.322-0.562-14.006-0.84-15.406,10.083c0.281,4.762,1.121,10.924,7.003,11.765c5.321,0.841,14.286,1.119,12.324-7.003
                   			C106.91,154.915,104.947,152.115,106.349,151.834z" />
			<path fill="none" stroke="#000000" stroke-width="1" stroke-miterlimit="10" d="M157.607,119.902c0,0-3.361-9.524,5.042-13.726
                   			c3.921-0.56,12.886,1.682,12.604,12.045c-1.681,3.64-5.602,6.161-10.083,1.119C162.649,122.423,159.569,123.544,157.607,119.902z"
			/>
		</g>
		<g id="sepals">
			<path fill="none" stroke="#000000" stroke-width="1" stroke-miterlimit="10" d="M84.5,82.929c0,0,1.961-7.844,16.247-12.885
                   			c16.245-7.563,36.412-13.443,59.101-14.005c11.205,1.119,26.332,6.721,40.896,14.564c11.484,4.202,23.808,9.243,16.245,14.285
                   			c-5.882-0.279-13.724-6.161-13.724-6.161l-18.768-7.284l-20.168-5.321l-20.448,0.279l-20.446,3.642l-14.847,5.601l-11.203,7.284
                   			l-9.805,3.921C87.581,86.85,82.26,88.811,84.5,82.929z" />
			<path fill="none" stroke="#000000" stroke-width="1" stroke-miterlimit="10" d="M208.307,97.773c0,0-4.763-7.284,4.762-3.642
                   			c6.163,4.763,20.446,17.367,24.369,51.54c-0.56,11.484-1.121,58.824-30.251,61.624c0-2.802,6.722-11.484,12.885-21.848
                   			c5.042-14.285,10.363-20.729,3.081-59.384C219.512,117.661,212.229,103.375,208.307,97.773z" />
			<path fill="none" stroke="#000000" stroke-width="1" stroke-miterlimit="10" d="M86.742,223.82c0,0-8.403-9.243,4.761-7.562
                   			c5.602,2.802,20.726,14.005,32.211,16.807c10.364,2.801,41.177,7.281,58.543-3.643c9.243-5.32,26.049-13.726,34.452-15.125
                   			c2.24,0,4.203-0.279,1.962,4.763c-2.521,4.201-23.809,19.327-49.579,25.769c-20.167,2.802-44.817,5.602-64.984-5.882
                     			C96.545,233.624,86.742,223.82,86.742,223.82z" />
			<path fill="none" stroke="#000000" stroke-width="1" stroke-miterlimit="10" d="M78.618,103.656c0,0,9.803-11.482,12.605-9.522
                     			c0.28,1.959-4.763,14.006-8.403,21.848c-2.8,7.563-9.801,28.011-3.64,53.78c2.8,9.803,8.403,28.01,10.644,32.211
                     			c1.121,2.241,0.28,9.805-8.963-1.4c-6.444-7.562-14.005-18.766-15.126-53.499C65.454,133.628,64.052,125.783,78.618,103.656z"
			/>
		</g>
		<g id="carpels">
			<path fill="none" stroke="#000000" stroke-width="1" stroke-miterlimit="10" d="M126.797,151.834c0,0-3.361-2.8,4.761-8.403
                   			c6.723-5.042,8.403-6.442,17.646-5.042c7.844-0.281,21.569,1.679,23.81,16.246c-0.84,4.201-3.922,16.244-24.09,12.604
                   			C139.681,166.68,127.637,165.279,126.797,151.834z" />
		</g>
	</g>
	<g id="outlines">
		<path fill="none" stroke="#000000" stroke-width="0.5" stroke-miterlimit="10" d="M95.705,131.386c0,0-5.321-12.884,7.562-29.13
                   		c7.002-4.763,20.168-14.847,21.849-15.406c4.48-0.56,15.126-2.8,13.164,1.961c-2.802,3.081-5.042,7.842-15.125,11.203
                   		c-6.163,4.763-15.126,12.884-19.327,21.008C99.907,129.146,97.667,136.147,95.705,131.386z" />
		<path fill="none" stroke="#000000" stroke-width="0.5" stroke-miterlimit="10" d="M202.704,177.884c0,0,0-12.045,4.201-2.802
                   		c0.562,5.602,2.804,17.367-12.043,33.894c-4.482,4.48-22.69,17.926-28.292,11.203c0.841-3.081,11.765-8.963,23.529-23.248
                   		C198.502,187.127,202.704,181.807,202.704,177.884z" />
		<path fill="none" stroke="#000000" stroke-width="0.5" stroke-miterlimit="10" d="M97.667,182.366c0,0,0.84-10.085,5.042,0.278
                   		c3.081,7.563,3.923,15.127,23.529,27.171c8.963,5.042,15.966,9.245,11.483,11.205c-5.602,0.279-29.412-0.562-35.573-20.448
                   		C99.066,191.329,97.667,186.289,97.667,182.366z" />
		<path fill="none" stroke="#000000" stroke-width="0.5" stroke-miterlimit="10" d="M167.411,88.53c0,0-2.8-5.881,5.322-5.602
                   		c6.441,0.84,18.485,3.359,27.449,17.925c1.681,5.604,5.602,16.526,4.202,23.529c-1.681,2.802-4.202,6.724-6.723-3.64
                   		c-3.361-8.124-7.844-15.966-22.688-25.209C169.932,92.172,167.411,88.53,167.411,88.53z" />
		<path fill="none" stroke="#000000" stroke-width="0.5" stroke-miterlimit="10" d="M139.681,119.341c0,0-4.482,8.123-8.403-0.84
                   		c-1.96-4.202-1.4-10.083,8.684-12.043c2.802,0.279,7.562,0,8.123,11.483C148.084,121.021,145.282,125.783,139.681,119.341z"
		/>
		<path fill="none" stroke="#000000" stroke-width="0.5" stroke-miterlimit="10" d="M158.729,185.726c0,0,4.202-5.042,7.562,3.361
                   		c0.561,3.642-6.722,17.368-16.246,7.003c-0.841-3.642,0-16.806,6.723-10.924C158.167,186.847,158.729,185.726,158.729,185.726z"
		/>
		<path fill="none" stroke="#000000" stroke-width="0.5" stroke-miterlimit="10" d="M134.359,187.688c0,0,3.921-6.162,7.282,1.961
                   		c1.121,3.641,1.401,14.564-10.644,10.363c-3.082-1.961-7.003-3.083-3.642-11.766C128.757,186.006,131.279,182.365,134.359,187.688z
                   		" />
		<path fill="none" stroke="#000000" stroke-width="0.5" stroke-miterlimit="10" d="M196.821,150.994c0,0-6.162-6.723,2.521-10.365
                   		c3.923-0.56,13.445,0.281,12.886,10.365c-0.281,4.48-4.481,14.285-13.165,8.122C196.543,156.876,193.461,155.195,196.821,150.994z"
		/>
		<path fill="none" stroke="#000000" stroke-width="0.5" stroke-miterlimit="10" d="M106.349,151.834c0,0,8.404-4.48-1.96-8.962
                   		c-5.322-0.562-14.006-0.84-15.406,10.083c0.281,4.762,1.121,10.924,7.003,11.765c5.321,0.841,14.286,1.119,12.324-7.003
                   		C106.91,154.915,104.947,152.115,106.349,151.834z" />
		<path fill="none" stroke="#000000" stroke-width="0.5" stroke-miterlimit="10" d="M157.607,119.902c0,0-3.361-9.524,5.042-13.726
                   		c3.921-0.56,12.886,1.682,12.604,12.045c-1.681,3.64-5.602,6.161-10.083,1.119C162.649,122.423,159.569,123.544,157.607,119.902z"
		/>
		<path fill="none" stroke="#000000" stroke-width="0.5" stroke-miterlimit="10" d="M84.5,82.929c0,0,1.961-7.844,16.247-12.885
                   		c16.245-7.563,36.412-13.443,59.101-14.005c11.205,1.119,26.332,6.721,40.896,14.564c11.484,4.202,23.808,9.243,16.245,14.285
                   		c-5.882-0.279-13.724-6.161-13.724-6.161l-18.768-7.284l-20.168-5.321l-20.448,0.279l-20.446,3.642l-14.847,5.601l-11.203,7.284
                   		l-9.805,3.921C87.581,86.85,82.26,88.811,84.5,82.929z" />
		<path fill="none" stroke="#000000" stroke-width="0.5" stroke-miterlimit="10" d="M208.307,97.773c0,0-4.763-7.284,4.762-3.642
                   		c6.163,4.763,20.446,17.367,24.369,51.54c-0.56,11.484-1.121,58.824-30.251,61.624c0-2.802,6.722-11.484,12.885-21.848
                   		c5.042-14.285,10.363-20.729,3.081-59.384C219.512,117.661,212.229,103.375,208.307,97.773z" />
		<path fill="none" stroke="#000000" stroke-width="0.5" stroke-miterlimit="10" d="M86.742,223.82c0,0-8.403-9.243,4.761-7.562
                   		c5.602,2.802,20.726,14.005,32.211,16.807c10.364,2.801,41.177,7.281,58.543-3.643c9.243-5.32,26.049-13.726,34.452-15.125
                   		c2.24,0,4.203-0.279,1.962,4.763c-2.521,4.201-23.809,19.327-49.579,25.769c-20.167,2.802-44.817,5.602-64.984-5.882
                   		C96.545,233.624,86.742,223.82,86.742,223.82z" />
		<path fill="none" stroke="#000000" stroke-width="0.5" stroke-miterlimit="10" d="M78.618,103.656c0,0,9.803-11.482,12.605-9.522
                   		c0.28,1.959-4.763,14.006-8.403,21.848c-2.8,7.563-9.801,28.011-3.64,53.78c2.8,9.803,8.403,28.01,10.644,32.211
                   		c1.121,2.241,0.28,9.805-8.963-1.4c-6.444-7.562-14.005-18.766-15.126-53.499C65.454,133.628,64.052,125.783,78.618,103.656z"
		/>
		<path fill="none" stroke="#000000" stroke-width="0.5" stroke-miterlimit="10" d="M126.797,151.834c0,0-3.361-2.8,4.761-8.403
                   		c6.723-5.042,8.403-6.442,17.646-5.042c7.844-0.281,21.569,1.679,23.81,16.246c-0.84,4.201-3.922,16.244-24.09,12.604
                   		C139.681,166.68,127.637,165.279,126.797,151.834z" />
		<path fill="none" stroke="#000000" stroke-width="0.5" stroke-miterlimit="10" d="M141.933,107.718c0.006,0,0.013,0,0.02,0
                   		c3.901,0,5.006,7.243,5.178,8.697c0.318,2.58-0.099,3.479-2.023,4.377c-0.934,0.428-0.962,0.43-2.035-0.218
                   		c-0.265-0.176-0.555-0.317-0.824-0.457c-0.858-0.423-0.986-0.543-1.022-0.914l-0.129,0.015c0.456-1.144,0.766-2.473,0.643-3.521
                   		c-0.118-1.088-0.664-1.638-1.09-1.909l-1.442,2.035c0.312,0.621-0.567,3.206-1.179,3.819c-1.025,1.052-3.402,2.178-4.444,1.507
                   		c-0.811-0.525-1.592-3.235-1.856-4.126l-0.078-0.269c-0.563-1.93-0.369-4.161,0.473-5.406c1.03-1.523,2.263-2.667,3.143-2.915
                   		C137.544,107.798,139.72,107.732,141.933,107.718z" />
		<path fill="none" stroke="#000000" stroke-width="0.5" stroke-miterlimit="10" d="M157.749,115.704
                   		c0.005-2.05,0.576-3.665,1.912-5.405c1.585-2.066,3.645-2.837,5.655-2.837c1.367,0,2.71,0.353,3.867,0.895
                   		c2.935,1.374,5.217,6.801,4.835,10.005c-0.176,1.558-1.943,2.514-3.493,2.514c-0.008,0-0.016,0-0.024,0
                   		c-1.346-0.008-1.797-0.01-2.682-0.638c-0.43-0.311-0.56-0.404-0.694-0.665c-0.021-0.034-0.058-0.167-0.084-0.252
                   		c-0.07-0.246-0.182-0.642-0.456-1.014c0.468-1.546,0.528-3.276-0.422-4.51l-1.995,1.54c0.599,0.786-0.112,3.25-1.037,4.26
                   		c-0.604,0.66-1.784,1.364-2.77,1.38c-0.523,0.002-0.797-0.19-0.943-0.348C158.331,119.533,157.745,117.268,157.749,115.704z"
		/>
		<path fill="none" stroke="#000000" stroke-width="0.5" stroke-miterlimit="10" d="M200.93,149.791l-1.41,0.44
                   		c-1.09,0.115-2.122-0.371-2.771-1.344c-0.685-1.013-0.632-3.537,0.097-4.733c1.324-2.185,3.957-2.511,5.413-2.511
                   		c1.488,0,3.108,0.333,4.442,0.922c3.581,1.559,5.261,6.678,4.316,10.043c-0.911,3.219-4.172,8.066-8.141,7.514
                   		c-1.618-0.231-2.985-1.55-4.314-2.823l-0.284-0.272c-0.849-0.805-1.009-0.953-1.025-1.854l-0.023-0.413
                   		c-0.013-0.211-0.039-0.604,0.036-0.737c0.135-0.13,0.332-0.315,0.509-0.595l2.286-0.723l0.007-0.004" />
		<path fill="none" stroke="#000000" stroke-width="0.5" stroke-miterlimit="10" d="M95.981,144.766
                   		c1.045-0.511,2.508-0.78,4.231-0.78c0.685,0,1.379,0.042,2.066,0.128l0.333,0.035c1.746,0.211,3.396,0.414,4.394,1.577
                   		c1.143,1.298,0.86,2.861,0.414,3.936c-0.506,1.251-1.743,1.471-4.152,1.471l-0.246,2.496l1.5,0.296
                   		c0.962,0.115,1.772,1.731,2.309,2.798l0.081,0.159c0.883,1.752,0.875,3.088-0.026,4.609c-1.01,1.686-3.122,2.504-6.479,2.504
                   		c-0.002,0-0.002,0-0.002,0c-1.487,0-2.976-0.169-4.262-0.316c-3.571-0.42-4.788-4.591-5.639-8.482
                   		C89.649,151.409,92.164,146.63,95.981,144.766z" />
		<path fill="none" stroke="#000000" stroke-width="0.5" stroke-miterlimit="10" d="M149.907,153.242
                   		c0-2.525,0.141-5.063,0.278-7.517 M147.903,139.525c-0.035,2.037-0.127,4.075-0.245,6.058c-0.14,2.484-0.282,5.062-0.282,7.657
                   		c0,4.879,0.026,9.076,0.2,13.293" />
		<path fill="none" stroke="#000000" stroke-width="0.5" stroke-miterlimit="10" d="M151.02,192.965l0.009-0.809
                   		c0-1.806,0-4.537,1.144-5.799c0.588-0.64,1.169-0.965,1.748-0.965c0.752,0,1.436,0.545,1.989,1.119
                   		c0.422,0.445,0.771,0.807,1.019,1.203l0.265,3.711l2.518-0.074c0.004-0.348,0.051-0.664,0.096-0.971
                   		c0.104-0.729,0.225-1.551-0.079-2.548c-0.029-0.099-0.061-0.195-0.094-0.287l0.034-0.053l-0.08-0.152
                   		c0.106-0.359,0.137-0.708,0.169-0.995c0.014-0.17,0.035-0.408,0.038-0.455c0.215-0.303,0.7-0.349,0.972-0.349
                   		c0.116,0,0.231,0.015,0.345,0.031c1.103,0.132,2.555,0.704,2.884,1.31c0.863,1.596,1.273,3.84,1.057,5.719
                   		c-0.146,1.26-0.983,2.355-2.797,3.674c-1.575,1.137-4.146,2.346-6.621,2.346c-1.39,0-2.554-0.385-3.433-1.156
                   		C151.031,196.446,150.992,195.092,151.02,192.965z" />
		<path fill="none" stroke="#000000" stroke-width="0.5" stroke-miterlimit="10" d="M140.532,197.477
                   		c-0.681,1.297-3.115,2.195-5.175,2.4c-1.802,0.17-4.264-0.855-5.741-1.724c-3.745-2.201-1.522-8.128-0.752-9.892
                   		c0.32-0.735,1.458-1.627,2.396-1.627c0.26,0,0.466,0.078,0.651,0.24c0.455,0.418,0.571,1.285,0.643,2.058
                   		c0.035,0.341-0.047,0.762-0.137,1.206c-0.108,0.596-0.244,1.275-0.131,1.969l2.482,0.054l0.783-3.65
                   		c0.297-0.429,0.455-0.812,0.573-1.107c0.179-0.443,0.21-0.526,0.705-0.737c0.294-0.118,0.555-0.182,0.774-0.182
                   		c0.219,0,0.527,0.044,0.971,0.454C140.831,189.007,141.919,194.821,140.532,197.477z" />
	</g>
</svg>