<svg xmlns="http://www.w3.org/2000/svg" width="75" height="75" viewBox="0 0 22 44" version="1.1" id="svg8828" license="CCBY4.0" author="Provart Lab - Bio Analytic Resource, University of Toronto">
  <g id="layer1" transform="translate(0 -253)">
    <g transform="translate(-575 -132)" id="F4" style="stroke-width:.13229166;stroke-miterlimit:4;stroke-dasharray:none">
      <g id="flowerDevelopmentPart4" transform="translate(540 450) scale(.26458)" style="stroke-width:.5;stroke-miterlimit:4;stroke-dasharray:none">
        <path fill="none" style="fill-opacity:1;stroke:none;stroke-width:.5;stroke-miterlimit:4;stroke-dasharray:none;stroke-opacity:1" d="m158-236 12-4c9 0 20 2 24 11 8 17 16 34 13 53 0 20 1 42-9 61-4 7-5 18-8 26-7 0-15-2-21 0l-4 1c-3-4-2-13-5-16 4-3-6-1-7-5-18-13-14-40-16-61 0-18 4-37 12-54l8-10" id="path7814-9"/>
      </g>
      <g id="g12168" style="stroke-width:.13229166;stroke-miterlimit:4;stroke-dasharray:none">
        <path style="fill:none;stroke:#000;stroke-width:.13229166;stroke-linecap:butt;stroke-linejoin:miter;stroke-miterlimit:4;stroke-dasharray:none;stroke-opacity:1" d="M592 392c2 12-2 27-2 27-3 3-6 2-6 2s-5-14-2-31" id="path1873"/>
        <path style="fill:none;stroke:#000;stroke-width:.13229166;stroke-linecap:butt;stroke-linejoin:miter;stroke-miterlimit:4;stroke-dasharray:none;stroke-opacity:1" d="M595 401s-3-19-16-9" id="path1877"/>
        <path style="fill:none;stroke:#000;stroke-width:.13229166;stroke-linecap:butt;stroke-linejoin:miter;stroke-miterlimit:4;stroke-dasharray:none;stroke-opacity:1" d="m584 421-1 2" id="path1881"/>
        <path style="fill:none;stroke:#000;stroke-width:.13229166;stroke-linecap:butt;stroke-linejoin:miter;stroke-miterlimit:4;stroke-dasharray:none;stroke-opacity:1" d="M590 419s0 2 2 2" id="path1883"/>
      </g>
    </g>
    <path style="fill:none;stroke:#000;stroke-width:.1;stroke-linecap:butt;stroke-linejoin:miter;stroke-opacity:1;stroke-miterlimit:4;stroke-dasharray:none" d="M8 290a2 2 0 0 1 1 1 5 5 0 0 1 0 1 25 25 0 0 0 0 2h2a4 4 0 0 1 1 0h4a17 17 0 0 0 1-2v-2a39 39 0 0 1 0-1h1v-1a7 7 0 0 1 0-1l1-1a18 18 0 0 0 1-3 16 16 0 0 0 0-3 68 68 0 0 0 0-6v-3h1v-1a14 14 0 0 0 0-1v-1a13 13 0 0 0 0-1h-1v-1a22 22 0 0 0-2-6 68 68 0 0 0-2-4 9 9 0 0 0-1-1 6 6 0 0 0-2-1 12 12 0 0 0-2 0h-1a17 17 0 0 0-3 1v1a83 83 0 0 1-2 2v1a24 24 0 0 0-1 1v1a30 30 0 0 0-2 8 30 30 0 0 0 0 3v1a45 45 0 0 1 0 2v2a81 81 0 0 0 0 3v1a17 17 0 0 0 2 6 11 11 0 0 0 2 1 9 9 0 0 0 0 1 1 1 0 0 0 1 0 2 2 0 0 0 0 1 8 8 0 0 0 1 0" id="path9470"/>
  </g>
</svg>