<svg xmlns="http://www.w3.org/2000/svg" width="75" height="75" viewBox="0 0 43 48" version="1.1" id="svg10785" license="CCBY4.0" author="Provart Lab - Bio Analytic Resource, University of Toronto">
  <g id="layer1" transform="translate(0 -249)">
    <g transform="translate(-616 -325)" id="F9-11" style="stroke-width:.13229166;stroke-miterlimit:4;stroke-dasharray:none">
      <g id="flowerDevelopmentPart9" transform="translate(447 548) scale(.34073)" fill="none" style="stroke-width:.3882634;stroke-miterlimit:4;stroke-dasharray:none">
        <path style="fill-opacity:1;stroke-width:.3882634;stroke-miterlimit:4;stroke-dasharray:none" d="M518 142c-6-2-17-8-11-16-3-1-6-9-5-15 4-7 11-15 13-21-3-6 8-8 12-13 14-5 21 13 17 24-3 9-1 25-12 32-4 2-7-1-8 5-2 2-4 4-6 4z" id="path7890-5"/>
        <path style="fill-opacity:1;stroke-width:.3882634;stroke-miterlimit:4;stroke-dasharray:none" d="M557 208c-3-2-8-3-10-6 2-7-4-11-5-16-4-10-10-23-4-34 2-3 7-3 7-8 5-9 21-6 25 4 6 11 6 26-1 36-2 9-9 11-10 19 0 1 0 5-2 5z" id="path7912-7"/>
        <path style="fill-opacity:1;stroke-width:.3882634;stroke-miterlimit:4;stroke-dasharray:none" d="M598 144c-7 0-11-2-9-9-2-5-3-9-7-11-5-8-5-20 0-27 4-2 8-3 12-7 7-2 18-3 20 7 3 4 9 6 7 13 0 10-8 19-17 22-5 4 0 12-6 12z" id="path7902-6"/>
      </g>
      <g id="g12361" style="stroke-width:.13229166;stroke-miterlimit:4;stroke-dasharray:none" transform="translate(-57 188)">
        <g id="g12338" style="stroke-width:.13229166;stroke-miterlimit:4;stroke-dasharray:none">
          <path id="path12184" d="M679 391s7-2 10 4" style="fill:none;stroke:#000;stroke-width:.13229166;stroke-linecap:butt;stroke-linejoin:miter;stroke-miterlimit:4;stroke-dasharray:none;stroke-opacity:1"/>
          <path id="path12188" d="m686 392 1 1c0 10-6 12-6 12l-4-1c-2-6 5-12 5-12l2-1" style="fill:none;stroke:#000;stroke-width:.13229166;stroke-linecap:butt;stroke-linejoin:miter;stroke-miterlimit:4;stroke-dasharray:none;stroke-opacity:1"/>
          <path id="path12190" d="m683 406-2-1" style="fill:none;stroke:#000;stroke-width:.13229166;stroke-linecap:butt;stroke-linejoin:miter;stroke-miterlimit:4;stroke-dasharray:none;stroke-opacity:1"/>
          <path id="path12192" d="m676 403 1 1" style="fill:none;stroke:#000;stroke-width:.13229166;stroke-linecap:butt;stroke-linejoin:miter;stroke-miterlimit:4;stroke-dasharray:none;stroke-opacity:1"/>
        </g>
        <g id="g12343" style="stroke-width:.13229166;stroke-miterlimit:4;stroke-dasharray:none">
          <path id="path12194" d="M689 410s8 5 9 12" style="fill:none;stroke:#000;stroke-width:.13229166;stroke-linecap:butt;stroke-linejoin:miter;stroke-miterlimit:4;stroke-dasharray:none;stroke-opacity:1"/>
          <path id="path12196" d="M693 413s-2 4-1 12c0 0-1 1-3-1" style="fill:none;stroke:#000;stroke-width:.13229166;stroke-linecap:butt;stroke-linejoin:miter;stroke-miterlimit:4;stroke-dasharray:none;stroke-opacity:1"/>
          <path id="path12198" d="M692 425s1 3 3 2" style="fill:none;stroke:#000;stroke-width:.13229166;stroke-linecap:butt;stroke-linejoin:miter;stroke-miterlimit:4;stroke-dasharray:none;stroke-opacity:1"/>
        </g>
        <g id="g12218" style="stroke-width:.13229166;stroke-miterlimit:4;stroke-dasharray:none">
          <path id="path12200" d="M703 393h4c2-1 3 1 3 1l4 1" style="fill:none;stroke:#000;stroke-width:.13229166;stroke-linecap:butt;stroke-linejoin:miter;stroke-miterlimit:4;stroke-dasharray:none;stroke-opacity:1"/>
          <path id="path12202" d="M704 405s-4-4 3-11h3s2 10-1 11h-5z" style="fill:none;stroke:#000;stroke-width:.13229166;stroke-linecap:butt;stroke-linejoin:miter;stroke-miterlimit:4;stroke-dasharray:none;stroke-opacity:1"/>
          <path id="path12204" d="M707 394v-1" style="fill:none;stroke:#000;stroke-width:.13229166;stroke-linecap:butt;stroke-linejoin:miter;stroke-miterlimit:4;stroke-dasharray:none;stroke-opacity:1"/>
          <path id="path12208" d="m703 403 1 2" style="fill:none;stroke:#000;stroke-width:.13229166;stroke-linecap:butt;stroke-linejoin:miter;stroke-miterlimit:4;stroke-dasharray:none;stroke-opacity:1"/>
          <path id="path12210" d="M708 405h2" style="fill:none;stroke:#000;stroke-width:.13229166;stroke-linecap:butt;stroke-linejoin:miter;stroke-miterlimit:4;stroke-dasharray:none;stroke-opacity:1"/>
        </g>
      </g>
      <path style="fill:none;stroke:#000;stroke-width:.1;stroke-linecap:butt;stroke-linejoin:miter;stroke-opacity:1;stroke-miterlimit:4;stroke-dasharray:none" d="M633 598h-1a1 1 0 0 1 0 1h-1a7 7 0 0 0 0 1 2 2 0 0 0-1 0 6 6 0 0 0 0 2 6 6 0 0 0-1 2 11 11 0 0 0 1 3 21 21 0 0 0 1 4l1 1v1l1 1a6 6 0 0 1 0 2 4 4 0 0 1 0 1h1a3 3 0 0 0 0 1 4 4 0 0 0 1 1h2a2 2 0 0 0 0-1 3 3 0 0 1 1-1 4 4 0 0 1 0-1v-1h1a44 44 0 0 0 1-3 4 4 0 0 0 1 0v-2a11 11 0 0 0 2-5 15 15 0 0 0-1-4 13 13 0 0 0-1-2 6 6 0 0 0-1-2 4 4 0 0 0-1 0 5 5 0 0 0-1-1 9 9 0 0 0-1 0 6 6 0 0 0-2 0 4 4 0 0 0-1 0 4 4 0 0 0-1 0 3 3 0 0 0 0 1v1" id="path10835"/>
      <path style="fill:none;stroke:#000;stroke-width:.1;stroke-linecap:butt;stroke-linejoin:miter;stroke-opacity:1;stroke-miterlimit:4;stroke-dasharray:none" d="M620 591v1a4 4 0 0 0-1 0 3 3 0 0 0 0 1 3 3 0 0 0 0 1 3 3 0 0 0 1 0 3 3 0 0 0 0 1 6 6 0 0 0 2 1 11 11 0 0 0 1 1h1a3 3 0 0 0 1-1l1-1a1 1 0 0 1 0-1h1a7 7 0 0 0 1 0 2 2 0 0 0 1-1 8 8 0 0 0 1 0 8 8 0 0 0 1-2 7 7 0 0 0 0-2 18 18 0 0 0 1-3v-1a21 21 0 0 1 0-2v-1a6 6 0 0 0 1-1 10 10 0 0 0-1-2 12 12 0 0 0 0-2 8 8 0 0 0-1-1 5 5 0 0 0-1-1 4 4 0 0 0-2-1l-1 1a7 7 0 0 0-1 0 7 7 0 0 1-1 1h-1a26 26 0 0 0-1 2 2 2 0 0 0-1 0v1a13 13 0 0 1-1 3l-1 2a43 43 0 0 0-2 3 6 6 0 0 0 0 2 6 6 0 0 0 1 2 3 3 0 0 0 1 0z" id="path11390"/>
      <path style="fill:none;stroke:#000;stroke-width:.1;stroke-linecap:butt;stroke-linejoin:miter;stroke-opacity:1;stroke-miterlimit:4;stroke-dasharray:none" d="M646 592a4 4 0 0 1 1 0 7 7 0 0 1 0 2v1a7 7 0 0 0 0 1 2 2 0 0 0 1 0 2 2 0 0 0 0 1h1a4 4 0 0 0 0 1 6 6 0 0 0 2 0v-1a1 1 0 0 0 1 0v-2a3 3 0 0 1 0-1h1v-1a20 20 0 0 0 2-1 8 8 0 0 0 1-1 7 7 0 0 0 1-1 7 7 0 0 0 1-4h1a4 4 0 0 0 0-1l-1-1a3 3 0 0 0 0-1h-1v-1h-1v-1a4 4 0 0 0 0-1 3 3 0 0 0-1-1 4 4 0 0 0-2 0 6 6 0 0 0-2 0 6 6 0 0 0-1 0h-1a7 7 0 0 1-1 1 12 12 0 0 1-2 1h-1v1a8 8 0 0 0-1 2 11 11 0 0 0 0 2v1a8 8 0 0 0 0 2 7 7 0 0 0 1 2 3 3 0 0 1 1 0v1z" id="path11394"/>
    </g>
  </g>
</svg>