<svg xmlns="http://www.w3.org/2000/svg" width="75" height="75" viewBox="0 0 300 300" xml:space="preserve" license="CCBY4.0" author="Provart Lab - Bio Analytic Resource, University of Toronto">
  <g id="shapes" fill="none" stroke="#000" stroke-miterlimit="10">
    <path d="M96 131s-6-12 7-29c7-5 20-15 22-15 5-1 15-3 13 2-3 3-5 8-15 11-6 5-15 13-19 21s-6 15-8 10zm107 47s0-12 4-3c0 6 3 17-12 34-5 4-23 18-28 11 0-3 11-9 23-23 9-10 13-15 13-19zm-105 4s1-10 5 1c3 7 4 15 23 27 9 5 16 9 12 11-6 0-30-1-36-20l-4-19zm69-93s-2-6 6-6c6 1 18 3 27 18 2 5 6 16 4 23-1 3-4 7-6-3-4-8-8-16-23-25l-8-7z" id="petals"/>
    <path d="M140 119s-5 8-9 0c-2-5-1-11 9-13 3 1 8 0 8 12 0 3-3 8-8 1zm19 67s4-5 7 3c1 4-6 17-16 7-1-4 0-17 7-11 1 2 2 1 2 1zm-25 2s4-6 8 2c1 3 1 14-11 10-3-2-7-3-4-12 2-2 4-6 7 0zm63-37s-6-7 2-10c4-1 14 0 13 10 0 4-4 14-13 8-2-2-6-4-2-8zm-91 1s9-5-2-9c-5-1-14-1-15 10 0 5 1 11 7 12 5 1 14 1 12-7l-2-6zm52-32s-4-10 5-14c4 0 13 2 12 12-1 4-5 6-10 1-2 3-5 5-7 1z" id="stamen"/>
    <path d="M85 83s1-8 16-13c16-8 36-13 59-14 11 1 26 7 41 15 11 4 24 9 16 14-6 0-14-6-14-6l-19-8-20-5h-20l-21 4-14 6-12 7-9 4s-6 2-3-4zm123 15s-4-8 5-4c6 5 21 17 24 52 0 11-1 58-30 61 0-3 7-11 13-22 5-14 10-20 3-59-3-8-11-23-15-28zM87 224s-9-9 5-8c5 3 20 14 32 17 10 3 41 7 58-4 10-5 26-13 35-15 2 0 4 0 2 5-3 4-24 19-50 26-20 3-45 5-65-6l-17-15zm-8-120s9-12 12-10c1 2-5 14-8 22s-10 28-4 54l11 32c1 2 0 10-9-1-7-8-14-19-15-54-1-13-2-21 13-43z" id="sepals"/>
    <path d="M127 152s-4-3 5-9c6-5 8-6 17-5 8 0 22 2 24 17-1 4-4 16-24 12-9 0-21-2-22-15z" id="carpels"/>
  </g>
  <g id="outlines" fill="none" stroke="#000" stroke-width=".5" stroke-miterlimit="10">
    <path d="M96 131s-6-12 7-29c7-5 20-15 22-15 5-1 15-3 13 2-3 3-5 8-15 11-6 5-15 13-19 21s-6 15-8 10zm107 47s0-12 4-3c0 6 3 17-12 34-5 4-23 18-28 11 0-3 11-9 23-23 9-10 13-15 13-19zm-105 4s1-10 5 1c3 7 4 15 23 27 9 5 16 9 12 11-6 0-30-1-36-20l-4-19zm69-93s-2-6 6-6c6 1 18 3 27 18 2 5 6 16 4 23-1 3-4 7-6-3-4-8-8-16-23-25l-8-7zm-27 30s-5 8-9 0c-2-5-1-11 9-13 3 1 8 0 8 12 0 3-3 8-8 1zm19 67s4-5 7 3c1 4-6 17-16 7-1-4 0-17 7-11 1 2 2 1 2 1zm-25 2s4-6 8 2c1 3 1 14-11 10-3-2-7-3-4-12 2-2 4-6 7 0zm63-37s-6-7 2-10c4-1 14 0 13 10 0 4-4 14-13 8-2-2-6-4-2-8zm-91 1s9-5-2-9c-5-1-14-1-15 10 0 5 1 11 7 12 5 1 14 1 12-7l-2-6zm52-32s-4-10 5-14c4 0 13 2 12 12-1 4-5 6-10 1-2 3-5 5-7 1z"/>
    <path d="M85 83s1-8 16-13c16-8 36-13 59-14 11 1 26 7 41 15 11 4 24 9 16 14-6 0-14-6-14-6l-19-8-20-5h-20l-21 4-14 6-12 7-9 4s-6 2-3-4zm123 15s-4-8 5-4c6 5 21 17 24 52 0 11-1 58-30 61 0-3 7-11 13-22 5-14 10-20 3-59-3-8-11-23-15-28zM87 224s-9-9 5-8c5 3 20 14 32 17 10 3 41 7 58-4 10-5 26-13 35-15 2 0 4 0 2 5-3 4-24 19-50 26-20 3-45 5-65-6l-17-15zm-8-120s9-12 12-10c1 2-5 14-8 22s-10 28-4 54l11 32c1 2 0 10-9-1-7-8-14-19-15-54-1-13-2-21 13-43zm48 48s-4-3 5-9c6-5 8-6 17-5 8 0 22 2 24 17-1 4-4 16-24 12-9 0-21-2-22-15zm15-44c4 0 5 7 5 8 0 3 0 4-2 5h-2l-1-1-1-1 1-3-1-2-2 2-1 4c-1 1-3 2-4 1l-2-4v-6l3-3h7zm16 8c0-2 0-4 2-6 1-2 3-3 5-3l4 1c3 2 5 7 5 10 0 2-2 3-3 3l-3-1h-1v-2l-1-4-2 1c1 1 0 4-1 5l-3 1h-1l-1-5z"/>
    <path d="M201 150h-1l-3-1v-5c1-2 4-2 5-2l5 1c3 1 5 6 4 10-1 3-4 8-8 7-2 0-3-1-4-3h-1l-1-2v-1l1-1h2m-104-8 4-1h3l4 2v4l-4 1v3h2l2 3v4c-1 2-3 3-7 3h-4c-3-1-5-5-5-9-1-4 1-8 5-10zm54 8v-7m-2-6a144 144 0 0 1-1 13l1 14m3 26v-1l1-6 2-1 2 2 1 1v3h3v-5h1l3 1 1 6-3 3-6 3-4-2-1-4zm-10 4c-1 2-4 3-6 3l-5-2c-4-2-2-8-1-10l2-1h1l1 2-1 1v2h3l1-3v-2h1l1-1 1 1c2 2 3 8 2 10z"/>
  </g>
</svg>