<svg xmlns="http://www.w3.org/2000/svg" viewBox="0 0 43 48" id="svg10785"><g id="layer1" transform="translate(0 -249)"><g transform="translate(-616.35214 -324.77534)" id="F9-11" stroke-width=".13229166"><g id="flowerDevelopmentPart9" transform="matrix(.34073 0 0 .34073 446.94048 548.48785)" fill="none" stroke-width=".3882634"><path d="M517.73139 142.25129c-5.9603-2.21588-16.4752-8.33931-10.4344-16.52219-3.1252-1.20245-6.5126-8.54009-5.0839-14.37151 3.4558-6.94954 10.6617-15.118529 12.8631-21.844279-3.1473-5.55254 8.3858-7.6856 11.6167-12.42546 13.8279-5.2245 21.0453 13.27968 17.0246 23.580899-2.4289 9.58615-.6065 25.10458-11.4115 32.03122-4.502 2.23478-7.424-.32497-8.0715 5.2182-1.8 2.20952-4.6394 4.38599-6.5031 4.33312z" id="path7890-5"/><path d="M557.40879 207.5749c-2.9609-1.2596-8.4476-2.45029-10.1315-5.80189 1.324-6.65668-3.8439-10.90202-4.9787-15.77251-4.6642-10.3586-10.0444-22.98759-4.1196-34.09574 1.7466-3.35355 7.312-3.37877 6.7612-8.393 5.3692-8.9259 21.3746-5.31942 25.0074 4.49176 6.172 11.0996 5.8645 25.85712-.979 36.43319-1.6365 8.30341-8.6214 10.61608-9.7465 18.39711-.1766.85281-.087 4.81348-1.8133 4.74108z" id="path7912-7"/><path d="M597.91275 144.20523c-7.1168.24042-11.1296-2.38525-9.2978-9.53833-1.398-4.37159-2.6679-8.90296-6.9065-10.98139-5.013-7.67124-4.291-19.46486.1562-26.932234 4.5102-2.00088 8.5102-3.0811 12.4249-6.425475 6.9251-2.33984 18.1044-3.00561 19.3918 6.885385 3.1868 3.673584 8.8476 6.165534 7.264 12.538924.058 10.53383-7.7328 18.80885-16.4728 22.7329-5.0096 3.40807-.015 11.94572-6.5598 11.72022z" id="path7902-6"/></g><g id="g12361" transform="translate(-56.696429 188.23214)"><g id="g12338"><path id="path12184" d="M679.13715 390.75529s6.57085-1.71201 9.75878 3.80095" fill="none" stroke="#000"/><path id="path12188" d="M685.77351 391.53596c.74835.56127.74835 1.73057.74835 1.73057.23386 9.30767-5.56589 11.55273-5.56589 11.55273-2.8531.3274-3.5079-1.21607-3.5079-1.21607-2.59371-5.12133 4.58366-11.78659 4.58366-11.78659s.23387-.93545 1.59026-1.02899" fill="none" stroke="#000"/><path id="path12190" d="M682.78009 405.94179s-1.40316.18709-1.82412-1.12252" fill="none" stroke="#000"/><path id="path12192" d="M676.4865 403.09495s.0729.6018.96157.50824" fill="none" stroke="#000"/></g><g id="g12343"><path id="path12194" d="M689.23957 409.85879s8.00365 4.7625 8.59896 12.50156" fill="none" stroke="#000"/><path id="path12196" d="M692.8776 412.9015s-2.00592 3.75113-1.21079 12.40398c0 0-.70159.46771-2.99343-.84191" fill="none" stroke="#000"/><path id="path12198" d="M691.66681 425.30548s1.07577 3.08695 3.27406 1.91765" fill="none" stroke="#000"/></g><g id="g12218"><path id="path12200" d="M703.03244 392.61171s1.1267-.56375 1.87089.0936c0 0 .93544.84185 1.77734.28059 2.10474-.8419 3.55468.8419 3.55468.8419s1.49671 1.40316 4.06918 1.07576" fill="none" stroke="#000"/><path id="path12202" d="M704.49794 404.68811s-4.1315-3.98481 2.5569-10.48612c0 0 .37418-1.44995 1.02899-.65483 0 0 .65481-.37417.93544.14032 0 0 1.18922.30894 1.01556.76251 0 0 2.16495 9.29351-1.15587 10.88376 0 0-2.26071.7667-4.38102-.64564z" fill="none" stroke="#000"/><path id="path12204" d="M707.05484 394.20199l.42096-1.30964" fill="none" stroke="#000"/><path id="path12206" d="M710.03485 394.44998l.2005-.62216" fill="none" stroke="#000"/><path id="path12208" d="M703.03244 403.4161l1.4655 1.27201" fill="none" stroke="#000"/><path id="path12210" d="M708.3177 405.47406l1.27907-.0772" fill="none" stroke="#000"/></g></g><path d="M632.54314 598.09093c-.006.0343-.0111.069-.0271.11545-.016.0465-.0421.10377-.0777.16445-.0356.0607-.08.12338-.12877.18139-.0488.058-.10107.11031-.16698.16964-.0659.0593-.14439.12473-.22736.18927-.083.0646-.16941.12741-.26687.19195-.0975.0645-.20487.13004-.28645.18134-.0816.0513-.13667.088-.21847.14345-.0818.0554-.18898.12861-.28507.20493-.0961.0763-.18.155-.25111.2274-.0711.0724-.12873.1379-.18145.21299-.0527.0751-.0998.15888-.15123.25768-.0514.0988-.10637.21142-.16695.34705-.0606.13562-.12612.29291-.19324.47321-.0671.1803-.13534.38233-.19192.57835-.0566.19603-.1012.38502-.13937.58369-.0382.19868-.0697.40604-.0947.61653-.025.21049-.0434.42315-.0513.67311-.008.24997-.005.53617.007.79394.0118.25776.0329.48628.0684.75989.0355.27361.0854.5914.13932.88202.0539.29062.11171.55335.18799.84926.0763.29591.17085.6243.25238.8886.0815.26429.14983.46398.24452.73097.0947.26699.21555.60062.36676.98326.15121.38264.33254.81363.50642 1.21719.17387.40356.34011.77927.42952.99354.0894.21427.10189.26692.11737.31574.0155.0488.0338.0934.0589.16317.025.0698.0565.16416.0846.25425.0281.0901.0526.17543.0868.24787.0342.0724.078.13144.17485.30439.0969.17294.24665.4593.39259.73541s.28786.54155.39303.75057c.10517.20903.17351.36147.23269.51401.0592.15254.10908.30489.14855.44034.0395.13544.0684.25363.0934.39045.025.13682.046.29169.0565.42715.0105.13547.0105.25098.008.36152-.003.11054-.008.21545-.0206.31984-.0127.10438-.0328.20745-.0276.28649.005.0791.0359.13333.0842.20269.0483.0693.1139.15335.17833.22568.0644.0723.12752.13278.1959.19327.0684.0605.14197.12094.22218.17835.0802.0574.16698.11175.25633.16519.0894.0534.18146.10607.32139.17504.13992.069.32809.15451.50223.2281.17414.0736.33461.13542.51922.20374.18461.0683.3938.14332.58895.21596.19514.0726.37666.14309.4832.17726.10653.0342.13813.0322.16956.0239.0314-.008.0633-.0228.0967-.0464.0333-.0236.0691-.0567.0986-.0921s.0533-.0738.0755-.11502c.0222-.0412.0434-.0862.065-.15104.0216-.0648.0441-.15085.0631-.24138.019-.0905.0348-.18682.0492-.29114.0144-.10433.0276-.21774.0387-.32669.0112-.10894.0204-.21442.0315-.30698.0112-.0926.0243-.17301.0408-.25501.0164-.082.0362-.16644.0592-.25633.023-.0899.0494-.18616.0828-.28788.0335-.10172.0744-.20987.12293-.32732.0486-.11746.10525-.24536.16239-.35763.0571-.11228.11512-.20979.1827-.31936.0676-.10957.14539-.23221.16642-.29617.021-.064-.0147-.07-.009-.0787.005-.009.0513-.0196.0854-.0396.0341-.02.0566-.0491.10223-.10977.0456-.0606.11604-.15496.21443-.2809.0984-.12595.22631-.28552.35108-.44181.12477-.15629.24725-.31038.36808-.466.12082-.15563.24067-.31367.35033-.468.10966-.15433.20976-.30578.29381-.44238.084-.1366.15254-.25909.21489-.37725.0624-.11815.11904-.23283.16826-.34048.0492-.10765.0914-.20917.13012-.31482.0387-.10565.0743-.21642.10712-.32929.0328-.11288.0631-.22889.0846-.3146.0215-.0857.0343-.14184.0691-.21456.0347-.0727.0919-.16317.16029-.27761.0684-.11443.14884-.25424.17688-.33201.028-.0778.004-.0945.006-.0991.002-.005.03.003.0858-.076.0558-.0788.14048-.24544.21927-.41026.0788-.16481.15255-.32946.21822-.48509.0657-.15564.12361-.30314.18008-.45482.0565-.15167.11178-.30842.1584-.44961.0466-.14118.0848-.26763.12223-.39826.0374-.13063.0743-.26637.10584-.38915.0315-.12278.0579-.23347.09-.38765.0322-.15417.0704-.35323.10321-.54566.0328-.19244.0605-.3794.0854-.58494.0249-.20555.0473-.43069.0631-.67239.0157-.24169.025-.50101.0289-.68433.004-.18332.003-.29121-.00071-.43691-.003-.14569-.009-.33017-.0204-.5318-.0118-.20163-.0302-.42145-.0539-.63823-.0236-.21678-.0526-.43129-.0776-.59489-.025-.1636-.046-.27676-.0716-.40742-.0256-.13066-.0559-.27948-.094-.44564-.0381-.16616-.0842-.35045-.14001-.54949-.0558-.19903-.12163-.41351-.19128-.61981-.0696-.2063-.14331-.40495-.22018-.59746-.0769-.19252-.15712-.37931-.234-.54948-.0769-.17018-.15054-.32409-.21472-.45111-.0642-.12702-.119-.2274-.16565-.3253-.0466-.0979-.0852-.19355-.14389-.31417-.0586-.12061-.13764-.26673-.21516-.39681-.0775-.13008-.15383-.24454-.24975-.37134-.0959-.1268-.21167-.26621-.32404-.38844s-.2215-.22742-.35229-.34046c-.13078-.11305-.28327-.23398-.42788-.33849-.14461-.10452-.28127-.19256-.44496-.28657-.1637-.094-.35422-.19387-.50606-.26684-.15184-.073-.26484-.11896-.41941-.17487-.15457-.0559-.35019-.12155-.51849-.17086-.16831-.0493-.30885-.0822-.45749-.11045-.14864-.0283-.30486-.0519-.44361-.069-.13876-.0171-.25953-.0276-.34963-.0336-.0901-.006-.14914-.007-.22888-.007-.0797 0-.17921.001-.29506.007-.11585.006-.24696.0164-.34891.0276-.10196.0112-.17408.023-.26039.0381-.0863.0152-.18581.0335-.30299.0638-.11719.0303-.25089.0722-.37985.11827-.12897.046-.25223.0959-.37268.15247-.12044.0566-.23713.11953-.33846.1807-.10132.0612-.18657.1202-.27019.18274-.0836.0625-.16484.12804-.24319.19848-.0784.0704-.15304.14512-.21755.21422-.0645.0691-.11824.13201-.18633.22338-.0681.0914-.14956.20993-.1878.3067-.0382.0968-.0326.17066-.0318.2374.00084.0667-.003.12569-.009.18565-.006.06-.0138.12009-.0268.17099-.013.0509-.031.0919-.0492.13341" id="path10835" fill="none" stroke="#000" stroke-width=".1"/><path d="M619.75659 591.37784c-.0335.0508-.10064.15258-.16588.26149-.0652.10891-.12815.22425-.18214.3414-.054.11715-.0986.23514-.1328.35494-.0342.11981-.0578.24042-.0737.35494-.0158.11453-.0237.22202-.0171.35634.007.13432.0276.29428.0539.42716.0263.13287.0578.23789.0999.34711.0421.10922.0946.2221.15513.33129.0605.10919.1288.21424.1893.30236.0605.0881.11303.15904.19194.25374.0789.0947.18402.21293.31287.34047s.28132.26423.43513.39043c.15381.1262.30894.24189.47719.35756.16826.11568.34971.23139.56527.35494.21555.12355.46541.25505.75102.39045.2856.1354.60727.27485.80978.34054.20251.0657.28588.0578.36293.0433.077-.0145.14828-.0356.23875-.0723.0905-.0367.20138-.0895.32213-.1578.12075-.0683.25257-.15262.41009-.2734.15752-.12078.34199-.2789.51305-.44201.17105-.16311.32965-.33207.4176-.47658.088-.14452.10578-.26522.13176-.38711.026-.1219.0602-.24575.0957-.33771.0355-.0919.0724-.15256.11044-.20895.038-.0564.0777-.1092.13269-.15897.055-.0498.12646-.0974.14935-.13637.0229-.039-.002-.0702.003-.0715.005-.001.0408.0271.0916.0281.0507.00098.11654-.0254.18473-.0463.0682-.021.13952-.0368.25485-.0565.11533-.0196.2764-.0434.44319-.071.16679-.0276.34064-.0592.49303-.096.15238-.0368.28405-.0789.40212-.12305.11807-.0441.22327-.0905.33481-.15481.11154-.0643.23045-.14715.38149-.26713.15105-.11998.33556-.27813.484-.4187.14844-.14058.26167-.26434.38114-.40614.11948-.14181.24595-.30254.3589-.45884.11295-.15631.21303-.30906.31544-.49027.10241-.1812.20778-.39195.29973-.58637.0919-.19442.17095-.37347.24711-.57572.0762-.20225.14991-.42874.20771-.61268.0578-.18394.0999-.32611.15506-.54269.0551-.21657.12363-.50904.18275-.79809.0591-.28905.10913-.57593.1538-.8676.0447-.29168.0841-.58907.12618-.91884.042-.32978.0868-.69296.12883-1.04381.0421-.35085.0815-.69027.11963-.99119.0381-.30093.075-.56407.11568-.80846.0407-.24438.0855-.47075.12343-.65247.0379-.18171.0692-.31943.11519-.4796.046-.16018.10689-.34382.15956-.55616.0527-.21233.0974-.45463.12897-.70553.0315-.2509.0499-.51152.0539-.79791.004-.28639-.007-.59959-.025-.83612-.0184-.23654-.0447-.39705-.0815-.58882-.0368-.19177-.0842-.41554-.13542-.62051-.0513-.20498-.10651-.39181-.17089-.58232-.0644-.19051-.13806-.38524-.22872-.59021-.0907-.20497-.19854-.42072-.31813-.63361-.11959-.21289-.25111-.42332-.39436-.62045-.14325-.19713-.29842-.38123-.46928-.55472-.17086-.17348-.35756-.33652-.54026-.47454-.1827-.13801-.36147-.25106-.54287-.34571-.18141-.0947-.36539-.17088-.5442-.22874-.1788-.0579-.3522-.0973-.51265-.12489-.16045-.0276-.3075-.0434-.43771-.0499-.1302-.007-.24309-.004-.34439.00006-.1013.004-.19053.009-.27739.0184-.0869.009-.17077.0223-.2933.0473-.12254.025-.28235.0617-.42914.1025-.14679.0408-.27948.0854-.36767.13932-.0882.0539-.13126.11677-.19642.1906-.0652.0738-.1515.15754-.27003.26291-.11854.10538-.26793.23118-.42846.35093-.16053.11975-.3311.23259-.5535.36946-.2224.13687-.49534.29695-.7584.45478-.26305.15784-.51517.31278-.72033.44561-.20517.13282-.36272.24311-.49165.34439-.12892.10127-.22866.19314-.30763.26945-.079.0763-.13664.13663-.19199.21172-.0554.0751-.10773.16412-.14328.23255-.0355.0684-.0539.1156-.071.1697-.0172.0541-.0328.11418-.0408.18541-.008.0712-.008.15228-.001.22605.007.0738.0197.13926.0407.20779.0211.0685.0499.13922.0731.19028.0232.0511.0405.082.0326.14379-.008.0618-.0409.1541-.12741.36001-.0865.20591-.22535.52294-.39632.85834-.17097.33539-.37321.68734-.58889 1.04375-.21568.3564-.44421.71627-.69935 1.10687-.25514.39061-.53622.81091-.82948 1.25014-.29326.43923-.59801.89636-.8861 1.36507-.28809.46872-.55891.94805-.71147 1.27412-.15256.32606-.18651.49833-.20617.66223-.0196.16389-.0249.31873-.021.51087.004.19214.017.42048.0433.63226.0263.21177.0657.40609.11171.59814.046.19204.0986.38114.16433.57186.0658.19072.14456.38246.22872.56132.0842.17885.1735.34438.26161.49035.0881.14598.17481.2721.27345.39309.0986.12099.209.23662.29711.31945.0881.0828.15379.13277.22682.17914.073.0464.1534.0892.1935.11056.0401.0214.0403.0213.007.072z" id="path11390" fill="none" stroke="#000" stroke-width=".1"/><path d="M646.36731 591.69205c.0313.0438.0939.13146.16203.24497.0681.11352.1417.25279.21534.40137.0736.14859.14721.30624.21427.46929.0671.16305.12749.33119.18667.49821.0592.16703.11698.33251.17538.51011.0584.17761.11727.36686.14099.48772.0237.12087.0121.17333-.007.27229-.019.099-.0452.24271-.0636.37825-.0184.13554-.029.26148-.0342.37072-.005.10924-.005.20101-.00001.29317.005.0921.0158.18393.0303.26949.0145.0856.0328.16425.0565.24193.0237.0777.0526.15372.0828.22479.0303.0711.0618.13667.0973.19721.0355.0605.0749.11566.12754.18013.0526.0645.11829.13802.1893.20508.071.0671.14725.12753.24059.18537.0933.0578.20382.11308.32735.16696.12353.0539.26036.1065.38651.14724.12616.0407.24197.0697.38252.0947.14054.025.30644.046.48641.0618.17997.0158.37479.0263.53904.0303.16425.004.29851.001.40884-.003.11032-.004.19728-.009.27604-.0184.0788-.009.15001-.0224.21953-.0434.0695-.021.13817-.0501.19852-.0829.0603-.0328.11318-.0698.16296-.11701.0498-.0472.0974-.10536.1406-.17877.0432-.0734.0829-.16323.1104-.24065.0275-.0774.0434-.14344.0683-.26919.0249-.12575.0592-.31329.0842-.52343.0249-.21013.0407-.4445.0591-.65078.0184-.20628.0394-.38527.0644-.52848.025-.14321.054-.25118.0907-.35882.0368-.10763.0816-.21577.12888-.31159.0473-.0958.0974-.18021.14989-.25369.0525-.0735.10792-.13682.17951-.20307.0716-.0662.16479-.13987.26191-.20022.0971-.0603.20146-.10992.34781-.18574.14636-.0758.33623-.17867.5175-.27981.18126-.10114.35507-.20121.49955-.29186.14449-.0906.26039-.1723.4087-.27861.14831-.10631.33019-.23811.50094-.37209.17075-.13399.33139-.27092.5113-.4364.17991-.16547.38008-.36036.56399-.55086.18392-.1905.35241-.37741.53759-.61514.18519-.23774.38793-.52737.55348-.79016.16555-.2628.29451-.49967.41535-.75057.12085-.25091.23405-.51681.32862-.78743.0946-.27062.17092-.54702.22741-.78615.0565-.23912.0933-.4418.1196-.63621.0263-.1944.0421-.38135.0526-.54589.0106-.16454.016-.30738.0278-.42955.0118-.12217.0301-.22424.0445-.3289.0144-.10467.0249-.2128.0301-.306.005-.0932.005-.17231.003-.2458-.003-.0735-.008-.14208-.0158-.20245-.008-.0604-.0184-.11312-.0368-.18786-.0184-.0747-.0447-.17235-.0986-.30756-.0538-.13522-.13549-.30906-.23534-.47066-.0998-.1616-.21824-.31156-.32166-.42934-.10342-.11777-.19196-.20349-.26427-.27975-.0723-.0763-.12837-.14302-.32326-.32619-.1949-.18316-.52892-.48299-.76259-.70375-.23366-.22075-.36707-.36251-.44332-.49012-.0762-.12762-.0953-.24088-.11667-.34342-.0213-.10254-.0451-.19474-.0844-.31418-.0394-.11945-.0947-.26699-.15383-.39968-.0591-.1327-.12228-.25111-.2011-.37066-.0788-.11954-.17356-.24058-.27344-.35228-.0999-.1117-.20506-.21427-.32072-.30759-.11565-.0933-.24184-.17745-.3812-.25502-.13935-.0776-.29177-.14851-.42981-.20374-.13805-.0552-.26152-.0946-.40359-.13146-.14207-.0368-.30222-.071-.46268-.0973-.16046-.0263-.32065-.0447-.49034-.0578-.16968-.0132-.34822-.0211-.52448-.0197-.17626.001-.34953.0118-.52583.0263-.17629.0145-.35477.0329-.50605.0513-.15127.0184-.27463.0368-.43524.067-.16062.0303-.35732.0722-.58949.13228-.23216.06-.49846.13782-.65626.19825-.15781.0604-.20652.10341-.29831.17648-.0918.0731-.22511.17502-.40149.29613-.17639.1211-.39413.26014-.65067.40224-.25654.14209-.55058.28649-.85046.42328-.29989.1368-.60453.26549-.96257.41571-.35804.15023-.76826.32149-1.01024.47394-.24198.15245-.31502.28588-.3898.43303-.0748.14715-.15083.30713-.22058.46899-.0697.16186-.13272.32453-.19589.49823-.0632.17371-.12614.35738-.17483.51524-.0487.15787-.0828.28909-.11308.41148-.0303.1224-.0565.23517-.0881.3866-.0316.15144-.0683.34024-.096.51916-.0276.17892-.046.3469-.0631.52453-.0171.17763-.0328.36398-.0434.59029-.0105.22631-.0158.49145-.0105.73477.005.24332.021.46394.0434.67965.0224.21571.0513.42581.0828.61784.0316.19203.0657.36536.11964.58112.0539.21576.12746.4731.19584.68481.0684.21172.13143.37724.19061.52059.0592.14335.11435.26419.18537.40099.071.13681.15771.28915.21958.39652.0619.10737.0988.16955.15677.2209.058.0513.13659.0916.2219.14332.0853.0517.17741.11483.26806.18446.0906.0696.18011.14594.2642.22608.0841.0802.16302.16434.23161.24407.0686.0797.12691.15506.15608.19275.0292.0377.0292.0377.0605.0815z" id="path11394" fill="none" stroke="#000" stroke-width=".1"/></g></g></svg>