<svg xmlns="http://www.w3.org/2000/svg" width="75" height="75" viewBox="0 0 27 37" version="1.1" id="svg7820" license="CCBY4.0" author="Provart Lab - Bio Analytic Resource, University of Toronto">
  <g id="layer1" transform="translate(0 -260)">
    <g transform="translate(-541 -130)" id="F3" style="stroke-width:.13229166;stroke-miterlimit:4;stroke-dasharray:none">
      <g id="flowerDevelopmentPart3" transform="translate(420 517) scale(.26458)" style="stroke-width:.5;stroke-miterlimit:4;stroke-dasharray:none">
        <path fill="none" style="fill-opacity:1;stroke:none;stroke-width:.5;stroke-miterlimit:4;stroke-dasharray:none;stroke-opacity:1" d="M507-342c-4-6-1-19-11-17-8 1-10-9-16-13-2-9-10-17-11-26-3-8-10-17-9-25 2-5 0-15-1-22 5-2 7 12 10 4 4-3 2 7 5 10l5 18c0-17 3-34 5-50 1-7 2-15 10-14 6 0 11-2 15 0 7 3 4 7 12 4 7 0 17 1 17 11 1 8 5 15 6 22 4-5 1-16 7-19 6 3 2 13 4 19 2 22-4 43-9 64-1 7-6 13-9 19-6-1 0 14-9 13-7 2-15-1-21 2z" id="path7804-1"/>
      </g>
      <g id="g12181" style="stroke-width:.13229166;stroke-miterlimit:4;stroke-dasharray:none">
        <path style="fill:none;stroke:#000;stroke-width:.13229166;stroke-linecap:butt;stroke-linejoin:miter;stroke-miterlimit:4;stroke-dasharray:none;stroke-opacity:1" d="M557 422s-4 0-4-4c0 0-2-4 0-10h1l2-1 1 2s5 1 5 5c0 0-1 5-3 7l-2 1z" id="path1847"/>
        <path style="fill:none;stroke:#000;stroke-width:.13229166;stroke-linecap:butt;stroke-linejoin:miter;stroke-miterlimit:4;stroke-dasharray:none;stroke-opacity:1" d="M553 418s-5-2-6-10" id="path1849"/>
        <path style="fill:none;stroke:#000;stroke-width:.13229166;stroke-linecap:butt;stroke-linejoin:miter;stroke-miterlimit:4;stroke-dasharray:none;stroke-opacity:1" d="m562 416 4-16" id="path1851"/>
        <path style="fill:none;stroke:#000;stroke-width:.13229166;stroke-linecap:butt;stroke-linejoin:miter;stroke-miterlimit:4;stroke-dasharray:none;stroke-opacity:1" d="m565 407-2-7-6 2s-2 2-1 5" id="path1853"/>
        <path style="fill:none;stroke:#000;stroke-width:.13229166;stroke-linecap:butt;stroke-linejoin:miter;stroke-miterlimit:4;stroke-dasharray:none;stroke-opacity:1" d="m556 403-3-2s-2-3-2 0c0 0-2 5-2 13" id="path1857"/>
        <path style="fill:none;stroke:#000;stroke-width:.13229166;stroke-linecap:butt;stroke-linejoin:miter;stroke-miterlimit:4;stroke-dasharray:none;stroke-opacity:1" d="M564 401v1" id="path1859"/>
        <path style="fill:none;stroke:#000;stroke-width:.13229166;stroke-linecap:butt;stroke-linejoin:miter;stroke-miterlimit:4;stroke-dasharray:none;stroke-opacity:1" d="M556 393s-5 1-2 6c0 0 2 2 4 0 0 0 5-5-2-6z" id="path1861"/>
        <path style="fill:none;stroke:#000;stroke-width:.13229166;stroke-linecap:butt;stroke-linejoin:miter;stroke-miterlimit:4;stroke-dasharray:none;stroke-opacity:1" d="m554 399-1 2" id="path1863"/>
        <path style="fill:none;stroke:#000;stroke-width:.13229166;stroke-linecap:butt;stroke-linejoin:miter;stroke-miterlimit:4;stroke-dasharray:none;stroke-opacity:1" d="m558 399 1 2" id="path1867"/>
        <path style="fill:none;stroke:#000;stroke-width:.13229166;stroke-linecap:butt;stroke-linejoin:miter;stroke-miterlimit:4;stroke-dasharray:none;stroke-opacity:1" d="m552 422 2-1" id="path1869"/>
        <path style="fill:none;stroke:#000;stroke-width:.13229166;stroke-linecap:butt;stroke-linejoin:miter;stroke-miterlimit:4;stroke-dasharray:none;stroke-opacity:1" d="m562 422-3-1" id="path1871"/>
      </g>
    </g>
    <path style="fill:none;stroke:#000;stroke-width:.1;stroke-linecap:butt;stroke-linejoin:miter;stroke-opacity:1;stroke-miterlimit:4;stroke-dasharray:none" d="M11 292a14 14 0 0 1 1 0v1a8 8 0 0 1 0 1l1 1a10 10 0 0 0 0 1h1a4 4 0 0 1 1 0h1a28 28 0 0 0 2 0h2a1 1 0 0 0 0-1v-1a10 10 0 0 1 0-1 1 1 0 0 1 1-1l1-1 1-1a18 18 0 0 0 1-3v-3l1-1v-1a127 127 0 0 0 0-2v-2a52 52 0 0 0 1-7v-1a5 5 0 0 1 0-1v-1a9 9 0 0 0 0-2 2 2 0 0 0-1 0v-1 1h-1a5 5 0 0 0 0 1v2a5 5 0 0 1-1 1 17 17 0 0 0-1-2v-1a21 21 0 0 1-1-3 2 2 0 0 0 0-1 3 3 0 0 0-1-1 4 4 0 0 0-1 0 7 7 0 0 0-2 0 5 5 0 0 1-1 0h-1v-1a4 4 0 0 0-1 0l-1-1a5 5 0 0 0-1 0h-1v1H8v1l-1 1v4a668 668 0 0 0-1 9v1a36 36 0 0 1-1-3l-1-1v-2a7 7 0 0 0 0-1H3v1H2" id="path7886"/>
    <path style="fill:none;stroke:#000;stroke-width:.1;stroke-linecap:butt;stroke-linejoin:miter;stroke-opacity:1;stroke-miterlimit:4;stroke-dasharray:none" d="M2 271a6 6 0 0 0-1-2v2a34 34 0 0 1 0 4 3 3 0 0 0 0 1 6 6 0 0 0 0 1 20 20 0 0 0 1 2v1a76 76 0 0 1 1 1v1a7 7 0 0 0 1 1 16 16 0 0 0 0 2l1 1a15 15 0 0 1 1 2v1a3 3 0 0 1 1 0v1h1a20 20 0 0 0 1 1 3 3 0 0 0 0 1h2" id="path8473"/>
  </g>
</svg>