<?xml version="1.0" encoding="UTF-8" standalone="no"?>
<!-- Created with Inkscape (http://www.inkscape.org/) -->
<svg author="Provart Lab - Bio Analytic Resource, University of Toronto" license="CCBY4.0" xmlns:dc="http://purl.org/dc/elements/1.1/" xmlns:cc="http://creativecommons.org/ns#" xmlns:rdf="http://www.w3.org/1999/02/22-rdf-syntax-ns#"
    xmlns:svg="http://www.w3.org/2000/svg" xmlns="http://www.w3.org/2000/svg" xmlns:sodipodi="http://sodipodi.sourceforge.net/DTD/sodipodi-0.dtd"
    xmlns:inkscape="http://www.inkscape.org/namespaces/inkscape" width="300px" height="300px" viewBox="0 0 27 37" version="1.1"
    id="svg7820">
    <g id="layer1" transform="translate(0,-260)">
        <g transform="translate(-540.78799,-130.16457)" id="F3" style="stroke-width:0.13229166;stroke-miterlimit:4;stroke-dasharray:none">
            <g id="flowerDevelopmentPart3" transform="matrix(0.26458333,0,0,0.26458333,419.85161,516.93414)" style="stroke-width:0.5;stroke-miterlimit:4;stroke-dasharray:none">
                <path fill="none" style="fill-opacity:1;stroke:none;stroke-width:0.5;stroke-miterlimit:4;stroke-dasharray:none;stroke-opacity:1"
                    d="m 506.73677,-342.02605 c -4.19566,-5.52895 -1.16716,-18.94948 -11.05966,-17.05047 -8.03096,0.75739 -9.93932,-9.27845 -15.92756,-12.6293 -1.97921,-9.07494 -9.32385,-16.91919 -11.16301,-26.31165 -3.06949,-7.85213 -9.37253,-16.93275 -8.419,-24.92309 1.57722,-4.99326 0.0414,-15.5242 -0.93722,-21.92894 4.32108,-2.2078 7.18261,11.82872 9.73568,3.60508 4.36292,-2.96628 2.41598,7.57036 4.81028,10.7584 0.91064,5.45893 4.35491,15.94934 5.34494,17.6598 -0.009,-16.77406 2.59316,-33.90094 4.77777,-50.45977 1.18283,-6.24372 1.6201,-14.31137 9.97141,-13.73684 5.72112,0.11672 11.41644,-1.63815 15.33843,0.18868 6.82198,3.10596 3.40663,6.63654 11.85981,4.13006 7.20388,0.15734 16.86703,1.10422 16.98403,10.41805 0.8576,7.86517 4.82462,14.95507 6.19621,22.68 3.58573,-5.53898 1.20037,-16.25723 6.59757,-19.19781 5.81407,2.72185 1.69265,13.29908 4.448,19.09606 1.40607,21.47231 -4.49776,42.71741 -9.00748,63.70178 -1.77174,6.8233 -6.57093,13.23559 -9.0074,18.58696 -6.47414,-0.21912 -0.51332,14.68908 -9.54199,13.53148 -6.44754,2.25427 -15.2034,-1.56984 -21.00081,1.88152 z"
                    id="path7804-1" />
            </g>
            <g id="g12181" style="stroke-width:0.13229166;stroke-miterlimit:4;stroke-dasharray:none">
                <path style="fill:none;stroke:#000000;stroke-width:0.13229166;stroke-linecap:butt;stroke-linejoin:miter;stroke-miterlimit:4;stroke-dasharray:none;stroke-opacity:1"
                    d="m 556.58879,421.98464 c 0,0 -3.46115,-0.42095 -3.92888,-4.16272 0,0 -1.44993,-4.30304 -0.0468,-9.35443 0,0 0.42099,-0.32741 1.16934,-0.18709 0,0 1.07576,-1.02899 1.96443,-0.8419 l 1.12027,1.78386 c 0,0 4.86657,0.4612 5.05366,5.09165 0,0 -1.02899,4.95785 -2.94665,6.73519 0,0 -0.74833,1.12252 -2.38537,0.93544 z"
                    id="path1847" />
                <path style="fill:none;stroke:#000000;stroke-width:0.13229166;stroke-linecap:butt;stroke-linejoin:miter;stroke-miterlimit:4;stroke-dasharray:none;stroke-opacity:1"
                    d="m 552.65991,417.82192 c 0,0 -4.83195,-1.85856 -6.0408,-10.12002" id="path1849" />
                <path style="fill:none;stroke:#000000;stroke-width:0.13229166;stroke-linecap:butt;stroke-linejoin:miter;stroke-miterlimit:4;stroke-dasharray:none;stroke-opacity:1"
                    d="m 561.59341,415.8575 c 0,0 4.81753,-12.114 4.67723,-16.18319" id="path1851" />
                <path style="fill:none;stroke:#000000;stroke-width:0.13229166;stroke-linecap:butt;stroke-linejoin:miter;stroke-miterlimit:4;stroke-dasharray:none;stroke-opacity:1"
                    d="m 564.91422,406.50305 c 0,0 -0.60804,-2.66599 -2.24504,-6.17392 0,0 -3.83534,0.42095 -5.75299,1.96443 0,0 -1.82412,2.19829 -1.16931,5.14494"
                    id="path1853" />
                <path style="fill:none;stroke:#000000;stroke-width:0.13229166;stroke-linecap:butt;stroke-linejoin:miter;stroke-miterlimit:4;stroke-dasharray:none;stroke-opacity:1"
                    d="m 556.31952,403.47571 c 0,0 -2.94349,-1.22369 -3.73724,-2.84427 0,0 -1.62057,-2.14974 -1.91823,0 0,0 -1.45521,5.45703 -1.71979,13.62604"
                    id="path1857" />
                <path style="fill:none;stroke:#000000;stroke-width:0.13229166;stroke-linecap:butt;stroke-linejoin:miter;stroke-miterlimit:4;stroke-dasharray:none;stroke-opacity:1"
                    d="m 563.85081,400.61641 -0.22217,1.86712" id="path1859" />
                <path style="fill:none;stroke:#000000;stroke-width:0.13229166;stroke-linecap:butt;stroke-linejoin:miter;stroke-miterlimit:4;stroke-dasharray:none;stroke-opacity:1"
                    d="m 556.18723,393.32233 c 0,0 -5.4901,0.29766 -2.6789,5.22552 0,0 2.84426,1.98437 4.79557,0.76068 0,0 4.49791,-4.92786 -2.11667,-5.9862 z"
                    id="path1861" />
                <path style="fill:none;stroke:#000000;stroke-width:0.13229166;stroke-linecap:butt;stroke-linejoin:miter;stroke-miterlimit:4;stroke-dasharray:none;stroke-opacity:1"
                    d="m 553.50833,398.54785 -0.92605,2.08359" id="path1863" />
                <path style="fill:none;stroke:#000000;stroke-width:0.13229166;stroke-linecap:butt;stroke-linejoin:miter;stroke-miterlimit:4;stroke-dasharray:none;stroke-opacity:1"
                    d="m 558.3039,399.30853 0.56224,1.9513" id="path1867" />
                <path style="fill:none;stroke:#000000;stroke-width:0.13229166;stroke-linecap:butt;stroke-linejoin:miter;stroke-miterlimit:4;stroke-dasharray:none;stroke-opacity:1"
                    d="m 552.25156,422.02962 c 0,0 2.14974,0 2.21588,-0.89297" id="path1869" />
                <path style="fill:none;stroke:#000000;stroke-width:0.13229166;stroke-linecap:butt;stroke-linejoin:miter;stroke-miterlimit:4;stroke-dasharray:none;stroke-opacity:1"
                    d="m 561.67734,422.39342 c 0,0 -2.76051,-0.34025 -2.70317,-1.34421" id="path1871" />
            </g>
        </g>
        <path style="fill:none;stroke:#000000;stroke-width:0.1;stroke-linecap:butt;stroke-linejoin:miter;stroke-opacity:1;stroke-miterlimit:4;stroke-dasharray:none"
            d="m 11.46357,291.86505 c 0.104313,0.12193 0.208643,0.24388 0.28378,0.33827 0.07514,0.0944 0.12105,0.16117 0.169096,0.24263 0.04805,0.0815 0.0981,0.17741 0.158694,0.34454 0.06059,0.16713 0.13151,0.40492 0.189995,0.62841 0.05849,0.22348 0.104389,0.43213 0.14826,0.64521 0.04387,0.21308 0.08559,0.43003 0.12737,0.62431 0.04178,0.19428 0.0835,0.36534 0.1211,0.50531 0.0376,0.13997 0.07097,0.24842 0.116951,0.37174 0.04598,0.12333 0.104353,0.26092 0.166295,0.38171 0.06194,0.12079 0.127224,0.22431 0.204686,0.25139 0.07746,0.0271 0.166573,-0.0222 0.261093,-0.0635 0.09452,-0.0413 0.195123,-0.0748 0.316001,-0.10815 0.120878,-0.0333 0.263312,-0.0668 0.413464,-0.0919 0.150153,-0.025 0.309196,-0.0418 0.505245,-0.0501 0.196049,-0.008 0.430336,-0.008 0.678655,2e-5 0.248319,0.008 0.511715,0.0251 0.753822,0.0397 0.242106,0.0146 0.46365,0.0272 0.693207,0.0355 0.229557,0.008 0.467859,0.0125 0.639051,0.0104 0.171191,-0.002 0.27568,-0.0104 0.400764,-0.0229 0.125083,-0.0125 0.271649,-0.0292 0.378078,-0.046 0.106429,-0.0167 0.173394,-0.0334 0.250785,-0.0541 0.07739,-0.0207 0.166157,-0.0455 0.2412,-0.0559 0.07504,-0.0104 0.137175,-0.007 0.20769,-0.007 0.07052,-1.5e-4 0.150224,-0.004 0.235676,-0.0148 0.08545,-0.0104 0.177652,-0.0272 0.263128,-0.0606 0.08547,-0.0334 0.16509,-0.0837 0.242181,-0.15039 0.07709,-0.0667 0.152532,-0.15052 0.219212,-0.24641 0.06668,-0.0959 0.12534,-0.20483 0.179504,-0.37987 0.05416,-0.17504 0.104423,-0.41796 0.141978,-0.64541 0.03755,-0.22746 0.06264,-0.44071 0.09395,-0.65772 0.0313,-0.21701 0.06894,-0.43864 0.102352,-0.59728 0.03341,-0.15864 0.06268,-0.25481 0.102316,-0.34445 0.03963,-0.0896 0.08992,-0.17345 0.161578,-0.24878 0.07166,-0.0753 0.165473,-0.1431 0.246803,-0.18267 0.08133,-0.0396 0.150947,-0.0514 0.204326,-0.0567 0.05338,-0.005 0.09682,-0.004 0.152919,-0.0766 0.0561,-0.0727 0.128898,-0.22112 0.248417,-0.44903 0.119519,-0.2279 0.286925,-0.5376 0.474745,-0.87567 0.187821,-0.33808 0.396838,-0.70595 0.593025,-1.0712 0.196188,-0.36525 0.380093,-0.72888 0.530364,-1.06075 0.150271,-0.33187 0.267303,-0.63281 0.344527,-0.84573 0.07722,-0.21291 0.114845,-0.33832 0.164868,-0.53634 0.05002,-0.19802 0.112823,-0.47015 0.181681,-0.78315 0.06886,-0.313 0.144116,-0.66838 0.231774,-1.05657 0.08766,-0.3882 0.187971,-0.81035 0.275638,-1.1965 0.08767,-0.38616 0.162891,-0.73721 0.244287,-1.1108 0.0814,-0.37358 0.169172,-0.77066 0.254746,-1.17558 0.08557,-0.40492 0.16916,-0.81867 0.250565,-1.22361 0.0814,-0.40493 0.160808,-0.80195 0.210905,-1.06708 0.0501,-0.26512 0.07099,-0.39886 0.108522,-0.61777 0.03753,-0.21891 0.09194,-0.52444 0.146194,-0.86043 0.05426,-0.33599 0.1086,-0.70385 0.164951,-1.10875 0.05635,-0.4049 0.114863,-0.84792 0.160784,-1.24453 0.04592,-0.39661 0.07935,-0.74763 0.104397,-1.02943 0.02505,-0.2818 0.04176,-0.49495 0.05637,-0.73072 0.0146,-0.23577 0.02715,-0.49504 0.03758,-0.82682 0.01043,-0.33178 0.01879,-0.7373 0.02088,-1.07546 0.0021,-0.33817 -0.0021,-0.6098 -0.01045,-0.84355 -0.0084,-0.23376 -0.02089,-0.43022 -0.02896,-0.57539 -0.0081,-0.14516 -0.01169,-0.23941 -0.02838,-0.32069 -0.01668,-0.0813 -0.04655,-0.15018 -0.07603,-0.23248 -0.02948,-0.0823 -0.05877,-0.17856 -0.08797,-0.32041 -0.0292,-0.14185 -0.05848,-0.3301 -0.07726,-0.52211 -0.01878,-0.192 -0.02714,-0.38851 -0.03131,-0.63054 -0.0042,-0.24203 -0.0042,-0.53055 -0.0042,-0.73304 0,-0.20249 0,-0.31952 -0.0021,-0.44257 -0.0021,-0.12304 -0.0063,-0.25279 -0.01462,-0.39045 -0.0083,-0.13766 -0.0209,-0.28412 -0.04385,-0.43222 -0.02295,-0.1481 -0.05642,-0.29869 -0.09189,-0.42388 -0.03548,-0.12519 -0.07311,-0.22555 -0.119013,-0.31734 -0.0459,-0.0918 -0.100252,-0.1754 -0.160759,-0.2526 -0.06051,-0.0772 -0.12738,-0.14825 -0.204181,-0.20843 -0.0768,-0.0602 -0.163688,-0.10958 -0.253405,-0.10133 -0.08972,0.008 -0.182326,0.0743 -0.264301,0.14713 -0.08197,0.0728 -0.152754,0.15192 -0.215532,0.24186 -0.06278,0.0899 -0.116874,0.18982 -0.162895,0.2902 -0.04602,0.10039 -0.08349,0.20029 -0.127424,0.32791 -0.04394,0.12762 -0.09389,0.28165 -0.135712,0.45516 -0.04182,0.17351 -0.07516,0.36521 -0.112782,0.60138 -0.03762,0.23618 -0.07932,0.51554 -0.119011,0.78712 -0.03969,0.27159 -0.07724,0.5344 -0.110651,0.73283 -0.03341,0.19844 -0.06262,0.33193 -0.10233,0.48036 -0.03971,0.14843 -0.08971,0.31092 -0.144028,0.45302 -0.05432,0.14211 -0.112673,0.26299 -0.154718,0.34363 -0.04205,0.0806 -0.0676,0.12065 -0.1034,0.0301 -0.0358,-0.0906 -0.08082,-0.30855 -0.143147,-0.55606 -0.06233,-0.24751 -0.141745,-0.52339 -0.235673,-0.82813 -0.09393,-0.30474 -0.202576,-0.63904 -0.317389,-0.98139 -0.114814,-0.34235 -0.235978,-0.69331 -0.338272,-1.00646 -0.102294,-0.31315 -0.185856,-0.5889 -0.256828,-0.84149 -0.07097,-0.25259 -0.129475,-0.48242 -0.179565,-0.71828 -0.05009,-0.23587 -0.09189,-0.47828 -0.11692,-0.63562 -0.02503,-0.15733 -0.03338,-0.22998 -0.04171,-0.33001 -0.0083,-0.10003 -0.01673,-0.22834 -0.03969,-0.3777 -0.02295,-0.14935 -0.06061,-0.3209 -0.112784,-0.47739 -0.05217,-0.15648 -0.119063,-0.29863 -0.196273,-0.42591 -0.07721,-0.12729 -0.164977,-0.24013 -0.281856,-0.35701 -0.116879,-0.11688 -0.263091,-0.23803 -0.407145,-0.33408 -0.144053,-0.096 -0.286002,-0.16701 -0.394612,-0.22132 -0.10861,-0.0543 -0.183702,-0.0918 -0.277724,-0.12947 -0.09402,-0.0376 -0.206608,-0.0751 -0.352888,-0.11485 -0.146279,-0.0397 -0.325597,-0.0814 -0.507339,-0.11692 -0.181742,-0.0355 -0.365293,-0.0647 -0.620217,-0.0919 -0.254925,-0.0272 -0.580273,-0.0522 -0.809328,-0.0656 -0.229055,-0.0134 -0.361256,-0.015 -0.482434,-4.6e-4 -0.121178,0.0146 -0.230878,0.0454 -0.329824,0.0713 -0.09895,0.0259 -0.186396,0.0467 -0.288919,0.0676 -0.102523,0.0209 -0.219042,0.0417 -0.32358,0.0522 -0.104539,0.0105 -0.196172,0.0105 -0.273516,0.008 -0.07734,-0.002 -0.139857,-0.006 -0.211059,-0.0272 -0.0712,-0.0209 -0.150225,-0.0584 -0.271513,-0.16082 -0.121288,-0.10247 -0.28392,-0.26927 -0.421721,-0.4029 -0.1378,-0.13362 -0.250557,-0.23385 -0.384168,-0.33198 -0.133612,-0.0981 -0.28812,-0.19417 -0.432206,-0.27144 -0.144086,-0.0773 -0.277644,-0.1357 -0.407125,-0.17957 -0.12948,-0.0439 -0.254644,-0.0731 -0.40719,-0.0961 -0.152547,-0.023 -0.331845,-0.0397 -0.517791,-0.046 -0.185946,-0.006 -0.377788,-0.002 -0.584656,0.008 -0.206868,0.0104 -0.42789,0.0271 -0.659811,0.048 -0.231921,0.0209 -0.473821,0.0459 -0.716188,0.0648 -0.242367,0.0188 -0.48429,0.0313 -0.705742,0.0355 -0.2214525,0.004 -0.4216923,3e-5 -0.5971605,0.008 -0.1754682,0.008 -0.3256214,0.0292 -0.4614434,0.0668 -0.1358219,0.0376 -0.2567042,0.0918 -0.3423868,0.12938 -0.085683,0.0376 -0.1356586,0.0584 -0.213257,0.10664 -0.077598,0.0482 -0.1813252,0.1229 -0.2733639,0.22117 -0.092039,0.0983 -0.1711569,0.21903 -0.2401233,0.31727 -0.068967,0.0982 -0.1272793,0.17321 -0.1880037,0.28625 -0.060724,0.11303 -0.1231213,0.26279 -0.1795831,0.44886 -0.056462,0.18608 -0.10647,0.40695 -0.1503513,0.62007 -0.043881,0.21312 -0.081413,0.41746 -0.1252986,0.65361 -0.043886,0.23615 -0.093924,0.50302 -0.1336239,0.75373 -0.0397,0.2507 -0.068899,0.48429 -0.1044217,0.76221 -0.035523,0.27791 -0.077231,0.59906 -0.11692,0.89987 -0.039689,0.3008 -0.077239,0.58034 -0.1252952,0.9439 -0.048056,0.36355 -0.1064612,0.80993 -0.173303,1.32378 -0.066842,0.51384 -0.1419625,1.09394 -0.20253,1.59309 -0.060568,0.49914 -0.1064813,0.91654 -0.1545249,1.36982 -0.048044,0.45328 -0.098122,0.94154 -0.137808,1.38432 -0.039686,0.44279 -0.068901,0.83928 -0.091876,1.15257 -0.022975,0.31329 -0.039667,0.54281 -0.060565,0.86881 -0.020898,0.326 -0.045924,0.74726 -0.060548,1.10233 -0.014624,0.35507 -0.018797,0.64303 -0.024153,0.96092 -0.00536,0.31789 -0.011879,0.66488 -0.028622,0.81947 -0.016743,0.1546 -0.043579,0.11639 -0.092479,0.003 -0.0489,-0.11302 -0.1199925,-0.30121 -0.2222533,-0.59339 -0.1022608,-0.29217 -0.2360008,-0.68921 -0.3549966,-1.06917 -0.1189959,-0.37996 -0.2234383,-0.74342 -0.3048586,-1.02944 -0.08142,-0.28601 -0.1399126,-0.49491 -0.1816606,-0.65566 -0.041748,-0.16074 -0.066825,-0.27359 -0.093946,-0.39041 -0.02712,-0.11682 -0.056403,-0.23814 -0.082363,-0.36289 -0.02596,-0.12476 -0.048725,-0.25354 -0.082098,-0.35363 -0.033373,-0.10009 -0.077538,-0.17209 -0.1183597,-0.26648 -0.040822,-0.0944 -0.078445,-0.21144 -0.1097387,-0.34917 -0.031294,-0.13772 -0.056384,-0.29663 -0.08559,-0.51778 -0.029206,-0.22115 -0.06266,-0.50551 -0.087713,-0.70382 -0.025053,-0.19832 -0.04177,-0.31116 -0.062632,-0.42379 -0.020862,-0.11263 -0.045967,-0.2256 -0.079336,-0.32987 -0.03337,-0.10426 -0.075222,-0.20052 -0.1210917,-0.26933 -0.045869,-0.0688 -0.096039,-0.11062 -0.158574,-0.12943 -0.062535,-0.0188 -0.1376567,-0.0147 -0.2130205,0.008 -0.075364,0.023 -0.1503726,0.0646 -0.2111221,0.15041 -0.06075,0.0858 -0.1063663,0.21471 -0.1459851,0.30665 -0.039619,0.0919 -0.072925,0.14608 -0.1105781,0.19214 -0.037653,0.0461 -0.079191,0.0835 -0.1126399,0.10652 -0.033449,0.0231 -0.058365,0.0314 -0.092115,0.0335 -0.03375,0.002 -0.07497,-0.002 -0.1190066,-0.0167 -0.044036,-0.0147 -0.089703,-0.0396 -0.1419571,-0.0689 -0.052254,-0.0293 -0.1106261,-0.0626 -0.1691701,-0.0961"
            id="path7886" />
        <path style="fill:none;stroke:#000000;stroke-width:0.1;stroke-linecap:butt;stroke-linejoin:miter;stroke-opacity:1;stroke-miterlimit:4;stroke-dasharray:none"
            d="m 2.2676179,270.51959 c -0.06139,-0.10435 -0.1227299,-0.20861 -0.2298158,-0.36606 -0.107086,-0.15745 -0.2601652,-0.36845 -0.3697125,-0.51107 -0.1095473,-0.14261 -0.1756882,-0.21702 -0.2562688,-0.29554 -0.080581,-0.0785 -0.1757003,-0.16123 -0.2603991,-0.21909 -0.084699,-0.0579 -0.15911222,-0.0909 -0.22523449,-0.10748 -0.0661223,-0.0166 -0.12390441,-0.0166 -0.18225683,-0.006 -0.0583524,0.0101 -0.1166727,0.0303 -0.10838596,0.30661 0.008287,0.27631 0.0830257,0.80302 0.14334989,1.27667 0.0603242,0.47365 0.1057806,0.89102 0.13886422,1.26111 0.0330836,0.37009 0.0537424,0.69237 0.0640857,0.97977 0.0103432,0.28741 0.0103432,0.5394 0.006212,0.74825 -0.004131,0.20886 -0.012391,0.37405 -0.0268614,0.52298 -0.0144703,0.14893 -0.035106,0.281 -0.0603063,0.40455 -0.0252002,0.12356 -0.0548307,0.23788 -0.0734748,0.34966 -0.0186442,0.11178 -0.0261339,0.22015 -0.0298987,0.32631 -0.003765,0.10615 -0.003765,0.20924 0.004514,0.35004 0.008278,0.1408 0.0247725,0.31811 0.0516587,0.49394 0.0268862,0.17584 0.0640433,0.34924 0.10333832,0.5085 0.0392951,0.15926 0.0805894,0.30379 0.15713585,0.52309 0.076546,0.2193 0.1880296,0.51246 0.305882,0.80606 0.1178524,0.29361 0.2418152,0.58699 0.401021,0.93641 0.1592057,0.34943 0.3534255,0.7544 0.5146728,1.09137 0.1612473,0.33696 0.2893724,0.60561 0.3927417,0.82889 0.1033693,0.22327 0.1818837,0.40096 0.2303102,0.51551 0.048427,0.11455 0.066683,0.16577 0.085323,0.24652 0.018641,0.0807 0.037511,0.19036 0.075961,0.33855 0.03845,0.14819 0.096217,0.33387 0.1623936,0.52414 0.066177,0.19026 0.1405248,0.38439 0.2294462,0.59946 0.088921,0.21507 0.1921982,0.45054 0.3183294,0.71728 0.1261312,0.26674 0.2748809,0.56424 0.4692284,0.93226 0.1943474,0.36802 0.4340404,0.80608 0.5911428,1.09548 0.1571023,0.2894 0.2315006,0.42993 0.3286924,0.62844 0.097192,0.19852 0.2169998,0.45466 0.3100327,0.67793 0.093033,0.22326 0.1591477,0.41334 0.2149789,0.58083 0.055831,0.16749 0.1012678,0.31206 0.1343498,0.42163 0.033082,0.10958 0.05374,0.18395 0.071468,0.24753 0.017728,0.0636 0.032427,0.11603 0.080155,0.16997 0.047728,0.0539 0.1278017,0.10865 0.2113473,0.16707 0.083545,0.0584 0.1704219,0.12048 0.2654505,0.20518 0.095028,0.0847 0.1984416,0.19225 0.3079911,0.3142 0.1095496,0.12195 0.2252991,0.25837 0.3617314,0.43201 0.1364323,0.17364 0.2934998,0.38444 0.4423446,0.58084 0.1488448,0.19639 0.2893746,0.37825 0.3989538,0.51264 0.1095792,0.13439 0.1880968,0.22117 0.2749182,0.31213 0.086821,0.091 0.181912,0.18604 0.2873505,0.27494 0.1054385,0.0889 0.2212016,0.17158 0.3369628,0.24186 0.1157611,0.0703 0.2315617,0.12818 0.3617578,0.1757 0.1301961,0.0475 0.2750359,0.0848 0.4327892,0.10368 0.1577532,0.0189 0.3289343,0.0196 0.4714903,0.0134 0.142556,-0.006 0.257021,-0.0192 0.353321,-0.0277 0.0963,-0.009 0.175095,-0.0127 0.263757,-0.007 0.08866,0.006 0.188236,0.0228 0.276998,0.0455 0.08876,0.0227 0.167485,0.0517 0.231938,0.0691 0.06445,0.0174 0.107661,0.0224 0.154179,0.0277"
            id="path8473" />
    </g>
</svg>