<svg xmlns="http://www.w3.org/2000/svg" width="75" height="75" viewBox="0 0 27 28" version="1.1" id="svg8664" license="CCBY4.0" author="Provart Lab - Bio Analytic Resource, University of Toronto">
  <g id="layer1" transform="translate(0 -269)">
    <g transform="translate(-807 -124)" id="F19" style="stroke-width:.13229166;stroke-miterlimit:4;stroke-dasharray:none">
      <g id="flowerDevelopmentPart19" transform="translate(754 308) scale(.16674)" fill="none" style="stroke-width:.79340011;stroke-miterlimit:4;stroke-dasharray:none">
        <path style="fill-opacity:1;stroke-width:.79340011;stroke-miterlimit:4;stroke-dasharray:none" d="M411 679c-4-2-14 0-19-7s-12-12-12-21c1-13-6-4-4 2-3 8-7 12-14 13-9 3-16 4-24-1-12-5-20-19-14-32 3-10 10-20 17-24 8-3 18-3 23 3 3 2 8 3 8 1-2-5-12 0-12-8-4-15 13-21 24-21 10 5 4-6-2-2-12 2-29 6-37-6-9-11-10-29 1-38 5-9 13-18 25-16 9-2 17 8 26 9 11 4 11 19 5 28 1 7 4 4 8 2 3-2 8 3 9 1-2-7-2-19 8-20 4-4 9-11 15-6 5 1 8 8 13 3l17-13c4 3-2 10-5 13-3 5-10 8-12 14 1 6 1 16-4 21-4 0-4 7-3 11 2 6-5 13-3 18 12 7 12 31-4 35-5 5-14-2-15 6-4 1-1 9 5 8 4 3 10 1 11 6-7-1-18-2-19 7-2 6-5 13-12 14z" id="path8102-6"/>
      </g>
      <g id="g12492" style="stroke-width:.13229166;stroke-miterlimit:4;stroke-dasharray:none">
        <path style="fill:none;stroke:#000;stroke-width:.13229166;stroke-linecap:butt;stroke-linejoin:miter;stroke-miterlimit:4;stroke-dasharray:none;stroke-opacity:1" d="M811 400s5 2 9-4" id="path12380"/>
        <path style="fill:none;stroke:#000;stroke-width:.13229166;stroke-linecap:butt;stroke-linejoin:miter;stroke-miterlimit:4;stroke-dasharray:none;stroke-opacity:1" d="m818 398 4 2" id="path12382"/>
        <path style="fill:none;stroke:#000;stroke-width:.13229166;stroke-linecap:butt;stroke-linejoin:miter;stroke-miterlimit:4;stroke-dasharray:none;stroke-opacity:1" d="M819 405s2-1 2-4" id="path12384"/>
        <path style="fill:none;stroke:#000;stroke-width:.13229166;stroke-linecap:butt;stroke-linejoin:miter;stroke-miterlimit:4;stroke-dasharray:none;stroke-opacity:1" d="m810 411 1 2c2 1 2 3 2 3v3" id="path12388"/>
        <path style="fill:none;stroke:#000;stroke-width:.13229166;stroke-linecap:butt;stroke-linejoin:miter;stroke-miterlimit:4;stroke-dasharray:none;stroke-opacity:1" d="m813 417 4-1" id="path12392"/>
        <path style="fill:none;stroke:#000;stroke-width:.13229166;stroke-linecap:butt;stroke-linejoin:miter;stroke-miterlimit:4;stroke-dasharray:none;stroke-opacity:1" d="M818 405s1 4-2 5" id="path12394"/>
        <path style="fill:none;stroke:#000;stroke-width:.13229166;stroke-linecap:butt;stroke-linejoin:miter;stroke-miterlimit:4;stroke-dasharray:none;stroke-opacity:1" d="M818 415v-2s3-3 6 0l1 2v2" id="path12396"/>
        <path style="fill:none;stroke:#000;stroke-width:.13229166;stroke-linecap:butt;stroke-linejoin:miter;stroke-miterlimit:4;stroke-dasharray:none;stroke-opacity:1" d="M818 418s3-4 7 0" id="path12400"/>
        <path style="fill:none;stroke:#000;stroke-width:.13229166;stroke-linecap:butt;stroke-linejoin:miter;stroke-miterlimit:4;stroke-dasharray:none;stroke-opacity:1" d="m818 413 2 1h2l2-1" id="path12402"/>
        <path style="fill:none;stroke:#000;stroke-width:.13229166;stroke-linecap:butt;stroke-linejoin:miter;stroke-miterlimit:4;stroke-dasharray:none;stroke-opacity:1" d="M820 414v3" id="path12404"/>
        <path style="fill:none;stroke:#000;stroke-width:.13229166;stroke-linecap:butt;stroke-linejoin:miter;stroke-miterlimit:4;stroke-dasharray:none;stroke-opacity:1" d="m822 414 2 3" id="path12406"/>
        <path style="fill:none;stroke:#000;stroke-width:.13229166;stroke-linecap:butt;stroke-linejoin:miter;stroke-miterlimit:4;stroke-dasharray:none;stroke-opacity:1" d="m820 415 1 1 1-1" id="path12408"/>
        <path style="fill:none;stroke:#000;stroke-width:.13229166;stroke-linecap:butt;stroke-linejoin:miter;stroke-miterlimit:4;stroke-dasharray:none;stroke-opacity:1" d="M821 404s-2 5 5 4l-2-2-3-2z" id="path12410"/>
        <path style="fill:none;stroke:#000;stroke-width:.13229166;stroke-linecap:butt;stroke-linejoin:miter;stroke-miterlimit:4;stroke-dasharray:none;stroke-opacity:1" d="M824 406s-1-1 1-1c0 0 3-2 4 0" id="path12412"/>
        <path style="fill:none;stroke:#000;stroke-width:.13229166;stroke-linecap:butt;stroke-linejoin:miter;stroke-miterlimit:4;stroke-dasharray:none;stroke-opacity:1" d="M824 405s-2-3 0-3" id="path12416"/>
        <path style="fill:none;stroke:#000;stroke-width:.13229166;stroke-linecap:butt;stroke-linejoin:miter;stroke-miterlimit:4;stroke-dasharray:none;stroke-opacity:1" d="m822 402-1 2" id="path12420"/>
        <path style="fill:none;stroke:#000;stroke-width:.13229166;stroke-linecap:butt;stroke-linejoin:miter;stroke-miterlimit:4;stroke-dasharray:none;stroke-opacity:1" d="m819 405 1 1" id="path12422"/>
        <path style="fill:none;stroke:#000;stroke-width:.13229166;stroke-linecap:butt;stroke-linejoin:miter;stroke-miterlimit:4;stroke-dasharray:none;stroke-opacity:1" d="m823 403 2 1" id="path12424"/>
        <path style="fill:none;stroke:#000;stroke-width:.13229166;stroke-linecap:butt;stroke-linejoin:miter;stroke-miterlimit:4;stroke-dasharray:none;stroke-opacity:1" d="m829 398 1 2" id="path12426"/>
        <path style="fill:none;stroke:#000;stroke-width:.13229166;stroke-linecap:butt;stroke-linejoin:miter;stroke-miterlimit:4;stroke-dasharray:none;stroke-opacity:1" d="M825 404s1-2 2 0" id="path12428"/>
        <path style="fill:none;stroke:#000;stroke-width:.13229166;stroke-linecap:butt;stroke-linejoin:miter;stroke-miterlimit:4;stroke-dasharray:none;stroke-opacity:1" d="m826 403-2-1" id="path12430"/>
        <path style="fill:none;stroke:#000;stroke-width:.13229166;stroke-linecap:butt;stroke-linejoin:miter;stroke-miterlimit:4;stroke-dasharray:none;stroke-opacity:1" d="m826 403 3 1" id="path12432"/>
        <path style="fill:none;stroke:#000;stroke-width:.13229166;stroke-linecap:butt;stroke-linejoin:miter;stroke-miterlimit:4;stroke-dasharray:none;stroke-opacity:1" d="M817 416s1-4-2-6c-2-1-4 3-4 3" id="path12434"/>
        <path style="fill:none;stroke:#000;stroke-width:.13229166;stroke-linecap:butt;stroke-linejoin:miter;stroke-miterlimit:4;stroke-dasharray:none;stroke-opacity:1" d="m822 408-4 6s2-4 5-6" id="path12436"/>
        <path style="fill:none;stroke:#000;stroke-width:.13229166;stroke-linecap:butt;stroke-linejoin:miter;stroke-miterlimit:4;stroke-dasharray:none;stroke-opacity:1" d="M821 408s-3 0-3 3l1 1" id="path12438"/>
        <path style="fill:none;stroke:#000;stroke-width:.13229166;stroke-linecap:butt;stroke-linejoin:miter;stroke-miterlimit:4;stroke-dasharray:none;stroke-opacity:1" d="m819 412 2-2" id="path12440"/>
        <path style="fill:none;stroke:#000;stroke-width:.13229166;stroke-linecap:butt;stroke-linejoin:miter;stroke-miterlimit:4;stroke-dasharray:none;stroke-opacity:1" d="m817 410 1 1-1 1" id="path12442"/>
        <path style="fill:none;stroke:#000;stroke-width:.13229166;stroke-linecap:butt;stroke-linejoin:miter;stroke-miterlimit:4;stroke-dasharray:none;stroke-opacity:1" d="M826 408h3" id="path12444"/>
        <path style="fill:none;stroke:#000;stroke-width:.13229166;stroke-linecap:butt;stroke-linejoin:miter;stroke-miterlimit:4;stroke-dasharray:none;stroke-opacity:1" d="M825 409h-1l1 2c1 2 3 1 3 1 2-2 0-4 0-4h-3" id="path12446"/>
        <path style="fill:none;stroke:#000;stroke-width:.13229166;stroke-linecap:butt;stroke-linejoin:miter;stroke-miterlimit:4;stroke-dasharray:none;stroke-opacity:1" d="M826 410h1v-1l-3-1 2 1z" id="path12448"/>
        <path style="fill:none;stroke:#000;stroke-width:.13229166;stroke-linecap:butt;stroke-linejoin:miter;stroke-miterlimit:4;stroke-dasharray:none;stroke-opacity:1" d="m825 408-1 3 1 2 1-1" id="path12450"/>
        <path style="fill:none;stroke:#000;stroke-width:.13229166;stroke-linecap:butt;stroke-linejoin:miter;stroke-miterlimit:4;stroke-dasharray:none;stroke-opacity:1" d="M825 413s2 2 3-1" id="path12452"/>
        <path style="fill:none;stroke:#000;stroke-width:.13229166;stroke-linecap:butt;stroke-linejoin:miter;stroke-miterlimit:4;stroke-dasharray:none;stroke-opacity:1" d="M826 415v-2" id="path12454"/>
        <path style="fill:none;stroke:#000;stroke-width:.13229166;stroke-linecap:butt;stroke-linejoin:miter;stroke-miterlimit:4;stroke-dasharray:none;stroke-opacity:1" d="m828 413-1 1" id="path12456"/>
      </g>
    </g>
    <path style="fill:none;stroke:#000;stroke-width:.1;stroke-linecap:butt;stroke-linejoin:miter;stroke-miterlimit:4;stroke-dasharray:none;stroke-opacity:1" d="M13 272a34 34 0 0 0-3-2H8l-2 1-1 2-1 1v2a7 7 0 0 0 0 1 5 5 0 0 0 1 2v1a3 3 0 0 0 2 1 7 7 0 0 0 2 0 34 34 0 0 0 3-1" id="path888"/>
    <path style="fill:none;stroke:#000;stroke-width:.1;stroke-linecap:butt;stroke-linejoin:miter;stroke-miterlimit:4;stroke-dasharray:none;stroke-opacity:1" d="M13 272h1l1 1a3 3 0 0 1 0 1v2l-1 1h1" id="path892"/>
    <path style="fill:none;stroke:#000;stroke-width:.1;stroke-linecap:butt;stroke-linejoin:miter;stroke-miterlimit:4;stroke-dasharray:none;stroke-opacity:1" d="M15 277a8 8 0 0 1 1 0h1" id="path896"/>
    <path style="fill:none;stroke:#000;stroke-width:.1;stroke-linecap:butt;stroke-linejoin:miter;stroke-miterlimit:4;stroke-dasharray:none;stroke-opacity:1" d="M17 277v-1a4 4 0 0 1 0-1l1-1h1v-1l1-1a1 1 0 0 1 1 0v1h1" id="path904"/>
    <path style="fill:none;stroke:#000;stroke-width:.1;stroke-linecap:butt;stroke-linejoin:miter;stroke-miterlimit:4;stroke-dasharray:none;stroke-opacity:1" d="M22 273h2l1-1v-1h1v1a7 7 0 0 1-1 1l-1 1v1a3 3 0 0 0-1 0" id="path908"/>
    <path style="fill:none;stroke:#000;stroke-width:.1;stroke-linecap:butt;stroke-linejoin:miter;stroke-miterlimit:4;stroke-dasharray:none;stroke-opacity:1" d="M23 275v4h-1" id="path912"/>
    <path style="fill:none;stroke:#000;stroke-width:.1;stroke-linecap:butt;stroke-linejoin:miter;stroke-opacity:1;stroke-miterlimit:4;stroke-dasharray:none" d="M22 279a5 5 0 0 0 0 1" id="path916"/>
    <path style="fill:none;stroke:#000;stroke-width:.1;stroke-linecap:butt;stroke-linejoin:miter;stroke-opacity:1;stroke-miterlimit:4;stroke-dasharray:none" d="M22 280v1a4 4 0 0 1 0 1v2" id="path920"/>
    <path style="fill:none;stroke:#000;stroke-width:.1;stroke-linecap:butt;stroke-linejoin:miter;stroke-opacity:1;stroke-miterlimit:4;stroke-dasharray:none" d="M22 284a3 3 0 0 1 1 1 4 4 0 0 1 0 2v1l-1 1-1 1h-1" id="path924"/>
    <path style="fill:none;stroke:#000;stroke-width:.1;stroke-linecap:butt;stroke-linejoin:miter;stroke-miterlimit:4;stroke-dasharray:none;stroke-opacity:1" d="M20 290h-1" id="path928"/>
    <path style="fill:none;stroke:#000;stroke-width:.1;stroke-linecap:butt;stroke-linejoin:miter;stroke-miterlimit:4;stroke-dasharray:none;stroke-opacity:1" d="M19 290a1 1 0 0 0-1 0v1" id="path932"/>
    <path style="fill:none;stroke:#000;stroke-width:.1;stroke-linecap:butt;stroke-linejoin:miter;stroke-miterlimit:4;stroke-dasharray:none;stroke-opacity:1" d="M18 291a2 2 0 0 0 0 1 1 1 0 0 0 1 0 2 2 0 0 0 1 0h1v1a19 19 0 0 0-2 0h-1" id="path936"/>
    <path style="fill:none;stroke:#000;stroke-width:.1;stroke-linecap:butt;stroke-linejoin:miter;stroke-miterlimit:4;stroke-dasharray:none;stroke-opacity:1" d="M18 293v1a4 4 0 0 1-1 1 2 2 0 0 1 0 1h-4v-1h-1v-1l-1-1" id="path940"/>
    <path style="fill:none;stroke:#000;stroke-width:.1;stroke-linecap:butt;stroke-linejoin:miter;stroke-miterlimit:4;stroke-dasharray:none;stroke-opacity:1" d="M11 291v1a3 3 0 0 0 0 1v1" id="path944"/>
    <path style="fill:none;stroke:#000;stroke-width:.1;stroke-linecap:butt;stroke-linejoin:miter;stroke-opacity:1;stroke-miterlimit:4;stroke-dasharray:none" d="M11 291h-1a2 2 0 0 0 0 1 3 3 0 0 1-1 1 3 3 0 0 1-1 1H7a11 11 0 0 1-1 1" id="path948"/>
    <path style="fill:none;stroke:#000;stroke-width:.1;stroke-linecap:butt;stroke-linejoin:miter;stroke-miterlimit:4;stroke-dasharray:none;stroke-opacity:1" d="M3 286a24 24 0 0 0-1 2 8 8 0 0 0-1 3v1l1 1a5 5 0 0 0 2 1l1 1h1" id="path952"/>
    <path style="fill:none;stroke:#000;stroke-width:.1;stroke-linecap:butt;stroke-linejoin:miter;stroke-miterlimit:4;stroke-dasharray:none;stroke-opacity:1" d="M3 286a12 12 0 0 1 1-1 3 3 0 0 1 1 0 5 5 0 0 1 2 0 3 3 0 0 1 1 0" id="path956"/>
    <path style="fill:none;stroke:#000;stroke-width:.1;stroke-linecap:butt;stroke-linejoin:miter;stroke-miterlimit:4;stroke-dasharray:none;stroke-opacity:1" d="M11 281a8 8 0 0 0-2 0 4 4 0 0 0-1 1H7v1a11 11 0 0 0 0 2h2v1H8" id="path960"/>
    <path style="fill:none;stroke:#000;stroke-width:.1;stroke-linecap:butt;stroke-linejoin:miter;stroke-miterlimit:4;stroke-dasharray:none;stroke-opacity:1" d="M12 280a1 1 0 0 1 0 1h-1" id="path964"/>
  </g>
</svg>