<svg xmlns="http://www.w3.org/2000/svg" width="75" height="75" viewBox="0 0 300 300"><g id="shapes"><path fill="none" stroke="#000000" stroke-width=".5" stroke-miterlimit="10" d="M120.738 212.084s-.874 15.441.292 20.686c2.04 9.033 5.537 26.224 5.537 26.224 3.497-1.164 22.727-5.535 22.727-5.535.874-5.536 2.913-27.973 1.457-33.8-4.079 3.496-10.198 8.449-12.238 7.867-3.497-2.622-9.613-4.369-11.946-13.401-1.749-.294-3.791-1.168-5.829-2.041z" id="receptacle"/><path fill="none" stroke="#000000" stroke-width=".5" stroke-miterlimit="10" d="M120.738 212.084s-10.489-1.747-11.946-4.079c-4.078-3.206-11.654-9.615-12.82-13.112-4.37-3.496-18.648-15.149-19.522-21.853-1.167-6.702-5.247-20.104-5.537-24.476.292-4.954 4.37-13.693 5.245-14.859 1.748-1.166 4.955.291 7.285 4.953 2.622 5.536 8.451 22.145 9.907 26.515 2.913 6.701 14.277 21.272 17.482 24.768.29-9.033-.292-25.644-1.166-31.47 0-7.575.582-15.734.582-15.734-2.913-2.913-17.776-9.905-24.767-13.694-4.953-3.788-6.701-.584-10.198-14.278-1.165-3.497 0-4.66 2.915-4.079 5.537 1.457 10.197 4.953 10.197 4.079-.29-5.535-.29-9.615-7.575-13.694-7.867-3.788-11.365-7.577-13.695-9.907C61.59 90 54.596 83.006 51.391 78.636c-4.661-4.663-5.245-8.451-6.701-12.822-4.079-5.535-9.615-13.112-5.245-14.567 4.37.582 7.285.583 15.734-1.457 4.371.582 9.617 3.788 16.026 8.741 7.575 4.661 22.143 9.323 26.513 16.316 4.954 6.119 9.907 14.278 9.907 14.278.874-6.119 2.041-16.318 2.041-16.318-2.333-2.622-4.371-6.701.874-5.827 6.119.292 14.275-.582 14.275-.582-1.456-3.496-.291-8.741 7.868-9.615 4.954.582 17.482 3.497 17.482 3.497 2.04-2.623-1.166 7.575-2.623 9.031 1.458 3.789 2.914 23.893 2.914 23.893 2.915-6.119 4.373-15.153 4.663-26.807-2.623-2.623-6.703-5.535-1.458-10.78 3.788-3.497 10.199-6.703 10.781-.292 0 4.079-.292 5.828 9.615-4.953 7.575-5.537 11.655-8.449 20.104-8.741 9.615.29 22.727-1.165 24.476-.875 2.914 1.457 8.159 3.205 5.244 12.82-2.623 7.575-8.45 20.104-11.655 25.349 2.915 0 10.782-2.332 13.695-6.411 3.205-3.787 5.829-6.7 13.985-6.409 6.702-1.166 9.322-2.331 11.654 3.496 1.458 5.827.291 15.151-10.779 21.561-9.324 4.079-27.39 12.53-37.587 22.145-9.615 9.032-29.722 25.058-27.39 40.792 4.37-3.204 16.318-14.277 20.396-20.104 5.537-6.993 9.325-13.988 10.781-16.026 2.039 1.458 6.409 13.404 4.079 23.893-3.496 9.615-3.496 17.192-20.979 38.753-2.915 4.952-5.536 11.653-10.781 15.15-4.371 3.496-10.198 6.993-10.198 6.993-3.788 4.08-15.442 12.821-18.355 16.899-3.789 2.915-12.238 7.867-12.238 7.867-3.788-2.331-9.613-6.117-11.946-13.401-2.037-.002-5.535-3.788-5.825-2.039z" id="flower"/></g><g id="outline"><path fill="none" stroke="#000000" stroke-width=".5" stroke-miterlimit="10" d="M120.738 212.084s-.874 15.441.292 20.686c2.04 9.033 5.537 26.224 5.537 26.224 3.497-1.164 22.727-5.535 22.727-5.535.874-5.536 2.913-27.973 1.457-33.8-4.079 3.496-10.198 8.449-12.238 7.867-3.497-2.622-9.613-4.369-11.946-13.401-1.749-.294-3.791-1.168-5.829-2.041z"/><path fill="none" stroke="#000000" stroke-width=".5" stroke-miterlimit="10" d="M120.738 212.084s-10.489-1.747-11.946-4.079c-4.078-3.206-11.654-9.615-12.82-13.112-4.37-3.496-18.648-15.149-19.522-21.853-1.167-6.702-5.247-20.104-5.537-24.476.292-4.954 4.37-13.693 5.245-14.859 1.748-1.166 4.955.291 7.285 4.953 2.622 5.536 8.451 22.145 9.907 26.515 2.913 6.701 14.277 21.272 17.482 24.768.29-9.033-.292-25.644-1.166-31.47 0-7.575.582-15.734.582-15.734-2.913-2.913-17.776-9.905-24.767-13.694-4.953-3.788-6.701-.584-10.198-14.278-1.165-3.497 0-4.66 2.915-4.079 5.537 1.457 10.197 4.953 10.197 4.079-.29-5.535-.29-9.615-7.575-13.694-7.867-3.788-11.365-7.577-13.695-9.907C61.59 90 54.596 83.006 51.391 78.636c-4.661-4.663-5.245-8.451-6.701-12.822-4.079-5.535-9.615-13.112-5.245-14.567 4.37.582 7.285.583 15.734-1.457 4.371.582 9.617 3.788 16.026 8.741 7.575 4.661 22.143 9.323 26.513 16.316 4.954 6.119 9.907 14.278 9.907 14.278.874-6.119 2.041-16.318 2.041-16.318-2.333-2.622-4.371-6.701.874-5.827 6.119.292 14.275-.582 14.275-.582-1.456-3.496-.291-8.741 7.868-9.615 4.954.582 17.482 3.497 17.482 3.497 2.04-2.623-1.166 7.575-2.623 9.031 1.458 3.789 2.914 23.893 2.914 23.893 2.915-6.119 4.373-15.153 4.663-26.807-2.623-2.623-6.703-5.535-1.458-10.78 3.788-3.497 10.199-6.703 10.781-.292 0 4.079-.292 5.828 9.615-4.953 7.575-5.537 11.655-8.449 20.104-8.741 9.615.29 22.727-1.165 24.476-.875 2.914 1.457 8.159 3.205 5.244 12.82-2.623 7.575-8.45 20.104-11.655 25.349 2.915 0 10.782-2.332 13.695-6.411 3.205-3.787 5.829-6.7 13.985-6.409 6.702-1.166 9.322-2.331 11.654 3.496 1.458 5.827.291 15.151-10.779 21.561-9.324 4.079-27.39 12.53-37.587 22.145-9.615 9.032-29.722 25.058-27.39 40.792 4.37-3.204 16.318-14.277 20.396-20.104 5.537-6.993 9.325-13.988 10.781-16.026 2.039 1.458 6.409 13.404 4.079 23.893-3.496 9.615-3.496 17.192-20.979 38.753-2.915 4.952-5.536 11.653-10.781 15.15-4.371 3.496-10.198 6.993-10.198 6.993-3.788 4.08-15.442 12.821-18.355 16.899-3.789 2.915-12.238 7.867-12.238 7.867-3.788-2.331-9.613-6.117-11.946-13.401-2.037-.002-5.535-3.788-5.825-2.039z"/><path fill="none" stroke="#000000" stroke-width=".5" stroke-miterlimit="10" d="M208.378 58.782c-.559.576-1.305 1.057-2.095 1.568-.604.389-1.225.79-1.798 1.263-.782.637-1.629 1.208-2.516 1.816-.628.431-1.263.863-1.879 1.322-1.952 1.448-3.585 3.158-5.162 4.806-.987 1.05-2.017 2.122-3.103 3.104-2.189 1.98-4.511 4.226-7.103 6.863-1.804 1.854-6.155 7.579-6.425 8.067-.298.534-.913 1.639-1.26 1.797M194.376 51.409c-.229.686-1.324 1.644-3.258 2.878-1.899 1.202-3.591 2.98-4.825 4.266-4.705 4.927-8.394 9.352-11.273 13.511M248.808 67.575c.083.106.177.198.256.314l-.203.063c-.049-.143-.057-.266-.053-.377zm-.096-.099c-.282.423-.983 1.322-2.62 3.229l-.268.309c-.912 1.083-2.092 2.09-3.232 3.066l-.855.745c-1.167 1.016-2.514 1.485-4.075 2.015-.469.166-.945.33-1.419.509-2.258.854-4.322 1.499-6.034 2.018-.897.27-1.874.438-2.911.615-1.375.244-2.803.478-4.163.992-2.601.979-5.109 2.237-7.251 3.644l-.646.424c-4.239 2.782-8.619 5.649-13.106 7.46-.91.364-1.764.806-2.589 1.275.342-.263.681-.547 1.025-.803 1.632-1.224 3.314-2.491 4.787-4.135.628-.716 1.301-1.431 1.979-2.151 1.565-1.678 3.532-5.876 4.901-7.758m-63.597 76.336l3.879-4.096c.068-.11.452-.331.683-.469.381-.223.812-.472 1.182-.837.763-.759 1.294-1.923 1.671-2.85.618-1.532.965-3.115 1.298-4.646.137-.643.276-1.289.444-1.936 1.027-4.114 1.005-8.486.981-12.724l-.008-1.866c0-2.544.184-4.887.575-7.372.155-.997.412-1.982.686-3.025.334-1.284.691-2.63.838-4.027.062-.544.172-1.11.279-1.673.106-.597.228-1.201.301-1.808.072-.583.095-1.2.11-1.821.007-.093.021-.181.023-.263.17.369.354.721.542.985 1.178 1.712 3.804 2.846 5.677 3.053.672.075 1.429.128 2.219.128.478 0 .979-.036 1.473-.075-.183.232-.437.529-.909.937-1.343 1.18-2.188 2.218-2.915 3.582-1.475 2.77-2.399 5.474-2.817 8.267-.621 4.046-.483 8.395-.352 12.581.045 1.724 1.457 7.219 1.457 8.884M151.26 93.604c.447-3.909-3.316 8.879-3.788 12.765-.328 2.759-.677 5.613-.837 8.544l.266.016c-.159 1.815-.108 3.679-.04 5.492.033.934.062 1.871.062 2.798 0 5.998.68 12.03 1.338 17.863l.064.576c.691 6.145.388 12.487.094 18.617-.162 3.389-.33 6.91-.33 10.373h.038m25.555-63.996c-1.127.666-3.169.895-5.604.618-1.262-.14-3.158-.988-3.807-1.929-.275-.401-.68-1.349-.823-1.955-.05-.25.002-.519.109-.953.115-.516.271-1.156.136-1.89l-.794.145c.182-1.117.784-2.082 1.788-2.896 1.226-.99 2.293-1.014 4.383-.947 3.959.107 5.729 3.32 5.718 6.257l-.002.417c0 1.84-.056 2.51-1.104 3.133zm-20.486 44.052s1.924-9.861.612-20.788c-1.312-10.926.438-26.223 2.764-36.653 2.327-10.429 4.226-26.283 8.159-35.024-.987.669-3.056 8.297-8.301 8.297-.612 0 .332.191 0 0m-8.887 2.775c-4.879 4.775-14.337 1.369-16.169.734-1.405-.49-2.467-1.009-3.363-1.66-.206-.374-.451-.628-.763-.791-.158-.221-.34-.41-.595-.558l-.053.09c-.18-.202-.35-.413-.532-.64m-16.722 7.863c1.652 1.231 3.616 2.281 5.697 2.281.758 0 1.519-.133 2.292-.451 1.928-.785 4.34-1.917 6.006-3.669.514-.546 1.974-5.284 2.339-5.745 0 0-.907 5.129-.838 5.709l.038.323c.239 1.924.263 3.939.263 5.656 0 2.29.073 4.553.146 6.829.072 2.252.145 4.509.145 6.792 0 4.73-.191 9.003-.592 13.076-.121 1.262-.079 2.537-.037 3.774.026.615.04 1.212.04 1.81 0 .713.09 1.372.176 2.006.036.256.063.514.095.766m-17.49-24.118c-.107 1.557-.107 3.104.174 4.625.762 4.043 1.453 8.229 2.078 12.471.145.983.43 1.935.707 2.865.181.626.378 1.26.5 1.856.063.324.252 4.694.282 5.098.04.432-.053-3.101.021-2.652-.115.014-.222.033-.338.038m-22.362.883c5.187 1.893 9.68 2.775 14.143 2.775.357 0 .729.021 1.103.038.845.036 1.716.082 2.583-.038.726-.102 1.382-.328 1.958-.534.452-.162.879-.313 1.251-.367.782-.12 1.56-.219 2.331-.319 1.647-.207 3.366-.422 5.103-.869 2.009-.521 4.128-.526 6.372-.536h.028c1.857 0 3.362.81 5.035 2.015.729.529 1.54 1.044 2.367 1.569 2.844 1.808 5.79 3.677 6.375 6.711.246 1.284.321 2.643.399 4.071.057 1.055.116 2.103.249 3.127.082.644.041 1.407.02 2.144-.02.399-.036.804-.036 1.19-.006.75.077 1.419.153 2.064.068.561.137 1.128.137 1.726-.01 2.538.071 5.095.146 7.567.072 2.344.142 4.682.142 7.004 0 1.848.111 3.744.219 5.574.177 2.941.344 5.975.08 8.875-.273 3.033-.894 6.479-1.715 9.69-.266 1.039-.254 2.043-.246 3.021.01.641.018 1.248-.052 1.837-.038.23-.071.459-.113.693-.094.521-.197 1.106-.201 1.784-.002.521.107.978.191 1.377.065.278.14.598.113.739l.279.046m-10.112-65.928c-1-.104-1.922.183-2.731.424-.303.09-.599.181-.892.244-.863.188-1.71.3-2.584.417l-.531.071c-1.185.159-2.366.251-3.841.295-.594.019-1.171.098-1.748.178-.765.109-1.472.207-2.156.128-1.338-.149-2.684-.258-4.029-.382-1.496-.128-2.993-.258-4.479-.434-2.324-.273-4.673-.742-7.388-1.476-2.09-.565-4.435-1.501-6.118-2.443m19.756 24.096c.246.4 1.608 4.308 1.847 4.699.256.418.507.838.766 1.252 2.877 4.611 4.97 8.238 5.645 12.898.407 2.77.855 5.529 1.306 8.287.382 2.289.754 4.568 1.094 6.87.478 3.162.908 6.418 1.33 9.677.235 1.821.473 3.645.71 5.446.108.754.179 1.488.246 2.215.125 1.416.263 2.876.635 4.351.256 1.008.619 2.012.966 2.989.426 1.203.832 2.338 1.011 3.382.032.199.091.46.157.745.08.345.244 1.062.234 1.284 0-.002.004-.111.079-.263l.294.143c-.319.588-.57 1.195-.767 1.8-.097-.11.094.107 0 0-.401-.475-1.078-1.296-1.436-1.798-.271-.379-.524-.766-.777-1.167-.464-.727-.946-1.478-1.555-2.188-1.057-1.216-1.931-2.679-2.846-4.229-.586-.98-1.171-1.96-1.801-2.878-.579-.842-1.234-1.599-1.868-2.331-.369-.427-.741-.855-1.094-1.302-.297-.373-3.297-2.306-3.589-2.68m12.902 23.973c.916-1.604 8.915-12.47 12.268-20.25.666-1.543 1.519-2.949 2.439-4.444.486-.799.979-1.602 1.437-2.428.78-1.414 1.447-2.879 2.086-4.285.419-.926.837-1.846 1.286-2.746 2.315-4.625 4.961-8.509 7.475-12.009 1.055-1.481 2.195-2.95 3.317-4.405 1.561-2.014 3.166-4.096 4.557-6.183l.439-.655c1.259-1.873 2.56-3.81 3.695-5.846.262-.485 4.824-.111 5.48.399 1.256.985 3.262 4.396 3.767 6.006.1.323-.218-1.05-.155-.72m.158.717c.255 1.885.072 3.852-.136 5.906-.131 1.275-.266 2.612-.283 3.941-.038 2.527-.364 4.966-.713 7.538-.364 2.727-.744 5.53-.744 8.434 0 5.21-2.936 17.521-3.655 22.417m39.547-82.763c-.014.066-.021.142-.029.203-.132.955-.425 1.9-.735 2.893-.133.43-.269.862-.391 1.299-1.046 3.678-2.237 7.437-3.394 11.07-.619 1.94-1.241 3.884-1.842 5.828-1.265 4.081-3.311 10.052-6.459 14.78l-.884 1.32c-1.324 1.981-2.64 3.945-3.943 5.984-.576.905-1.205 1.691-1.871 2.525-.383.477-.766.963-1.141 1.472l-1.521 2.033c-.169.213-.317.492-.455.765-.052.111-.107.237-.151.297-.051.055-.135.107-.204.162-.196.144-.452.325-.646.583l-.807 1.05c-1.455 1.903-2.959 3.87-4.58 5.465-.936.92-2.171 2.116-3.449 3.196-.301.256-.552.548-.797.839.02-.476.043-.949.043-1.427 0-2.729.367-5.451.723-8.084.342-2.544.693-5.175.733-7.858.018-1.209.141-2.43.271-3.715.183-1.889 1.492-7.174 1.33-9.118m-10.181-8.913c.03-.096-2.917 5.564-2.88 5.475.214-.643 3.477-7.066 3.778-7.73.184-.408.371-.821.536-1.205.286-.698.588-1.381.89-2.06.66-1.499 1.348-3.049 1.847-4.7.449-1.458 1.103-2.838 1.792-4.299.455-.958.911-1.912 1.297-2.876.619-1.568 1.319-3.121 2.002-4.685.425-.956.851-1.912 1.271-2.87.873-2.033 1.723-4.01 2.731-5.876.388-.383.742-.778 1.084-1.199.283-.339.562-.677.851-.966.868-.871 1.764-1.615 2.709-2.4l.784-.656c1.98-1.67 3.886-3.493 5.509-5.073 1.999-1.927 10.737-11.097 10.737-11.097"/><path fill="none" stroke="#000000" stroke-width=".5" stroke-miterlimit="10" d="M130.121 161.98c-.125-.58-.284-1.171-.445-1.764-.246-.879-.47-1.713-.577-2.501-.475-3.269-1.228-6.464-2.378-10.054-.996-3.119-2.077-6.148-3.222-8.986-.553-1.369-1.258-2.562-1.939-3.713l-.259-.452c-.143-.243-.347-.545-.578-.898-.369-.553-1.234-1.857-1.282-2.294M91.138 99.905c.506-2.242-1.722-4.511-3.051-5.868l-.267-.263c-1.836-1.904-4.037-4.13-6.426-6.228-2.125-1.857-4.631-3.62-6.883-4.827-.91-.49-1.731-1.115-2.604-1.776-.361-.273-.725-.549-1.101-.826-.179-.117-.357-.287-.555-.458-.746-.642-1.675-1.443-2.805-1.466M61.564 66.537c-.185.035-.299 0-.299 0 .29.097 1.002.752 1.318 1.032.192.183.378.343.515.454l.323.26c1.301 1.05 2.648 2.134 4.189 3.044 1.976 1.142 3.944 2.439 5.846 3.693 1.533 1.01 3.071 2.023 4.645 3.003 2.439 1.5 4.612 3.616 6.447 5.487.695.705 1.456 1.321 2.192 1.917.369.297.736.596 1.089.909 1.638 1.408 1.901 1.929 1.945 2.054"/></g></svg>