<?xml version="1.0" encoding="UTF-8" standalone="no"?>
<!-- Created with Inkscape (http://www.inkscape.org/) -->
<svg author="Provart Lab - Bio Analytic Resource, University of Toronto" license="CCBY4.0" xmlns:dc="http://purl.org/dc/elements/1.1/" xmlns:cc="http://creativecommons.org/ns#" xmlns:rdf="http://www.w3.org/1999/02/22-rdf-syntax-ns#"
    xmlns:svg="http://www.w3.org/2000/svg" xmlns="http://www.w3.org/2000/svg" xmlns:sodipodi="http://sodipodi.sourceforge.net/DTD/sodipodi-0.dtd"
    xmlns:inkscape="http://www.inkscape.org/namespaces/inkscape" width="300px" height="300px" viewBox="0 0 27 28" version="1.1"
    id="svg8664">
    <g id="layer1" transform="translate(0,-269)">
        <g transform="translate(-807.0242,-124.46253)" id="F19" style="stroke-width:0.13229166;stroke-miterlimit:4;stroke-dasharray:none">
            <g id="flowerDevelopmentPart19" transform="matrix(0.16674016,0,0,0.16674016,754.34903,307.75498)" fill="none" style="stroke-width:0.79340011;stroke-miterlimit:4;stroke-dasharray:none">
                <path style="fill-opacity:1;stroke-width:0.79340011;stroke-miterlimit:4;stroke-dasharray:none" d="m 411.05315,678.72504 c -4.2712,-2.1167 -14.2987,0.032 -18.7489,-6.4633 -5.8018,-7.5461 -12.1653,-12.5292 -12.1384,-21.6297 0.374,-12.4225 -6.3758,-4.0769 -4.6415,2.5669 -2.4483,7.3144 -6.3019,11.5451 -13.8012,12.9257 -8.2525,2.6129 -15.4419,4.1369 -23.4152,-0.6928 -11.8403,-5.4741 -20.3896,-19.1401 -14.636,-32.48 2.8603,-9.57719 10.0262,-19.50753 17.6867,-23.67745 8.1233,-3.27724 17.2372,-3.064 22.96,3.07693 2.3355,1.8664 7.5713,2.77747 7.84,0.19287 -2.025,-4.48472 -12.2226,0.64533 -12.4632,-7.82726 -3.9328,-14.57119 13.3519,-20.23419 24.4361,-20.45313 9.6813,5.21256 4.1123,-6.18724 -2.2883,-2.03257 -12.1121,2.18968 -28.8214,6.2077 -36.7545,-6.3192 -9.2385,-10.47482 -9.9614,-28.51095 1.0697,-38.01942 4.8925,-8.46338 13.3349,-17.96262 24.5747,-15.5655 9.315,-2.01425 17.5007,7.2284 26.0032,8.38485 10.8018,4.78131 11.7076,19.42112 5.5083,28.43204 0.9275,7.11848 3.4091,3.88964 7.5934,1.86591 3.0591,-2.0424 7.7835,2.6663 9.4547,1.46228 -2.3143,-7.7848 -2.539,-19.05149 7.5017,-20.72643 3.7798,-3.92661 9.497,-10.98779 15.244,-5.7653 5.2066,0.90964 7.9634,7.68798 12.7349,2.52009 5.644,-4.12731 12.5396,-7.44865 16.9987,-12.35037 4.1899,2.64858 -1.9129,9.94692 -4.3783,12.90713 -3.4267,4.99952 -10.6389,8.41491 -12.275,13.73515 1.2099,6.6462 1.1861,16.31501 -3.8252,20.87835 -3.8545,-0.0979 -4.0127,7.66756 -3.2678,10.93258 1.8793,5.97616 -4.8188,13.35219 -2.6753,17.94906 12.0757,7.5699 11.706,31.59009 -4.2068,35.78509 -4.7588,4.6885 -14.1634,-2.1268 -14.7439,6.1257 -4.5552,0.1687 -0.9267,9.0084 4.16,7.6513 4.2146,2.8176 10.5431,0.8346 11.4521,5.6382 -6.732,-0.2852 -18.3307,-1.8211 -19.2254,7.4634 -1.776,5.7155 -5.2826,12.5058 -11.7333,13.5089 z"
                    id="path8102-6" />
            </g>
            <g id="g12492" style="stroke-width:0.13229166;stroke-miterlimit:4;stroke-dasharray:none">
                <path style="fill:none;stroke:#000000;stroke-width:0.13229166;stroke-linecap:butt;stroke-linejoin:miter;stroke-miterlimit:4;stroke-dasharray:none;stroke-opacity:1"
                    d="m 810.78254,399.50696 c 0,0 5.6224,2.38125 9.12813,-3.40651" id="path12380" />
                <path style="fill:none;stroke:#000000;stroke-width:0.13229166;stroke-linecap:butt;stroke-linejoin:miter;stroke-miterlimit:4;stroke-dasharray:none;stroke-opacity:1"
                    d="m 818.29703,398.14465 c 0,0 1.8511,0.16584 3.49879,2.18914" id="path12382" />
                <path style="fill:none;stroke:#000000;stroke-width:0.13229166;stroke-linecap:butt;stroke-linejoin:miter;stroke-miterlimit:4;stroke-dasharray:none;stroke-opacity:1"
                    d="m 818.55468,404.69941 c 0,0 2.02522,-1.17456 2.86469,-3.71266" id="path12384" />
                <path style="fill:none;stroke:#000000;stroke-width:0.13229166;stroke-linecap:butt;stroke-linejoin:miter;stroke-miterlimit:4;stroke-dasharray:none;stroke-opacity:1"
                    d="m 809.78622,410.5988 c 0,0 0.2267,1.79837 1.56856,2.30478 1.44108,1.06865 1.47828,2.70989 1.47828,2.70989 0,0 0.59532,2.51355 -0.19843,3.57188"
                    id="path12388" sodipodi:nodetypes="cccc" />
                <path style="fill:none;stroke:#000000;stroke-width:0.13229166;stroke-linecap:butt;stroke-linejoin:miter;stroke-miterlimit:4;stroke-dasharray:none;stroke-opacity:1"
                    d="m 812.96535,416.83717 c 0,0 2.77813,0.52917 3.86954,-0.56224" id="path12392" />
                <path style="fill:none;stroke:#000000;stroke-width:0.13229166;stroke-linecap:butt;stroke-linejoin:miter;stroke-miterlimit:4;stroke-dasharray:none;stroke-opacity:1"
                    d="m 818.39918,405.17521 c 0,0 0.54814,4.18515 -1.99636,4.71549" id="path12394" />
                <path style="fill:none;stroke:#000000;stroke-width:0.13229166;stroke-linecap:butt;stroke-linejoin:miter;stroke-miterlimit:4;stroke-dasharray:none;stroke-opacity:1"
                    d="m 817.56249,415.2166 c 0,0 0.16536,-1.28984 0.89297,-1.71979 0,0 2.70008,-3.93018 5.5298,-0.51581 0,0 1.21608,0.79512 1.07576,2.38538 0,0 0.0468,0.98221 -0.44434,1.59025"
                    id="path12396" />
                <path style="fill:none;stroke:#000000;stroke-width:0.13229166;stroke-linecap:butt;stroke-linejoin:miter;stroke-miterlimit:4;stroke-dasharray:none;stroke-opacity:1"
                    d="m 818.25567,418.00901 c 0,0 3.20389,-4.37319 7.03921,-0.30403" id="path12400" />
                <path style="fill:none;stroke:#000000;stroke-width:0.13229166;stroke-linecap:butt;stroke-linejoin:miter;stroke-miterlimit:4;stroke-dasharray:none;stroke-opacity:1"
                    d="m 818.45546,413.49681 c 0,0 1.28378,0.61693 1.72199,0.96993 l 1.42243,-0.0826 c 0,0 1.46388,-1.63436 2.22865,-1.624"
                    id="path12402" />
                <path style="fill:none;stroke:#000000;stroke-width:0.13229166;stroke-linecap:butt;stroke-linejoin:miter;stroke-miterlimit:4;stroke-dasharray:none;stroke-opacity:1"
                    d="m 820.17745,414.46674 -0.35492,2.04555" id="path12404" />
                <path style="fill:none;stroke:#000000;stroke-width:0.13229166;stroke-linecap:butt;stroke-linejoin:miter;stroke-miterlimit:4;stroke-dasharray:none;stroke-opacity:1"
                    d="m 821.5999,414.38414 c 0,0 1.77734,0.84193 2.31521,2.15154" id="path12406" />
                <path style="fill:none;stroke:#000000;stroke-width:0.13229166;stroke-linecap:butt;stroke-linejoin:miter;stroke-miterlimit:4;stroke-dasharray:none;stroke-opacity:1"
                    d="m 820.17335,414.99221 1.28621,1.02899 0.79513,-1.28625" id="path12408" />
                <path style="fill:none;stroke:#000000;stroke-width:0.13229166;stroke-linecap:butt;stroke-linejoin:miter;stroke-miterlimit:4;stroke-dasharray:none;stroke-opacity:1"
                    d="m 820.54752,404.39832 c 0,0 -1.80073,4.65383 5.09815,3.48451 0,0 -0.81517,-0.44393 -1.75395,-1.6838 -1.16931,-1.66041 -3.3442,-1.80071 -3.3442,-1.80071 z"
                    id="path12410" />
                <path style="fill:none;stroke:#000000;stroke-width:0.13229166;stroke-linecap:butt;stroke-linejoin:miter;stroke-miterlimit:4;stroke-dasharray:none;stroke-opacity:1"
                    d="m 823.56432,405.68454 c 0,0 -0.21047,-1.00561 1.07575,-1.00561 0,0 3.06358,-1.4967 4.30304,0.16371" id="path12412"
                />
                <path style="fill:none;stroke:#000000;stroke-width:0.13229166;stroke-linecap:butt;stroke-linejoin:miter;stroke-miterlimit:4;stroke-dasharray:none;stroke-opacity:1"
                    d="m 823.86833,404.88941 c 0,0 -1.43438,-2.55611 0.39365,-3.34772" id="path12416" />
                <path style="fill:none;stroke:#000000;stroke-width:0.13229166;stroke-linecap:butt;stroke-linejoin:miter;stroke-miterlimit:4;stroke-dasharray:none;stroke-opacity:1"
                    d="m 821.83374,401.70891 c 0,0 -1.38473,1.9554 -1.28622,2.68941" id="path12420" />
                <path style="fill:none;stroke:#000000;stroke-width:0.13229166;stroke-linecap:butt;stroke-linejoin:miter;stroke-miterlimit:4;stroke-dasharray:none;stroke-opacity:1"
                    d="m 819.26127,405.33375 1.04836,0.74154" id="path12422" sodipodi:nodetypes="cc" />
                <path style="fill:none;stroke:#000000;stroke-width:0.13229166;stroke-linecap:butt;stroke-linejoin:miter;stroke-miterlimit:4;stroke-dasharray:none;stroke-opacity:1"
                    d="m 823.35385,403.15885 c 0,0 1.88608,-0.0241 2.03049,1.05201" id="path12424" />
                <path style="fill:none;stroke:#000000;stroke-width:0.13229166;stroke-linecap:butt;stroke-linejoin:miter;stroke-miterlimit:4;stroke-dasharray:none;stroke-opacity:1"
                    d="m 829.36407,397.80344 c 0,0 0.76086,1.02122 0.87154,2.12424" id="path12426" />
                <path style="fill:none;stroke:#000000;stroke-width:0.13229166;stroke-linecap:butt;stroke-linejoin:miter;stroke-miterlimit:4;stroke-dasharray:none;stroke-opacity:1"
                    d="m 825.17244,403.61885 c 0,0 1.03452,-2.00347 2.04012,0.33512" id="path12428" />
                <path style="fill:none;stroke:#000000;stroke-width:0.13229166;stroke-linecap:butt;stroke-linejoin:miter;stroke-miterlimit:4;stroke-dasharray:none;stroke-opacity:1"
                    d="m 826.04323,402.83145 c 0,0 -0.63923,-1.15294 -1.78125,-1.28976" id="path12430" />
                <path style="fill:none;stroke:#000000;stroke-width:0.13229166;stroke-linecap:butt;stroke-linejoin:miter;stroke-miterlimit:4;stroke-dasharray:none;stroke-opacity:1"
                    d="m 826.4408,402.87821 c 0,0 1.8475,0.72498 2.80632,0.63142" id="path12432" />
                <path style="fill:none;stroke:#000000;stroke-width:0.13229166;stroke-linecap:butt;stroke-linejoin:miter;stroke-miterlimit:4;stroke-dasharray:none;stroke-opacity:1"
                    d="m 816.89929,415.69378 c 0,0 0.99967,-3.69584 -1.8037,-5.83523 -1.77239,-0.52943 -3.76975,2.96648 -3.76975,2.96648"
                    id="path12434" sodipodi:nodetypes="ccc" />
                <path style="fill:none;stroke:#000000;stroke-width:0.13229166;stroke-linecap:butt;stroke-linejoin:miter;stroke-miterlimit:4;stroke-dasharray:none;stroke-opacity:1"
                    d="m 821.57651,407.71913 c 0,0 -2.92211,2.99532 -3.62426,5.90592 0,0 2.26785,-3.73101 5.33143,-5.69545" id="path12436"
                />
                <path style="fill:none;stroke:#000000;stroke-width:0.13229166;stroke-linecap:butt;stroke-linejoin:miter;stroke-miterlimit:4;stroke-dasharray:none;stroke-opacity:1"
                    d="m 821.06594,408.41998 -0.14425,-0.63068 c 0,0 -3.32081,0.304 -3.32081,2.8531 0,0 0.16368,1.30961 1.12251,1.02898"
                    id="path12438" sodipodi:nodetypes="cccc" />
                <path style="fill:none;stroke:#000000;stroke-width:0.13229166;stroke-linecap:butt;stroke-linejoin:miter;stroke-miterlimit:4;stroke-dasharray:none;stroke-opacity:1"
                    d="m 819.37822,411.74154 c 0,0 1.80073,-0.77174 2.08134,-2.1983" id="path12440" />
                <path style="fill:none;stroke:#000000;stroke-width:0.13229166;stroke-linecap:butt;stroke-linejoin:miter;stroke-miterlimit:4;stroke-dasharray:none;stroke-opacity:1"
                    d="m 816.94606,409.66019 c 0,0 -0.44434,1.05235 0.84191,1.59025 0,0 -0.72499,0.35078 -0.84192,1.16929" id="path12442"
                />
                <path style="fill:none;stroke:#000000;stroke-width:0.13229166;stroke-linecap:butt;stroke-linejoin:miter;stroke-miterlimit:4;stroke-dasharray:none;stroke-opacity:1"
                    d="m 825.64567,407.88283 c 0,0 2.03311,0.014 2.96116,0.34184" id="path12444" />
                <path style="fill:none;stroke:#000000;stroke-width:0.13229166;stroke-linecap:butt;stroke-linejoin:miter;stroke-miterlimit:4;stroke-dasharray:none;stroke-opacity:1"
                    d="m 824.90468,408.81698 -0.42993,0.36381 c -0.78412,0.7367 0.0992,2.23242 0.0992,2.23242 1.24023,1.80247 3.58841,0.77722 3.58841,0.77722 1.9513,-2.51354 -0.51263,-4.18373 -0.51263,-4.18373 0,0 -1.6068,-0.0678 -2.3909,0.43738"
                    id="path12446" />
                <path style="fill:none;stroke:#000000;stroke-width:0.13229166;stroke-linecap:butt;stroke-linejoin:miter;stroke-miterlimit:4;stroke-dasharray:none;stroke-opacity:1"
                    d="m 826.22759,409.56113 c 0,0 0.36381,0.44649 0.66146,0.14883 0,0 0.62839,-0.44649 -0.13229,-0.61186 0,0 -1.50482,-0.61184 -2.53008,-0.66145 l 1.96784,0.94257 z"
                    id="path12448" />
                <path style="fill:none;stroke:#000000;stroke-width:0.13229166;stroke-linecap:butt;stroke-linejoin:miter;stroke-miterlimit:4;stroke-dasharray:none;stroke-opacity:1"
                    d="m 824.6897,408.10592 c 0,0 -1.15755,0.76068 -1.17409,2.4474 0,0 0.0331,1.52135 1.43868,2.26549 0,0 0.66145,0.0165 0.56224,-0.59532"
                    id="path12450" />
                <path style="fill:none;stroke:#000000;stroke-width:0.13229166;stroke-linecap:butt;stroke-linejoin:miter;stroke-miterlimit:4;stroke-dasharray:none;stroke-opacity:1"
                    d="m 825.26848,412.81881 c 0,0 1.60404,1.88519 2.89388,-0.62838" id="path12452" />
                <path style="fill:none;stroke:#000000;stroke-width:0.13229166;stroke-linecap:butt;stroke-linejoin:miter;stroke-miterlimit:4;stroke-dasharray:none;stroke-opacity:1"
                    d="m 825.76457,414.55514 c 0,0 0.52917,-0.47956 0.38034,-1.10794" id="path12454" />
                <path style="fill:none;stroke:#000000;stroke-width:0.13229166;stroke-linecap:butt;stroke-linejoin:miter;stroke-miterlimit:4;stroke-dasharray:none;stroke-opacity:1"
                    d="m 827.98046,412.75267 c 0,0 -0.11576,1.05833 -1.2237,1.70325" id="path12456" />
            </g>
        </g>
        <path style="fill:none;stroke:#000000;stroke-width:0.1;stroke-linecap:butt;stroke-linejoin:miter;stroke-miterlimit:4;stroke-dasharray:none;stroke-opacity:1"
            d="m 12.88647,271.63792 c -0.598154,-0.299 -1.19667,-0.59817 -1.690528,-0.80889 -0.493858,-0.21071 -0.884029,-0.33333 -1.2089036,-0.39253 -0.3248743,-0.0592 -0.5744125,-0.0553 -0.8972671,-0.0553 -0.3228547,9e-5 -0.6973702,-0.004 -1.1503445,0.10106 -0.4529743,0.10501 -0.9849288,0.31919 -1.4807722,0.75368 -0.4958433,0.43449 -0.9560789,1.09034 -1.2911215,1.51182 -0.3350426,0.42147 -0.5463084,0.61038 -0.7604779,0.95423 -0.2141694,0.34385 -0.4313755,0.84296 -0.5521877,1.19629 -0.1208122,0.35333 -0.145208,0.5615 -0.1574037,0.77978 -0.012196,0.21828 -0.012196,0.45419 -0.00257,0.65907 0.00963,0.20488 0.029717,0.38967 0.065176,0.59261 0.035459,0.20293 0.086579,0.42707 0.1640726,0.66908 0.077494,0.242 0.1784146,0.49431 0.339665,0.78421 0.1612505,0.2899 0.3811321,0.61335 0.5497534,0.85457 0.1686213,0.24122 0.2885945,0.40373 0.4483564,0.56483 0.159762,0.1611 0.3605034,0.32248 0.5869396,0.45242 0.2264363,0.12995 0.4784411,0.22838 0.8290625,0.31108 0.3506214,0.0827 0.799138,0.14958 1.2301955,0.16728 0.4310574,0.0177 0.8446781,-0.0138 1.3567533,-0.0873 0.5120753,-0.0735 1.1236333,-0.18913 1.5248653,-0.26702 0.401232,-0.0779 0.592539,-0.11811 0.78356,-0.15827"
            id="path888" />
        <path style="fill:none;stroke:#000000;stroke-width:0.1;stroke-linecap:butt;stroke-linejoin:miter;stroke-miterlimit:4;stroke-dasharray:none;stroke-opacity:1"
            d="m 12.88647,271.63792 c 0.196925,0.0485 0.393669,0.0971 0.584401,0.173 0.190732,0.0759 0.37589,0.17949 0.551808,0.32858 0.175918,0.14909 0.343038,0.34406 0.482231,0.55284 0.139193,0.20878 0.250542,0.43148 0.328512,0.65977 0.07797,0.2283 0.122495,0.46205 0.157315,0.696 0.03482,0.23396 0.05983,0.46735 0.02169,0.77148 -0.03813,0.30413 -0.139287,0.67722 -0.268065,0.98227 -0.128779,0.30504 -0.284556,0.54029 -0.342669,0.71142 -0.05811,0.17112 -0.01794,0.27672 0.019,0.35982 0.03694,0.0831 0.07028,0.14285 0.104104,0.1947 0.03382,0.0519 0.0692,0.0971 0.116088,0.14023 0.04689,0.0431 0.105687,0.0846 0.164485,0.1261"
            id="path892" />
        <path style="fill:none;stroke:#000000;stroke-width:0.1;stroke-linecap:butt;stroke-linejoin:miter;stroke-miterlimit:4;stroke-dasharray:none;stroke-opacity:1"
            d="m 14.667553,277.26308 c 0.07867,-0.009 0.163768,-0.019 0.241256,-0.0418 0.07749,-0.0228 0.151888,-0.0593 0.236752,-0.10479 0.08486,-0.0455 0.183772,-0.10204 0.271499,-0.15041 0.08773,-0.0484 0.166278,-0.0897 0.231329,-0.12294 0.06505,-0.0332 0.118383,-0.0592 0.177863,-0.0747 0.05948,-0.0155 0.126682,-0.0211 0.198171,-0.0162 0.07149,0.005 0.148383,0.0202 0.23869,0.0487 0.09031,0.0285 0.194996,0.0704 0.279841,0.10653 0.08484,0.0362 0.15037,0.0668 0.227567,0.0995 0.0772,0.0327 0.166421,0.0675 0.267156,0.0799 0.100735,0.0124 0.213307,0.002 0.325386,-0.008"
            id="path896" />
        <path style="fill:none;stroke:#000000;stroke-width:0.1;stroke-linecap:butt;stroke-linejoin:miter;stroke-miterlimit:4;stroke-dasharray:none;stroke-opacity:1"
            d="m 17.23777,277.07915 c -0.06845,-0.27371 -0.13686,-0.54725 -0.174978,-0.79619 -0.03812,-0.24893 -0.046,-0.4735 -0.03615,-0.70961 0.0098,-0.23612 0.03744,-0.48445 0.120113,-0.73039 0.08267,-0.24595 0.220641,-0.49035 0.386996,-0.67857 0.166355,-0.18823 0.365299,-0.32351 0.542869,-0.39151 0.17757,-0.068 0.336384,-0.0703 0.531243,-0.2294 0.194859,-0.15907 0.426098,-0.47461 0.63626,-0.68202 0.210162,-0.20741 0.39914,-0.30682 0.558481,-0.37024 0.159342,-0.0634 0.289498,-0.091 0.434947,-0.0949 0.14545,-0.004 0.307252,0.0158 0.441862,0.064 0.134611,0.0482 0.242897,0.12509 0.353168,0.18218 0.110271,0.0571 0.22268,0.0945 0.345657,0.15054 0.122977,0.056 0.257049,0.13096 0.421602,0.22693 0.164553,0.096 0.360069,0.21325 0.555376,0.33041"
            id="path904" />
        <path style="fill:none;stroke:#000000;stroke-width:0.1;stroke-linecap:butt;stroke-linejoin:miter;stroke-miterlimit:4;stroke-dasharray:none;stroke-opacity:1"
            d="m 22.355216,273.35038 c 0.14622,0.007 0.297731,0.0142 0.430741,-0.0305 0.133009,-0.0448 0.250683,-0.14145 0.429965,-0.27486 0.179282,-0.13342 0.421557,-0.30458 0.69332,-0.48409 0.271763,-0.17951 0.576853,-0.36984 0.84539,-0.54934 0.268537,-0.17949 0.502635,-0.3495 0.702337,-0.51261 0.199701,-0.1631 0.365695,-0.31985 0.456344,-0.38734 0.09065,-0.0675 0.106556,-0.046 0.147558,0.0128 0.041,0.0588 0.10713,0.15494 0.138822,0.24054 0.03169,0.0856 0.02889,0.16068 0.01259,0.24446 -0.01631,0.0838 -0.04765,0.18066 -0.09924,0.29643 -0.05159,0.11577 -0.123737,0.25173 -0.218508,0.40227 -0.09477,0.15053 -0.211431,0.31441 -0.356352,0.50672 -0.14492,0.1923 -0.317217,0.41184 -0.504559,0.62011 -0.187342,0.20828 -0.391699,0.40704 -0.595063,0.59369 -0.203364,0.18666 -0.406331,0.36182 -0.547001,0.49133 -0.140671,0.12951 -0.218501,0.2129 -0.298587,0.30957 -0.08009,0.0967 -0.161563,0.20556 -0.223461,0.30874 -0.0619,0.10319 -0.10333,0.19945 -0.144986,0.29622"
            id="path908" />
        <path style="fill:none;stroke:#000000;stroke-width:0.1;stroke-linecap:butt;stroke-linejoin:miter;stroke-miterlimit:4;stroke-dasharray:none;stroke-opacity:1"
            d="m 23.224526,275.43452 c 0.01486,0.18412 0.02973,0.36848 0.04693,0.5797 0.0172,0.21121 0.03666,0.44866 0.03667,0.70213 10e-6,0.25346 -0.01946,0.52212 -0.06302,0.78833 -0.04356,0.26621 -0.111021,0.52883 -0.227025,0.76893 -0.116003,0.2401 -0.27983,0.4559 -0.428103,0.58455 -0.148273,0.12865 -0.280167,0.16906 -0.412531,0.20961"
            id="path912" />
        <path style="fill:none;stroke:#000000;stroke-width:0.1;stroke-linecap:butt;stroke-linejoin:miter;stroke-opacity:1;stroke-miterlimit:4;stroke-dasharray:none"
            d="m 22.22292,279.0471 c -0.03498,0.079 -0.07013,0.1585 -0.10432,0.2487 -0.03419,0.0902 -0.06713,0.1904 -0.08923,0.29324 -0.0221,0.10285 -0.03309,0.20725 -0.04968,0.33963 -0.01659,0.13238 -0.03863,0.29154 -0.06077,0.45144"
            id="path916" />
        <path style="fill:none;stroke:#000000;stroke-width:0.1;stroke-linecap:butt;stroke-linejoin:miter;stroke-opacity:1;stroke-miterlimit:4;stroke-dasharray:none"
            d="m 21.91891,280.38011 c 0.03655,0.12956 0.07315,0.25929 0.103331,0.38476 0.03018,0.12548 0.05385,0.24639 0.05794,0.35764 0.0041,0.11125 -0.01148,0.21242 -0.03099,0.32758 -0.01952,0.11517 -0.04284,0.24341 -0.08771,0.40148 -0.04487,0.15808 -0.110975,0.34472 -0.175996,0.51999 -0.06502,0.17528 -0.125955,0.33143 -0.17279,0.48945 -0.04684,0.15802 -0.07795,0.31361 -0.08038,0.46364 -0.0024,0.15002 0.0239,0.29352 0.05031,0.43749"
            id="path920" />
        <path style="fill:none;stroke:#000000;stroke-width:0.1;stroke-linecap:butt;stroke-linejoin:miter;stroke-opacity:1;stroke-miterlimit:4;stroke-dasharray:none"
            d="m 21.58263,283.76214 c 0.125949,0.0966 0.251895,0.19324 0.362379,0.29042 0.110484,0.0972 0.208331,0.19783 0.304775,0.32182 0.09645,0.124 0.192903,0.27282 0.277824,0.42603 0.08492,0.15322 0.160358,0.31527 0.223769,0.48205 0.06341,0.16679 0.115737,0.34029 0.152966,0.51122 0.03723,0.17093 0.05926,0.33889 0.06754,0.55813 0.0083,0.21924 0.0028,0.48902 -0.03167,0.76613 -0.03445,0.27711 -0.09778,0.5607 -0.174952,0.79506 -0.07718,0.23437 -0.168026,0.41882 -0.294235,0.61247 -0.126209,0.19365 -0.289884,0.39894 -0.449165,0.5557 -0.159282,0.15675 -0.317455,0.26775 -0.507181,0.36793 -0.189725,0.10018 -0.411228,0.18986 -0.555977,0.26288 -0.14475,0.073 -0.212119,0.12916 -0.298813,0.17406 -0.08669,0.0449 -0.190198,0.0776 -0.348252,0.0937 -0.158053,0.0161 -0.368118,0.0151 -0.579073,0.0141"
            id="path924" />
        <path style="fill:none;stroke:#000000;stroke-width:0.1;stroke-linecap:butt;stroke-linejoin:miter;stroke-miterlimit:4;stroke-dasharray:none;stroke-opacity:1"
            d="m 19.820259,289.98502 c -0.359679,0.0358 -0.719641,0.0717 -1.079889,0.10759" id="path928" />
        <path style="fill:none;stroke:#000000;stroke-width:0.1;stroke-linecap:butt;stroke-linejoin:miter;stroke-miterlimit:4;stroke-dasharray:none;stroke-opacity:1"
            d="m 18.751739,290.0616 c -0.04958,0.0552 -0.100464,0.11184 -0.135451,0.15356 -0.03499,0.0417 -0.05436,0.0688 -0.07595,0.10757 -0.02159,0.0387 -0.0447,0.0879 -0.06472,0.1613 -0.02001,0.0734 -0.03634,0.16941 -0.06548,0.22119 -0.02914,0.0518 -0.07112,0.0585 -0.103698,0.0681 -0.03258,0.01 -0.05622,0.0224 -0.07577,0.0334 -0.01954,0.011 -0.03308,0.0192 -0.05013,0.0361 -0.01705,0.017 -0.03661,0.0424 -0.05719,0.0674 -0.02058,0.025 -0.04179,0.0491 -0.06345,0.0737"
            id="path932" />
        <path style="fill:none;stroke:#000000;stroke-width:0.1;stroke-linecap:butt;stroke-linejoin:miter;stroke-miterlimit:4;stroke-dasharray:none;stroke-opacity:1"
            d="m 18.04541,291.19984 c 0.02489,0.0608 0.04957,0.12118 0.07403,0.17762 0.02446,0.0564 0.04993,0.11165 0.0803,0.16687 0.03037,0.0552 0.0661,0.11157 0.110253,0.16469 0.04415,0.0531 0.09648,0.1027 0.151614,0.14749 0.05513,0.0448 0.113036,0.0848 0.176443,0.11575 0.06341,0.031 0.132361,0.053 0.212963,0.0605 0.0806,0.007 0.173268,3.7e-4 0.252304,0.0155 0.07904,0.0151 0.145291,0.0526 0.232025,0.0899 0.08673,0.0373 0.194345,0.0745 0.302479,0.10344 0.108133,0.0289 0.217156,0.0496 0.330039,0.0709 0.112882,0.0213 0.230243,0.0434 0.332125,0.0661 0.101882,0.0227 0.188856,0.0462 0.269345,0.0772 0.08049,0.031 0.155076,0.0696 0.225933,0.14186 0.07086,0.0722 0.138445,0.17844 0.176325,0.24544 0.03788,0.067 0.04609,0.0949 -0.01796,0.10393 -0.06405,0.009 -0.200189,-9.8e-4 -0.343608,-0.007 -0.143419,-0.006 -0.293363,-0.009 -0.440935,-0.0117 -0.147572,-0.003 -0.292022,-0.005 -0.448563,2.2e-4 -0.156541,0.006 -0.324365,0.0193 -0.471222,0.0386 -0.146858,0.0193 -0.272037,0.044 -0.386531,0.0751 -0.114494,0.031 -0.217622,0.0681 -0.32633,0.111 -0.108708,0.0429 -0.222039,0.0911 -0.336051,0.13957"
            id="path936" />
        <path style="fill:none;stroke:#000000;stroke-width:0.1;stroke-linecap:butt;stroke-linejoin:miter;stroke-miterlimit:4;stroke-dasharray:none;stroke-opacity:1"
            d="m 18.27068,293.24245 c -0.04472,0.0693 -0.08965,0.13883 -0.133766,0.20095 -0.04412,0.0621 -0.09042,0.1205 -0.1305,0.18693 -0.04008,0.0664 -0.07499,0.14207 -0.102353,0.21826 -0.02736,0.0762 -0.04676,0.15183 -0.05944,0.21228 -0.01268,0.0604 -0.01846,0.10484 -0.04096,0.18317 -0.0225,0.0783 -0.06126,0.18885 -0.105834,0.30715 -0.04457,0.1183 -0.09577,0.2463 -0.167745,0.39422 -0.07197,0.14791 -0.165738,0.31786 -0.248613,0.45536 -0.08287,0.13749 -0.154845,0.24253 -0.261689,0.36212 -0.106845,0.11958 -0.249732,0.25464 -0.399922,0.3639 -0.15019,0.10925 -0.307745,0.19289 -0.435114,0.24478 -0.127368,0.0519 -0.223855,0.0717 -0.318592,0.0649 -0.09474,-0.007 -0.186808,-0.0402 -0.299326,-0.0687 -0.112519,-0.0285 -0.244816,-0.0518 -0.439899,-0.0772 -0.195083,-0.0254 -0.451914,-0.0526 -0.689788,-0.0887 -0.237874,-0.0361 -0.45595,-0.0808 -0.65972,-0.14325 -0.203771,-0.0624 -0.392649,-0.14222 -0.562309,-0.25338 -0.169661,-0.11115 -0.319621,-0.25332 -0.46678,-0.41607 -0.147159,-0.16276 -0.291364,-0.34594 -0.434586,-0.52132 -0.143222,-0.17537 -0.285514,-0.343 -0.46796,-0.57348 -0.182447,-0.23048 -0.405126,-0.5239 -0.627745,-0.81724"
            id="path940" />
        <path style="fill:none;stroke:#000000;stroke-width:0.1;stroke-linecap:butt;stroke-linejoin:miter;stroke-miterlimit:4;stroke-dasharray:none;stroke-opacity:1"
            d="m 10.513485,290.71273 c 0.03842,0.0645 0.07684,0.12898 0.105029,0.19088 0.02819,0.0619 0.04607,0.12104 0.05988,0.20522 0.01381,0.0842 0.02343,0.19275 0.02826,0.29065 0.0048,0.0979 0.0048,0.18457 0.0069,0.27497 0.0021,0.0904 0.0062,0.18383 0.01033,0.26941 0.0041,0.0856 0.0083,0.16247 0.01927,0.24794 0.01101,0.0855 0.02892,0.17916 0.05104,0.27454 0.02212,0.0954 0.04815,0.19128 0.0854,0.29615 0.03725,0.10486 0.08539,0.21765 0.147297,0.34235 0.06191,0.12471 0.137311,0.26078 0.212847,0.39709"
            id="path944" />
        <path style="fill:none;stroke:#000000;stroke-width:0.1;stroke-linecap:butt;stroke-linejoin:miter;stroke-opacity:1;stroke-miterlimit:4;stroke-dasharray:none"
            d="m 10.53829,290.75407 c -0.03296,-0.012 -0.06607,-0.0241 -0.09528,-0.0296 -0.02922,-0.006 -0.05445,-0.005 -0.08679,0.007 -0.03235,0.0117 -0.07092,0.0339 -0.109104,0.0706 -0.03818,0.0367 -0.07492,0.0869 -0.111592,0.1456 -0.03667,0.0587 -0.07251,0.12452 -0.09987,0.18262 -0.02736,0.0581 -0.045765,0.10752 -0.062768,0.16135 -0.017003,0.0538 -0.032739,0.11283 -0.04692,0.19005 -0.014182,0.0772 -0.026787,0.17225 -0.030706,0.26444 -0.00392,0.0922 9.433e-4,0.18069 0.00984,0.25698 0.0089,0.0763 0.021774,0.13983 -0.00847,0.26675 -0.03024,0.12692 -0.1033357,0.31597 -0.1766899,0.47737 -0.073354,0.1614 -0.1460865,0.29329 -0.2221617,0.4123 -0.076075,0.11902 -0.1548124,0.224 -0.2431183,0.32501 -0.088306,0.10101 -0.1854641,0.1972 -0.2825304,0.28014 -0.097066,0.0829 -0.1932736,0.15194 -0.2957534,0.21393 -0.1024797,0.062 -0.2102932,0.11638 -0.322577,0.16406 -0.1122839,0.0477 -0.2297399,0.0888 -0.3497435,0.12425 -0.1200036,0.0355 -0.2423847,0.0652 -0.3810145,0.10195 -0.1386297,0.0367 -0.2974842,0.0815 -0.4614385,0.12708 -0.1639542,0.0456 -0.3344734,0.0923 -0.5303719,0.13647 -0.1958985,0.0442 -0.4159684,0.0854 -0.5903425,0.10003 -0.1743741,0.0146 -0.3022052,0.002 -0.4304543,-0.01"
            id="path948" />
        <path style="fill:none;stroke:#000000;stroke-width:0.1;stroke-linecap:butt;stroke-linejoin:miter;stroke-miterlimit:4;stroke-dasharray:none;stroke-opacity:1"
            d="m 2.7620187,286.13627 c -0.2314377,0.32467 -0.4630884,0.64965 -0.6534185,0.9473 -0.19033,0.29765 -0.3390248,0.5675 -0.4679719,0.8543 -0.1289471,0.28681 -0.2376938,0.5896 -0.3316326,0.8936 -0.093939,0.304 -0.172047,0.60553 -0.2251341,0.8868 -0.053087,0.28128 -0.080619,0.54008 -0.055695,0.85782 0.024924,0.31775 0.1017836,0.69107 0.2519548,1.06362 0.1501711,0.37255 0.3789908,0.75206 0.643626,1.09663 0.2646351,0.34458 0.5677435,0.65871 0.8759894,0.9054 0.3082458,0.24669 0.6214722,0.42583 0.9494182,0.58842 0.327946,0.16259 0.6707555,0.30871 0.9834463,0.38805 0.3126907,0.0793 0.5954391,0.092 0.8778307,0.10459"
            id="path952" />
        <path style="fill:none;stroke:#000000;stroke-width:0.1;stroke-linecap:butt;stroke-linejoin:miter;stroke-miterlimit:4;stroke-dasharray:none;stroke-opacity:1"
            d="m 2.7386339,286.16258 c 0.1221953,-0.13173 0.2470668,-0.26634 0.3926577,-0.40985 0.1455909,-0.14351 0.3140819,-0.29819 0.5029539,-0.4448 0.188872,-0.14661 0.3991503,-0.28601 0.6511182,-0.40027 0.2519679,-0.11425 0.5468275,-0.20398 0.8330568,-0.26112 0.2862292,-0.0572 0.564898,-0.082 0.7935377,-0.0875 0.2286397,-0.005 0.4079702,0.008 0.610358,0.0455 0.2023878,0.0372 0.4286884,0.0979 0.63802,0.18741 0.2093316,0.0895 0.4024134,0.20813 0.5514604,0.31359 0.1490471,0.10547 0.2543417,0.19799 0.3595833,0.29046"
            id="path956" />
        <path style="fill:none;stroke:#000000;stroke-width:0.1;stroke-linecap:butt;stroke-linejoin:miter;stroke-miterlimit:4;stroke-dasharray:none;stroke-opacity:1"
            d="m 11.374986,280.71269 c -0.244327,0.0187 -0.494412,0.0378 -0.773965,0.0804 -0.279554,0.0426 -0.590644,0.10862 -0.8608501,0.1803 -0.2702058,0.0717 -0.4987307,0.14876 -0.7110772,0.23562 -0.2123466,0.0869 -0.4077683,0.18319 -0.5953423,0.30316 -0.187574,0.11997 -0.3664262,0.26305 -0.5314055,0.42925 -0.1649793,0.16619 -0.3173894,0.3574 -0.4288424,0.55106 -0.111453,0.19366 -0.1835669,0.39336 -0.222207,0.54093 -0.03864,0.14757 -0.04414,0.24383 -0.030392,0.41729 0.013748,0.17347 0.046613,0.42245 0.072801,0.60303 0.026187,0.18057 0.045575,0.29182 0.063555,0.37376 0.01798,0.0819 0.034484,0.13419 0.067659,0.19086 0.033175,0.0567 0.082613,0.1171 0.1557385,0.17228 0.073126,0.0552 0.1695485,0.10476 0.2841525,0.14199 0.1146041,0.0372 0.2465234,0.062 0.3952503,0.0825 0.148727,0.0205 0.3198408,0.0373 0.4434285,0.0562 0.1235878,0.0189 0.1654781,0.0301 0.2627761,0.0612 0.097298,0.031 0.1221036,0.041 0.1884272,0.0918 0.066324,0.0508 0.1431867,0.12539 0.1897861,0.16442 0.046599,0.039 0.034416,0.0394 -0.046847,0.17818 -0.081263,0.13882 -0.014738,0.0456 -0.1449779,0.089 -0.1302396,0.0435 -0.3228442,0.0368 -0.4721147,0.0176 -0.1492704,-0.0192 -0.2537083,-0.051 -0.3584448,-0.0828"
            id="path960" />
        <path style="fill:none;stroke:#000000;stroke-width:0.1;stroke-linecap:butt;stroke-linejoin:miter;stroke-miterlimit:4;stroke-dasharray:none;stroke-opacity:1"
            d="m 11.53048,280.23688 c 0.04422,0.001 0.08679,0.002 0.130659,0.01 0.04387,0.008 0.09026,0.0224 0.137668,0.0426 0.04741,0.0203 0.09722,0.0465 0.145695,0.0792 0.04848,0.0327 0.09614,0.072 0.134681,0.10988 0.03854,0.0378 0.06821,0.0744 0.09129,0.10817 0.02307,0.0337 0.03961,0.0647 0.05133,0.0974 0.01172,0.0327 0.01858,0.067 0.02035,0.0985 0.0018,0.0315 -0.0016,0.0598 -0.01506,0.083 -0.01342,0.0232 -0.03665,0.0408 -0.06716,0.0536 -0.03051,0.0128 -0.06734,0.0203 -0.111666,0.0206 -0.04433,3.5e-4 -0.09492,-0.007 -0.147775,-0.0168 -0.05286,-0.0104 -0.107045,-0.0241 -0.204479,-0.0602 -0.09743,-0.0361 -0.236814,-0.0941 -0.376827,-0.15233"
            id="path964" />
    </g>
</svg>