<svg xmlns="http://www.w3.org/2000/svg" width="75" height="75" viewBox="0 0 38.5 50" version="1.1" id="svg8514" license="CCBY4.0" author="Provart Lab - Bio Analytic Resource, University of Toronto">
  <g id="layer1" transform="translate(0 -247)">
    <g transform="translate(-762 -135)" id="F15-18" style="stroke-width:.13229166;stroke-miterlimit:4;stroke-dasharray:none">
      <g id="flowerDevelopmentPart15" transform="translate(657 313) scale(.26458)" fill="none" style="stroke-width:.5;stroke-miterlimit:4;stroke-dasharray:none">
        <path style="fill-opacity:1;stroke-width:.5;stroke-miterlimit:4;stroke-dasharray:none" d="M468 371c-3-4-4-10-7-16-2-10-6-19-10-28-11 1-17-11-20-19 1-12 1-24 9-33 4-7 14-7 18-2l6 5c16 4 21 27 8 38-6 5-3 15-1 22 2 9 4 20 8 30-3 2-8 1-11 3z" id="path7976-2"/>
        <path style="fill-opacity:1;stroke-width:.5;stroke-miterlimit:4;stroke-dasharray:none" d="M515 378c-8-12-9-27-12-41-1-7-8-10-9-17-5-14 2-33 18-36 10 1 17 10 24 17 3 11-2 25-13 29 2 3-1 9 1 13 1 9 4 20 1 29-3 3-7 4-10 6z" id="path7986-0"/>
        <path style="fill-opacity:1;stroke-width:.5;stroke-miterlimit:4;stroke-dasharray:none" d="M423 442c-4-4-15 0-11-8 0-12 3-25 2-36-6-7-14-16-9-26 2-6 2-9 7-12 8-7 22-16 30-5 4 5 7 10 9 16s2 12-3 17c-4 8-15 9-21 13 1 13-3 25-2 37-2 0 1 5-2 4z" id="path7956-5"/>
        <path style="fill-opacity:1;stroke-width:.5;stroke-miterlimit:4;stroke-dasharray:none" d="M463 449c-11-6-1-17 0-26 2-10-9-19-2-29 0-9 11-13 18-16 13 1 19 14 20 25 0 11-11 12-18 17-8 8-6 22-14 29h-4z" id="path7966-2"/>
      </g>
      <g id="g12303" style="stroke-width:.13229166;stroke-miterlimit:4;stroke-dasharray:none">
        <g id="g12262" style="stroke-width:.13229166;stroke-miterlimit:4;stroke-dasharray:none">
          <path id="path12238" d="M771 394s0-3 4-5l4-3" style="fill:none;stroke:#000;stroke-width:.13229166;stroke-linecap:butt;stroke-linejoin:miter;stroke-miterlimit:4;stroke-dasharray:none;stroke-opacity:1"/>
          <path id="path12240" d="M774 389s1 6 4 9l3-1" style="fill:none;stroke:#000;stroke-width:.13229166;stroke-linecap:butt;stroke-linejoin:miter;stroke-miterlimit:4;stroke-dasharray:none;stroke-opacity:1"/>
          <path id="path12242" d="m778 398-2 1" style="fill:none;stroke:#000;stroke-width:.13229166;stroke-linecap:butt;stroke-linejoin:miter;stroke-miterlimit:4;stroke-dasharray:none;stroke-opacity:1"/>
        </g>
        <g id="g12257" style="stroke-width:.13229166;stroke-miterlimit:4;stroke-dasharray:none">
          <path id="path12244" d="M787 393s4-3 9-3" style="fill:none;stroke:#000;stroke-width:.13229166;stroke-linecap:butt;stroke-linejoin:miter;stroke-miterlimit:4;stroke-dasharray:none;stroke-opacity:1"/>
          <path id="path12250" d="M791 391s-1 5 1 9h3" style="fill:none;stroke:#000;stroke-width:.13229166;stroke-linecap:butt;stroke-linejoin:miter;stroke-miterlimit:4;stroke-dasharray:none;stroke-opacity:1"/>
          <path id="path12252" d="m792 400-3 1" style="fill:none;stroke:#000;stroke-width:.13229166;stroke-linecap:butt;stroke-linejoin:miter;stroke-miterlimit:4;stroke-dasharray:none;stroke-opacity:1"/>
        </g>
        <g id="g12273" style="stroke-width:.13229166;stroke-miterlimit:4;stroke-dasharray:none">
          <path id="path12264" d="M764 410s1-2 5-2h6" style="fill:none;stroke:#000;stroke-width:.13229166;stroke-linecap:butt;stroke-linejoin:miter;stroke-miterlimit:4;stroke-dasharray:none;stroke-opacity:1"/>
          <path id="path12266" d="M769 409s-4 4-2 8c0 0 0 2 3 2" style="fill:none;stroke:#000;stroke-width:.13229166;stroke-linecap:butt;stroke-linejoin:miter;stroke-miterlimit:4;stroke-dasharray:none;stroke-opacity:1"/>
          <path id="path12268" d="M767 418h-1" style="fill:none;stroke:#000;stroke-width:.13229166;stroke-linecap:butt;stroke-linejoin:miter;stroke-miterlimit:4;stroke-dasharray:none;stroke-opacity:1"/>
        </g>
        <g id="g12285" style="stroke-width:.13229166;stroke-miterlimit:4;stroke-dasharray:none">
          <path id="path12276" d="M779 417s1-2 2-1c2 2 4 1 4 1h3" style="fill:none;stroke:#000;stroke-width:.13229166;stroke-linecap:butt;stroke-linejoin:miter;stroke-miterlimit:4;stroke-dasharray:none;stroke-opacity:1"/>
          <path id="path12278" d="M782 417s-3 2 0 6l2 1" style="fill:none;stroke:#000;stroke-width:.13229166;stroke-linecap:butt;stroke-linejoin:miter;stroke-miterlimit:4;stroke-dasharray:none;stroke-opacity:1"/>
          <path id="path12280" d="M782 423h-3" style="fill:none;stroke:#000;stroke-width:.13229166;stroke-linecap:butt;stroke-linejoin:miter;stroke-miterlimit:4;stroke-dasharray:none;stroke-opacity:1"/>
        </g>
      </g>
    </g>
    <path style="fill:none;stroke:#000;stroke-width:.1;stroke-linecap:butt;stroke-linejoin:miter;stroke-miterlimit:4;stroke-dasharray:none;stroke-opacity:1" d="M16 250c1 0 0 0 0 0l-1-1h-3l-1 1v1h-1v2H9v6" id="path4543"/>
    <path style="fill:none;stroke:#000;stroke-width:.1;stroke-linecap:butt;stroke-linejoin:miter;stroke-miterlimit:4;stroke-dasharray:none;stroke-opacity:1" d="m16 250 1 1h1a5 5 0 0 1 3 3 9 9 0 0 1 0 2 7 7 0 0 1 0 2v1a4 4 0 0 1-1 2l-1 1" id="path4552"/>
    <path style="fill:none;stroke:#000;stroke-width:.1;stroke-linecap:butt;stroke-linejoin:miter;stroke-miterlimit:4;stroke-dasharray:none;stroke-opacity:1" d="m8 259 1 1a19 19 0 0 0 2 3 5 5 0 0 0 1 1h2" id="path4556"/>
    <path style="fill:none;stroke:#000;stroke-width:.1;stroke-linecap:butt;stroke-linejoin:miter;stroke-miterlimit:4;stroke-dasharray:none;stroke-opacity:1" d="M19 262v1l-1 1 1 1v2l1 3 1 4v1h-3v-1l-1-2-1-3-1-3-1-2" id="path4564"/>
    <path style="fill:none;stroke:#000;stroke-width:.1;stroke-linecap:butt;stroke-linejoin:miter;stroke-miterlimit:4;stroke-dasharray:none;stroke-opacity:1" d="m25 258 1-2a7 7 0 0 1 2-2l2-1h2l1 1 1 1" id="path4568"/>
    <path style="fill:none;stroke:#000;stroke-width:.1;stroke-linecap:butt;stroke-linejoin:miter;stroke-miterlimit:4;stroke-dasharray:none;stroke-opacity:1" d="m34 255 2 2v2a9 9 0 0 1 0 3 5 5 0 0 1-2 2l-1 1" id="path4572"/>
    <path style="fill:none;stroke:#000;stroke-width:.1;stroke-linecap:butt;stroke-linejoin:miter;stroke-miterlimit:4;stroke-dasharray:none;stroke-opacity:1" d="M25 258a15 15 0 0 0 0 2 9 9 0 0 0 0 3l1 1 1 1v1" id="path4576"/>
    <path style="fill:none;stroke:#000;stroke-width:.1;stroke-linecap:butt;stroke-linejoin:miter;stroke-miterlimit:4;stroke-dasharray:none;stroke-opacity:1" d="M27 266a25 25 0 0 1 1 2v2a57 57 0 0 0 2 6l1 1h1l1-1 1-1a17 17 0 0 0-1-4v-6" id="path4580"/>
    <path style="fill:none;stroke:#000;stroke-width:.1;stroke-linecap:butt;stroke-linejoin:miter;stroke-opacity:1;stroke-miterlimit:4;stroke-dasharray:none" d="M2 275v-1h1v-1h1v-1a19 19 0 0 1 3-1 7 7 0 0 1 1-1 4 4 0 0 1 1 0h1l1 1a16 16 0 0 1 1 2" id="path4584"/>
    <path style="fill:none;stroke:#000;stroke-width:.1;stroke-linecap:butt;stroke-linejoin:miter;stroke-miterlimit:4;stroke-dasharray:none;stroke-opacity:1" d="M2 275v1l-1 1v2l1 1 1 2 1 1" id="path4588"/>
    <path style="fill:none;stroke:#000;stroke-width:.1;stroke-linecap:butt;stroke-linejoin:miter;stroke-miterlimit:4;stroke-dasharray:none;stroke-opacity:1" d="m12 273 1 1a18 18 0 0 1 1 2v1a7 7 0 0 1 0 2l-1 1v1h-1l-1 1-2 1-2 1" id="path4592"/>
    <path style="fill:none;stroke:#000;stroke-width:.1;stroke-linecap:butt;stroke-linejoin:miter;stroke-miterlimit:4;stroke-dasharray:none;stroke-opacity:1" d="M4 283v1a25 25 0 0 1 0 4v2l-1 2v1l1 1h3v-6a41 41 0 0 0 0-4" id="path4596"/>
    <path style="fill:none;stroke:#000;stroke-width:.1;stroke-linecap:butt;stroke-linejoin:miter;stroke-miterlimit:4;stroke-dasharray:none;stroke-opacity:1" d="M17 282v-2l1-1h1l1-1h3a4 4 0 0 1 2 1v1l1 2" id="path4600"/>
    <path style="fill:none;stroke:#000;stroke-width:.1;stroke-linecap:butt;stroke-linejoin:miter;stroke-miterlimit:4;stroke-dasharray:none;stroke-opacity:1" d="M17 282h-1a3 3 0 0 0 0 2v1l1 1v2" id="path4604"/>
    <path style="fill:none;stroke:#000;stroke-width:.1;stroke-linecap:butt;stroke-linejoin:miter;stroke-miterlimit:4;stroke-dasharray:none;stroke-opacity:1" d="M26 282v1l1 1-1 1a3 3 0 0 1-1 2l-2 1-1 1" id="path4608"/>
    <path style="fill:none;stroke:#000;stroke-width:.1;stroke-linecap:butt;stroke-linejoin:miter;stroke-miterlimit:4;stroke-dasharray:none;stroke-opacity:1" d="M17 288a19 19 0 0 1 0 1v2l-1 1v4h3v-2l1-1v-2l1-1 1-1" id="path4612"/>
  </g>
</svg>