<svg xmlns="http://www.w3.org/2000/svg" width="75" height="75" viewBox="0 0 300 300" xml:space="preserve" license="CCBY4.0" author="Provart Lab - Bio Analytic Resource, University of Toronto">
  <g id="shapes">
    <path id="flowerBud" fill="none" d="M101 57s3-11 15-16c9-4 13-7 17-3 4-6 14-16 28-1 9-1 30 4 39 27 3 9 12 42 7 65-3 15-10 32-29 58 1 2 3 7-4 16-3 8-10 38-6 50l-22 6c-1-8-9-44-16-53-4-4-5-13-3-18-6-6-50-42-39-92 4-18 11-35 13-39z"/>
  </g>
  <g id="outline" fill="none" stroke="#000" stroke-width=".5" stroke-miterlimit="10">
    <path d="M101 57s3-11 15-16c9-4 13-7 17-3 4-6 14-16 28-1 9-1 30 4 39 27 3 9 12 42 7 65-3 15-10 32-29 58 1 2 3 7-4 16-3 8-10 38-6 50l-22 6c-1-8-9-44-16-53-4-4-5-13-3-18-6-6-50-42-39-92 4-18 11-35 13-39z"/>
    <path d="M133 38c-2 4-9 14-17 35-23 63 10 93 11 94m45 0c46-68 0-119-11-130m-33 153c5 2 18 5 30 5 8 0 15-2 19-6"/>
  </g>
</svg>