<svg xmlns="http://www.w3.org/2000/svg" viewBox="0 0 36 46" id="svg10082"><g id="layer1" transform="translate(0 -251)"><g transform="translate(-632.8574 -134.65089)" id="F6-8" stroke-width=".13229166"><g id="flowerDevelopmentPart6" transform="matrix(.3934 0 0 .3934 602.63653 366.70431)" fill="none" stroke-width=".33628112"><path d="M99.168236 163.03813c-8.00104 1.19142-4.50917-6.8333-4.86904-12.33806.2589-5.70456-8.37325-4.89941-9.20169-11.04974-7.3478-11.99641-9.47687-27.53006-1.34771-39.978442-.78539-5.67514 9.95901-8.2823 14.53855-6.96271 2.720814 4.11733 5.542374 11.788992 8.197294 17.413212 5.48904 11.62464 4.49382 25.43428-4.51678 35.1473-1.6523 5.88605 5.68544 17.39859-2.800624 17.76844z" id="path7944-2"/><path d="M123.1613 114.2442c-9.53671 2.37801-.15604-13.19848-8.27105-13.39104-9.54109-5.20015-13.6923-16.426184-9.46106-26.981344.72403-12.16499 12.26262-24.63643 25.20101-23.55278 7.05186 2.50672 9.52282 9.27855 10.25925 15.93959.75958 6.87051 2.71777 12.86163.29854 19.98124.32676 7.227544-5.55917 13.275184-11.52756 15.260994-3.04437 3.34831-.1647 13.92283-6.49913 12.74334z" id="path7924-1"/><path d="M143.2956 159.72925c-2.00344-4.1965 2.48293-12.31087-1.16536-17.84797-8.94804-2.77283-11.59928-16.54594-5.15971-24.18527 4.02803-6.74245 7.63162-20.21068 18.38256-16.36321 4.94423 1.63343 6.3538 8.34875 5.53686 10.85779 3.19408 7.38345 8.1554 19.56723 1.52352 26.61826-1.47625 4.92798-10.11028 2.20595-8.47615 7.60008-3.16847 4.79317-.32772 14.4489-7.88975 12.74273-.87805.28481-1.93423.0784-2.75197.57759z" id="path7934-2"/></g><g id="g12157"><g id="g12143"><path id="path1891" d="M643.67856 408.37395s-4.0296-2.39253-8.09519-2.4591" fill="none" stroke="#000"/><path id="path1893" d="M642.7507 423.85284s-1.08334.33009-1.92524-.65212l-2.75957.74836" fill="none" stroke="#000"/><path id="path1895" d="M640.82546 423.20072s-2.47894-4.95784-2.57247-9.30765c0 0 .46771-7.15615-.93545-7.76419" fill="none" stroke="#000"/></g><g id="g12138"><path id="path12118" d="M644.11198 395.7652s4.64635-7.46995 12.45155-6.61006" fill="none" stroke="#000"/><path id="path12120" d="M650.54426 390.14733s-1.45521-.13229-1.98437 6.94531c0 0-1.75287 6.15156 1.52135 8.99583 0 0 1.3717 1.654 3.56319.54588 0 0 4.07666-4.08468 4.37431-13.41125" fill="none" stroke="#000"/><path id="path12122" d="M648.65911 406.61764s1.41724 1.21454 2.21588.0992" fill="none" stroke="#000"/></g><g id="g12133"><path id="path12124" d="M656.52019 413.00545s5.87786-6.64197 9.40983-2.1658" fill="none" stroke="#000"/><path id="path12126" d="M662.08671 409.36269s-.89297.42995-1.05833 1.42214c0 0-4.32511 11.3914-.70735 12.16145 0 0 1.30266 1.76224 2.89016.34011 0 0 2.74505-2.18282 3.24114-11.27787" fill="none" stroke="#000"/><path id="path12128" d="M658.55003 422.51984s.50141.91316 1.77101.42646" fill="none" stroke="#000"/></g></g></g><path d="M25.69263 287.86895c.06128.10444.122601.20896.176902.31588.0543.10691.10151.21608.138438.30913.03693.0931.06348.16974.08934.2562.02587.0865.05091.18222.07235.28197.02143.0997.03911.2029.05463.31597.01552.11306.02878.23536.03765.36097.0089.12561.01329.25382.01256.4031-.000735.14928-.0066.31874-.01919.52194-.01256.2032-.03172.43906-.0657.73086-.03398.29181-.08264.63836-.122413.94705-.03977.30869-.07053.57864-.08958.76966-.01906.19101-.02635.30259-.03054.42387-.0042.12128-.0052.25145-.0036.35069.0016.0992.0057.16701.01463.25439.0089.0874.02242.19348.03966.28652.01725.0931.03807.17218.06427.25221.0262.08.05758.1603.08029.19678.02271.0365.036.0292.05393.0199.01793-.009.0414-.0211.06887-.0324.02746-.0114.06026-.023.102288-.0349.04202-.0119.09473-.0246.16028-.035.06555-.0104.145327-.0188.218828-.0261.0735-.007.141562-.0136.194179-.0193.05262-.006.09042-.011.123151-.0167.03273-.006.06125-.0121.08866-.0186.02742-.006.05462-.0133.08306-.0138.02845-.00051.05938.005.09847.0128.03909.008.08744.017.137983.0248.05054.008.104004.0141.167022.0198.06302.006.136413.011.196896.0126.06048.002.108663-.0004.152401-.003.04374-.002.08371-.006.127925-.0117.04421-.006.09355-.0156.142477-.0276.04893-.012.09829-.0267.140477-.0408.04218-.0141.0779-.0277.114791-.0449.0369-.0172.07585-.0382.116911-.0637.04106-.0255.08525-.056.124278-.0867.03902-.0307.07369-.0622.113188-.10384.0395-.0416.08473-.0942.124277-.14677.03955-.0526.0742-.10613.109575-.16858.03537-.0624.07212-.13488.105967-.21197.03384-.0771.0653-.15991.09602-.2547.03072-.0948.06112-.20275.09134-.32418.03022-.12142.06059-.25754.08457-.37487.02398-.11732.04178-.21676.06366-.34597.02188-.12921.04806-.28944.07518-.45944.02712-.17.05535-.35095.08457-.51736.02921-.1664.05954-.31907.08406-.44061.02452-.12153.04335-.21255.06889-.31.02554-.0974.05802-.2022.08981-.29967.0318-.0975.06322-.18859.09658-.27353.03336-.0849.06899-.16459.101825-.23232.03284-.0677.06324-.12436.08461-.16502.02136-.0407.03396-.0659.05042-.0933.01646-.0275.03737-.0581.04251-.0913.0051-.0332-.0051-.0701-.01595-.11488-.0108-.0448-.02233-.0982-.03066-.1519-.0083-.0537-.01357-.1082-.01617-.15668-.0026-.0485-.0026-.0915.0026-.1409s.01572-.10615.02512-.14786c.0094-.0417.0178-.069.03182-.10165.01401-.0326.03405-.0717.06105-.12826.027-.0566.06174-.1324.103992-.17715.04225-.0448.09259-.0595.135803-.0772.04322-.0177.07999-.0387.111714-.0569.03173-.0182.0591-.034.09848-.0532.03938-.0192.09217-.0424.157699-.0689.06552-.0265.145368-.057.243272-.0892.0979-.0323.215307-.0669.354467-.10804.139159-.0412.301402-.0893.436493-.13053.135091-.0412.243904-.0757.319526-.1013.07562-.0256.118577-.0423.180379-.0673.0618-.0249.143859-.0586.224083-.0982.08022-.0396.159873-.0857.226076-.12691.0662-.0412.119618-.0778.160248-.10806.04063-.0302.06901-.0544.10324-.0871s.07537-.0749.111789-.11547c.03642-.0406.06898-.0805.0981-.12057.02912-.0401.05541-.0811.08139-.12681.02598-.0457.05229-.0973.07161-.13967.01932-.0424.03179-.0756.04291-.10609.01112-.0305.021-.0585.05571-.10558.03471-.0471.09553-.11512.16197-.19553.06644-.0804.139845-.17478.203427-.26339.06358-.0886.118051-.17241.169118-.25684.05107-.0844.09925-.17032.127418-.2204.02817-.0501.03655-.0648.06473-.12624.02817-.0615.07829-.17452.121564-.27932.04327-.1048.08095-.20424.109093-.284.02815-.0797.047-.14052.06418-.19727.01718-.0567.03293-.11029.05217-.18518.01924-.0749.04234-.17253.06267-.26845.02032-.0959.03812-.19119.05479-.30269.01667-.1115.03238-.24033.048-.36845" id="path10186" fill="none" stroke="#000" stroke-width=".1"/><path d="M34.936117 283.69336c.0094-.16122.01879-.32215.02242-.47764.0036-.1555.0015-.3061-.0068-.48027-.0084-.17417-.023-.37288-.04074-.55234-.01774-.17947-.03865-.34044-.06681-.52508-.02817-.18464-.06371-.39374-.101282-.58365-.03757-.18992-.07728-.36131-.122147-.54598-.04486-.18468-.09503-.38327-.145127-.5638-.05009-.18053-.100252-.34355-.159726-.53032-.05947-.18677-.128451-.39788-.19733-.60034-.06888-.20246-.137839-.3968-.206718-.58256-.06888-.18576-.13784-.36338-.22028-.56896-.08244-.20558-.178562-.43962-.275629-.67341-.09707-.2338-.195259-.46779-.255801-.61079-.06054-.143-.08354-.19526-.08658-.23812-.003-.0429.0137-.0764.02718-.11892.01347-.0426.02401-.0952.03336-.18048.0094-.0853.01775-.20496.01879-.31549.001-.11052-.0052-.21308-.01463-.31526-.0094-.10218-.02195-.20474-.04176-.32464-.01981-.1199-.04702-.25802-.07936-.3905s-.06998-.26004-.1138-.38626c-.04382-.12623-.094-.25168-.163898-.40086-.0699-.14918-.159779-.32268-.246402-.46878-.08662-.14611-.170195-.2652-.269338-.38626-.09914-.12105-.214035-.2443-.330926-.35076-.11689-.10646-.235937-.19627-.346593-.27143-.110656-.0752-.212956-.13571-.301695-.18166-.08874-.046-.163848-.0773-.234898-.10443-.07105-.0272-.137742-.0501-.207771-.0731-.07003-.023-.14294-.0459-.22447-.07-.08153-.024-.171111-.0491-.26306-.07-.09195-.0209-.185735-.0376-.27351-.0512-.08778-.0136-.169028-.024-.270446-.0313-.101419-.007-.222217-.0115-.335062-.0104-.112845.001-.217031.007-.315285.0167-.09825.009-.189877.0219-.302832.047s-.246169.0626-.364262.10122c-.118093.0386-.220173.0782-.316358.12214-.09618.0439-.185702.0918-.26204.13569-.07634.0439-.138741.0834-.204682.12635-.06594.0429-.134501.0886-.205676.14094-.07118.0523-.143913.11051-.226584.18271-.08267.0722-.174177.15747-.28295.26832-.108773.11086-.233684.24618-.343415.37367-.109731.12748-.203497.24625-.304911.38425-.101414.138-.209726.29422-.33411.48758-.124384.19336-.264013.4226-.413426.68485-.149413.26225-.307888.55626-.459355.84561-.151466.28935-.295387.57302-.428047.84042-.13266.26741-.253632.5177-.373765.75797-.120132.24027-.239004.46967-.336147.6556-.09714.18593-.172208.32772-.262079.46464-.08987.13693-.194039.26818-.288107.39569-.09407.1275-.177403.25042-.272561.41458-.09516.16416-.201385.36828-.286018.55006-.08463.18177-.14718.34022-.191072.4583-.04389.11807-.06889.19514-.0961.28618-.02721.091-.05632.19502-.08875.32576-.03243.13074-.06782.28688-.09395.42481s-.0428.25672-.05744.35916c-.01463.10244-.02712.1878-.03654.29452-.0094.10672-.01566.23365-.0188.36639-.0031.13275-.0031.27026-.0011.40611.0021.13586.0063.26924.0167.40197.01045.13274.02712.26403.0522.42498.02508.16095.05843.35063.100213.53972.04178.18908.09184.3768.143021.54289.05118.16609.103329.31002.167053.46567.06372.15566.138816.32253.226554.49384.08774.1713.187891.34657.280837.49382.09295.14726.178513.26622.275638.38841.09713.12218.205657.24742.313212.36228.107554.11486.214024.21925.330979.32054.116954.10128.244314.19941.36751.28711.123196.0877.242235.16497.358116.23178.115881.0668.22869.12322.360066.17817.131376.055.281591.10859.431524.16212" id="path10733" fill="none" stroke="#000" stroke-width=".1"/><path d="M15.80171 271.96675c.111586.0911.223155.18218.272835.23177.04968.0496.03714.058.04458.0836.0074.0256.03395.0664.06424.12909.03029.0627.06364.14604.0908.22436.02716.0783.04801.15132.06578.23282.01777.0815.03236.17112.04595.29972.01359.1286.02609.29524.03028.4948.0042.19956.000013.43101-.0073.68068-.0073.24967-.01774.51663-.02191.7412-.0042.22456-.0021.40603.0042.55124.0063.14521.01669.25364.02923.34772.01254.0941.02712.17322.04908.25794.02196.0847.0511.17423.08351.25055.0324.0763.06783.13883.108593.19632.04077.0575.08664.10963.136789.15559.05015.046.104437.0856.16397.11696.05953.0313.124321.0543.184822.072.0605.0177.117017.0303.17644.0397.05942.009.12228.0157.204592.0136.08231-.002.185004-.0126.276787-.0219.09178-.009.173409-.0177.242499-.0288.06909-.0111.126243-.0251.17928-.0282.05304-.003.102907.005.170318.0105.06741.006.153388.0101.237855.007.08447-.003.168228-.0136.254732-.0355.0865-.0219.176626-.0554.254807-.094.07818-.0386.145236-.0826.214982-.14718.06975-.0646.143156-.15057.209829-.25478.06667-.10421.127426-.22781.183705-.37792.05628-.15011.108616-.32806.153454-.52622.04484-.19816.08249-.4178.122126-.70048.03964-.28269.08145-.62978.115898-.89802.03444-.26823.06161-.4584.09292-.62847.03131-.17007.06686-.32064.104417-.45832.03756-.13769.07731-.26323.111743-.3571.03443-.0939.06376-.15669.100211-.22438.03646-.0677.08052-.14111.120571-.19837.04005-.0573.07662-.0991.144179-.13858.06756-.0395.16756-.0774.321303-.14413.153744-.0667.363219-.16309.55206-.25804.188841-.095.358223-.18905.542824-.30483.1846-.11577.385422-.25384.569036-.39365s.35091-.28201.521966-.44369c.171056-.16168.346751-.34365.494898-.51059.148146-.16694.269436-.3196.390411-.48751.120976-.16792.242315-.35202.345583-.52624.103268-.17422.189021-.33945.266192-.5105.07717-.17106.146207-.34887.200447-.50327.05424-.1544.09398-.28618.12943-.41965.03545-.13346.06684-.26952.0929-.4207.02606-.15119.04699-.31861.0595-.45944.01251-.14084.01669-.25588.01813-.35531.0014-.0994.00013-.18396.01788-.28507.01775-.10111.05468-.21974.0939-.35488.03922-.13514.0811-.28798.116554-.43816.03545-.15018.06475-.29874.09186-.45204.02711-.1533.05222-.31232.07099-.46877.01877-.15645.03132-.31126.04175-.47709.01043-.16583.0188-.34364.02088-.52619.0021-.18255-.0021-.37076-.0084-.54918-.0063-.17841-.01463-.34777-.03132-.55742-.01669-.20966-.04179-.46059-.07518-.7392-.03339-.2786-.07519-.58583-.126329-.93961-.05114-.35377-.111733-.75497-.158705-1.06916-.04697-.31419-.0804-.54191-.114003-.66383-.0336-.12192-.06758-.13846-.06746-.14473.000126-.006.03398-.002.04252-.0585.0085-.0562-.0083-.17392-.02808-.32722-.01981-.15329-.04282-.34366-.06995-.53251-.02713-.18885-.05849-.377-.09918-.58775-.04069-.21075-.09086-.44487-.139913-.64837-.04905-.2035-.09712-.37696-.160765-.57624-.06365-.19928-.143073-.42502-.217175-.61183-.0741-.18681-.143058-.33517-.196295-.4479-.05324-.11274-.09084-.19003-.191388-.23205-.100552-.042-.264859-.049-.265774-.0521-.000915-.003.160815-.002.227059-.0262.06624-.0237.03696-.0718-.0016-.13645-.0386-.0647-.08669-.14623-.162849-.26412-.07616-.11788-.180663-.27255-.292342-.42181-.11168-.14925-.230738-.29338-.363301-.43533-.132564-.14196-.278758-.28189-.42908-.40925-.150322-.12735-.304831-.24219-.494852-.36227-.19002-.12007-.415466-.24532-.618718-.34685-.203251-.10153-.384176-.17926-.593002-.22314-.208825-.0439-.445287-.0538-.695277-.0494-.24999.004-.512796.0232-.736309.0462-.223514.023-.407063.0501-.61082.0908-.203757.0407-.426818.0949-.656664.16076-.229847.0658-.465468.14296-.683809.22444-.218341.0815-.418511.16696-.603439.25159-.184928.0846-.353786.16801-.552367.27879-.198581.11078-.425749.24833-.634689.38622-.208941.13789-.398693.27551-.587814.42179-.189121.14627-.376753.30055-.538688.44262-.161936.14208-.297451.27134-.45633.43125-.158879.15992-.340174.34956-.510474.5397-.1703.19014-.328765.37988-.484451.58257-.155686.20269-.307886.41744-.452067.63684-.144182.21939-.279716.4425-.399861.65249-.120146.20998-.224401.40598-.32681.61705-.102408.21107-.202472.43622-.286056.64411-.08358.2079-.150305.39764-.218235.60977-.06793.21214-.136719.44561-.188957.64409-.05224.19848-.08769.36112-.121132.53879-.03345.17766-.06471.36941-.08665.52925-.02194.15984-.03445.28701-.04211.37363-.0077.0866-.01041.13223-.03241.20981-.02199.0776-.06282.18568-.115825.34373-.05301.15805-.117546.36416-.170832.54908-.05329.18491-.09498.34753-.13575.53044-.04077.1829-.08036.38505-.105438.53546-.02508.15041-.03551.24843-.04805.37079-.01255.12237-.02712.2681-.03654.41755-.0094.14945-.01358.30158-.01358.45729-.000004.15571.0042.31412.01043.4583.0063.14419.01461.27344.02819.41558.01359.14214.03234.29636.05637.45204.02403.15569.05322.31207.09606.50433.04284.19226.09914.41955.164942.6389.0658.21935.140906.43006.223417.64.08251.20994.17223.41859.257867.59927.08564.18068.167018.33301.245345.47087.07833.13786.153453.26098.249543.40512.09609.14413.212951.30899.317373.44892.104421.13992.196268.25473.310091.38839.113824.13367.249507.28605.378982.42074.129475.1347.252656.25162.409263.38839s.346635.29338.530384.43328c.183749.1399.361256.26311.541683.37938.180428.11626.363888.22565.512178.28515.148291.0595.261474.0692.369034.0897.10756.0205.210092.0519.290964.0867.08087.0348.140656.0733.200245.11161" id="path10741" fill="none" stroke="#000" stroke-width=".1"/><path d="M2.6585694 271.37572c-.067401.11176-.2023872.33559-.3349431.56874-.132556.23315-.2623074.47496-.3879021.73795-.1255947.263-.246506.54611-.3558312.82236-.1093253.27626-.2066613.54467-.2967904.82981-.090129.28514-.1727126.58598-.2391905.85778-.0664779.2718-.11662534.51369-.16095481.77077-.0443295.25709-.0826682.52841-.10925948.73815-.0265912.20975-.0413403.35724-.0546479.55829-.0133076.20105-.0250964.45451-.0310088.71895-.005912.26444-.005912.53877.002946.80171.008858.26294.0265591.5137.0516705.78404.0251114.27034.0575627.55945.0959631.83419.0384004.27473.0826587.53438.14174436.82835.0590856.29396.1328469.62146.2258949.97446.093048.353.2051933.73075.3159515 1.06599.1107583.33524.2199673.62745.3469795.94055.1270123.31311.2716329.64662.4148799.95527.1432471.30865.2849321.59202.4467308.8926.1617986.30058.3435153.618.435317.78448.091802.16648.093588.18198.099248.2131.00566.0311.014906.0763.024319.12077.00941.0445.018786.0872.029239.12898.010453.0418.021903.0824.034982.12271.013079.0403.027631.0798.046466.12321.018835.0434.041716.0902.066278.13936.024562.0491.050607.10017.079352.15035.028745.0502.060016.0992.094502.14829.034486.0491.072018.0981.1158872.15139.043869.0533.09394.11064.1482431.16651.054303.0559.1127676.11016.1738535.16289.061086.0527.1247747.10389.1889756.15295.064201.0491.1289606.0961.2051461.14825.076186.0522.1639557.10964.307965.19678.1440093.0871.3446081.20415.5184072.30645.1737992.1023.3210654.19003.4202294.25214.099164.0621.1503204.0987.1983383.13205.048018.0334.092956.0637.1409272.0992.047971.0354.09921.0762.1508464.12057.051636.0443.1038919.0924.152422.14094.04853.0485.093444.0976.1383353.15295.044891.0553.089746.11688.1309845.18264.041238.0658.078808.13569.1070099.19782.028202.0621.046968.11634.062121.16336.015153.047.026615.0866.036556.1321.00994.0455.018258.0964.025063.15868.00681.0623.012005.13505.014126.19251.00212.0575.00112.0991.00217.15779.00104.0587.00411.13343.00618.22497.00207.0915.00311.1987.0005014.30845-.00261.10976-.00886.2212-.017219.33984-.00836.11865-.018775.24362-.033411.40567-.014636.16205-.033386.35996-.051669.55428-.018283.19433-.036006.38407-.048544.53502-.012538.15094-.019834.26248-.025064.37277-.00523.11028-.00836.21859-.00888.32102-.0005261.10243.00156.19827.00522.28453.00366.0863.00886.16222.018273.23703.00941.0748.022931.14761.035994.2072.013063.0596.025554.10539.037057.14669.011503.0413.021903.0777.034475.11439.012572.0367.027095.073.04541.11276.018315.0398.040179.0825.061606.12009.021427.0376.042262.0699.067363.1034.025101.0335.054233.0678.085581.10124.031348.0334.064762.0658.1065307.0987.041769.0329.091928.0663.1362867.0924.044359.0261.083026.0449.1252658.0637.04224.0188.088288.0376.1440871.0548.055799.0172.1217614.0329.1952589.046.073498.013.1551721.0235.2432787.0297.088107.006.1833768.008.2735986.005.090222-.003.1760272-.0116.2545337-.0196.078507-.008.1503587-.0156.2264002-.0229.076042-.007.1571835-.0143.2360862-.024.078903-.01.1564203-.0223.2350926-.04.078672-.0177.159385-.0408.2375388-.0684.078154-.0276.1546679-.0601.228108-.10077.07344-.0406.1447442-.0899.2030924-.1384.058348-.0485.1044656-.0967.1486896-.1503.04422-.0536.08729-.11348.121124-.16921.03384-.0557.05902-.1082.08294-.16646.02392-.0583.04703-.12339.06784-.20352.02081-.0801.0397-.17669.0522-.26737.0125-.0907.01878-.17657.0219-.27191.0031-.0954.0031-.20114-.0031-.32519-.0063-.12404-.01882-.26744-.03551-.41451-.01669-.14707-.03761-.29871-.06316-.45675-.02556-.15804-.05588-.32323-.0924-.50998-.03652-.18675-.07937-.39582-.124243-.61651-.04487-.2207-.0919-.45374-.1331177-.67394-.041222-.22021-.076749-.42815-.1023145-.604-.025565-.17586-.041242-.32008-.051675-.42339-.010433-.10331-.015662-.16606-.020349-.2468-.00469-.0808-.00888-.18028-.00991-.26994-.00104-.0897.00106-.17032.0068-.25734.00574-.087.015167-.1813.024558-.25796.00939-.0766.018815-.13633.029954-.18897.011139-.0526.024136-.0989.047067-.1395.022931-.0406.056196-.0762.093423-.11727.037227-.041.079289-.0883.1328733-.15025.05358-.0619.11973-.1396.19578-.23232.07605-.0927.163018-.2017.239668-.30025.07665-.0986.143634-.18752.210344-.27925.06671-.0917.13373-.18703.206681-.29437.07295-.10735.152546-.22779.231262-.35291.07872-.12512.157218-.25596.224483-.37224.06727-.11629.123778-.21885.195155-.35484.07138-.13598.158295-.30667.220365-.43343.06207-.12676.09974-.21046.146084-.31827.04635-.10781.101895-.2409.148306-.35511.04641-.11421.08408-.21048.12524-.32302.04116-.11254.0862-.24242.123217-.35297.03702-.11055.06633-.20266.09603-.30166.0297-.099.06008-.20586.09134-.32312.03127-.11726.06373-.24605.08772-.34412.02399-.0981.03968-.16607.05998-.26339.0203-.0973.04547-.22527.06892-.3577.02346-.13243.04543-.27056.06316-.39051.01773-.11995.03133-.22249.04644-.35588.01511-.13339.03186-.29882.04281-.42092.01095-.12209.01618-.20155.02295-.34681.0068-.14526.01515-.35795.01932-.48788.0042-.12993.0042-.17803.0021-.29445s-.0063-.30328-.01098-.43531c-.0047-.13203-.0099-.2104-.02034-.34321-.01042-.13282-.02613-.32134-.04491-.50288-.01878-.18153-.04073-.35715-.06786-.53869-.02713-.18153-.05953-.3697-.09501-.55542-.03548-.18573-.07415-.36968-.118496-.55854-.04435-.18885-.09451-.38325-.145649-.56482-.05113-.18157-.103384-.35086-.164424-.53711-.06104-.18625-.131062-.39004-.200986-.57789-.06992-.18785-.139926-.36024-.205675-.51835-.06575-.15811-.127395-.3023-.190528-.44213-.06313-.13983-.127924-.27568-.211924-.45777-.084-.18209-.187444-.41092-.274601-.60715-.08716-.19624-.158187-.36023-.205166-.46881-.04698-.10857-.06996-.16183-.102346-.1947-.03239-.0329-.07464-.0456-.07562-.0477-.000982-.002.03899.006.04642-.018.0074-.0244-.01775-.0821-.05163-.16029-.03388-.0782-.07679-.17761-.141984-.32834-.06519-.15073-.153004-.35353-.246412-.57009-.09341-.21657-.192655-.44744-.28607-.66141-.09342-.21397-.181164-.4114-.2703975-.61022-.089234-.19882-.180121-.3994-.2813579-.61857-.101237-.21917-.2130145-.45735-.317346-.67169-.1043314-.21434-.2015236-.40546-.3106152-.60897-.1090915-.2035-.2302648-.41973-.3252047-.58195-.09494-.16222-.1637801-.27067-.2111935-.32804-.047413-.0574-.073547-.0638-.125552-.0754-.052005-.0116-.1287116-.0282-.2034391-.0423-.074728-.0141-.1465688-.0256-.2459441-.0361-.099375-.0105-.2252942-.0198-.3543487-.024-.1290545-.004-.260349-.003-.3956807.001-.1353316.005-.27391.013-.396684.0234-.1227739.0104-.229049.0229-.3309702.0365-.1019213.0136-.1987507.0282-.3127498.0491-.1139991.0209-.2440916.048-.3590525.0741-.1149608.0261-.2139085.0511-.3231841.0815-.1092756.0303-.2279241.0657-.3507747.10597-.1228507.0402-.2488192.085-.3789722.13727-.1301531.0523-.2634473.11163-.3961889.17747-.1327415.0658-.2639932.13771-.376871.20564-.1128778.0679-.2066037.13145-.2855372.18946-.078934.058-.1424121.11004-.2015254.16182-.059113.0518-.1131693.10272-.1702324.16186-.057063.0591-.1162684.12563-.1685901.1931-.052322.0675-.097018.13504-.1289178.18575-.0319.0507-.050626.084-.071088.12386-.020462.0399-.042178.0854-.060523.12937-.018345.044-.032868.0855-.044908.12265-.012039.0371-.021386.0693-.031367.1124-.00998.0431-.02032.0958-.027133.14341-.00681.0476-.00994.0892-.011511.14056-.00158.0514-.00158.11149.0005169.16471.00209.0532.00626.0986.00836.12156.0021.0229.0021.0231-.065299.13482z" id="path10745" fill="none" stroke="#000" stroke-width=".1"/></g></svg>