<svg xmlns="http://www.w3.org/2000/svg" width="75" height="75" viewBox="0 0 34 43" version="1.1" id="svg5506" license="CCBY4.0" author="Provart Lab - Bio Analytic Resource, University of Toronto">
  <g id="layer1" transform="translate(0 -254)">
    <g transform="translate(-720 -132)" id="F12-14" style="stroke-width:.13229166;stroke-miterlimit:4;stroke-dasharray:none">
      <g id="flowerDevelopmentPart12" transform="translate(713 340) scale(.18744)" fill="none" style="stroke:#000;stroke-width:.70578229;stroke-miterlimit:4;stroke-dasharray:none">
        <path style="fill-opacity:1;stroke-width:.70578229;stroke-miterlimit:4;stroke-dasharray:none" d="M67 461c-5-6 1-16 0-23-1-12 3-27-6-36-5-3-9-11-12-15-2-13-5-28 3-39-3-4 3-10 5-15 4-9 18-8 24-1 12 6 20 20 22 33 2 7 2 14 0 21-1 9-10 20-20 20l-2 54c-3 3-10 0-14 1z" id="path7996-4"/>
        <path style="fill-opacity:1;stroke-width:.70578229;stroke-miterlimit:4;stroke-dasharray:none" d="M123 394c-7-3-2-15-4-21 0-14-2-30-6-43-14-1-16-17-18-27-2-11 2-21 6-31 6-9 14-23 27-20 17 9 26 27 28 46 4 10 0 23-10 28-4 1-7 2-8 7-9 16-4 36-4 55-4 2-6 6-11 6z" id="path8020-5"/>
        <path style="fill-opacity:1;stroke-width:.70578229;stroke-miterlimit:4;stroke-dasharray:none" d="M181 474c-12 2-8-9-8-16 0-14 0-30-2-44-3-3-4-7-10-9-9-10-13-22-9-35 2-7 4-13 4-20 2-14 17-23 30-19 7 5 13 12 20 16 1 7 9 13 9 21 3 12 1 28-9 36-4 8-17 9-15 20 1 11 0 24-5 35-2 4 0 14-5 15z" id="path8008-2"/>
      </g>
      <g id="g12376" style="stroke-width:.13229166;stroke-miterlimit:4;stroke-dasharray:none">
        <g id="g12332" style="stroke-width:.13229166;stroke-miterlimit:4;stroke-dasharray:none">
          <g id="g12318" style="stroke-width:.13229166;stroke-miterlimit:4;stroke-dasharray:none">
            <path style="fill:none;stroke:#000;stroke-width:.13229166;stroke-linecap:butt;stroke-linejoin:miter;stroke-miterlimit:4;stroke-dasharray:none;stroke-opacity:1" d="M722 405s5-5 10 4" id="path12220"/>
            <path style="fill:none;stroke:#000;stroke-width:.13229166;stroke-linecap:butt;stroke-linejoin:miter;stroke-miterlimit:4;stroke-dasharray:none;stroke-opacity:1" d="M727 404v12h-3" id="path12222"/>
            <path style="fill:none;stroke:#000;stroke-width:.13229166;stroke-linecap:butt;stroke-linejoin:miter;stroke-miterlimit:4;stroke-dasharray:none;stroke-opacity:1" d="M727 416h1" id="path12224"/>
          </g>
          <g id="g12313" style="stroke-width:.13229166;stroke-miterlimit:4;stroke-dasharray:none">
            <path style="fill:none;stroke:#000;stroke-width:.13229166;stroke-linecap:butt;stroke-linejoin:miter;stroke-miterlimit:4;stroke-dasharray:none;stroke-opacity:1" d="M731 392s4-2 9-1" id="path12226"/>
            <path style="fill:none;stroke:#000;stroke-width:.13229166;stroke-linecap:butt;stroke-linejoin:miter;stroke-miterlimit:4;stroke-dasharray:none;stroke-opacity:1" d="M734 391s-4 7 0 11h5s4-5 0-11" id="path12228"/>
          </g>
          <g id="g12309" style="stroke-width:.13229166;stroke-miterlimit:4;stroke-dasharray:none">
            <path style="fill:none;stroke:#000;stroke-width:.13229166;stroke-linecap:butt;stroke-linejoin:miter;stroke-miterlimit:4;stroke-dasharray:none;stroke-opacity:1" d="M741 408s2-5 10-3" id="path12230"/>
            <path style="fill:none;stroke:#000;stroke-width:.13229166;stroke-linecap:butt;stroke-linejoin:miter;stroke-miterlimit:4;stroke-dasharray:none;stroke-opacity:1" d="M746 417s-6-2-3-11" id="path12232"/>
            <path style="fill:none;stroke:#000;stroke-width:.13229166;stroke-linecap:butt;stroke-linejoin:miter;stroke-miterlimit:4;stroke-dasharray:none;stroke-opacity:1" d="M746 405s5-1 4 6c0 0 0 5-2 6" id="path12234"/>
            <path style="fill:none;stroke:#000;stroke-width:.13229166;stroke-linecap:butt;stroke-linejoin:miter;stroke-miterlimit:4;stroke-dasharray:none;stroke-opacity:1" d="M744 417h6" id="path12236"/>
          </g>
        </g>
      </g>
    </g>
    <path style="fill:none;stroke:#000;stroke-width:0;stroke-linecap:butt;stroke-linejoin:miter;stroke-miterlimit:4;stroke-dasharray:none;stroke-opacity:1" d="M11 260v-1a19 19 0 0 1 2-3l1-1h2l1 1a8 8 0 0 1 2 2h1-2a11 11 0 0 0-5 1 117 117 0 0 0-2 1z" id="path6689"/>
    <path style="fill:none;stroke:#000;stroke-width:.065;stroke-linecap:butt;stroke-linejoin:miter;stroke-miterlimit:4;stroke-dasharray:none;stroke-opacity:1" d="M11 260a8 8 0 0 1 1-3l2-1 1-1h1l2 1 1 1a17 17 0 0 1 1 2 9 9 0 0 1 1 2v2l1 1v1a4 4 0 0 1 0 1 5 5 0 0 1-1 2 4 4 0 0 1-1 1 11 11 0 0 1-2 0" id="path6742"/>
    <path style="fill:none;stroke:#000;stroke-width:.065;stroke-linecap:butt;stroke-linejoin:miter;stroke-miterlimit:4;stroke-dasharray:none;stroke-opacity:1" d="M11 260a65 65 0 0 0-1 3v1a12 12 0 0 0 1 2 8 8 0 0 0 0 2 4 4 0 0 0 1 1l1 1" id="path6746"/>
    <path style="fill:none;stroke:#000;stroke-width:.065;stroke-linecap:butt;stroke-linejoin:miter;stroke-miterlimit:4;stroke-dasharray:none;stroke-opacity:1" d="M18 269v2a8 8 0 0 0-1 2 11 11 0 0 0 0 3 101 101 0 0 0 0 2v2" id="path6754"/>
    <path style="fill:none;stroke:#000;stroke-width:.065;stroke-linecap:butt;stroke-linejoin:miter;stroke-miterlimit:4;stroke-dasharray:none;stroke-opacity:1" d="M17 280a48 48 0 0 0-1 1l-1 1" id="path6758"/>
    <path style="fill:none;stroke:#000;stroke-width:.065;stroke-linecap:butt;stroke-linejoin:miter;stroke-miterlimit:4;stroke-dasharray:none;stroke-opacity:1" d="M15 282v-3a106 106 0 0 0 0-1v-2a25 25 0 0 0-2-6" id="path6762"/>
    <path style="fill:none;stroke:#000;stroke-width:.065;stroke-linecap:butt;stroke-linejoin:miter;stroke-miterlimit:4;stroke-dasharray:none;stroke-opacity:1" d="M21 276a13 13 0 0 0 1-2v-1a4 4 0 0 1 0-1 5 5 0 0 1 2-2 4 4 0 0 1 2 0h2l1 1a42 42 0 0 0 2 2" id="path6766"/>
    <path style="fill:none;stroke:#000;stroke-width:.065;stroke-linecap:butt;stroke-linejoin:miter;stroke-miterlimit:4;stroke-dasharray:none;stroke-opacity:1" d="M31 273v1l1 1a5 5 0 0 1 0 1l1 1a9 9 0 0 1 0 2 8 8 0 0 1-1 4h-1v1h-1v1h-1" id="path6770"/>
    <path style="fill:none;stroke:#000;stroke-width:.065;stroke-linecap:butt;stroke-linejoin:miter;stroke-miterlimit:4;stroke-dasharray:none;stroke-opacity:1" d="M29 285v1h-1v1a42 42 0 0 1 0 3 12 12 0 0 1-1 4v2l-1 1h-1v-8a59 59 0 0 0-1-3v-1l-1-1" id="path6782"/>
    <path style="fill:none;stroke:#000;stroke-width:.065;stroke-linecap:butt;stroke-linejoin:miter;stroke-miterlimit:4;stroke-dasharray:none;stroke-opacity:1" d="M23 284a7 7 0 0 1-2-5 7 7 0 0 1 0-2v-1" id="path6786"/>
    <path style="fill:none;stroke:#000;stroke-width:.169;stroke-linecap:butt;stroke-linejoin:miter;stroke-miterlimit:4;stroke-dasharray:none;stroke-opacity:1" d="M26 272h-1" id="path6790"/>
    <path style="fill:none;stroke:#000;stroke-width:.065;stroke-linecap:butt;stroke-linejoin:miter;stroke-miterlimit:4;stroke-dasharray:none;stroke-opacity:1" d="M2 273v-2h1v-1a3 3 0 0 1 1-1 3 3 0 0 1 1 0 5 5 0 0 1 1 0l1 1h1a7 7 0 0 1 2 2 12 12 0 0 1 1 1 12 12 0 0 1 1 3v1" id="path6794"/>
    <path style="fill:none;stroke:#000;stroke-width:.065;stroke-linecap:butt;stroke-linejoin:miter;stroke-miterlimit:4;stroke-dasharray:none;stroke-opacity:1" d="M12 277v3a5 5 0 0 1-1 1 6 6 0 0 1-1 2 4 4 0 0 1-1 1 3 3 0 0 1-1 0" id="path6798"/>
    <path style="fill:none;stroke:#000;stroke-width:.065;stroke-linecap:butt;stroke-linejoin:miter;stroke-miterlimit:4;stroke-dasharray:none;stroke-opacity:1" d="M4 283a5 5 0 0 1-1-1l-1-1-1-1v-4a7 7 0 0 1 0-2 6 6 0 0 1 1-1" id="path6802"/>
    <path style="fill:none;stroke:#000;stroke-width:.065;stroke-linecap:butt;stroke-linejoin:miter;stroke-miterlimit:4;stroke-dasharray:none;stroke-opacity:1" d="M4 283v1l1 1v3a16 16 0 0 0 0 2 5 5 0 0 1 0 1v1a12 12 0 0 0 0 1v1h1a10 10 0 0 0 1 0v-1l1-2v-7" id="path6806"/>
  </g>
</svg>