<svg xmlns="http://www.w3.org/2000/svg" viewBox="0 0 44 47" id="svg6935"><g id="layer1" transform="translate(0 -250)"><g transform="translate(-451.46499 -134.02022)" id="F1" stroke-width=".13229166"><g id="flowerDevelopmentPart1" transform="matrix(.27648 0 0 .27643 325.23957 599.34496)" stroke-width=".47853157"><path fill="none" style="ll-opacity:1" d="M530.21677-615.904c-4.93817-5.74751-1.15004-18.33352-3.25943-24.8008-9.09638.56174-18.70391-5.99749-27.50054-8.20128-7.60887-4.94253-15.53386-10.06794-23.35793-15.19729-6.03946-2.19883-9.85506-8.7964-13.5544-13.52274-1.74288-5.00163-5.959-17.21475 2.48667-11.62885 7.51132 6.10835 17.54869 12.80787 27.41888 18.06886 10.79361 6.47018 21.48396 12.78684 31.72383 19.13742-8.1949-15.79229-14.21088-32.01897-21.29334-48.81086-6.67692-12.88338-12.68692-26.25366-14.53551-40.36614-.65063-9.25723 7.45854-21.28043 16.95988-14.91988 3.66141 3.70206 3.4271-7.68959 6.03658-9.83045 4.51264-9.05287 16.63953-5.76539 21.49861 1.2302 6.57658-2.63229 15.63205-2.03404 21.2637 3.75667 5.1206 5.9543-1.76038 12.60116-7.37381 13.30812-4.35602 1.93968-1.18527 13.20281-.78796 12.49063 2.813-5.07929 8.94239-13.32605 14.77334-10.94047.92812 5.01584-.96723 11.71092.82099 15.48599 2.859-8.94904 11.42347-15.21764 18.11306-20.12468 2.54278-9.12852 16.46511-11.86878 21.08688-3.66712 13.60244 10.90467 5.93527 31.19072-2.3793 43.29114-.53417 4.93155-2.63393 12.07156-4.23803 15.28023 5.86956-.43839 13.6684-10.02643 17.59035-2.62104-2.92218 4.23372-10.69308 6.23944-14.53742 11.18078-15.20617 10.32351-26.54474 25.77736-40.55522 37.23731-4.80277 4.53177-10.95857 7.39047-8.11805 14.9568-.79295 6.78742 4.46054 20.06216-6.80055 17.29288-3.63391.62884-7.66294 1.73418-11.48128 1.91457z" id="path7754-4" stroke="#000"/></g><g id="g1810"><path d="M473.84882 423.06041s-3.18982-.20659-3.68795-3.962c0 0-1.05943-9.13421 3.78149-11.61314 0 0 1.3564-.39756 2.66602 2.80633 0 0 .86528 5.07478-.0234 8.53592 0 0 .67821 2.57248-2.73616 4.23289z" id="path1744" fill="none" stroke="#000"/><path d="M476.58498 418.82753s5.76271-7.56979 12.914-11.8414" id="path1746" fill="none" stroke="#000"/><path d="M476.60837 410.29159s2.40877-2.8063 2.8765-7.20291c.46773-4.39658 1.00581-5.71669 1.00581-5.71669" id="path1748" fill="none" stroke="#000"/><path d="M485.4985 391.80889s5.91328-2.51799 5.67942 3.60918c0 0-1.98783 5.58926-8.91011 14.05502 0 0-2.57247 3.41437-4.3732 7.71741" id="path1750" fill="none" stroke="#000"/><path d="M482.24442 409.42633s3.03136-.69977 8.42627-6.66412" id="path1752" fill="none" stroke="#000"/><path d="M472.53921 408.56103s-3.0168-4.93445-3.74179-8.83994c0 0-.58465-4.88769-3.41436-9.21411" id="path1754" fill="none" stroke="#000"/><path d="M477.30833 421.40123s-.42995.19844-1.55443.36381" id="path1756" fill="none" stroke="#000"/><path d="M470.93044 422.23422s.65627.29149 1.05315.22535" id="path1758" fill="none" stroke="#000"/><path d="M472.55686 387.94541s-3.19818 2.44465.33314 4.47924c0 0 2.29017 1.03728 3.50707.238" id="path1760" fill="none" stroke="#000"/><path d="M473.24078 392.58835v15.34125" id="path1764" fill="none" stroke="#000"/><path d="M476.09389 396.02611v13.18974" id="path1766" fill="none" stroke="#000"/><path d="M474.33994 407.43851v-7.0626s.77173-1.37979.9822.21047v7.46016" id="path1768" fill="none" stroke="#000"/><path d="M474.38669 401.19442s-1.19269-.44434-1.05235-2.94663c0 0 .35078-1.14594 1.28622-.86531 0 0 1.37978 0 1.42655.93545 0 0 .0702 2.80633-.65481 2.94664" id="path1772" fill="none" stroke="#000"/><path d="M476.98255 414.64142s2.43215-2.29185 3.13375-6.26747c.70157-3.97563 2.43215-5.14493 2.43215-5.14493" id="path1774" fill="none" stroke="#000"/><path d="M470.66832 411.55445l-2.43216-5.42557" id="path1776" fill="none" stroke="#000"/></g></g></g></svg>