<svg xmlns="http://www.w3.org/2000/svg" width="75" height="75" viewBox="0 0 300 300"><g id="shapes"><g id="petals"><path fill="none" stroke="#000000" stroke-miterlimit="10" d="M95.705 131.386s-5.321-12.884 7.562-29.13c7.002-4.763 20.168-14.847 21.849-15.406 4.48-.56 15.126-2.8 13.164 1.961-2.802 3.081-5.042 7.842-15.125 11.203-6.163 4.763-15.126 12.884-19.327 21.008-3.921 8.124-6.161 15.125-8.123 10.364zM202.704 177.884s0-12.045 4.201-2.802c.562 5.602 2.804 17.367-12.043 33.894-4.482 4.48-22.69 17.926-28.292 11.203.841-3.081 11.765-8.963 23.529-23.248 8.403-9.804 12.605-15.124 12.605-19.047zM97.667 182.366s.84-10.085 5.042.278c3.081 7.563 3.923 15.127 23.529 27.171 8.963 5.042 15.966 9.245 11.483 11.205-5.602.279-29.412-.562-35.573-20.448-3.082-9.243-4.481-14.283-4.481-18.206zM167.411 88.53s-2.8-5.881 5.322-5.602c6.441.84 18.485 3.359 27.449 17.925 1.681 5.604 5.602 16.526 4.202 23.529-1.681 2.802-4.202 6.724-6.723-3.64-3.361-8.124-7.844-15.966-22.688-25.209-5.041-3.361-7.562-7.003-7.562-7.003z"/></g><g id="stamen"><path fill="none" stroke="#000000" stroke-miterlimit="10" d="M139.681 119.341s-4.482 8.123-8.403-.84c-1.96-4.202-1.4-10.083 8.684-12.043 2.802.279 7.562 0 8.123 11.483-.001 3.08-2.803 7.842-8.404 1.4zM158.729 185.726s4.202-5.042 7.562 3.361c.561 3.642-6.722 17.368-16.246 7.003-.841-3.642 0-16.806 6.723-10.924 1.399 1.681 1.961.56 1.961.56zM134.359 187.688s3.921-6.162 7.282 1.961c1.121 3.641 1.401 14.564-10.644 10.363-3.082-1.961-7.003-3.083-3.642-11.766 1.402-2.24 3.924-5.881 7.004-.558zM196.821 150.994s-6.162-6.723 2.521-10.365c3.923-.56 13.445.281 12.886 10.365-.281 4.48-4.481 14.285-13.165 8.122-2.52-2.24-5.602-3.921-2.242-8.122zM106.349 151.834s8.404-4.48-1.96-8.962c-5.322-.562-14.006-.84-15.406 10.083.281 4.762 1.121 10.924 7.003 11.765 5.321.841 14.286 1.119 12.324-7.003-1.4-2.802-3.363-5.602-1.961-5.883zM157.607 119.902s-3.361-9.524 5.042-13.726c3.921-.56 12.886 1.682 12.604 12.045-1.681 3.64-5.602 6.161-10.083 1.119-2.521 3.083-5.601 4.204-7.563.562z"/></g><g id="sepals"><path fill="none" stroke="#000000" stroke-miterlimit="10" d="M84.5 82.929s1.961-7.844 16.247-12.885c16.245-7.563 36.412-13.443 59.101-14.005 11.205 1.119 26.332 6.721 40.896 14.564 11.484 4.202 23.808 9.243 16.245 14.285-5.882-.279-13.724-6.161-13.724-6.161l-18.768-7.284-20.168-5.321-20.448.279-20.446 3.642-14.847 5.601-11.203 7.284-9.805 3.921c.001.001-5.32 1.962-3.08-3.92zM208.307 97.773s-4.763-7.284 4.762-3.642c6.163 4.763 20.446 17.367 24.369 51.54-.56 11.484-1.121 58.824-30.251 61.624 0-2.802 6.722-11.484 12.885-21.848 5.042-14.285 10.363-20.729 3.081-59.384-3.641-8.402-10.924-22.688-14.846-28.29zM86.742 223.82s-8.403-9.243 4.761-7.562c5.602 2.802 20.726 14.005 32.211 16.807 10.364 2.801 41.177 7.281 58.543-3.643 9.243-5.32 26.049-13.726 34.452-15.125 2.24 0 4.203-.279 1.962 4.763-2.521 4.201-23.809 19.327-49.579 25.769-20.167 2.802-44.817 5.602-64.984-5.882-7.563-5.323-17.366-15.127-17.366-15.127zM78.618 103.656s9.803-11.482 12.605-9.522c.28 1.959-4.763 14.006-8.403 21.848-2.8 7.563-9.801 28.011-3.64 53.78 2.8 9.803 8.403 28.01 10.644 32.211 1.121 2.241.28 9.805-8.963-1.4-6.444-7.562-14.005-18.766-15.126-53.499-.281-13.446-1.683-21.291 12.883-43.418z"/></g><path fill="none" stroke="#000000" stroke-miterlimit="10" d="M126.797 151.834s-3.361-2.8 4.761-8.403c6.723-5.042 8.403-6.442 17.646-5.042 7.844-.281 21.569 1.679 23.81 16.246-.84 4.201-3.922 16.244-24.09 12.604-9.243-.559-21.287-1.96-22.127-15.405z" id="carpels"/></g><g id="outlines"><path fill="none" stroke="#000000" stroke-width=".5" stroke-miterlimit="10" d="M95.705 131.386s-5.321-12.884 7.562-29.13c7.002-4.763 20.168-14.847 21.849-15.406 4.48-.56 15.126-2.8 13.164 1.961-2.802 3.081-5.042 7.842-15.125 11.203-6.163 4.763-15.126 12.884-19.327 21.008-3.921 8.124-6.161 15.125-8.123 10.364zM202.704 177.884s0-12.045 4.201-2.802c.562 5.602 2.804 17.367-12.043 33.894-4.482 4.48-22.69 17.926-28.292 11.203.841-3.081 11.765-8.963 23.529-23.248 8.403-9.804 12.605-15.124 12.605-19.047zM97.667 182.366s.84-10.085 5.042.278c3.081 7.563 3.923 15.127 23.529 27.171 8.963 5.042 15.966 9.245 11.483 11.205-5.602.279-29.412-.562-35.573-20.448-3.082-9.243-4.481-14.283-4.481-18.206zM167.411 88.53s-2.8-5.881 5.322-5.602c6.441.84 18.485 3.359 27.449 17.925 1.681 5.604 5.602 16.526 4.202 23.529-1.681 2.802-4.202 6.724-6.723-3.64-3.361-8.124-7.844-15.966-22.688-25.209-5.041-3.361-7.562-7.003-7.562-7.003zM139.681 119.341s-4.482 8.123-8.403-.84c-1.96-4.202-1.4-10.083 8.684-12.043 2.802.279 7.562 0 8.123 11.483-.001 3.08-2.803 7.842-8.404 1.4zM158.729 185.726s4.202-5.042 7.562 3.361c.561 3.642-6.722 17.368-16.246 7.003-.841-3.642 0-16.806 6.723-10.924 1.399 1.681 1.961.56 1.961.56zM134.359 187.688s3.921-6.162 7.282 1.961c1.121 3.641 1.401 14.564-10.644 10.363-3.082-1.961-7.003-3.083-3.642-11.766 1.402-2.24 3.924-5.881 7.004-.558zM196.821 150.994s-6.162-6.723 2.521-10.365c3.923-.56 13.445.281 12.886 10.365-.281 4.48-4.481 14.285-13.165 8.122-2.52-2.24-5.602-3.921-2.242-8.122zM106.349 151.834s8.404-4.48-1.96-8.962c-5.322-.562-14.006-.84-15.406 10.083.281 4.762 1.121 10.924 7.003 11.765 5.321.841 14.286 1.119 12.324-7.003-1.4-2.802-3.363-5.602-1.961-5.883zM157.607 119.902s-3.361-9.524 5.042-13.726c3.921-.56 12.886 1.682 12.604 12.045-1.681 3.64-5.602 6.161-10.083 1.119-2.521 3.083-5.601 4.204-7.563.562z"/><path fill="none" stroke="#000000" stroke-width=".5" stroke-miterlimit="10" d="M84.5 82.929s1.961-7.844 16.247-12.885c16.245-7.563 36.412-13.443 59.101-14.005 11.205 1.119 26.332 6.721 40.896 14.564 11.484 4.202 23.808 9.243 16.245 14.285-5.882-.279-13.724-6.161-13.724-6.161l-18.768-7.284-20.168-5.321-20.448.279-20.446 3.642-14.847 5.601-11.203 7.284-9.805 3.921c.001.001-5.32 1.962-3.08-3.92zM208.307 97.773s-4.763-7.284 4.762-3.642c6.163 4.763 20.446 17.367 24.369 51.54-.56 11.484-1.121 58.824-30.251 61.624 0-2.802 6.722-11.484 12.885-21.848 5.042-14.285 10.363-20.729 3.081-59.384-3.641-8.402-10.924-22.688-14.846-28.29zM86.742 223.82s-8.403-9.243 4.761-7.562c5.602 2.802 20.726 14.005 32.211 16.807 10.364 2.801 41.177 7.281 58.543-3.643 9.243-5.32 26.049-13.726 34.452-15.125 2.24 0 4.203-.279 1.962 4.763-2.521 4.201-23.809 19.327-49.579 25.769-20.167 2.802-44.817 5.602-64.984-5.882-7.563-5.323-17.366-15.127-17.366-15.127zM78.618 103.656s9.803-11.482 12.605-9.522c.28 1.959-4.763 14.006-8.403 21.848-2.8 7.563-9.801 28.011-3.64 53.78 2.8 9.803 8.403 28.01 10.644 32.211 1.121 2.241.28 9.805-8.963-1.4-6.444-7.562-14.005-18.766-15.126-53.499-.281-13.446-1.683-21.291 12.883-43.418zM126.797 151.834s-3.361-2.8 4.761-8.403c6.723-5.042 8.403-6.442 17.646-5.042 7.844-.281 21.569 1.679 23.81 16.246-.84 4.201-3.922 16.244-24.09 12.604-9.243-.559-21.287-1.96-22.127-15.405zM141.933 107.718h.02c3.901 0 5.006 7.243 5.178 8.697.318 2.58-.099 3.479-2.023 4.377-.934.428-.962.43-2.035-.218-.265-.176-.555-.317-.824-.457-.858-.423-.986-.543-1.022-.914l-.129.015c.456-1.144.766-2.473.643-3.521-.118-1.088-.664-1.638-1.09-1.909l-1.442 2.035c.312.621-.567 3.206-1.179 3.819-1.025 1.052-3.402 2.178-4.444 1.507-.811-.525-1.592-3.235-1.856-4.126l-.078-.269c-.563-1.93-.369-4.161.473-5.406 1.03-1.523 2.263-2.667 3.143-2.915 2.276-.635 4.452-.701 6.665-.715zM157.749 115.704c.005-2.05.576-3.665 1.912-5.405 1.585-2.066 3.645-2.837 5.655-2.837 1.367 0 2.71.353 3.867.895 2.935 1.374 5.217 6.801 4.835 10.005-.176 1.558-1.943 2.514-3.493 2.514h-.024c-1.346-.008-1.797-.01-2.682-.638-.43-.311-.56-.404-.694-.665-.021-.034-.058-.167-.084-.252-.07-.246-.182-.642-.456-1.014.468-1.546.528-3.276-.422-4.51l-1.995 1.54c.599.786-.112 3.25-1.037 4.26-.604.66-1.784 1.364-2.77 1.38-.523.002-.797-.19-.943-.348-1.087-1.096-1.673-3.361-1.669-4.925z"/><path fill="none" stroke="#000000" stroke-width=".5" stroke-miterlimit="10" d="M200.93 149.791l-1.41.44c-1.09.115-2.122-.371-2.771-1.344-.685-1.013-.632-3.537.097-4.733 1.324-2.185 3.957-2.511 5.413-2.511 1.488 0 3.108.333 4.442.922 3.581 1.559 5.261 6.678 4.316 10.043-.911 3.219-4.172 8.066-8.141 7.514-1.618-.231-2.985-1.55-4.314-2.823l-.284-.272c-.849-.805-1.009-.953-1.025-1.854l-.023-.413c-.013-.211-.039-.604.036-.737.135-.13.332-.315.509-.595l2.286-.723.007-.004M95.981 144.766c1.045-.511 2.508-.78 4.231-.78.685 0 1.379.042 2.066.128l.333.035c1.746.211 3.396.414 4.394 1.577 1.143 1.298.86 2.861.414 3.936-.506 1.251-1.743 1.471-4.152 1.471l-.246 2.496 1.5.296c.962.115 1.772 1.731 2.309 2.798l.081.159c.883 1.752.875 3.088-.026 4.609-1.01 1.686-3.122 2.504-6.479 2.504h-.002c-1.487 0-2.976-.169-4.262-.316-3.571-.42-4.788-4.591-5.639-8.482-.854-3.788 1.661-8.567 5.478-10.431zM149.907 153.242c0-2.525.141-5.063.278-7.517m-2.282-6.2c-.035 2.037-.127 4.075-.245 6.058-.14 2.484-.282 5.062-.282 7.657 0 4.879.026 9.076.2 13.293M151.02 192.965l.009-.809c0-1.806 0-4.537 1.144-5.799.588-.64 1.169-.965 1.748-.965.752 0 1.436.545 1.989 1.119.422.445.771.807 1.019 1.203l.265 3.711 2.518-.074c.004-.348.051-.664.096-.971.104-.729.225-1.551-.079-2.548-.029-.099-.061-.195-.094-.287l.034-.053-.08-.152c.106-.359.137-.708.169-.995.014-.17.035-.408.038-.455.215-.303.7-.349.972-.349.116 0 .231.015.345.031 1.103.132 2.555.704 2.884 1.31.863 1.596 1.273 3.84 1.057 5.719-.146 1.26-.983 2.355-2.797 3.674-1.575 1.137-4.146 2.346-6.621 2.346-1.39 0-2.554-.385-3.433-1.156-1.172-1.019-1.211-2.373-1.183-4.5zM140.532 197.477c-.681 1.297-3.115 2.195-5.175 2.4-1.802.17-4.264-.855-5.741-1.724-3.745-2.201-1.522-8.128-.752-9.892.32-.735 1.458-1.627 2.396-1.627.26 0 .466.078.651.24.455.418.571 1.285.643 2.058.035.341-.047.762-.137 1.206-.108.596-.244 1.275-.131 1.969l2.482.054.783-3.65c.297-.429.455-.812.573-1.107.179-.443.21-.526.705-.737.294-.118.555-.182.774-.182.219 0 .527.044.971.454 2.257 2.068 3.345 7.882 1.958 10.538z"/></g></svg>