<svg xmlns="http://www.w3.org/2000/svg" viewBox="0 0 38 44" id="svg7008"><g id="layer1" transform="translate(0 -253)"><g transform="translate(-497.80192 -131.35643)" id="F2" stroke-width=".13229166"><g id="flowerDevelopmentPart2" transform="matrix(.26458 0 0 .26458 470.90442 521.25275)" stroke-width=".5"><path fill="none" d="M159.13675-355.27405c.93361-8.02339-5.21529-8.03297-11.28941-10.66662-15.10314-8.24433-18.59622-26.89576-27.97352-39.8147-11.71398-6.84912-11.5709-21.7688-5.54651-31.95038 5.32062.74983 5.32807.48918 3.37207-4.56318-1.02124-4.15225-2.11457-5.82753-4.93534-6.79679-2.20448-15.4449-11.198-31.87014-6.58732-47.07094 1.36708-8.57667 11.57341-6.93191 14.72.24324 5.21047 3.68176 10.75162 5.01101 9.18419 13.04093 1.94827 9.6297.99552 22.16626 2.25092 30.38323 3.18399-3.1039 11.79439-3.31105 14.96956-5.47236-7.65187-8.23976-2.97823-21.38537-5.26575-31.73454 3.00539-8.40434-6.50281-17.26033-1.93878-24.03034 6.66249-1.49714 13.88262-.005 21.20946.28392 7.35859 3.07351 10.08694 11.14732 11.68791 18.71213 7.2464.99511 13.97119 9.15915 9.34622 15.08412 1.60834 6.04479.50071 18.52263.40084 26.43992 1.33879 6.62033-1.78401 14.48079 2.08632 19.98054-.31943-13.37434-2.59631-31.95672 9.0693-41.18721 9.00322-.89852 5.63866 12.7847 6.44997 18.92676.4377 7.05967-3.05373 15.20464-5.62147 20.33911 3.83496.28482 4.41475 10.32751 4.37999 1.12028.77125-14.21829 2.08394-28.69862 3.48972-42.89307 4.24525-10.26397 12.80801-17.72134 21.34181-24.22164 7.52496 5.16516 16.81629 13.4849 16.62344 24.21522 6.81692 16.25475-6.32886 29.58291-16.72388 40.22693-.33867 11.78036-7.94336 21.697-15.25929 30.24259-2.06208 10.13711-10.17995 15.51342-13.11365 24.73857-3.019 5.23485-5.37588 18.8467-14.80106 18.88114-1.57456 5.17561-5.14702 6.60572-10.1654 6.71127-3.9209.77081-6.61403.0219-11.36034.83187z" id="path7782-3"/></g><g id="g1845"><path d="M502.17916 405.42702s6.21771 3.73723 6.54844 7.24296c0 0 5.40531 6.53826 6.9091 11.83234 0 0-.62525 1.16532-3.13879.96688" id="path1812" fill="none" stroke="#000"/><path d="M523.80149 417.96223s1.63703-5.42557-.32739-10.52372" id="path1814" fill="none" stroke="#000"/><path d="M522.42553 406.12536s-4.79796 6.55164-5.49955 11.79012c0 0-1.55073 2.65893-1.02156 6.52846 0 0 1.36724 1.26306 2.80028.81343" id="path1816" fill="none" stroke="#000"/><path d="M505.96572 408.34434s-3.48017-4.28998-.0485-6.80741" id="path1818" fill="none" stroke="#000"/><path d="M509.87793 400.08905s1.76281.0296 3.14259.5675c0 0 4.09255.28062 3.3442 6.82872 0 0 1.12252 4.84095.56126 10.43021" id="path1820" fill="none" stroke="#000"/><path d="M524.45631 412.02218s.86609-3.40096 5.67153-6.30754" id="path1822" fill="none" stroke="#000"/><path d="M520.87824 408.35056s-.34229-.74433-1.07151-1.71686" id="path1824" fill="none" stroke="#000"/><path d="M516.52841 406.26921s.67821-2.31524 2.80633-.49112" id="path1826" fill="none" stroke="#000"/><path d="M517.69774 405.17005s1.80073-6.12714-1.63703-6.45456c0 0-2.26844-1.54345-3.04019 1.94106" id="path1828" fill="none" stroke="#000"/><path d="M516.67581 390.36061s-3.28493.31589-3.61566 2.4987c0 0-.33383 2.67487 2.87734 2.08359 0 0 2.88354.10728 3.21117-.59128" id="path1830" fill="none" stroke="#000"/><path d="M513.43268 394.26782s-.14102 4.34618-.33946 5.80138" id="path1832" fill="none" stroke="#000"/></g></g><path d="M20.90278 293.90094c-.08527.20305-.170674.40642-.246813.56667-.07614.16024-.142854.27699-.259951.40249-.117098.1255-.283695.25878-.484334.37585-.200639.11706-.434093.21712-.710775.28483-.276682.0677-.644023.10808-.903007.14149-.258984.0334-.433274.0624-.662735.077-.229461.0146-.512946.0146-.797052.0146-.284107 0-.567816 0-.83968.0221s-.531158.0664-.656579.008c-.12542-.0587-.116454-.2197-.120321-.40035-.0039-.18064-.0206-.38143-.110238-.59791-.08964-.21649-.252589-.44976-.415304-.68269" id="path7044" fill="none" stroke="#000" stroke-width=".08"/><path d="M20.902783 293.90094c.198873-.0306.397428-.061.638501-.14306.241074-.082.525476-.21586.767549-.38285.242073-.16699.442748-.36766.643025-.64308.200278-.27541.400998-.62667.593-1.00234.192001-.37567.375911-.77693.586774-1.25164.210864-.4747.449226-1.02408.607883-1.40821.158656-.38414.237909-.60372.352601-.85524.114692-.25151.265247-.53589.426046-.8152.160799-.27931.31759-.53079.481408-.79355" id="path7591" fill="none" stroke="#000" stroke-width=".08"/><path d="M25.99957 286.6058c.180697-.25233.361178-.50437.610681-.87224.249503-.36787.5688-.85273.816766-1.27784.247966-.42511.425257-.79151.556982-1.13087.131725-.33935.218219-.65245.407137-.98299.188919-.33054.480768-.67952.797673-1.07809.316904-.39856.659723-.84777.990332-1.32599.330609-.47821.649736-.98645.933114-1.52962.283377-.54317.531576-1.1223.702794-1.58286.171218-.46056.265764-.80329.338079-1.19461.07231-.39133.122593-.83225.282073-1.19831.159481-.36606.428343-.65806.816399-1.07537.388056-.41732.896439-.96117 1.327465-1.46307.431026-.50189.785555-.96278 1.086655-1.40559.301099-.44282.549308-.86832.755926-1.28158.206619-.41326.372107-.81516.496064-1.20479.123958-.38963.206706-.76791.253921-1.06901.04722-.30109.05904-.52569.05903-.77356-.000005-.24787-.01183-.51988-.04725-.7973s-.09454-.56116-.170553-.83659c-.07602-.27543-.169114-.54323-.222243-.81487-.05313-.27164-.06641-.54753-.114374-.84467-.04796-.29714-.130718-.61635-.266501-.97055-.135784-.35421-.324879-.74422-.555159-1.12211-.23028-.37789-.502029-.74416-.844529-1.1339-.342501-.38975-.755959-.80321-1.169352-1.16936-.413392-.36615-.826806-.68506-1.07483-.87088-.248025-.18581-.33067-.23853-.584689-.0909-.254018.14766-.678914.49538-1.151578.89987-.472665.40449-.992031.86483-1.405533 1.2547-.413503.38986-.720445.7086-.980404.99809-.259959.28949-.472392.54913-.686639.8649-.214247.31577-.423643.67639-.632509 1.05094-.208866.37454-.413627.75682-.555471 1.34775-.141843.59093-.220327 1.38885-.295052 2.22533-.07473.83648-.145569 1.71023-.222359 2.66125-.07679.95101-.159446 1.9783-.236234 3.0356-.07679 1.0573-.147639 2.14368-.183084 2.80518-.03544.6615-.03544.89768-.05618 1.06515-.02074.16748-.06226.26604-.133386.19487-.07113-.0712-.17098-.3108-.285984-.51359-.115004-.20279-.245002-.36824-.36956-.46684-.124559-.0986-.244017-.13055-.238018-.28449.006-.15393.137029-.42867.273422-.74323.136392-.31455.278296-.66932.40816-1.02941.129864-.36009.248087-.72658.354336-1.12209.106248-.3955.200823-.82109.253134-1.22001.05231-.39891.06252-.77208.0566-1.06137-.0059-.28929-.02794-.49532-.03303-.88143-.0051-.38612.0067-.95373.01264-1.37298.0059-.41925.0059-.69105-.01182-.92716-.01772-.23611-.05319-.43711-.09451-.62008-.04132-.18298-.08862-.34852-.171234-.51964-.08262-.17112-.200857-.34848-.342493-.47833-.141636-.12986-.307064-.21257-.484217-.25329-.177152-.0407-.373031-.0394-.615377.10838-.242346.14774-.533733.44133-.786062.75382-.252329.31249-.464748.64292-.665675 1.05065-.200926.40772-.389739.89155-.537454 1.41146-.147714.51991-.253949 1.07469-.324849 1.63592-.0709.56122-.106318 1.12788-.118137 1.695-.01182.56711-.000012 1.1338.0118 1.68316.01181.54937.02362 1.08066.03535 1.49793.01173.41727.02337.71999-.04956.72878-.07293.009-.230125-.27617-.31861-.6107-.08848-.33454-.108175-.71849-.11801-1.11107-.0098-.39259-.0098-.79445.002-1.19593.01181-.40147.03545-.80333.04134-1.08084.0059-.27751-.0059-.43117-.02095-.57398-.01502-.14281-.03441-.2835-.03441-.63151.000005-.34802.01884-.90944.03414-1.47894.0153-.5695.02712-1.14855.03893-1.73309.01181-.58455.02362-1.17541.01181-1.66549-.01182-.49008-.04727-.88005-.08616-1.18097-.03889-.30091-.08125-.51324-.05166-.7022.0296-.18896.131097-.3549.199411-.54978.06831-.19488.103815-.41973.103798-.64396-.000018-.22423-.0355-.44895-.129925-.6909-.09443-.24195-.248127-.50206-.407535-.7146-.159409-.21255-.324828-.37797-.537416-.55512-.212588-.17716-.472448-.36615-.726379-.50789-.25393-.14174-.501925-.23622-.67535-.28699-.173425-.0508-.272249-.0578-.390682-.32427-.118432-.26651-.255465-.78974-.395001-1.22909-.139535-.43935-.281323-.79382-.446649-1.13628-.165326-.34245-.354384-.6733-.596463-.98623-.242079-.31294-.537449-.60831-.815072-.82663-.277624-.21832-.552405-.36774-1.101723-.47407-.549319-.10634-1.380108-.17352-2.091018-.21303-.710911-.0395-1.301328-.0513-1.821146-.0302-.519819.0211-.968514.075-1.234381.19307-.265866.11804-.348452.30017-.4075713.52147-.05912.2213-.094494.48071-.08269.74076.011803.26006.070794.51962.1535138.83278.08272.31316.188945.67905.301182 1.00396.112237.32491.230299.60826.313001.88586.0827.2776.129927.54914.165378.79136.03545.24221.05905.45466.05317.65553-.0059.20086-.04128.38964-.07392.53142-.03264.14177-.06246.2361-.05062.44339.01183.20729.06513.52518.09779.94467.03266.4195.04446.93887.04447 1.49416.000003.55529-.0118 1.14558-.01181 1.60042-.000005.45483.0118.77361.03543 1.08084.02363.30724.05903.60229.112206.88591.05317.28361.123987.55507.224427.82687.10044.27179.230283.54328.376739.78519.146456.24192.309281.45383.333072.59549.02379.14167-.09185.21315-.333247.29632-.241396.0832-.606575.17742-1.020183.28377-.413607.10636-.873874.22437-1.2283079.33659-.354434.11222-.6023112.21846-.7912933.31775-.188982.0993-.3185247.19138-.4132478-.13431-.094723-.3257-.1538524-1.06585-.201193-1.89139-.047341-.82555-.082788-1.73535-.1182211-2.4617-.035433-.72634-.070878-1.26983-.1122143-1.7363-.041336-.46646-.088605-.85643-.1227942-1.09883-.034189-.24239-.055344-.33761-.049428-.491.00592-.15338.038932-.3658.031774-.60739-.00716-.24159-.054471-.51364-.1961165-.80282-.1416452-.28918-.3780617-.59653-.7758272-.92971-.3977654-.33318-.9572959-.69261-1.2762749-.93482-.3189789-.24221-.3973438-.36709-.4896502-.50626-.092306-.13917-.1986724-.29281-.3521501-.44629-.1534778-.15349-.3543504-.3071-.6023679-.43112-.2480174-.12402-.5432463-.21849-.7853891-.26577-.2421427-.0473-.4310263-.0473-.6260414-.00003-.1950151.0472-.395518.1416-.555104.25385-.159586.11225-.2775192.24198-.3780575.3957-.1005383.15372-.1830448.33052-.2378731.47092-.054828.1404-.081641.24366-.1230723.42122-.041432.17756-.097085.42771-.1545684.71282-.0574833.28511-.11647047.60364-.14602783.98776-.0295574.38411-.0295574.83253-.005934 1.25198.0236234.41945.070843.80901.17718985 1.38802.1063468.57902.2716158 1.34634.5256091 2.37413.2539932 1.02779.5964455 2.31494.8208776 3.17133.224432.85638.3307221 1.28154.4010855 1.62542.070363.34389.1047359.60624.2111947.77177.1064588.16553.2845477.23374.4266906.32685.1421429.0931.248538.21132.343017.36483.094479.15351.1771497.34247.2525446.54905.075395.20659.1434073.43051.2024831.60774.059076.17724.1090963.30742.1636888.44943.054593.142.1135848.29538.1108832.42875-.0027.13337-.06728.24652-.132094.36008" id="path7599" fill="none" stroke="#000" stroke-width=".08"/><path d="M4.3772132 274.07079c-.076799.0519-.1538874.10389-.3253918.10656-.1715044.003-.4352393-.0439-.6538518.10963-.2186124.15352-.3907355.5071-.5537391.9323-.1630035.4252-.3164163.92084-.4109615 1.42893-.094545.50809-.1299575 1.02747-.1122477 1.506.01771.47853.088542.91533.1771462 1.2816.088604.36627.1948582.66141.3602863.98046.1654281.31905.3897393.66142.649652.96859.2599127.30716.5551519.57878.7795833.76545.2244314.18666.3779626.2883.4901033.38273.1121407.0944.1830923.18185.342595.43818.1595026.25633.4074654.68141.7323267 1.26616s.7263808 1.32874 1.1280066 2.10246c.4016258.77372.8031713 1.57681 1.2284303 2.31511.425259.7383.874046 1.41149 1.3406496 2.00212.4666034.59064.9508434 1.0985 1.3170384 1.44106.366196.34257.614238.51974.82016.65491.205922.13517.369741.22836.605928.32873.236187.10038.545031.20806.835132.31501.2901.10694.561906.2133.774485.29597.212579.0827.366197.14175.488504.20777.122307.066.213696.13919.304942.21225" id="path7603" fill="none" stroke="#000" stroke-width=".08"/><path d="M22.028529 275.31661c-.04281-.12677-.08557-.25337-.128209-.37963" id="path7607" fill="none" stroke="#000" stroke-width=".14"/><path d="M32.19085 274.43665c.105588-.062.210768-.12382.315494-.18534" id="path7679" fill="none" stroke="#000" stroke-width=".133"/><path d="M25.736022 276.25488c-.04091-.11544-.08167-.23042-.122242-.3449" id="path7679-8" fill="none" stroke="#000" stroke-width=".13300002"/><path d="M24.725781 274.63965c-.07474.0977-.14918.19495-.223296.29181" id="path7679-8-0" fill="none" stroke="#000" stroke-width=".13105807"/><path d="M21.603982 274.49192c-.09637-.0807-.192641-.16135-.288656-.24177" id="path7607-6" fill="none" stroke="#000" stroke-width=".12979862"/><path d="M11.904996 268.72879c.125612.004.251155.008.376318.0126" id="path7607-6-5" fill="none" stroke="#000" stroke-width=".134"/><path d="M8.0471716 270.23473c.097926-.0788.1958243-.15749.2934105-.23597" id="path7607-6-5-4" fill="none" stroke="#000" stroke-width=".134"/><path d="M18.638554 259.03463c.124647-.0161.249226-.0322.373425-.0482" id="path7607-6-5-7" fill="none" stroke="#000" stroke-width=".134"/></g></svg>