<?xml version="1.0" encoding="utf-8"?>
<!-- Generator: Adobe Illustrator 16.0.0, SVG Export Plug-In . SVG Version: 6.00 Build 0) -->
<!DOCTYPE svg PUBLIC "-//W3C//DTD SVG 1.1//EN" "http://www.w3.org/Graphics/SVG/1.1/DTD/svg11.dtd">
<svg version="1.1" author="Provart Lab - Bio Analytic Resource, University of Toronto" license="CCBY4.0" xmlns="http://www.w3.org/2000/svg" xmlns:xlink="http://www.w3.org/1999/xlink" x="0px" y="0px" width="75px"
    height="75px" viewBox="0 0 300 300" enable-background="new 0 0 300 300" xml:space="preserve">
	<g id="shapes">
		<g id="receptacle">
			<path fill="none" stroke="#000000" stroke-width="0.5" stroke-miterlimit="10" d="M120.738,212.084c0,0-0.874,15.441,0.292,20.686
                   			c2.04,9.033,5.537,26.224,5.537,26.224c3.497-1.164,22.727-5.535,22.727-5.535c0.874-5.536,2.913-27.973,1.457-33.8
                   			c-4.079,3.496-10.198,8.449-12.238,7.867c-3.497-2.622-9.613-4.369-11.946-13.401
                   			C124.818,213.831,122.776,212.957,120.738,212.084z" />
		</g>
		<g id="flower">
			<path fill="none" stroke="#000000" stroke-width="0.5" stroke-miterlimit="10" d="M120.738,212.084c0,0-10.489-1.747-11.946-4.079
                   			c-4.078-3.206-11.654-9.615-12.82-13.112c-4.37-3.496-18.648-15.149-19.522-21.853c-1.167-6.702-5.247-20.104-5.537-24.476
                   			c0.292-4.954,4.37-13.693,5.245-14.859c1.748-1.166,4.955,0.291,7.285,4.953c2.622,5.536,8.451,22.145,9.907,26.515
                   			c2.913,6.701,14.277,21.272,17.482,24.768c0.29-9.033-0.292-25.644-1.166-31.47c0-7.575,0.582-15.734,0.582-15.734
                   			c-2.913-2.913-17.776-9.905-24.767-13.694c-4.953-3.788-6.701-0.584-10.198-14.278c-1.165-3.497,0-4.66,2.915-4.079
                   			c5.537,1.457,10.197,4.953,10.197,4.079c-0.29-5.535-0.29-9.615-7.575-13.694c-7.867-3.788-11.365-7.577-13.695-9.907
                   			C61.59,90,54.596,83.006,51.391,78.636c-4.661-4.663-5.245-8.451-6.701-12.822c-4.079-5.535-9.615-13.112-5.245-14.567
                   			c4.37,0.582,7.285,0.583,15.734-1.457c4.371,0.582,9.617,3.788,16.026,8.741c7.575,4.661,22.143,9.323,26.513,16.316
                   			c4.954,6.119,9.907,14.278,9.907,14.278c0.874-6.119,2.041-16.318,2.041-16.318c-2.333-2.622-4.371-6.701,0.874-5.827
                   			c6.119,0.292,14.275-0.582,14.275-0.582c-1.456-3.496-0.291-8.741,7.868-9.615c4.954,0.582,17.482,3.497,17.482,3.497
                   			c2.04-2.623-1.166,7.575-2.623,9.031c1.458,3.789,2.914,23.893,2.914,23.893c2.915-6.119,4.373-15.153,4.663-26.807
                   			c-2.623-2.623-6.703-5.535-1.458-10.78c3.788-3.497,10.199-6.703,10.781-0.292c0,4.079-0.292,5.828,9.615-4.953
                   			c7.575-5.537,11.655-8.449,20.104-8.741c9.615,0.29,22.727-1.165,24.476-0.875c2.914,1.457,8.159,3.205,5.244,12.82
                   			c-2.623,7.575-8.45,20.104-11.655,25.349c2.915,0,10.782-2.332,13.695-6.411c3.205-3.787,5.829-6.7,13.985-6.409
                   			c6.702-1.166,9.322-2.331,11.654,3.496c1.458,5.827,0.291,15.151-10.779,21.561c-9.324,4.079-27.39,12.53-37.587,22.145
                   			c-9.615,9.032-29.722,25.058-27.39,40.792c4.37-3.204,16.318-14.277,20.396-20.104c5.537-6.993,9.325-13.988,10.781-16.026
                   			c2.039,1.458,6.409,13.404,4.079,23.893c-3.496,9.615-3.496,17.192-20.979,38.753c-2.915,4.952-5.536,11.653-10.781,15.15
                   			c-4.371,3.496-10.198,6.993-10.198,6.993c-3.788,4.08-15.442,12.821-18.355,16.899c-3.789,2.915-12.238,7.867-12.238,7.867
                   			c-3.788-2.331-9.613-6.117-11.946-13.401C124.526,214.121,121.028,210.335,120.738,212.084z" />
		</g>
	</g>
	<g id="outline">
		<path fill="none" stroke="#000000" stroke-width="0.5" stroke-miterlimit="10" d="M120.738,212.084c0,0-0.874,15.441,0.292,20.686
                   		c2.04,9.033,5.537,26.224,5.537,26.224c3.497-1.164,22.727-5.535,22.727-5.535c0.874-5.536,2.913-27.973,1.457-33.8
                   		c-4.079,3.496-10.198,8.449-12.238,7.867c-3.497-2.622-9.613-4.369-11.946-13.401C124.818,213.831,122.776,212.957,120.738,212.084
                   		z" />
		<path fill="none" stroke="#000000" stroke-width="0.5" stroke-miterlimit="10" d="M120.738,212.084c0,0-10.489-1.747-11.946-4.079
                   		c-4.078-3.206-11.654-9.615-12.82-13.112c-4.37-3.496-18.648-15.149-19.522-21.853c-1.167-6.702-5.247-20.104-5.537-24.476
                   		c0.292-4.954,4.37-13.693,5.245-14.859c1.748-1.166,4.955,0.291,7.285,4.953c2.622,5.536,8.451,22.145,9.907,26.515
                   		c2.913,6.701,14.277,21.272,17.482,24.768c0.29-9.033-0.292-25.644-1.166-31.47c0-7.575,0.582-15.734,0.582-15.734
                   		c-2.913-2.913-17.776-9.905-24.767-13.694c-4.953-3.788-6.701-0.584-10.198-14.278c-1.165-3.497,0-4.66,2.915-4.079
                   		c5.537,1.457,10.197,4.953,10.197,4.079c-0.29-5.535-0.29-9.615-7.575-13.694c-7.867-3.788-11.365-7.577-13.695-9.907
                   		C61.59,90,54.596,83.006,51.391,78.636c-4.661-4.663-5.245-8.451-6.701-12.822c-4.079-5.535-9.615-13.112-5.245-14.567
                   		c4.37,0.582,7.285,0.583,15.734-1.457c4.371,0.582,9.617,3.788,16.026,8.741c7.575,4.661,22.143,9.323,26.513,16.316
                   		c4.954,6.119,9.907,14.278,9.907,14.278c0.874-6.119,2.041-16.318,2.041-16.318c-2.333-2.622-4.371-6.701,0.874-5.827
                   		c6.119,0.292,14.275-0.582,14.275-0.582c-1.456-3.496-0.291-8.741,7.868-9.615c4.954,0.582,17.482,3.497,17.482,3.497
                   		c2.04-2.623-1.166,7.575-2.623,9.031c1.458,3.789,2.914,23.893,2.914,23.893c2.915-6.119,4.373-15.153,4.663-26.807
                   		c-2.623-2.623-6.703-5.535-1.458-10.78c3.788-3.497,10.199-6.703,10.781-0.292c0,4.079-0.292,5.828,9.615-4.953
                   		c7.575-5.537,11.655-8.449,20.104-8.741c9.615,0.29,22.727-1.165,24.476-0.875c2.914,1.457,8.159,3.205,5.244,12.82
                   		c-2.623,7.575-8.45,20.104-11.655,25.349c2.915,0,10.782-2.332,13.695-6.411c3.205-3.787,5.829-6.7,13.985-6.409
                   		c6.702-1.166,9.322-2.331,11.654,3.496c1.458,5.827,0.291,15.151-10.779,21.561c-9.324,4.079-27.39,12.53-37.587,22.145
                   		c-9.615,9.032-29.722,25.058-27.39,40.792c4.37-3.204,16.318-14.277,20.396-20.104c5.537-6.993,9.325-13.988,10.781-16.026
                   		c2.039,1.458,6.409,13.404,4.079,23.893c-3.496,9.615-3.496,17.192-20.979,38.753c-2.915,4.952-5.536,11.653-10.781,15.15
                   		c-4.371,3.496-10.198,6.993-10.198,6.993c-3.788,4.08-15.442,12.821-18.355,16.899c-3.789,2.915-12.238,7.867-12.238,7.867
                   		c-3.788-2.331-9.613-6.117-11.946-13.401C124.526,214.121,121.028,210.335,120.738,212.084z" />
		<path fill="none" stroke="#000000" stroke-width="0.5" stroke-miterlimit="10" d="M208.378,58.782
                   		c-0.559,0.576-1.305,1.057-2.095,1.568c-0.604,0.389-1.225,0.79-1.798,1.263c-0.782,0.637-1.629,1.208-2.516,1.816
                   		c-0.628,0.431-1.263,0.863-1.879,1.322c-1.952,1.448-3.585,3.158-5.162,4.806c-0.987,1.05-2.017,2.122-3.103,3.104
                   		c-2.189,1.98-4.511,4.226-7.103,6.863c-1.804,1.854-6.155,7.579-6.425,8.067c-0.298,0.534-0.913,1.639-1.26,1.797"
		/>
		<path fill="none" stroke="#000000" stroke-width="0.5" stroke-miterlimit="10" d="M194.376,51.409
                   		c-0.229,0.686-1.324,1.644-3.258,2.878c-1.899,1.202-3.591,2.98-4.825,4.266c-4.705,4.927-8.394,9.352-11.273,13.511"
		/>
		<path fill="none" stroke="#000000" stroke-width="0.5" stroke-miterlimit="10" d="M248.808,67.575
                   		c0.083,0.106,0.177,0.198,0.256,0.314l-0.203,0.063C248.812,67.809,248.804,67.686,248.808,67.575z M248.712,67.476
                   		c-0.282,0.423-0.983,1.322-2.62,3.229l-0.268,0.309c-0.912,1.083-2.092,2.09-3.232,3.066l-0.855,0.745
                   		c-1.167,1.016-2.514,1.485-4.075,2.015c-0.469,0.166-0.945,0.33-1.419,0.509c-2.258,0.854-4.322,1.499-6.034,2.018
                   		c-0.897,0.27-1.874,0.438-2.911,0.615c-1.375,0.244-2.803,0.478-4.163,0.992c-2.601,0.979-5.109,2.237-7.251,3.644l-0.646,0.424
                   		c-4.239,2.782-8.619,5.649-13.106,7.46c-0.91,0.364-1.764,0.806-2.589,1.275c0.342-0.263,0.681-0.547,1.025-0.803
                   		c1.632-1.224,3.314-2.491,4.787-4.135c0.628-0.716,1.301-1.431,1.979-2.151c1.565-1.678,3.532-5.876,4.901-7.758 M148.638,155.266
                   		l3.879-4.096c0.068-0.11,0.452-0.331,0.683-0.469c0.381-0.223,0.812-0.472,1.182-0.837c0.763-0.759,1.294-1.923,1.671-2.85
                   		c0.618-1.532,0.965-3.115,1.298-4.646c0.137-0.643,0.276-1.289,0.444-1.936c1.027-4.114,1.005-8.486,0.981-12.724l-0.008-1.866
                   		c0-2.544,0.184-4.887,0.575-7.372c0.155-0.997,0.412-1.982,0.686-3.025c0.334-1.284,0.691-2.63,0.838-4.027
                   		c0.062-0.544,0.172-1.11,0.279-1.673c0.106-0.597,0.228-1.201,0.301-1.808c0.072-0.583,0.095-1.2,0.11-1.821
                   		c0.007-0.093,0.021-0.181,0.023-0.263c0.17,0.369,0.354,0.721,0.542,0.985c1.178,1.712,3.804,2.846,5.677,3.053
                   		c0.672,0.075,1.429,0.128,2.219,0.128c0.478,0,0.979-0.036,1.473-0.075c-0.183,0.232-0.437,0.529-0.909,0.937
                   		c-1.343,1.18-2.188,2.218-2.915,3.582c-1.475,2.77-2.399,5.474-2.817,8.267c-0.621,4.046-0.483,8.395-0.352,12.581
                   		c0.045,1.724,1.457,7.219,1.457,8.884 M151.26,93.604c0.447-3.909-3.316,8.879-3.788,12.765c-0.328,2.759-0.677,5.613-0.837,8.544
                   		l0.266,0.016c-0.159,1.815-0.108,3.679-0.04,5.492c0.033,0.934,0.062,1.871,0.062,2.798c0,5.998,0.68,12.03,1.338,17.863
                   		l0.064,0.576c0.691,6.145,0.388,12.487,0.094,18.617c-0.162,3.389-0.33,6.91-0.33,10.373h0.038 M173.682,106.652
                   		c-1.127,0.666-3.169,0.895-5.604,0.618c-1.262-0.14-3.158-0.988-3.807-1.929c-0.275-0.401-0.68-1.349-0.823-1.955
                   		c-0.05-0.25,0.002-0.519,0.109-0.953c0.115-0.516,0.271-1.156,0.136-1.89l-0.794,0.145c0.182-1.117,0.784-2.082,1.788-2.896
                   		c1.226-0.99,2.293-1.014,4.383-0.947c3.959,0.107,5.729,3.32,5.718,6.257l-0.002,0.417
                   		C174.786,105.359,174.73,106.029,173.682,106.652z M153.196,150.704c0,0,1.924-9.861,0.612-20.788
                   		c-1.312-10.926,0.438-26.223,2.764-36.653c2.327-10.429,4.226-26.283,8.159-35.024c-0.987,0.669-3.056,8.297-8.301,8.297
                   		c-0.612,0,0.332,0.191,0,0 M147.543,69.311c-4.879,4.775-14.337,1.369-16.169,0.734c-1.405-0.49-2.467-1.009-3.363-1.66
                   		c-0.206-0.374-0.451-0.628-0.763-0.791c-0.158-0.221-0.34-0.41-0.595-0.558l-0.053,0.09c-0.18-0.202-0.35-0.413-0.532-0.64
                   		 M109.346,74.349c1.652,1.231,3.616,2.281,5.697,2.281c0.758,0,1.519-0.133,2.292-0.451c1.928-0.785,4.34-1.917,6.006-3.669
                   		c0.514-0.546,1.974-5.284,2.339-5.745c0,0-0.907,5.129-0.838,5.709l0.038,0.323c0.239,1.924,0.263,3.939,0.263,5.656
                   		c0,2.29,0.073,4.553,0.146,6.829c0.072,2.252,0.145,4.509,0.145,6.792c0,4.73-0.191,9.003-0.592,13.076
                   		c-0.121,1.262-0.079,2.537-0.037,3.774c0.026,0.615,0.04,1.212,0.04,1.81c0,0.713,0.09,1.372,0.176,2.006
                   		c0.036,0.256,0.063,0.514,0.095,0.766 M107.626,89.388c-0.107,1.557-0.107,3.104,0.174,4.625c0.762,4.043,1.453,8.229,2.078,12.471
                   		c0.145,0.983,0.43,1.935,0.707,2.865c0.181,0.626,0.378,1.26,0.5,1.856c0.063,0.324,0.252,4.694,0.282,5.098
                   		c0.04,0.432-0.053-3.101,0.021-2.652c-0.115,0.014-0.222,0.033-0.338,0.038 M88.688,114.572c5.187,1.893,9.68,2.775,14.143,2.775
                   		c0.357,0,0.729,0.021,1.103,0.038c0.845,0.036,1.716,0.082,2.583-0.038c0.726-0.102,1.382-0.328,1.958-0.534
                   		c0.452-0.162,0.879-0.313,1.251-0.367c0.782-0.12,1.56-0.219,2.331-0.319c1.647-0.207,3.366-0.422,5.103-0.869
                   		c2.009-0.521,4.128-0.526,6.372-0.536c0.008,0,0.017,0,0.028,0c1.857,0,3.362,0.81,5.035,2.015c0.729,0.529,1.54,1.044,2.367,1.569
                   		c2.844,1.808,5.79,3.677,6.375,6.711c0.246,1.284,0.321,2.643,0.399,4.071c0.057,1.055,0.116,2.103,0.249,3.127
                   		c0.082,0.644,0.041,1.407,0.02,2.144c-0.02,0.399-0.036,0.804-0.036,1.19c-0.006,0.75,0.077,1.419,0.153,2.064
                   		c0.068,0.561,0.137,1.128,0.137,1.726c-0.01,2.538,0.071,5.095,0.146,7.567c0.072,2.344,0.142,4.682,0.142,7.004
                   		c0,1.848,0.111,3.744,0.219,5.574c0.177,2.941,0.344,5.975,0.08,8.875c-0.273,3.033-0.894,6.479-1.715,9.69
                   		c-0.266,1.039-0.254,2.043-0.246,3.021c0.01,0.641,0.018,1.248-0.052,1.837c-0.038,0.23-0.071,0.459-0.113,0.693
                   		c-0.094,0.521-0.197,1.106-0.201,1.784c-0.002,0.521,0.107,0.978,0.191,1.377c0.065,0.278,0.14,0.598,0.113,0.739l0.279,0.046
                   		 M126.99,121.618c-1-0.104-1.922,0.183-2.731,0.424c-0.303,0.09-0.599,0.181-0.892,0.244c-0.863,0.188-1.71,0.3-2.584,0.417
                   		l-0.531,0.071c-1.185,0.159-2.366,0.251-3.841,0.295c-0.594,0.019-1.171,0.098-1.748,0.178c-0.765,0.109-1.472,0.207-2.156,0.128
                   		c-1.338-0.149-2.684-0.258-4.029-0.382c-1.496-0.128-2.993-0.258-4.479-0.434c-2.324-0.273-4.673-0.742-7.388-1.476
                   		c-2.09-0.565-4.435-1.501-6.118-2.443 M110.249,142.736c0.246,0.4,1.608,4.308,1.847,4.699c0.256,0.418,0.507,0.838,0.766,1.252
                   		c2.877,4.611,4.97,8.238,5.645,12.898c0.407,2.77,0.855,5.529,1.306,8.287c0.382,2.289,0.754,4.568,1.094,6.87
                   		c0.478,3.162,0.908,6.418,1.33,9.677c0.235,1.821,0.473,3.645,0.71,5.446c0.108,0.754,0.179,1.488,0.246,2.215
                   		c0.125,1.416,0.263,2.876,0.635,4.351c0.256,1.008,0.619,2.012,0.966,2.989c0.426,1.203,0.832,2.338,1.011,3.382
                   		c0.032,0.199,0.091,0.46,0.157,0.745c0.08,0.345,0.244,1.062,0.234,1.284c0-0.002,0.004-0.111,0.079-0.263l0.294,0.143
                   		c-0.319,0.588-0.57,1.195-0.767,1.8c-0.097-0.11,0.094,0.107,0,0c-0.401-0.475-1.078-1.296-1.436-1.798
                   		c-0.271-0.379-0.524-0.766-0.777-1.167c-0.464-0.727-0.946-1.478-1.555-2.188c-1.057-1.216-1.931-2.679-2.846-4.229
                   		c-0.586-0.98-1.171-1.96-1.801-2.878c-0.579-0.842-1.234-1.599-1.868-2.331c-0.369-0.427-0.741-0.855-1.094-1.302
                   		c-0.297-0.373-3.297-2.306-3.589-2.68 M123.738,213.911c0.916-1.604,8.915-12.47,12.268-20.25c0.666-1.543,1.519-2.949,2.439-4.444
                   		c0.486-0.799,0.979-1.602,1.437-2.428c0.78-1.414,1.447-2.879,2.086-4.285c0.419-0.926,0.837-1.846,1.286-2.746
                   		c2.315-4.625,4.961-8.509,7.475-12.009c1.055-1.481,2.195-2.95,3.317-4.405c1.561-2.014,3.166-4.096,4.557-6.183l0.439-0.655
                   		c1.259-1.873,2.56-3.81,3.695-5.846c0.262-0.485,4.824-0.111,5.48,0.399c1.256,0.985,3.262,4.396,3.767,6.006
                   		c0.1,0.323-0.218-1.05-0.155-0.72 M171.987,157.062c0.255,1.885,0.072,3.852-0.136,5.906c-0.131,1.275-0.266,2.612-0.283,3.941
                   		c-0.038,2.527-0.364,4.966-0.713,7.538c-0.364,2.727-0.744,5.53-0.744,8.434c0,5.21-2.936,17.521-3.655,22.417 M206.003,122.535
                   		c-0.014,0.066-0.021,0.142-0.029,0.203c-0.132,0.955-0.425,1.9-0.735,2.893c-0.133,0.43-0.269,0.862-0.391,1.299
                   		c-1.046,3.678-2.237,7.437-3.394,11.07c-0.619,1.94-1.241,3.884-1.842,5.828c-1.265,4.081-3.311,10.052-6.459,14.78l-0.884,1.32
                   		c-1.324,1.981-2.64,3.945-3.943,5.984c-0.576,0.905-1.205,1.691-1.871,2.525c-0.383,0.477-0.766,0.963-1.141,1.472l-1.521,2.033
                   		c-0.169,0.213-0.317,0.492-0.455,0.765c-0.052,0.111-0.107,0.237-0.151,0.297c-0.051,0.055-0.135,0.107-0.204,0.162
                   		c-0.196,0.144-0.452,0.325-0.646,0.583l-0.807,1.05c-1.455,1.903-2.959,3.87-4.58,5.465c-0.936,0.92-2.171,2.116-3.449,3.196
                   		c-0.301,0.256-0.552,0.548-0.797,0.839c0.02-0.476,0.043-0.949,0.043-1.427c0-2.729,0.367-5.451,0.723-8.084
                   		c0.342-2.544,0.693-5.175,0.733-7.858c0.018-1.209,0.141-2.43,0.271-3.715c0.183-1.889,1.492-7.174,1.33-9.118 M165.623,145.184
                   		c0.03-0.096-2.917,5.564-2.88,5.475c0.214-0.643,3.477-7.066,3.778-7.73c0.184-0.408,0.371-0.821,0.536-1.205
                   		c0.286-0.698,0.588-1.381,0.89-2.06c0.66-1.499,1.348-3.049,1.847-4.7c0.449-1.458,1.103-2.838,1.792-4.299
                   		c0.455-0.958,0.911-1.912,1.297-2.876c0.619-1.568,1.319-3.121,2.002-4.685c0.425-0.956,0.851-1.912,1.271-2.87
                   		c0.873-2.033,1.723-4.01,2.731-5.876c0.388-0.383,0.742-0.778,1.084-1.199c0.283-0.339,0.562-0.677,0.851-0.966
                   		c0.868-0.871,1.764-1.615,2.709-2.4l0.784-0.656c1.98-1.67,3.886-3.493,5.509-5.073c1.999-1.927,10.737-11.097,10.737-11.097"
		/>
		<path fill="none" stroke="#000000" stroke-width="0.5" stroke-miterlimit="10" d="M130.121,161.98
                   		c-0.125-0.58-0.284-1.171-0.445-1.764c-0.246-0.879-0.47-1.713-0.577-2.501c-0.475-3.269-1.228-6.464-2.378-10.054
                   		c-0.996-3.119-2.077-6.148-3.222-8.986c-0.553-1.369-1.258-2.562-1.939-3.713l-0.259-0.452c-0.143-0.243-0.347-0.545-0.578-0.898
                   		c-0.369-0.553-1.234-1.857-1.282-2.294" />
		<path fill="none" stroke="#000000" stroke-width="0.5" stroke-miterlimit="10" d="M91.138,99.905
                   		c0.506-2.242-1.722-4.511-3.051-5.868l-0.267-0.263c-1.836-1.904-4.037-4.13-6.426-6.228c-2.125-1.857-4.631-3.62-6.883-4.827
                   		c-0.91-0.49-1.731-1.115-2.604-1.776c-0.361-0.273-0.725-0.549-1.101-0.826c-0.179-0.117-0.357-0.287-0.555-0.458
                   		c-0.746-0.642-1.675-1.443-2.805-1.466" />
		<path fill="none" stroke="#000000" stroke-width="0.5" stroke-miterlimit="10" d="M61.564,66.537c-0.185,0.035-0.299,0-0.299,0
                   		c0.29,0.097,1.002,0.752,1.318,1.032c0.192,0.183,0.378,0.343,0.515,0.454l0.323,0.26c1.301,1.05,2.648,2.134,4.189,3.044
                   		c1.976,1.142,3.944,2.439,5.846,3.693c1.533,1.01,3.071,2.023,4.645,3.003c2.439,1.5,4.612,3.616,6.447,5.487
                   		c0.695,0.705,1.456,1.321,2.192,1.917c0.369,0.297,0.736,0.596,1.089,0.909c1.638,1.408,1.901,1.929,1.945,2.054"
		/>
	</g>
</svg>
