<svg xmlns="http://www.w3.org/2000/svg" viewBox="0 0 22 44" id="svg8828"><g id="layer1" transform="translate(0 -253)"><g transform="translate(-574.63444 -132.3968)" id="F4" stroke-width=".13229166"><g id="flowerDevelopmentPart4" transform="matrix(.26458 0 0 .26458 540.37229 450.10533)" stroke-width=".5"><path fill="none" d="M157.83309-235.70832c1.98273-.79583 10.283-4.11671 11.83795-4.04144 9.05199.16781 20.2112 1.44409 24.66601 10.78805 7.54533 16.57234 15.31138 33.85502 12.62137 52.57549-.16056 20.48876 1.12322 42.49456-8.85213 61.07996-4.11025 7.2523-5.1828 18.090499-8.25293 26.321699-7.01684-.2192-14.97115-2.2715-20.95815.32-1.34418-.1326-2.44975.7767-3.83615.3213-3.22954-3.5481-1.93658-12.588199-4.87054-15.671199 3.77998-2.6233-5.90543-1.2187-6.81144-4.6517-18.25912-13.5778-14.36427-40.5092-16.12214-61.11995-.59086-18.61195 3.70369-37.18928 11.3192-53.91455 1.69993-1.47884 6.5541-8.17495 8.23663-10.58369" id="path7814-9"/></g><g id="g12168"><path d="M591.54218 392.33014c2.91041 11.50938-1.98437 27.15287-1.98437 27.15287-2.18282 2.34817-5.22553 1.35599-5.22553 1.35599s-5.19932-14.28917-2.48652-30.94006" id="path1873" fill="none" stroke="#000"/><path d="M595.1802 401.06139s-3.63802-19.05-15.94114-9.32656" id="path1877" fill="none" stroke="#000"/><path d="M584.33228 420.839s-.10575 1.12995-1.57678 1.74585" id="path1881" fill="none" stroke="#000"/><path d="M589.55781 419.48301s.61338 1.61297 2.57783 1.33233" id="path1883" fill="none" stroke="#000"/></g></g><path d="M8.1210599 290.18805c.033885.0371.06775.0743.099307.11788.031557.0436.060781.0937.090031.15012.029249.0564.058428.11893.082452.17636.024024.0574.042793.10957.0637.1702.020907.0606.043822.12938.065081.20969.021259.0803.040697.17161.058817.25785.01812.0862.034778.16675.048891.24479.014113.078.025569.15303.038118.23599.012549.083.026079.17316.041761.27963.015682.10646.033387.22831.052196.35197.018809.12366.03861.24837.054801.34517.016191.0968.028699.16526.041772.23202.013073.0668.026597.13126.037053.18041.010456.0491.017739.0824.031356.13692.013617.0545.033347.12924.055295.20502.021947.0758.045911.15184.072566.2245.026655.0727.05582.1414.086661.20674.030841.0653.063123.12679.1012661.18845.038143.0617.081937.12318.1108346.16198.028897.0388.042783.0547.061024.0657.018241.011.040427.017.065066.022.024639.005.051973.009.07955.0118.027577.003.056.004.081993.003.025993-.0005.05022-.003.073575-.005s.04672-.006.069981-.009c.023261-.004.047712-.008.081852-.0156.03414-.008.079585-.0194.1284752-.0314.04889-.012.1024996-.0246.1415456-.0329.03905-.008.06438-.0125.09078-.0161.0264-.004.05503-.007.07785-.008.02283-.001.04076-.001.05977-.00098.01901.0005.03991.002.07667-.009.03676-.0105.09099-.0328.140052-.0516.04907-.0188.09424-.0346.154514-.0533.06028-.0187.137032-.0408.215696-.0622.07866-.0213.160423-.0423.247416-.0595.08699-.0172.180262-.0308.269907-.0433.08965-.0125.176577-.024.2641-.0323.08752-.008.176598-.0136.250105-.0177.07351-.004.132202-.007.208688-.009.07648-.001.171941-.001.237142-.001.0652 0 .100801 0 .146004.0005.0452.0005.100958.001.164472.003.06351.002.135894.005.203645.008.06775.003.131656.006.204567.0106.07291.005.155712.0109.252634.0187.09692.008.208968.0172.314301.0266.105332.009.204737.0188.305887.0287.101151.01.204751.0204.307987.0303.103237.01.206838.0193.325702.0308.118865.0115.253855.0251.366008.0355.112152.0104.202097.0177.29593.025.09383.007.192231.0146.27672.0197.08449.005.15566.008.216206.0108.06055.003.110996.005.164036-.075.05304-.0801.109527-.24384.160025-.3967.0505-.15285.09548-.29616.139276-.44164.0438-.14547.0867-.29405.132576-.4609.04588-.16684.09505-.35307.144079-.54552.04903-.19246.09818-.3922.149292-.59927.05112-.20708.104445-.42248.154003-.62332.04956-.20084.09556-.38799.14511-.58253.04955-.19454.102884-.39742.152442-.57999.04956-.18258.09557-.3457.14563-.51362.05007-.16792.104462-.34157.149851-.47929.04539-.13771.082-.24022.08982-.30766.0078-.0675-.01301-.10047-.000371-.13339.01264-.0329.05863-.0659.108416-.15078.04979-.0849.104434-.22362.153461-.33939.04903-.11578.09298-.20996.132597-.29336.03962-.0834.07523-.15673.12729-.25719.05206-.10047.121266-.22945.164573-.31032.04331-.0809.0611-.11437.08549-.16159.02438-.0472.05599-.10937.09033-.18014.03434-.0708.07214-.15161.11017-.23237.03804-.0808.07681-.1625.124195-.26717.04739-.10468.103986-.23359.150389-.34257.0464-.10898.08305-.19902.12472-.30581.04167-.10678.08882-.23147.138343-.36387.04952-.13241.101857-.27371.146701-.40096.04484-.12724.08251-.24129.115876-.34556.03337-.10427.06268-.19954.09239-.29699.0297-.0974.06008-.19801.08927-.29964.02918-.10163.05746-.20531.08613-.31319.02867-.10789.05799-.22099.08406-.32578.02607-.10479.0491-.20214.07099-.29441.02189-.0923.04284-.18023.06264-.26934.0198-.0891.03865-.18024.05689-.26987.01824-.0896.03605-.17868.05533-.27819.01928-.0995.04023-.21057.06264-.33409.02241-.12353.04649-.26068.06787-.38844.02138-.12775.04021-.24703.05742-.36278.0172-.11574.0329-.22878.04854-.34711.01564-.11834.03134-.2429.0501-.39928.01877-.15638.04074-.34579.05587-.48074.01513-.13495.0235-.21618.03496-.33735.01146-.12117.02613-.28357.04073-.46297.0146-.17939.02924-.37706.0428-.58049.01356-.20344.02611-.41358.03549-.58419.0094-.17061.01566-.30233.0214-.42905.0057-.12672.01097-.24913.01722-.42218.0063-.17305.01358-.39803.01984-.62809.0063-.23006.01149-.4663.01514-.69063.0037-.22434.0058-.43757.0079-.65407.0021-.21649.0042-.43705.0053-.63792.001-.20086.001-.38274.0016-.5747.000516-.19195.0016-.39478.0016-.6097s-.001-.44282-.001-.66194c-.000002-.21912.001-.43235.0016-.65771.000516-.22535.000516-.46473.0011-.60644.000585-.14172.0018-.18622.01422-.30468.01246-.11846.03649-.31324.05624-.50698.01975-.19374.03543-.38822.04691-.57862.01147-.19039.01879-.37754.02244-.56376.0036-.18621.0036-.37232.0031-.47565-.000522-.10333-.0016-.12423-.01637-.1396-.01481-.0154-.04423-.0258-.04306-.0284.0012-.003.03217.002.04658-.004.01441-.006.01229-.0243.01075-.0574-.0015-.0331-.0026-.0828-.0052-.15767-.0026-.0749-.0068-.1767-.01305-.28669-.0063-.10999-.01463-.22931-.02193-.32578-.0073-.0965-.01358-.1708-.02036-.24637-.0068-.0756-.0141-.15306-.02505-.25309-.01094-.10004-.0256-.22361-.03969-.33212-.01409-.10851-.02768-.2026-.04176-.3001-.01408-.0975-.02873-.199-.04958-.32828-.02085-.12929-.04806-.28728-.07205-.41875-.024-.13147-.04491-.23706-.06889-.35334-.02398-.11628-.05118-.24388-.083-.38157s-.06842-.28618-.109626-.4505c-.04121-.16431-.08721-.34516-.133641-.51629-.04644-.17113-.09347-.33312-.140943-.49277-.04748-.15964-.09556-.31746-.150856-.49171-.0553-.17425-.118008-.36551-.184795-.56221-.06679-.19671-.137841-.39942-.21246-.60554-.07462-.20611-.152978-.41611-.236991-.63475-.08401-.21864-.173859-.4464-.259967-.65984-.08611-.21344-.168637-.41297-.257868-.62639-.08923-.21342-.185347-.44118-.283978-.67079-.09863-.22962-.199957-.46152-.298591-.68436-.09863-.22284-.194736-.43698-.296499-.66294-.101762-.22597-.209357-.46414-.298081-.65828-.08872-.19415-.15871-.34457-.207769-.44529-.04906-.10072-.07726-.1519-.105439-.20199-.02818-.0501-.05639-.0992-.09289-.15759-.0365-.0584-.08148-.12639-.133123-.19942-.05165-.073-.110163-.15141-.167047-.22186-.05688-.0704-.11223-.1331-.18477-.20773-.07254-.0746-.162346-.1613-.228119-.22394-.06577-.0626-.107518-.10126-.184778-.16234-.07726-.0611-.18999-.14458-.267769-.20096-.07778-.0564-.120558-.0856-.192132-.12948-.07157-.0439-.17167-.10228-.263569-.15293-.0919-.0507-.175362-.0934-.278782-.14148-.10342-.0481-.226455-.10123-.346565-.14928-.12011-.048-.236933-.0908-.360719-.13207-.123785-.0413-.254117-.0809-.364838-.11222-.110721-.0313-.201427-.0543-.30176-.0773-.100333-.023-.209728-.0459-.330427-.0694-.120699-.0235-.252013-.0475-.393586-.0704-.141574-.023-.292717-.0449-.434276-.0626-.14156-.0178-.272909-.0313-.42078-.0439-.147871-.0125-.311483-.024-.460891-.0334-.149407-.009-.283863-.0167-.404535-.0224-.120672-.006-.226996-.01-.326276-.0125-.09928-.003-.190933-.004-.253098-.003-.06216.00099-.09445.004-.149569.0144-.05512.0104-.1317.028-.220115.0515-.08842.0235-.1872.0526-.3033003.0898-.1161004.0371-.2482545.0819-.4207774.142-.1725229.0601-.3839482.13511-.5871596.20981-.2032113.0747-.3970993.14871-.5930119.22446-.1959127.0758-.3929154.15289-.5353701.20885-.1424547.056-.2297785.0905-.3229239.17683-.093145.0863-.191169.22343-.2822129.35085-.091044.12741-.174386.24409-.2606311.36431-.086245.12022-.1747606.2431-.289771.4015-.1150105.15841-.2556121.35109-.3705185.50569-.1149065.15461-.2035125.27032-.3054474.40101-.101935.13068-.2164866.27543-.3382394.42541-.1217527.14997-.2499113.30418-.3355628.40446-.085651.10029-.1283511.14611-.1649236.18249-.036573.0364-.066599.0629-.098674.11487-.032075.052-.065245.12799-.099815.20568-.034571.0777-.069906.15564-.09552.21417-.025614.0585-.04122.097-.050597.11848-.00938.0214-.012422.0255-.039206.0863-.026784.0608-.07043.16264-.1248105.29127-.054381.12863-.1157992.27541-.1769441.42591-.061145.15051-.1215677.30364-.1759095.44472-.054342.14108-.1022669.26923-.1508739.39885-.048607.12962-.097554.2598-.1472126.39779-.049658.13799-.099648.28275-.1566173.44947-.056969.16673-.1205166.35425-.1790296.53083-.058513.17658-.1116669.34125-.1560734.48073-.044407.13949-.079835.25307-.1190518.38744-.039217.13438-.081902.28846-.1174285.41698-.035526.12852-.063659.23063-.094509.34305-.03085.11242-.064154.23419-.091322.3345-.027168.10031-.048003.17844-.076268.29202-.028265.11357-.06362.26123-.09497.39238-.031349.13114-.058437.2447-.087715.37279s-.060513.26969-.088209.3998-.051655.24782-.083027.40729c-.031373.15948-.069901.35941-.095494.49572-.025593.13631-.038099.20822-.055373.31081-.017273.10259-.039107.23463-.058442.35482-.019335.12019-.036001.22748-.054823.35139-.018822.12391-.039645.26342-.057935.39405-.01829.13063-.033917.25148-.049599.38216-.015682.13067-.031305.27023-.046981.41184-.015677.14161-.031305.28435-.045416.43067-.014111.14632-.026614.29531-.039156.45782-.012542.16251-.025046.33757-.037064.52671-.012018.18914-.023483.39135-.030798.5407-.00731.14936-.010444.24529-.014629.38807-.00419.14278-.00939.33121-.012004.46858-.00261.13737-.00261.22282-.00209.37035.0005226.14753.00156.35569.00313.49618.00156.14049.00365.2124.00522.2809.00157.0685.00261.13299.00836.23036.00576.0974.016153.22629.028174.39248s.025567.36835.035492.53495c.00992.1666.01618.29694.023498.46418.00732.16724.015653.37043.022966.56474.00731.1943.013569.37886.017748.51518.00418.13633.00626.22387.010445.36666.00418.1428.010429.33954.015653.52706.00522.18752.00939.36477.01305.50631.00366.14154.00679.24684.011491.4016.00471.15476.010955.35785.017744.55006.00679.19222.014088.37261.020878.53035.00679.15774.013045.29223.017746.3925.0047.10027.00783.16596.011492.23658.00366.0706.00782.1455.015147.27421.00733.12872.017731.30978.031312.50829.013581.19851.030263.41329.044361.57675.014098.16345.025569.27503.038635.4036.013066.12857.027651.27338.040707.39403.013056.12065.024526.21657.039162.33158.014637.11501.032342.24832.05324.39096.020898.14264.04487.29377.066808.42696.021937.1332.041745.24788.069965.39683.02822.14894.064694.33131.1049112.5136.040217.18229.084016.36375.118487.50111.034471.13737.059489.23014.088231.33205.028741.1019.061043.21235.08873.30482.027687.0925.050613.16646.079885.25637.029272.0899.064686.19511.1064835.3111.041798.11599.089749.24212.1498216.38995.060072.14784.1320275.31678.1879036.44263.055876.12586.095509.20825.1446185.30647.049109.0982.1074928.21186.1523984.29646.044906.0846.076205.13989.1138204.20519.037615.0653.081403.14037.1310211.22185.049618.0815.104904.1691.1785479.27879.073644.10968.1654437.24112.2500394.35653.084596.1154.1618009.21452.2406487.3106.078848.0961.1592014.18895.2375206.27719.078319.0882.1545054.17173.2307385.25162.076233.0799.1524175.15607.2364655.23542.084048.0794.1759283.16184.2563064.23178.080378.0699.1493194.12738.2337597.19529.08444.0679.1845304.1464.2356523.18964.051122.0433.053409.0514.057742.0641.00433.0126.010449.0289.017815.0463.00737.0174.015614.0349.02715.0548.011536.0199.026061.0417.043849.0637.017788.022.038624.0439.065271.0674.026647.0235.058974.0486.095532.0736.036558.0251.077279.0501.1132974.07.036019.0198.067412.0345.1038819.0507.03647.0161.078385.034.1201047.0496.041719.0156.083606.0292.1372507.0448.053645.0156.1196719.0334.1905711.0506.070899.0172.1473115.0339.2234362.0501.076125.0162.1525341.0319.2317689.048.079235.0162.1619219.0329.2323171.0485.070395.0156.1290194.0303.1733126.0433.044293.013.074655.0246.1032807.0371.028626.0125.055927.0261.076214.0386.020287.0125.03389.024.043812.0366.00992.0126.016131.026.019803.0401.00367.0141.00471.0286.00315.0427-.00156.0142-.00565.0275-.013008.0412-.00736.0137-.017577.027-.054906.0618s-.097883.0876-.1605869.14219" id="path9470" fill="none" stroke="#000" stroke-width=".1"/></g></svg>