<svg xmlns="http://www.w3.org/2000/svg" viewBox="0 0 27 28" id="svg8664"><g id="layer1" transform="translate(0 -269)"><g transform="translate(-807.0242 -124.46253)" id="F19" stroke-width=".13229166"><g id="flowerDevelopmentPart19" transform="translate(754.34903 307.75498) scale(.16674)" fill="none" stroke-width=".79340011"><path d="M411.05315 678.72504c-4.2712-2.1167-14.2987.032-18.7489-6.4633-5.8018-7.5461-12.1653-12.5292-12.1384-21.6297.374-12.4225-6.3758-4.0769-4.6415 2.5669-2.4483 7.3144-6.3019 11.5451-13.8012 12.9257-8.2525 2.6129-15.4419 4.1369-23.4152-.6928-11.8403-5.4741-20.3896-19.1401-14.636-32.48 2.8603-9.57719 10.0262-19.50753 17.6867-23.67745 8.1233-3.27724 17.2372-3.064 22.96 3.07693 2.3355 1.8664 7.5713 2.77747 7.84.19287-2.025-4.48472-12.2226.64533-12.4632-7.82726-3.9328-14.57119 13.3519-20.23419 24.4361-20.45313 9.6813 5.21256 4.1123-6.18724-2.2883-2.03257-12.1121 2.18968-28.8214 6.2077-36.7545-6.3192-9.2385-10.47482-9.9614-28.51095 1.0697-38.01942 4.8925-8.46338 13.3349-17.96262 24.5747-15.5655 9.315-2.01425 17.5007 7.2284 26.0032 8.38485 10.8018 4.78131 11.7076 19.42112 5.5083 28.43204.9275 7.11848 3.4091 3.88964 7.5934 1.86591 3.0591-2.0424 7.7835 2.6663 9.4547 1.46228-2.3143-7.7848-2.539-19.05149 7.5017-20.72643 3.7798-3.92661 9.497-10.98779 15.244-5.7653 5.2066.90964 7.9634 7.68798 12.7349 2.52009 5.644-4.12731 12.5396-7.44865 16.9987-12.35037 4.1899 2.64858-1.9129 9.94692-4.3783 12.90713-3.4267 4.99952-10.6389 8.41491-12.275 13.73515 1.2099 6.6462 1.1861 16.31501-3.8252 20.87835-3.8545-.0979-4.0127 7.66756-3.2678 10.93258 1.8793 5.97616-4.8188 13.35219-2.6753 17.94906 12.0757 7.5699 11.706 31.59009-4.2068 35.78509-4.7588 4.6885-14.1634-2.1268-14.7439 6.1257-4.5552.1687-.9267 9.0084 4.16 7.6513 4.2146 2.8176 10.5431.8346 11.4521 5.6382-6.732-.2852-18.3307-1.8211-19.2254 7.4634-1.776 5.7155-5.2826 12.5058-11.7333 13.5089z" id="path8102-6"/></g><g id="g12492"><path d="M810.78254 399.50696s5.6224 2.38125 9.12813-3.40651" id="path12380" fill="none" stroke="#000"/><path d="M818.29703 398.14465s1.8511.16584 3.49879 2.18914" id="path12382" fill="none" stroke="#000"/><path d="M818.55468 404.69941s2.02522-1.17456 2.86469-3.71266" id="path12384" fill="none" stroke="#000"/><path d="M809.78622 410.5988s.2267 1.79837 1.56856 2.30478c1.44108 1.06865 1.47828 2.70989 1.47828 2.70989s.59532 2.51355-.19843 3.57188" id="path12388" fill="none" stroke="#000"/><path d="M812.96535 416.83717s2.77813.52917 3.86954-.56224" id="path12392" fill="none" stroke="#000"/><path d="M818.39918 405.17521s.54814 4.18515-1.99636 4.71549" id="path12394" fill="none" stroke="#000"/><path d="M817.56249 415.2166s.16536-1.28984.89297-1.71979c0 0 2.70008-3.93018 5.5298-.51581 0 0 1.21608.79512 1.07576 2.38538 0 0 .0468.98221-.44434 1.59025" id="path12396" fill="none" stroke="#000"/><path d="M818.25567 418.00901s3.20389-4.37319 7.03921-.30403" id="path12400" fill="none" stroke="#000"/><path d="M818.45546 413.49681s1.28378.61693 1.72199.96993l1.42243-.0826s1.46388-1.63436 2.22865-1.624" id="path12402" fill="none" stroke="#000"/><path d="M820.17745 414.46674l-.35492 2.04555" id="path12404" fill="none" stroke="#000"/><path d="M821.5999 414.38414s1.77734.84193 2.31521 2.15154" id="path12406" fill="none" stroke="#000"/><path d="M820.17335 414.99221l1.28621 1.02899.79513-1.28625" id="path12408" fill="none" stroke="#000"/><path d="M820.54752 404.39832s-1.80073 4.65383 5.09815 3.48451c0 0-.81517-.44393-1.75395-1.6838-1.16931-1.66041-3.3442-1.80071-3.3442-1.80071z" id="path12410" fill="none" stroke="#000"/><path d="M823.56432 405.68454s-.21047-1.00561 1.07575-1.00561c0 0 3.06358-1.4967 4.30304.16371" id="path12412" fill="none" stroke="#000"/><path d="M823.86833 404.88941s-1.43438-2.55611.39365-3.34772" id="path12416" fill="none" stroke="#000"/><path d="M821.83374 401.70891s-1.38473 1.9554-1.28622 2.68941" id="path12420" fill="none" stroke="#000"/><path d="M819.26127 405.33375l1.04836.74154" id="path12422" fill="none" stroke="#000"/><path d="M823.35385 403.15885s1.88608-.0241 2.03049 1.05201" id="path12424" fill="none" stroke="#000"/><path d="M829.36407 397.80344s.76086 1.02122.87154 2.12424" id="path12426" fill="none" stroke="#000"/><path d="M825.17244 403.61885s1.03452-2.00347 2.04012.33512" id="path12428" fill="none" stroke="#000"/><path d="M826.04323 402.83145s-.63923-1.15294-1.78125-1.28976" id="path12430" fill="none" stroke="#000"/><path d="M826.4408 402.87821s1.8475.72498 2.80632.63142" id="path12432" fill="none" stroke="#000"/><path d="M816.89929 415.69378s.99967-3.69584-1.8037-5.83523c-1.77239-.52943-3.76975 2.96648-3.76975 2.96648" id="path12434" fill="none" stroke="#000"/><path d="M821.57651 407.71913s-2.92211 2.99532-3.62426 5.90592c0 0 2.26785-3.73101 5.33143-5.69545" id="path12436" fill="none" stroke="#000"/><path d="M821.06594 408.41998l-.14425-.63068s-3.32081.304-3.32081 2.8531c0 0 .16368 1.30961 1.12251 1.02898" id="path12438" fill="none" stroke="#000"/><path d="M819.37822 411.74154s1.80073-.77174 2.08134-2.1983" id="path12440" fill="none" stroke="#000"/><path d="M816.94606 409.66019s-.44434 1.05235.84191 1.59025c0 0-.72499.35078-.84192 1.16929" id="path12442" fill="none" stroke="#000"/><path d="M825.64567 407.88283s2.03311.014 2.96116.34184" id="path12444" fill="none" stroke="#000"/><path d="M824.90468 408.81698l-.42993.36381c-.78412.7367.0992 2.23242.0992 2.23242 1.24023 1.80247 3.58841.77722 3.58841.77722 1.9513-2.51354-.51263-4.18373-.51263-4.18373s-1.6068-.0678-2.3909.43738" id="path12446" fill="none" stroke="#000"/><path d="M826.22759 409.56113s.36381.44649.66146.14883c0 0 .62839-.44649-.13229-.61186 0 0-1.50482-.61184-2.53008-.66145l1.96784.94257z" id="path12448" fill="none" stroke="#000"/><path d="M824.6897 408.10592s-1.15755.76068-1.17409 2.4474c0 0 .0331 1.52135 1.43868 2.26549 0 0 .66145.0165.56224-.59532" id="path12450" fill="none" stroke="#000"/><path d="M825.26848 412.81881s1.60404 1.88519 2.89388-.62838" id="path12452" fill="none" stroke="#000"/><path d="M825.76457 414.55514s.52917-.47956.38034-1.10794" id="path12454" fill="none" stroke="#000"/><path d="M827.98046 412.75267s-.11576 1.05833-1.2237 1.70325" id="path12456" fill="none" stroke="#000"/></g></g><path d="M12.88647 271.63792c-.598154-.299-1.19667-.59817-1.690528-.80889-.493858-.21071-.884029-.33333-1.2089036-.39253-.3248743-.0592-.5744125-.0553-.8972671-.0553-.3228547.00009-.6973702-.004-1.1503445.10106-.4529743.10501-.9849288.31919-1.4807722.75368-.4958433.43449-.9560789 1.09034-1.2911215 1.51182-.3350426.42147-.5463084.61038-.7604779.95423-.2141694.34385-.4313755.84296-.5521877 1.19629-.1208122.35333-.145208.5615-.1574037.77978-.012196.21828-.012196.45419-.00257.65907.00963.20488.029717.38967.065176.59261.035459.20293.086579.42707.1640726.66908.077494.242.1784146.49431.339665.78421.1612505.2899.3811321.61335.5497534.85457.1686213.24122.2885945.40373.4483564.56483.159762.1611.3605034.32248.5869396.45242.2264363.12995.4784411.22838.8290625.31108.3506214.0827.799138.14958 1.2301955.16728.4310574.0177.8446781-.0138 1.3567533-.0873.5120753-.0735 1.1236333-.18913 1.5248653-.26702.401232-.0779.592539-.11811.78356-.15827" id="path888" fill="none" stroke="#000" stroke-width=".1"/><path d="M12.88647 271.63792c.196925.0485.393669.0971.584401.173.190732.0759.37589.17949.551808.32858.175918.14909.343038.34406.482231.55284.139193.20878.250542.43148.328512.65977.07797.2283.122495.46205.157315.696.03482.23396.05983.46735.02169.77148-.03813.30413-.139287.67722-.268065.98227-.128779.30504-.284556.54029-.342669.71142-.05811.17112-.01794.27672.019.35982.03694.0831.07028.14285.104104.1947.03382.0519.0692.0971.116088.14023.04689.0431.105687.0846.164485.1261" id="path892" fill="none" stroke="#000" stroke-width=".1"/><path d="M14.667553 277.26308c.07867-.009.163768-.019.241256-.0418.07749-.0228.151888-.0593.236752-.10479.08486-.0455.183772-.10204.271499-.15041.08773-.0484.166278-.0897.231329-.12294.06505-.0332.118383-.0592.177863-.0747.05948-.0155.126682-.0211.198171-.0162.07149.005.148383.0202.23869.0487.09031.0285.194996.0704.279841.10653.08484.0362.15037.0668.227567.0995.0772.0327.166421.0675.267156.0799.100735.0124.213307.002.325386-.008" id="path896" fill="none" stroke="#000" stroke-width=".1"/><path d="M17.23777 277.07915c-.06845-.27371-.13686-.54725-.174978-.79619-.03812-.24893-.046-.4735-.03615-.70961.0098-.23612.03744-.48445.120113-.73039.08267-.24595.220641-.49035.386996-.67857.166355-.18823.365299-.32351.542869-.39151.17757-.068.336384-.0703.531243-.2294.194859-.15907.426098-.47461.63626-.68202.210162-.20741.39914-.30682.558481-.37024.159342-.0634.289498-.091.434947-.0949.14545-.004.307252.0158.441862.064.134611.0482.242897.12509.353168.18218.110271.0571.22268.0945.345657.15054.122977.056.257049.13096.421602.22693.164553.096.360069.21325.555376.33041" id="path904" fill="none" stroke="#000" stroke-width=".1"/><path d="M22.355216 273.35038c.14622.007.297731.0142.430741-.0305.133009-.0448.250683-.14145.429965-.27486.179282-.13342.421557-.30458.69332-.48409.271763-.17951.576853-.36984.84539-.54934.268537-.17949.502635-.3495.702337-.51261.199701-.1631.365695-.31985.456344-.38734.09065-.0675.106556-.046.147558.0128.041.0588.10713.15494.138822.24054.03169.0856.02889.16068.01259.24446-.01631.0838-.04765.18066-.09924.29643-.05159.11577-.123737.25173-.218508.40227-.09477.15053-.211431.31441-.356352.50672-.14492.1923-.317217.41184-.504559.62011-.187342.20828-.391699.40704-.595063.59369-.203364.18666-.406331.36182-.547001.49133-.140671.12951-.218501.2129-.298587.30957-.08009.0967-.161563.20556-.223461.30874-.0619.10319-.10333.19945-.144986.29622" id="path908" fill="none" stroke="#000" stroke-width=".1"/><path d="M23.224526 275.43452c.01486.18412.02973.36848.04693.5797.0172.21121.03666.44866.03667.70213.00001.25346-.01946.52212-.06302.78833-.04356.26621-.111021.52883-.227025.76893-.116003.2401-.27983.4559-.428103.58455s-.280167.16906-.412531.20961" id="path912" fill="none" stroke="#000" stroke-width=".1"/><path d="M22.22292 279.0471c-.03498.079-.07013.1585-.10432.2487s-.06713.1904-.08923.29324c-.0221.10285-.03309.20725-.04968.33963s-.03863.29154-.06077.45144" id="path916" fill="none" stroke="#000" stroke-width=".1"/><path d="M21.91891 280.38011c.03655.12956.07315.25929.103331.38476.03018.12548.05385.24639.05794.35764.0041.11125-.01148.21242-.03099.32758-.01952.11517-.04284.24341-.08771.40148-.04487.15808-.110975.34472-.175996.51999-.06502.17528-.125955.33143-.17279.48945-.04684.15802-.07795.31361-.08038.46364-.0024.15002.0239.29352.05031.43749" id="path920" fill="none" stroke="#000" stroke-width=".1"/><path d="M21.58263 283.76214c.125949.0966.251895.19324.362379.29042.110484.0972.208331.19783.304775.32182.09645.124.192903.27282.277824.42603.08492.15322.160358.31527.223769.48205.06341.16679.115737.34029.152966.51122.03723.17093.05926.33889.06754.55813.0083.21924.0028.48902-.03167.76613-.03445.27711-.09778.5607-.174952.79506-.07718.23437-.168026.41882-.294235.61247-.126209.19365-.289884.39894-.449165.5557-.159282.15675-.317455.26775-.507181.36793-.189725.10018-.411228.18986-.555977.26288-.14475.073-.212119.12916-.298813.17406-.08669.0449-.190198.0776-.348252.0937-.158053.0161-.368118.0151-.579073.0141" id="path924" fill="none" stroke="#000" stroke-width=".1"/><path d="M19.820259 289.98502c-.359679.0358-.719641.0717-1.079889.10759" id="path928" fill="none" stroke="#000" stroke-width=".1"/><path d="M18.751739 290.0616c-.04958.0552-.100464.11184-.135451.15356-.03499.0417-.05436.0688-.07595.10757-.02159.0387-.0447.0879-.06472.1613-.02001.0734-.03634.16941-.06548.22119-.02914.0518-.07112.0585-.103698.0681-.03258.01-.05622.0224-.07577.0334-.01954.011-.03308.0192-.05013.0361-.01705.017-.03661.0424-.05719.0674s-.04179.0491-.06345.0737" id="path932" fill="none" stroke="#000" stroke-width=".1"/><path d="M18.04541 291.19984c.02489.0608.04957.12118.07403.17762.02446.0564.04993.11165.0803.16687.03037.0552.0661.11157.110253.16469.04415.0531.09648.1027.151614.14749.05513.0448.113036.0848.176443.11575.06341.031.132361.053.212963.0605.0806.007.173268.00037.252304.0155.07904.0151.145291.0526.232025.0899.08673.0373.194345.0745.302479.10344.108133.0289.217156.0496.330039.0709.112882.0213.230243.0434.332125.0661.101882.0227.188856.0462.269345.0772.08049.031.155076.0696.225933.14186.07086.0722.138445.17844.176325.24544s.04609.0949-.01796.10393c-.06405.009-.200189-.00098-.343608-.007-.143419-.006-.293363-.009-.440935-.0117-.147572-.003-.292022-.005-.448563.00022-.156541.006-.324365.0193-.471222.0386-.146858.0193-.272037.044-.386531.0751-.114494.031-.217622.0681-.32633.111-.108708.0429-.222039.0911-.336051.13957" id="path936" fill="none" stroke="#000" stroke-width=".1"/><path d="M18.27068 293.24245c-.04472.0693-.08965.13883-.133766.20095-.04412.0621-.09042.1205-.1305.18693-.04008.0664-.07499.14207-.102353.21826-.02736.0762-.04676.15183-.05944.21228-.01268.0604-.01846.10484-.04096.18317-.0225.0783-.06126.18885-.105834.30715-.04457.1183-.09577.2463-.167745.39422-.07197.14791-.165738.31786-.248613.45536-.08287.13749-.154845.24253-.261689.36212-.106845.11958-.249732.25464-.399922.3639-.15019.10925-.307745.19289-.435114.24478-.127368.0519-.223855.0717-.318592.0649-.09474-.007-.186808-.0402-.299326-.0687-.112519-.0285-.244816-.0518-.439899-.0772-.195083-.0254-.451914-.0526-.689788-.0887-.237874-.0361-.45595-.0808-.65972-.14325-.203771-.0624-.392649-.14222-.562309-.25338-.169661-.11115-.319621-.25332-.46678-.41607-.147159-.16276-.291364-.34594-.434586-.52132-.143222-.17537-.285514-.343-.46796-.57348-.182447-.23048-.405126-.5239-.627745-.81724" id="path940" fill="none" stroke="#000" stroke-width=".1"/><path d="M10.513485 290.71273c.03842.0645.07684.12898.105029.19088.02819.0619.04607.12104.05988.20522.01381.0842.02343.19275.02826.29065.0048.0979.0048.18457.0069.27497.0021.0904.0062.18383.01033.26941.0041.0856.0083.16247.01927.24794.01101.0855.02892.17916.05104.27454.02212.0954.04815.19128.0854.29615.03725.10486.08539.21765.147297.34235.06191.12471.137311.26078.212847.39709" id="path944" fill="none" stroke="#000" stroke-width=".1"/><path d="M10.53829 290.75407c-.03296-.012-.06607-.0241-.09528-.0296-.02922-.006-.05445-.005-.08679.007-.03235.0117-.07092.0339-.109104.0706-.03818.0367-.07492.0869-.111592.1456-.03667.0587-.07251.12452-.09987.18262-.02736.0581-.045765.10752-.062768.16135-.017003.0538-.032739.11283-.04692.19005-.014182.0772-.026787.17225-.030706.26444-.00392.0922.0009433.18069.00984.25698.0089.0763.021774.13983-.00847.26675-.03024.12692-.1033357.31597-.1766899.47737-.073354.1614-.1460865.29329-.2221617.4123-.076075.11902-.1548124.224-.2431183.32501-.088306.10101-.1854641.1972-.2825304.28014-.097066.0829-.1932736.15194-.2957534.21393-.1024797.062-.2102932.11638-.322577.16406-.1122839.0477-.2297399.0888-.3497435.12425-.1200036.0355-.2423847.0652-.3810145.10195-.1386297.0367-.2974842.0815-.4614385.12708-.1639542.0456-.3344734.0923-.5303719.13647-.1958985.0442-.4159684.0854-.5903425.10003-.1743741.0146-.3022052.002-.4304543-.01" id="path948" fill="none" stroke="#000" stroke-width=".1"/><path d="M2.7620187 286.13627c-.2314377.32467-.4630884.64965-.6534185.9473-.19033.29765-.3390248.5675-.4679719.8543-.1289471.28681-.2376938.5896-.3316326.8936-.093939.304-.172047.60553-.2251341.8868-.053087.28128-.080619.54008-.055695.85782.024924.31775.1017836.69107.2519548 1.06362.1501711.37255.3789908.75206.643626 1.09663.2646351.34458.5677435.65871.8759894.9054.3082458.24669.6214722.42583.9494182.58842.327946.16259.6707555.30871.9834463.38805.3126907.0793.5954391.092.8778307.10459" id="path952" fill="none" stroke="#000" stroke-width=".1"/><path d="M2.7386339 286.16258c.1221953-.13173.2470668-.26634.3926577-.40985.1455909-.14351.3140819-.29819.5029539-.4448.188872-.14661.3991503-.28601.6511182-.40027.2519679-.11425.5468275-.20398.8330568-.26112.2862292-.0572.564898-.082.7935377-.0875.2286397-.005.4079702.008.610358.0455.2023878.0372.4286884.0979.63802.18741.2093316.0895.4024134.20813.5514604.31359.1490471.10547.2543417.19799.3595833.29046" id="path956" fill="none" stroke="#000" stroke-width=".1"/><path d="M11.374986 280.71269c-.244327.0187-.494412.0378-.773965.0804-.279554.0426-.590644.10862-.8608501.1803-.2702058.0717-.4987307.14876-.7110772.23562-.2123466.0869-.4077683.18319-.5953423.30316-.187574.11997-.3664262.26305-.5314055.42925-.1649793.16619-.3173894.3574-.4288424.55106-.111453.19366-.1835669.39336-.222207.54093-.03864.14757-.04414.24383-.030392.41729.013748.17347.046613.42245.072801.60303.026187.18057.045575.29182.063555.37376.01798.0819.034484.13419.067659.19086.033175.0567.082613.1171.1557385.17228.073126.0552.1695485.10476.2841525.14199.1146041.0372.2465234.062.3952503.0825.148727.0205.3198408.0373.4434285.0562.1235878.0189.1654781.0301.2627761.0612.097298.031.1221036.041.1884272.0918.066324.0508.1431867.12539.1897861.16442.046599.039.034416.0394-.046847.17818-.081263.13882-.014738.0456-.1449779.089-.1302396.0435-.3228442.0368-.4721147.0176-.1492704-.0192-.2537083-.051-.3584448-.0828" id="path960" fill="none" stroke="#000" stroke-width=".1"/><path d="M11.53048 280.23688c.04422.001.08679.002.130659.01.04387.008.09026.0224.137668.0426.04741.0203.09722.0465.145695.0792.04848.0327.09614.072.134681.10988.03854.0378.06821.0744.09129.10817.02307.0337.03961.0647.05133.0974.01172.0327.01858.067.02035.0985.0018.0315-.0016.0598-.01506.083-.01342.0232-.03665.0408-.06716.0536-.03051.0128-.06734.0203-.111666.0206-.04433.00035-.09492-.007-.147775-.0168-.05286-.0104-.107045-.0241-.204479-.0602-.09743-.0361-.236814-.0941-.376827-.15233" id="path964" fill="none" stroke="#000" stroke-width=".1"/></g></svg>