<svg xmlns="http://www.w3.org/2000/svg" width="75" height="75" viewBox="0 0 36 46" version="1.1" id="svg10082" license="CCBY4.0" author="Provart Lab - Bio Analytic Resource, University of Toronto">
  <g id="layer1" transform="translate(0 -251)">
    <g transform="translate(-633 -135)" id="F6-8" style="stroke-width:.13229166;stroke-miterlimit:4;stroke-dasharray:none">
      <g id="flowerDevelopmentPart6" transform="translate(603 367) scale(.3934)" fill="none" style="stroke-width:.33628112;stroke-miterlimit:4;stroke-dasharray:none">
        <path style="fill-opacity:1;stroke-width:.33628112;stroke-miterlimit:4;stroke-dasharray:none" d="M99 163c-8 1-4-7-5-12 1-6-8-5-9-11-7-12-9-28-1-40-1-6 10-9 14-7 3 4 6 11 8 17 6 12 5 26-4 35-2 6 6 18-3 18z" id="path7944-2"/>
        <path style="fill-opacity:1;stroke-width:.33628112;stroke-miterlimit:4;stroke-dasharray:none" d="M123 114c-9 3 0-13-8-13-10-5-14-17-10-27 1-12 13-25 26-24 7 3 9 10 10 16 1 7 3 13 0 20 1 7-5 14-11 16-3 3-1 13-7 12z" id="path7924-1"/>
        <path style="fill-opacity:1;stroke-width:.33628112;stroke-miterlimit:4;stroke-dasharray:none" d="M143 160c-2-4 3-13-1-18-9-3-11-17-5-24 4-7 8-21 18-17 5 2 7 9 6 11 3 8 8 20 1 27-1 5-10 2-8 7-3 5 0 15-8 13l-3 1z" id="path7934-2"/>
      </g>
      <g id="g12157" style="stroke-width:.13229166;stroke-miterlimit:4;stroke-dasharray:none">
        <g id="g12143" style="stroke-width:.13229166;stroke-miterlimit:4;stroke-dasharray:none">
          <path id="path1891" d="m644 408-8-2" style="fill:none;stroke:#000;stroke-width:.13229166;stroke-linecap:butt;stroke-linejoin:miter;stroke-miterlimit:4;stroke-dasharray:none;stroke-opacity:1"/>
          <path id="path1893" d="m643 424-2-1-3 1" style="fill:none;stroke:#000;stroke-width:.13229166;stroke-linecap:butt;stroke-linejoin:miter;stroke-miterlimit:4;stroke-dasharray:none;stroke-opacity:1"/>
          <path id="path1895" d="M641 423s-3-5-3-9c0 0 1-7-1-8" style="fill:none;stroke:#000;stroke-width:.13229166;stroke-linecap:butt;stroke-linejoin:miter;stroke-miterlimit:4;stroke-dasharray:none;stroke-opacity:1"/>
        </g>
        <g id="g12138" style="stroke-width:.13229166;stroke-miterlimit:4;stroke-dasharray:none">
          <path id="path12118" d="M644 396s5-8 13-7" style="fill:none;stroke:#000;stroke-width:.13229166;stroke-linecap:butt;stroke-linejoin:miter;stroke-miterlimit:4;stroke-dasharray:none;stroke-opacity:1"/>
          <path id="path12120" d="M651 390s-2 0-2 7c0 0-2 6 1 9 0 0 1 2 4 1 0 0 4-4 4-14" style="fill:none;stroke:#000;stroke-width:.13229166;stroke-linecap:butt;stroke-linejoin:miter;stroke-miterlimit:4;stroke-dasharray:none;stroke-opacity:1"/>
          <path id="path12122" d="M649 407h2" style="fill:none;stroke:#000;stroke-width:.13229166;stroke-linecap:butt;stroke-linejoin:miter;stroke-miterlimit:4;stroke-dasharray:none;stroke-opacity:1"/>
        </g>
        <g id="g12133" style="stroke-width:.13229166;stroke-miterlimit:4;stroke-dasharray:none">
          <path id="path12124" d="M657 413s5-7 9-2" style="fill:none;stroke:#000;stroke-width:.13229166;stroke-linecap:butt;stroke-linejoin:miter;stroke-miterlimit:4;stroke-dasharray:none;stroke-opacity:1"/>
          <path id="path12126" d="m662 409-1 2s-4 11-1 12c0 0 2 2 3 0 0 0 3-2 3-11" style="fill:none;stroke:#000;stroke-width:.13229166;stroke-linecap:butt;stroke-linejoin:miter;stroke-miterlimit:4;stroke-dasharray:none;stroke-opacity:1"/>
          <path id="path12128" d="M659 423h1" style="fill:none;stroke:#000;stroke-width:.13229166;stroke-linecap:butt;stroke-linejoin:miter;stroke-miterlimit:4;stroke-dasharray:none;stroke-opacity:1"/>
        </g>
      </g>
    </g>
    <path style="fill:none;stroke:#000;stroke-width:.1;stroke-linecap:butt;stroke-linejoin:miter;stroke-opacity:1;stroke-miterlimit:4;stroke-dasharray:none" d="M26 288a6 6 0 0 1 0 1 4 4 0 0 1 0 1 5 5 0 0 1 0 1v1a28 28 0 0 0 0 2 2 2 0 0 0 0 1h1a3 3 0 0 0 1 0 1 1 0 0 0 1-1 5 5 0 0 0 0-1 10 10 0 0 0 1-1 18 18 0 0 1 0-2 2 2 0 0 1 0-1l1-1h1a58 58 0 0 0 1-1 2 2 0 0 0 1 0v-1a9 9 0 0 0 1-2" id="path10186"/>
    <path style="fill:none;stroke:#000;stroke-width:.1;stroke-linecap:butt;stroke-linejoin:miter;stroke-opacity:1;stroke-miterlimit:4;stroke-dasharray:none" d="M35 284v-1a7 7 0 0 0 0-1 10 10 0 0 0 0-1 19 19 0 0 0-2-5 3 3 0 0 0 0-1 4 4 0 0 0-1-2 3 3 0 0 0-2-1 4 4 0 0 0-1 0 4 4 0 0 0-1 0 4 4 0 0 0-1 1 8 8 0 0 0-1 2 28 28 0 0 0-1 1l-1 1a42 42 0 0 1 0 1l-1 1a4 4 0 0 0 0 1 6 6 0 0 0-1 1v1a6 6 0 0 0 0 1 6 6 0 0 0 0 1 7 7 0 0 0 1 1 7 7 0 0 0 1 2 4 4 0 0 0 1 1h1" id="path10733"/>
    <path style="fill:none;stroke:#000;stroke-width:.1;stroke-linecap:butt;stroke-linejoin:miter;stroke-opacity:1;stroke-miterlimit:4;stroke-dasharray:none" d="M16 272a2 2 0 0 1 0 1 6 6 0 0 1 0 1v1a9 9 0 0 0 0 1h1a1 1 0 0 0 0 1 1 1 0 0 0 1 0h1l1-1v-2a12 12 0 0 1 0-1 2 2 0 0 1 1-1 12 12 0 0 0 2-1 6 6 0 0 0 1-2 7 7 0 0 0 1-1 5 5 0 0 0 0-2 9 9 0 0 0 1-5v-1l-1-1v-1a12 12 0 0 0-1-3v-1a8 8 0 0 0-1-1 5 5 0 0 0-1-1h-2a9 9 0 0 0-2 0 9 9 0 0 0-4 3 10 10 0 0 0-2 3 9 9 0 0 0-1 3 14 14 0 0 0 0 2 11 11 0 0 0 0 3 8 8 0 0 0 0 1 10 10 0 0 0 1 2 7 7 0 0 0 2 2 8 8 0 0 0 1 1h1" id="path10741"/>
    <path style="fill:none;stroke:#000;stroke-width:.1;stroke-linecap:butt;stroke-linejoin:miter;stroke-opacity:1;stroke-miterlimit:4;stroke-dasharray:none" d="M3 271a26 26 0 0 0-1 3 12 12 0 0 0-1 6 19 19 0 0 0 1 4 22 22 0 0 0 1 2v1a5 5 0 0 0 0 1 3 3 0 0 0 1 0 3 3 0 0 0 0 1 5 5 0 0 0 1 0l1 1a3 3 0 0 1 1 0 2 2 0 0 1 0 1v1a7 7 0 0 1 0 1 53 53 0 0 0 0 3 1 1 0 0 0 1 0 2 2 0 0 0 1 0 2 2 0 0 0 1 0 1 1 0 0 0 0-1 3 3 0 0 0 0-1 7 7 0 0 0 0-1v-1a45 45 0 0 1 0-2v-1a8 8 0 0 0 1-1 11 11 0 0 0 2-5 10 10 0 0 0 0-2 29 29 0 0 0 0-2 14 14 0 0 0-1-3v-1a50 50 0 0 1-1-1v-1h-1v-1a64 64 0 0 0-2-3 7 7 0 0 0 0-1 7 7 0 0 0-3 1 8 8 0 0 0-1 0 4 4 0 0 0-1 1 2 2 0 0 0 0 1z" id="path10745"/>
  </g>
</svg>