<?xml version="1.0" encoding="UTF-8" standalone="no"?>
<!-- Created with Inkscape (http://www.inkscape.org/) -->
<svg author="Provart Lab - Bio Analytic Resource, University of Toronto" license="CCBY4.0" xmlns:dc="http://purl.org/dc/elements/1.1/" xmlns:cc="http://creativecommons.org/ns#" xmlns:rdf="http://www.w3.org/1999/02/22-rdf-syntax-ns#"
  xmlns:svg="http://www.w3.org/2000/svg" xmlns="http://www.w3.org/2000/svg" xmlns:sodipodi="http://sodipodi.sourceforge.net/DTD/sodipodi-0.dtd"
  xmlns:inkscape="http://www.inkscape.org/namespaces/inkscape" width="300px" height="300px" viewBox="0 0 38 44" version="1.1"
  id="svg7008">
  <g id="layer1" transform="translate(0,-253)">
    <g transform="translate(-497.80192,-131.35643)" id="F2" style="stroke-width:0.13229166;stroke-miterlimit:4;stroke-dasharray:none">
      <g id="flowerDevelopmentPart2" transform="matrix(0.26458333,0,0,0.26458333,470.90442,521.25275)" style="stroke-width:0.5;stroke-miterlimit:4;stroke-dasharray:none">
        <path fill="none" style="fill-opacity:1;stroke:none;stroke-width:0.5;stroke-miterlimit:4;stroke-dasharray:none;stroke-opacity:1"
          d="m 159.13675,-355.27405 c 0.93361,-8.02339 -5.21529,-8.03297 -11.28941,-10.66662 -15.10314,-8.24433 -18.59622,-26.89576 -27.97352,-39.8147 -11.71398,-6.84912 -11.5709,-21.7688 -5.54651,-31.95038 5.32062,0.74983 5.32807,0.48918 3.37207,-4.56318 -1.02124,-4.15225 -2.11457,-5.82753 -4.93534,-6.79679 -2.20448,-15.4449 -11.198,-31.87014 -6.58732,-47.07094 1.36708,-8.57667 11.57341,-6.93191 14.72,0.24324 5.21047,3.68176 10.75162,5.01101 9.18419,13.04093 1.94827,9.6297 0.99552,22.16626 2.25092,30.38323 3.18399,-3.1039 11.79439,-3.31105 14.96956,-5.47236 -7.65187,-8.23976 -2.97823,-21.38537 -5.26575,-31.73454 3.00539,-8.40434 -6.50281,-17.26033 -1.93878,-24.03034 6.66249,-1.49714 13.88262,-0.005 21.20946,0.28392 7.35859,3.07351 10.08694,11.14732 11.68791,18.71213 7.2464,0.99511 13.97119,9.15915 9.34622,15.08412 1.60834,6.04479 0.50071,18.52263 0.40084,26.43992 1.33879,6.62033 -1.78401,14.48079 2.08632,19.98054 -0.31943,-13.37434 -2.59631,-31.95672 9.0693,-41.18721 9.00322,-0.89852 5.63866,12.7847 6.44997,18.92676 0.4377,7.05967 -3.05373,15.20464 -5.62147,20.33911 3.83496,0.28482 4.41475,10.32751 4.37999,1.12028 0.77125,-14.21829 2.08394,-28.69862 3.48972,-42.89307 4.24525,-10.26397 12.80801,-17.72134 21.34181,-24.22164 7.52496,5.16516 16.81629,13.4849 16.62344,24.21522 6.81692,16.25475 -6.32886,29.58291 -16.72388,40.22693 -0.33867,11.78036 -7.94336,21.697 -15.25929,30.24259 -2.06208,10.13711 -10.17995,15.51342 -13.11365,24.73857 -3.019,5.23485 -5.37588,18.8467 -14.80106,18.88114 -1.57456,5.17561 -5.14702,6.60572 -10.1654,6.71127 -3.9209,0.77081 -6.61403,0.0219 -11.36034,0.83187 z"
          id="path7782-3" inkscape:connector-curvature="0" />
      </g>
      <g id="g1845" style="stroke-width:0.13229166;stroke-miterlimit:4;stroke-dasharray:none">
        <path style="fill:none;stroke:#000000;stroke-width:0.13229166;stroke-linecap:butt;stroke-linejoin:miter;stroke-miterlimit:4;stroke-dasharray:none;stroke-opacity:1"
          d="m 502.17916,405.42702 c 0,0 6.21771,3.73723 6.54844,7.24296 0,0 5.40531,6.53826 6.9091,11.83234 0,0 -0.62525,1.16532 -3.13879,0.96688"
          id="path1812" inkscape:connector-curvature="0" sodipodi:nodetypes="cccc" />
        <path style="fill:none;stroke:#000000;stroke-width:0.13229166;stroke-linecap:butt;stroke-linejoin:miter;stroke-miterlimit:4;stroke-dasharray:none;stroke-opacity:1"
          d="m 523.80149,417.96223 c 0,0 1.63703,-5.42557 -0.32739,-10.52372" id="path1814" inkscape:connector-curvature="0"
        />
        <path style="fill:none;stroke:#000000;stroke-width:0.13229166;stroke-linecap:butt;stroke-linejoin:miter;stroke-miterlimit:4;stroke-dasharray:none;stroke-opacity:1"
          d="m 522.42553,406.12536 c 0,0 -4.79796,6.55164 -5.49955,11.79012 0,0 -1.55073,2.65893 -1.02156,6.52846 0,0 1.36724,1.26306 2.80028,0.81343"
          id="path1816" inkscape:connector-curvature="0" sodipodi:nodetypes="cccc" />
        <path style="fill:none;stroke:#000000;stroke-width:0.13229166;stroke-linecap:butt;stroke-linejoin:miter;stroke-miterlimit:4;stroke-dasharray:none;stroke-opacity:1"
          d="m 505.96572,408.34434 c 0,0 -3.48017,-4.28998 -0.0485,-6.80741" id="path1818" inkscape:connector-curvature="0"
        />
        <path style="fill:none;stroke:#000000;stroke-width:0.13229166;stroke-linecap:butt;stroke-linejoin:miter;stroke-miterlimit:4;stroke-dasharray:none;stroke-opacity:1"
          d="m 509.87793,400.08905 c 0,0 1.76281,0.0296 3.14259,0.5675 0,0 4.09255,0.28062 3.3442,6.82872 0,0 1.12252,4.84095 0.56126,10.43021"
          id="path1820" inkscape:connector-curvature="0" />
        <path style="fill:none;stroke:#000000;stroke-width:0.13229166;stroke-linecap:butt;stroke-linejoin:miter;stroke-miterlimit:4;stroke-dasharray:none;stroke-opacity:1"
          d="m 524.45631,412.02218 c 0,0 0.86609,-3.40096 5.67153,-6.30754" id="path1822" inkscape:connector-curvature="0"
        />
        <path style="fill:none;stroke:#000000;stroke-width:0.13229166;stroke-linecap:butt;stroke-linejoin:miter;stroke-miterlimit:4;stroke-dasharray:none;stroke-opacity:1"
          d="m 520.87824,408.35056 c 0,0 -0.34229,-0.74433 -1.07151,-1.71686" id="path1824" inkscape:connector-curvature="0"
        />
        <path style="fill:none;stroke:#000000;stroke-width:0.13229166;stroke-linecap:butt;stroke-linejoin:miter;stroke-miterlimit:4;stroke-dasharray:none;stroke-opacity:1"
          d="m 516.52841,406.26921 c 0,0 0.67821,-2.31524 2.80633,-0.49112" id="path1826" inkscape:connector-curvature="0"
        />
        <path style="fill:none;stroke:#000000;stroke-width:0.13229166;stroke-linecap:butt;stroke-linejoin:miter;stroke-miterlimit:4;stroke-dasharray:none;stroke-opacity:1"
          d="m 517.69774,405.17005 c 0,0 1.80073,-6.12714 -1.63703,-6.45456 0,0 -2.26844,-1.54345 -3.04019,1.94106" id="path1828"
          inkscape:connector-curvature="0" />
        <path style="fill:none;stroke:#000000;stroke-width:0.13229166;stroke-linecap:butt;stroke-linejoin:miter;stroke-miterlimit:4;stroke-dasharray:none;stroke-opacity:1"
          d="m 516.67581,390.36061 c 0,0 -3.28493,0.31589 -3.61566,2.4987 0,0 -0.33383,2.67487 2.87734,2.08359 0,0 2.88354,0.10728 3.21117,-0.59128"
          id="path1830" inkscape:connector-curvature="0" />
        <path style="fill:none;stroke:#000000;stroke-width:0.13229166;stroke-linecap:butt;stroke-linejoin:miter;stroke-miterlimit:4;stroke-dasharray:none;stroke-opacity:1"
          d="m 513.43268,394.26782 c 0,0 -0.14102,4.34618 -0.33946,5.80138" id="path1832" inkscape:connector-curvature="0"
        />
      </g>
    </g>
    <path style="fill:none;stroke:#000000;stroke-width:0.08;stroke-linecap:butt;stroke-linejoin:miter;stroke-opacity:1;stroke-miterlimit:4;stroke-dasharray:none"
      d="m 20.90278,293.90094 c -0.08527,0.20305 -0.170674,0.40642 -0.246813,0.56667 -0.07614,0.16024 -0.142854,0.27699 -0.259951,0.40249 -0.117098,0.1255 -0.283695,0.25878 -0.484334,0.37585 -0.200639,0.11706 -0.434093,0.21712 -0.710775,0.28483 -0.276682,0.0677 -0.644023,0.10808 -0.903007,0.14149 -0.258984,0.0334 -0.433274,0.0624 -0.662735,0.077 -0.229461,0.0146 -0.512946,0.0146 -0.797052,0.0146 -0.284107,0 -0.567816,0 -0.83968,0.0221 -0.271864,0.0221 -0.531158,0.0664 -0.656579,0.008 -0.12542,-0.0587 -0.116454,-0.2197 -0.120321,-0.40035 -0.0039,-0.18064 -0.0206,-0.38143 -0.110238,-0.59791 -0.08964,-0.21649 -0.252589,-0.44976 -0.415304,-0.68269"
      id="path7044" inkscape:connector-curvature="0" inkscape:path-effect="#path-effect7046" inkscape:original-d="m 20.90278,293.90094 c -0.08514,0.2031 -0.170542,0.40648 -0.256209,0.61011 -0.06666,0.11685 -0.13337,0.2336 -0.200452,0.35079 -0.167227,0.13373 -0.333823,0.26701 -0.501131,0.40091 -0.234002,0.10013 -0.467457,0.20018 -0.701582,0.30068 -0.317552,0.0499 -0.686548,0.0752 -1.030218,0.1132 -0.174312,0.0288 -0.348593,0.0579 -0.523286,0.0872 -0.284198,-2.7e-4 -0.567683,-2.7e-4 -0.851922,0 -0.283974,-2.7e-4 -0.567683,-2.7e-4 -0.851922,0 -0.259519,0.0441 -0.51882,0.0883 -0.778627,0.13285 0.0093,-0.16167 0.01822,-0.3227 0.02693,-0.48364 -0.01641,-0.20038 -0.03314,-0.40117 -0.05011,-0.60136 -0.162293,-0.23297 -0.325242,-0.46624 -0.48826,-0.69896"
    />
    <path style="fill:none;stroke:#000000;stroke-width:0.08;stroke-linecap:butt;stroke-linejoin:miter;stroke-opacity:1;stroke-miterlimit:4;stroke-dasharray:none"
      d="m 20.902783,293.90094 c 0.198873,-0.0306 0.397428,-0.061 0.638501,-0.14306 0.241074,-0.082 0.525476,-0.21586 0.767549,-0.38285 0.242073,-0.16699 0.442748,-0.36766 0.643025,-0.64308 0.200278,-0.27541 0.400998,-0.62667 0.593,-1.00234 0.192001,-0.37567 0.375911,-0.77693 0.586774,-1.25164 0.210864,-0.4747 0.449226,-1.02408 0.607883,-1.40821 0.158656,-0.38414 0.237909,-0.60372 0.352601,-0.85524 0.114692,-0.25151 0.265247,-0.53589 0.426046,-0.8152 0.160799,-0.27931 0.31759,-0.53079 0.481408,-0.79355"
      id="path7591" inkscape:connector-curvature="0" inkscape:path-effect="#path-effect7593" inkscape:original-d="m 20.902783,293.90094 c 0.198834,-0.0308 0.397404,-0.0612 0.59571,-0.0915 0.283811,-0.1337 0.568212,-0.26754 0.851921,-0.40091 0.200492,-0.20049 0.401169,-0.40116 0.601356,-0.60135 0.200452,-0.35059 0.401169,-0.70185 0.601357,-1.05237 0.183848,-0.40082 0.36776,-0.80208 0.551243,-1.20272 0.238251,-0.54877 0.476616,-1.09814 0.714527,-1.64682 0.07943,-0.21959 0.158678,-0.43918 0.237621,-0.65838 0.150385,-0.28383 0.300943,-0.56821 0.451017,-0.85192 0.183808,-0.26724 0.328288,-0.5264 0.492035,-0.7892"
    />
    <path style="fill:none;stroke:#000000;stroke-width:0.08;stroke-linecap:butt;stroke-linejoin:miter;stroke-opacity:1;stroke-miterlimit:4;stroke-dasharray:none"
      d="m 25.99957,286.6058 c 0.180697,-0.25233 0.361178,-0.50437 0.610681,-0.87224 0.249503,-0.36787 0.5688,-0.85273 0.816766,-1.27784 0.247966,-0.42511 0.425257,-0.79151 0.556982,-1.13087 0.131725,-0.33935 0.218219,-0.65245 0.407137,-0.98299 0.188919,-0.33054 0.480768,-0.67952 0.797673,-1.07809 0.316904,-0.39856 0.659723,-0.84777 0.990332,-1.32599 0.330609,-0.47821 0.649736,-0.98645 0.933114,-1.52962 0.283377,-0.54317 0.531576,-1.1223 0.702794,-1.58286 0.171218,-0.46056 0.265764,-0.80329 0.338079,-1.19461 0.07231,-0.39133 0.122593,-0.83225 0.282073,-1.19831 0.159481,-0.36606 0.428343,-0.65806 0.816399,-1.07537 0.388056,-0.41732 0.896439,-0.96117 1.327465,-1.46307 0.431026,-0.50189 0.785555,-0.96278 1.086655,-1.40559 0.301099,-0.44282 0.549308,-0.86832 0.755926,-1.28158 0.206619,-0.41326 0.372107,-0.81516 0.496064,-1.20479 0.123958,-0.38963 0.206706,-0.76791 0.253921,-1.06901 0.04722,-0.30109 0.05904,-0.52569 0.05903,-0.77356 -5e-6,-0.24787 -0.01183,-0.51988 -0.04725,-0.7973 -0.03542,-0.27742 -0.09454,-0.56116 -0.170553,-0.83659 -0.07602,-0.27543 -0.169114,-0.54323 -0.222243,-0.81487 -0.05313,-0.27164 -0.06641,-0.54753 -0.114374,-0.84467 -0.04796,-0.29714 -0.130718,-0.61635 -0.266501,-0.97055 -0.135784,-0.35421 -0.324879,-0.74422 -0.555159,-1.12211 -0.23028,-0.37789 -0.502029,-0.74416 -0.844529,-1.1339 -0.342501,-0.38975 -0.755959,-0.80321 -1.169352,-1.16936 -0.413392,-0.36615 -0.826806,-0.68506 -1.07483,-0.87088 -0.248025,-0.18581 -0.33067,-0.23853 -0.584689,-0.0909 -0.254018,0.14766 -0.678914,0.49538 -1.151578,0.89987 -0.472665,0.40449 -0.992031,0.86483 -1.405533,1.2547 -0.413503,0.38986 -0.720445,0.7086 -0.980404,0.99809 -0.259959,0.28949 -0.472392,0.54913 -0.686639,0.8649 -0.214247,0.31577 -0.423643,0.67639 -0.632509,1.05094 -0.208866,0.37454 -0.413627,0.75682 -0.555471,1.34775 -0.141843,0.59093 -0.220327,1.38885 -0.295052,2.22533 -0.07473,0.83648 -0.145569,1.71023 -0.222359,2.66125 -0.07679,0.95101 -0.159446,1.9783 -0.236234,3.0356 -0.07679,1.0573 -0.147639,2.14368 -0.183084,2.80518 -0.03544,0.6615 -0.03544,0.89768 -0.05618,1.06515 -0.02074,0.16748 -0.06226,0.26604 -0.133386,0.19487 -0.07113,-0.0712 -0.17098,-0.3108 -0.285984,-0.51359 -0.115004,-0.20279 -0.245002,-0.36824 -0.36956,-0.46684 -0.124559,-0.0986 -0.244017,-0.13055 -0.238018,-0.28449 0.006,-0.15393 0.137029,-0.42867 0.273422,-0.74323 0.136392,-0.31455 0.278296,-0.66932 0.40816,-1.02941 0.129864,-0.36009 0.248087,-0.72658 0.354336,-1.12209 0.106248,-0.3955 0.200823,-0.82109 0.253134,-1.22001 0.05231,-0.39891 0.06252,-0.77208 0.0566,-1.06137 -0.0059,-0.28929 -0.02794,-0.49532 -0.03303,-0.88143 -0.0051,-0.38612 0.0067,-0.95373 0.01264,-1.37298 0.0059,-0.41925 0.0059,-0.69105 -0.01182,-0.92716 -0.01772,-0.23611 -0.05319,-0.43711 -0.09451,-0.62008 -0.04132,-0.18298 -0.08862,-0.34852 -0.171234,-0.51964 -0.08262,-0.17112 -0.200857,-0.34848 -0.342493,-0.47833 -0.141636,-0.12986 -0.307064,-0.21257 -0.484217,-0.25329 -0.177152,-0.0407 -0.373031,-0.0394 -0.615377,0.10838 -0.242346,0.14774 -0.533733,0.44133 -0.786062,0.75382 -0.252329,0.31249 -0.464748,0.64292 -0.665675,1.05065 -0.200926,0.40772 -0.389739,0.89155 -0.537454,1.41146 -0.147714,0.51991 -0.253949,1.07469 -0.324849,1.63592 -0.0709,0.56122 -0.106318,1.12788 -0.118137,1.695 -0.01182,0.56711 -1.2e-5,1.1338 0.0118,1.68316 0.01181,0.54937 0.02362,1.08066 0.03535,1.49793 0.01173,0.41727 0.02337,0.71999 -0.04956,0.72878 -0.07293,0.009 -0.230125,-0.27617 -0.31861,-0.6107 -0.08848,-0.33454 -0.108175,-0.71849 -0.11801,-1.11107 -0.0098,-0.39259 -0.0098,-0.79445 0.002,-1.19593 0.01181,-0.40147 0.03545,-0.80333 0.04134,-1.08084 0.0059,-0.27751 -0.0059,-0.43117 -0.02095,-0.57398 -0.01502,-0.14281 -0.03441,-0.2835 -0.03441,-0.63151 5e-6,-0.34802 0.01884,-0.90944 0.03414,-1.47894 0.0153,-0.5695 0.02712,-1.14855 0.03893,-1.73309 0.01181,-0.58455 0.02362,-1.17541 0.01181,-1.66549 -0.01182,-0.49008 -0.04727,-0.88005 -0.08616,-1.18097 -0.03889,-0.30091 -0.08125,-0.51324 -0.05166,-0.7022 0.0296,-0.18896 0.131097,-0.3549 0.199411,-0.54978 0.06831,-0.19488 0.103815,-0.41973 0.103798,-0.64396 -1.8e-5,-0.22423 -0.0355,-0.44895 -0.129925,-0.6909 -0.09443,-0.24195 -0.248127,-0.50206 -0.407535,-0.7146 -0.159409,-0.21255 -0.324828,-0.37797 -0.537416,-0.55512 -0.212588,-0.17716 -0.472448,-0.36615 -0.726379,-0.50789 -0.25393,-0.14174 -0.501925,-0.23622 -0.67535,-0.28699 -0.173425,-0.0508 -0.272249,-0.0578 -0.390682,-0.32427 -0.118432,-0.26651 -0.255465,-0.78974 -0.395001,-1.22909 -0.139535,-0.43935 -0.281323,-0.79382 -0.446649,-1.13628 -0.165326,-0.34245 -0.354384,-0.6733 -0.596463,-0.98623 -0.242079,-0.31294 -0.537449,-0.60831 -0.815072,-0.82663 -0.277624,-0.21832 -0.552405,-0.36774 -1.101723,-0.47407 -0.549319,-0.10634 -1.380108,-0.17352 -2.091018,-0.21303 -0.710911,-0.0395 -1.301328,-0.0513 -1.821146,-0.0302 -0.519819,0.0211 -0.968514,0.075 -1.234381,0.19307 -0.265866,0.11804 -0.348452,0.30017 -0.4075713,0.52147 -0.05912,0.2213 -0.094494,0.48071 -0.08269,0.74076 0.011803,0.26006 0.070794,0.51962 0.1535138,0.83278 0.08272,0.31316 0.188945,0.67905 0.301182,1.00396 0.112237,0.32491 0.230299,0.60826 0.313001,0.88586 0.0827,0.2776 0.129927,0.54914 0.165378,0.79136 0.03545,0.24221 0.05905,0.45466 0.05317,0.65553 -0.0059,0.20086 -0.04128,0.38964 -0.07392,0.53142 -0.03264,0.14177 -0.06246,0.2361 -0.05062,0.44339 0.01183,0.20729 0.06513,0.52518 0.09779,0.94467 0.03266,0.4195 0.04446,0.93887 0.04447,1.49416 3e-6,0.55529 -0.0118,1.14558 -0.01181,1.60042 -5e-6,0.45483 0.0118,0.77361 0.03543,1.08084 0.02363,0.30724 0.05903,0.60229 0.112206,0.88591 0.05317,0.28361 0.123987,0.55507 0.224427,0.82687 0.10044,0.27179 0.230283,0.54328 0.376739,0.78519 0.146456,0.24192 0.309281,0.45383 0.333072,0.59549 0.02379,0.14167 -0.09185,0.21315 -0.333247,0.29632 -0.241396,0.0832 -0.606575,0.17742 -1.020183,0.28377 -0.413607,0.10636 -0.873874,0.22437 -1.2283079,0.33659 -0.354434,0.11222 -0.6023112,0.21846 -0.7912933,0.31775 -0.188982,0.0993 -0.3185247,0.19138 -0.4132478,-0.13431 -0.094723,-0.3257 -0.1538524,-1.06585 -0.201193,-1.89139 -0.047341,-0.82555 -0.082788,-1.73535 -0.1182211,-2.4617 -0.035433,-0.72634 -0.070878,-1.26983 -0.1122143,-1.7363 -0.041336,-0.46646 -0.088605,-0.85643 -0.1227942,-1.09883 -0.034189,-0.24239 -0.055344,-0.33761 -0.049428,-0.491 0.00592,-0.15338 0.038932,-0.3658 0.031774,-0.60739 -0.00716,-0.24159 -0.054471,-0.51364 -0.1961165,-0.80282 -0.1416452,-0.28918 -0.3780617,-0.59653 -0.7758272,-0.92971 -0.3977654,-0.33318 -0.9572959,-0.69261 -1.2762749,-0.93482 -0.3189789,-0.24221 -0.3973438,-0.36709 -0.4896502,-0.50626 -0.092306,-0.13917 -0.1986724,-0.29281 -0.3521501,-0.44629 -0.1534778,-0.15349 -0.3543504,-0.3071 -0.6023679,-0.43112 -0.2480174,-0.12402 -0.5432463,-0.21849 -0.7853891,-0.26577 -0.2421427,-0.0473 -0.4310263,-0.0473 -0.6260414,-3e-5 -0.1950151,0.0472 -0.395518,0.1416 -0.555104,0.25385 -0.159586,0.11225 -0.2775192,0.24198 -0.3780575,0.3957 -0.1005383,0.15372 -0.1830448,0.33052 -0.2378731,0.47092 -0.054828,0.1404 -0.081641,0.24366 -0.1230723,0.42122 -0.041432,0.17756 -0.097085,0.42771 -0.1545684,0.71282 -0.0574833,0.28511 -0.11647047,0.60364 -0.14602783,0.98776 -0.0295574,0.38411 -0.0295574,0.83253 -0.005934,1.25198 0.0236234,0.41945 0.070843,0.80901 0.17718985,1.38802 0.1063468,0.57902 0.2716158,1.34634 0.5256091,2.37413 0.2539932,1.02779 0.5964455,2.31494 0.8208776,3.17133 0.224432,0.85638 0.3307221,1.28154 0.4010855,1.62542 0.070363,0.34389 0.1047359,0.60624 0.2111947,0.77177 0.1064588,0.16553 0.2845477,0.23374 0.4266906,0.32685 0.1421429,0.0931 0.248538,0.21132 0.343017,0.36483 0.094479,0.15351 0.1771497,0.34247 0.2525446,0.54905 0.075395,0.20659 0.1434073,0.43051 0.2024831,0.60774 0.059076,0.17724 0.1090963,0.30742 0.1636888,0.44943 0.054593,0.142 0.1135848,0.29538 0.1108832,0.42875 -0.0027,0.13337 -0.06728,0.24652 -0.132094,0.36008"
      id="path7599" inkscape:connector-curvature="0" inkscape:path-effect="#path-effect7601" inkscape:original-d="m 25.99957,286.6058 c 0.180746,-0.2523 0.361228,-0.50433 0.541445,-0.7561 0.318802,-0.48397 0.638099,-0.96883 0.956752,-1.45285 0.177329,-0.36619 0.354619,-0.73259 0.53153,-1.09849 0.08661,-0.31281 0.173101,-0.62591 0.259251,-0.93847 0.291532,-0.34855 0.583383,-0.69753 0.874676,-1.0459 0.342527,-0.44875 0.685347,-0.89796 1.027623,-1.34654 0.318974,-0.50784 0.638101,-1.01608 0.956752,-1.52372 0.248161,-0.57869 0.496358,-1.15782 0.744141,-1.73633 0.09471,-0.34261 0.189253,-0.68534 0.283482,-1.02762 0.05045,-0.44039 0.10073,-0.88131 0.150699,-1.32157 0.268771,-0.29188 0.537633,-0.58388 0.806053,-0.87542 0.507693,-0.54309 1.016077,-1.08694 1.523717,-1.63002 0.354441,-0.46069 0.708969,-0.92158 1.063059,-1.38198 0.248152,-0.42521 0.496358,-0.85071 0.74414,-1.27566 0.165508,-0.40157 0.330994,-0.80347 0.496094,-1.2048 0.08288,-0.37794 0.165629,-0.75622 0.248047,-1.13393 0.01206,-0.22451 0.02389,-0.44911 0.03543,-0.67327 -0.01154,-0.2716 -0.02336,-0.54361 -0.03543,-0.81501 -0.05874,-0.28349 -0.117854,-0.56723 -0.177176,-0.85045 -0.0927,-0.26769 -0.185796,-0.53549 -0.279093,-0.80284 -0.01299,-0.27583 -0.02627,-0.55172 -0.03983,-0.82718 -0.08234,-0.31889 -0.1651,-0.6381 -0.248047,-0.95675 -0.188613,-0.38983 -0.377711,-0.77984 -0.566965,-1.16937 -0.271327,-0.36632 -0.543076,-0.73259 -0.815009,-1.09849 -0.413099,-0.41363 -0.826558,-0.82709 -1.240234,-1.24024 -0.413147,-0.31918 -0.826559,-0.6381 -1.240235,-0.95675 -0.0824,-0.053 -0.165047,-0.10571 -0.24797,-0.15816 -0.425334,0.34804 -0.850233,0.69576 -1.275747,1.04404 -0.519805,0.46071 -1.039169,0.92106 -1.559152,1.38198 -0.307007,0.31882 -0.613947,0.63757 -0.921316,0.95675 -0.212527,0.25981 -0.424961,0.51945 -0.637837,0.77958 -0.224406,0.3663 -0.424958,0.73206 -0.637833,1.09849 -0.204844,0.38266 -0.409602,0.76494 -0.614802,1.1478 -0.07835,0.79897 -0.156832,1.59689 -0.235646,2.39573 -0.07063,0.87412 -0.141476,1.74787 -0.212611,2.62221 -0.08244,1.02769 -0.1651,2.05498 -0.248047,3.08287 -0.07062,1.08671 -0.141476,2.17309 -0.212611,3.26004 2.64e-4,0.23603 2.64e-4,0.47221 0,0.70871 -0.04135,0.0985 -0.08287,0.19706 -0.124695,0.29599 -0.100236,-0.24145 -0.200088,-0.48108 -0.300529,-0.72122 -0.129593,-0.16554 -0.259593,-0.33099 -0.389787,-0.49609 -0.119129,-0.0322 -0.238572,-0.0642 -0.358254,-0.0958 0.131693,-0.27584 0.262724,-0.55058 0.393689,-0.82548 0.141841,-0.35421 0.283747,-0.70897 0.425223,-1.06306 0.118276,-0.3661 0.2365,-0.73259 0.354353,-1.09849 0.09468,-0.42512 0.189252,-0.85071 0.283482,-1.27567 0.01045,-0.3729 0.02066,-0.74607 0.03059,-1.11871 -0.02173,-0.20598 -0.04375,-0.41201 -0.06602,-0.61762 0.01206,-0.56658 0.02389,-1.13419 0.03543,-1.70089 2.65e-4,-0.27181 2.65e-4,-0.54361 0,-0.81501 -0.03514,-0.20087 -0.07061,-0.40187 -0.106306,-0.6024 -0.04693,-0.16546 -0.09423,-0.331 -0.141741,-0.4961 -0.117728,-0.17725 -0.23597,-0.35461 -0.354353,-0.53152 -0.165043,-0.0829 -0.330464,-0.16563 -0.496093,-0.24805 -0.188845,-2.7e-4 -0.384718,0.002 -0.577474,0.004 -0.29193,0.29414 -0.583317,0.58773 -0.875372,0.88199 -0.21254,0.33076 -0.424959,0.66119 -0.637835,0.99219 -0.1889,0.48447 -0.377712,0.9683 -0.566965,1.45284 -0.106111,0.55526 -0.212346,1.11004 -0.318917,1.66546 -0.03519,0.56701 -0.07061,1.13367 -0.106306,1.70089 0.01208,0.56698 0.02389,1.13367 0.03544,1.7009 0.01208,0.5315 0.02389,1.06279 0.03543,1.59458 0.01192,0.30275 0.02356,0.60547 0.03494,0.9086 -0.157198,-0.28571 -0.314396,-0.57067 -0.47199,-0.85561 -0.01941,-0.38397 -0.0391,-0.76792 -0.05905,-1.15148 2.65e-4,-0.4016 2.65e-4,-0.80346 0,-1.2048 0.02387,-0.4016 0.04751,-0.80346 0.07087,-1.2048 -0.01154,-0.15371 -0.02336,-0.30737 -0.03544,-0.46066 -0.03511,-0.12998 -0.03734,-0.27304 -0.05641,-0.40917 0.01904,-0.55985 0.03787,-1.12127 0.05641,-1.68151 0.01207,-0.57876 0.02389,-1.15781 0.03544,-1.73632 0.01207,-0.59058 0.02389,-1.18144 0.03543,-1.77177 -0.03515,-0.38987 -0.07061,-0.77984 -0.106306,-1.16936 -0.04205,-0.21234 -0.08442,-0.42467 -0.127029,-0.6366 0.101569,-0.16588 0.203068,-0.33182 0.304205,-0.49733 0.03563,-0.22427 0.07114,-0.44911 0.106306,-0.67327 -0.03512,-0.22439 -0.07061,-0.44911 -0.106306,-0.67327 -0.153139,-0.25987 -0.306841,-0.51998 -0.460658,-0.77958 -0.165049,-0.16557 -0.330465,-0.33099 -0.496094,-0.49609 -0.259594,-0.18925 -0.519453,-0.37824 -0.779576,-0.56696 -0.247827,-0.0948 -0.495829,-0.18926 -0.74414,-0.28349 -0.09866,-0.007 -0.197463,-0.0143 -0.296591,-0.021 -0.137447,-0.52608 -0.274478,-1.04931 -0.412115,-1.57356 -0.141427,-0.3545 -0.283217,-0.70897 -0.425223,-1.06306 -0.18865,-0.33087 -0.377711,-0.66172 -0.566964,-0.99219 -0.294953,-0.29548 -0.590323,-0.59085 -0.885882,-0.88588 -0.259594,-0.14201 -0.534563,-0.29108 -0.802242,-0.43623 -0.831104,-0.0675 -1.661894,-0.13467 -2.493238,-0.20161 -0.590494,-0.0121 -1.180911,-0.0239 -1.771763,-0.0354 -0.448822,0.0537 -0.897514,0.10768 -1.346668,0.16192 -0.08243,0.18212 -0.165015,0.36426 -0.2479191,0.54678 -0.035233,0.26005 -0.070606,0.51946 -0.1063059,0.77958 0.05939,0.25989 0.1183823,0.51945 0.1771764,0.77958 0.1066496,0.36617 0.2128766,0.73206 0.3189176,1.09849 0.118438,0.28335 0.2365,0.5667 0.354352,0.85045 0.04753,0.27153 0.09476,0.54307 0.141741,0.81501 0.02391,0.21251 0.04751,0.42496 0.07087,0.63783 -0.03521,0.18893 -0.07061,0.37771 -0.106306,0.56697 -0.02964,0.0943 -0.05944,0.18863 -0.08956,0.28334 0.05392,0.31977 0.107217,0.63766 0.160429,0.95689 0.01208,0.5198 0.02389,1.03917 0.03543,1.55915 -0.01155,0.59062 -0.02336,1.18091 -0.03543,1.77177 0.01208,0.31879 0.02389,0.63757 0.03543,0.95675 0.03573,0.29526 0.07113,0.59032 0.106306,0.88588 0.07119,0.27162 0.142006,0.54308 0.212612,0.81501 0.130281,0.27159 0.260123,0.54308 0.389787,0.81501 0.163225,0.21182 0.32605,0.42373 0.488678,0.63599 -0.115402,0.0712 -0.231027,0.14271 -0.346937,0.21446 -0.36688,0.0945 -0.732064,0.18872 -1.098493,0.28348 -0.460786,0.11795 -0.921052,0.23597 -1.3819752,0.35435 -0.2479503,0.10612 -0.4958292,0.21235 -0.7441407,0.31892 -0.1296238,0.0921 -0.2591781,0.18418 -0.3891642,0.27667 -0.059139,-0.74385 -0.1182688,-1.484 -0.1778,-2.22561 -0.035159,-0.90947 -0.070606,-1.81927 -0.1063059,-2.72851 -0.035161,-0.54346 -0.070606,-1.08695 -0.1063056,-1.63003 -0.046961,-0.38987 -0.094229,-0.77984 -0.1417412,-1.16936 -0.02086,-0.0953 -0.042007,-0.19052 -0.063407,-0.28539 0.033144,-0.2118 0.066159,-0.42422 0.098842,-0.63593 -0.046916,-0.27155 -0.094229,-0.5436 -0.141741,-0.81501 -0.235786,-0.30713 -0.4722058,-0.61447 -0.7087055,-0.92132 -0.5591251,-0.3596 -1.1186548,-0.71903 -1.6783793,-1.07815 -0.07812,-0.12518 -0.1564854,-0.25006 -0.2351251,-0.37469 -0.105981,-0.15373 -0.2123469,-0.30737 -0.3189174,-0.46066 -0.2004632,-0.15376 -0.4013351,-0.30737 -0.6023996,-0.46066 -0.2950869,-0.0948 -0.590323,-0.18925 -0.8858816,-0.28348 -0.1888279,-2.7e-4 -0.3777115,-2.7e-4 -0.5669643,0 -0.2008163,0.0944 -0.4013351,0.18872 -0.6023995,0.28348 -0.1180404,0.12987 -0.2359705,0.2596 -0.3543527,0.38979 -0.082594,0.17729 -0.1651,0.35409 -0.2480469,0.53153 -0.026644,0.10336 -0.053455,0.20662 -0.08058,0.31033 -0.055726,0.2514 -0.1113803,0.50155 -0.1674673,0.75273 -0.0588668,0.31904 -0.11785302,0.63757 -0.17717639,0.95675 2.6459e-4,0.44901 2.6459e-4,0.89743 0,1.34654 0.0475395,0.38975 0.0947587,0.77931 0.14174108,1.16936 0.16572641,0.76795 0.33099371,1.53527 0.49609371,2.30329 0.342894,1.28755 0.6853464,2.5747 1.0276228,3.86245 0.1065854,0.42502 0.2128762,0.85018 0.3189175,1.27567 0.034668,0.26232 0.06904,0.52467 0.1031637,0.7874 0.1786416,0.068 0.356712,0.13626 0.534671,0.20479 0.1064855,0.11775 0.2128761,0.23597 0.3189174,0.35435 0.082957,0.18875 0.1656291,0.37771 0.2480468,0.56696 0.068367,0.22396 0.1363803,0.44788 0.2041734,0.67221 0.050362,0.13012 0.1003843,0.2603 0.1501794,0.39085 0.059388,0.15346 0.118382,0.30684 0.1771764,0.46066 -0.064432,0.11309 -0.1290085,0.22624 -0.1939097,0.33975"
    />
    <path style="fill:none;stroke:#000000;stroke-width:0.08;stroke-linecap:butt;stroke-linejoin:miter;stroke-opacity:1;stroke-miterlimit:4;stroke-dasharray:none"
      d="m 4.3772132,274.07079 c -0.076799,0.0519 -0.1538874,0.10389 -0.3253918,0.10656 -0.1715044,0.003 -0.4352393,-0.0439 -0.6538518,0.10963 -0.2186124,0.15352 -0.3907355,0.5071 -0.5537391,0.9323 -0.1630035,0.4252 -0.3164163,0.92084 -0.4109615,1.42893 -0.094545,0.50809 -0.1299575,1.02747 -0.1122477,1.506 0.01771,0.47853 0.088542,0.91533 0.1771462,1.2816 0.088604,0.36627 0.1948582,0.66141 0.3602863,0.98046 0.1654281,0.31905 0.3897393,0.66142 0.649652,0.96859 0.2599127,0.30716 0.5551519,0.57878 0.7795833,0.76545 0.2244314,0.18666 0.3779626,0.2883 0.4901033,0.38273 0.1121407,0.0944 0.1830923,0.18185 0.342595,0.43818 0.1595026,0.25633 0.4074654,0.68141 0.7323267,1.26616 0.3248613,0.58475 0.7263808,1.32874 1.1280066,2.10246 0.4016258,0.77372 0.8031713,1.57681 1.2284303,2.31511 0.425259,0.7383 0.874046,1.41149 1.3406496,2.00212 0.4666034,0.59064 0.9508434,1.0985 1.3170384,1.44106 0.366196,0.34257 0.614238,0.51974 0.82016,0.65491 0.205922,0.13517 0.369741,0.22836 0.605928,0.32873 0.236187,0.10038 0.545031,0.20806 0.835132,0.31501 0.2901,0.10694 0.561906,0.2133 0.774485,0.29597 0.212579,0.0827 0.366197,0.14175 0.488504,0.20777 0.122307,0.066 0.213696,0.13919 0.304942,0.21225"
      id="path7603" inkscape:connector-curvature="0" inkscape:path-effect="#path-effect7605" inkscape:original-d="m 4.3772132,274.07079 c -0.076831,0.0518 -0.1539267,0.10383 -0.2312869,0.15614 -0.2655564,-0.0472 -0.529286,-0.0938 -0.794326,-0.14026 -0.1721326,0.35388 -0.3442546,0.70746 -0.5167788,1.06158 -0.1534263,0.49628 -0.3068412,0.99192 -0.4606586,1.48828 -0.035193,0.51979 -0.070606,1.03917 -0.1063058,1.55915 0.071173,0.43701 0.1420057,0.87381 0.2126116,1.31111 0.1066229,0.29517 0.2128761,0.59032 0.3189174,0.88588 0.2248019,0.34245 0.4491114,0.68482 0.6732701,1.02762 0.2956134,0.27146 0.5908524,0.54308 0.8858816,0.81501 0.1537843,0.10137 0.3073157,0.20301 0.4605766,0.30491 0.071134,0.087 0.1420604,0.17444 0.2126935,0.26206 0.248397,0.4251 0.4963584,0.85018 0.7441407,1.27567 0.401942,0.74402 0.8034641,1.48801 1.2047992,2.23242 0.401915,0.80304 0.8034639,1.60613 1.204799,2.4096 0.4491704,0.67309 0.897958,1.34627 1.3465402,2.01981 0.48459,0.50768 0.968828,1.01554 1.452846,1.52371 0.248314,0.17692 0.496358,0.35409 0.74414,0.53153 0.164021,0.0929 0.327844,0.18608 0.491368,0.27951 0.308784,0.10731 0.617627,0.215 0.926043,0.32289 0.2718,0.10599 0.543606,0.21235 0.815011,0.31892 0.153739,0.0588 0.307371,0.11785 0.460659,0.17718 0.09146,0.0727 0.182822,0.14591 0.273836,0.21926"
    />
    <path style="fill:none;stroke:#000000;stroke-width:0.14;stroke-linecap:butt;stroke-linejoin:miter;stroke-miterlimit:4;stroke-dasharray:none;stroke-opacity:1"
      d="m 22.028529,275.31661 c -0.04281,-0.12677 -0.08557,-0.25337 -0.128209,-0.37963" id="path7607" inkscape:connector-curvature="0"
      inkscape:path-effect="#path-effect7609" inkscape:original-d="m 22.028529,275.31661 c -0.04255,-0.12686 -0.08528,-0.25347 -0.128209,-0.37963"
    />
    <path style="fill:none;stroke:#000000;stroke-width:0.133;stroke-linecap:butt;stroke-linejoin:miter;stroke-miterlimit:4;stroke-dasharray:none;stroke-opacity:1"
      d="m 32.19085,274.43665 c 0.105588,-0.062 0.210768,-0.12382 0.315494,-0.18534" id="path7679" inkscape:connector-curvature="0"
      inkscape:path-effect="#path-effect7681" inkscape:original-d="m 32.19085,274.43665 c 0.105546,-0.0621 0.210714,-0.12391 0.315494,-0.18534"
    />
    <path style="fill:none;stroke:#000000;stroke-width:0.13300002;stroke-linecap:butt;stroke-linejoin:miter;stroke-miterlimit:4;stroke-dasharray:none;stroke-opacity:1"
      d="m 25.736022,276.25488 c -0.04091,-0.11544 -0.08167,-0.23042 -0.122242,-0.3449" id="path7679-8" inkscape:connector-curvature="0"
      inkscape:path-effect="#path-effect7681-4" inkscape:original-d="m 25.736022,276.25488 c -0.04103,-0.1154 -0.08177,-0.23038 -0.122242,-0.3449"
    />
    <path style="fill:none;stroke:#000000;stroke-width:0.13105807;stroke-linecap:butt;stroke-linejoin:miter;stroke-miterlimit:4;stroke-dasharray:none;stroke-opacity:1"
      d="m 24.725781,274.63965 c -0.07474,0.0977 -0.14918,0.19495 -0.223296,0.29181" id="path7679-8-0" inkscape:connector-curvature="0"
      inkscape:path-effect="#path-effect7681-4-8" inkscape:original-d="m 24.725781,274.63965 c -0.07483,0.0976 -0.149262,0.19489 -0.223296,0.29181"
    />
    <path style="fill:none;stroke:#000000;stroke-width:0.12979862;stroke-linecap:butt;stroke-linejoin:miter;stroke-miterlimit:4;stroke-dasharray:none;stroke-opacity:1"
      d="m 21.603982,274.49192 c -0.09637,-0.0807 -0.192641,-0.16135 -0.288656,-0.24177" id="path7607-6" inkscape:connector-curvature="0"
      inkscape:path-effect="#path-effect7609-4" inkscape:original-d="m 21.603982,274.49192 c -0.09621,-0.0809 -0.192458,-0.16157 -0.288656,-0.24177"
    />
    <path style="fill:none;stroke:#000000;stroke-width:0.134;stroke-linecap:butt;stroke-linejoin:miter;stroke-miterlimit:4;stroke-dasharray:none;stroke-opacity:1"
      d="m 11.904996,268.72879 c 0.125612,0.004 0.251155,0.008 0.376318,0.0126" id="path7607-6-5" inkscape:connector-curvature="0"
      inkscape:path-effect="#path-effect7609-4-4" inkscape:original-d="m 11.904996,268.72879 c 0.125619,0.004 0.251135,0.009 0.376318,0.0126"
    />
    <path style="fill:none;stroke:#000000;stroke-width:0.134;stroke-linecap:butt;stroke-linejoin:miter;stroke-miterlimit:4;stroke-dasharray:none;stroke-opacity:1"
      d="m 8.0471716,270.23473 c 0.097926,-0.0788 0.1958243,-0.15749 0.2934105,-0.23597" id="path7607-6-5-4" inkscape:connector-curvature="0"
      inkscape:path-effect="#path-effect7609-4-4-7" inkscape:original-d="m 8.0471716,270.23473 c 0.097809,-0.0789 0.1961927,-0.15703 0.2934105,-0.23597"
    />
    <path style="fill:none;stroke:#000000;stroke-width:0.134;stroke-linecap:butt;stroke-linejoin:miter;stroke-miterlimit:4;stroke-dasharray:none;stroke-opacity:1"
      d="m 18.638554,259.03463 c 0.124647,-0.0161 0.249226,-0.0322 0.373425,-0.0482" id="path7607-6-5-7" inkscape:connector-curvature="0"
      inkscape:path-effect="#path-effect7609-4-4-1" inkscape:original-d="m 18.638554,259.03463 c 0.12462,-0.0163 0.249299,-0.0316 0.373425,-0.0482"
      inkscape:transform-center-x="0.0087586945" inkscape:transform-center-y="-0.035076901" />
  </g>
</svg>