<svg xmlns="http://www.w3.org/2000/svg" viewBox="0 0 27 37" id="svg7820"><g id="layer1" transform="translate(0 -260)"><g transform="translate(-540.78799 -130.16457)" id="F3" stroke-width=".13229166"><g id="flowerDevelopmentPart3" transform="matrix(.26458 0 0 .26458 419.85161 516.93414)" stroke-width=".5"><path fill="none" d="M506.73677-342.02605c-4.19566-5.52895-1.16716-18.94948-11.05966-17.05047-8.03096.75739-9.93932-9.27845-15.92756-12.6293-1.97921-9.07494-9.32385-16.91919-11.16301-26.31165-3.06949-7.85213-9.37253-16.93275-8.419-24.92309 1.57722-4.99326.0414-15.5242-.93722-21.92894 4.32108-2.2078 7.18261 11.82872 9.73568 3.60508 4.36292-2.96628 2.41598 7.57036 4.81028 10.7584.91064 5.45893 4.35491 15.94934 5.34494 17.6598-.009-16.77406 2.59316-33.90094 4.77777-50.45977 1.18283-6.24372 1.6201-14.31137 9.97141-13.73684 5.72112.11672 11.41644-1.63815 15.33843.18868 6.82198 3.10596 3.40663 6.63654 11.85981 4.13006 7.20388.15734 16.86703 1.10422 16.98403 10.41805.8576 7.86517 4.82462 14.95507 6.19621 22.68 3.58573-5.53898 1.20037-16.25723 6.59757-19.19781 5.81407 2.72185 1.69265 13.29908 4.448 19.09606 1.40607 21.47231-4.49776 42.71741-9.00748 63.70178-1.77174 6.8233-6.57093 13.23559-9.0074 18.58696-6.47414-.21912-.51332 14.68908-9.54199 13.53148-6.44754 2.25427-15.2034-1.56984-21.00081 1.88152z" id="path7804-1"/></g><g id="g12181"><path d="M556.58879 421.98464s-3.46115-.42095-3.92888-4.16272c0 0-1.44993-4.30304-.0468-9.35443 0 0 .42099-.32741 1.16934-.18709 0 0 1.07576-1.02899 1.96443-.8419l1.12027 1.78386s4.86657.4612 5.05366 5.09165c0 0-1.02899 4.95785-2.94665 6.73519 0 0-.74833 1.12252-2.38537.93544z" id="path1847" fill="none" stroke="#000"/><path d="M552.65991 417.82192s-4.83195-1.85856-6.0408-10.12002" id="path1849" fill="none" stroke="#000"/><path d="M561.59341 415.8575s4.81753-12.114 4.67723-16.18319" id="path1851" fill="none" stroke="#000"/><path d="M564.91422 406.50305s-.60804-2.66599-2.24504-6.17392c0 0-3.83534.42095-5.75299 1.96443 0 0-1.82412 2.19829-1.16931 5.14494" id="path1853" fill="none" stroke="#000"/><path d="M556.31952 403.47571s-2.94349-1.22369-3.73724-2.84427c0 0-1.62057-2.14974-1.91823 0 0 0-1.45521 5.45703-1.71979 13.62604" id="path1857" fill="none" stroke="#000"/><path d="M563.85081 400.61641l-.22217 1.86712" id="path1859" fill="none" stroke="#000"/><path d="M556.18723 393.32233s-5.4901.29766-2.6789 5.22552c0 0 2.84426 1.98437 4.79557.76068 0 0 4.49791-4.92786-2.11667-5.9862z" id="path1861" fill="none" stroke="#000"/><path d="M553.50833 398.54785l-.92605 2.08359" id="path1863" fill="none" stroke="#000"/><path d="M558.3039 399.30853l.56224 1.9513" id="path1867" fill="none" stroke="#000"/><path d="M552.25156 422.02962s2.14974 0 2.21588-.89297" id="path1869" fill="none" stroke="#000"/><path d="M561.67734 422.39342s-2.76051-.34025-2.70317-1.34421" id="path1871" fill="none" stroke="#000"/></g></g><path d="M11.46357 291.86505c.104313.12193.208643.24388.28378.33827.07514.0944.12105.16117.169096.24263.04805.0815.0981.17741.158694.34454.06059.16713.13151.40492.189995.62841.05849.22348.104389.43213.14826.64521.04387.21308.08559.43003.12737.62431.04178.19428.0835.36534.1211.50531.0376.13997.07097.24842.116951.37174.04598.12333.104353.26092.166295.38171.06194.12079.127224.22431.204686.25139.07746.0271.166573-.0222.261093-.0635.09452-.0413.195123-.0748.316001-.10815.120878-.0333.263312-.0668.413464-.0919.150153-.025.309196-.0418.505245-.0501.196049-.008.430336-.008.678655.00002.248319.008.511715.0251.753822.0397.242106.0146.46365.0272.693207.0355.229557.008.467859.0125.639051.0104.171191-.002.27568-.0104.400764-.0229.125083-.0125.271649-.0292.378078-.046.106429-.0167.173394-.0334.250785-.0541.07739-.0207.166157-.0455.2412-.0559.07504-.0104.137175-.007.20769-.007.07052-.00015.150224-.004.235676-.0148.08545-.0104.177652-.0272.263128-.0606.08547-.0334.16509-.0837.242181-.15039.07709-.0667.152532-.15052.219212-.24641.06668-.0959.12534-.20483.179504-.37987.05416-.17504.104423-.41796.141978-.64541.03755-.22746.06264-.44071.09395-.65772.0313-.21701.06894-.43864.102352-.59728.03341-.15864.06268-.25481.102316-.34445.03963-.0896.08992-.17345.161578-.24878.07166-.0753.165473-.1431.246803-.18267.08133-.0396.150947-.0514.204326-.0567.05338-.005.09682-.004.152919-.0766.0561-.0727.128898-.22112.248417-.44903.119519-.2279.286925-.5376.474745-.87567.187821-.33808.396838-.70595.593025-1.0712.196188-.36525.380093-.72888.530364-1.06075.150271-.33187.267303-.63281.344527-.84573.07722-.21291.114845-.33832.164868-.53634.05002-.19802.112823-.47015.181681-.78315.06886-.313.144116-.66838.231774-1.05657.08766-.3882.187971-.81035.275638-1.1965.08767-.38616.162891-.73721.244287-1.1108.0814-.37358.169172-.77066.254746-1.17558.08557-.40492.16916-.81867.250565-1.22361.0814-.40493.160808-.80195.210905-1.06708.0501-.26512.07099-.39886.108522-.61777.03753-.21891.09194-.52444.146194-.86043.05426-.33599.1086-.70385.164951-1.10875.05635-.4049.114863-.84792.160784-1.24453.04592-.39661.07935-.74763.104397-1.02943.02505-.2818.04176-.49495.05637-.73072.0146-.23577.02715-.49504.03758-.82682.01043-.33178.01879-.7373.02088-1.07546.0021-.33817-.0021-.6098-.01045-.84355-.0084-.23376-.02089-.43022-.02896-.57539-.0081-.14516-.01169-.23941-.02838-.32069-.01668-.0813-.04655-.15018-.07603-.23248-.02948-.0823-.05877-.17856-.08797-.32041-.0292-.14185-.05848-.3301-.07726-.52211-.01878-.192-.02714-.38851-.03131-.63054-.0042-.24203-.0042-.53055-.0042-.73304 0-.20249 0-.31952-.0021-.44257-.0021-.12304-.0063-.25279-.01462-.39045-.0083-.13766-.0209-.28412-.04385-.43222s-.05642-.29869-.09189-.42388c-.03548-.12519-.07311-.22555-.119013-.31734-.0459-.0918-.100252-.1754-.160759-.2526-.06051-.0772-.12738-.14825-.204181-.20843-.0768-.0602-.163688-.10958-.253405-.10133-.08972.008-.182326.0743-.264301.14713-.08197.0728-.152754.15192-.215532.24186-.06278.0899-.116874.18982-.162895.2902-.04602.10039-.08349.20029-.127424.32791-.04394.12762-.09389.28165-.135712.45516-.04182.17351-.07516.36521-.112782.60138-.03762.23618-.07932.51554-.119011.78712-.03969.27159-.07724.5344-.110651.73283-.03341.19844-.06262.33193-.10233.48036-.03971.14843-.08971.31092-.144028.45302-.05432.14211-.112673.26299-.154718.34363-.04205.0806-.0676.12065-.1034.0301-.0358-.0906-.08082-.30855-.143147-.55606-.06233-.24751-.141745-.52339-.235673-.82813-.09393-.30474-.202576-.63904-.317389-.98139-.114814-.34235-.235978-.69331-.338272-1.00646-.102294-.31315-.185856-.5889-.256828-.84149-.07097-.25259-.129475-.48242-.179565-.71828-.05009-.23587-.09189-.47828-.11692-.63562-.02503-.15733-.03338-.22998-.04171-.33001-.0083-.10003-.01673-.22834-.03969-.3777-.02295-.14935-.06061-.3209-.112784-.47739-.05217-.15648-.119063-.29863-.196273-.42591-.07721-.12729-.164977-.24013-.281856-.35701-.116879-.11688-.263091-.23803-.407145-.33408-.144053-.096-.286002-.16701-.394612-.22132-.10861-.0543-.183702-.0918-.277724-.12947-.09402-.0376-.206608-.0751-.352888-.11485-.146279-.0397-.325597-.0814-.507339-.11692-.181742-.0355-.365293-.0647-.620217-.0919-.254925-.0272-.580273-.0522-.809328-.0656-.229055-.0134-.361256-.015-.482434-.00046-.121178.0146-.230878.0454-.329824.0713-.09895.0259-.186396.0467-.288919.0676-.102523.0209-.219042.0417-.32358.0522-.104539.0105-.196172.0105-.273516.008-.07734-.002-.139857-.006-.211059-.0272-.0712-.0209-.150225-.0584-.271513-.16082-.121288-.10247-.28392-.26927-.421721-.4029-.1378-.13362-.250557-.23385-.384168-.33198-.133612-.0981-.28812-.19417-.432206-.27144-.144086-.0773-.277644-.1357-.407125-.17957-.12948-.0439-.254644-.0731-.40719-.0961-.152547-.023-.331845-.0397-.517791-.046-.185946-.006-.377788-.002-.584656.008-.206868.0104-.42789.0271-.659811.048-.231921.0209-.473821.0459-.716188.0648-.242367.0188-.48429.0313-.705742.0355-.2214525.004-.4216923.00003-.5971605.008-.1754682.008-.3256214.0292-.4614434.0668-.1358219.0376-.2567042.0918-.3423868.12938-.085683.0376-.1356586.0584-.213257.10664-.077598.0482-.1813252.1229-.2733639.22117-.092039.0983-.1711569.21903-.2401233.31727-.068967.0982-.1272793.17321-.1880037.28625-.060724.11303-.1231213.26279-.1795831.44886-.056462.18608-.10647.40695-.1503513.62007-.043881.21312-.081413.41746-.1252986.65361-.043886.23615-.093924.50302-.1336239.75373-.0397.2507-.068899.48429-.1044217.76221-.035523.27791-.077231.59906-.11692.89987-.039689.3008-.077239.58034-.1252952.9439-.048056.36355-.1064612.80993-.173303 1.32378-.066842.51384-.1419625 1.09394-.20253 1.59309-.060568.49914-.1064813.91654-.1545249 1.36982-.048044.45328-.098122.94154-.137808 1.38432-.039686.44279-.068901.83928-.091876 1.15257-.022975.31329-.039667.54281-.060565.86881-.020898.326-.045924.74726-.060548 1.10233-.014624.35507-.018797.64303-.024153.96092-.00536.31789-.011879.66488-.028622.81947-.016743.1546-.043579.11639-.092479.003-.0489-.11302-.1199925-.30121-.2222533-.59339-.1022608-.29217-.2360008-.68921-.3549966-1.06917-.1189959-.37996-.2234383-.74342-.3048586-1.02944-.08142-.28601-.1399126-.49491-.1816606-.65566-.041748-.16074-.066825-.27359-.093946-.39041-.02712-.11682-.056403-.23814-.082363-.36289-.02596-.12476-.048725-.25354-.082098-.35363-.033373-.10009-.077538-.17209-.1183597-.26648-.040822-.0944-.078445-.21144-.1097387-.34917-.031294-.13772-.056384-.29663-.08559-.51778-.029206-.22115-.06266-.50551-.087713-.70382-.025053-.19832-.04177-.31116-.062632-.42379-.020862-.11263-.045967-.2256-.079336-.32987-.03337-.10426-.075222-.20052-.1210917-.26933-.045869-.0688-.096039-.11062-.158574-.12943-.062535-.0188-.1376567-.0147-.2130205.008-.075364.023-.1503726.0646-.2111221.15041-.06075.0858-.1063663.21471-.1459851.30665-.039619.0919-.072925.14608-.1105781.19214-.037653.0461-.079191.0835-.1126399.10652-.033449.0231-.058365.0314-.092115.0335-.03375.002-.07497-.002-.1190066-.0167-.044036-.0147-.089703-.0396-.1419571-.0689-.052254-.0293-.1106261-.0626-.1691701-.0961" id="path7886" fill="none" stroke="#000" stroke-width=".1"/><path d="M2.2676179 270.51959c-.06139-.10435-.1227299-.20861-.2298158-.36606-.107086-.15745-.2601652-.36845-.3697125-.51107-.1095473-.14261-.1756882-.21702-.2562688-.29554-.080581-.0785-.1757003-.16123-.2603991-.21909-.084699-.0579-.15911222-.0909-.22523449-.10748-.0661223-.0166-.12390441-.0166-.18225683-.006-.0583524.0101-.1166727.0303-.10838596.30661.008287.27631.0830257.80302.14334989 1.27667.0603242.47365.1057806.89102.13886422 1.26111.0330836.37009.0537424.69237.0640857.97977.0103432.28741.0103432.5394.006212.74825-.004131.20886-.012391.37405-.0268614.52298-.0144703.14893-.035106.281-.0603063.40455-.0252002.12356-.0548307.23788-.0734748.34966-.0186442.11178-.0261339.22015-.0298987.32631-.003765.10615-.003765.20924.004514.35004.008278.1408.0247725.31811.0516587.49394.0268862.17584.0640433.34924.10333832.5085.0392951.15926.0805894.30379.15713585.52309.076546.2193.1880296.51246.305882.80606.1178524.29361.2418152.58699.401021.93641.1592057.34943.3534255.7544.5146728 1.09137.1612473.33696.2893724.60561.3927417.82889.1033693.22327.1818837.40096.2303102.51551.048427.11455.066683.16577.085323.24652.018641.0807.037511.19036.075961.33855.03845.14819.096217.33387.1623936.52414.066177.19026.1405248.38439.2294462.59946.088921.21507.1921982.45054.3183294.71728.1261312.26674.2748809.56424.4692284.93226.1943474.36802.4340404.80608.5911428 1.09548.1571023.2894.2315006.42993.3286924.62844.097192.19852.2169998.45466.3100327.67793.093033.22326.1591477.41334.2149789.58083.055831.16749.1012678.31206.1343498.42163.033082.10958.05374.18395.071468.24753.017728.0636.032427.11603.080155.16997.047728.0539.1278017.10865.2113473.16707.083545.0584.1704219.12048.2654505.20518.095028.0847.1984416.19225.3079911.3142.1095496.12195.2252991.25837.3617314.43201.1364323.17364.2934998.38444.4423446.58084.1488448.19639.2893746.37825.3989538.51264.1095792.13439.1880968.22117.2749182.31213.086821.091.181912.18604.2873505.27494.1054385.0889.2212016.17158.3369628.24186.1157611.0703.2315617.12818.3617578.1757.1301961.0475.2750359.0848.4327892.10368.1577532.0189.3289343.0196.4714903.0134.142556-.006.257021-.0192.353321-.0277.0963-.009.175095-.0127.263757-.007.08866.006.188236.0228.276998.0455.08876.0227.167485.0517.231938.0691.06445.0174.107661.0224.154179.0277" id="path8473" fill="none" stroke="#000" stroke-width=".1"/></g></svg>