<?xml version="1.0" encoding="UTF-8" standalone="no"?>
<!-- Created with Inkscape (http://www.inkscape.org/) -->
<svg author="Provart Lab - Bio Analytic Resource, University of Toronto" license="CCBY4.0" xmlns:dc="http://purl.org/dc/elements/1.1/" xmlns:cc="http://creativecommons.org/ns#" xmlns:rdf="http://www.w3.org/1999/02/22-rdf-syntax-ns#"
  xmlns:svg="http://www.w3.org/2000/svg" xmlns="http://www.w3.org/2000/svg" xmlns:sodipodi="http://sodipodi.sourceforge.net/DTD/sodipodi-0.dtd"
  xmlns:inkscape="http://www.inkscape.org/namespaces/inkscape" width="300px" height="300px" viewBox="0 0 22 44" version="1.1"
  id="svg8828">
  <g id="layer1" transform="translate(0,-253)">
    <g transform="translate(-574.63444,-132.3968)" id="F4" style="stroke-width:0.13229166;stroke-miterlimit:4;stroke-dasharray:none">
      <g id="flowerDevelopmentPart4" transform="matrix(0.26458333,0,0,0.26458333,540.37229,450.10533)" style="stroke-width:0.5;stroke-miterlimit:4;stroke-dasharray:none">
        <path fill="none" style="fill-opacity:1;stroke:none;stroke-width:0.5;stroke-miterlimit:4;stroke-dasharray:none;stroke-opacity:1"
          d="m 157.83309,-235.70832 c 1.98273,-0.79583 10.283,-4.11671 11.83795,-4.04144 9.05199,0.16781 20.2112,1.44409 24.66601,10.78805 7.54533,16.57234 15.31138,33.85502 12.62137,52.57549 -0.16056,20.48876 1.12322,42.49456 -8.85213,61.07996 -4.11025,7.2523 -5.1828,18.090499 -8.25293,26.321699 -7.01684,-0.2192 -14.97115,-2.2715 -20.95815,0.32 -1.34418,-0.1326 -2.44975,0.7767 -3.83615,0.3213 -3.22954,-3.5481 -1.93658,-12.588199 -4.87054,-15.671199 3.77998,-2.6233 -5.90543,-1.2187 -6.81144,-4.6517 -18.25912,-13.5778 -14.36427,-40.5092 -16.12214,-61.11995 -0.59086,-18.61195 3.70369,-37.18928 11.3192,-53.91455 1.69993,-1.47884 6.5541,-8.17495 8.23663,-10.58369"
          id="path7814-9" />
      </g>
      <g id="g12168" style="stroke-width:0.13229166;stroke-miterlimit:4;stroke-dasharray:none">
        <path style="fill:none;stroke:#000000;stroke-width:0.13229166;stroke-linecap:butt;stroke-linejoin:miter;stroke-miterlimit:4;stroke-dasharray:none;stroke-opacity:1"
          d="m 591.54218,392.33014 c 2.91041,11.50938 -1.98437,27.15287 -1.98437,27.15287 -2.18282,2.34817 -5.22553,1.35599 -5.22553,1.35599 0,0 -5.19932,-14.28917 -2.48652,-30.94006"
          id="path1873" />
        <path style="fill:none;stroke:#000000;stroke-width:0.13229166;stroke-linecap:butt;stroke-linejoin:miter;stroke-miterlimit:4;stroke-dasharray:none;stroke-opacity:1"
          d="m 595.1802,401.06139 c 0,0 -3.63802,-19.05 -15.94114,-9.32656" id="path1877" />
        <path style="fill:none;stroke:#000000;stroke-width:0.13229166;stroke-linecap:butt;stroke-linejoin:miter;stroke-miterlimit:4;stroke-dasharray:none;stroke-opacity:1"
          d="m 584.33228,420.839 c 0,0 -0.10575,1.12995 -1.57678,1.74585" id="path1881" />
        <path style="fill:none;stroke:#000000;stroke-width:0.13229166;stroke-linecap:butt;stroke-linejoin:miter;stroke-miterlimit:4;stroke-dasharray:none;stroke-opacity:1"
          d="m 589.55781,419.48301 c 0,0 0.61338,1.61297 2.57783,1.33233" id="path1883" />
      </g>
    </g>
    <path style="fill:none;stroke:#000000;stroke-width:0.1;stroke-linecap:butt;stroke-linejoin:miter;stroke-opacity:1;stroke-miterlimit:4;stroke-dasharray:none"
      d="m 8.1210599,290.18805 c 0.033885,0.0371 0.06775,0.0743 0.099307,0.11788 0.031557,0.0436 0.060781,0.0937 0.090031,0.15012 0.029249,0.0564 0.058428,0.11893 0.082452,0.17636 0.024024,0.0574 0.042793,0.10957 0.0637,0.1702 0.020907,0.0606 0.043822,0.12938 0.065081,0.20969 0.021259,0.0803 0.040697,0.17161 0.058817,0.25785 0.01812,0.0862 0.034778,0.16675 0.048891,0.24479 0.014113,0.078 0.025569,0.15303 0.038118,0.23599 0.012549,0.083 0.026079,0.17316 0.041761,0.27963 0.015682,0.10646 0.033387,0.22831 0.052196,0.35197 0.018809,0.12366 0.03861,0.24837 0.054801,0.34517 0.016191,0.0968 0.028699,0.16526 0.041772,0.23202 0.013073,0.0668 0.026597,0.13126 0.037053,0.18041 0.010456,0.0491 0.017739,0.0824 0.031356,0.13692 0.013617,0.0545 0.033347,0.12924 0.055295,0.20502 0.021947,0.0758 0.045911,0.15184 0.072566,0.2245 0.026655,0.0727 0.05582,0.1414 0.086661,0.20674 0.030841,0.0653 0.063123,0.12679 0.1012661,0.18845 0.038143,0.0617 0.081937,0.12318 0.1108346,0.16198 0.028897,0.0388 0.042783,0.0547 0.061024,0.0657 0.018241,0.011 0.040427,0.017 0.065066,0.022 0.024639,0.005 0.051973,0.009 0.07955,0.0118 0.027577,0.003 0.056,0.004 0.081993,0.003 0.025993,-5e-4 0.05022,-0.003 0.073575,-0.005 0.023355,-0.002 0.04672,-0.006 0.069981,-0.009 0.023261,-0.004 0.047712,-0.008 0.081852,-0.0156 0.03414,-0.008 0.079585,-0.0194 0.1284752,-0.0314 0.04889,-0.012 0.1024996,-0.0246 0.1415456,-0.0329 0.03905,-0.008 0.06438,-0.0125 0.09078,-0.0161 0.0264,-0.004 0.05503,-0.007 0.07785,-0.008 0.02283,-0.001 0.04076,-0.001 0.05977,-9.8e-4 0.01901,5e-4 0.03991,0.002 0.07667,-0.009 0.03676,-0.0105 0.09099,-0.0328 0.140052,-0.0516 0.04907,-0.0188 0.09424,-0.0346 0.154514,-0.0533 0.06028,-0.0187 0.137032,-0.0408 0.215696,-0.0622 0.07866,-0.0213 0.160423,-0.0423 0.247416,-0.0595 0.08699,-0.0172 0.180262,-0.0308 0.269907,-0.0433 0.08965,-0.0125 0.176577,-0.024 0.2641,-0.0323 0.08752,-0.008 0.176598,-0.0136 0.250105,-0.0177 0.07351,-0.004 0.132202,-0.007 0.208688,-0.009 0.07648,-0.001 0.171941,-0.001 0.237142,-0.001 0.0652,0 0.100801,0 0.146004,5e-4 0.0452,5e-4 0.100958,0.001 0.164472,0.003 0.06351,0.002 0.135894,0.005 0.203645,0.008 0.06775,0.003 0.131656,0.006 0.204567,0.0106 0.07291,0.005 0.155712,0.0109 0.252634,0.0187 0.09692,0.008 0.208968,0.0172 0.314301,0.0266 0.105332,0.009 0.204737,0.0188 0.305887,0.0287 0.101151,0.01 0.204751,0.0204 0.307987,0.0303 0.103237,0.01 0.206838,0.0193 0.325702,0.0308 0.118865,0.0115 0.253855,0.0251 0.366008,0.0355 0.112152,0.0104 0.202097,0.0177 0.29593,0.025 0.09383,0.007 0.192231,0.0146 0.27672,0.0197 0.08449,0.005 0.15566,0.008 0.216206,0.0108 0.06055,0.003 0.110996,0.005 0.164036,-0.075 0.05304,-0.0801 0.109527,-0.24384 0.160025,-0.3967 0.0505,-0.15285 0.09548,-0.29616 0.139276,-0.44164 0.0438,-0.14547 0.0867,-0.29405 0.132576,-0.4609 0.04588,-0.16684 0.09505,-0.35307 0.144079,-0.54552 0.04903,-0.19246 0.09818,-0.3922 0.149292,-0.59927 0.05112,-0.20708 0.104445,-0.42248 0.154003,-0.62332 0.04956,-0.20084 0.09556,-0.38799 0.14511,-0.58253 0.04955,-0.19454 0.102884,-0.39742 0.152442,-0.57999 0.04956,-0.18258 0.09557,-0.3457 0.14563,-0.51362 0.05007,-0.16792 0.104462,-0.34157 0.149851,-0.47929 0.04539,-0.13771 0.082,-0.24022 0.08982,-0.30766 0.0078,-0.0675 -0.01301,-0.10047 -3.71e-4,-0.13339 0.01264,-0.0329 0.05863,-0.0659 0.108416,-0.15078 0.04979,-0.0849 0.104434,-0.22362 0.153461,-0.33939 0.04903,-0.11578 0.09298,-0.20996 0.132597,-0.29336 0.03962,-0.0834 0.07523,-0.15673 0.12729,-0.25719 0.05206,-0.10047 0.121266,-0.22945 0.164573,-0.31032 0.04331,-0.0809 0.0611,-0.11437 0.08549,-0.16159 0.02438,-0.0472 0.05599,-0.10937 0.09033,-0.18014 0.03434,-0.0708 0.07214,-0.15161 0.11017,-0.23237 0.03804,-0.0808 0.07681,-0.1625 0.124195,-0.26717 0.04739,-0.10468 0.103986,-0.23359 0.150389,-0.34257 0.0464,-0.10898 0.08305,-0.19902 0.12472,-0.30581 0.04167,-0.10678 0.08882,-0.23147 0.138343,-0.36387 0.04952,-0.13241 0.101857,-0.27371 0.146701,-0.40096 0.04484,-0.12724 0.08251,-0.24129 0.115876,-0.34556 0.03337,-0.10427 0.06268,-0.19954 0.09239,-0.29699 0.0297,-0.0974 0.06008,-0.19801 0.08927,-0.29964 0.02918,-0.10163 0.05746,-0.20531 0.08613,-0.31319 0.02867,-0.10789 0.05799,-0.22099 0.08406,-0.32578 0.02607,-0.10479 0.0491,-0.20214 0.07099,-0.29441 0.02189,-0.0923 0.04284,-0.18023 0.06264,-0.26934 0.0198,-0.0891 0.03865,-0.18024 0.05689,-0.26987 0.01824,-0.0896 0.03605,-0.17868 0.05533,-0.27819 0.01928,-0.0995 0.04023,-0.21057 0.06264,-0.33409 0.02241,-0.12353 0.04649,-0.26068 0.06787,-0.38844 0.02138,-0.12775 0.04021,-0.24703 0.05742,-0.36278 0.0172,-0.11574 0.0329,-0.22878 0.04854,-0.34711 0.01564,-0.11834 0.03134,-0.2429 0.0501,-0.39928 0.01877,-0.15638 0.04074,-0.34579 0.05587,-0.48074 0.01513,-0.13495 0.0235,-0.21618 0.03496,-0.33735 0.01146,-0.12117 0.02613,-0.28357 0.04073,-0.46297 0.0146,-0.17939 0.02924,-0.37706 0.0428,-0.58049 0.01356,-0.20344 0.02611,-0.41358 0.03549,-0.58419 0.0094,-0.17061 0.01566,-0.30233 0.0214,-0.42905 0.0057,-0.12672 0.01097,-0.24913 0.01722,-0.42218 0.0063,-0.17305 0.01358,-0.39803 0.01984,-0.62809 0.0063,-0.23006 0.01149,-0.4663 0.01514,-0.69063 0.0037,-0.22434 0.0058,-0.43757 0.0079,-0.65407 0.0021,-0.21649 0.0042,-0.43705 0.0053,-0.63792 0.001,-0.20086 0.001,-0.38274 0.0016,-0.5747 5.16e-4,-0.19195 0.0016,-0.39478 0.0016,-0.6097 0,-0.21492 -0.001,-0.44282 -0.001,-0.66194 -2e-6,-0.21912 0.001,-0.43235 0.0016,-0.65771 5.16e-4,-0.22535 5.16e-4,-0.46473 0.0011,-0.60644 5.85e-4,-0.14172 0.0018,-0.18622 0.01422,-0.30468 0.01246,-0.11846 0.03649,-0.31324 0.05624,-0.50698 0.01975,-0.19374 0.03543,-0.38822 0.04691,-0.57862 0.01147,-0.19039 0.01879,-0.37754 0.02244,-0.56376 0.0036,-0.18621 0.0036,-0.37232 0.0031,-0.47565 -5.22e-4,-0.10333 -0.0016,-0.12423 -0.01637,-0.1396 -0.01481,-0.0154 -0.04423,-0.0258 -0.04306,-0.0284 0.0012,-0.003 0.03217,0.002 0.04658,-0.004 0.01441,-0.006 0.01229,-0.0243 0.01075,-0.0574 -0.0015,-0.0331 -0.0026,-0.0828 -0.0052,-0.15767 -0.0026,-0.0749 -0.0068,-0.1767 -0.01305,-0.28669 -0.0063,-0.10999 -0.01463,-0.22931 -0.02193,-0.32578 -0.0073,-0.0965 -0.01358,-0.1708 -0.02036,-0.24637 -0.0068,-0.0756 -0.0141,-0.15306 -0.02505,-0.25309 -0.01094,-0.10004 -0.0256,-0.22361 -0.03969,-0.33212 -0.01409,-0.10851 -0.02768,-0.2026 -0.04176,-0.3001 -0.01408,-0.0975 -0.02873,-0.199 -0.04958,-0.32828 -0.02085,-0.12929 -0.04806,-0.28728 -0.07205,-0.41875 -0.024,-0.13147 -0.04491,-0.23706 -0.06889,-0.35334 -0.02398,-0.11628 -0.05118,-0.24388 -0.083,-0.38157 -0.03182,-0.13769 -0.06842,-0.28618 -0.109626,-0.4505 -0.04121,-0.16431 -0.08721,-0.34516 -0.133641,-0.51629 -0.04644,-0.17113 -0.09347,-0.33312 -0.140943,-0.49277 -0.04748,-0.15964 -0.09556,-0.31746 -0.150856,-0.49171 -0.0553,-0.17425 -0.118008,-0.36551 -0.184795,-0.56221 -0.06679,-0.19671 -0.137841,-0.39942 -0.21246,-0.60554 -0.07462,-0.20611 -0.152978,-0.41611 -0.236991,-0.63475 -0.08401,-0.21864 -0.173859,-0.4464 -0.259967,-0.65984 -0.08611,-0.21344 -0.168637,-0.41297 -0.257868,-0.62639 -0.08923,-0.21342 -0.185347,-0.44118 -0.283978,-0.67079 -0.09863,-0.22962 -0.199957,-0.46152 -0.298591,-0.68436 -0.09863,-0.22284 -0.194736,-0.43698 -0.296499,-0.66294 -0.101762,-0.22597 -0.209357,-0.46414 -0.298081,-0.65828 -0.08872,-0.19415 -0.15871,-0.34457 -0.207769,-0.44529 -0.04906,-0.10072 -0.07726,-0.1519 -0.105439,-0.20199 -0.02818,-0.0501 -0.05639,-0.0992 -0.09289,-0.15759 -0.0365,-0.0584 -0.08148,-0.12639 -0.133123,-0.19942 -0.05165,-0.073 -0.110163,-0.15141 -0.167047,-0.22186 -0.05688,-0.0704 -0.11223,-0.1331 -0.18477,-0.20773 -0.07254,-0.0746 -0.162346,-0.1613 -0.228119,-0.22394 -0.06577,-0.0626 -0.107518,-0.10126 -0.184778,-0.16234 -0.07726,-0.0611 -0.18999,-0.14458 -0.267769,-0.20096 -0.07778,-0.0564 -0.120558,-0.0856 -0.192132,-0.12948 -0.07157,-0.0439 -0.17167,-0.10228 -0.263569,-0.15293 -0.0919,-0.0507 -0.175362,-0.0934 -0.278782,-0.14148 -0.10342,-0.0481 -0.226455,-0.10123 -0.346565,-0.14928 -0.12011,-0.048 -0.236933,-0.0908 -0.360719,-0.13207 -0.123785,-0.0413 -0.254117,-0.0809 -0.364838,-0.11222 -0.110721,-0.0313 -0.201427,-0.0543 -0.30176,-0.0773 -0.100333,-0.023 -0.209728,-0.0459 -0.330427,-0.0694 -0.120699,-0.0235 -0.252013,-0.0475 -0.393586,-0.0704 -0.141574,-0.023 -0.292717,-0.0449 -0.434276,-0.0626 -0.14156,-0.0178 -0.272909,-0.0313 -0.42078,-0.0439 -0.147871,-0.0125 -0.311483,-0.024 -0.460891,-0.0334 -0.149407,-0.009 -0.283863,-0.0167 -0.404535,-0.0224 -0.120672,-0.006 -0.226996,-0.01 -0.326276,-0.0125 -0.09928,-0.003 -0.190933,-0.004 -0.253098,-0.003 -0.06216,9.9e-4 -0.09445,0.004 -0.149569,0.0144 -0.05512,0.0104 -0.1317,0.028 -0.220115,0.0515 -0.08842,0.0235 -0.1872,0.0526 -0.3033003,0.0898 -0.1161004,0.0371 -0.2482545,0.0819 -0.4207774,0.142 -0.1725229,0.0601 -0.3839482,0.13511 -0.5871596,0.20981 -0.2032113,0.0747 -0.3970993,0.14871 -0.5930119,0.22446 -0.1959127,0.0758 -0.3929154,0.15289 -0.5353701,0.20885 -0.1424547,0.056 -0.2297785,0.0905 -0.3229239,0.17683 -0.093145,0.0863 -0.191169,0.22343 -0.2822129,0.35085 -0.091044,0.12741 -0.174386,0.24409 -0.2606311,0.36431 -0.086245,0.12022 -0.1747606,0.2431 -0.289771,0.4015 -0.1150105,0.15841 -0.2556121,0.35109 -0.3705185,0.50569 -0.1149065,0.15461 -0.2035125,0.27032 -0.3054474,0.40101 -0.101935,0.13068 -0.2164866,0.27543 -0.3382394,0.42541 -0.1217527,0.14997 -0.2499113,0.30418 -0.3355628,0.40446 -0.085651,0.10029 -0.1283511,0.14611 -0.1649236,0.18249 -0.036573,0.0364 -0.066599,0.0629 -0.098674,0.11487 -0.032075,0.052 -0.065245,0.12799 -0.099815,0.20568 -0.034571,0.0777 -0.069906,0.15564 -0.09552,0.21417 -0.025614,0.0585 -0.04122,0.097 -0.050597,0.11848 -0.00938,0.0214 -0.012422,0.0255 -0.039206,0.0863 -0.026784,0.0608 -0.07043,0.16264 -0.1248105,0.29127 -0.054381,0.12863 -0.1157992,0.27541 -0.1769441,0.42591 -0.061145,0.15051 -0.1215677,0.30364 -0.1759095,0.44472 -0.054342,0.14108 -0.1022669,0.26923 -0.1508739,0.39885 -0.048607,0.12962 -0.097554,0.2598 -0.1472126,0.39779 -0.049658,0.13799 -0.099648,0.28275 -0.1566173,0.44947 -0.056969,0.16673 -0.1205166,0.35425 -0.1790296,0.53083 -0.058513,0.17658 -0.1116669,0.34125 -0.1560734,0.48073 -0.044407,0.13949 -0.079835,0.25307 -0.1190518,0.38744 -0.039217,0.13438 -0.081902,0.28846 -0.1174285,0.41698 -0.035526,0.12852 -0.063659,0.23063 -0.094509,0.34305 -0.03085,0.11242 -0.064154,0.23419 -0.091322,0.3345 -0.027168,0.10031 -0.048003,0.17844 -0.076268,0.29202 -0.028265,0.11357 -0.06362,0.26123 -0.09497,0.39238 -0.031349,0.13114 -0.058437,0.2447 -0.087715,0.37279 -0.029278,0.12809 -0.060513,0.26969 -0.088209,0.3998 -0.027696,0.13011 -0.051655,0.24782 -0.083027,0.40729 -0.031373,0.15948 -0.069901,0.35941 -0.095494,0.49572 -0.025593,0.13631 -0.038099,0.20822 -0.055373,0.31081 -0.017273,0.10259 -0.039107,0.23463 -0.058442,0.35482 -0.019335,0.12019 -0.036001,0.22748 -0.054823,0.35139 -0.018822,0.12391 -0.039645,0.26342 -0.057935,0.39405 -0.01829,0.13063 -0.033917,0.25148 -0.049599,0.38216 -0.015682,0.13067 -0.031305,0.27023 -0.046981,0.41184 -0.015677,0.14161 -0.031305,0.28435 -0.045416,0.43067 -0.014111,0.14632 -0.026614,0.29531 -0.039156,0.45782 -0.012542,0.16251 -0.025046,0.33757 -0.037064,0.52671 -0.012018,0.18914 -0.023483,0.39135 -0.030798,0.5407 -0.00731,0.14936 -0.010444,0.24529 -0.014629,0.38807 -0.00419,0.14278 -0.00939,0.33121 -0.012004,0.46858 -0.00261,0.13737 -0.00261,0.22282 -0.00209,0.37035 5.226e-4,0.14753 0.00156,0.35569 0.00313,0.49618 0.00156,0.14049 0.00365,0.2124 0.00522,0.2809 0.00157,0.0685 0.00261,0.13299 0.00836,0.23036 0.00576,0.0974 0.016153,0.22629 0.028174,0.39248 0.012021,0.16619 0.025567,0.36835 0.035492,0.53495 0.00992,0.1666 0.01618,0.29694 0.023498,0.46418 0.00732,0.16724 0.015653,0.37043 0.022966,0.56474 0.00731,0.1943 0.013569,0.37886 0.017748,0.51518 0.00418,0.13633 0.00626,0.22387 0.010445,0.36666 0.00418,0.1428 0.010429,0.33954 0.015653,0.52706 0.00522,0.18752 0.00939,0.36477 0.01305,0.50631 0.00366,0.14154 0.00679,0.24684 0.011491,0.4016 0.00471,0.15476 0.010955,0.35785 0.017744,0.55006 0.00679,0.19222 0.014088,0.37261 0.020878,0.53035 0.00679,0.15774 0.013045,0.29223 0.017746,0.3925 0.0047,0.10027 0.00783,0.16596 0.011492,0.23658 0.00366,0.0706 0.00782,0.1455 0.015147,0.27421 0.00733,0.12872 0.017731,0.30978 0.031312,0.50829 0.013581,0.19851 0.030263,0.41329 0.044361,0.57675 0.014098,0.16345 0.025569,0.27503 0.038635,0.4036 0.013066,0.12857 0.027651,0.27338 0.040707,0.39403 0.013056,0.12065 0.024526,0.21657 0.039162,0.33158 0.014637,0.11501 0.032342,0.24832 0.05324,0.39096 0.020898,0.14264 0.04487,0.29377 0.066808,0.42696 0.021937,0.1332 0.041745,0.24788 0.069965,0.39683 0.02822,0.14894 0.064694,0.33131 0.1049112,0.5136 0.040217,0.18229 0.084016,0.36375 0.118487,0.50111 0.034471,0.13737 0.059489,0.23014 0.088231,0.33205 0.028741,0.1019 0.061043,0.21235 0.08873,0.30482 0.027687,0.0925 0.050613,0.16646 0.079885,0.25637 0.029272,0.0899 0.064686,0.19511 0.1064835,0.3111 0.041798,0.11599 0.089749,0.24212 0.1498216,0.38995 0.060072,0.14784 0.1320275,0.31678 0.1879036,0.44263 0.055876,0.12586 0.095509,0.20825 0.1446185,0.30647 0.049109,0.0982 0.1074928,0.21186 0.1523984,0.29646 0.044906,0.0846 0.076205,0.13989 0.1138204,0.20519 0.037615,0.0653 0.081403,0.14037 0.1310211,0.22185 0.049618,0.0815 0.104904,0.1691 0.1785479,0.27879 0.073644,0.10968 0.1654437,0.24112 0.2500394,0.35653 0.084596,0.1154 0.1618009,0.21452 0.2406487,0.3106 0.078848,0.0961 0.1592014,0.18895 0.2375206,0.27719 0.078319,0.0882 0.1545054,0.17173 0.2307385,0.25162 0.076233,0.0799 0.1524175,0.15607 0.2364655,0.23542 0.084048,0.0794 0.1759283,0.16184 0.2563064,0.23178 0.080378,0.0699 0.1493194,0.12738 0.2337597,0.19529 0.08444,0.0679 0.1845304,0.1464 0.2356523,0.18964 0.051122,0.0433 0.053409,0.0514 0.057742,0.0641 0.00433,0.0126 0.010449,0.0289 0.017815,0.0463 0.00737,0.0174 0.015614,0.0349 0.02715,0.0548 0.011536,0.0199 0.026061,0.0417 0.043849,0.0637 0.017788,0.022 0.038624,0.0439 0.065271,0.0674 0.026647,0.0235 0.058974,0.0486 0.095532,0.0736 0.036558,0.0251 0.077279,0.0501 0.1132974,0.07 0.036019,0.0198 0.067412,0.0345 0.1038819,0.0507 0.03647,0.0161 0.078385,0.034 0.1201047,0.0496 0.041719,0.0156 0.083606,0.0292 0.1372507,0.0448 0.053645,0.0156 0.1196719,0.0334 0.1905711,0.0506 0.070899,0.0172 0.1473115,0.0339 0.2234362,0.0501 0.076125,0.0162 0.1525341,0.0319 0.2317689,0.048 0.079235,0.0162 0.1619219,0.0329 0.2323171,0.0485 0.070395,0.0156 0.1290194,0.0303 0.1733126,0.0433 0.044293,0.013 0.074655,0.0246 0.1032807,0.0371 0.028626,0.0125 0.055927,0.0261 0.076214,0.0386 0.020287,0.0125 0.03389,0.024 0.043812,0.0366 0.00992,0.0126 0.016131,0.026 0.019803,0.0401 0.00367,0.0141 0.00471,0.0286 0.00315,0.0427 -0.00156,0.0142 -0.00565,0.0275 -0.013008,0.0412 -0.00736,0.0137 -0.017577,0.027 -0.054906,0.0618 -0.037329,0.0348 -0.097883,0.0876 -0.1605869,0.14219"
      id="path9470" />
  </g>
</svg>