<svg xmlns="http://www.w3.org/2000/svg" width="75" height="75" viewBox="0 0 38 44" version="1.1" id="svg7008" license="CCBY4.0" author="Provart Lab - Bio Analytic Resource, University of Toronto">
  <g id="layer1" transform="translate(0 -253)">
    <g transform="translate(-498 -131)" id="F2" style="stroke-width:.13229166;stroke-miterlimit:4;stroke-dasharray:none">
      <g id="flowerDevelopmentPart2" transform="translate(471 521) scale(.26458)" style="stroke-width:.5;stroke-miterlimit:4;stroke-dasharray:none">
        <path fill="none" style="fill-opacity:1;stroke:none;stroke-width:.5;stroke-miterlimit:4;stroke-dasharray:none;stroke-opacity:1" d="M159-355c1-8-5-8-11-11-15-8-19-27-28-40-12-7-12-22-6-32 6 1 6 1 4-4-1-4-2-6-5-7-2-16-11-32-7-47 2-9 12-7 15 0 5 4 11 5 9 13 2 10 1 22 2 31 4-4 12-4 15-6-7-8-3-21-5-32 3-8-6-17-2-24 7-1 14 0 21 1 8 3 10 11 12 18 7 1 14 9 9 15 2 6 1 19 1 27 1 6-2 14 2 20 0-14-3-32 9-41 9-1 6 12 6 19 1 7-3 15-5 20 4 0 4 10 4 1l4-43c4-10 12-18 21-24 7 5 17 13 17 24 6 16-7 30-17 40-1 12-8 22-15 31-2 10-11 15-14 24-3 6-5 19-14 19-2 5-5 7-11 7l-11 1z" id="path7782-3"/>
      </g>
      <g id="g1845" style="stroke-width:.13229166;stroke-miterlimit:4;stroke-dasharray:none">
        <path style="fill:none;stroke:#000;stroke-width:.13229166;stroke-linecap:butt;stroke-linejoin:miter;stroke-miterlimit:4;stroke-dasharray:none;stroke-opacity:1" d="M502 405s6 4 7 8c0 0 5 6 7 12h-4" id="path1812"/>
        <path style="fill:none;stroke:#000;stroke-width:.13229166;stroke-linecap:butt;stroke-linejoin:miter;stroke-miterlimit:4;stroke-dasharray:none;stroke-opacity:1" d="M524 418s1-5-1-11" id="path1814"/>
        <path style="fill:none;stroke:#000;stroke-width:.13229166;stroke-linecap:butt;stroke-linejoin:miter;stroke-miterlimit:4;stroke-dasharray:none;stroke-opacity:1" d="m522 406-5 12s-2 3-1 6c0 0 1 2 3 1" id="path1816"/>
        <path style="fill:none;stroke:#000;stroke-width:.13229166;stroke-linecap:butt;stroke-linejoin:miter;stroke-miterlimit:4;stroke-dasharray:none;stroke-opacity:1" d="M506 408s-4-4 0-6" id="path1818"/>
        <path style="fill:none;stroke:#000;stroke-width:.13229166;stroke-linecap:butt;stroke-linejoin:miter;stroke-miterlimit:4;stroke-dasharray:none;stroke-opacity:1" d="m510 400 3 1s4 0 3 6l1 11" id="path1820"/>
        <path style="fill:none;stroke:#000;stroke-width:.13229166;stroke-linecap:butt;stroke-linejoin:miter;stroke-miterlimit:4;stroke-dasharray:none;stroke-opacity:1" d="M524 412s1-3 6-6" id="path1822"/>
        <path style="fill:none;stroke:#000;stroke-width:.13229166;stroke-linecap:butt;stroke-linejoin:miter;stroke-miterlimit:4;stroke-dasharray:none;stroke-opacity:1" d="m521 408-1-1" id="path1824"/>
        <path style="fill:none;stroke:#000;stroke-width:.13229166;stroke-linecap:butt;stroke-linejoin:miter;stroke-miterlimit:4;stroke-dasharray:none;stroke-opacity:1" d="M517 406s0-2 2 0" id="path1826"/>
        <path style="fill:none;stroke:#000;stroke-width:.13229166;stroke-linecap:butt;stroke-linejoin:miter;stroke-miterlimit:4;stroke-dasharray:none;stroke-opacity:1" d="M518 405s1-6-2-6c0 0-2-2-3 2" id="path1828"/>
        <path style="fill:none;stroke:#000;stroke-width:.13229166;stroke-linecap:butt;stroke-linejoin:miter;stroke-miterlimit:4;stroke-dasharray:none;stroke-opacity:1" d="M517 390s-4 1-4 3c0 0 0 3 3 2l3-1" id="path1830"/>
        <path style="fill:none;stroke:#000;stroke-width:.13229166;stroke-linecap:butt;stroke-linejoin:miter;stroke-miterlimit:4;stroke-dasharray:none;stroke-opacity:1" d="M513 394v6" id="path1832"/>
      </g>
    </g>
    <path style="fill:none;stroke:#000;stroke-width:.08;stroke-linecap:butt;stroke-linejoin:miter;stroke-opacity:1;stroke-miterlimit:4;stroke-dasharray:none" d="m21 294-1 1-1 1h-4v-2" id="path7044"/>
    <path style="fill:none;stroke:#000;stroke-width:.08;stroke-linecap:butt;stroke-linejoin:miter;stroke-opacity:1;stroke-miterlimit:4;stroke-dasharray:none" d="M21 294h1v-1h1l1-1a25 25 0 0 0 1-3v-1l1-1" id="path7591"/>
    <path style="fill:none;stroke:#000;stroke-width:.08;stroke-linecap:butt;stroke-linejoin:miter;stroke-opacity:1;stroke-miterlimit:4;stroke-dasharray:none" d="M26 287a38 38 0 0 0 2-4v-1l1-1a25 25 0 0 0 2-3 14 14 0 0 0 1-2v-2l1-1 2-1a16 16 0 0 0 1-3 8 8 0 0 0 1-2v-1a6 6 0 0 0 0-1v-2l-1-1a7 7 0 0 0-1-2 14 14 0 0 0-2-2h-2a42 42 0 0 0-3 4l-1 1v1l-1 2a317 317 0 0 0 0 9v1l-1-1v-1a18 18 0 0 0 1-3v-4a11 11 0 0 0 0-1v-1h-1v-1l-1 1-1 1a8 8 0 0 0-1 3 16 16 0 0 0 0 4v2-1l-1-1v-1l1-1v-1h-1l1-2v-3l-1-1v-1l1-1a2 2 0 0 0 0-1 3 3 0 0 0-1-1l-1-1h-1l-1-1a8 8 0 0 0-1-3l-2-1a18 18 0 0 0-5 0v3l1 1a6 6 0 0 1 0 1v5a14 14 0 0 0 0 2 5 5 0 0 0 1 2v1h-1l-2 1H8v-5a44 44 0 0 0 0-2v-2H7v-1l-2-1v-1H4v-1H2v1a3 3 0 0 0-1 1 25 25 0 0 0 0 1 10 10 0 0 0 0 3l1 2v4l1 1v1l1 1v1l1 1H4" id="path7599"/>
    <path style="fill:none;stroke:#000;stroke-width:.08;stroke-linecap:butt;stroke-linejoin:miter;stroke-opacity:1;stroke-miterlimit:4;stroke-dasharray:none" d="M4 274H3v1a8 8 0 0 0-1 3v1l1 1a5 5 0 0 0 1 2l1 1a32 32 0 0 1 2 3l1 3a17 17 0 0 0 3 3 6 6 0 0 0 1 1h1l1 1h1" id="path7603"/>
    <path style="fill:none;stroke:#000;stroke-width:.133;stroke-linecap:butt;stroke-linejoin:miter;stroke-miterlimit:4;stroke-dasharray:none;stroke-opacity:1" d="M32 274h1" id="path7679"/>
    <path style="fill:none;stroke:#000;stroke-width:.12979862;stroke-linecap:butt;stroke-linejoin:miter;stroke-miterlimit:4;stroke-dasharray:none;stroke-opacity:1" d="M22 274h-1" id="path7607-6"/>
  </g>
</svg>