<?xml version="1.0" encoding="UTF-8" standalone="no"?>
<!-- Created with Inkscape (http://www.inkscape.org/) -->
<svg author="Provart Lab - Bio Analytic Resource, University of Toronto" license="CCBY4.0" xmlns:dc="http://purl.org/dc/elements/1.1/" xmlns:cc="http://creativecommons.org/ns#" xmlns:rdf="http://www.w3.org/1999/02/22-rdf-syntax-ns#"
  xmlns:svg="http://www.w3.org/2000/svg" xmlns="http://www.w3.org/2000/svg" xmlns:sodipodi="http://sodipodi.sourceforge.net/DTD/sodipodi-0.dtd"
  xmlns:inkscape="http://www.inkscape.org/namespaces/inkscape" width="300px" height="300px" viewBox="0 0 43 48" version="1.1"
  id="svg10785">
  <g id="layer1" transform="translate(0,-249)">
    <g transform="translate(-616.35214,-324.77534)" id="F9-11" style="stroke-width:0.13229166;stroke-miterlimit:4;stroke-dasharray:none">
      <g id="flowerDevelopmentPart9" transform="matrix(0.34072659,0,0,0.34072659,446.94048,548.48785)" fill="none" style="stroke-width:0.3882634;stroke-miterlimit:4;stroke-dasharray:none">
        <path style="fill-opacity:1;stroke-width:0.3882634;stroke-miterlimit:4;stroke-dasharray:none" d="m 517.73139,142.25129 c -5.9603,-2.21588 -16.4752,-8.33931 -10.4344,-16.52219 -3.1252,-1.20245 -6.5126,-8.54009 -5.0839,-14.37151 3.4558,-6.94954 10.6617,-15.118529 12.8631,-21.844279 -3.1473,-5.55254 8.3858,-7.6856 11.6167,-12.42546 13.8279,-5.2245 21.0453,13.27968 17.0246,23.580899 -2.4289,9.58615 -0.6065,25.10458 -11.4115,32.03122 -4.502,2.23478 -7.424,-0.32497 -8.0715,5.2182 -1.8,2.20952 -4.6394,4.38599 -6.5031,4.33312 z"
          id="path7890-5" />
        <path style="fill-opacity:1;stroke-width:0.3882634;stroke-miterlimit:4;stroke-dasharray:none" d="m 557.40879,207.5749 c -2.9609,-1.2596 -8.4476,-2.45029 -10.1315,-5.80189 1.324,-6.65668 -3.8439,-10.90202 -4.9787,-15.77251 -4.6642,-10.3586 -10.0444,-22.98759 -4.1196,-34.09574 1.7466,-3.35355 7.312,-3.37877 6.7612,-8.393 5.3692,-8.9259 21.3746,-5.31942 25.0074,4.49176 6.172,11.0996 5.8645,25.85712 -0.979,36.43319 -1.6365,8.30341 -8.6214,10.61608 -9.7465,18.39711 -0.1766,0.85281 -0.087,4.81348 -1.8133,4.74108 z"
          id="path7912-7" />
        <path style="fill-opacity:1;stroke-width:0.3882634;stroke-miterlimit:4;stroke-dasharray:none" d="m 597.91275,144.20523 c -7.1168,0.24042 -11.1296,-2.38525 -9.2978,-9.53833 -1.398,-4.37159 -2.6679,-8.90296 -6.9065,-10.98139 -5.013,-7.67124 -4.291,-19.46486 0.1562,-26.932234 4.5102,-2.00088 8.5102,-3.0811 12.4249,-6.425475 6.9251,-2.33984 18.1044,-3.00561 19.3918,6.885385 3.1868,3.673584 8.8476,6.165534 7.264,12.538924 0.058,10.53383 -7.7328,18.80885 -16.4728,22.7329 -5.0096,3.40807 -0.015,11.94572 -6.5598,11.72022 z"
          id="path7902-6" />
      </g>
      <g id="g12361" style="stroke-width:0.13229166;stroke-miterlimit:4;stroke-dasharray:none" transform="translate(-56.696429,188.23214)">
        <g id="g12338" style="stroke-width:0.13229166;stroke-miterlimit:4;stroke-dasharray:none">
          <path id="path12184" d="m 679.13715,390.75529 c 0,0 6.57085,-1.71201 9.75878,3.80095" style="fill:none;stroke:#000000;stroke-width:0.13229166;stroke-linecap:butt;stroke-linejoin:miter;stroke-miterlimit:4;stroke-dasharray:none;stroke-opacity:1"
          />
          <path id="path12188" d="m 685.77351,391.53596 c 0.74835,0.56127 0.74835,1.73057 0.74835,1.73057 0.23386,9.30767 -5.56589,11.55273 -5.56589,11.55273 -2.8531,0.3274 -3.5079,-1.21607 -3.5079,-1.21607 -2.59371,-5.12133 4.58366,-11.78659 4.58366,-11.78659 0,0 0.23387,-0.93545 1.59026,-1.02899"
            style="fill:none;stroke:#000000;stroke-width:0.13229166;stroke-linecap:butt;stroke-linejoin:miter;stroke-miterlimit:4;stroke-dasharray:none;stroke-opacity:1"
          />
          <path id="path12190" d="m 682.78009,405.94179 c 0,0 -1.40316,0.18709 -1.82412,-1.12252" style="fill:none;stroke:#000000;stroke-width:0.13229166;stroke-linecap:butt;stroke-linejoin:miter;stroke-miterlimit:4;stroke-dasharray:none;stroke-opacity:1"
          />
          <path id="path12192" d="m 676.4865,403.09495 c 0,0 0.0729,0.6018 0.96157,0.50824" style="fill:none;stroke:#000000;stroke-width:0.13229166;stroke-linecap:butt;stroke-linejoin:miter;stroke-miterlimit:4;stroke-dasharray:none;stroke-opacity:1"
          />
        </g>
        <g id="g12343" style="stroke-width:0.13229166;stroke-miterlimit:4;stroke-dasharray:none">
          <path id="path12194" d="m 689.23957,409.85879 c 0,0 8.00365,4.7625 8.59896,12.50156" style="fill:none;stroke:#000000;stroke-width:0.13229166;stroke-linecap:butt;stroke-linejoin:miter;stroke-miterlimit:4;stroke-dasharray:none;stroke-opacity:1"
          />
          <path id="path12196" d="m 692.8776,412.9015 c 0,0 -2.00592,3.75113 -1.21079,12.40398 0,0 -0.70159,0.46771 -2.99343,-0.84191"
            style="fill:none;stroke:#000000;stroke-width:0.13229166;stroke-linecap:butt;stroke-linejoin:miter;stroke-miterlimit:4;stroke-dasharray:none;stroke-opacity:1"
          />
          <path id="path12198" d="m 691.66681,425.30548 c 0,0 1.07577,3.08695 3.27406,1.91765" style="fill:none;stroke:#000000;stroke-width:0.13229166;stroke-linecap:butt;stroke-linejoin:miter;stroke-miterlimit:4;stroke-dasharray:none;stroke-opacity:1"
          />
        </g>
        <g id="g12218" style="stroke-width:0.13229166;stroke-miterlimit:4;stroke-dasharray:none">
          <path id="path12200" d="m 703.03244,392.61171 c 0,0 1.1267,-0.56375 1.87089,0.0936 0,0 0.93544,0.84185 1.77734,0.28059 2.10474,-0.8419 3.55468,0.8419 3.55468,0.8419 0,0 1.49671,1.40316 4.06918,1.07576"
            style="fill:none;stroke:#000000;stroke-width:0.13229166;stroke-linecap:butt;stroke-linejoin:miter;stroke-miterlimit:4;stroke-dasharray:none;stroke-opacity:1"
          />
          <path id="path12202" d="m 704.49794,404.68811 c 0,0 -4.1315,-3.98481 2.5569,-10.48612 0,0 0.37418,-1.44995 1.02899,-0.65483 0,0 0.65481,-0.37417 0.93544,0.14032 0,0 1.18922,0.30894 1.01556,0.76251 0,0 2.16495,9.29351 -1.15587,10.88376 0,0 -2.26071,0.7667 -4.38102,-0.64564 z"
            style="fill:none;stroke:#000000;stroke-width:0.13229166;stroke-linecap:butt;stroke-linejoin:miter;stroke-miterlimit:4;stroke-dasharray:none;stroke-opacity:1"
          />
          <path id="path12204" d="m 707.05484,394.20199 0.42096,-1.30964" style="fill:none;stroke:#000000;stroke-width:0.13229166;stroke-linecap:butt;stroke-linejoin:miter;stroke-miterlimit:4;stroke-dasharray:none;stroke-opacity:1"
          />
          <path id="path12206" d="m 710.03485,394.44998 0.2005,-0.62216" style="fill:none;stroke:#000000;stroke-width:0.13229166;stroke-linecap:butt;stroke-linejoin:miter;stroke-miterlimit:4;stroke-dasharray:none;stroke-opacity:1"
          />
          <path id="path12208" d="m 703.03244,403.4161 1.4655,1.27201" style="fill:none;stroke:#000000;stroke-width:0.13229166;stroke-linecap:butt;stroke-linejoin:miter;stroke-miterlimit:4;stroke-dasharray:none;stroke-opacity:1"
          />
          <path id="path12210" d="m 708.3177,405.47406 1.27907,-0.0772" style="fill:none;stroke:#000000;stroke-width:0.13229166;stroke-linecap:butt;stroke-linejoin:miter;stroke-miterlimit:4;stroke-dasharray:none;stroke-opacity:1"
          />
        </g>
      </g>
      <path style="fill:none;stroke:#000000;stroke-width:0.1;stroke-linecap:butt;stroke-linejoin:miter;stroke-opacity:1;stroke-miterlimit:4;stroke-dasharray:none"
        d="m 632.54314,598.09093 c -0.006,0.0343 -0.0111,0.069 -0.0271,0.11545 -0.016,0.0465 -0.0421,0.10377 -0.0777,0.16445 -0.0356,0.0607 -0.08,0.12338 -0.12877,0.18139 -0.0488,0.058 -0.10107,0.11031 -0.16698,0.16964 -0.0659,0.0593 -0.14439,0.12473 -0.22736,0.18927 -0.083,0.0646 -0.16941,0.12741 -0.26687,0.19195 -0.0975,0.0645 -0.20487,0.13004 -0.28645,0.18134 -0.0816,0.0513 -0.13667,0.088 -0.21847,0.14345 -0.0818,0.0554 -0.18898,0.12861 -0.28507,0.20493 -0.0961,0.0763 -0.18,0.155 -0.25111,0.2274 -0.0711,0.0724 -0.12873,0.1379 -0.18145,0.21299 -0.0527,0.0751 -0.0998,0.15888 -0.15123,0.25768 -0.0514,0.0988 -0.10637,0.21142 -0.16695,0.34705 -0.0606,0.13562 -0.12612,0.29291 -0.19324,0.47321 -0.0671,0.1803 -0.13534,0.38233 -0.19192,0.57835 -0.0566,0.19603 -0.1012,0.38502 -0.13937,0.58369 -0.0382,0.19868 -0.0697,0.40604 -0.0947,0.61653 -0.025,0.21049 -0.0434,0.42315 -0.0513,0.67311 -0.008,0.24997 -0.005,0.53617 0.007,0.79394 0.0118,0.25776 0.0329,0.48628 0.0684,0.75989 0.0355,0.27361 0.0854,0.5914 0.13932,0.88202 0.0539,0.29062 0.11171,0.55335 0.18799,0.84926 0.0763,0.29591 0.17085,0.6243 0.25238,0.8886 0.0815,0.26429 0.14983,0.46398 0.24452,0.73097 0.0947,0.26699 0.21555,0.60062 0.36676,0.98326 0.15121,0.38264 0.33254,0.81363 0.50642,1.21719 0.17387,0.40356 0.34011,0.77927 0.42952,0.99354 0.0894,0.21427 0.10189,0.26692 0.11737,0.31574 0.0155,0.0488 0.0338,0.0934 0.0589,0.16317 0.025,0.0698 0.0565,0.16416 0.0846,0.25425 0.0281,0.0901 0.0526,0.17543 0.0868,0.24787 0.0342,0.0724 0.078,0.13144 0.17485,0.30439 0.0969,0.17294 0.24665,0.4593 0.39259,0.73541 0.14594,0.27611 0.28786,0.54155 0.39303,0.75057 0.10517,0.20903 0.17351,0.36147 0.23269,0.51401 0.0592,0.15254 0.10908,0.30489 0.14855,0.44034 0.0395,0.13544 0.0684,0.25363 0.0934,0.39045 0.025,0.13682 0.046,0.29169 0.0565,0.42715 0.0105,0.13547 0.0105,0.25098 0.008,0.36152 -0.003,0.11054 -0.008,0.21545 -0.0206,0.31984 -0.0127,0.10438 -0.0328,0.20745 -0.0276,0.28649 0.005,0.0791 0.0359,0.13333 0.0842,0.20269 0.0483,0.0693 0.1139,0.15335 0.17833,0.22568 0.0644,0.0723 0.12752,0.13278 0.1959,0.19327 0.0684,0.0605 0.14197,0.12094 0.22218,0.17835 0.0802,0.0574 0.16698,0.11175 0.25633,0.16519 0.0894,0.0534 0.18146,0.10607 0.32139,0.17504 0.13992,0.069 0.32809,0.15451 0.50223,0.2281 0.17414,0.0736 0.33461,0.13542 0.51922,0.20374 0.18461,0.0683 0.3938,0.14332 0.58895,0.21596 0.19514,0.0726 0.37666,0.14309 0.4832,0.17726 0.10653,0.0342 0.13813,0.0322 0.16956,0.0239 0.0314,-0.008 0.0633,-0.0228 0.0967,-0.0464 0.0333,-0.0236 0.0691,-0.0567 0.0986,-0.0921 0.0295,-0.0354 0.0533,-0.0738 0.0755,-0.11502 0.0222,-0.0412 0.0434,-0.0862 0.065,-0.15104 0.0216,-0.0648 0.0441,-0.15085 0.0631,-0.24138 0.019,-0.0905 0.0348,-0.18682 0.0492,-0.29114 0.0144,-0.10433 0.0276,-0.21774 0.0387,-0.32669 0.0112,-0.10894 0.0204,-0.21442 0.0315,-0.30698 0.0112,-0.0926 0.0243,-0.17301 0.0408,-0.25501 0.0164,-0.082 0.0362,-0.16644 0.0592,-0.25633 0.023,-0.0899 0.0494,-0.18616 0.0828,-0.28788 0.0335,-0.10172 0.0744,-0.20987 0.12293,-0.32732 0.0486,-0.11746 0.10525,-0.24536 0.16239,-0.35763 0.0571,-0.11228 0.11512,-0.20979 0.1827,-0.31936 0.0676,-0.10957 0.14539,-0.23221 0.16642,-0.29617 0.021,-0.064 -0.0147,-0.07 -0.009,-0.0787 0.005,-0.009 0.0513,-0.0196 0.0854,-0.0396 0.0341,-0.02 0.0566,-0.0491 0.10223,-0.10977 0.0456,-0.0606 0.11604,-0.15496 0.21443,-0.2809 0.0984,-0.12595 0.22631,-0.28552 0.35108,-0.44181 0.12477,-0.15629 0.24725,-0.31038 0.36808,-0.466 0.12082,-0.15563 0.24067,-0.31367 0.35033,-0.468 0.10966,-0.15433 0.20976,-0.30578 0.29381,-0.44238 0.084,-0.1366 0.15254,-0.25909 0.21489,-0.37725 0.0624,-0.11815 0.11904,-0.23283 0.16826,-0.34048 0.0492,-0.10765 0.0914,-0.20917 0.13012,-0.31482 0.0387,-0.10565 0.0743,-0.21642 0.10712,-0.32929 0.0328,-0.11288 0.0631,-0.22889 0.0846,-0.3146 0.0215,-0.0857 0.0343,-0.14184 0.0691,-0.21456 0.0347,-0.0727 0.0919,-0.16317 0.16029,-0.27761 0.0684,-0.11443 0.14884,-0.25424 0.17688,-0.33201 0.028,-0.0778 0.004,-0.0945 0.006,-0.0991 0.002,-0.005 0.03,0.003 0.0858,-0.076 0.0558,-0.0788 0.14048,-0.24544 0.21927,-0.41026 0.0788,-0.16481 0.15255,-0.32946 0.21822,-0.48509 0.0657,-0.15564 0.12361,-0.30314 0.18008,-0.45482 0.0565,-0.15167 0.11178,-0.30842 0.1584,-0.44961 0.0466,-0.14118 0.0848,-0.26763 0.12223,-0.39826 0.0374,-0.13063 0.0743,-0.26637 0.10584,-0.38915 0.0315,-0.12278 0.0579,-0.23347 0.09,-0.38765 0.0322,-0.15417 0.0704,-0.35323 0.10321,-0.54566 0.0328,-0.19244 0.0605,-0.3794 0.0854,-0.58494 0.0249,-0.20555 0.0473,-0.43069 0.0631,-0.67239 0.0157,-0.24169 0.025,-0.50101 0.0289,-0.68433 0.004,-0.18332 0.003,-0.29121 -7.1e-4,-0.43691 -0.003,-0.14569 -0.009,-0.33017 -0.0204,-0.5318 -0.0118,-0.20163 -0.0302,-0.42145 -0.0539,-0.63823 -0.0236,-0.21678 -0.0526,-0.43129 -0.0776,-0.59489 -0.025,-0.1636 -0.046,-0.27676 -0.0716,-0.40742 -0.0256,-0.13066 -0.0559,-0.27948 -0.094,-0.44564 -0.0381,-0.16616 -0.0842,-0.35045 -0.14001,-0.54949 -0.0558,-0.19903 -0.12163,-0.41351 -0.19128,-0.61981 -0.0696,-0.2063 -0.14331,-0.40495 -0.22018,-0.59746 -0.0769,-0.19252 -0.15712,-0.37931 -0.234,-0.54948 -0.0769,-0.17018 -0.15054,-0.32409 -0.21472,-0.45111 -0.0642,-0.12702 -0.119,-0.2274 -0.16565,-0.3253 -0.0466,-0.0979 -0.0852,-0.19355 -0.14389,-0.31417 -0.0586,-0.12061 -0.13764,-0.26673 -0.21516,-0.39681 -0.0775,-0.13008 -0.15383,-0.24454 -0.24975,-0.37134 -0.0959,-0.1268 -0.21167,-0.26621 -0.32404,-0.38844 -0.11237,-0.12223 -0.2215,-0.22742 -0.35229,-0.34046 -0.13078,-0.11305 -0.28327,-0.23398 -0.42788,-0.33849 -0.14461,-0.10452 -0.28127,-0.19256 -0.44496,-0.28657 -0.1637,-0.094 -0.35422,-0.19387 -0.50606,-0.26684 -0.15184,-0.073 -0.26484,-0.11896 -0.41941,-0.17487 -0.15457,-0.0559 -0.35019,-0.12155 -0.51849,-0.17086 -0.16831,-0.0493 -0.30885,-0.0822 -0.45749,-0.11045 -0.14864,-0.0283 -0.30486,-0.0519 -0.44361,-0.069 -0.13876,-0.0171 -0.25953,-0.0276 -0.34963,-0.0336 -0.0901,-0.006 -0.14914,-0.007 -0.22888,-0.007 -0.0797,0 -0.17921,0.001 -0.29506,0.007 -0.11585,0.006 -0.24696,0.0164 -0.34891,0.0276 -0.10196,0.0112 -0.17408,0.023 -0.26039,0.0381 -0.0863,0.0152 -0.18581,0.0335 -0.30299,0.0638 -0.11719,0.0303 -0.25089,0.0722 -0.37985,0.11827 -0.12897,0.046 -0.25223,0.0959 -0.37268,0.15247 -0.12044,0.0566 -0.23713,0.11953 -0.33846,0.1807 -0.10132,0.0612 -0.18657,0.1202 -0.27019,0.18274 -0.0836,0.0625 -0.16484,0.12804 -0.24319,0.19848 -0.0784,0.0704 -0.15304,0.14512 -0.21755,0.21422 -0.0645,0.0691 -0.11824,0.13201 -0.18633,0.22338 -0.0681,0.0914 -0.14956,0.20993 -0.1878,0.3067 -0.0382,0.0968 -0.0326,0.17066 -0.0318,0.2374 8.4e-4,0.0667 -0.003,0.12569 -0.009,0.18565 -0.006,0.06 -0.0138,0.12009 -0.0268,0.17099 -0.013,0.0509 -0.031,0.0919 -0.0492,0.13341"
        id="path10835" />
      <path style="fill:none;stroke:#000000;stroke-width:0.1;stroke-linecap:butt;stroke-linejoin:miter;stroke-opacity:1;stroke-miterlimit:4;stroke-dasharray:none"
        d="m 619.75659,591.37784 c -0.0335,0.0508 -0.10064,0.15258 -0.16588,0.26149 -0.0652,0.10891 -0.12815,0.22425 -0.18214,0.3414 -0.054,0.11715 -0.0986,0.23514 -0.1328,0.35494 -0.0342,0.11981 -0.0578,0.24042 -0.0737,0.35494 -0.0158,0.11453 -0.0237,0.22202 -0.0171,0.35634 0.007,0.13432 0.0276,0.29428 0.0539,0.42716 0.0263,0.13287 0.0578,0.23789 0.0999,0.34711 0.0421,0.10922 0.0946,0.2221 0.15513,0.33129 0.0605,0.10919 0.1288,0.21424 0.1893,0.30236 0.0605,0.0881 0.11303,0.15904 0.19194,0.25374 0.0789,0.0947 0.18402,0.21293 0.31287,0.34047 0.12885,0.12754 0.28132,0.26423 0.43513,0.39043 0.15381,0.1262 0.30894,0.24189 0.47719,0.35756 0.16826,0.11568 0.34971,0.23139 0.56527,0.35494 0.21555,0.12355 0.46541,0.25505 0.75102,0.39045 0.2856,0.1354 0.60727,0.27485 0.80978,0.34054 0.20251,0.0657 0.28588,0.0578 0.36293,0.0433 0.077,-0.0145 0.14828,-0.0356 0.23875,-0.0723 0.0905,-0.0367 0.20138,-0.0895 0.32213,-0.1578 0.12075,-0.0683 0.25257,-0.15262 0.41009,-0.2734 0.15752,-0.12078 0.34199,-0.2789 0.51305,-0.44201 0.17105,-0.16311 0.32965,-0.33207 0.4176,-0.47658 0.088,-0.14452 0.10578,-0.26522 0.13176,-0.38711 0.026,-0.1219 0.0602,-0.24575 0.0957,-0.33771 0.0355,-0.0919 0.0724,-0.15256 0.11044,-0.20895 0.038,-0.0564 0.0777,-0.1092 0.13269,-0.15897 0.055,-0.0498 0.12646,-0.0974 0.14935,-0.13637 0.0229,-0.039 -0.002,-0.0702 0.003,-0.0715 0.005,-0.001 0.0408,0.0271 0.0916,0.0281 0.0507,9.8e-4 0.11654,-0.0254 0.18473,-0.0463 0.0682,-0.021 0.13952,-0.0368 0.25485,-0.0565 0.11533,-0.0196 0.2764,-0.0434 0.44319,-0.071 0.16679,-0.0276 0.34064,-0.0592 0.49303,-0.096 0.15238,-0.0368 0.28405,-0.0789 0.40212,-0.12305 0.11807,-0.0441 0.22327,-0.0905 0.33481,-0.15481 0.11154,-0.0643 0.23045,-0.14715 0.38149,-0.26713 0.15105,-0.11998 0.33556,-0.27813 0.484,-0.4187 0.14844,-0.14058 0.26167,-0.26434 0.38114,-0.40614 0.11948,-0.14181 0.24595,-0.30254 0.3589,-0.45884 0.11295,-0.15631 0.21303,-0.30906 0.31544,-0.49027 0.10241,-0.1812 0.20778,-0.39195 0.29973,-0.58637 0.0919,-0.19442 0.17095,-0.37347 0.24711,-0.57572 0.0762,-0.20225 0.14991,-0.42874 0.20771,-0.61268 0.0578,-0.18394 0.0999,-0.32611 0.15506,-0.54269 0.0551,-0.21657 0.12363,-0.50904 0.18275,-0.79809 0.0591,-0.28905 0.10913,-0.57593 0.1538,-0.8676 0.0447,-0.29168 0.0841,-0.58907 0.12618,-0.91884 0.042,-0.32978 0.0868,-0.69296 0.12883,-1.04381 0.0421,-0.35085 0.0815,-0.69027 0.11963,-0.99119 0.0381,-0.30093 0.075,-0.56407 0.11568,-0.80846 0.0407,-0.24438 0.0855,-0.47075 0.12343,-0.65247 0.0379,-0.18171 0.0692,-0.31943 0.11519,-0.4796 0.046,-0.16018 0.10689,-0.34382 0.15956,-0.55616 0.0527,-0.21233 0.0974,-0.45463 0.12897,-0.70553 0.0315,-0.2509 0.0499,-0.51152 0.0539,-0.79791 0.004,-0.28639 -0.007,-0.59959 -0.025,-0.83612 -0.0184,-0.23654 -0.0447,-0.39705 -0.0815,-0.58882 -0.0368,-0.19177 -0.0842,-0.41554 -0.13542,-0.62051 -0.0513,-0.20498 -0.10651,-0.39181 -0.17089,-0.58232 -0.0644,-0.19051 -0.13806,-0.38524 -0.22872,-0.59021 -0.0907,-0.20497 -0.19854,-0.42072 -0.31813,-0.63361 -0.11959,-0.21289 -0.25111,-0.42332 -0.39436,-0.62045 -0.14325,-0.19713 -0.29842,-0.38123 -0.46928,-0.55472 -0.17086,-0.17348 -0.35756,-0.33652 -0.54026,-0.47454 -0.1827,-0.13801 -0.36147,-0.25106 -0.54287,-0.34571 -0.18141,-0.0947 -0.36539,-0.17088 -0.5442,-0.22874 -0.1788,-0.0579 -0.3522,-0.0973 -0.51265,-0.12489 -0.16045,-0.0276 -0.3075,-0.0434 -0.43771,-0.0499 -0.1302,-0.007 -0.24309,-0.004 -0.34439,6e-5 -0.1013,0.004 -0.19053,0.009 -0.27739,0.0184 -0.0869,0.009 -0.17077,0.0223 -0.2933,0.0473 -0.12254,0.025 -0.28235,0.0617 -0.42914,0.1025 -0.14679,0.0408 -0.27948,0.0854 -0.36767,0.13932 -0.0882,0.0539 -0.13126,0.11677 -0.19642,0.1906 -0.0652,0.0738 -0.1515,0.15754 -0.27003,0.26291 -0.11854,0.10538 -0.26793,0.23118 -0.42846,0.35093 -0.16053,0.11975 -0.3311,0.23259 -0.5535,0.36946 -0.2224,0.13687 -0.49534,0.29695 -0.7584,0.45478 -0.26305,0.15784 -0.51517,0.31278 -0.72033,0.44561 -0.20517,0.13282 -0.36272,0.24311 -0.49165,0.34439 -0.12892,0.10127 -0.22866,0.19314 -0.30763,0.26945 -0.079,0.0763 -0.13664,0.13663 -0.19199,0.21172 -0.0554,0.0751 -0.10773,0.16412 -0.14328,0.23255 -0.0355,0.0684 -0.0539,0.1156 -0.071,0.1697 -0.0172,0.0541 -0.0328,0.11418 -0.0408,0.18541 -0.008,0.0712 -0.008,0.15228 -0.001,0.22605 0.007,0.0738 0.0197,0.13926 0.0407,0.20779 0.0211,0.0685 0.0499,0.13922 0.0731,0.19028 0.0232,0.0511 0.0405,0.082 0.0326,0.14379 -0.008,0.0618 -0.0409,0.1541 -0.12741,0.36001 -0.0865,0.20591 -0.22535,0.52294 -0.39632,0.85834 -0.17097,0.33539 -0.37321,0.68734 -0.58889,1.04375 -0.21568,0.3564 -0.44421,0.71627 -0.69935,1.10687 -0.25514,0.39061 -0.53622,0.81091 -0.82948,1.25014 -0.29326,0.43923 -0.59801,0.89636 -0.8861,1.36507 -0.28809,0.46872 -0.55891,0.94805 -0.71147,1.27412 -0.15256,0.32606 -0.18651,0.49833 -0.20617,0.66223 -0.0196,0.16389 -0.0249,0.31873 -0.021,0.51087 0.004,0.19214 0.017,0.42048 0.0433,0.63226 0.0263,0.21177 0.0657,0.40609 0.11171,0.59814 0.046,0.19204 0.0986,0.38114 0.16433,0.57186 0.0658,0.19072 0.14456,0.38246 0.22872,0.56132 0.0842,0.17885 0.1735,0.34438 0.26161,0.49035 0.0881,0.14598 0.17481,0.2721 0.27345,0.39309 0.0986,0.12099 0.209,0.23662 0.29711,0.31945 0.0881,0.0828 0.15379,0.13277 0.22682,0.17914 0.073,0.0464 0.1534,0.0892 0.1935,0.11056 0.0401,0.0214 0.0403,0.0213 0.007,0.072 z"
        id="path11390" />
      <path style="fill:none;stroke:#000000;stroke-width:0.1;stroke-linecap:butt;stroke-linejoin:miter;stroke-opacity:1;stroke-miterlimit:4;stroke-dasharray:none"
        d="m 646.36731,591.69205 c 0.0313,0.0438 0.0939,0.13146 0.16203,0.24497 0.0681,0.11352 0.1417,0.25279 0.21534,0.40137 0.0736,0.14859 0.14721,0.30624 0.21427,0.46929 0.0671,0.16305 0.12749,0.33119 0.18667,0.49821 0.0592,0.16703 0.11698,0.33251 0.17538,0.51011 0.0584,0.17761 0.11727,0.36686 0.14099,0.48772 0.0237,0.12087 0.0121,0.17333 -0.007,0.27229 -0.019,0.099 -0.0452,0.24271 -0.0636,0.37825 -0.0184,0.13554 -0.029,0.26148 -0.0342,0.37072 -0.005,0.10924 -0.005,0.20101 -10e-6,0.29317 0.005,0.0921 0.0158,0.18393 0.0303,0.26949 0.0145,0.0856 0.0328,0.16425 0.0565,0.24193 0.0237,0.0777 0.0526,0.15372 0.0828,0.22479 0.0303,0.0711 0.0618,0.13667 0.0973,0.19721 0.0355,0.0605 0.0749,0.11566 0.12754,0.18013 0.0526,0.0645 0.11829,0.13802 0.1893,0.20508 0.071,0.0671 0.14725,0.12753 0.24059,0.18537 0.0933,0.0578 0.20382,0.11308 0.32735,0.16696 0.12353,0.0539 0.26036,0.1065 0.38651,0.14724 0.12616,0.0407 0.24197,0.0697 0.38252,0.0947 0.14054,0.025 0.30644,0.046 0.48641,0.0618 0.17997,0.0158 0.37479,0.0263 0.53904,0.0303 0.16425,0.004 0.29851,0.001 0.40884,-0.003 0.11032,-0.004 0.19728,-0.009 0.27604,-0.0184 0.0788,-0.009 0.15001,-0.0224 0.21953,-0.0434 0.0695,-0.021 0.13817,-0.0501 0.19852,-0.0829 0.0603,-0.0328 0.11318,-0.0698 0.16296,-0.11701 0.0498,-0.0472 0.0974,-0.10536 0.1406,-0.17877 0.0432,-0.0734 0.0829,-0.16323 0.1104,-0.24065 0.0275,-0.0774 0.0434,-0.14344 0.0683,-0.26919 0.0249,-0.12575 0.0592,-0.31329 0.0842,-0.52343 0.0249,-0.21013 0.0407,-0.4445 0.0591,-0.65078 0.0184,-0.20628 0.0394,-0.38527 0.0644,-0.52848 0.025,-0.14321 0.054,-0.25118 0.0907,-0.35882 0.0368,-0.10763 0.0816,-0.21577 0.12888,-0.31159 0.0473,-0.0958 0.0974,-0.18021 0.14989,-0.25369 0.0525,-0.0735 0.10792,-0.13682 0.17951,-0.20307 0.0716,-0.0662 0.16479,-0.13987 0.26191,-0.20022 0.0971,-0.0603 0.20146,-0.10992 0.34781,-0.18574 0.14636,-0.0758 0.33623,-0.17867 0.5175,-0.27981 0.18126,-0.10114 0.35507,-0.20121 0.49955,-0.29186 0.14449,-0.0906 0.26039,-0.1723 0.4087,-0.27861 0.14831,-0.10631 0.33019,-0.23811 0.50094,-0.37209 0.17075,-0.13399 0.33139,-0.27092 0.5113,-0.4364 0.17991,-0.16547 0.38008,-0.36036 0.56399,-0.55086 0.18392,-0.1905 0.35241,-0.37741 0.53759,-0.61514 0.18519,-0.23774 0.38793,-0.52737 0.55348,-0.79016 0.16555,-0.2628 0.29451,-0.49967 0.41535,-0.75057 0.12085,-0.25091 0.23405,-0.51681 0.32862,-0.78743 0.0946,-0.27062 0.17092,-0.54702 0.22741,-0.78615 0.0565,-0.23912 0.0933,-0.4418 0.1196,-0.63621 0.0263,-0.1944 0.0421,-0.38135 0.0526,-0.54589 0.0106,-0.16454 0.016,-0.30738 0.0278,-0.42955 0.0118,-0.12217 0.0301,-0.22424 0.0445,-0.3289 0.0144,-0.10467 0.0249,-0.2128 0.0301,-0.306 0.005,-0.0932 0.005,-0.17231 0.003,-0.2458 -0.003,-0.0735 -0.008,-0.14208 -0.0158,-0.20245 -0.008,-0.0604 -0.0184,-0.11312 -0.0368,-0.18786 -0.0184,-0.0747 -0.0447,-0.17235 -0.0986,-0.30756 -0.0538,-0.13522 -0.13549,-0.30906 -0.23534,-0.47066 -0.0998,-0.1616 -0.21824,-0.31156 -0.32166,-0.42934 -0.10342,-0.11777 -0.19196,-0.20349 -0.26427,-0.27975 -0.0723,-0.0763 -0.12837,-0.14302 -0.32326,-0.32619 -0.1949,-0.18316 -0.52892,-0.48299 -0.76259,-0.70375 -0.23366,-0.22075 -0.36707,-0.36251 -0.44332,-0.49012 -0.0762,-0.12762 -0.0953,-0.24088 -0.11667,-0.34342 -0.0213,-0.10254 -0.0451,-0.19474 -0.0844,-0.31418 -0.0394,-0.11945 -0.0947,-0.26699 -0.15383,-0.39968 -0.0591,-0.1327 -0.12228,-0.25111 -0.2011,-0.37066 -0.0788,-0.11954 -0.17356,-0.24058 -0.27344,-0.35228 -0.0999,-0.1117 -0.20506,-0.21427 -0.32072,-0.30759 -0.11565,-0.0933 -0.24184,-0.17745 -0.3812,-0.25502 -0.13935,-0.0776 -0.29177,-0.14851 -0.42981,-0.20374 -0.13805,-0.0552 -0.26152,-0.0946 -0.40359,-0.13146 -0.14207,-0.0368 -0.30222,-0.071 -0.46268,-0.0973 -0.16046,-0.0263 -0.32065,-0.0447 -0.49034,-0.0578 -0.16968,-0.0132 -0.34822,-0.0211 -0.52448,-0.0197 -0.17626,0.001 -0.34953,0.0118 -0.52583,0.0263 -0.17629,0.0145 -0.35477,0.0329 -0.50605,0.0513 -0.15127,0.0184 -0.27463,0.0368 -0.43524,0.067 -0.16062,0.0303 -0.35732,0.0722 -0.58949,0.13228 -0.23216,0.06 -0.49846,0.13782 -0.65626,0.19825 -0.15781,0.0604 -0.20652,0.10341 -0.29831,0.17648 -0.0918,0.0731 -0.22511,0.17502 -0.40149,0.29613 -0.17639,0.1211 -0.39413,0.26014 -0.65067,0.40224 -0.25654,0.14209 -0.55058,0.28649 -0.85046,0.42328 -0.29989,0.1368 -0.60453,0.26549 -0.96257,0.41571 -0.35804,0.15023 -0.76826,0.32149 -1.01024,0.47394 -0.24198,0.15245 -0.31502,0.28588 -0.3898,0.43303 -0.0748,0.14715 -0.15083,0.30713 -0.22058,0.46899 -0.0697,0.16186 -0.13272,0.32453 -0.19589,0.49823 -0.0632,0.17371 -0.12614,0.35738 -0.17483,0.51524 -0.0487,0.15787 -0.0828,0.28909 -0.11308,0.41148 -0.0303,0.1224 -0.0565,0.23517 -0.0881,0.3866 -0.0316,0.15144 -0.0683,0.34024 -0.096,0.51916 -0.0276,0.17892 -0.046,0.3469 -0.0631,0.52453 -0.0171,0.17763 -0.0328,0.36398 -0.0434,0.59029 -0.0105,0.22631 -0.0158,0.49145 -0.0105,0.73477 0.005,0.24332 0.021,0.46394 0.0434,0.67965 0.0224,0.21571 0.0513,0.42581 0.0828,0.61784 0.0316,0.19203 0.0657,0.36536 0.11964,0.58112 0.0539,0.21576 0.12746,0.4731 0.19584,0.68481 0.0684,0.21172 0.13143,0.37724 0.19061,0.52059 0.0592,0.14335 0.11435,0.26419 0.18537,0.40099 0.071,0.13681 0.15771,0.28915 0.21958,0.39652 0.0619,0.10737 0.0988,0.16955 0.15677,0.2209 0.058,0.0513 0.13659,0.0916 0.2219,0.14332 0.0853,0.0517 0.17741,0.11483 0.26806,0.18446 0.0906,0.0696 0.18011,0.14594 0.2642,0.22608 0.0841,0.0802 0.16302,0.16434 0.23161,0.24407 0.0686,0.0797 0.12691,0.15506 0.15608,0.19275 0.0292,0.0377 0.0292,0.0377 0.0605,0.0815 z"
        id="path11394" />
    </g>
  </g>
</svg>