<svg xmlns="http://www.w3.org/2000/svg" viewBox="0 0 34 43" id="svg5506"><g id="layer1" transform="translate(0 -254)"><g transform="translate(-720.41219 -132.41637)" id="F12-14" stroke-width=".13229166"><g id="flowerDevelopmentPart12" transform="matrix(.18744 0 0 .18744 712.74513 340.2234)" fill="none" stroke="#000" stroke-width=".70578229"><path d="M67.116667 461.31586c-4.68795-5.91976.95147-15.87527.0651-23.43494-1.14287-11.49041 2.81843-27.02933-6.35984-35.65341-5.28107-3.56666-8.72602-11.17513-12.26446-15.19367-1.55546-12.79854-4.72882-28.012 3.00037-39.10063-2.90406-4.30751 3.59762-10.3232 5.0571-15.01233 4.88367-8.97431 18.36857-7.80769 24.27885-.47995 11.91567 5.93979 19.923383 19.43984 22.084453 32.45255 2.00214 6.84323 2.12125 13.71181-.22873 20.74745-1.22011 9.75338-10.207253 20.70337-19.448433 20.67147-.83419 17.39727-1.6913 35.41775-2.752 53.22011-2.69504 3.07258-9.20401.73763-13.43238 1.78335z" id="path7996-4"/><path d="M123.23233 394.3058c-7.17581-2.94199-2.07797-15.72462-4.27378-21.31637.16943-14.23005-1.5954-30.1778-6.23978-43.07756-13.48094-.93424-15.67399-16.81765-17.46393-27.33301-1.88261-10.30645 2.14357-21.07139 5.38359-30.34737 6.54736-8.73787 14.5015-22.75284 27.75471-20.23992 16.94732 8.75309 25.28582 27.36019 27.70633 45.56594 4.37912 10.39334-.13077 23.593-10.34057 28.19412-3.32233 1.71572-7.09406 2.23318-7.91667 6.82335-8.74745 16.90773-3.81175 36.8208-3.93986 55.11912-3.56675 2.1824-6.3545 5.81363-10.67004 6.6117z" id="path8020-5"/><path d="M180.76812 473.51946c-11.41491 2.95404-7.55155-8.39046-7.45872-15.32094-.16723-14.54151-.39325-30.27017-2.13092-44.05755-3.21138-3.49131-4.65769-7.5336-9.93487-9.54677-9.07121-9.42516-12.87946-21.51838-9.24861-34.89305 1.64633-6.55467 4.04138-12.4283 3.8995-19.68195 2.19016-14.0163 16.76259-23.47897 30.34453-18.63272 6.79804 4.97515 12.79088 11.71758 19.93918 15.79644 1.2766 7.18246 8.5538 12.36194 8.3605 20.34172 3.7184 12.58294 1.3045 28.4679-8.1671 36.80486-4.36426 7.20019-17.72349 8.17431-15.44489 19.46168 1.34342 11.67998-.095 24.23092-4.50765 35.43603-2.00996 3.63669-.59211 13.56664-5.65095 14.29225z" id="path8008-2"/></g><g id="g12376"><g id="g12332"><g id="g12318"><path d="M722.40912 405.43993s4.61745-5.29789 9.7156 3.86945" id="path12220" fill="none" stroke="#000"/><path d="M726.6524 403.97736s.54483 1.46207.60804 5.47235l.0632 4.01027s.12387 1.60239-.76481 2.53783c0 0-1.22506.68798-2.41325-.38098" id="path12222" fill="none" stroke="#000"/><path d="M726.55884 415.99781s.88768.67585 1.80023.3847" id="path12224" fill="none" stroke="#000"/></g><g id="g12313"><path d="M731.18929 392.28432s4.06918-2.57247 9.21411-1.21608" id="path12226" fill="none" stroke="#000"/><path d="M733.63314 391.34264s-3.81138 6.93311.23998 10.71935c2.41434 1.30734 5.03359-.23614 5.03359-.23614s4.30302-5.23848-.28065-11.13179" id="path12228" fill="none" stroke="#000"/></g><g id="g12309"><path d="M741.47917 408.28039s1.67632-5.77511 9.91195-2.98111" id="path12230" fill="none" stroke="#000"/><path d="M745.50158 416.55907s-5.0514-1.40317-2.89989-10.10277" id="path12232" fill="none" stroke="#000"/><path d="M745.63194 404.80064s4.92104-.30879 4.50009 6.28608c0 0-.0468 5.0514-2.15154 5.51912" id="path12234" fill="none" stroke="#000"/><path d="M743.91133 416.69938l1.59025-.14031s1.35639.65482 2.47891.0468c0 0 1.12253.7951 1.6838.7951" id="path12236" fill="none" stroke="#000"/></g></g></g></g><path d="M10.847078 259.69547c.06998-.17248.209805-.51712.527248-1.02069.317442-.50358.813322-1.16734 1.187196-1.62504.373874-.4577.626384-.71021.89967-.95195.273286-.24174.568058-.47335.862385-.65202.294328-.17867.589084-.30499.934752-.36376.345668-.0588.743476-.0502 1.132366.0759.388891.12615.76998.37018 1.107585.61828.337605.24811.632119.50054.926551.79497.294432.29443.588914.63099.849966.98476.261053.35378.488705.72483.300374.84678-.188331.12195-.768655-.00022-1.376836-.0701-.608181-.0699-1.231734-.0848-1.838179-.0503-.606445.0346-1.195124.11867-1.715499.23426s-.97177.26256-1.605173.49312c-.633404.23057-1.447448.54424-1.854916.70125-.407468.15701-.407468.15693-.33749-.0156z" id="path6689" fill="none" stroke="#000" stroke-width="0"/><path d="M10.777633 259.86797c.139936-.35456.279751-.7088.513109-1.11842.233357-.40961.560785-.87547.976561-1.39984.415777-.52437.92084-1.10847 1.393952-1.51911.473113-.41064.914973-.64857 1.365813-.77382.45084-.12525.911588-.13812 1.374012.0131.462424.15126.927624.46698 1.286216.76522s.61099.57932.863356.87118c.252366.29185.504722.5945.744724.91492.240002.32041.467623.65855.648039.95769.180417.29914.313576.55921.432242.80085.118665.24164.222732.46464.349186.79192.126455.32729.275103.75837.416421 1.27156s.275121 1.10787.349044 1.47781c.07392.36994.08788.51486.132549.70099.04466.18614.119807.41261.164894.57809.04509.16548.05995.26951.07484.39608.01489.12657.02973.27498.02974.45359.00001.17861-.01484.38649-.02972.57251-.01488.18602-.02973.34939-.08927.58016-.05954.23077-.163464.5277-.28992.79554-.126456.26784-.27502.50554-.423817.70892s-.297331.37172-.461053.52306c-.163721.15135-.341894.28498-.580089.42642-.238195.14145-.535153.28992-.799171.41672-.264018.1268-.494118.23144-.724781.33633" id="path6742" fill="none" stroke="#000" stroke-width=".065"/><path d="M10.777633 259.86797c-.102372.36864-.204832.7376-.300724 1.10815-.09589.37054-.18505.74203-.244572 1.05447-.05952.31244-.08924.56506-.111563.78827-.02232.2232-.03718.41632-.03719.60983-.00001.1935.01484.38656.03716.60237.02232.21581.05203.45347.118998.84042.06697.38696.170977.92185.267661 1.34579.09668.42395.185884.73615.290023 1.01883.104139.28268.223052.53537.342063.75852.11901.22315.237938.41641.38672.60239.148782.18598.327183.36438.46851.48338.141328.119.245444.1785.394108.25283.148664.0743.342163.16363.528288.21816.186125.0545.365135.0744.543799.0942" id="path6746" fill="none" stroke="#000" stroke-width=".065"/><path d="M18.494512 269.40948c-.08179.1329-.163761.26612-.222115.4067-.05835.14058-.0761.21642-.143133.38777-.06704.17134-.174418.40088-.280402.67235-.105984.27146-.209947.58335-.291801.89584-.08185.31249-.141282.62449-.193361.91464-.05208.29014-.09665.55759-.126426.84035-.02977.28276-.04463.57987-.04463.98912-.000004.40925.01486.9293.02973 1.4202.01488.49091.02974.95173.04462 1.28642.01487.3347.02974.5428.05206.83304.02233.29023.05203.6616.07203 1.07878.02.41718.03024.87912.04048 1.34163" id="path6754" fill="none" stroke="#000" stroke-width=".065"/><path d="M17.431568 280.47632c-.20328.14235-.406863.28492-.598025.42323-.191162.1383-.369365.27195-.49584.36867-.126475.0967-.200724.15611-.343424.22465-.142699.0686-.352134.14544-.562701.22274" id="path6758" fill="none" stroke="#000" stroke-width=".065"/><path d="M15.431578 281.71561c-.151619-.12178-.303267-.24358-.416323-.37893-.113055-.13534-.187405-.28404-.239438-.46249-.05203-.17846-.0818-.38683-.08922-.65438-.0074-.26756.0075-.5951.02233-.92216.01487-.32706.02975-.65453.03718-.86269.0074-.20816.0074-.29749-.01304-.39663-.02047-.0991-.06161-.20892-.08389-.39471-.02228-.1858-.02589-.44849-.02769-.78766-.0018-.33918-.0018-.75603-.03154-1.2169-.02974-.46087-.08927-.96686-.141312-1.39312-.05204-.42626-.09668-.77345-.163583-1.19962-.0669-.42618-.156194-.93217-.267716-1.43028-.111522-.49811-.245431-.98911-.341879-1.31625-.09645-.32713-.15553-.49075-.214539-.65416" id="path6762" fill="none" stroke="#000" stroke-width=".065"/><path d="M21.06698 275.86402c.106682-.29836.213251-.59641.296221-.89399.08297-.29758.142525-.59535.170322-.85558.0278-.26022.02404-.47916.05378-.72443.02975-.24527.09311-.51538.184213-.76912.09111-.25375.210225-.49198.299447-.65552.08922-.16354.148784-.25288.237824-.37902.08904-.12613.208423-.29029.349591-.44629.141169-.156.305068-.305.498234-.46101.193166-.156.416627-.31988.624729-.4462.208101-.12633.401694-.21567.646841-.29738.245147-.0817.543089-.15618.884932-.19333.341842-.0371.728932-.0371 1.057649-.00097.328716.0362.599933.10856.847658.2349.247725.12635.472601.30696.711357.50873.238756.20177.491625.42489.796504.68515.304879.26026.661842.55774.996468.82544.334626.2677.646972.50568.852649.64865.205678.14297.304678.19095.403528.23886" id="path6766" fill="none" stroke="#000" stroke-width=".065"/><path d="M30.978935 272.88291c.01997.13029.03997.26079.124452.46762.08448.20684.232959.48895.38915.76414.156191.2752.319735.54282.438722.74361.118988.20079.193333.3346.27516.51313.08183.17852.171001.40146.228859.62963.05786.22818.08428.46126.121476.69192.0372.23065.08507.45824.131367.69868.04629.24043.09087.49304.120637.76829.02976.27525.04463.57245.0372.87001-.0074.29756-.03715.59476-.08178.90723s-.104066.63935-.178441.92947c-.07437.29013-.163527.54273-.275137.81309-.111611.27037-.245298.55754-.401519.82043-.156222.26289-.334495.50059-.487234.67891-.15274.17831-.279487.29665-.383713.41573-.104226.11908-.185365.2383-.322897.37263-.137532.13434-.33038.28268-.516418.41911-.186038.13644-.364236.26019-.520865.35786-.156629.0977-.290965.16879-.425853.2402" id="path6770" fill="none" stroke="#000" stroke-width=".065"/><path d="M29.2521 284.9846c-.220584.18734-.441455.37492-.610468.55064-.169013.17571-.285793.3392-.373599.50891-.08781.1697-.146162.34477-.165956.54566-.0198.20089-.000863.42639.02254.76573.0234.33933.05118.79115.06509 1.15182.01391.36068.01391.62948-.0036.95121-.01754.32173-.05259.69554-.08767 1.01134-.03509.31581-.07014.57286-.122784.86147-.05265.28861-.122723.60785-.204608.93151-.08188.32366-.175338.65075-.259927.92174-.08459.27099-.160098.48515-.21859.64698-.05849.16183-.09978.27082-.143935.43094-.04415.16012-.09079.36998-.131758.62355-.04097.25357-.076.54936-.146142.8028-.07015.25344-.175282.46371-.290233.6024-.114951.1387-.239399.20526-.391647.25213-.152247.0469-.331178.0737-.479462.0813-.148283.008-.265022-.004-.387977-.0392-.122954-.0351-.251335-.0935-.350845-.20472-.09951-.11125-.169604-.2748-.210506-.44434-.0409-.16954-.0526-.34508-.04675-.54956.0059-.20448.02927-.43867.0468-.69574.01752-.25707.02923-.53805.03507-.83801.0058-.29996.0058-.61988.0058-1.00751 0-.38763 0-.84404-.0058-1.2454-.0058-.40135-.01755-.74844-.02924-1.12053-.01169-.37208-.02339-.76994-.04092-1.20827-.01754-.43833-.04094-.91806-.07016-1.37397-.02923-.45591-.06432-.88878-.104654-1.29545-.04033-.40668-.08595-.78782-.144371-1.00985-.05842-.22203-.129803-.28547-.212279-.38738-.08248-.10191-.176002-.2422-.29354-.40219-.117537-.16-.259209-.33987-.400788-.51962" id="path6782" fill="none" stroke="#000" stroke-width=".065"/><path d="M23.499142 284.28301c-.162392-.13981-.324803-.27963-.481884-.3861-.157082-.10648-.30891-.17963-.5137-.37272-.20479-.19309-.462022-.50557-.678432-.79641-.216411-.29083-.391825-.5598-.532134-.82874-.140309-.26895-.245573-.53795-.339093-.81268-.09352-.27473-.175414-.55551-.239702-.85361-.06429-.2981-.11109-.61401-.128613-.95885-.01752-.34484-.0058-.71928.03511-1.07386.04093-.35458.111139-.69003.187482-1.01676.07634-.32673.157533-.6399.202189-.86794.04466-.22804.05014-.33027.05663-.45132" id="path6786" fill="none" stroke="#000" stroke-width=".065"/><path d="M25.532608 272.36811c-.210457.007-.421499.0132-.633089.0199" id="path6790" fill="none" stroke="#000" stroke-width=".169"/><path d="M1.99693 273.02356c-.040058-.0888-.080082-.17745-.1041991-.27964-.024117-.10219-.032397-.2181-.00346-.35853.028942-.14042.095226-.30613.1819539-.49609.086728-.18996.1944229-.40535.3183571-.62842.1239343-.22307.2647053-.45492.3599504-.63145.095245-.17653.1453684-.2984.2238156-.43462.078447-.13622.1857714-.28777.325975-.42931.1402037-.14155.3141807-.2741.4340311-.35672.1198505-.0826.1860996-.11574.293236-.16106.1071364-.0453.2566672-.10347.417699-.14474.1610317-.0413.3350434-.0661.4919935-.0744.1569502-.008.2977512.00004.4753062.0248.177555.0248.392906.0662.5788449.11578.1859388.0496.3431721.10752.4795083.16949.1363361.062.252209.12819.3761549.21496.1239459.0868.2563371.19433.3659485.29209.1096113.0978.1966165.18587.271092.24378.074476.0579.1363314.0856.2332487.14066.096917.0551.2294502.13793.3782238.23711.1487735.0992.3142277.215.4919452.35828.1777176.14328.3679472.31421.5456936.49057.1777464.17637.3431264.35829.5415625.59944.198436.24116.4299289.54155.5994249.79096.169496.24941.276969.44782.409296.72074.132328.27292.289349.62002.429932.99628.140582.37625.264562.78125.348059 1.07875.0835.2975.129901.50259.165159.7165.03526.21391.06102.44383.08684.67421" id="path6794" fill="none" stroke="#000" stroke-width=".065"/><path d="M11.71253 276.89301c.04023.0492.08055.0984.118225.28379.03768.18536.07274.50673.07567.84594.0029.3392-.02628.69558-.084 1.04339-.05773.34781-.143861.68628-.19358.89389-.04972.20761-.06289.28386-.09295.41595-.03006.13209-.07665.31844-.138071.50275-.06142.18432-.137301.36526-.23971.57302s-.230806.44121-.385828.66938c-.155021.22818-.336019.45005-.491021.62554-.155001.17549-.2834596.30395-.4327001.42688-.1492406.12292-.3184417.23961-.470562.33324-.1521204.0936-.286358.16366-.4122012.21928-.1258433.0556-.2424888.0964-.3566512.12866-.1141625.0322-.2249366.0556-.3349687.0727-.1100321.0171-.2183763.0279-.327319.0387" id="path6798" fill="none" stroke="#000" stroke-width=".065"/><path d="M3.7333898 283.20046c-.1355356-.10635-.2711088-.21273-.4354137-.37413-.1643049-.1614-.3571881-.37766-.5384389-.61154-.1812508-.23387-.350813-.48529-.5086517-.72205-.1578387-.23676-.3040366-.45898-.4354533-.64319-.1314167-.18422-.258855-.34399-.3377802-.56817-.078925-.22418-.114727-.51945-.1618336-.90365-.047107-.3842-.1056175-.85814-.1465339-1.22447-.040917-.36632-.064314-.62564-.075996-.91491-.011682-.28927-.011682-.60917-.011682-.81569 0-.20653 0-.30018.00876-.46064.00876-.16047.026345-.38913.067253-.65205.040908-.26292.1052991-.56146.1929673-.85657.087668-.2951.1988672-.58773.307753-.82104.1088858-.2333.2266124-.42575.3385943-.6088" id="path6802" fill="none" stroke="#000" stroke-width=".065"/><path d="M4.0107134 283.47767c.1168881.18118.2338171.36242.3478385.58168.1140215.21926.225065.47641.3098642.78632.084799.30991.1432359.67222.1841775 1.02505.040942.35283.064313.69561.067244 1.08649.00293.39089-.014596.82907-.026294 1.18677-.011698.3577-.01754.63426-.011696.89554.00584.26128.023366.50659.037982.67911.014616.17251.026301.27183.026311.40159.0000101.12975-.011656.28919-.029209.46573-.017553.17653-.040897.36912-.075999.58074-.035102.21162-.081804.44124-.1256882.69087-.043884.24964-.084755.51822-.1110858.75903-.026331.24081-.038011.453-.032174.63241.00584.17942.029194.3254.089063.49121.05987.1658.1559539.35059.2760163.43246.1200624.0819.2634723.0605.4402074.0557.176735-.005.3876447.007.6009233.0128.2132787.006.429856.006.5905812-.00002.1607252-.006.2660897-.0176.3566224-.0351.090533-.0176.1667288-.041.2487824-.0863.082054-.0452.1694145-.11163.2218652-.30988.052451-.19825.070012-.53026.09629-.97805.026277-.44779.061386-1.01343.096454-1.68655.035068-.67313.070164-1.455.1140047-2.39415.04384-.93915.096477-2.03673.1386177-2.86049.04214-.82375.073816-1.37434.105467-1.92452" id="path6806" fill="none" stroke="#000" stroke-width=".065"/></g></svg>