<svg xmlns="http://www.w3.org/2000/svg" viewBox="0 0 24 46" id="svg9480"><g id="layer1" transform="translate(0 -251)"><g transform="translate(-602.35751 -132.91013)" id="F5" stroke-width=".13229166"><g id="flowerDevelopmentPart5" transform="matrix(.26458 0 0 .26458 474.92599 446.54698)" stroke-width=".5"><path fill="none" d="M519.53652-65.510261c-2.01791-5.6701-4.21513-14.1707-6.55972-19.0758-16.11021-5.5257-22.04972-24.580999-24.96778-39.815299-2.81848-20.0632-4.35095-42.48973 3.4976-62.74465 2.1075-10.57791 6.32201-20.48549 12.07039-29.2805 6.88167-5.77846 10.58705-16.92384 20.54783-16.21484 1.88431-1.1218 9.8765-.2881 15.21215.36226 9.0016 3.422 13.4926 14.44812 18.05534 21.41611 3.52302.0688-2.67105 2.60802 2.34494 6.35465 9.07044 22.47833 13.50214 48.48707 6.46501 72.17757-5.67738 13.3899-6.20796 29.664-16.18548 40.783899-3.30186 5.6847-4.73378 15.6478-7.90796 21.018-6.82214 1.5842-16.2755 1.1651-21.18899 3.3298.77901.9242-.6714 1.5783-1.38333 1.6888z" id="path7826-5"/></g><g id="g12162"><path d="M620.45124 422.32519s-3.19894 1.10939-5.6311-.20021c0 0-7.163-34.83309-1.21951-37.13102" id="path1885" fill="none" stroke="#000"/><path d="M611.40577 390.08602s-4.724 4.91109-7.99803 13.75104" id="path1887" fill="none" stroke="#000"/><path d="M614.82014 422.12498s-.62066 2.21302-4.16904 2.04194" id="path1889" fill="none" stroke="#000"/></g></g><path d="M8.3395369 291.35561c.045947.0988.1378933.29659.248869.57864.1109757.28205.2408281.648.3530595.97583.1122314.32783.2066873.6171.3130259.95089.1063385.33378.2243914.71155.3307169 1.05415.1063256.34261.2007775.64958.2728119.87517.072034.22559.1215585.3695.1808329.43153.05928.062.127781.0421.185563.0144.05778-.0277.105243-.0633.140578-.0957.03533-.0324.0591-.0621.06215-.10853.0031-.0464-.01457-.11108.01799-.15825.03256-.0472.115176-.0777.224023-.11353.108848-.0358.245209-.0773.410347-.11859.165139-.0413.360498-.0827.578816-.11812.218318-.0354.46083-.065.741167-.0945.280338-.0295.599634-.0591.944966-.0945.345331-.0354.717727-.0768.974579-.10336.256853-.0266.398703-.0384.584512-.0649.185809-.0265.416597-.068.606879-.10211.190281-.0341.3409-.0611.464748-.17918.123848-.11804.221671-.32774.311757-.52673.09009-.19899.172892-.38827.270228-.65079.09734-.26253.209737-.59973.33369-1.00111.123952-.40138.259915-.86838.38096-1.25512.121045-.38673.227421-.69404.327788-.95379.100367-.25975.194957-.47258.276302-.64504.08135-.17245.149721-.30514.276511-.48498.12679-.17985.312913-.40815.506005-.67835.193093-.2702.394147-.58361.571228-.89352.17708-.30991.330786-.61732.487195-.96557.15641-.34824.316032-.73844.466561-1.15167.150529-.41323.292385-.85062.434067-1.32291.141682-.47228.283527-.98056.44588-1.57389.162353-.59333.34555-1.27293.502036-1.80732.156486-.53439.286476-.92436.377994-1.19892.09152-.27455.144715-.43414.2104-.60663.06569-.17248.144183-.35873.207187-.53767.063-.17895.110878-.35156.169161-.57215.05828-.2206.127316-.49045.181574-.71897.05426-.22853.09398-.41667.139866-.65551.04589-.23885.09817-.52956.147213-.84571.04904-.31616.09502-.65896.133631-1.00542.03861-.34646.06995-.69755.09395-1.04402.024-.34647.04072-.68919.05115-1.0148.01043-.3256.01461-.63488.0094-.99384-.0052-.35896-.01985-.76857-.03655-1.11927-.0167-.35069-.03551-.6432-.05847-.92393-.02296-.28072-.05013-.5503-.08561-.85292-.03548-.30261-.07937-.63908-.129463-.97827-.0501-.33918-.106512-.68185-.167047-1.02105-.06054-.3392-.125305-.67558-.199408-1.02417-.0741-.34859-.157675-.71004-.242219-1.0576-.08455-.34757-.170199-.68183-.259961-1.0106-.08976-.32878-.183774-.6526-.287104-.98868-.10333-.33608-.216145-.68497-.341396-1.0555-.125251-.37053-.263128-.76327-.400866-1.13705-.137739-.37379-.275516-.72911-.352705-.91172-.07719-.1826-.09397-.19283-.133868-.22523-.0399-.0324-.102252-.0865-.156039-.14023-.05379-.0538-.09868-.10704-.133146-.153-.03447-.046-.05847-.0846-.07831-.12008-.01984-.0355-.03552-.0679-.04907-.10078-.01356-.0329-.02507-.0664-.0334-.10126-.0083-.0349-.01358-.0717-.01669-.10243-.0031-.0307-.0041-.0559-.0031-.0871.0011-.0312.0042-.0691.0099-.106.0057-.0369.01417-.0738.02406-.1071.0099-.0333.02147-.0638.03599-.10006.01452-.0363.03248-.0796.05327-.12481.0208-.0452.045-.0936.06165-.12955.01666-.0359.02613-.0601.03181-.0814.0057-.0212.0078-.0402.0072-.0544-.000602-.0142-.0037-.0234-.0084-.0328-.0047-.009-.01086-.0186-.02027-.0275-.0094-.009-.02183-.0172-.03963-.0245-.0178-.007-.04054-.0135-.06407-.0188-.02353-.005-.0475-.009-.07578-.012-.02828-.003-.06036-.004-.083-.0131-.02264-.009-.03507-.027-.09079-.11609-.05572-.089-.15519-.25029-.263743-.43034-.108553-.18005-.226582-.37955-.338271-.57005-.111688-.1905-.21718-.37224-.319992-.54759-.102812-.17536-.203082-.34457-.299108-.50374-.09603-.15917-.187946-.30854-.281363-.45466-.09342-.14613-.188468-.28923-.28032-.42439-.09185-.13517-.180634-.2626-.276137-.39306-.0955-.13047-.197858-.26416-.305369-.3962-.107511-.13205-.220298-.26259-.331992-.38472-.111694-.12213-.22238-.23595-.338255-.3466-.115874-.11066-.236984-.2182-.354435-.31477-.117452-.0966-.231227-.18216-.333022-.25368-.101795-.0715-.191548-.12892-.289186-.18636-.09764-.0574-.203014-.11482-.318551-.17078-.115537-.056-.240947-.11035-.317105-.13909-.07616-.0287-.103029-.0317-.266548-.0501-.163519-.0183-.458491-.0515-.762418-.0823-.303927-.0308-.613753-.059-.899392-.0804-.285638-.0214-.546444-.036-.733368-.0438-.186925-.008-.299572-.009-.401992-.008-.102419.0005-.194082.002-.261487.004-.0674.002-.110075.004-.16981.009-.05974.005-.135468.0135-.201868.0229-.0664.009-.122562.0198-.17279.0318-.05023.012-.09384.0255-.126978.0382-.03314.0127-.05522.0243-.09851.0285-.0433.004-.105731.00088-.171466.00018-.06573-.00071-.133332.001-.198705.004-.06537.003-.12775.007-.187897.0135-.06015.006-.117315.0146-.179086.0256-.06177.011-.127204.0245-.189449.0396-.06225.0152-.120435.0318-.17118.0475-.05075.0157-.09334.0303-.122619.0407-.02928.0105-.044851.0167-.081445.0315-.036593.0148-.091821.0374-.1514946.0646-.059673.0272-.1219769.0584-.1874011.094-.065424.0356-.1329536.0751-.2014887.11848-.068535.0434-.1371402.0902-.1873231.12521-.050183.035-.081382.0579-.1318202.0984-.050439.0404-.1186896.0973-.1835481.15277-.064858.0554-.1251592.10846-.1874411.16655-.062282.0581-.1256556.12042-.193158.19001-.067502.0696-.1381816.14547-.2161241.2323-.077942.0868-.1621922.18356-.2578792.29703-.095687.11346-.2018662.24254-.334637.40876-.1327707.16622-.2911095.36831-.4148886.52552-.1237791.15721-.2123937.26876-.3033426.38114-.090949.11238-.1836247.22484-.2693399.32519-.085715.10036-.1637958.18781-.2301669.26149-.066371.0737-.1205072.13304-.189075.20423-.068568.0712-.1506591.15328-.2322733.23015-.081614.0769-.1618213.14763-.2586305.27214-.096809.12452-.2090751.30138-.3177026.47745-.1086275.17606-.2128494.35011-.3074119.51259-.094562.16247-.1789809.31255-.2547454.45049-.075764.13794-.1424414.26296-.2130091.39782-.070568.13486-.1445063.27857-.218195.42646-.073689.1479-.1466093.29895-.2202953.45677-.073686.15782-.147656.32139-.2082593.45826-.060603.13688-.1074903.24628-.173392.40475-.065902.15847-.1502195.36459-.228061.56467-.077841.20008-.1487235.39292-.2051392.54962-.056416.15671-.098106.27657-.1488253.43133-.050719.15477-.110072.34324-.1560385.49106-.045967.14782-.078277.25413-.1138347.37753-.035558.1234-.074073.26289-.1059479.38202-.031874.11913-.056873.21704-.083543.32424-.02667.1072-.054768.22271-.083522.34714-.028754.12442-.057907.25665-.08129.36508-.023383.10843-.040819.19224-.05176.24079-.010941.0485-.015361.0616-.042716.13282-.027355.0713-.075229.19452-.1343111.35973-.059082.16521-.1278134.36828-.1952107.5783-.067397.21002-.1330663.42579-.1889591.6154-.055893.18961-.1017628.35224-.139381.49225-.037618.14001-.066796.25672-.099733.39317-.032937.13645-.069382.2916-.097586.41382-.028204.12221-.048013.21083-.071553.32172-.02354.1109-.05059.24303-.077246.37996-.026656.13693-.052697.27755-.077259.41812-.024563.14057-.047482.28017-.071523.4333-.024041.15313-.049045.31878-.074127.50218-.025083.18341-.050094.3835-.073081.58515-.022987.20165-.043837.40389-.066304.65885s-.046446.56147-.063682.83094-.027667.50103-.036548.75071c-.00888.24968-.016181.51663-.02036.77516-.00418.25852-.00522.50779-.00313.7726.00209.26482.0073.54432.014091.79969.00679.25537.015132.48588.025578.72406.010446.23817.02296.48324.03706.71827.014101.23503.029744.45925.045411.66607.015667.20682.031311.39559.047503.57998.016192.18438.032875.36373.052204.56746.019329.20374.041223.43103.066292.66711.025069.23607.053228.48012.085087.74596.031859.26585.067322.55268.1012645.81326.033943.26058.066281.49425.087687.64932.021406.15506.031839.23122.056949.36829.025109.13706.064666.3338.1080166.54272.043351.20893.090283.42899.1419868.65461.051703.22562.1080292.45614.1675622.69009.059533.23396.1221232.47076.1863545.69949.064231.22873.1299548.44885.1983649.6661.06841.21725.1393482.43111.1993966.60864.060048.17754.1090815.31838.1560854.44478.047004.12639.091849.23798.1529709.38687.061122.14888.1382868.33449.2171402.51518.078853.18069.1591852.35596.2281113.50112.068926.14517.1263061.25993.1889804.38162.062674.1217.130471.24999.2213468.40824.090876.15825.2045919.34604.301704.5011.097112.15507.1774689.27717.2505661.38369.073097.10651.1388431.19731.2192612.30488.080418.10757.1753734.23174.2735342.35183.098161.1201.1993988.23595.3189567.36595s.2573397.27404.3789837.39308c.1216439.11903.2270826.21298.3231421.29599.096059.083.182708.15504.2563192.21298.073611.058.1341532.10179.2108611.15711.076708.0553.1696997.12218.2683367.18794.098637.0657.2031104.13053.2996549.18793.096545.0574.1853702.10757.2683265.15296.082956.0454.160308.0861.2474306.12893.087123.0428.184321.0877.288666.13206.104345.0443.2161903.0882.3033144.1218.087124.0336.1497951.0569.181029.0685.031234.0116.031156.0122.077103.111z" id="path9529" fill="none" stroke="#000" stroke-width=".1"/></g></svg>