<?xml version="1.0" encoding="UTF-8" standalone="no"?>
<!-- Created with Inkscape (http://www.inkscape.org/) -->
<svg author="Provart Lab - Bio Analytic Resource, University of Toronto" license="CCBY4.0" xmlns:dc="http://purl.org/dc/elements/1.1/" xmlns:cc="http://creativecommons.org/ns#" xmlns:rdf="http://www.w3.org/1999/02/22-rdf-syntax-ns#"
  xmlns:svg="http://www.w3.org/2000/svg" xmlns="http://www.w3.org/2000/svg" xmlns:sodipodi="http://sodipodi.sourceforge.net/DTD/sodipodi-0.dtd"
  xmlns:inkscape="http://www.inkscape.org/namespaces/inkscape" width="300px" height="300px" viewBox="0 0 36 46" version="1.1"
  id="svg10082">
  <g id="layer1" transform="translate(0,-251)">
    <g transform="translate(-632.8574,-134.65089)" id="F6-8" style="stroke-width:0.13229166;stroke-miterlimit:4;stroke-dasharray:none">
      <g id="flowerDevelopmentPart6" transform="matrix(0.39339606,0,0,0.39339606,602.63653,366.70431)" fill="none" style="stroke-width:0.33628112;stroke-miterlimit:4;stroke-dasharray:none">
        <path style="fill-opacity:1;stroke-width:0.33628112;stroke-miterlimit:4;stroke-dasharray:none" d="m 99.168236,163.03813 c -8.00104,1.19142 -4.50917,-6.8333 -4.86904,-12.33806 0.2589,-5.70456 -8.37325,-4.89941 -9.20169,-11.04974 -7.3478,-11.99641 -9.47687,-27.53006 -1.34771,-39.978442 -0.78539,-5.67514 9.95901,-8.2823 14.53855,-6.96271 2.720814,4.11733 5.542374,11.788992 8.197294,17.413212 5.48904,11.62464 4.49382,25.43428 -4.51678,35.1473 -1.6523,5.88605 5.68544,17.39859 -2.800624,17.76844 z"
          id="path7944-2" />
        <path style="fill-opacity:1;stroke-width:0.33628112;stroke-miterlimit:4;stroke-dasharray:none" d="m 123.1613,114.2442 c -9.53671,2.37801 -0.15604,-13.19848 -8.27105,-13.39104 -9.54109,-5.20015 -13.6923,-16.426184 -9.46106,-26.981344 0.72403,-12.16499 12.26262,-24.63643 25.20101,-23.55278 7.05186,2.50672 9.52282,9.27855 10.25925,15.93959 0.75958,6.87051 2.71777,12.86163 0.29854,19.98124 0.32676,7.227544 -5.55917,13.275184 -11.52756,15.260994 -3.04437,3.34831 -0.1647,13.92283 -6.49913,12.74334 z"
          id="path7924-1" />
        <path style="fill-opacity:1;stroke-width:0.33628112;stroke-miterlimit:4;stroke-dasharray:none" d="m 143.2956,159.72925 c -2.00344,-4.1965 2.48293,-12.31087 -1.16536,-17.84797 -8.94804,-2.77283 -11.59928,-16.54594 -5.15971,-24.18527 4.02803,-6.74245 7.63162,-20.21068 18.38256,-16.36321 4.94423,1.63343 6.3538,8.34875 5.53686,10.85779 3.19408,7.38345 8.1554,19.56723 1.52352,26.61826 -1.47625,4.92798 -10.11028,2.20595 -8.47615,7.60008 -3.16847,4.79317 -0.32772,14.4489 -7.88975,12.74273 -0.87805,0.28481 -1.93423,0.0784 -2.75197,0.57759 z"
          id="path7934-2" />
      </g>
      <g id="g12157" style="stroke-width:0.13229166;stroke-miterlimit:4;stroke-dasharray:none">
        <g id="g12143" style="stroke-width:0.13229166;stroke-miterlimit:4;stroke-dasharray:none">
          <path id="path1891" d="m 643.67856,408.37395 c 0,0 -4.0296,-2.39253 -8.09519,-2.4591" style="fill:none;stroke:#000000;stroke-width:0.13229166;stroke-linecap:butt;stroke-linejoin:miter;stroke-miterlimit:4;stroke-dasharray:none;stroke-opacity:1"
          />
          <path id="path1893" d="m 642.7507,423.85284 c 0,0 -1.08334,0.33009 -1.92524,-0.65212 l -2.75957,0.74836" style="fill:none;stroke:#000000;stroke-width:0.13229166;stroke-linecap:butt;stroke-linejoin:miter;stroke-miterlimit:4;stroke-dasharray:none;stroke-opacity:1"
          />
          <path id="path1895" d="m 640.82546,423.20072 c 0,0 -2.47894,-4.95784 -2.57247,-9.30765 0,0 0.46771,-7.15615 -0.93545,-7.76419"
            style="fill:none;stroke:#000000;stroke-width:0.13229166;stroke-linecap:butt;stroke-linejoin:miter;stroke-miterlimit:4;stroke-dasharray:none;stroke-opacity:1"
          />
        </g>
        <g id="g12138" style="stroke-width:0.13229166;stroke-miterlimit:4;stroke-dasharray:none">
          <path id="path12118" d="m 644.11198,395.7652 c 0,0 4.64635,-7.46995 12.45155,-6.61006" style="fill:none;stroke:#000000;stroke-width:0.13229166;stroke-linecap:butt;stroke-linejoin:miter;stroke-miterlimit:4;stroke-dasharray:none;stroke-opacity:1"
          />
          <path id="path12120" d="m 650.54426,390.14733 c 0,0 -1.45521,-0.13229 -1.98437,6.94531 0,0 -1.75287,6.15156 1.52135,8.99583 0,0 1.3717,1.654 3.56319,0.54588 0,0 4.07666,-4.08468 4.37431,-13.41125"
            style="fill:none;stroke:#000000;stroke-width:0.13229166;stroke-linecap:butt;stroke-linejoin:miter;stroke-miterlimit:4;stroke-dasharray:none;stroke-opacity:1"
          />
          <path id="path12122" d="m 648.65911,406.61764 c 0,0 1.41724,1.21454 2.21588,0.0992" style="fill:none;stroke:#000000;stroke-width:0.13229166;stroke-linecap:butt;stroke-linejoin:miter;stroke-miterlimit:4;stroke-dasharray:none;stroke-opacity:1"
          />
        </g>
        <g id="g12133" style="stroke-width:0.13229166;stroke-miterlimit:4;stroke-dasharray:none">
          <path id="path12124" d="m 656.52019,413.00545 c 0,0 5.87786,-6.64197 9.40983,-2.1658" style="fill:none;stroke:#000000;stroke-width:0.13229166;stroke-linecap:butt;stroke-linejoin:miter;stroke-miterlimit:4;stroke-dasharray:none;stroke-opacity:1"
          />
          <path id="path12126" d="m 662.08671,409.36269 c 0,0 -0.89297,0.42995 -1.05833,1.42214 0,0 -4.32511,11.3914 -0.70735,12.16145 0,0 1.30266,1.76224 2.89016,0.34011 0,0 2.74505,-2.18282 3.24114,-11.27787"
            style="fill:none;stroke:#000000;stroke-width:0.13229166;stroke-linecap:butt;stroke-linejoin:miter;stroke-miterlimit:4;stroke-dasharray:none;stroke-opacity:1"
          />
          <path id="path12128" d="m 658.55003,422.51984 c 0,0 0.50141,0.91316 1.77101,0.42646" style="fill:none;stroke:#000000;stroke-width:0.13229166;stroke-linecap:butt;stroke-linejoin:miter;stroke-miterlimit:4;stroke-dasharray:none;stroke-opacity:1"
          />
        </g>
      </g>
    </g>
    <path style="fill:none;stroke:#000000;stroke-width:0.1;stroke-linecap:butt;stroke-linejoin:miter;stroke-opacity:1;stroke-miterlimit:4;stroke-dasharray:none"
      d="m 25.69263,287.86895 c 0.06128,0.10444 0.122601,0.20896 0.176902,0.31588 0.0543,0.10691 0.10151,0.21608 0.138438,0.30913 0.03693,0.0931 0.06348,0.16974 0.08934,0.2562 0.02587,0.0865 0.05091,0.18222 0.07235,0.28197 0.02143,0.0997 0.03911,0.2029 0.05463,0.31597 0.01552,0.11306 0.02878,0.23536 0.03765,0.36097 0.0089,0.12561 0.01329,0.25382 0.01256,0.4031 -7.35e-4,0.14928 -0.0066,0.31874 -0.01919,0.52194 -0.01256,0.2032 -0.03172,0.43906 -0.0657,0.73086 -0.03398,0.29181 -0.08264,0.63836 -0.122413,0.94705 -0.03977,0.30869 -0.07053,0.57864 -0.08958,0.76966 -0.01906,0.19101 -0.02635,0.30259 -0.03054,0.42387 -0.0042,0.12128 -0.0052,0.25145 -0.0036,0.35069 0.0016,0.0992 0.0057,0.16701 0.01463,0.25439 0.0089,0.0874 0.02242,0.19348 0.03966,0.28652 0.01725,0.0931 0.03807,0.17218 0.06427,0.25221 0.0262,0.08 0.05758,0.1603 0.08029,0.19678 0.02271,0.0365 0.036,0.0292 0.05393,0.0199 0.01793,-0.009 0.0414,-0.0211 0.06887,-0.0324 0.02746,-0.0114 0.06026,-0.023 0.102288,-0.0349 0.04202,-0.0119 0.09473,-0.0246 0.16028,-0.035 0.06555,-0.0104 0.145327,-0.0188 0.218828,-0.0261 0.0735,-0.007 0.141562,-0.0136 0.194179,-0.0193 0.05262,-0.006 0.09042,-0.011 0.123151,-0.0167 0.03273,-0.006 0.06125,-0.0121 0.08866,-0.0186 0.02742,-0.006 0.05462,-0.0133 0.08306,-0.0138 0.02845,-5.1e-4 0.05938,0.005 0.09847,0.0128 0.03909,0.008 0.08744,0.017 0.137983,0.0248 0.05054,0.008 0.104004,0.0141 0.167022,0.0198 0.06302,0.006 0.136413,0.011 0.196896,0.0126 0.06048,0.002 0.108663,-4e-4 0.152401,-0.003 0.04374,-0.002 0.08371,-0.006 0.127925,-0.0117 0.04421,-0.006 0.09355,-0.0156 0.142477,-0.0276 0.04893,-0.012 0.09829,-0.0267 0.140477,-0.0408 0.04218,-0.0141 0.0779,-0.0277 0.114791,-0.0449 0.0369,-0.0172 0.07585,-0.0382 0.116911,-0.0637 0.04106,-0.0255 0.08525,-0.056 0.124278,-0.0867 0.03902,-0.0307 0.07369,-0.0622 0.113188,-0.10384 0.0395,-0.0416 0.08473,-0.0942 0.124277,-0.14677 0.03955,-0.0526 0.0742,-0.10613 0.109575,-0.16858 0.03537,-0.0624 0.07212,-0.13488 0.105967,-0.21197 0.03384,-0.0771 0.0653,-0.15991 0.09602,-0.2547 0.03072,-0.0948 0.06112,-0.20275 0.09134,-0.32418 0.03022,-0.12142 0.06059,-0.25754 0.08457,-0.37487 0.02398,-0.11732 0.04178,-0.21676 0.06366,-0.34597 0.02188,-0.12921 0.04806,-0.28944 0.07518,-0.45944 0.02712,-0.17 0.05535,-0.35095 0.08457,-0.51736 0.02921,-0.1664 0.05954,-0.31907 0.08406,-0.44061 0.02452,-0.12153 0.04335,-0.21255 0.06889,-0.31 0.02554,-0.0974 0.05802,-0.2022 0.08981,-0.29967 0.0318,-0.0975 0.06322,-0.18859 0.09658,-0.27353 0.03336,-0.0849 0.06899,-0.16459 0.101825,-0.23232 0.03284,-0.0677 0.06324,-0.12436 0.08461,-0.16502 0.02136,-0.0407 0.03396,-0.0659 0.05042,-0.0933 0.01646,-0.0275 0.03737,-0.0581 0.04251,-0.0913 0.0051,-0.0332 -0.0051,-0.0701 -0.01595,-0.11488 -0.0108,-0.0448 -0.02233,-0.0982 -0.03066,-0.1519 -0.0083,-0.0537 -0.01357,-0.1082 -0.01617,-0.15668 -0.0026,-0.0485 -0.0026,-0.0915 0.0026,-0.1409 0.0052,-0.0494 0.01572,-0.10615 0.02512,-0.14786 0.0094,-0.0417 0.0178,-0.069 0.03182,-0.10165 0.01401,-0.0326 0.03405,-0.0717 0.06105,-0.12826 0.027,-0.0566 0.06174,-0.1324 0.103992,-0.17715 0.04225,-0.0448 0.09259,-0.0595 0.135803,-0.0772 0.04322,-0.0177 0.07999,-0.0387 0.111714,-0.0569 0.03173,-0.0182 0.0591,-0.034 0.09848,-0.0532 0.03938,-0.0192 0.09217,-0.0424 0.157699,-0.0689 0.06552,-0.0265 0.145368,-0.057 0.243272,-0.0892 0.0979,-0.0323 0.215307,-0.0669 0.354467,-0.10804 0.139159,-0.0412 0.301402,-0.0893 0.436493,-0.13053 0.135091,-0.0412 0.243904,-0.0757 0.319526,-0.1013 0.07562,-0.0256 0.118577,-0.0423 0.180379,-0.0673 0.0618,-0.0249 0.143859,-0.0586 0.224083,-0.0982 0.08022,-0.0396 0.159873,-0.0857 0.226076,-0.12691 0.0662,-0.0412 0.119618,-0.0778 0.160248,-0.10806 0.04063,-0.0302 0.06901,-0.0544 0.10324,-0.0871 0.03423,-0.0327 0.07537,-0.0749 0.111789,-0.11547 0.03642,-0.0406 0.06898,-0.0805 0.0981,-0.12057 0.02912,-0.0401 0.05541,-0.0811 0.08139,-0.12681 0.02598,-0.0457 0.05229,-0.0973 0.07161,-0.13967 0.01932,-0.0424 0.03179,-0.0756 0.04291,-0.10609 0.01112,-0.0305 0.021,-0.0585 0.05571,-0.10558 0.03471,-0.0471 0.09553,-0.11512 0.16197,-0.19553 0.06644,-0.0804 0.139845,-0.17478 0.203427,-0.26339 0.06358,-0.0886 0.118051,-0.17241 0.169118,-0.25684 0.05107,-0.0844 0.09925,-0.17032 0.127418,-0.2204 0.02817,-0.0501 0.03655,-0.0648 0.06473,-0.12624 0.02817,-0.0615 0.07829,-0.17452 0.121564,-0.27932 0.04327,-0.1048 0.08095,-0.20424 0.109093,-0.284 0.02815,-0.0797 0.047,-0.14052 0.06418,-0.19727 0.01718,-0.0567 0.03293,-0.11029 0.05217,-0.18518 0.01924,-0.0749 0.04234,-0.17253 0.06267,-0.26845 0.02032,-0.0959 0.03812,-0.19119 0.05479,-0.30269 0.01667,-0.1115 0.03238,-0.24033 0.048,-0.36845"
      id="path10186" />
    <path style="fill:none;stroke:#000000;stroke-width:0.1;stroke-linecap:butt;stroke-linejoin:miter;stroke-opacity:1;stroke-miterlimit:4;stroke-dasharray:none"
      d="m 34.936117,283.69336 c 0.0094,-0.16122 0.01879,-0.32215 0.02242,-0.47764 0.0036,-0.1555 0.0015,-0.3061 -0.0068,-0.48027 -0.0084,-0.17417 -0.023,-0.37288 -0.04074,-0.55234 -0.01774,-0.17947 -0.03865,-0.34044 -0.06681,-0.52508 -0.02817,-0.18464 -0.06371,-0.39374 -0.101282,-0.58365 -0.03757,-0.18992 -0.07728,-0.36131 -0.122147,-0.54598 -0.04486,-0.18468 -0.09503,-0.38327 -0.145127,-0.5638 -0.05009,-0.18053 -0.100252,-0.34355 -0.159726,-0.53032 -0.05947,-0.18677 -0.128451,-0.39788 -0.19733,-0.60034 -0.06888,-0.20246 -0.137839,-0.3968 -0.206718,-0.58256 -0.06888,-0.18576 -0.13784,-0.36338 -0.22028,-0.56896 -0.08244,-0.20558 -0.178562,-0.43962 -0.275629,-0.67341 -0.09707,-0.2338 -0.195259,-0.46779 -0.255801,-0.61079 -0.06054,-0.143 -0.08354,-0.19526 -0.08658,-0.23812 -0.003,-0.0429 0.0137,-0.0764 0.02718,-0.11892 0.01347,-0.0426 0.02401,-0.0952 0.03336,-0.18048 0.0094,-0.0853 0.01775,-0.20496 0.01879,-0.31549 0.001,-0.11052 -0.0052,-0.21308 -0.01463,-0.31526 -0.0094,-0.10218 -0.02195,-0.20474 -0.04176,-0.32464 -0.01981,-0.1199 -0.04702,-0.25802 -0.07936,-0.3905 -0.03234,-0.13248 -0.06998,-0.26004 -0.1138,-0.38626 -0.04382,-0.12623 -0.094,-0.25168 -0.163898,-0.40086 -0.0699,-0.14918 -0.159779,-0.32268 -0.246402,-0.46878 -0.08662,-0.14611 -0.170195,-0.2652 -0.269338,-0.38626 -0.09914,-0.12105 -0.214035,-0.2443 -0.330926,-0.35076 -0.11689,-0.10646 -0.235937,-0.19627 -0.346593,-0.27143 -0.110656,-0.0752 -0.212956,-0.13571 -0.301695,-0.18166 -0.08874,-0.046 -0.163848,-0.0773 -0.234898,-0.10443 -0.07105,-0.0272 -0.137742,-0.0501 -0.207771,-0.0731 -0.07003,-0.023 -0.14294,-0.0459 -0.22447,-0.07 -0.08153,-0.024 -0.171111,-0.0491 -0.26306,-0.07 -0.09195,-0.0209 -0.185735,-0.0376 -0.27351,-0.0512 -0.08778,-0.0136 -0.169028,-0.024 -0.270446,-0.0313 -0.101419,-0.007 -0.222217,-0.0115 -0.335062,-0.0104 -0.112845,0.001 -0.217031,0.007 -0.315285,0.0167 -0.09825,0.009 -0.189877,0.0219 -0.302832,0.047 -0.112955,0.0251 -0.246169,0.0626 -0.364262,0.10122 -0.118093,0.0386 -0.220173,0.0782 -0.316358,0.12214 -0.09618,0.0439 -0.185702,0.0918 -0.26204,0.13569 -0.07634,0.0439 -0.138741,0.0834 -0.204682,0.12635 -0.06594,0.0429 -0.134501,0.0886 -0.205676,0.14094 -0.07118,0.0523 -0.143913,0.11051 -0.226584,0.18271 -0.08267,0.0722 -0.174177,0.15747 -0.28295,0.26832 -0.108773,0.11086 -0.233684,0.24618 -0.343415,0.37367 -0.109731,0.12748 -0.203497,0.24625 -0.304911,0.38425 -0.101414,0.138 -0.209726,0.29422 -0.33411,0.48758 -0.124384,0.19336 -0.264013,0.4226 -0.413426,0.68485 -0.149413,0.26225 -0.307888,0.55626 -0.459355,0.84561 -0.151466,0.28935 -0.295387,0.57302 -0.428047,0.84042 -0.13266,0.26741 -0.253632,0.5177 -0.373765,0.75797 -0.120132,0.24027 -0.239004,0.46967 -0.336147,0.6556 -0.09714,0.18593 -0.172208,0.32772 -0.262079,0.46464 -0.08987,0.13693 -0.194039,0.26818 -0.288107,0.39569 -0.09407,0.1275 -0.177403,0.25042 -0.272561,0.41458 -0.09516,0.16416 -0.201385,0.36828 -0.286018,0.55006 -0.08463,0.18177 -0.14718,0.34022 -0.191072,0.4583 -0.04389,0.11807 -0.06889,0.19514 -0.0961,0.28618 -0.02721,0.091 -0.05632,0.19502 -0.08875,0.32576 -0.03243,0.13074 -0.06782,0.28688 -0.09395,0.42481 -0.02613,0.13793 -0.0428,0.25672 -0.05744,0.35916 -0.01463,0.10244 -0.02712,0.1878 -0.03654,0.29452 -0.0094,0.10672 -0.01566,0.23365 -0.0188,0.36639 -0.0031,0.13275 -0.0031,0.27026 -0.0011,0.40611 0.0021,0.13586 0.0063,0.26924 0.0167,0.40197 0.01045,0.13274 0.02712,0.26403 0.0522,0.42498 0.02508,0.16095 0.05843,0.35063 0.100213,0.53972 0.04178,0.18908 0.09184,0.3768 0.143021,0.54289 0.05118,0.16609 0.103329,0.31002 0.167053,0.46567 0.06372,0.15566 0.138816,0.32253 0.226554,0.49384 0.08774,0.1713 0.187891,0.34657 0.280837,0.49382 0.09295,0.14726 0.178513,0.26622 0.275638,0.38841 0.09713,0.12218 0.205657,0.24742 0.313212,0.36228 0.107554,0.11486 0.214024,0.21925 0.330979,0.32054 0.116954,0.10128 0.244314,0.19941 0.36751,0.28711 0.123196,0.0877 0.242235,0.16497 0.358116,0.23178 0.115881,0.0668 0.22869,0.12322 0.360066,0.17817 0.131376,0.055 0.281591,0.10859 0.431524,0.16212"
      id="path10733" />
    <path style="fill:none;stroke:#000000;stroke-width:0.1;stroke-linecap:butt;stroke-linejoin:miter;stroke-opacity:1;stroke-miterlimit:4;stroke-dasharray:none"
      d="m 15.80171,271.96675 c 0.111586,0.0911 0.223155,0.18218 0.272835,0.23177 0.04968,0.0496 0.03714,0.058 0.04458,0.0836 0.0074,0.0256 0.03395,0.0664 0.06424,0.12909 0.03029,0.0627 0.06364,0.14604 0.0908,0.22436 0.02716,0.0783 0.04801,0.15132 0.06578,0.23282 0.01777,0.0815 0.03236,0.17112 0.04595,0.29972 0.01359,0.1286 0.02609,0.29524 0.03028,0.4948 0.0042,0.19956 1.3e-5,0.43101 -0.0073,0.68068 -0.0073,0.24967 -0.01774,0.51663 -0.02191,0.7412 -0.0042,0.22456 -0.0021,0.40603 0.0042,0.55124 0.0063,0.14521 0.01669,0.25364 0.02923,0.34772 0.01254,0.0941 0.02712,0.17322 0.04908,0.25794 0.02196,0.0847 0.0511,0.17423 0.08351,0.25055 0.0324,0.0763 0.06783,0.13883 0.108593,0.19632 0.04077,0.0575 0.08664,0.10963 0.136789,0.15559 0.05015,0.046 0.104437,0.0856 0.16397,0.11696 0.05953,0.0313 0.124321,0.0543 0.184822,0.072 0.0605,0.0177 0.117017,0.0303 0.17644,0.0397 0.05942,0.009 0.12228,0.0157 0.204592,0.0136 0.08231,-0.002 0.185004,-0.0126 0.276787,-0.0219 0.09178,-0.009 0.173409,-0.0177 0.242499,-0.0288 0.06909,-0.0111 0.126243,-0.0251 0.17928,-0.0282 0.05304,-0.003 0.102907,0.005 0.170318,0.0105 0.06741,0.006 0.153388,0.0101 0.237855,0.007 0.08447,-0.003 0.168228,-0.0136 0.254732,-0.0355 0.0865,-0.0219 0.176626,-0.0554 0.254807,-0.094 0.07818,-0.0386 0.145236,-0.0826 0.214982,-0.14718 0.06975,-0.0646 0.143156,-0.15057 0.209829,-0.25478 0.06667,-0.10421 0.127426,-0.22781 0.183705,-0.37792 0.05628,-0.15011 0.108616,-0.32806 0.153454,-0.52622 0.04484,-0.19816 0.08249,-0.4178 0.122126,-0.70048 0.03964,-0.28269 0.08145,-0.62978 0.115898,-0.89802 0.03444,-0.26823 0.06161,-0.4584 0.09292,-0.62847 0.03131,-0.17007 0.06686,-0.32064 0.104417,-0.45832 0.03756,-0.13769 0.07731,-0.26323 0.111743,-0.3571 0.03443,-0.0939 0.06376,-0.15669 0.100211,-0.22438 0.03646,-0.0677 0.08052,-0.14111 0.120571,-0.19837 0.04005,-0.0573 0.07662,-0.0991 0.144179,-0.13858 0.06756,-0.0395 0.16756,-0.0774 0.321303,-0.14413 0.153744,-0.0667 0.363219,-0.16309 0.55206,-0.25804 0.188841,-0.095 0.358223,-0.18905 0.542824,-0.30483 0.1846,-0.11577 0.385422,-0.25384 0.569036,-0.39365 0.183614,-0.13981 0.35091,-0.28201 0.521966,-0.44369 0.171056,-0.16168 0.346751,-0.34365 0.494898,-0.51059 0.148146,-0.16694 0.269436,-0.3196 0.390411,-0.48751 0.120976,-0.16792 0.242315,-0.35202 0.345583,-0.52624 0.103268,-0.17422 0.189021,-0.33945 0.266192,-0.5105 0.07717,-0.17106 0.146207,-0.34887 0.200447,-0.50327 0.05424,-0.1544 0.09398,-0.28618 0.12943,-0.41965 0.03545,-0.13346 0.06684,-0.26952 0.0929,-0.4207 0.02606,-0.15119 0.04699,-0.31861 0.0595,-0.45944 0.01251,-0.14084 0.01669,-0.25588 0.01813,-0.35531 0.0014,-0.0994 1.3e-4,-0.18396 0.01788,-0.28507 0.01775,-0.10111 0.05468,-0.21974 0.0939,-0.35488 0.03922,-0.13514 0.0811,-0.28798 0.116554,-0.43816 0.03545,-0.15018 0.06475,-0.29874 0.09186,-0.45204 0.02711,-0.1533 0.05222,-0.31232 0.07099,-0.46877 0.01877,-0.15645 0.03132,-0.31126 0.04175,-0.47709 0.01043,-0.16583 0.0188,-0.34364 0.02088,-0.52619 0.0021,-0.18255 -0.0021,-0.37076 -0.0084,-0.54918 -0.0063,-0.17841 -0.01463,-0.34777 -0.03132,-0.55742 -0.01669,-0.20966 -0.04179,-0.46059 -0.07518,-0.7392 -0.03339,-0.2786 -0.07519,-0.58583 -0.126329,-0.93961 -0.05114,-0.35377 -0.111733,-0.75497 -0.158705,-1.06916 -0.04697,-0.31419 -0.0804,-0.54191 -0.114003,-0.66383 -0.0336,-0.12192 -0.06758,-0.13846 -0.06746,-0.14473 1.26e-4,-0.006 0.03398,-0.002 0.04252,-0.0585 0.0085,-0.0562 -0.0083,-0.17392 -0.02808,-0.32722 -0.01981,-0.15329 -0.04282,-0.34366 -0.06995,-0.53251 -0.02713,-0.18885 -0.05849,-0.377 -0.09918,-0.58775 -0.04069,-0.21075 -0.09086,-0.44487 -0.139913,-0.64837 -0.04905,-0.2035 -0.09712,-0.37696 -0.160765,-0.57624 -0.06365,-0.19928 -0.143073,-0.42502 -0.217175,-0.61183 -0.0741,-0.18681 -0.143058,-0.33517 -0.196295,-0.4479 -0.05324,-0.11274 -0.09084,-0.19003 -0.191388,-0.23205 -0.100552,-0.042 -0.264859,-0.049 -0.265774,-0.0521 -9.15e-4,-0.003 0.160815,-0.002 0.227059,-0.0262 0.06624,-0.0237 0.03696,-0.0718 -0.0016,-0.13645 -0.0386,-0.0647 -0.08669,-0.14623 -0.162849,-0.26412 -0.07616,-0.11788 -0.180663,-0.27255 -0.292342,-0.42181 -0.11168,-0.14925 -0.230738,-0.29338 -0.363301,-0.43533 -0.132564,-0.14196 -0.278758,-0.28189 -0.42908,-0.40925 -0.150322,-0.12735 -0.304831,-0.24219 -0.494852,-0.36227 -0.19002,-0.12007 -0.415466,-0.24532 -0.618718,-0.34685 -0.203251,-0.10153 -0.384176,-0.17926 -0.593002,-0.22314 -0.208825,-0.0439 -0.445287,-0.0538 -0.695277,-0.0494 -0.24999,0.004 -0.512796,0.0232 -0.736309,0.0462 -0.223514,0.023 -0.407063,0.0501 -0.61082,0.0908 -0.203757,0.0407 -0.426818,0.0949 -0.656664,0.16076 -0.229847,0.0658 -0.465468,0.14296 -0.683809,0.22444 -0.218341,0.0815 -0.418511,0.16696 -0.603439,0.25159 -0.184928,0.0846 -0.353786,0.16801 -0.552367,0.27879 -0.198581,0.11078 -0.425749,0.24833 -0.634689,0.38622 -0.208941,0.13789 -0.398693,0.27551 -0.587814,0.42179 -0.189121,0.14627 -0.376753,0.30055 -0.538688,0.44262 -0.161936,0.14208 -0.297451,0.27134 -0.45633,0.43125 -0.158879,0.15992 -0.340174,0.34956 -0.510474,0.5397 -0.1703,0.19014 -0.328765,0.37988 -0.484451,0.58257 -0.155686,0.20269 -0.307886,0.41744 -0.452067,0.63684 -0.144182,0.21939 -0.279716,0.4425 -0.399861,0.65249 -0.120146,0.20998 -0.224401,0.40598 -0.32681,0.61705 -0.102408,0.21107 -0.202472,0.43622 -0.286056,0.64411 -0.08358,0.2079 -0.150305,0.39764 -0.218235,0.60977 -0.06793,0.21214 -0.136719,0.44561 -0.188957,0.64409 -0.05224,0.19848 -0.08769,0.36112 -0.121132,0.53879 -0.03345,0.17766 -0.06471,0.36941 -0.08665,0.52925 -0.02194,0.15984 -0.03445,0.28701 -0.04211,0.37363 -0.0077,0.0866 -0.01041,0.13223 -0.03241,0.20981 -0.02199,0.0776 -0.06282,0.18568 -0.115825,0.34373 -0.05301,0.15805 -0.117546,0.36416 -0.170832,0.54908 -0.05329,0.18491 -0.09498,0.34753 -0.13575,0.53044 -0.04077,0.1829 -0.08036,0.38505 -0.105438,0.53546 -0.02508,0.15041 -0.03551,0.24843 -0.04805,0.37079 -0.01255,0.12237 -0.02712,0.2681 -0.03654,0.41755 -0.0094,0.14945 -0.01358,0.30158 -0.01358,0.45729 -4e-6,0.15571 0.0042,0.31412 0.01043,0.4583 0.0063,0.14419 0.01461,0.27344 0.02819,0.41558 0.01359,0.14214 0.03234,0.29636 0.05637,0.45204 0.02403,0.15569 0.05322,0.31207 0.09606,0.50433 0.04284,0.19226 0.09914,0.41955 0.164942,0.6389 0.0658,0.21935 0.140906,0.43006 0.223417,0.64 0.08251,0.20994 0.17223,0.41859 0.257867,0.59927 0.08564,0.18068 0.167018,0.33301 0.245345,0.47087 0.07833,0.13786 0.153453,0.26098 0.249543,0.40512 0.09609,0.14413 0.212951,0.30899 0.317373,0.44892 0.104421,0.13992 0.196268,0.25473 0.310091,0.38839 0.113824,0.13367 0.249507,0.28605 0.378982,0.42074 0.129475,0.1347 0.252656,0.25162 0.409263,0.38839 0.156607,0.13677 0.346635,0.29338 0.530384,0.43328 0.183749,0.1399 0.361256,0.26311 0.541683,0.37938 0.180428,0.11626 0.363888,0.22565 0.512178,0.28515 0.148291,0.0595 0.261474,0.0692 0.369034,0.0897 0.10756,0.0205 0.210092,0.0519 0.290964,0.0867 0.08087,0.0348 0.140656,0.0733 0.200245,0.11161"
      id="path10741" />
    <path style="fill:none;stroke:#000000;stroke-width:0.1;stroke-linecap:butt;stroke-linejoin:miter;stroke-opacity:1;stroke-miterlimit:4;stroke-dasharray:none"
      d="m 2.6585694,271.37572 c -0.067401,0.11176 -0.2023872,0.33559 -0.3349431,0.56874 -0.132556,0.23315 -0.2623074,0.47496 -0.3879021,0.73795 -0.1255947,0.263 -0.246506,0.54611 -0.3558312,0.82236 -0.1093253,0.27626 -0.2066613,0.54467 -0.2967904,0.82981 -0.090129,0.28514 -0.1727126,0.58598 -0.2391905,0.85778 -0.0664779,0.2718 -0.11662534,0.51369 -0.16095481,0.77077 -0.0443295,0.25709 -0.0826682,0.52841 -0.10925948,0.73815 -0.0265912,0.20975 -0.0413403,0.35724 -0.0546479,0.55829 -0.0133076,0.20105 -0.0250964,0.45451 -0.0310088,0.71895 -0.005912,0.26444 -0.005912,0.53877 0.002946,0.80171 0.008858,0.26294 0.0265591,0.5137 0.0516705,0.78404 0.0251114,0.27034 0.0575627,0.55945 0.0959631,0.83419 0.0384004,0.27473 0.0826587,0.53438 0.14174436,0.82835 0.0590856,0.29396 0.1328469,0.62146 0.2258949,0.97446 0.093048,0.353 0.2051933,0.73075 0.3159515,1.06599 0.1107583,0.33524 0.2199673,0.62745 0.3469795,0.94055 0.1270123,0.31311 0.2716329,0.64662 0.4148799,0.95527 0.1432471,0.30865 0.2849321,0.59202 0.4467308,0.8926 0.1617986,0.30058 0.3435153,0.618 0.435317,0.78448 0.091802,0.16648 0.093588,0.18198 0.099248,0.2131 0.00566,0.0311 0.014906,0.0763 0.024319,0.12077 0.00941,0.0445 0.018786,0.0872 0.029239,0.12898 0.010453,0.0418 0.021903,0.0824 0.034982,0.12271 0.013079,0.0403 0.027631,0.0798 0.046466,0.12321 0.018835,0.0434 0.041716,0.0902 0.066278,0.13936 0.024562,0.0491 0.050607,0.10017 0.079352,0.15035 0.028745,0.0502 0.060016,0.0992 0.094502,0.14829 0.034486,0.0491 0.072018,0.0981 0.1158872,0.15139 0.043869,0.0533 0.09394,0.11064 0.1482431,0.16651 0.054303,0.0559 0.1127676,0.11016 0.1738535,0.16289 0.061086,0.0527 0.1247747,0.10389 0.1889756,0.15295 0.064201,0.0491 0.1289606,0.0961 0.2051461,0.14825 0.076186,0.0522 0.1639557,0.10964 0.307965,0.19678 0.1440093,0.0871 0.3446081,0.20415 0.5184072,0.30645 0.1737992,0.1023 0.3210654,0.19003 0.4202294,0.25214 0.099164,0.0621 0.1503204,0.0987 0.1983383,0.13205 0.048018,0.0334 0.092956,0.0637 0.1409272,0.0992 0.047971,0.0354 0.09921,0.0762 0.1508464,0.12057 0.051636,0.0443 0.1038919,0.0924 0.152422,0.14094 0.04853,0.0485 0.093444,0.0976 0.1383353,0.15295 0.044891,0.0553 0.089746,0.11688 0.1309845,0.18264 0.041238,0.0658 0.078808,0.13569 0.1070099,0.19782 0.028202,0.0621 0.046968,0.11634 0.062121,0.16336 0.015153,0.047 0.026615,0.0866 0.036556,0.1321 0.00994,0.0455 0.018258,0.0964 0.025063,0.15868 0.00681,0.0623 0.012005,0.13505 0.014126,0.19251 0.00212,0.0575 0.00112,0.0991 0.00217,0.15779 0.00104,0.0587 0.00411,0.13343 0.00618,0.22497 0.00207,0.0915 0.00311,0.1987 5.014e-4,0.30845 -0.00261,0.10976 -0.00886,0.2212 -0.017219,0.33984 -0.00836,0.11865 -0.018775,0.24362 -0.033411,0.40567 -0.014636,0.16205 -0.033386,0.35996 -0.051669,0.55428 -0.018283,0.19433 -0.036006,0.38407 -0.048544,0.53502 -0.012538,0.15094 -0.019834,0.26248 -0.025064,0.37277 -0.00523,0.11028 -0.00836,0.21859 -0.00888,0.32102 -5.261e-4,0.10243 0.00156,0.19827 0.00522,0.28453 0.00366,0.0863 0.00886,0.16222 0.018273,0.23703 0.00941,0.0748 0.022931,0.14761 0.035994,0.2072 0.013063,0.0596 0.025554,0.10539 0.037057,0.14669 0.011503,0.0413 0.021903,0.0777 0.034475,0.11439 0.012572,0.0367 0.027095,0.073 0.04541,0.11276 0.018315,0.0398 0.040179,0.0825 0.061606,0.12009 0.021427,0.0376 0.042262,0.0699 0.067363,0.1034 0.025101,0.0335 0.054233,0.0678 0.085581,0.10124 0.031348,0.0334 0.064762,0.0658 0.1065307,0.0987 0.041769,0.0329 0.091928,0.0663 0.1362867,0.0924 0.044359,0.0261 0.083026,0.0449 0.1252658,0.0637 0.04224,0.0188 0.088288,0.0376 0.1440871,0.0548 0.055799,0.0172 0.1217614,0.0329 0.1952589,0.046 0.073498,0.013 0.1551721,0.0235 0.2432787,0.0297 0.088107,0.006 0.1833768,0.008 0.2735986,0.005 0.090222,-0.003 0.1760272,-0.0116 0.2545337,-0.0196 0.078507,-0.008 0.1503587,-0.0156 0.2264002,-0.0229 0.076042,-0.007 0.1571835,-0.0143 0.2360862,-0.024 0.078903,-0.01 0.1564203,-0.0223 0.2350926,-0.04 0.078672,-0.0177 0.159385,-0.0408 0.2375388,-0.0684 0.078154,-0.0276 0.1546679,-0.0601 0.228108,-0.10077 0.07344,-0.0406 0.1447442,-0.0899 0.2030924,-0.1384 0.058348,-0.0485 0.1044656,-0.0967 0.1486896,-0.1503 0.04422,-0.0536 0.08729,-0.11348 0.121124,-0.16921 0.03384,-0.0557 0.05902,-0.1082 0.08294,-0.16646 0.02392,-0.0583 0.04703,-0.12339 0.06784,-0.20352 0.02081,-0.0801 0.0397,-0.17669 0.0522,-0.26737 0.0125,-0.0907 0.01878,-0.17657 0.0219,-0.27191 0.0031,-0.0954 0.0031,-0.20114 -0.0031,-0.32519 -0.0063,-0.12404 -0.01882,-0.26744 -0.03551,-0.41451 -0.01669,-0.14707 -0.03761,-0.29871 -0.06316,-0.45675 -0.02556,-0.15804 -0.05588,-0.32323 -0.0924,-0.50998 -0.03652,-0.18675 -0.07937,-0.39582 -0.124243,-0.61651 -0.04487,-0.2207 -0.0919,-0.45374 -0.1331177,-0.67394 -0.041222,-0.22021 -0.076749,-0.42815 -0.1023145,-0.604 -0.025565,-0.17586 -0.041242,-0.32008 -0.051675,-0.42339 -0.010433,-0.10331 -0.015662,-0.16606 -0.020349,-0.2468 -0.00469,-0.0808 -0.00888,-0.18028 -0.00991,-0.26994 -0.00104,-0.0897 0.00106,-0.17032 0.0068,-0.25734 0.00574,-0.087 0.015167,-0.1813 0.024558,-0.25796 0.00939,-0.0766 0.018815,-0.13633 0.029954,-0.18897 0.011139,-0.0526 0.024136,-0.0989 0.047067,-0.1395 0.022931,-0.0406 0.056196,-0.0762 0.093423,-0.11727 0.037227,-0.041 0.079289,-0.0883 0.1328733,-0.15025 0.05358,-0.0619 0.11973,-0.1396 0.19578,-0.23232 0.07605,-0.0927 0.163018,-0.2017 0.239668,-0.30025 0.07665,-0.0986 0.143634,-0.18752 0.210344,-0.27925 0.06671,-0.0917 0.13373,-0.18703 0.206681,-0.29437 0.07295,-0.10735 0.152546,-0.22779 0.231262,-0.35291 0.07872,-0.12512 0.157218,-0.25596 0.224483,-0.37224 0.06727,-0.11629 0.123778,-0.21885 0.195155,-0.35484 0.07138,-0.13598 0.158295,-0.30667 0.220365,-0.43343 0.06207,-0.12676 0.09974,-0.21046 0.146084,-0.31827 0.04635,-0.10781 0.101895,-0.2409 0.148306,-0.35511 0.04641,-0.11421 0.08408,-0.21048 0.12524,-0.32302 0.04116,-0.11254 0.0862,-0.24242 0.123217,-0.35297 0.03702,-0.11055 0.06633,-0.20266 0.09603,-0.30166 0.0297,-0.099 0.06008,-0.20586 0.09134,-0.32312 0.03127,-0.11726 0.06373,-0.24605 0.08772,-0.34412 0.02399,-0.0981 0.03968,-0.16607 0.05998,-0.26339 0.0203,-0.0973 0.04547,-0.22527 0.06892,-0.3577 0.02346,-0.13243 0.04543,-0.27056 0.06316,-0.39051 0.01773,-0.11995 0.03133,-0.22249 0.04644,-0.35588 0.01511,-0.13339 0.03186,-0.29882 0.04281,-0.42092 0.01095,-0.12209 0.01618,-0.20155 0.02295,-0.34681 0.0068,-0.14526 0.01515,-0.35795 0.01932,-0.48788 0.0042,-0.12993 0.0042,-0.17803 0.0021,-0.29445 -0.0021,-0.11642 -0.0063,-0.30328 -0.01098,-0.43531 -0.0047,-0.13203 -0.0099,-0.2104 -0.02034,-0.34321 -0.01042,-0.13282 -0.02613,-0.32134 -0.04491,-0.50288 -0.01878,-0.18153 -0.04073,-0.35715 -0.06786,-0.53869 -0.02713,-0.18153 -0.05953,-0.3697 -0.09501,-0.55542 -0.03548,-0.18573 -0.07415,-0.36968 -0.118496,-0.55854 -0.04435,-0.18885 -0.09451,-0.38325 -0.145649,-0.56482 -0.05113,-0.18157 -0.103384,-0.35086 -0.164424,-0.53711 -0.06104,-0.18625 -0.131062,-0.39004 -0.200986,-0.57789 -0.06992,-0.18785 -0.139926,-0.36024 -0.205675,-0.51835 -0.06575,-0.15811 -0.127395,-0.3023 -0.190528,-0.44213 -0.06313,-0.13983 -0.127924,-0.27568 -0.211924,-0.45777 -0.084,-0.18209 -0.187444,-0.41092 -0.274601,-0.60715 -0.08716,-0.19624 -0.158187,-0.36023 -0.205166,-0.46881 -0.04698,-0.10857 -0.06996,-0.16183 -0.102346,-0.1947 -0.03239,-0.0329 -0.07464,-0.0456 -0.07562,-0.0477 -9.82e-4,-0.002 0.03899,0.006 0.04642,-0.018 0.0074,-0.0244 -0.01775,-0.0821 -0.05163,-0.16029 -0.03388,-0.0782 -0.07679,-0.17761 -0.141984,-0.32834 -0.06519,-0.15073 -0.153004,-0.35353 -0.246412,-0.57009 -0.09341,-0.21657 -0.192655,-0.44744 -0.28607,-0.66141 -0.09342,-0.21397 -0.181164,-0.4114 -0.2703975,-0.61022 -0.089234,-0.19882 -0.180121,-0.3994 -0.2813579,-0.61857 -0.101237,-0.21917 -0.2130145,-0.45735 -0.317346,-0.67169 -0.1043314,-0.21434 -0.2015236,-0.40546 -0.3106152,-0.60897 -0.1090915,-0.2035 -0.2302648,-0.41973 -0.3252047,-0.58195 -0.09494,-0.16222 -0.1637801,-0.27067 -0.2111935,-0.32804 -0.047413,-0.0574 -0.073547,-0.0638 -0.125552,-0.0754 -0.052005,-0.0116 -0.1287116,-0.0282 -0.2034391,-0.0423 -0.074728,-0.0141 -0.1465688,-0.0256 -0.2459441,-0.0361 -0.099375,-0.0105 -0.2252942,-0.0198 -0.3543487,-0.024 -0.1290545,-0.004 -0.260349,-0.003 -0.3956807,0.001 -0.1353316,0.005 -0.27391,0.013 -0.396684,0.0234 -0.1227739,0.0104 -0.229049,0.0229 -0.3309702,0.0365 -0.1019213,0.0136 -0.1987507,0.0282 -0.3127498,0.0491 -0.1139991,0.0209 -0.2440916,0.048 -0.3590525,0.0741 -0.1149608,0.0261 -0.2139085,0.0511 -0.3231841,0.0815 -0.1092756,0.0303 -0.2279241,0.0657 -0.3507747,0.10597 -0.1228507,0.0402 -0.2488192,0.085 -0.3789722,0.13727 -0.1301531,0.0523 -0.2634473,0.11163 -0.3961889,0.17747 -0.1327415,0.0658 -0.2639932,0.13771 -0.376871,0.20564 -0.1128778,0.0679 -0.2066037,0.13145 -0.2855372,0.18946 -0.078934,0.058 -0.1424121,0.11004 -0.2015254,0.16182 -0.059113,0.0518 -0.1131693,0.10272 -0.1702324,0.16186 -0.057063,0.0591 -0.1162684,0.12563 -0.1685901,0.1931 -0.052322,0.0675 -0.097018,0.13504 -0.1289178,0.18575 -0.0319,0.0507 -0.050626,0.084 -0.071088,0.12386 -0.020462,0.0399 -0.042178,0.0854 -0.060523,0.12937 -0.018345,0.044 -0.032868,0.0855 -0.044908,0.12265 -0.012039,0.0371 -0.021386,0.0693 -0.031367,0.1124 -0.00998,0.0431 -0.02032,0.0958 -0.027133,0.14341 -0.00681,0.0476 -0.00994,0.0892 -0.011511,0.14056 -0.00158,0.0514 -0.00158,0.11149 5.169e-4,0.16471 0.00209,0.0532 0.00626,0.0986 0.00836,0.12156 0.0021,0.0229 0.0021,0.0231 -0.065299,0.13482 z"
      id="path10745" />
  </g>
</svg>