<?xml version="1.0" encoding="UTF-8" standalone="no"?>
<!-- Created with Inkscape (http://www.inkscape.org/) -->
<svg author="Provart Lab - Bio Analytic Resource, University of Toronto" license="CCBY4.0" xmlns:dc="http://purl.org/dc/elements/1.1/" xmlns:cc="http://creativecommons.org/ns#" xmlns:rdf="http://www.w3.org/1999/02/22-rdf-syntax-ns#"
  xmlns:svg="http://www.w3.org/2000/svg" xmlns="http://www.w3.org/2000/svg" xmlns:sodipodi="http://sodipodi.sourceforge.net/DTD/sodipodi-0.dtd"
  xmlns:inkscape="http://www.inkscape.org/namespaces/inkscape" width="300px" height="300px" viewBox="0 0 24 46" version="1.1"
  id="svg9480">
  <g id="layer1" transform="translate(0,-251)">
    <g transform="translate(-602.35751,-132.91013)" id="F5" style="stroke-width:0.13229166;stroke-miterlimit:4;stroke-dasharray:none">
      <g id="flowerDevelopmentPart5" transform="matrix(0.26458333,0,0,0.26458333,474.92599,446.54698)" style="stroke-width:0.5;stroke-miterlimit:4;stroke-dasharray:none">
        <path fill="none" style="fill-opacity:1;stroke:none;stroke-width:0.5;stroke-miterlimit:4;stroke-dasharray:none;stroke-opacity:1"
          d="m 519.53652,-65.510261 c -2.01791,-5.6701 -4.21513,-14.1707 -6.55972,-19.0758 -16.11021,-5.5257 -22.04972,-24.580999 -24.96778,-39.815299 -2.81848,-20.0632 -4.35095,-42.48973 3.4976,-62.74465 2.1075,-10.57791 6.32201,-20.48549 12.07039,-29.2805 6.88167,-5.77846 10.58705,-16.92384 20.54783,-16.21484 1.88431,-1.1218 9.8765,-0.2881 15.21215,0.36226 9.0016,3.422 13.4926,14.44812 18.05534,21.41611 3.52302,0.0688 -2.67105,2.60802 2.34494,6.35465 9.07044,22.47833 13.50214,48.48707 6.46501,72.17757 -5.67738,13.3899 -6.20796,29.664 -16.18548,40.783899 -3.30186,5.6847 -4.73378,15.6478 -7.90796,21.018 -6.82214,1.5842 -16.2755,1.1651 -21.18899,3.3298 0.77901,0.9242 -0.6714,1.5783 -1.38333,1.6888 z"
          id="path7826-5" />
      </g>
      <g id="g12162" style="stroke-width:0.13229166;stroke-miterlimit:4;stroke-dasharray:none">
        <path style="fill:none;stroke:#000000;stroke-width:0.13229166;stroke-linecap:butt;stroke-linejoin:miter;stroke-miterlimit:4;stroke-dasharray:none;stroke-opacity:1"
          d="m 620.45124,422.32519 c 0,0 -3.19894,1.10939 -5.6311,-0.20021 0,0 -7.163,-34.83309 -1.21951,-37.13102" id="path1885"
        />
        <path style="fill:none;stroke:#000000;stroke-width:0.13229166;stroke-linecap:butt;stroke-linejoin:miter;stroke-miterlimit:4;stroke-dasharray:none;stroke-opacity:1"
          d="m 611.40577,390.08602 c 0,0 -4.724,4.91109 -7.99803,13.75104" id="path1887" />
        <path style="fill:none;stroke:#000000;stroke-width:0.13229166;stroke-linecap:butt;stroke-linejoin:miter;stroke-miterlimit:4;stroke-dasharray:none;stroke-opacity:1"
          d="m 614.82014,422.12498 c 0,0 -0.62066,2.21302 -4.16904,2.04194" id="path1889" />
      </g>
    </g>
    <path style="fill:none;stroke:#000000;stroke-width:0.1;stroke-linecap:butt;stroke-linejoin:miter;stroke-opacity:1;stroke-miterlimit:4;stroke-dasharray:none"
      d="m 8.3395369,291.35561 c 0.045947,0.0988 0.1378933,0.29659 0.248869,0.57864 0.1109757,0.28205 0.2408281,0.648 0.3530595,0.97583 0.1122314,0.32783 0.2066873,0.6171 0.3130259,0.95089 0.1063385,0.33378 0.2243914,0.71155 0.3307169,1.05415 0.1063256,0.34261 0.2007775,0.64958 0.2728119,0.87517 0.072034,0.22559 0.1215585,0.3695 0.1808329,0.43153 0.05928,0.062 0.127781,0.0421 0.185563,0.0144 0.05778,-0.0277 0.105243,-0.0633 0.140578,-0.0957 0.03533,-0.0324 0.0591,-0.0621 0.06215,-0.10853 0.0031,-0.0464 -0.01457,-0.11108 0.01799,-0.15825 0.03256,-0.0472 0.115176,-0.0777 0.224023,-0.11353 0.108848,-0.0358 0.245209,-0.0773 0.410347,-0.11859 0.165139,-0.0413 0.360498,-0.0827 0.578816,-0.11812 0.218318,-0.0354 0.46083,-0.065 0.741167,-0.0945 0.280338,-0.0295 0.599634,-0.0591 0.944966,-0.0945 0.345331,-0.0354 0.717727,-0.0768 0.974579,-0.10336 0.256853,-0.0266 0.398703,-0.0384 0.584512,-0.0649 0.185809,-0.0265 0.416597,-0.068 0.606879,-0.10211 0.190281,-0.0341 0.3409,-0.0611 0.464748,-0.17918 0.123848,-0.11804 0.221671,-0.32774 0.311757,-0.52673 0.09009,-0.19899 0.172892,-0.38827 0.270228,-0.65079 0.09734,-0.26253 0.209737,-0.59973 0.33369,-1.00111 0.123952,-0.40138 0.259915,-0.86838 0.38096,-1.25512 0.121045,-0.38673 0.227421,-0.69404 0.327788,-0.95379 0.100367,-0.25975 0.194957,-0.47258 0.276302,-0.64504 0.08135,-0.17245 0.149721,-0.30514 0.276511,-0.48498 0.12679,-0.17985 0.312913,-0.40815 0.506005,-0.67835 0.193093,-0.2702 0.394147,-0.58361 0.571228,-0.89352 0.17708,-0.30991 0.330786,-0.61732 0.487195,-0.96557 0.15641,-0.34824 0.316032,-0.73844 0.466561,-1.15167 0.150529,-0.41323 0.292385,-0.85062 0.434067,-1.32291 0.141682,-0.47228 0.283527,-0.98056 0.44588,-1.57389 0.162353,-0.59333 0.34555,-1.27293 0.502036,-1.80732 0.156486,-0.53439 0.286476,-0.92436 0.377994,-1.19892 0.09152,-0.27455 0.144715,-0.43414 0.2104,-0.60663 0.06569,-0.17248 0.144183,-0.35873 0.207187,-0.53767 0.063,-0.17895 0.110878,-0.35156 0.169161,-0.57215 0.05828,-0.2206 0.127316,-0.49045 0.181574,-0.71897 0.05426,-0.22853 0.09398,-0.41667 0.139866,-0.65551 0.04589,-0.23885 0.09817,-0.52956 0.147213,-0.84571 0.04904,-0.31616 0.09502,-0.65896 0.133631,-1.00542 0.03861,-0.34646 0.06995,-0.69755 0.09395,-1.04402 0.024,-0.34647 0.04072,-0.68919 0.05115,-1.0148 0.01043,-0.3256 0.01461,-0.63488 0.0094,-0.99384 -0.0052,-0.35896 -0.01985,-0.76857 -0.03655,-1.11927 -0.0167,-0.35069 -0.03551,-0.6432 -0.05847,-0.92393 -0.02296,-0.28072 -0.05013,-0.5503 -0.08561,-0.85292 -0.03548,-0.30261 -0.07937,-0.63908 -0.129463,-0.97827 -0.0501,-0.33918 -0.106512,-0.68185 -0.167047,-1.02105 -0.06054,-0.3392 -0.125305,-0.67558 -0.199408,-1.02417 -0.0741,-0.34859 -0.157675,-0.71004 -0.242219,-1.0576 -0.08455,-0.34757 -0.170199,-0.68183 -0.259961,-1.0106 -0.08976,-0.32878 -0.183774,-0.6526 -0.287104,-0.98868 -0.10333,-0.33608 -0.216145,-0.68497 -0.341396,-1.0555 -0.125251,-0.37053 -0.263128,-0.76327 -0.400866,-1.13705 -0.137739,-0.37379 -0.275516,-0.72911 -0.352705,-0.91172 -0.07719,-0.1826 -0.09397,-0.19283 -0.133868,-0.22523 -0.0399,-0.0324 -0.102252,-0.0865 -0.156039,-0.14023 -0.05379,-0.0538 -0.09868,-0.10704 -0.133146,-0.153 -0.03447,-0.046 -0.05847,-0.0846 -0.07831,-0.12008 -0.01984,-0.0355 -0.03552,-0.0679 -0.04907,-0.10078 -0.01356,-0.0329 -0.02507,-0.0664 -0.0334,-0.10126 -0.0083,-0.0349 -0.01358,-0.0717 -0.01669,-0.10243 -0.0031,-0.0307 -0.0041,-0.0559 -0.0031,-0.0871 0.0011,-0.0312 0.0042,-0.0691 0.0099,-0.106 0.0057,-0.0369 0.01417,-0.0738 0.02406,-0.1071 0.0099,-0.0333 0.02147,-0.0638 0.03599,-0.10006 0.01452,-0.0363 0.03248,-0.0796 0.05327,-0.12481 0.0208,-0.0452 0.045,-0.0936 0.06165,-0.12955 0.01666,-0.0359 0.02613,-0.0601 0.03181,-0.0814 0.0057,-0.0212 0.0078,-0.0402 0.0072,-0.0544 -6.02e-4,-0.0142 -0.0037,-0.0234 -0.0084,-0.0328 -0.0047,-0.009 -0.01086,-0.0186 -0.02027,-0.0275 -0.0094,-0.009 -0.02183,-0.0172 -0.03963,-0.0245 -0.0178,-0.007 -0.04054,-0.0135 -0.06407,-0.0188 -0.02353,-0.005 -0.0475,-0.009 -0.07578,-0.012 -0.02828,-0.003 -0.06036,-0.004 -0.083,-0.0131 -0.02264,-0.009 -0.03507,-0.027 -0.09079,-0.11609 -0.05572,-0.089 -0.15519,-0.25029 -0.263743,-0.43034 -0.108553,-0.18005 -0.226582,-0.37955 -0.338271,-0.57005 -0.111688,-0.1905 -0.21718,-0.37224 -0.319992,-0.54759 -0.102812,-0.17536 -0.203082,-0.34457 -0.299108,-0.50374 -0.09603,-0.15917 -0.187946,-0.30854 -0.281363,-0.45466 -0.09342,-0.14613 -0.188468,-0.28923 -0.28032,-0.42439 -0.09185,-0.13517 -0.180634,-0.2626 -0.276137,-0.39306 -0.0955,-0.13047 -0.197858,-0.26416 -0.305369,-0.3962 -0.107511,-0.13205 -0.220298,-0.26259 -0.331992,-0.38472 -0.111694,-0.12213 -0.22238,-0.23595 -0.338255,-0.3466 -0.115874,-0.11066 -0.236984,-0.2182 -0.354435,-0.31477 -0.117452,-0.0966 -0.231227,-0.18216 -0.333022,-0.25368 -0.101795,-0.0715 -0.191548,-0.12892 -0.289186,-0.18636 -0.09764,-0.0574 -0.203014,-0.11482 -0.318551,-0.17078 -0.115537,-0.056 -0.240947,-0.11035 -0.317105,-0.13909 -0.07616,-0.0287 -0.103029,-0.0317 -0.266548,-0.0501 -0.163519,-0.0183 -0.458491,-0.0515 -0.762418,-0.0823 -0.303927,-0.0308 -0.613753,-0.059 -0.899392,-0.0804 -0.285638,-0.0214 -0.546444,-0.036 -0.733368,-0.0438 -0.186925,-0.008 -0.299572,-0.009 -0.401992,-0.008 -0.102419,5e-4 -0.194082,0.002 -0.261487,0.004 -0.0674,0.002 -0.110075,0.004 -0.16981,0.009 -0.05974,0.005 -0.135468,0.0135 -0.201868,0.0229 -0.0664,0.009 -0.122562,0.0198 -0.17279,0.0318 -0.05023,0.012 -0.09384,0.0255 -0.126978,0.0382 -0.03314,0.0127 -0.05522,0.0243 -0.09851,0.0285 -0.0433,0.004 -0.105731,8.8e-4 -0.171466,1.8e-4 -0.06573,-7.1e-4 -0.133332,0.001 -0.198705,0.004 -0.06537,0.003 -0.12775,0.007 -0.187897,0.0135 -0.06015,0.006 -0.117315,0.0146 -0.179086,0.0256 -0.06177,0.011 -0.127204,0.0245 -0.189449,0.0396 -0.06225,0.0152 -0.120435,0.0318 -0.17118,0.0475 -0.05075,0.0157 -0.09334,0.0303 -0.122619,0.0407 -0.02928,0.0105 -0.044851,0.0167 -0.081445,0.0315 -0.036593,0.0148 -0.091821,0.0374 -0.1514946,0.0646 -0.059673,0.0272 -0.1219769,0.0584 -0.1874011,0.094 -0.065424,0.0356 -0.1329536,0.0751 -0.2014887,0.11848 -0.068535,0.0434 -0.1371402,0.0902 -0.1873231,0.12521 -0.050183,0.035 -0.081382,0.0579 -0.1318202,0.0984 -0.050439,0.0404 -0.1186896,0.0973 -0.1835481,0.15277 -0.064858,0.0554 -0.1251592,0.10846 -0.1874411,0.16655 -0.062282,0.0581 -0.1256556,0.12042 -0.193158,0.19001 -0.067502,0.0696 -0.1381816,0.14547 -0.2161241,0.2323 -0.077942,0.0868 -0.1621922,0.18356 -0.2578792,0.29703 -0.095687,0.11346 -0.2018662,0.24254 -0.334637,0.40876 -0.1327707,0.16622 -0.2911095,0.36831 -0.4148886,0.52552 -0.1237791,0.15721 -0.2123937,0.26876 -0.3033426,0.38114 -0.090949,0.11238 -0.1836247,0.22484 -0.2693399,0.32519 -0.085715,0.10036 -0.1637958,0.18781 -0.2301669,0.26149 -0.066371,0.0737 -0.1205072,0.13304 -0.189075,0.20423 -0.068568,0.0712 -0.1506591,0.15328 -0.2322733,0.23015 -0.081614,0.0769 -0.1618213,0.14763 -0.2586305,0.27214 -0.096809,0.12452 -0.2090751,0.30138 -0.3177026,0.47745 -0.1086275,0.17606 -0.2128494,0.35011 -0.3074119,0.51259 -0.094562,0.16247 -0.1789809,0.31255 -0.2547454,0.45049 -0.075764,0.13794 -0.1424414,0.26296 -0.2130091,0.39782 -0.070568,0.13486 -0.1445063,0.27857 -0.218195,0.42646 -0.073689,0.1479 -0.1466093,0.29895 -0.2202953,0.45677 -0.073686,0.15782 -0.147656,0.32139 -0.2082593,0.45826 -0.060603,0.13688 -0.1074903,0.24628 -0.173392,0.40475 -0.065902,0.15847 -0.1502195,0.36459 -0.228061,0.56467 -0.077841,0.20008 -0.1487235,0.39292 -0.2051392,0.54962 -0.056416,0.15671 -0.098106,0.27657 -0.1488253,0.43133 -0.050719,0.15477 -0.110072,0.34324 -0.1560385,0.49106 -0.045967,0.14782 -0.078277,0.25413 -0.1138347,0.37753 -0.035558,0.1234 -0.074073,0.26289 -0.1059479,0.38202 -0.031874,0.11913 -0.056873,0.21704 -0.083543,0.32424 -0.02667,0.1072 -0.054768,0.22271 -0.083522,0.34714 -0.028754,0.12442 -0.057907,0.25665 -0.08129,0.36508 -0.023383,0.10843 -0.040819,0.19224 -0.05176,0.24079 -0.010941,0.0485 -0.015361,0.0616 -0.042716,0.13282 -0.027355,0.0713 -0.075229,0.19452 -0.1343111,0.35973 -0.059082,0.16521 -0.1278134,0.36828 -0.1952107,0.5783 -0.067397,0.21002 -0.1330663,0.42579 -0.1889591,0.6154 -0.055893,0.18961 -0.1017628,0.35224 -0.139381,0.49225 -0.037618,0.14001 -0.066796,0.25672 -0.099733,0.39317 -0.032937,0.13645 -0.069382,0.2916 -0.097586,0.41382 -0.028204,0.12221 -0.048013,0.21083 -0.071553,0.32172 -0.02354,0.1109 -0.05059,0.24303 -0.077246,0.37996 -0.026656,0.13693 -0.052697,0.27755 -0.077259,0.41812 -0.024563,0.14057 -0.047482,0.28017 -0.071523,0.4333 -0.024041,0.15313 -0.049045,0.31878 -0.074127,0.50218 -0.025083,0.18341 -0.050094,0.3835 -0.073081,0.58515 -0.022987,0.20165 -0.043837,0.40389 -0.066304,0.65885 -0.022467,0.25496 -0.046446,0.56147 -0.063682,0.83094 -0.017236,0.26947 -0.027667,0.50103 -0.036548,0.75071 -0.00888,0.24968 -0.016181,0.51663 -0.02036,0.77516 -0.00418,0.25852 -0.00522,0.50779 -0.00313,0.7726 0.00209,0.26482 0.0073,0.54432 0.014091,0.79969 0.00679,0.25537 0.015132,0.48588 0.025578,0.72406 0.010446,0.23817 0.02296,0.48324 0.03706,0.71827 0.014101,0.23503 0.029744,0.45925 0.045411,0.66607 0.015667,0.20682 0.031311,0.39559 0.047503,0.57998 0.016192,0.18438 0.032875,0.36373 0.052204,0.56746 0.019329,0.20374 0.041223,0.43103 0.066292,0.66711 0.025069,0.23607 0.053228,0.48012 0.085087,0.74596 0.031859,0.26585 0.067322,0.55268 0.1012645,0.81326 0.033943,0.26058 0.066281,0.49425 0.087687,0.64932 0.021406,0.15506 0.031839,0.23122 0.056949,0.36829 0.025109,0.13706 0.064666,0.3338 0.1080166,0.54272 0.043351,0.20893 0.090283,0.42899 0.1419868,0.65461 0.051703,0.22562 0.1080292,0.45614 0.1675622,0.69009 0.059533,0.23396 0.1221232,0.47076 0.1863545,0.69949 0.064231,0.22873 0.1299548,0.44885 0.1983649,0.6661 0.06841,0.21725 0.1393482,0.43111 0.1993966,0.60864 0.060048,0.17754 0.1090815,0.31838 0.1560854,0.44478 0.047004,0.12639 0.091849,0.23798 0.1529709,0.38687 0.061122,0.14888 0.1382868,0.33449 0.2171402,0.51518 0.078853,0.18069 0.1591852,0.35596 0.2281113,0.50112 0.068926,0.14517 0.1263061,0.25993 0.1889804,0.38162 0.062674,0.1217 0.130471,0.24999 0.2213468,0.40824 0.090876,0.15825 0.2045919,0.34604 0.301704,0.5011 0.097112,0.15507 0.1774689,0.27717 0.2505661,0.38369 0.073097,0.10651 0.1388431,0.19731 0.2192612,0.30488 0.080418,0.10757 0.1753734,0.23174 0.2735342,0.35183 0.098161,0.1201 0.1993988,0.23595 0.3189567,0.36595 0.1195579,0.13 0.2573397,0.27404 0.3789837,0.39308 0.1216439,0.11903 0.2270826,0.21298 0.3231421,0.29599 0.096059,0.083 0.182708,0.15504 0.2563192,0.21298 0.073611,0.058 0.1341532,0.10179 0.2108611,0.15711 0.076708,0.0553 0.1696997,0.12218 0.2683367,0.18794 0.098637,0.0657 0.2031104,0.13053 0.2996549,0.18793 0.096545,0.0574 0.1853702,0.10757 0.2683265,0.15296 0.082956,0.0454 0.160308,0.0861 0.2474306,0.12893 0.087123,0.0428 0.184321,0.0877 0.288666,0.13206 0.104345,0.0443 0.2161903,0.0882 0.3033144,0.1218 0.087124,0.0336 0.1497951,0.0569 0.181029,0.0685 0.031234,0.0116 0.031156,0.0122 0.077103,0.111 z"
      id="path9529" />
  </g>
</svg>