<svg xmlns="http://www.w3.org/2000/svg" width="75" height="75" viewBox="0 0 612 792" xml:space="preserve" license="CCBY4.0" author="Provart Lab - Bio Analytic Resource, University of Toronto">
  <g fill="none" id="background">
    <path d="M360 36c-42 7-81 22-117 44l-2 2-3-23-21 24c-21 24-22 29-22 30l-2 1-1-1c-1-2-5-11-6-20l-26 64c0 1-41 53-44 70 6 5 55 52 104 73 2-15 5-23 11-24l14-2c2-1 13-11 18-12 1 0 9-3 23 4 0 0 16 6 45-26-5 0-17 0-40-3v-2l43 2h1l3-1c20-2 48-6 57-11l-19-2h-4c-10 0-34-5-77-16l-7-2h-1l-1-1v-1l3-1h16c3-3 14-6 23-9-6-1-13-3-21-7l-22-11 2-3 21 11c13 6 23 9 29 8l3-1 1 3-3 1c-15 4-29 8-31 10v1h-7a1236 1236 0 0 0 75 15c2-1 190-115 193-158a379 379 0 0 0-208-26zM231 155c5-10-1-21-5-29 0 13-11 33-12 35l-3-1 8-18c4-11 5-18 3-22l-1-1 3-2 1 1 7 12c4 10 5 19 2 27l-3-2zm38 31s-17 32-12 48l-3 1c-5-15 8-43 12-49-3-1-9-1-17 1l-13 5-1-2c3-2 26-12 34-6l1 1-1 1zm-11-52-3-2c6-13 19-23 28-30l15-9c-21-4-52 16-52 16l-2-3c1 0 9-6 21-10 15-7 28-9 37-5l4 1-4 2s-33 16-44 40zm113 15-28 1c-23 2-32 6-35 9l-2-2c8-9 41-11 56-11-39-12-84 3-84 3l-1-3c1 0 52-17 95 0l7 3h-8z"/>
    <path d="M284 268c-12-6-20-3-20-3-4 1-13 8-17 11-1 2-10 3-16 3-5 1-14 19-6 118 5 58 13 115 13 116l1 10-4-9C223 487 60 357 58 356l2-3c6 6 147 117 174 153a2310 2310 0 0 1-15-189l1-14c-53-22-106-73-106-74h-1v-2c-2-10-11-37-22-38 0 0-27-3-40 77 0 1-9 70 7 85l2 2-11 1c5 9 4 40-2 89 1 4 14 49 27 63 2 2 42 35 72 106v1c8 36 20 92 23 98h1v1s3 10 13 19c17 17 42 21 60 21 1 0 63 17 93-15 1-1 70-66 75-85 0-1 15-51 26-112 9-57 17-135 0-186-1-2-20-43-89-75 0-1-21-15-17-35-29 31-46 25-47 24zm51-31 3-1-3 1z"/>
    <path d="m334 237-43-2v2c23 3 35 3 40 3-29 32-45 26-45 26-14-7-22-4-23-4-5 1-16 11-18 12l-14 2c-6 1-9 9-11 24l2 1-1 3-1-1-1 14c-1 19 1 47 3 80 4 46 10 92 12 109-27-36-168-147-174-153l-2 3c2 1 165 131 177 158l4 9-1-10c0-1-8-58-13-116-8-99 1-117 6-118 6 0 15-1 16-3 4-3 13-10 17-11 0 0 8-3 20 3 1 1 18 7 47-24l2-7h1zm8-22a1239 1239 0 0 1-36-10h1v-1a150 150 0 0 1 34-11l-1-3-3 1c-6 1-16-2-29-8l-21-11-2 3a216 216 0 0 0 43 18c-9 3-20 6-23 9a199 199 0 0 1-19 1v1l1 1h1l7 2a441 441 0 0 0 81 16l-4-1 3-2c-2 1-8 1-33-5zm-7 22h-1 1z"/>
    <path d="M570 60a376 376 0 0 0-210-27c-42 7-81 21-117 43l-2-23-3 2a853 853 0 0 0-45 54c-2-6-5-16-3-23l1-4-2-2-2 5-29 71c-3 3-36 45-43 65-3-11-12-34-23-34-1-1-6-1-12 3-10 7-24 26-32 76 0 3-8 65 6 85h-9v3c0 1 10 4-1 89h-1 1c0 2 13 50 28 66 0 0 41 32 71 104a4902 4902 0 0 0 24 100c1 2 4 11 14 21 17 16 43 21 62 21a156 156 0 0 0 37 5c26 0 45-7 58-21 3-3 71-67 76-87 0 0 15-50 26-112 17-103 10-159 0-187v-1s-5-11-18-25-36-34-73-51c0-1-6-5-10-11-6-8-7-17-3-26 9 0 58-5 63-14l1-2-20-3c28-17 191-118 191-159v-1h-1zM375 220l2 2-1 1 19 2c-9 5-37 9-57 11l-2 3-5 5c-4 20 17 34 17 35 69 32 88 73 89 75 17 51 9 129 0 186-11 61-26 111-26 112-5 19-74 84-75 85-30 32-92 15-93 15-18 0-43-4-60-21a46 46 0 0 1-13-19v-1h-1c-3-6-15-62-23-98v-1c-30-71-70-104-72-106-13-14-26-59-27-63 6-49 7-80 2-89l11-1-2-2c-16-15-7-84-7-85 13-80 40-77 40-77 11 1 20 28 23 38v2c0 1 53 52 106 74v-3c-49-21-98-68-103-73 2-17 43-69 43-70l26-64a68 68 0 0 0 7 21l2-1a850 850 0 0 1 43-53l3 22 2-2a321 321 0 0 1 222-46c56 7 97 25 103 28-3 43-191 157-193 158z"/>
    <path d="M335 237h-2l-2 7 5-5 2-3-3 1zm-113 64-2-1v3l1 1 1-3zm154-78 1-1-2-2-3 2 4 1zm-144-93a72 72 0 0 0-8-13l-3 2 1 1c2 4 1 11-3 22l-8 18 3 1c1-2 12-22 12-35 4 8 10 19 5 29l3 2c3-8 2-17-2-27zm74-38-4-1c-9-4-22-2-37 5-12 4-20 10-21 10l2 3s31-20 52-16l-15 9c-9 7-22 17-28 30l3 2c11-24 44-40 44-40l4-2zm-29 54 1 3s45-15 84-3c-15 0-48 2-56 11l2 2c3-3 12-7 35-9l28-1h8l-7-3c-43-17-94 0-95 0zm-42 44 1 2 13-5c8-2 14-2 17-1-4 6-17 34-12 49l3-1c-5-16 12-48 12-48l1-1-1-1c-8-6-31 4-34 6z"/>
  </g>
  <g fill="none" stroke="#020002" stroke-width="3" stroke-miterlimit="10" id="seed">
    <path d="M59 355s165 131 177 158c0 0-31-230-5-235 0 0 14-1 15-3 0 0 13-11 17-12 0 0 8-3 22 4 0 0 18 8 50-29 0 0-9 1-44-2m-5-62s39 24 54 18c0 0-32 8-34 11h-18c-1-1 83 24 88 18"/>
    <path d="M222 303c-54-22-107-75-107-75v-1s-10-38-23-39c0 0-28-5-42 78 0 0-9 71 7 86l-12 1s13-3 0 90c0 0 14 50 28 65 0 0 41 32 72 105 0 0 21 100 24 100 0 0 10 39 74 41 0 0 63 18 94-16 0 0 71-66 76-86 0 0 59-199 26-299 0 0-19-42-90-76 0 0-24-16-14-39 0 0 58-5 63-14l-22-3S570 104 570 61c0 0-169-81-328 18l-2-23s-50 51-46 57c0 0-11-22-4-32l-31 75s-42 53-44 71"/>
    <path d="M213 161s18-35 10-43c0 0 17 21 10 38m12-48s35-23 57-16c0 0-34 17-45 41m21 15s51-17 93 0c0 0-53-1-64 10m-71 33s24-11 32-6c0 0-18 33-12 50"/>
  </g>
</svg>