<?xml version="1.0" encoding="utf-8"?>
<!-- Generator: Adobe Illustrator 16.0.0, SVG Export Plug-In . SVG Version: 6.00 Build 0) -->
<!DOCTYPE svg PUBLIC "-//W3C//DTD SVG 1.1//EN" "http://www.w3.org/Graphics/SVG/1.1/DTD/svg11.dtd">
<svg author="Provart Lab - Bio Analytic Resource, University of Toronto" license="CCBY4.0" version="1.1" xmlns="http://www.w3.org/2000/svg" xmlns:xlink="http://www.w3.org/1999/xlink" x="0px" y="0px" width="75px"
    height="75px" viewBox="0 0 612 792" enable-background="new 0 0 612 792" xml:space="preserve">
	<g id="background">
		<g>
			<path fill="none" d="M360.431,35.913c-41.979,6.97-81.557,21.896-117.638,44.361l-2.026,1.261l-2.409-22.16
                   			c-4.001,4.226-12.798,13.613-21.364,23.408c-21.212,24.258-21.877,29.086-21.725,29.897c0.043,0.089,0.068,0.14,0.073,0.149
                   			l-2.59,1.503c-0.152-0.229-0.329-0.494-0.438-0.874c-1.211-2.568-5.115-11.385-5.971-20.048
                   			c-6.668,15.74-18.454,43.885-25.94,63.622l-0.083,0.217l-0.144,0.182c-0.417,0.526-41.621,52.69-43.676,69.656v0.197
                   			c5.188,5.031,54.462,52.065,103.735,73.055c1.693-15.37,5.097-23.195,10.46-24.308l0.213-0.028
                   			c6.071-0.371,13.295-1.18,14.496-1.851c1.578-1.403,12.629-11.117,17.516-12.263c1.096-0.371,9.359-2.763,22.737,3.763
                   			c0.092,0.035,16.33,6.186,45.535-26.002c-5.26,0.085-17.028-0.13-40.322-2.156l0.26-2.988c31.566,2.745,41.923,2.119,43.229,2.017
                   			l0.161-0.014l3.787-0.399l-0.05,0.057c19.815-1.915,48.008-6.139,56.355-11.114l-18.274-2.492
                   			c-0.943,0.461-2.45,0.699-4.584,0.699c-9.929,0-33.407-5.123-76.568-16.512c-3.25-0.858-5.962-1.574-7.195-1.876
                   			c-0.9-0.117-1.127-0.253-1.263-0.334l-1.116-0.67l0.493-1.213c0.428-1.017,0.995-1.072,2.68-0.674
                   			c2.443,0.212,9.821,0.08,16.605-0.205c2.952-2.319,13.493-5.742,22.52-8.389c-5.781-1.065-12.805-3.46-21.027-7.176
                   			c-11.641-5.26-21.571-11.373-21.67-11.435l1.577-2.552c0.097,0.061,9.887,6.085,21.356,11.266
                   			c12.729,5.749,22.546,8.257,28.707,7.372c1.173-0.32,2.193-0.593,3.014-0.811l0.962,2.834c-0.994,0.414-2.098,0.715-3.308,0.904
                   			c-14.288,3.903-28.855,8.609-30.298,10.331l-0.425,0.612l-0.731,0.016c-2.193,0.095-4.135,0.167-5.853,0.221
                   			c10.672,2.807,26.974,7.035,41.625,10.32c25.023,5.611,31.205,5.308,32.728,4.823l0.661-0.398
                   			c1.913-1.152,189.965-114.856,192.742-157.771c-6.376-2.904-46.667-20.468-102.888-27.594
                   			C429.24,29.808,394.031,30.333,360.431,35.913z M231.366,155.421c4.149-9.928-0.876-21.88-5.186-29.395
                   			c-0.581,13.027-10.861,32.641-12.358,35.433l-2.644-1.418c0.046-0.085,4.627-8.667,8.111-18.148
                   			c3.907-10.633,4.933-18.31,2.976-21.954c-0.563-0.78-0.912-1.221-0.936-1.25l2.231-1.999c0.453,0.453,0.841,0.964,1.169,1.526
                   			c1.522,2.098,4.409,6.375,6.883,11.751c4.678,10.163,5.549,19.365,2.521,26.612L231.366,155.421z M269.069,185.715
                   			c-0.174,0.322-17.378,32.375-12.144,48.317l-2.851,0.936c-5.056-15.397,8.305-42.851,11.645-49.33
                   			c-3.077-1.109-8.768-0.482-16.316,1.819c-6.889,2.101-12.967,4.878-13.028,4.906l-1.252-2.727
                   			c2.587-1.188,25.51-11.447,33.486-5.866l1.096,0.767L269.069,185.715z M257.853,133.648l-2.705-1.297
                   			c6.206-12.94,18.382-23.526,27.504-30.129c6.137-4.442,11.659-7.682,15.03-9.532c-20.738-4.022-51.535,15.853-51.862,16.066
                   			l-1.64-2.513c0.365-0.238,9.061-5.88,20.557-10.66c15.617-6.493,28.241-8.09,37.522-4.745l3.347,1.207l-3.201,1.554
                   			C302.075,93.76,269.235,109.914,257.853,133.648z M371.229,149c-0.136-0.004-13.49-0.172-27.938,1.059
                   			c-23.778,2.026-32.122,6.123-34.935,9.202l-2.215-2.022c8.252-9.038,40.46-10.846,56.303-11.181
                   			c-39.847-11.687-84,2.708-84.471,2.865l-0.948-2.846c0.515-0.171,52.015-16.975,94.779,0.029l7.562,3.007L371.229,149z"
			/>
			<path fill="none" d="M284.403,268.376c-12.872-6.278-20.476-3.661-20.551-3.635l-0.204,0.059
                   			c-3.51,0.752-12.968,8.667-16.316,11.653c-1.821,1.459-10.825,2.211-16.123,2.537c-5.699,1.354-13.933,18.657-5.984,118.203
                   			c4.589,57.479,12.515,115.026,12.595,115.601l1.48,10.693l-4.339-9.885C223.245,486.919,59.719,357.15,58.068,355.843l1.863-2.352
                   			c6.35,5.031,146.903,116.577,173.996,152.834c-2.234-17.008-8.027-62.972-11.693-108.894c-2.702-33.84-3.738-61.047-3.08-80.864
                   			c0.16-4.816,0.416-9.178,0.768-13.105c-52.653-22.11-105.446-73.954-105.977-74.479l-0.445-0.44v-1.351
                   			c-2.765-10.54-11.961-37.32-22.056-37.694l-0.208-0.022c-0.254-0.038-26.755-3.271-40.257,76.773
                   			c-0.08,0.638-8.708,69.856,7.048,84.657l2.457,2.308l-11.688,0.974c5.274,9.03,4.501,40.18-2.268,88.71
                   			c1.144,4.103,14.015,49.454,27.486,63.492c2.114,1.717,41.752,34.624,71.867,106.025l0.084,0.267
                   			c7.924,36.674,20.405,91.889,23.298,98.316h0.403l0.287,1.132c0.024,0.094,2.583,9.704,12.79,19.358
                   			c17.116,16.191,42.234,20.09,60.291,20.51l0.377,0.058c0.622,0.179,62.479,17.353,92.488-15.076l0.075-0.076
                   			c0.702-0.657,70.233-65.924,75.07-85.27c0.167-0.562,14.996-50.391,25.565-111.808c9.732-56.555,17.744-134.769,0.658-186.291
                   			c-0.831-1.792-20.528-42.738-89.236-74.845l-0.221-0.127c-0.226-0.157-20.35-14.428-16.592-34.526
                   			C301.726,275.361,285.127,268.69,284.403,268.376z" />
			<path fill="none" d="M334.52,236.508l0.019-0.001c1.199-0.104,2.442-0.218,3.719-0.341l0.05-0.057L334.52,236.508z" />
			<path fill="none" d="M333.653,236.583l0.705-0.061c-1.306,0.102-11.662,0.728-43.229-2.017l-0.26,2.988
                   			c23.294,2.025,35.062,2.241,40.322,2.156c-29.205,32.188-45.442,26.037-45.535,26.002c-13.378-6.526-21.642-4.133-22.737-3.763
                   			c-4.886,1.146-15.938,10.859-17.516,12.263c-1.201,0.671-8.425,1.48-14.496,1.851l-0.213,0.028
                   			c-5.363,1.113-8.768,8.938-10.46,24.308c0.622,0.265,1.243,0.528,1.864,0.785l-1.144,2.773c-0.344-0.142-0.688-0.291-1.032-0.435
                   			c-0.353,3.927-0.608,8.289-0.768,13.105c-0.658,19.817,0.378,47.024,3.08,80.864c3.667,45.922,9.459,91.886,11.693,108.894
                   			C206.834,470.068,66.281,358.522,59.932,353.491l-1.863,2.352c1.65,1.308,165.177,131.076,176.892,157.76l4.339,9.885
                   			l-1.48-10.693c-0.08-0.574-8.005-58.121-12.595-115.601c-7.948-99.546,0.286-116.849,5.984-118.203
                   			c5.298-0.326,14.302-1.078,16.123-2.537c3.348-2.986,12.806-10.901,16.316-11.653l0.204-0.059
                   			c0.075-0.026,7.679-2.644,20.551,3.635c0.724,0.314,17.323,6.985,46.817-24.336c0.402-2.152,1.071-4.369,2.075-6.644
                   			L333.653,236.583z" />
			<path fill="none" d="M341.838,215.29c-14.651-3.285-30.953-7.514-41.625-10.32c1.717-0.053,3.659-0.125,5.853-0.221l0.731-0.016
                   			l0.425-0.612c1.442-1.722,16.01-6.428,30.298-10.331c1.21-0.189,2.313-0.49,3.308-0.904l-0.962-2.834
                   			c-0.82,0.218-1.841,0.491-3.014,0.811c-6.161,0.885-15.978-1.623-28.707-7.372c-11.469-5.181-21.259-11.205-21.356-11.266
                   			l-1.577,2.552c0.099,0.062,10.03,6.174,21.67,11.435c8.223,3.715,15.246,6.11,21.027,7.176c-9.026,2.646-19.567,6.07-22.52,8.389
                   			c-6.784,0.285-14.162,0.417-16.605,0.205c-1.686-0.398-2.252-0.343-2.68,0.674l-0.493,1.213l1.116,0.67
                   			c0.135,0.081,0.362,0.217,1.263,0.334c1.233,0.302,3.945,1.018,7.195,1.876c43.161,11.39,66.639,16.512,76.568,16.512
                   			c2.134,0,3.641-0.237,4.584-0.699l-4.759-0.649l2.986-1.798C373.043,220.598,366.861,220.9,341.838,215.29z"
			/>
			<path fill="none" d="M334.52,236.508l-0.161,0.014c0.093-0.007,0.143-0.012,0.148-0.013L334.52,236.508z" />
			<path fill="none" d="M570.149,59.648c-0.423-0.204-43.056-20.446-104.585-28.261c-36.146-4.592-71.658-4.068-105.56,1.555
                   			c-41.609,6.901-80.881,21.543-116.771,43.533l-2.59-23.83l-2.226,2.315c-0.124,0.129-12.536,13.058-24.299,26.554
                   			c-12.937,14.843-18.453,22.735-20.628,27.103c-2.262-5.614-5.586-15.68-3.866-22.927c1.083-2.537,1.718-4.016,1.753-4.097
                   			l-2.626-1.425c-0.899,1.349-1.529,2.859-1.941,4.472c-5.166,12.108-20.168,47.506-29.131,71.111
                   			c-2.858,3.618-35.335,44.979-42.748,65.55c-3.381-11.027-11.85-34.262-23.294-34.796c-0.844-0.112-5.626-0.494-11.908,3.929
                   			c-9.838,6.928-23.326,25.618-31.718,75.376c-0.355,2.784-8.179,65.634,5.912,84.941l-8.852,0.738
                   			c-0.149,0.003-0.287,0.021-0.41,0.05l0.461,2.95c-0.022,0-0.033-0.002-0.034-0.002c0.104,0.021,10.338,3.082-1.576,88.306
                   			l-0.042,0.306l0.081,0.297c0.556,2.036,13.769,50.045,28.369,65.148l0.149,0.134c0.401,0.317,40.502,32.562,70.993,104.777
                   			c0.439,2.03,5.629,25.979,11.037,49.63c8.655,37.854,11.45,47.565,13.021,50.057c0.495,1.722,3.501,10.945,13.407,20.383
                   			c17.749,16.908,43.61,21.016,62.251,21.472c1.869,0.51,17.131,4.523,35.572,4.817c0.716,0.011,1.425,0.017,2.133,0.017
                   			c25.084,0,44.961-7.161,57.581-20.771c3.416-3.2,70.862-66.581,75.872-86.628c0.149-0.498,15.024-50.472,25.625-112.062
                   			c17.754-103.145,10.087-159.086,0.529-187.854l-0.052-0.132c-0.194-0.441-4.923-10.978-18.519-25.738
                   			c-12.472-13.539-35.097-33.303-72.094-50.612c-0.78-0.565-6.107-4.545-10.317-10.781c-5.77-8.543-6.916-17.23-3.413-25.836
                   			c9.104-0.818,58.075-5.62,63.584-14.634l1.196-1.958l-20.079-2.738C407.814,203.354,571,102.034,571,61v-0.943L570.149,59.648z
                   			 M375.227,219.715l-0.661,0.398c0.184-0.059,0.304-0.12,0.377-0.173l2.143,2.096c-0.189,0.199-0.438,0.374-0.747,0.524
                   			l18.274,2.492c-8.348,4.975-36.54,9.199-56.355,11.114l-2.46,2.822c-1.559,1.786-3.084,3.467-4.577,5.052
                   			c-3.758,20.098,16.366,34.369,16.592,34.526l0.221,0.127c68.708,32.107,88.405,73.052,89.236,74.845
                   			c17.086,51.522,9.074,129.736-0.658,186.291c-10.569,61.417-25.398,111.245-25.565,111.808
                   			c-4.837,19.346-74.368,84.612-75.07,85.27l-0.075,0.076c-30.009,32.429-91.866,15.255-92.488,15.076L243.035,752
                   			c-18.057-0.42-43.175-4.318-60.291-20.51c-10.206-9.654-12.766-19.265-12.79-19.358L169.667,711h-0.403
                   			c-2.893-6.428-15.374-61.643-23.298-98.316l-0.084-0.267c-30.115-71.401-69.753-104.309-71.867-106.025
                   			c-13.472-14.038-26.343-59.39-27.486-63.492c6.769-48.53,7.542-79.681,2.268-88.71l11.688-0.974l-2.457-2.308
                   			c-15.756-14.801-7.128-84.02-7.048-84.657c13.502-80.044,40.003-76.811,40.257-76.773l0.208,0.022
                   			c10.095,0.374,19.291,27.154,22.056,37.694v1.351l0.445,0.44c0.531,0.525,53.324,52.369,105.977,74.479
                   			c0.096-1.076,0.202-2.113,0.312-3.123c-49.272-20.99-98.547-68.024-103.735-73.055v-0.197
                   			c2.055-16.966,43.259-69.13,43.676-69.656l0.144-0.182l0.083-0.217c7.487-19.737,19.272-47.882,25.94-63.622
                   			c0.856,8.663,4.76,17.479,5.971,20.048c0.109,0.38,0.286,0.646,0.438,0.874l2.59-1.503c-0.005-0.009-0.03-0.06-0.073-0.149
                   			c-0.153-0.811,0.513-5.639,21.725-29.897c8.566-9.795,17.363-19.182,21.364-23.408l2.409,22.16l2.026-1.261
                   			c36.081-22.465,75.659-37.391,117.638-44.361c33.601-5.58,68.81-6.105,104.65-1.563c56.221,7.126,96.512,24.69,102.888,27.594
                   			C565.191,104.858,377.14,218.563,375.227,219.715z" />
			<path fill="none" d="M334.52,236.508l-0.013,0.001c-0.006,0-0.056,0.005-0.148,0.013l-0.705,0.061l-0.358,0.812
                   			c-1.004,2.275-1.673,4.492-2.075,6.644c1.493-1.585,3.019-3.266,4.577-5.052l2.46-2.822c-1.276,0.124-2.52,0.238-3.719,0.341
                   			L334.52,236.508z" />
			<path fill="none" d="M222.099,301.124c-0.621-0.256-1.242-0.52-1.864-0.785c-0.111,1.01-0.216,2.047-0.312,3.123
                   			c0.344,0.145,0.688,0.293,1.032,0.435L222.099,301.124z" />
			<path fill="none" d="M376.338,222.56c0.309-0.151,0.558-0.326,0.747-0.524l-2.143-2.096c-0.073,0.054-0.193,0.115-0.377,0.173
                   			l-2.986,1.798L376.338,222.56z" />
			<path fill="none" d="M231.613,129.967c-2.475-5.376-5.361-9.653-6.883-11.751c-0.328-0.562-0.716-1.074-1.169-1.526l-2.231,1.999
                   			c0.023,0.029,0.373,0.47,0.936,1.25c1.957,3.644,0.932,11.321-2.976,21.954c-3.484,9.481-8.065,18.063-8.111,18.148l2.644,1.418
                   			c1.497-2.792,11.777-22.405,12.358-35.433c4.31,7.515,9.335,19.467,5.186,29.395l2.768,1.157
                   			C237.162,149.332,236.291,140.13,231.613,129.967z" />
			<path fill="none" d="M305.606,92.045l-3.347-1.207c-9.281-3.345-21.905-1.748-37.522,4.745
                   			c-11.496,4.78-20.192,10.422-20.557,10.66l1.64,2.513c0.327-0.213,31.124-20.089,51.862-16.066
                   			c-3.371,1.85-8.893,5.09-15.03,9.532c-9.122,6.603-21.299,17.189-27.504,30.129l2.705,1.297
                   			c11.383-23.734,44.222-39.889,44.552-40.049L305.606,92.045z" />
			<path fill="none" d="M277.026,146.077l0.948,2.846c0.472-0.158,44.625-14.552,84.471-2.865
                   			c-15.843,0.335-48.051,2.143-56.303,11.181l2.215,2.022c2.812-3.08,11.156-7.176,34.935-9.202
                   			c14.447-1.231,27.802-1.063,27.938-1.059l8.138,0.113l-7.562-3.007C329.041,129.102,277.541,145.906,277.026,146.077z"
			/>
			<path fill="none" d="M235.124,189.637l1.252,2.727c0.061-0.028,6.139-2.805,13.028-4.906c7.548-2.301,13.239-2.928,16.316-1.819
                   			c-3.34,6.479-16.701,33.933-11.645,49.33l2.851-0.936c-5.235-15.942,11.969-47.996,12.144-48.317l0.637-1.177l-1.096-0.767
                   			C260.634,178.189,237.711,188.448,235.124,189.637z" />
		</g>
	</g>
	<g id="seed">
		<g>
			<path fill="none" stroke="#020002" stroke-width="3" stroke-miterlimit="10" d="M59,354.667c0,0,165.333,130.999,177.333,158.333
                   			c0,0-31.833-230-5.333-235.5c0,0,13.667-0.833,15.333-2.167c0,0,12.333-11,17-12c0,0,8-3,21.667,3.667
                   			c0,0,17.667,7.667,49.667-28.999c0,0-9.167,0.999-43.667-2.001" />
			<path fill="none" stroke="#020002" stroke-width="3" stroke-miterlimit="10" d="M286,173.5c0,0,39.25,24.25,54.25,18
                   			c0,0-32,8.5-34.25,11.75c0,0-17.25,0.75-18.5,0S370.75,226.5,376,221" />
			<path fill="none" stroke="#020002" stroke-width="3" stroke-miterlimit="10" d="M221.526,302.511
                   			C168.193,280.511,115,227.917,115,227.917V227c0,0-10-38.5-23.5-39c0,0-28-5-42,78c0,0-9,70.5,7.5,86l-12,1c0,0,13-3,0,90
                   			c0,0,13.5,49.5,28,64.5c0,0,40.5,32,71.5,105.5c0,0,21.5,99.5,24,99.5c0,0,10,39.5,74.5,41c0,0,63,18,94-15.5c0,0,70.5-66,75.5-86
                   			c0,0,59.5-198.689,26.167-299.011c0,0-18.667-42.321-90-75.655c0,0-24-16.667-14-39.333c0,0,57.833-5.001,63.333-14.001l-22-3
                   			c0,0,193.5-116.5,193.5-160c0,0-168.5-81-327.5,18l-2.5-23c0,0-49.5,51.5-45.5,57.5c0,0-11-22-4-32.5c0,0-20,46.5-31,75.5
                   			c0,0-42,53-44,70.5" />
			<path fill="none" stroke="#020002" stroke-width="3" stroke-miterlimit="10" d="M212.5,160.75c0,0,18.5-34.5,10-43
                   			c0,0,17.25,21.5,10.25,38.25" />
			<path fill="none" stroke="#020002" stroke-width="3" stroke-miterlimit="10" d="M245,107.5c0,0,35.25-23,56.75-15.25
                   			c0,0-33.5,16.25-45.25,40.75" />
			<path fill="none" stroke="#020002" stroke-width="3" stroke-miterlimit="10" d="M277.5,147.5c0,0,51-17,93.75,0
                   			c0,0-53.5-0.75-64,10.75" />
			<path fill="none" stroke="#020002" stroke-width="3" stroke-miterlimit="10" d="M235.75,191c0,0,24.5-11.25,32-6
                   			c0,0-17.75,32.75-12.25,49.5" />
		</g>
	</g>
</svg>