<svg xmlns="http://www.w3.org/2000/svg" width="75" height="75" viewBox="0 0 612 792"><g id="background"><path fill="none" d="M360.431 35.913c-41.979 6.97-81.557 21.896-117.638 44.361l-2.026 1.261-2.409-22.16c-4.001 4.226-12.798 13.613-21.364 23.408-21.212 24.258-21.877 29.086-21.725 29.897.043.089.068.14.073.149l-2.59 1.503c-.152-.229-.329-.494-.438-.874-1.211-2.568-5.115-11.385-5.971-20.048-6.668 15.74-18.454 43.885-25.94 63.622l-.083.217-.144.182c-.417.526-41.621 52.69-43.676 69.656v.197c5.188 5.031 54.462 52.065 103.735 73.055 1.693-15.37 5.097-23.195 10.46-24.308l.213-.028c6.071-.371 13.295-1.18 14.496-1.851 1.578-1.403 12.629-11.117 17.516-12.263 1.096-.371 9.359-2.763 22.737 3.763.092.035 16.33 6.186 45.535-26.002-5.26.085-17.028-.13-40.322-2.156l.26-2.988c31.566 2.745 41.923 2.119 43.229 2.017l.161-.014 3.787-.399-.05.057c19.815-1.915 48.008-6.139 56.355-11.114l-18.274-2.492c-.943.461-2.45.699-4.584.699-9.929 0-33.407-5.123-76.568-16.512-3.25-.858-5.962-1.574-7.195-1.876-.9-.117-1.127-.253-1.263-.334l-1.116-.67.493-1.213c.428-1.017.995-1.072 2.68-.674 2.443.212 9.821.08 16.605-.205 2.952-2.319 13.493-5.742 22.52-8.389-5.781-1.065-12.805-3.46-21.027-7.176-11.641-5.26-21.571-11.373-21.67-11.435l1.577-2.552c.097.061 9.887 6.085 21.356 11.266 12.729 5.749 22.546 8.257 28.707 7.372 1.173-.32 2.193-.593 3.014-.811l.962 2.834c-.994.414-2.098.715-3.308.904-14.288 3.903-28.855 8.609-30.298 10.331l-.425.612-.731.016c-2.193.095-4.135.167-5.853.221 10.672 2.807 26.974 7.035 41.625 10.32 25.023 5.611 31.205 5.308 32.728 4.823l.661-.398c1.913-1.152 189.965-114.856 192.742-157.771-6.376-2.904-46.667-20.468-102.888-27.594-35.842-4.541-71.051-4.016-104.651 1.564zM231.366 155.421c4.149-9.928-.876-21.88-5.186-29.395-.581 13.027-10.861 32.641-12.358 35.433l-2.644-1.418c.046-.085 4.627-8.667 8.111-18.148 3.907-10.633 4.933-18.31 2.976-21.954-.563-.78-.912-1.221-.936-1.25l2.231-1.999c.453.453.841.964 1.169 1.526 1.522 2.098 4.409 6.375 6.883 11.751 4.678 10.163 5.549 19.365 2.521 26.612l-2.767-1.158zm37.703 30.294c-.174.322-17.378 32.375-12.144 48.317l-2.851.936c-5.056-15.397 8.305-42.851 11.645-49.33-3.077-1.109-8.768-.482-16.316 1.819-6.889 2.101-12.967 4.878-13.028 4.906l-1.252-2.727c2.587-1.188 25.51-11.447 33.486-5.866l1.096.767-.636 1.178zm-11.216-52.067l-2.705-1.297c6.206-12.94 18.382-23.526 27.504-30.129 6.137-4.442 11.659-7.682 15.03-9.532-20.738-4.022-51.535 15.853-51.862 16.066l-1.64-2.513c.365-.238 9.061-5.88 20.557-10.66 15.617-6.493 28.241-8.09 37.522-4.745l3.347 1.207-3.201 1.554c-.33.161-33.17 16.315-44.552 40.049zM371.229 149c-.136-.004-13.49-.172-27.938 1.059-23.778 2.026-32.122 6.123-34.935 9.202l-2.215-2.022c8.252-9.038 40.46-10.846 56.303-11.181-39.847-11.687-84 2.708-84.471 2.865l-.948-2.846c.515-.171 52.015-16.975 94.779.029l7.562 3.007-8.137-.113z"/><path fill="none" d="M284.403 268.376c-12.872-6.278-20.476-3.661-20.551-3.635l-.204.059c-3.51.752-12.968 8.667-16.316 11.653-1.821 1.459-10.825 2.211-16.123 2.537-5.699 1.354-13.933 18.657-5.984 118.203 4.589 57.479 12.515 115.026 12.595 115.601l1.48 10.693-4.339-9.885C223.245 486.919 59.719 357.15 58.068 355.843l1.863-2.352c6.35 5.031 146.903 116.577 173.996 152.834-2.234-17.008-8.027-62.972-11.693-108.894-2.702-33.84-3.738-61.047-3.08-80.864.16-4.816.416-9.178.768-13.105-52.653-22.11-105.446-73.954-105.977-74.479l-.445-.44v-1.351c-2.765-10.54-11.961-37.32-22.056-37.694l-.208-.022c-.254-.038-26.755-3.271-40.257 76.773-.08.638-8.708 69.856 7.048 84.657l2.457 2.308-11.688.974c5.274 9.03 4.501 40.18-2.268 88.71 1.144 4.103 14.015 49.454 27.486 63.492 2.114 1.717 41.752 34.624 71.867 106.025l.084.267c7.924 36.674 20.405 91.889 23.298 98.316h.403l.287 1.132c.024.094 2.583 9.704 12.79 19.358 17.116 16.191 42.234 20.09 60.291 20.51l.377.058c.622.179 62.479 17.353 92.488-15.076l.075-.076c.702-.657 70.233-65.924 75.07-85.27.167-.562 14.996-50.391 25.565-111.808 9.732-56.555 17.744-134.769.658-186.291-.831-1.792-20.528-42.738-89.236-74.845l-.221-.127c-.226-.157-20.35-14.428-16.592-34.526-29.492 31.324-46.091 24.653-46.815 24.339zM334.52 236.508l.019-.001c1.199-.104 2.442-.218 3.719-.341l.05-.057-3.788.399z"/><path fill="none" d="M333.653 236.583l.705-.061c-1.306.102-11.662.728-43.229-2.017l-.26 2.988c23.294 2.025 35.062 2.241 40.322 2.156-29.205 32.188-45.442 26.037-45.535 26.002-13.378-6.526-21.642-4.133-22.737-3.763-4.886 1.146-15.938 10.859-17.516 12.263-1.201.671-8.425 1.48-14.496 1.851l-.213.028c-5.363 1.113-8.768 8.938-10.46 24.308.622.265 1.243.528 1.864.785l-1.144 2.773c-.344-.142-.688-.291-1.032-.435-.353 3.927-.608 8.289-.768 13.105-.658 19.817.378 47.024 3.08 80.864 3.667 45.922 9.459 91.886 11.693 108.894-27.093-36.256-167.646-147.802-173.995-152.833l-1.863 2.352c1.65 1.308 165.177 131.076 176.892 157.76l4.339 9.885-1.48-10.693c-.08-.574-8.005-58.121-12.595-115.601-7.948-99.546.286-116.849 5.984-118.203 5.298-.326 14.302-1.078 16.123-2.537 3.348-2.986 12.806-10.901 16.316-11.653l.204-.059c.075-.026 7.679-2.644 20.551 3.635.724.314 17.323 6.985 46.817-24.336.402-2.152 1.071-4.369 2.075-6.644l.358-.814zM341.838 215.29c-14.651-3.285-30.953-7.514-41.625-10.32 1.717-.053 3.659-.125 5.853-.221l.731-.016.425-.612c1.442-1.722 16.01-6.428 30.298-10.331 1.21-.189 2.313-.49 3.308-.904l-.962-2.834c-.82.218-1.841.491-3.014.811-6.161.885-15.978-1.623-28.707-7.372-11.469-5.181-21.259-11.205-21.356-11.266l-1.577 2.552c.099.062 10.03 6.174 21.67 11.435 8.223 3.715 15.246 6.11 21.027 7.176-9.026 2.646-19.567 6.07-22.52 8.389-6.784.285-14.162.417-16.605.205-1.686-.398-2.252-.343-2.68.674l-.493 1.213 1.116.67c.135.081.362.217 1.263.334 1.233.302 3.945 1.018 7.195 1.876 43.161 11.39 66.639 16.512 76.568 16.512 2.134 0 3.641-.237 4.584-.699l-4.759-.649 2.986-1.798c-1.521.483-7.703.785-32.726-4.825zM334.52 236.508l-.161.014c.093-.007.143-.012.148-.013l.013-.001z"/><path fill="none" d="M570.149 59.648c-.423-.204-43.056-20.446-104.585-28.261-36.146-4.592-71.658-4.068-105.56 1.555-41.609 6.901-80.881 21.543-116.771 43.533l-2.59-23.83-2.226 2.315c-.124.129-12.536 13.058-24.299 26.554-12.937 14.843-18.453 22.735-20.628 27.103-2.262-5.614-5.586-15.68-3.866-22.927 1.083-2.537 1.718-4.016 1.753-4.097l-2.626-1.425c-.899 1.349-1.529 2.859-1.941 4.472-5.166 12.108-20.168 47.506-29.131 71.111-2.858 3.618-35.335 44.979-42.748 65.55-3.381-11.027-11.85-34.262-23.294-34.796-.844-.112-5.626-.494-11.908 3.929-9.838 6.928-23.326 25.618-31.718 75.376-.355 2.784-8.179 65.634 5.912 84.941l-8.852.738c-.149.003-.287.021-.41.05l.461 2.95c-.022 0-.033-.002-.034-.002.104.021 10.338 3.082-1.576 88.306l-.042.306.081.297c.556 2.036 13.769 50.045 28.369 65.148l.149.134c.401.317 40.502 32.562 70.993 104.777.439 2.03 5.629 25.979 11.037 49.63 8.655 37.854 11.45 47.565 13.021 50.057.495 1.722 3.501 10.945 13.407 20.383 17.749 16.908 43.61 21.016 62.251 21.472 1.869.51 17.131 4.523 35.572 4.817.716.011 1.425.017 2.133.017 25.084 0 44.961-7.161 57.581-20.771 3.416-3.2 70.862-66.581 75.872-86.628.149-.498 15.024-50.472 25.625-112.062 17.754-103.145 10.087-159.086.529-187.854l-.052-.132c-.194-.441-4.923-10.978-18.519-25.738-12.472-13.539-35.097-33.303-72.094-50.612-.78-.565-6.107-4.545-10.317-10.781-5.77-8.543-6.916-17.23-3.413-25.836 9.104-.818 58.075-5.62 63.584-14.634l1.196-1.958-20.079-2.738C407.814 203.354 571 102.034 571 61v-.943l-.851-.409zM375.227 219.715l-.661.398c.184-.059.304-.12.377-.173l2.143 2.096c-.189.199-.438.374-.747.524l18.274 2.492c-8.348 4.975-36.54 9.199-56.355 11.114l-2.46 2.822c-1.559 1.786-3.084 3.467-4.577 5.052-3.758 20.098 16.366 34.369 16.592 34.526l.221.127c68.708 32.107 88.405 73.052 89.236 74.845 17.086 51.522 9.074 129.736-.658 186.291-10.569 61.417-25.398 111.245-25.565 111.808-4.837 19.346-74.368 84.612-75.07 85.27l-.075.076c-30.009 32.429-91.866 15.255-92.488 15.076l-.379-.059c-18.057-.42-43.175-4.318-60.291-20.51-10.206-9.654-12.766-19.265-12.79-19.358l-.287-1.132h-.403c-2.893-6.428-15.374-61.643-23.298-98.316l-.084-.267c-30.115-71.401-69.753-104.309-71.867-106.025-13.472-14.038-26.343-59.39-27.486-63.492 6.769-48.53 7.542-79.681 2.268-88.71l11.688-.974-2.457-2.308c-15.756-14.801-7.128-84.02-7.048-84.657 13.502-80.044 40.003-76.811 40.257-76.773l.208.022c10.095.374 19.291 27.154 22.056 37.694v1.351l.445.44c.531.525 53.324 52.369 105.977 74.479.096-1.076.202-2.113.312-3.123-49.272-20.99-98.547-68.024-103.735-73.055v-.197c2.055-16.966 43.259-69.13 43.676-69.656l.144-.182.083-.217c7.487-19.737 19.272-47.882 25.94-63.622.856 8.663 4.76 17.479 5.971 20.048.109.38.286.646.438.874l2.59-1.503c-.005-.009-.03-.06-.073-.149-.153-.811.513-5.639 21.725-29.897 8.566-9.795 17.363-19.182 21.364-23.408l2.409 22.16 2.026-1.261c36.081-22.465 75.659-37.391 117.638-44.361 33.601-5.58 68.81-6.105 104.65-1.563 56.221 7.126 96.512 24.69 102.888 27.594-2.778 42.912-190.829 156.617-192.742 157.769z"/><path fill="none" d="M334.52 236.508l-.013.001c-.006 0-.056.005-.148.013l-.705.061-.358.812c-1.004 2.275-1.673 4.492-2.075 6.644 1.493-1.585 3.019-3.266 4.577-5.052l2.46-2.822c-1.276.124-2.52.238-3.719.341l-.019.002zM222.099 301.124c-.621-.256-1.242-.52-1.864-.785-.111 1.01-.216 2.047-.312 3.123.344.145.688.293 1.032.435l1.144-2.773zM376.338 222.56c.309-.151.558-.326.747-.524l-2.143-2.096c-.073.054-.193.115-.377.173l-2.986 1.798 4.759.649zM231.613 129.967c-2.475-5.376-5.361-9.653-6.883-11.751-.328-.562-.716-1.074-1.169-1.526l-2.231 1.999c.023.029.373.47.936 1.25 1.957 3.644.932 11.321-2.976 21.954-3.484 9.481-8.065 18.063-8.111 18.148l2.644 1.418c1.497-2.792 11.777-22.405 12.358-35.433 4.31 7.515 9.335 19.467 5.186 29.395l2.768 1.157c3.027-7.246 2.156-16.448-2.522-26.611zM305.606 92.045l-3.347-1.207c-9.281-3.345-21.905-1.748-37.522 4.745-11.496 4.78-20.192 10.422-20.557 10.66l1.64 2.513c.327-.213 31.124-20.089 51.862-16.066-3.371 1.85-8.893 5.09-15.03 9.532-9.122 6.603-21.299 17.189-27.504 30.129l2.705 1.297c11.383-23.734 44.222-39.889 44.552-40.049l3.201-1.554zM277.026 146.077l.948 2.846c.472-.158 44.625-14.552 84.471-2.865-15.843.335-48.051 2.143-56.303 11.181l2.215 2.022c2.812-3.08 11.156-7.176 34.935-9.202 14.447-1.231 27.802-1.063 27.938-1.059l8.138.113-7.562-3.007c-42.765-17.004-94.265-.2-94.78-.029zM235.124 189.637l1.252 2.727c.061-.028 6.139-2.805 13.028-4.906 7.548-2.301 13.239-2.928 16.316-1.819-3.34 6.479-16.701 33.933-11.645 49.33l2.851-.936c-5.235-15.942 11.969-47.996 12.144-48.317l.637-1.177-1.096-.767c-7.977-5.583-30.9 4.676-33.487 5.865z"/></g><g id="seed"><path fill="none" stroke="#020002" stroke-width="3" stroke-miterlimit="10" d="M59 354.667S224.333 485.666 236.333 513c0 0-31.833-230-5.333-235.5 0 0 13.667-.833 15.333-2.167 0 0 12.333-11 17-12 0 0 8-3 21.667 3.667 0 0 17.667 7.667 49.667-28.999 0 0-9.167.999-43.667-2.001M286 173.5s39.25 24.25 54.25 18c0 0-32 8.5-34.25 11.75 0 0-17.25.75-18.5 0S370.75 226.5 376 221"/><path fill="none" stroke="#020002" stroke-width="3" stroke-miterlimit="10" d="M221.526 302.511C168.193 280.511 115 227.917 115 227.917V227s-10-38.5-23.5-39c0 0-28-5-42 78 0 0-9 70.5 7.5 86l-12 1s13-3 0 90c0 0 13.5 49.5 28 64.5 0 0 40.5 32 71.5 105.5 0 0 21.5 99.5 24 99.5 0 0 10 39.5 74.5 41 0 0 63 18 94-15.5 0 0 70.5-66 75.5-86 0 0 59.5-198.689 26.167-299.011 0 0-18.667-42.321-90-75.655 0 0-24-16.667-14-39.333 0 0 57.833-5.001 63.333-14.001l-22-3S569.5 104.5 569.5 61c0 0-168.5-81-327.5 18l-2.5-23S190 107.5 194 113.5c0 0-11-22-4-32.5 0 0-20 46.5-31 75.5 0 0-42 53-44 70.5"/><path fill="none" stroke="#020002" stroke-width="3" stroke-miterlimit="10" d="M212.5 160.75s18.5-34.5 10-43c0 0 17.25 21.5 10.25 38.25M245 107.5s35.25-23 56.75-15.25c0 0-33.5 16.25-45.25 40.75M277.5 147.5s51-17 93.75 0c0 0-53.5-.75-64 10.75M235.75 191s24.5-11.25 32-6c0 0-17.75 32.75-12.25 49.5"/></g></svg>