<svg id="Layer_1" width="100" height="100" enable-background="new 0 0 900 600" version="1.1" viewBox="0 0 100 100" xmlns="http://www.w3.org/2000/svg">
 <g id="Samples">
  <g id="Guard_cells" fill="#FFFFFF">
   <path id="path19" d="m50.937 33.205c0.013-0.288-8e-3 -0.576-0.084-0.852-0.449-1.645-2.092-2.436-3.688-2.096-7e-3 1e-3 -7e-3 2e-3 -0.013 3e-3 -0.035 0-0.06-1e-3 -0.112 1e-3 -0.23 8e-3 -0.463-0.011-0.692-0.025-0.463-0.029-0.921-0.078-1.385-0.086-0.516-9e-3 -0.998 0.138-1.426 0.377-3.161-0.383-6.324 0.179-8.838 2.033-1.066 0.786-1.396 1.923-1.25 2.98-1.999 1.111-3.307 3.55-1.872 6.131 2.941 5.307 12.235 18.525 19.654 13.114 1.704-1.243 2.651-3.225 2.029-5.207 1.121 0.282 2.345-0.059 3.04-1.415 3.06-5.964-0.2-11.689-5.363-14.958zm0.182 11.931c-0.301 0.587-0.388 1.16-0.335 1.694-1.062-0.497-2.286-0.645-3.354-0.221-0.189-0.088-0.371-0.173-0.45-0.225-0.918-0.598-1.976-1.776-2.864-2.741-1.815-1.967-3.47-4.171-4.77-6.515-0.021-0.042-0.049-0.077-0.071-0.117 2.628-0.76 6.492-0.05 9.202 1.591 1e-3 1.031 0.559 2.015 1.473 2.637 9e-3 6e-3 0.021 0.014 0.027 0.021 0.055 0.047 0.105 0.093 0.155 0.143 0.045 0.08 0.093 0.158 0.132 0.24-0.024-0.064-0.054-0.128-0.081-0.192 0.314 0.705 0.823 1.274 1.458 1.612 7e-3 0.659-0.152 1.353-0.522 2.073z"/>
  </g>
 </g>
 <path id="path52" d="m55.564 47.71c2.076-7.619-1.887-12.824-7.279-17.154-1.322-1.062-3.739-0.955-5.667-1.029-4.822-0.186-8.362 2.67-11.381 5.836-1.109 1.164-1.202 3.771-0.96 5.616 0.229 1.75 1.505 3.361 2.066 5.156 11.801 10.073 11.801 10.073 17.02 9.247h8.603" fill="none" stroke="#000000" stroke-linecap="round" stroke-linejoin="round" stroke-miterlimit="10"/>
 <path id="path130" d="m52.687 49.628c-9.907-4.105-11.479-5.568-13.904-12.948 2.33-0.643 4.641-0.573 5.73 0.501 3.071 3.017 6.964 5.693 5.297 11.008" fill="none" stroke="#000000" stroke-linecap="round" stroke-linejoin="round" stroke-miterlimit="10"/>
 <path id="path212" d="m32.065 26.129c0.799 1.918 1.599 3.836 2.396 5.755" fill="none" stroke="#000000" stroke-linecap="round" stroke-linejoin="round" stroke-miterlimit="10"/>
 <path id="path215" d="m29.189 37.159c-1.919-0.16-3.837-0.32-5.755-0.479" fill="none" stroke="#000000" stroke-linecap="round" stroke-linejoin="round" stroke-miterlimit="10"/>
 <path id="path230" d="m57.962 34.761c-1.278 0.479-2.559 0.959-3.837 1.438" fill="none" stroke="#000000" stroke-linecap="round" stroke-linejoin="round" stroke-miterlimit="10"/>
 <path id="path231" d="m54.605 48.669c-1.275 1.759-2.558 3.517-3.836 5.275" fill="none" stroke="#000000" stroke-linecap="round" stroke-linejoin="round" stroke-miterlimit="10"/>
</svg>
