<svg xmlns="http://www.w3.org/2000/svg" width="75" height="75" viewBox="0 0 300 300"><g id="shapes"><path id="leaf" fill="none" d="M141.412 71.191s3.755-8.878 10.584-.171c2.219 2.902 16.219 15.194 21.512 38.583 1.536 11.445 3.414 22.868.511 39.266-2.048 6.658-2.56 10.414-12.975 31.754-1.194 2.562-2.561 6.317-2.39 10.415-.342 5.804-1.536 24.754-.171 48.484-2.732-.684-5.292-2.391-5.292-2.391-.854-10.413-2.902-35.51-4.951-41.144-4.78-8.536-24.072-51.388-25.95-63.68-1.195-8.706-3.073-15.877 8.707-42.339 3.586-7.851 10.415-18.777 10.415-18.777z"/></g><g id="outline"><path id="leaf2" fill="none" stroke="#000000" stroke-width=".5" stroke-miterlimit="10" d="M141.412 71.191s3.755-8.878 10.584-.171c2.219 2.902 16.219 15.194 21.512 38.583 1.536 11.445 3.414 22.868.511 39.266-2.048 6.658-2.56 10.414-12.975 31.754-1.194 2.562-2.561 6.317-2.39 10.415-.342 5.804-1.536 24.754-.171 48.484-2.732-.684-5.292-2.391-5.292-2.391-.854-10.413-2.902-35.51-4.951-41.144-4.78-8.536-24.072-51.388-25.95-63.68-1.195-8.706-3.073-15.877 8.707-42.339 3.586-7.851 10.415-18.777 10.415-18.777z"/><path fill="none" stroke="#000000" stroke-width=".5" stroke-miterlimit="10" d="M149.781 158.473c-.014-2.055-.452-10.045-.396-11.993h.05c0-.209-.018-.422-.033-.634.511-16.025 3.05-28.056 3.097-28.246"/><path fill="none" stroke="#000000" stroke-width=".5" stroke-miterlimit="10" d="M151.803 176.821c-1.165-6.156-1.775-12.373-2.022-18.349.16-4.696 3.241-9.082 3.273-9.134M143.758 135.697c.044.059 5.848 18.564 6.023 22.775"/></g></svg>