<?xml version="1.0" encoding="utf-8"?>
<!-- Generator: Adobe Illustrator 16.0.0, SVG Export Plug-In . SVG Version: 6.00 Build 0) -->
<!DOCTYPE svg PUBLIC "-//W3C//DTD SVG 1.1//EN" "http://www.w3.org/Graphics/SVG/1.1/DTD/svg11.dtd">
<svg author="Provart Lab - Bio Analytic Resource, University of Toronto" license="CCBY4.0" version="1.1" id="Layer_1" xmlns="http://www.w3.org/2000/svg" xmlns:xlink="http://www.w3.org/1999/xlink" x="0px" y="0px"
    width="75px" height="75px" viewBox="0 0 612 792" enable-background="new 0 0 612 792" xml:space="preserve">
	<path id="lamina" fill="none" stroke="#020202" stroke-width="3.5" stroke-miterlimit="10" d="M263.491,225.699
                   	c-24.515-65.498-65.992-98.764-66.421-99.102c-1.882-1.392-3.985-2.098-6.25-2.098c-10.142,0-23.752,13.875-40.453,41.239
                   	c-12.382,20.29-21.953,40.845-22.012,40.986C93.667,259.534,89.52,308.235,92.15,339.791c2.85,34.204,14.066,56.219,14.179,56.438
                   	c0,0,0.268,0.482,0.376,0.633c12.935,17.467,26.618,33.541,38.979,51.291c6.382,9.512,12.525,19.85,20.562,34.84
                   	c1.942,4.066,3.794,8.262,5.526,12.619c8.203,20.639,14.866,43.127,19.937,67.182l-0.04,0.352l0.117,0.023
                   	c2.832,13.482,5.17,27.449,6.987,41.873c8.646,68.65,2.564,124.35,2.516,124.832c-1.28,4.816-0.822,8.869,1.36,12.035
                   	c3.77,5.467,11.254,6.307,11.571,6.34l0.052,0.006l0.052-0.006c3.628-0.379,6.45-1.986,8.388-4.777
                   	c5.884-8.479,1.725-24.898,1.548-25.582c-8.767-38.16-6.94-88.539-3.865-124.084c3.256-37.629,8.559-67.01,8.856-68.643
                   	c30.574-60.938,47.92-119.803,51.552-174.956C283.71,306.048,277.886,264.159,263.491,225.699z" />
	<path id="petiole" fill="#FFFFFF" stroke="#020202" stroke-width="3.5" stroke-miterlimit="10" d="M224.589,719.823
                   	c-0.024-0.094-0.045-0.172-0.062-0.237c-0.035-0.131-0.057-0.205-0.059-0.215c-9.928-38.492-7.869-89.191-4.394-124.946
                   	c0.972-10.017,2.199-20.362,3.646-30.766c-4.282,1.45-9.792,2.186-16.398,2.186c-5.907,0.001-11.343-0.577-14.603-1.014
                   	c-0.465-0.063-0.887-0.122-1.259-0.177c3.094,13.275,5.66,27.07,7.63,41.015c4.117,29.125,5.273,55.93,5.229,77.23
                   	c-0.047,23.667-1.578,40.54-2.177,46.249c-0.04,0.381-0.074,0.712-0.105,0.991c-0.079,0.7-0.125,1.082-0.13,1.126
                   	c-1.334,4.514-0.906,8.181,1.258,10.976c0.444,0.573,0.942,1.091,1.478,1.558c0.269,0.233,0.544,0.453,0.828,0.66
                   	c3.686,2.711,8.519,3.385,9.398,3.487c3.073-0.31,5.545-1.413,7.366-3.29c0.26-0.269,0.507-0.552,0.74-0.852
                   	c0.319-0.409,0.601-0.845,0.865-1.296C228.207,735.04,225.249,722.369,224.589,719.823z" />
	<path id="veins" fill="#FFFFFF" stroke="#020202" stroke-miterlimit="10" d="M251.407,387.818
                   	c-9.845,10.961-38.182,43.863-48.477,70.354l-1.204,3.097l0.239-3.316c0.563-7.801,13.01-180.07,15.344-207.017
                   	c-3.082,7.613-11.166,28.543-18.033,54.687c-7.967,30.332-15.878,74.083-8.323,110.261l0.606,2.899l-1.523-2.536
                   	c-0.298-0.497-29.323-48.507-50.758-56.689c4.055,5.118,18.575,24.488,31.66,54.908c14.095,32.771,29.366,85.427,22.188,150.377
                   	c2.908,0.512,19.096,3.109,29.083-0.828c-1.186-5.442-12.986-62.227,1.02-100.153C224.122,461.184,242.936,404.881,251.407,387.818z
                   	" />
</svg>