<svg id="Layer_1" xmlns="http://www.w3.org/2000/svg" width="75" height="75" viewBox="0 0 612 792"><path id="lamina" fill="none" stroke="#020202" stroke-width="3.5" stroke-miterlimit="10" d="M263.491 225.699c-24.515-65.498-65.992-98.764-66.421-99.102-1.882-1.392-3.985-2.098-6.25-2.098-10.142 0-23.752 13.875-40.453 41.239-12.382 20.29-21.953 40.845-22.012 40.986-34.688 52.81-38.835 101.511-36.205 133.067 2.85 34.204 14.066 56.219 14.179 56.438 0 0 .268.482.376.633 12.935 17.467 26.618 33.541 38.979 51.291 6.382 9.512 12.525 19.85 20.562 34.84 1.942 4.066 3.794 8.262 5.526 12.619 8.203 20.639 14.866 43.127 19.937 67.182l-.04.352.117.023c2.832 13.482 5.17 27.449 6.987 41.873 8.646 68.65 2.564 124.35 2.516 124.832-1.28 4.816-.822 8.869 1.36 12.035 3.77 5.467 11.254 6.307 11.571 6.34l.052.006.052-.006c3.628-.379 6.45-1.986 8.388-4.777 5.884-8.479 1.725-24.898 1.548-25.582-8.767-38.16-6.94-88.539-3.865-124.084 3.256-37.629 8.559-67.01 8.856-68.643 30.574-60.938 47.92-119.803 51.552-174.956 2.907-44.159-2.917-86.048-17.312-124.508z"/><path id="petiole" fill="#FFFFFF" stroke="#020202" stroke-width="3.5" stroke-miterlimit="10" d="M224.589 719.823c-.024-.094-.045-.172-.062-.237-.035-.131-.057-.205-.059-.215-9.928-38.492-7.869-89.191-4.394-124.946.972-10.017 2.199-20.362 3.646-30.766-4.282 1.45-9.792 2.186-16.398 2.186-5.907.001-11.343-.577-14.603-1.014-.465-.063-.887-.122-1.259-.177 3.094 13.275 5.66 27.07 7.63 41.015 4.117 29.125 5.273 55.93 5.229 77.23-.047 23.667-1.578 40.54-2.177 46.249-.04.381-.074.712-.105.991-.079.7-.125 1.082-.13 1.126-1.334 4.514-.906 8.181 1.258 10.976.444.573.942 1.091 1.478 1.558.269.233.544.453.828.66 3.686 2.711 8.519 3.385 9.398 3.487 3.073-.31 5.545-1.413 7.366-3.29.26-.269.507-.552.74-.852.319-.409.601-.845.865-1.296 4.367-7.468 1.409-20.139.749-22.685z"/><path id="veins" fill="#FFFFFF" stroke="#020202" stroke-miterlimit="10" d="M251.407 387.818c-9.845 10.961-38.182 43.863-48.477 70.354l-1.204 3.097.239-3.316c.563-7.801 13.01-180.07 15.344-207.017-3.082 7.613-11.166 28.543-18.033 54.687-7.967 30.332-15.878 74.083-8.323 110.261l.606 2.899-1.523-2.536c-.298-.497-29.323-48.507-50.758-56.689 4.055 5.118 18.575 24.488 31.66 54.908 14.095 32.771 29.366 85.427 22.188 150.377 2.908.512 19.096 3.109 29.083-.828-1.186-5.442-12.986-62.227 1.02-100.153.893-2.678 19.707-58.981 28.178-76.044z"/></svg>