<svg xmlns="http://www.w3.org/2000/svg" width="75" height="75" viewBox="0 0 300 300" xml:space="preserve" license="CCBY4.0" author="Provart Lab - Bio Analytic Resource, University of Toronto">
  <g id="shapes">
    <path id="leaf" fill="none" d="M141 71s4-9 11 0c2 3 16 15 22 39 1 11 3 22 0 39l-13 32c-1 2-3 6-2 10-1 6-2 25-1 49l-5-3c-1-10-3-35-5-41-5-9-24-51-26-64-1-8-3-16 9-42l10-19z"/>
  </g>
  <g id="outline" fill="none" stroke="#000" stroke-width=".5" stroke-miterlimit="10">
    <path id="leaf2" d="M141 71s4-9 11 0c2 3 16 15 22 39 1 11 3 22 0 39l-13 32c-1 2-3 6-2 10-1 6-2 25-1 49l-5-3c-1-10-3-35-5-41-5-9-24-51-26-64-1-8-3-16 9-42l10-19z"/>
    <path d="m150 158-1-12 3-28"/>
    <path d="m152 177-2-19c0-4 3-9 3-9m-9-13s6 18 6 22"/>
  </g>
</svg>