<svg version="1.1" id="Layer_1" xmlns="http://www.w3.org/2000/svg" x="0" y="0" width="75" height="75" viewBox="0 0 612 792" xml:space="preserve" license="CCBY4.0" author="Provart Lab - Bio Analytic Resource, University of Toronto">
  <path id="lamina" fill="none" stroke="#020202" stroke-width="3.5" stroke-miterlimit="10" d="M263 226c-24-66-66-99-66-99l-6-3c-10 0-24 14-41 42-12 20-22 41-22 41-34 53-38 101-36 133a164 164 0 0 0 15 57l39 51a397 397 0 0 1 26 48 520 520 0 0 1 27 109c8 69 2 124 2 125-1 5-1 9 2 12 3 5 11 6 11 6 4 0 7-2 9-5 6-8 1-24 1-25-9-38-7-89-4-124l9-69c31-61 48-120 52-175 3-44-3-86-18-124z"/>
  <path id="petiole" fill="#FFF" stroke="#020202" stroke-width="3.5" stroke-miterlimit="10" d="m225 720-1-1a394 394 0 0 1 0-155l-17 2a113 113 0 0 1-16-1 473 473 0 0 1 11 164v2c-1 5-1 8 1 11a11 11 0 0 0 2 2c4 3 9 4 10 4a12 12 0 0 0 8-4l1-1c4-8 1-21 1-23z"/>
  <path id="veins" fill="#FFF" stroke="#020202" stroke-miterlimit="10" d="M251 388c-9 11-38 44-48 70l-1 3v-3l15-207c-3 8-11 28-18 55-8 30-16 74-8 110l1 3-2-3s-29-48-51-56c4 5 19 24 32 54 14 33 29 86 22 151 3 0 19 3 29-1-1-5-13-62 1-100 1-3 20-59 28-76z"/>
</svg>