<?xml version='1.0' encoding='utf-8'?>
<svg id="svg208" width="75" height="75" version="1.0" viewBox="0 0 768 732" xmlns="http://www.w3.org/2000/svg">
	<g id="outlines">
		<path id="path198" d="m348.2 28c-79.3 6.3-150.4 33.9-209.9 81.6-21.1 17-46.8 44.2-62.1 65.7-31.4 44.2-49.6 90-56.8 143.2-2.5 18.1-2.5 57.9 0 76 9.9 72.8 42 135.9 95.8 188 28.4 27.6 57.4 47.8 93.8 65.4 40.3 19.4 78.4 30.3 124.5 35.7 20.8 2.5 65.2 2.5 86 0 46.1-5.4 84.2-16.3 124.5-35.7 36.4-17.6 65.4-37.8 93.8-65.4 47.4-45.9 78.7-101.8 91.6-163.3 4.7-22.4 6-35.9 6-62.7s-1.3-40.3-6-62.7c-18.3-87.5-75-164.5-157.2-213.7-45.1-27-97.5-44.4-152.2-50.6-16.4-1.9-56.3-2.7-71.8-1.5zm72.3 14.4c103.1 13.1 190.8 63.7 247.4 142.8 35.4 49.6 55.1 110.8 55.1 171.3 0 84.5-37.7 166.8-103.1 225.2-56.3 50.1-125.2 80.3-204.4 89.5-14.4 1.7-63.6 1.7-78 0-97.8-11.3-182.1-55.9-239.6-126.7-80-98.3-90.1-230.9-26-338.8 25.9-43.5 64.7-82.9 109.3-110.6 45.3-28.4 103.2-48 155.8-53 6.3-0.6 13.1-1.3 15-1.5 8-0.9 57.2 0.4 68.5 1.8z" fill="#000000" stroke="#000000" stroke-width="0.5" stroke-miterlimit="10" />
		<path id="path200" d="m370.5 136.6c-42 3.1-79.5 15.4-110.6 36.2-27.2 18.2-45.1 40.6-51.5 64.3-2.4 8.9-2.4 25.5 0 33.3 9.5 31.6 40 53.1 86.1 60.7 12.3 2.1 48.2 1.8 62.5-0.4 71.2-11.2 129.2-51.6 141.5-98.7 2.1-7.9 2.4-23.4 0.6-31-0.7-3-3.1-9.3-5.4-14-3.4-7-5.7-10.1-13.2-17.5-16.4-16.3-38.8-26.6-67.6-30.9-10-1.5-33.9-2.6-42.4-2zm38.7 9.9c29.5 4.4 50.1 13.5 65.3 28.9 12.6 12.6 17.5 24 17.5 40.4 0 13.6-3.6 24.3-12.8 38.2-22.5 33.9-70.8 60.6-124.2 68.4-56 8.2-108.4-6.3-129.6-35.9-7.4-10.4-9.6-17.1-10.2-30.2-0.4-10.1-0.2-12.1 2.2-19.5 11.9-37.8 55.6-71 112.1-85.3 7.2-1.9 18-4 24-4.8 14.7-2 43.3-2.1 55.7-0.2z" fill="#000000" stroke="#000000" stroke-width="0.5" stroke-miterlimit="10" />
		<path id="path202" d="m374.8 152.1c-43.2 5.3-80 30.7-91.6 63.1-3.7 10.6-4.3 25-1.2 35 8 26.9 33.7 44.8 70 48.9 21.3 2.4 49.3-2.7 69.4-12.8 15.2-7.6 31.4-21.2 39.6-33.4 22.4-33 12.6-71.8-22.9-90.2-17.4-9.1-42.2-13.2-63.3-10.6zm40.7 10.9c51.3 13.9 65.2 60.2 28.9 96.6-33.4 33.5-94.6 41.7-131.6 17.5-26.2-17.1-32-46.2-14.6-72.8 14.1-21.7 39-36.6 71.3-42.9 10.6-2 35.7-1.2 46 1.6z" fill="#000000" stroke="#000000" stroke-width="0.5" stroke-miterlimit="10" />
		<path id="path204" d="m385.5 338.1c-26.3 2-49.8 11.5-64.4 25.9-31.3 31-23.4 79.5 19.5 121.1 15.4 14.8 30.4 25.1 52.3 35.8 63.3 30.9 136.4 28.9 169.3-4.6 14.3-14.4 19.6-28.4 18.6-49.1-2.9-61.3-83.8-123-169.4-129.2-7.6-0.5-14.3-0.9-14.9-0.8-0.5 0-5.5 0.4-11 0.9zm25.7 1.9c68.7 5 135.6 45.7 159.8 97.2 12.3 26.2 10.3 53.6-5.3 72.5-31.7 38.7-110.9 41.7-177.5 6.7-20.7-10.9-36.1-22.3-51.4-38.2-30.5-31.8-40.5-68-26.5-95.9 12.4-24.5 39.1-39.3 76.2-42.2 5.5-0.5 10.2-0.9 10.5-0.9 0.3-0.1 6.7 0.3 14.2 0.8z" fill="#000000" stroke="#000000" stroke-width="0.5" stroke-miterlimit="10" />
	</g>
    <g id="bcp">
         <path id="path216" d="m340.98 671.16c-21.285-2.011-50.367-7.872-72.992-14.711-91.671-27.713-166.34-88.921-206.42-169.2-15.931-31.915-25.818-65.477-29.736-100.95-1.4461-13.091-1.229-50.281 0.366-62.676 9.3695-72.814 41.293-134.95 95.985-186.82 37.246-35.328 80.787-60.916 132.62-77.938 36.543-12.001 72.746-17.981 108.86-17.981 41.518-6e-4 64.566 2.5143 96.798 10.562 81.491 20.346 148.98 64.47 197.39 129.05 25.81 34.433 44.208 75.805 52.887 118.93 10.18 50.581 7.092 99.827-9.346 149.05-23.916 71.62-73.117 131.36-142.34 172.81-40.963 24.533-85.723 40.079-138.73 48.181-11.87 1.815-13.556 1.891-45.775 2.073-18.397 0.104-36.203-0.071-39.568-0.388zm160.34-128.89c25.843-2.887 45.451-10.956 59.72-24.575 13.666-13.043 19.163-24.781 20.005-42.721 0.853-18.192-4.575-36.231-16.299-54.166-5.236-8.01-9.929-13.681-18.563-22.429-29.861-30.258-74.299-52.237-119.07-58.894-27.008-4.015-49.997-2.719-70.858 3.995-18.388 5.918-32.425 15.217-41.849 27.724-4.976 6.604-7.724 12.126-10.317 20.731-1.672 5.552-1.918 7.604-1.983 16.549-0.082 11.211 0.83 16.576 4.667 27.465 6.841 19.412 21.251 39.151 40.969 56.118 31.24 26.883 75.587 45.829 117.32 50.12 8.489 0.873 28.781 0.92 36.267 0.083zm-150.35-210.62c20.983-1.944 49.403-10.135 71.324-20.555 19.847-9.434 35.051-20.026 49.105-34.208 13.818-13.945 22.618-27.92 26.887-42.7 1.454-5.034 1.626-7.095 1.617-19.366-0.01-13.374-0.063-13.87-2.014-19.014-5.03-13.257-10.983-21.712-21.639-30.732-14.8-12.529-32.404-20.705-54.164-25.156-16.325-3.339-42.847-4.68-58.909-2.978-44.086 4.671-80.943 18.375-111.84 41.584-20.586 15.464-35.064 34.073-41.662 53.55-2.528 7.463-2.634 8.172-2.91 19.366-0.349 14.108 0.519 19 5.075 28.618 4.022 8.491 8.022 14.105 14.96 20.998 17.402 17.289 48.533 29.638 79.097 31.376 10.951 0.623 34.274 0.218 45.07-0.783z" style="fill:#ffffff;stroke-width:.70422"/>
		<path id="path218" d="m303.08 323.2c-36.447-4.16-64.679-18.287-78.864-39.464-6.66-9.942-8.409-16.343-8.588-31.416-0.092-7.804 0.047-8.694 2.517-16.01 4.845-14.353 11.693-24.947 24.372-37.706 23.656-23.805 58.467-41.204 98.591-49.277 15.33-3.085 24.19-3.71 47.051-3.317 19.144 0.329 20.737 0.46 30.415 2.506 23.77 5.025 40.128 12.772 53.672 25.421 13.878 12.961 19.188 24.628 19.092 41.951-0.075 13.464-2.706 22.105-10.582 34.761-23.246 37.349-75.154 65.505-133.31 72.307-9.597 1.123-35.426 1.265-44.37 0.244zm80.985-24.902c29.001-4.824 51.12-16.286 69.792-36.163 8.904-9.479 14.28-19.115 17.651-31.64 2.07-7.69 2.059-20.86-0.024-28.606-5.032-18.712-18.469-33.284-38.754-42.03-15.491-6.678-37.104-10.066-53.946-8.454-47.367 4.532-87.463 32.615-97.242 68.106-0.628 2.279-1.301 8.232-1.505 13.308-0.45 11.178 0.906 17.668 5.733 27.435 12.351 24.987 43.703 40.381 80.338 39.445 6.197-0.158 14.278-0.788 17.957-1.401z" style="fill:#ffffff;stroke-width:.70422"/>
		<path id="path220" d="m352.73 290.11c-45.622-4.746-73.013-36.523-61.262-71.072 8.789-25.841 34.065-45.906 69.765-55.383l9.806-2.602 15.141-0.038c17.171-0.043 24.573 0.797 33.896 3.843 31.318 10.234 48.621 34.611 43.199 60.859-5.837 28.261-35.686 53.61-72.881 61.893-13.624 3.034-25.165 3.8-37.664 2.5z" style="fill:#ffffff;stroke-width:.70422"/>
		<path id="path222" d="m461.73 539.07c-31.76-3.848-65.244-16.293-92.444-34.359-41.341-27.458-66.257-65.548-64.555-98.686 0.973-18.942 9.532-34.376 25.971-46.834 17.828-13.51 49.173-21.201 77.498-19.015 46.244 3.569 87.368 19.454 121.3 46.855 7.315 5.907 19.797 18.329 25.103 24.98 22.142 27.755 29.074 56.175 19.894 81.557-3.513 9.714-11.134 19.598-20.621 26.748-13.253 9.985-31.069 16.517-52.174 19.126-8.126 1.004-30.314 0.798-39.968-0.372z" style="fill:#ffffff;stroke-width:.70422"/>
    </g>
</svg>
