<svg id="svg936" width="75" height="75" version="1.0" viewBox="0 0 643 789" xmlns="http://www.w3.org/2000/svg">
    <g id="outlines">
        <path id="path894" d="m99 21c-21 7.6-33 29.3-29.9 54 1.5 12.5 5.3 21.1 13.9 32.4l5.1 6.6-2.5 14.3c-1.4 7.9-3.9 18.3-5.6 23.2-11.5 34-14.1 44.7-26.5 112.5-4.4 24.3-8 41-11.5 53-7.3 25.1-10.6 50.5-11.5 88.5-0.3 15.4-1.5 37.4-2.5 49-1.1 11.5-2.4 29.3-3 39.5s-1.7 27.5-2.5 38.5-1.7 32.1-2 47c-0.4 14.8-1.2 32.8-2 40-1.9 17.6-2.3 123.2-0.6 135.5 1.4 9.8 2.4 11.1 11 13.6 6.3 1.9 15.5 1.3 18.2-1.2 3.1-2.8 4.1-6.9 3.4-13.6-0.4-3.5-0.9-22.7-1.1-42.8l-0.4-36.5 57.2-48.5c31.4-26.7 58.2-49.3 59.4-50.3 2.3-1.7 2.3-1.7 8.5 5.5 3.4 4 6.5 7.4 6.9 7.6 0.7 0.3 22.4-49.8 21.8-50.4-0.4-0.3-52.9 12.3-53.4 12.9-0.2 0.1 2.7 3.8 6.3 8.1 6.5 7.8 6.6 7.9 4.5 9.5-1.1 0.9-26.2 22.1-55.6 47.1-29.5 25-54.1 45.6-54.6 45.8-1.4 0.5-1.2-12.1 0.4-28.9 0.8-7.9 1.7-26.6 2.1-41.4 0.3-14.9 1.2-36.2 2-47.5s1.7-25.5 2-31.5c0.3-6.1 1.7-23.8 3-39.5s2.6-40 2.9-54.1c0.7-35.8 3.7-58.4 11.1-84.6 4-13.9 7.6-30.6 13-60 11.9-65.1 11.8-64.7 23-99.3 3.3-10 6.4-22.2 7.9-30.9 1.4-7.9 2.7-14.5 2.8-14.6 0.2-0.1 4.1-0.6 8.8-1.2 19.3-2.2 33.4-13.8 39-32.1 2.5-7.9 2.7-23.1 0.5-31.7-5.2-20.5-22.8-39-41.9-44.1-7.6-2.1-21-1.7-27.6 0.6zm33 8.1c19.4 9.2 32 29.1 32 50.3 0 40.9-42.4 57.5-72.1 28.2-11.1-10.9-17.1-25-17.1-39.9 0.1-15.3 6.4-28.4 17.2-36 7.7-5.3 12.8-6.7 23.5-6.4 8 0.2 9.9 0.7 16.5 3.8zm-32.6 92.3c3.1 1.9 7.6 4 10.1 4.7s4.5 1.8 4.5 2.4c0 5.6-6 32-9.9 44-10.5 31.8-12.9 41.6-20.6 85-7.7 43.3-10.6 57-15.9 75.7-7.3 25.7-10.3 49.6-11.1 87.8-0.3 14.6-1.5 36.2-2.5 48-3.7 40.7-7.3 105.1-8.1 142-0.1 6.2-0.2 6.9-0.9 4-1.8-7.7-9-9.2-15.9-3.4l-4.2 3.6 0.5-7.3c0.3-4.1 0.8-19.1 1.1-33.4s1-31.4 1.5-38 1.7-23.5 2.5-37.5c0.9-14 2.4-35 3.5-46.5 1-11.6 2.1-33 2.4-47.6 0.7-36.1 3.7-58.8 11.1-85.4 5.2-18.2 7.7-30.3 14.5-68.5 7.8-43.7 10.9-57.3 18.9-82.2 5.1-16.1 8.7-29.2 10.2-37.7 1.2-7.2 2.3-13.1 2.5-13.1 0.1 0 2.7 1.5 5.8 3.4zm-59.9 491.6c0.3 0.5-0.7 0.8-2.4 0.7-1.6-0.1-2.7-0.5-2.4-1 0.6-1 4.1-0.9 4.8 0.3zm-2.3 9.5c0 0.5-0.5 1.1-1.1 1.3s-1.1-0.4-1.1-1.3 0.5-1.5 1.1-1.3 1.1 0.8 1.1 1.3zm-12.5 4.7c-0.3 0.7-0.5 0.2-0.5-1.2s0.2-1.9 0.5-1.3c0.2 0.7 0.2 1.9 0 2.5zm19 15.9-1.2 12.6-1.8-3.9c-1.7-3.4-1.7-4.5-0.7-9.1 1.3-5.4 4-13 4.5-12.5 0.2 0.2-0.2 6-0.8 12.9zm-10.7-0.7c0 0.8-0.4 1.7-0.9 2.1-1.2 0.7-2.4-1.2-1.6-2.5 0.9-1.5 2.5-1.2 2.5 0.4zm4.3 13.1c1.7 3.6 2.3 6.9 0.9 5-0.4-0.6-2.7-2.3-5.2-4-4.4-2.8-4.4-2.9-2-3.6 4.2-1.2 4.6-1 6.3 2.6zm-10 2.6c1.4 1 0 6.6-2.3 9.6l-2 2.6v-8.9c0-8.6 0-8.8 1.7-6.4 0.9 1.4 2.1 2.8 2.6 3.1zm8.4 7c1.5 2.9 1.7 8.5 0.3 9.4-0.6 0.4-2.2-0.1-3.6-1-2.6-1.7-2.7-3-0.7-9.8 0.6-2.3 2.5-1.7 4 1.4zm-10.7 21.4c0.1 13.6 2.6 20.5 7.5 20.5 1.2 0 2.9-0.8 3.9-1.9 1.8-2 5.5-11.6 5.8-15.3 0.1-1.3 0.6 11.9 0.9 29.2 0.4 17.3 1 33.8 1.4 36.6 0.6 4.7 0.5 5.3-1.6 6.8-2.7 1.8-6.8 2-11.9 0.6-5.8-1.7-6.2-2.4-7.4-10.7-1.3-9.4-0.9-77.4 0.5-75.2 0.5 0.8 0.9 5 0.9 9.4zm13.1 1.7c-1.5 7.4-4.7 15.2-6 14.4-1.4-0.9-3.1-9-3.1-15v-5.5l4.8-0.3c2.6-0.2 4.9-0.2 5.1-0.1s-0.2 3.1-0.8 6.5z" fill="#000000" stroke="#000000" stroke-width="0.5" stroke-miterlimit="10" />
        <path id="path896" d="m326 382.2c-35.2 3.3-70.2 16.6-92.4 35-19.3 16.1-30.6 37.2-30.6 57.3s11.3 41.2 30.6 57.3c17.7 14.7 43.3 26.2 70.8 31.7 67.1 13.4 138-4.9 171.8-44.3 7.1-8.3 14.4-22.4 16.3-31.7 3.1-14.6 1.2-27.8-6-42-21.9-43.5-89.2-70.1-160.5-63.3zm44.5 1.8c59.4 6.6 104.8 33.9 118.3 71.2 2.3 6.4 2.7 8.8 2.7 19.3s-0.4 12.9-2.7 19.3c-9.9 27.4-36.7 49.4-75.4 62.1-52.2 17.1-116.5 11.9-159.9-13-50.2-28.8-62.9-74.1-31.2-111.7 20.5-24.4 59.2-42.1 102.7-47.1 10.7-1.2 34.9-1.3 45.5-0.1z" fill="#000000" stroke="#000000" stroke-width="0.5" stroke-miterlimit="10" />
        <path id="path898" d="m504.4 577.4c-0.3 0.8-0.4 2.7-0.2 4.3 0.3 2.5 0.7 2.8 4.5 3.1 3.5 0.3 4.2 0 4.8-1.8 0.4-1.2 0.4-3.2 0.1-4.6-0.5-2-1.2-2.4-4.7-2.4-2.5 0-4.2 0.5-4.5 1.4z" fill="#000000" stroke="#000000" stroke-width="0.5" stroke-miterlimit="10" />
        <path id="path900" d="m393 587.9v6l-3.7 0.3c-3.5 0.3-3.8 0.6-3.8 3.3s0.3 3 3.7 3.3l3.7 0.3 0.3 17 0.3 17.1 3.3 2.9c2.8 2.5 4 2.9 9 2.9 6.5 0 8.2-1.1 8.2-5.2 0-2.7-0.1-2.7-5.2-2.5-7.2 0.3-7.8-1.1-7.8-18.5v-13.7l6.3-0.3c6.2-0.3 6.2-0.3 6.5-3.6l0.3-3.2h-6.5-6.6v-6-6h-4-4v5.9z" fill="#000000" stroke="#000000" stroke-width="0.5" stroke-miterlimit="10" />
        <path id="path902" d="m473 587.9v6l-3.7 0.3c-3.5 0.3-3.8 0.6-3.8 3.3s0.3 3 3.7 3.3l3.7 0.3 0.3 17 0.3 17.1 3.3 2.9c2.8 2.5 4 2.9 9 2.9 6.5 0 8.2-1.1 8.2-5.2 0-2.7-0.1-2.7-5.2-2.5-7.2 0.3-7.8-1.1-7.8-18.5v-13.7l6.3-0.3c6.2-0.3 6.2-0.3 6.5-3.6l0.3-3.2h-6.5-6.6v-6-6h-4-4v5.9z" fill="#000000" stroke="#000000" stroke-width="0.5" stroke-miterlimit="10" />
        <path id="path904" d="m256.5 594.5c-5.6 1.9-11 8.3-12.5 14.6-1.9 7.7-0.8 17.8 2.3 23.2 4.1 6.9 9.3 9 21.1 8.5 10.6-0.4 14.6-2.2 14.6-6.3 0-2.9-0.5-3-7.7-0.9-7.4 2.2-14.5 1.5-17.9-1.7-3.2-3-4-4.4-4.8-9.1l-0.7-3.7 31.6-0.6 0.3-5c0.5-6.9-1.2-11.8-5.3-15.4-5.7-4.9-13.4-6.3-21-3.6zm13.6 6.5c2.4 1.3 4.9 6.1 4.9 9.5v2.5h-12.1c-11.6 0-12-0.1-11.5-2 0.3-1.1 0.8-2.9 1.2-4 1-3.7 6.2-7 11-7 2.5 0 5.4 0.5 6.5 1z" fill="#000000" stroke="#000000" stroke-width="0.5" stroke-miterlimit="10" />
        <path id="path906" d="m303.7 594.4c-4.6 1.7-6.4 3.2-8.3 6.7-1.7 3.3-1.9 11.8-0.3 15.3 0.9 1.9 0.8 2.9-0.5 4.7-2 2.9-2.1 9.8-0.2 12.4 1.2 1.7 1.1 2.3-1 5.4-5.1 7.6-2.3 15.6 6.2 18 6.3 1.8 18.3 1.3 23-0.8 7.6-3.5 11.2-11.2 8.1-17.7-2.3-4.8-6.4-6.5-17.6-7.1-11.4-0.7-13.3-1.4-12.9-5.1 0.2-2.2 0.7-2.6 2.8-2.4 16.3 2.2 24-2.6 24-15 0-3.1-0.4-6-1-6.3-2.1-1.3-0.9-2.5 2.5-2.5 3.2 0 3.5-0.2 3.5-3v-3h-6.4c-3.4 0-9-0.2-12.2-0.5-3.8-0.4-7.2 0-9.7 0.9zm12.3 6.6c2.3 1.2 4.4 7.3 3.5 10.2-1.3 4.3-4.6 6.8-8.7 6.8-5.3 0-7.4-1.3-8.8-5.5-2.2-6.5 1.8-12.5 8.2-12.5 2.2 0 4.8 0.4 5.8 1zm4 38c5.3 2.9 4.4 9.1-1.7 11.7-2.7 1.1-5.6 1.4-9.6 1-9.2-0.8-12.2-5.3-7.6-11.1 1.9-2.4 2.6-2.6 9.5-2.6 4.2 0 8.4 0.5 9.4 1z" fill="#000000" stroke="#000000" stroke-width="0.5" stroke-miterlimit="10" />
        <path id="path908" d="m352.5 594.5c-5.6 1.9-11 8.3-12.5 14.6-1.9 7.7-0.8 17.8 2.3 23.2 4.1 6.9 9.3 9 21.1 8.5 10.6-0.4 14.6-2.2 14.6-6.3 0-2.9-0.5-3-7.7-0.9-7.4 2.2-14.5 1.5-17.9-1.7-3.2-3-4-4.4-4.8-9.1l-0.7-3.7 31.6-0.6 0.3-5c0.5-6.9-1.2-11.8-5.3-15.4-5.7-4.9-13.4-6.3-21-3.6zm13.6 6.5c2.4 1.3 4.9 6.1 4.9 9.5v2.5h-12.1c-11.6 0-12-0.1-11.5-2 0.3-1.1 0.8-2.9 1.2-4 1-3.7 6.2-7 11-7 2.5 0 5.4 0.5 6.5 1z" fill="#000000" stroke="#000000" stroke-width="0.5" stroke-miterlimit="10" />
        <path id="path910" d="m434.5 593.6c-6.8 1.6-10.5 3.7-11.1 6.1-1.1 4.1 0.9 4.9 6.5 2.4 11.3-4.8 19.1-1.5 19.1 8.4v3.5h-7.7c-12.7 0.1-19.1 4.1-20.1 12.6-1 9.1 4.3 14.4 14.4 14.4 4.3 0 6.8-0.6 10-2.5l4.3-2.5 0.3 2.2c0.2 1.8 0.9 2.3 3.3 2.3h3l0.3-18c0.2-19.7-0.4-22.8-5.8-26.7-2.5-1.8-12.6-3.2-16.5-2.2zm14.5 30.2c0 5-1.6 7.5-6.7 10.1-7.3 3.8-15.1-2-12.2-9.1 0.6-1.5 1.2-2.8 1.3-2.8 0 0 1.9-0.7 4.1-1.5s6.1-1.4 8.8-1.5h4.7v4.8z" fill="#000000" stroke="#000000" stroke-width="0.5" stroke-miterlimit="10" />
        <path id="path912" d="m583.8 594c-9.5 2.8-14 9.5-14.6 21.6-0.7 12.4 2.4 19.6 9.8 23.4 4.6 2.3 18.1 2.7 24 0.7 2.9-1 3.6-1.7 3.8-4.5 0.4-3.7-0.3-3.9-6.3-1.7-5.2 1.8-11.7 1.9-16.1 0-3.6-1.5-7.3-7.6-7.4-12.2 0-2.2 0.2-2.3 15.8-2.5l15.7-0.3 0.3-4.9c0.9-14.3-11.3-23.8-25-19.6zm12.7 7.6c2.4 1.5 4.5 6.1 4.5 9.5 0 1.7-1 1.9-12 1.9-7.6 0-12-0.4-12-1 0-2.5 3-7.8 5.5-9.8 3.3-2.7 10.4-3 14-0.6z" fill="#000000" stroke="#000000" stroke-width="0.5" stroke-miterlimit="10" />
        <path id="path914" d="m196 594.9c0 1.5 15.2 43.6 16.3 44.8 1 1.4 7.5 1.7 9.3 0.5 1.2-0.8 16.4-42.3 16.4-44.7 0-1.1-1.2-1.5-3.9-1.5h-3.9l-6.2 18.5c-3.4 10.2-6.3 18.5-6.5 18.5-0.1 0-3.1-8.3-6.6-18.5l-6.2-18.5h-4.4c-2.4 0-4.3 0.4-4.3 0.9z" fill="#000000" stroke="#000000" stroke-width="0.5" stroke-miterlimit="10" />
        <path id="path916" d="m505.2 617.2 0.3 23.3h3.5 3.5l0.3-23.3 0.2-23.2h-4-4l0.2 23.2z" fill="#000000" stroke="#000000" stroke-width="0.5" stroke-miterlimit="10" />
        <path id="path918" d="m522 595.1c0 1.8 15 43.2 16.2 44.6 1.3 1.7 8.2 1.7 9.6 0 1.1-1.3 16.2-42.9 16.2-44.7 0-0.7-1.6-1-4.2-0.8l-4.1 0.3-12.4 37-1.6-4.5c-1-2.5-3.8-10.8-6.5-18.5l-4.7-14-4.2-0.3c-2.8-0.2-4.3 0.1-4.3 0.9z" fill="#000000" stroke="#000000" stroke-width="0.5" stroke-miterlimit="10" />
        <path id="path920" d="m403.2 726.7 0.3 33.8h3.5 3.5l0.3-33.8 0.2-33.7h-4-4l0.2 33.7z" fill="#000000" stroke="#000000" stroke-width="0.5" stroke-miterlimit="10" />
        <path id="path922" d="m270.5 714.9c-2.2 1-4.6 2.5-5.4 3.4-2 2.5-3.1 2.1-3.1-1.3 0-2.8-0.3-3-3.5-3h-3.5l0.2 23.2 0.3 23.3h3.5 3.5l0.6-32 3.1-3.2c6-6.1 12.7-6.4 16.5-0.6 1.5 2.2 1.9 5.6 2.3 19.3l0.5 16.5h3.5 3.5l0.3-15c0.4-17.5-0.7-24.1-4.6-27.8-5.2-4.9-11-5.9-17.7-2.8z" fill="#000000" stroke="#000000" stroke-width="0.5" stroke-miterlimit="10" />
        <path id="path924" d="m370.7 714.4c-5.2 1.9-7.6 4.2-10.3 10.1-2.6 5.5-3.3 16.8-1.4 23.7 1.3 4.4 5.2 9.3 9.1 11.3 4.2 2.2 15.1 1.9 19.9-0.5 3.7-1.9 4-2.4 4-6 0-2.2-0.3-4-0.7-4-0.5 0-2.6 1.2-4.8 2.5-5.4 3.4-11.3 3.4-15.4 0-7.3-6.2-6-25.9 2-30 4-2.1 7.8-1.8 12.8 1 2.3 1.4 4.7 2.5 5.3 2.5 0.5 0 0.8-1.7 0.6-3.7-0.2-3-1-4.1-3.5-5.6-4.3-2.5-12.8-3.1-17.6-1.3z" fill="#000000" stroke="#000000" stroke-width="0.5" stroke-miterlimit="10" />
        <path id="path926" d="m437.8 714c-9.5 2.8-14 9.5-14.6 21.6-0.7 12.4 2.4 19.6 9.8 23.4 4.6 2.3 18.1 2.7 24 0.7 2.9-1 3.6-1.7 3.8-4.5 0.4-3.7-0.3-3.9-6.3-1.7-5.2 1.8-11.7 1.9-16.1 0-3.6-1.5-7.3-7.6-7.4-12.2 0-2.2 0.2-2.3 15.8-2.5l15.7-0.3 0.3-4.9c0.9-14.3-11.3-23.8-25-19.6zm12.7 7.6c2.4 1.5 4.5 6.1 4.5 9.5 0 1.7-1 1.9-12 1.9-7.6 0-12-0.4-12-1 0-2.5 3-7.8 5.5-9.8 3.3-2.7 10.4-3 14-0.6z" fill="#000000" stroke="#000000" stroke-width="0.5" stroke-miterlimit="10" />
        <path id="path928" d="m535.5 714c-6 2-9.5 6.6-9.5 12.6 0 5.7 2.9 9 10.9 12.6 10.7 4.8 13.1 8.1 9.3 12.8-2.6 3.2-8.8 3.7-14.7 1.1-6.2-2.7-6.5-2.7-6.5 0.9 0 4.7 4.6 7 14 7 11.4 0 17-4.5 17-13.8 0-5.7-3-8.8-12.5-13.2-7.9-3.6-9.5-5.1-9.5-8.9 0-4.7 9.2-6.8 15.4-3.6 1.5 0.8 3.2 1.2 3.7 0.9 1.8-1.1 0.9-5.4-1.5-6.9-3-2-12-2.8-16.1-1.5z" fill="#000000" stroke="#000000" stroke-width="0.5" stroke-miterlimit="10" />
        <path id="path930" d="m308 732c0 20.4 0.8 23.7 6.2 27 5 3 13.4 2.8 18.4-0.6 2.1-1.5 4.2-3.1 4.6-3.7 0.3-0.6 0.8 0.5 1 2.4 0.3 3 0.7 3.4 3.6 3.7l3.2 0.3v-23.5-23.6h-3.5-3.5v15.6 15.7l-4.4 4.3c-3.5 3.5-5 4.4-7.9 4.4-8.7 0-9.8-2.7-10.5-23.7l-0.5-16.3h-3.3-3.4v18z" fill="#000000" stroke="#000000" stroke-width="0.5" stroke-miterlimit="10" />
        <path id="path932" d="m475.2 732.2c0.4 19.8 1 22.5 6.4 26.7 2 1.6 4.1 2.1 8.6 2.1 6.3 0 10.1-1.4 13.3-5l2-2.2 0.5 3.3c0.4 3 0.9 3.4 3.5 3.4h3l0.3-23.3 0.2-23.2h-4-4v16.4 16.4l-4.2 3.6c-6.9 6-14.6 4.5-16.8-3.2-0.5-2-1-10.3-1-18.5v-14.7h-4.1-4.1l0.4 18.2z" fill="#000000" stroke="#000000" stroke-width="0.5" stroke-miterlimit="10" />
    </g>
    <g id="vn_invitro">
        <path id="path944" d="m321.03 563.65c-53.23-7.22-93.809-30.936-109.51-64.005-8.861-18.658-7.667-38.173 3.503-57.256 4.769-8.147 20.301-23.87 29.694-30.059 16.317-10.75 39.774-20.056 63.039-25.009 10.501-2.236 14.58-2.577 35.731-2.992 21.301-0.418 25.254-0.248 36.653 1.575 37.033 5.923 66.46 18.951 86.771 38.415 9.724 9.319 17.556 20.866 21.145 31.177 2.361 6.78 2.702 9.136 2.713 18.727 0.014 12.253-1.174 17.552-6.151 27.435-16.483 32.731-61.139 57.203-114.14 62.548-13.393 1.35-37.384 1.081-49.449-0.556z" fill="#ffffff" stroke="#ffffff" stroke-width=".94832" stroke-miterlimit="10" />
    </g>
</svg>
