<svg xmlns="http://www.w3.org/2000/svg" width="75" height="75" viewBox="0 0 300 300"><g id="shapes"><path id="pollin" fill="none" d="M93.86 101.869s9.337-40.261 33.259-43.762c19.256-2.335 40.843-12.254 64.184 45.512 9.922 19.837 23.346 78.185-4.082 103.861-16.339 11.671-79.36 39.679-93.945-23.338-2.332-22.175-8.169-75.852.584-82.273z"/></g><g id="outline"><path fill="none" stroke="#000000" stroke-width=".5" stroke-miterlimit="10" d="M136.457 85.53c.956.995 1.712 2.14 2.332 3.501M144.628 76.196c.958.995 1.713 2.14 2.332 3.501M142.877 101.869c.958.996 1.713 2.141 2.332 3.501M133.54 111.787c.958.995 1.714 2.141 2.332 3.501M147.545 90.781c.956.995 1.712 2.14 2.331 3.501M123.619 87.28c.413 1.884 1.422 3.625 2.335 5.252M131.205 98.953c.472.917.666 1.887.581 2.916M107.864 103.035c.366.735.568 1.521.585 2.335M103.197 119.958c.363.735.564 1.521.582 2.332M104.363 139.214v1.166M102.028 154.385c.773-.959.673.211.585 1.164M103.778 168.973v1.166M100.862 182.977c-.195-.195-.39-.39-.584-.585M98.527 157.885h-.582M97.945 146.797c.045-.434-.15-.629-.584-.581M97.945 126.96v-.585M102.028 105.955v.582M108.449 91.366v-.585M113.7 84.364c.083 1.675-.313 3.224-1.168 4.667M111.949 99.534c.298.906.151 1.576-.584 1.751M112.531 107.705v-2.92M116.617 82.029h-.585M121.868 72.111h.584M128.286 75.027c.095 1.792-.401 3.624-1.167 5.251M131.205 83.779v.584M142.874 63.358c.048.438-.147.632-.585.584M138.789 63.942c-1.785.66-3.561 1.542-5.252 2.332M131.205 63.358c-.085 1.504.103 2.8.581 4.085M138.207 73.861c.349.537.544 1.122.582 1.75M142.289 72.695v2.916M127.704 122.29c.637 1.446 1.562 3.812 1.75 5.836M131.205 124.625c-.29-.663-.693-1.255-1.169-1.75M127.119 112.957c-.625 1.033-.817 2.226-.585 3.501M127.119 124.625c-.171 1.675-.782 3.306-1.75 4.667M121.868 135.713c-.865 1.805-1.443 3.928 0 5.251M127.704 148.548c.26.804.64 1.114 1.165.585M134.706 129.292c-.205.653-.034 1.077.581 1.169M149.876 118.208c.584-.578.975-.578 1.166 0M160.379 113.538c.595 1.474.789 3.054.584 4.67M162.13 125.791c-.13 1.105-.291 1.911-.585 2.92M153.377 124.041c-.551-.082-1.132-.045-1.662.089-.112.653-.256 1.562-.088 2.246M148.71 126.96c-.656 2.075-.687 4.233-.585 6.417M148.125 140.38c.212.988-.171 1.634-1.165 1.751M135.872 137.463c-.394.588-.776 1.159-1.166 1.751M130.036 142.715c.916.975 1.859 2.623 2.335 4.082M141.124 155.549c1.515 1.327 1.6 3.259 2.335 5.252M142.874 166.053c.205.652.033 1.08-.585 1.17M130.036 154.969c.205.652.033 1.076-.582 1.166M125.954 154.969c-.106.14-.944 2.8-1.752 4.082M120.117 170.139c.066 1.209.26 2.359.585 3.501M125.369 179.475c.297.391.688.586 1.165.582M128.869 167.803v-1.75M135.872 163.721c.581.205 1.148.441 1.702.711.407.996-.062 1.152-.537 1.621M121.868 147.382c-.089-.619-.51-.79-1.166-.585M134.121 168.973c.291.659.694 1.254 1.166 1.75M137.037 175.975c1.375 1.918 3.061 3.555 4.671 5.251M139.372 182.977c-1.343-.301-2.464-.858-3.5-1.751M132.371 180.057v3.501M131.205 192.895v2.335M123.034 188.81c.362 1.534.98 3.189 1.75 4.67M130.621 204.563c1.162.414 2.324.804 3.5 1.17M141.708 210.984c-.194-.592-.387-1.162-.584-1.751M139.957 192.895h.582M149.291 190.56c1.017.708 2.137 1.378 2.921 1.75M159.794 196.396c.247.807.13 1.483-.581 1.751M149.876 198.731c-.652.659-.526 1.77 0 2.915M150.46 212.15c2.035.235 4.206.178 5.834-1.166M166.215 208.064c.482-.461.94-1.423 1.167-2.331M174.383 191.145c1.121-.801 1.022-1.58 0-2.335M174.968 173.055c.257.308-.363.77-1.169 1.169M170.882 176.556c-.383 1.556-.575 3.077-.585 4.67M165.046 188.81c-1.748.03-2.903-1.084-3.501-2.917M157.462 180.057c-.778.678-1.548.693-2.335 0M153.962 169.553v-1.75M158.044 159.051v1.75M162.13 167.223c-.879 1.428-.981 2.471.585 2.33M169.132 167.803c-.024-1.445-.425-2.82-1.167-4.082M174.968 147.967c-.685.146-1.286-.055-1.751-.585M174.968 140.38v8.168M174.383 161.386c.086 1.218.455 1.579 1.166.585M176.133 153.799c-.684.144-1.285-.055-1.75-.58M165.046 147.382c-.236 1.3-.759 2.28-1.751 2.916M156.294 152.633c-1.372-.246-2.373-1.053-2.917-2.335M142.874 142.715c-.646-.523-1.016-.215-1.166.582M143.459 151.467c.513.414 1.072.613 1.75.582M159.213 146.216c-1.022-.659-1.583-1.679-1.751-2.919M159.213 138.629c.434-.045.629.15.581.585M164.465 139.795c-.496 1.555-.38 2.865 1.165 2.919M170.882 138.629v-1.166M173.217 129.292c-.649.605-1.456.793-2.335.584M169.132 122.29c-.401-1.002-.766-1.914-1.167-2.916M158.044 107.12c-.965.202-1.367-.201-1.166-1.166M155.127 95.452c-1.004.588-1.555 1.627-1.75 2.916M152.212 107.12c-.219.965-.414 1.939-.585 2.917M146.96 115.289c-.236.872-.853 1.289-1.751 1.169M139.372 118.208c-.868 2.226-.577 4.619-.583 7.002M138.207 131.042c.711-.267.827-.94.582-1.75M160.379 86.699h.584M156.878 82.029c-.841.605-1.85.793-2.916.585M152.792 76.196c.076-1.029-.123-1.997-.58-2.92M159.794 70.945v2.916M163.88 79.112c-.071.917.324 1.549 1.166 1.75M158.629 66.859h1.165M153.377 63.942c-.13.619-.551 1.036-1.165 1.166M149.291 65.693v1.166M117.201 70.945c-.53.677-.725 1.439-.584 2.331M102.028 97.783c-.55-.701-1.159.147-1.75 1.169M97.945 105.37c-.902.978-1.213 1.976-.584 2.916M110.199 111.787c.615.092.786.517.582 1.169M108.449 122.29c-.995 1.348-1.781 2.91-2.335 4.67M100.862 142.131c.123 1.627.305 3.083.585 4.666M103.778 186.478v4.082M104.948 198.146c.335 1.183.978 2.458 1.75 3.5M109.614 206.898c1.518 1.46 3.269 3.577 3.501 5.836M114.866 213.316c1.583.961 2.619 2.1 4.085 3.5M172.632 90.2v2.916M177.884 101.285c-.389-.387-.78-.776-1.166-1.166M172.632 80.863c.138-.472-.208-.28-.585 0M170.297 73.276v1.751M183.72 110.037c.731.177.879.848.582 1.75M190.138 116.458c.923 1.973 1.418 4.223 1.165 6.417M187.802 125.21c-.602-.653-.785-1.457-.581-2.335M183.135 101.869c-.683.732-.875 2.168-.585 3.501M180.8 108.286c.602 2.035 2.09 3.71 2.92 5.836M191.303 131.042c.514 2.014 1.02 3.757 1.17 5.836M191.888 144.466c-.13 2.242-.796 4.13-.585 6.417M192.473 157.301c.3.092.512-.701.581-1.752M198.89 136.294c-1.524-.167-1.275 2.732-.585 4.67M195.973 157.301c.261 1.631.062 3.302-.583 4.67M193.054 170.723v2.917M191.303 180.641c.175 1.803-.017 3.546-.58 5.252M187.221 194.061v2.335M186.637 200.481c.126 3.348-2.616 7.035-4.087 9.918"/><path fill="none" stroke="#000000" stroke-width=".5" stroke-miterlimit="10" d="M93.86 101.869s9.337-40.261 33.259-43.762c19.256-2.335 40.843-12.254 64.184 45.512 9.922 19.837 23.346 78.185-4.082 103.861-16.339 11.671-79.36 39.679-93.945-23.338-2.332-22.175-8.169-75.852.584-82.273z"/><path fill="none" stroke="#000000" stroke-width=".5" stroke-miterlimit="10" d="M163.008 95.243c.305.698.595 1.385.868 1.932.489.975.907 1.942 1.316 2.896.619 1.436 1.258 2.923 2.113 4.393l.729 1.238c2.916 5.005 5.45 9.292 7.412 14.565 1.914 5.104 3.464 10.595 5.142 16.725 1.341 4.821 2.849 11.221 2.849 17.967.003 2.67-.15 5.312-.298 7.931-.126 2.233-.249 4.435-.287 6.623l-.038 3.114c-.037 3.877-.074 7.535-.516 11.231-.502 4.178-1.129 9.379-2.633 13.382-1.467 3.904-3.784 7.156-6.239 10.578l-.722 1.016c-3.218 4.533-8.001 7.727-13.679 9.357-.653.075-1.276.137-1.915.229-1.145.164-2.229.488-3.262.813-1.094.103-2.243.188-3.398.194h-.301c-4.325 0-9.143-.618-12.958-1.678-3.774-1.047-6.048-3.911-8.629-7.584-.714-1.008-1.47-2.017-2.232-3.039-2.024-2.715-4.134-5.521-5.451-8.445-1.667-3.723-2.697-7.87-3.703-11.891l-.386-1.532c-1.866-7.412-2.232-16.725-1.077-27.676.277-2.619.312-5.152.343-7.604.03-2.219.071-4.314.252-6.438.236-2.592.704-5.29 1.16-7.881.379-2.229.769-4.441 1.033-6.639.605-5.002 1.384-9.676 2.291-13.892.239-1.148.417-2.325.584-3.498.191-1.357.362-2.643.673-3.85l.249-.93"/></g></svg>