<?xml version="1.0" encoding="utf-8"?>
<!-- Generator: Adobe Illustrator 16.0.0, SVG Export Plug-In . SVG Version: 6.00 Build 0) -->
<!DOCTYPE svg PUBLIC "-//W3C//DTD SVG 1.1//EN" "http://www.w3.org/Graphics/SVG/1.1/DTD/svg11.dtd">
<svg author="Provart Lab - Bio Analytic Resource, University of Toronto" license="CCBY4.0" version="1.1" xmlns="http://www.w3.org/2000/svg" xmlns:xlink="http://www.w3.org/1999/xlink" x="0px" y="0px" width="75px"
    height="75px" viewBox="0 0 300 300" enable-background="new 0 0 300 300" xml:space="preserve">
	<g id="shapes">
		<path id="pollin" fill="none" d="M93.86,101.869c0,0,9.337-40.261,33.259-43.762c19.256-2.335,40.843-12.254,64.184,45.512
                   		c9.922,19.837,23.346,78.185-4.082,103.861c-16.339,11.671-79.36,39.679-93.945-23.338C90.944,161.967,85.107,108.29,93.86,101.869
                   		z" />
	</g>
	<g id="outline">
		<g>
			<path fill="none" stroke="#000000" stroke-width="0.5" stroke-miterlimit="10" d="M136.457,85.53
                   			c0.956,0.995,1.712,2.14,2.332,3.501" />
			<path fill="none" stroke="#000000" stroke-width="0.5" stroke-miterlimit="10" d="M144.628,76.196
                   			c0.958,0.995,1.713,2.14,2.332,3.501" />
			<path fill="none" stroke="#000000" stroke-width="0.5" stroke-miterlimit="10" d="M142.877,101.869
                   			c0.958,0.996,1.713,2.141,2.332,3.501" />
			<path fill="none" stroke="#000000" stroke-width="0.5" stroke-miterlimit="10" d="M133.54,111.787
                   			c0.958,0.995,1.714,2.141,2.332,3.501" />
			<path fill="none" stroke="#000000" stroke-width="0.5" stroke-miterlimit="10" d="M147.545,90.781
                   			c0.956,0.995,1.712,2.14,2.331,3.501" />
			<path fill="none" stroke="#000000" stroke-width="0.5" stroke-miterlimit="10" d="M123.619,87.28
                   			c0.413,1.884,1.422,3.625,2.335,5.252" />
			<path fill="none" stroke="#000000" stroke-width="0.5" stroke-miterlimit="10" d="M131.205,98.953
                   			c0.472,0.917,0.666,1.887,0.581,2.916" />
			<path fill="none" stroke="#000000" stroke-width="0.5" stroke-miterlimit="10" d="M107.864,103.035
                   			c0.366,0.735,0.568,1.521,0.585,2.335" />
			<path fill="none" stroke="#000000" stroke-width="0.5" stroke-miterlimit="10" d="M103.197,119.958
                   			c0.363,0.735,0.564,1.521,0.582,2.332" />
			<path fill="none" stroke="#000000" stroke-width="0.5" stroke-miterlimit="10" d="M104.363,139.214c0-1.022,0,0.946,0,1.166"
			/>
			<path fill="none" stroke="#000000" stroke-width="0.5" stroke-miterlimit="10" d="M102.028,154.385
                   			c0.773-0.959,0.673,0.211,0.585,1.164" />
			<path fill="none" stroke="#000000" stroke-width="0.5" stroke-miterlimit="10" d="M103.778,168.973c0,0.389,0,0.775,0,1.166"
			/>
			<path fill="none" stroke="#000000" stroke-width="0.5" stroke-miterlimit="10" d="M100.862,182.977
                   			c-0.195-0.195-0.39-0.39-0.584-0.585" />
			<path fill="none" stroke="#000000" stroke-width="0.5" stroke-miterlimit="10" d="M98.527,157.885c-0.195,0-0.387,0-0.582,0"
			/>
			<path fill="none" stroke="#000000" stroke-width="0.5" stroke-miterlimit="10" d="M97.945,146.797
                   			c0.045-0.434-0.15-0.629-0.584-0.581" />
			<path fill="none" stroke="#000000" stroke-width="0.5" stroke-miterlimit="10" d="M97.945,126.96c0-0.195,0-0.39,0-0.585" />
			<path fill="none" stroke="#000000" stroke-width="0.5" stroke-miterlimit="10" d="M102.028,105.955c0-1.183,0,0.77,0,0.582"
			/>
			<path fill="none" stroke="#000000" stroke-width="0.5" stroke-miterlimit="10" d="M108.449,91.366c0-0.195,0-0.39,0-0.585" />
			<path fill="none" stroke="#000000" stroke-width="0.5" stroke-miterlimit="10" d="M113.7,84.364
                   			c0.083,1.675-0.313,3.224-1.168,4.667" />
			<path fill="none" stroke="#000000" stroke-width="0.5" stroke-miterlimit="10" d="M111.949,99.534
                   			c0.298,0.906,0.151,1.576-0.584,1.751" />
			<path fill="none" stroke="#000000" stroke-width="0.5" stroke-miterlimit="10" d="M112.531,107.705c0-0.975,0-1.945,0-2.92"
			/>
			<path fill="none" stroke="#000000" stroke-width="0.5" stroke-miterlimit="10" d="M116.617,82.029c-0.195,0-0.39,0-0.585,0"
			/>
			<path fill="none" stroke="#000000" stroke-width="0.5" stroke-miterlimit="10" d="M121.868,72.111c0.194,0,0.39,0,0.584,0" />
			<path fill="none" stroke="#000000" stroke-width="0.5" stroke-miterlimit="10" d="M128.286,75.027
                   			c0.095,1.792-0.401,3.624-1.167,5.251" />
			<path fill="none" stroke="#000000" stroke-width="0.5" stroke-miterlimit="10" d="M131.205,83.779c0,0.195,0,0.39,0,0.584" />
			<path fill="none" stroke="#000000" stroke-width="0.5" stroke-miterlimit="10" d="M142.874,63.358
                   			c0.048,0.438-0.147,0.632-0.585,0.584" />
			<path fill="none" stroke="#000000" stroke-width="0.5" stroke-miterlimit="10" d="M138.789,63.942
                   			c-1.785,0.66-3.561,1.542-5.252,2.332" />
			<path fill="none" stroke="#000000" stroke-width="0.5" stroke-miterlimit="10" d="M131.205,63.358
                   			c-0.085,1.504,0.103,2.8,0.581,4.085" />
			<path fill="none" stroke="#000000" stroke-width="0.5" stroke-miterlimit="10" d="M138.207,73.861
                   			c0.349,0.537,0.544,1.122,0.582,1.75" />
			<path fill="none" stroke="#000000" stroke-width="0.5" stroke-miterlimit="10" d="M142.289,72.695c0,0.971,0,1.945,0,2.916"
			/>
			<path fill="none" stroke="#000000" stroke-width="0.5" stroke-miterlimit="10" d="M127.704,122.29
                   			c0.637,1.446,1.562,3.812,1.75,5.836" />
			<path fill="none" stroke="#000000" stroke-width="0.5" stroke-miterlimit="10" d="M131.205,124.625
                   			c-0.29-0.663-0.693-1.255-1.169-1.75" />
			<path fill="none" stroke="#000000" stroke-width="0.5" stroke-miterlimit="10" d="M127.119,112.957
                   			c-0.625,1.033-0.817,2.226-0.585,3.501" />
			<path fill="none" stroke="#000000" stroke-width="0.5" stroke-miterlimit="10" d="M127.119,124.625
                   			c-0.171,1.675-0.782,3.306-1.75,4.667" />
			<path fill="none" stroke="#000000" stroke-width="0.5" stroke-miterlimit="10" d="M121.868,135.713
                   			c-0.865,1.805-1.443,3.928,0,5.251" />
			<path fill="none" stroke="#000000" stroke-width="0.5" stroke-miterlimit="10" d="M127.704,148.548
                   			c0.26,0.804,0.64,1.114,1.165,0.585" />
			<path fill="none" stroke="#000000" stroke-width="0.5" stroke-miterlimit="10" d="M134.706,129.292
                   			c-0.205,0.653-0.034,1.077,0.581,1.169" />
			<path fill="none" stroke="#000000" stroke-width="0.5" stroke-miterlimit="10" d="M149.876,118.208
                   			c0.584-0.578,0.975-0.578,1.166,0" />
			<path fill="none" stroke="#000000" stroke-width="0.5" stroke-miterlimit="10" d="M160.379,113.538
                   			c0.595,1.474,0.789,3.054,0.584,4.67" />
			<path fill="none" stroke="#000000" stroke-width="0.5" stroke-miterlimit="10" d="M162.13,125.791
                   			c-0.13,1.105-0.291,1.911-0.585,2.92" />
			<path fill="none" stroke="#000000" stroke-width="0.5" stroke-miterlimit="10" d="M153.377,124.041
                   			c-0.551-0.082-1.132-0.045-1.662,0.089c-0.112,0.653-0.256,1.562-0.088,2.246" />
			<path fill="none" stroke="#000000" stroke-width="0.5" stroke-miterlimit="10" d="M148.71,126.96
                   			c-0.656,2.075-0.687,4.233-0.585,6.417" />
			<path fill="none" stroke="#000000" stroke-width="0.5" stroke-miterlimit="10" d="M148.125,140.38
                   			c0.212,0.988-0.171,1.634-1.165,1.751" />
			<path fill="none" stroke="#000000" stroke-width="0.5" stroke-miterlimit="10" d="M135.872,137.463
                   			c-0.394,0.588-0.776,1.159-1.166,1.751" />
			<path fill="none" stroke="#000000" stroke-width="0.5" stroke-miterlimit="10" d="M130.036,142.715
                   			c0.916,0.975,1.859,2.623,2.335,4.082" />
			<path fill="none" stroke="#000000" stroke-width="0.5" stroke-miterlimit="10" d="M141.124,155.549
                   			c1.515,1.327,1.6,3.259,2.335,5.252" />
			<path fill="none" stroke="#000000" stroke-width="0.5" stroke-miterlimit="10" d="M142.874,166.053
                   			c0.205,0.652,0.033,1.08-0.585,1.17" />
			<path fill="none" stroke="#000000" stroke-width="0.5" stroke-miterlimit="10" d="M130.036,154.969
                   			c0.205,0.652,0.033,1.076-0.582,1.166" />
			<path fill="none" stroke="#000000" stroke-width="0.5" stroke-miterlimit="10" d="M125.954,154.969
                   			c-0.106,0.14-0.944,2.8-1.752,4.082" />
			<path fill="none" stroke="#000000" stroke-width="0.5" stroke-miterlimit="10" d="M120.117,170.139
                   			c0.066,1.209,0.26,2.359,0.585,3.501" />
			<path fill="none" stroke="#000000" stroke-width="0.5" stroke-miterlimit="10" d="M125.369,179.475
                   			c0.297,0.391,0.688,0.586,1.165,0.582" />
			<path fill="none" stroke="#000000" stroke-width="0.5" stroke-miterlimit="10" d="M128.869,167.803c0-0.584,0-1.166,0-1.75"
			/>
			<path fill="none" stroke="#000000" stroke-width="0.5" stroke-miterlimit="10" d="M135.872,163.721
                   			c0.581,0.205,1.148,0.441,1.702,0.711c0.407,0.996-0.062,1.152-0.537,1.621" />
			<path fill="none" stroke="#000000" stroke-width="0.5" stroke-miterlimit="10" d="M121.868,147.382
                   			c-0.089-0.619-0.51-0.79-1.166-0.585" />
			<path fill="none" stroke="#000000" stroke-width="0.5" stroke-miterlimit="10" d="M134.121,168.973
                   			c0.291,0.659,0.694,1.254,1.166,1.75" />
			<path fill="none" stroke="#000000" stroke-width="0.5" stroke-miterlimit="10" d="M137.037,175.975
                   			c1.375,1.918,3.061,3.555,4.671,5.251" />
			<path fill="none" stroke="#000000" stroke-width="0.5" stroke-miterlimit="10" d="M139.372,182.977
                   			c-1.343-0.301-2.464-0.858-3.5-1.751" />
			<path fill="none" stroke="#000000" stroke-width="0.5" stroke-miterlimit="10" d="M132.371,180.057c0,1.166,0,2.335,0,3.501"
			/>
			<path fill="none" stroke="#000000" stroke-width="0.5" stroke-miterlimit="10" d="M131.205,192.895c0,0.78,0,1.556,0,2.335"
			/>
			<path fill="none" stroke="#000000" stroke-width="0.5" stroke-miterlimit="10" d="M123.034,188.81
                   			c0.362,1.534,0.98,3.189,1.75,4.67" />
			<path fill="none" stroke="#000000" stroke-width="0.5" stroke-miterlimit="10" d="M130.621,204.563
                   			c1.162,0.414,2.324,0.804,3.5,1.17" />
			<path fill="none" stroke="#000000" stroke-width="0.5" stroke-miterlimit="10" d="M141.708,210.984
                   			c-0.194-0.592-0.387-1.162-0.584-1.751" />
			<path fill="none" stroke="#000000" stroke-width="0.5" stroke-miterlimit="10" d="M139.957,192.895c0.195,0,0.387,0,0.582,0"
			/>
			<path fill="none" stroke="#000000" stroke-width="0.5" stroke-miterlimit="10" d="M149.291,190.56
                   			c1.017,0.708,2.137,1.378,2.921,1.75" />
			<path fill="none" stroke="#000000" stroke-width="0.5" stroke-miterlimit="10" d="M159.794,196.396
                   			c0.247,0.807,0.13,1.483-0.581,1.751" />
			<path fill="none" stroke="#000000" stroke-width="0.5" stroke-miterlimit="10" d="M149.876,198.731
                   			c-0.652,0.659-0.526,1.77,0,2.915" />
			<path fill="none" stroke="#000000" stroke-width="0.5" stroke-miterlimit="10" d="M150.46,212.15
                   			c2.035,0.235,4.206,0.178,5.834-1.166" />
			<path fill="none" stroke="#000000" stroke-width="0.5" stroke-miterlimit="10" d="M166.215,208.064
                   			c0.482-0.461,0.94-1.423,1.167-2.331" />
			<path fill="none" stroke="#000000" stroke-width="0.5" stroke-miterlimit="10" d="M174.383,191.145
                   			c1.121-0.801,1.022-1.58,0-2.335" />
			<path fill="none" stroke="#000000" stroke-width="0.5" stroke-miterlimit="10" d="M174.968,173.055
                   			c0.257,0.308-0.363,0.77-1.169,1.169" />
			<path fill="none" stroke="#000000" stroke-width="0.5" stroke-miterlimit="10" d="M170.882,176.556
                   			c-0.383,1.556-0.575,3.077-0.585,4.67" />
			<path fill="none" stroke="#000000" stroke-width="0.5" stroke-miterlimit="10" d="M165.046,188.81
                   			c-1.748,0.03-2.903-1.084-3.501-2.917" />
			<path fill="none" stroke="#000000" stroke-width="0.5" stroke-miterlimit="10" d="M157.462,180.057
                   			c-0.778,0.678-1.548,0.693-2.335,0" />
			<path fill="none" stroke="#000000" stroke-width="0.5" stroke-miterlimit="10" d="M153.962,169.553c0-0.584,0-1.164,0-1.75"
			/>
			<path fill="none" stroke="#000000" stroke-width="0.5" stroke-miterlimit="10" d="M158.044,159.051c0,0.584,0,1.166,0,1.75"
			/>
			<path fill="none" stroke="#000000" stroke-width="0.5" stroke-miterlimit="10" d="M162.13,167.223
                   			c-0.879,1.428-0.981,2.471,0.585,2.33" />
			<path fill="none" stroke="#000000" stroke-width="0.5" stroke-miterlimit="10" d="M169.132,167.803
                   			c-0.024-1.445-0.425-2.82-1.167-4.082" />
			<path fill="none" stroke="#000000" stroke-width="0.5" stroke-miterlimit="10" d="M174.968,147.967
                   			c-0.685,0.146-1.286-0.055-1.751-0.585" />
			<path fill="none" stroke="#000000" stroke-width="0.5" stroke-miterlimit="10" d="M174.968,140.38c0,2.722,0,5.446,0,8.168"
			/>
			<path fill="none" stroke="#000000" stroke-width="0.5" stroke-miterlimit="10" d="M174.383,161.386
                   			c0.086,1.218,0.455,1.579,1.166,0.585" />
			<path fill="none" stroke="#000000" stroke-width="0.5" stroke-miterlimit="10" d="M176.133,153.799
                   			c-0.684,0.144-1.285-0.055-1.75-0.58" />
			<path fill="none" stroke="#000000" stroke-width="0.5" stroke-miterlimit="10" d="M165.046,147.382
                   			c-0.236,1.3-0.759,2.28-1.751,2.916" />
			<path fill="none" stroke="#000000" stroke-width="0.5" stroke-miterlimit="10" d="M156.294,152.633
                   			c-1.372-0.246-2.373-1.053-2.917-2.335" />
			<path fill="none" stroke="#000000" stroke-width="0.5" stroke-miterlimit="10" d="M142.874,142.715
                   			c-0.646-0.523-1.016-0.215-1.166,0.582" />
			<path fill="none" stroke="#000000" stroke-width="0.5" stroke-miterlimit="10" d="M143.459,151.467
                   			c0.513,0.414,1.072,0.613,1.75,0.582" />
			<path fill="none" stroke="#000000" stroke-width="0.5" stroke-miterlimit="10" d="M159.213,146.216
                   			c-1.022-0.659-1.583-1.679-1.751-2.919" />
			<path fill="none" stroke="#000000" stroke-width="0.5" stroke-miterlimit="10" d="M159.213,138.629
                   			c0.434-0.045,0.629,0.15,0.581,0.585" />
			<path fill="none" stroke="#000000" stroke-width="0.5" stroke-miterlimit="10" d="M164.465,139.795
                   			c-0.496,1.555-0.38,2.865,1.165,2.919" />
			<path fill="none" stroke="#000000" stroke-width="0.5" stroke-miterlimit="10" d="M170.882,138.629c0-0.39,0-0.776,0-1.166"
			/>
			<path fill="none" stroke="#000000" stroke-width="0.5" stroke-miterlimit="10" d="M173.217,129.292
                   			c-0.649,0.605-1.456,0.793-2.335,0.584" />
			<path fill="none" stroke="#000000" stroke-width="0.5" stroke-miterlimit="10" d="M169.132,122.29
                   			c-0.401-1.002-0.766-1.914-1.167-2.916" />
			<path fill="none" stroke="#000000" stroke-width="0.5" stroke-miterlimit="10" d="M158.044,107.12
                   			c-0.965,0.202-1.367-0.201-1.166-1.166" />
			<path fill="none" stroke="#000000" stroke-width="0.5" stroke-miterlimit="10" d="M155.127,95.452
                   			c-1.004,0.588-1.555,1.627-1.75,2.916" />
			<path fill="none" stroke="#000000" stroke-width="0.5" stroke-miterlimit="10" d="M152.212,107.12
                   			c-0.219,0.965-0.414,1.939-0.585,2.917" />
			<path fill="none" stroke="#000000" stroke-width="0.5" stroke-miterlimit="10" d="M146.96,115.289
                   			c-0.236,0.872-0.853,1.289-1.751,1.169" />
			<path fill="none" stroke="#000000" stroke-width="0.5" stroke-miterlimit="10" d="M139.372,118.208
                   			c-0.868,2.226-0.577,4.619-0.583,7.002" />
			<path fill="none" stroke="#000000" stroke-width="0.5" stroke-miterlimit="10" d="M138.207,131.042
                   			c0.711-0.267,0.827-0.94,0.582-1.75" />
			<path fill="none" stroke="#000000" stroke-width="0.5" stroke-miterlimit="10" d="M160.379,86.699c-0.191,0,1.764,0,0.584,0"
			/>
			<path fill="none" stroke="#000000" stroke-width="0.5" stroke-miterlimit="10" d="M156.878,82.029
                   			c-0.841,0.605-1.85,0.793-2.916,0.585" />
			<path fill="none" stroke="#000000" stroke-width="0.5" stroke-miterlimit="10" d="M152.792,76.196
                   			c0.076-1.029-0.123-1.997-0.58-2.92" />
			<path fill="none" stroke="#000000" stroke-width="0.5" stroke-miterlimit="10" d="M159.794,70.945c0,0.971,0,1.945,0,2.916"
			/>
			<path fill="none" stroke="#000000" stroke-width="0.5" stroke-miterlimit="10" d="M163.88,79.112
                   			c-0.071,0.917,0.324,1.549,1.166,1.75" />
			<path fill="none" stroke="#000000" stroke-width="0.5" stroke-miterlimit="10" d="M158.629,66.859c0.39,0,0.775,0,1.165,0" />
			<path fill="none" stroke="#000000" stroke-width="0.5" stroke-miterlimit="10" d="M153.377,63.942
                   			c-0.13,0.619-0.551,1.036-1.165,1.166" />
			<path fill="none" stroke="#000000" stroke-width="0.5" stroke-miterlimit="10" d="M149.291,65.693c0,0.39,0,0.776,0,1.166" />
			<path fill="none" stroke="#000000" stroke-width="0.5" stroke-miterlimit="10" d="M117.201,70.945
                   			c-0.53,0.677-0.725,1.439-0.584,2.331" />
			<path fill="none" stroke="#000000" stroke-width="0.5" stroke-miterlimit="10" d="M102.028,97.783
                   			c-0.55-0.701-1.159,0.147-1.75,1.169" />
			<path fill="none" stroke="#000000" stroke-width="0.5" stroke-miterlimit="10" d="M97.945,105.37
                   			c-0.902,0.978-1.213,1.976-0.584,2.916" />
			<path fill="none" stroke="#000000" stroke-width="0.5" stroke-miterlimit="10" d="M110.199,111.787
                   			c0.615,0.092,0.786,0.517,0.582,1.169" />
			<path fill="none" stroke="#000000" stroke-width="0.5" stroke-miterlimit="10" d="M108.449,122.29
                   			c-0.995,1.348-1.781,2.91-2.335,4.67" />
			<path fill="none" stroke="#000000" stroke-width="0.5" stroke-miterlimit="10" d="M100.862,142.131
                   			c0.123,1.627,0.305,3.083,0.585,4.666" />
			<path fill="none" stroke="#000000" stroke-width="0.5" stroke-miterlimit="10" d="M103.778,186.478c0-0.339,0,3.08,0,4.082"
			/>
			<path fill="none" stroke="#000000" stroke-width="0.5" stroke-miterlimit="10" d="M104.948,198.146
                   			c0.335,1.183,0.978,2.458,1.75,3.5" />
			<path fill="none" stroke="#000000" stroke-width="0.5" stroke-miterlimit="10" d="M109.614,206.898
                   			c1.518,1.46,3.269,3.577,3.501,5.836" />
			<path fill="none" stroke="#000000" stroke-width="0.5" stroke-miterlimit="10" d="M114.866,213.316
                   			c1.583,0.961,2.619,2.1,4.085,3.5" />
			<path fill="none" stroke="#000000" stroke-width="0.5" stroke-miterlimit="10" d="M172.632,90.2c0,0.971,0,1.945,0,2.916" />
			<path fill="none" stroke="#000000" stroke-width="0.5" stroke-miterlimit="10" d="M177.884,101.285
                   			c-0.389-0.387-0.78-0.776-1.166-1.166" />
			<path fill="none" stroke="#000000" stroke-width="0.5" stroke-miterlimit="10" d="M172.632,80.863c0.138-0.472-0.208-0.28-0.585,0
                   			" />
			<path fill="none" stroke="#000000" stroke-width="0.5" stroke-miterlimit="10" d="M170.297,73.276c0-0.882,0,1.419,0,1.751"
			/>
			<path fill="none" stroke="#000000" stroke-width="0.5" stroke-miterlimit="10" d="M183.72,110.037
                   			c0.731,0.177,0.879,0.848,0.582,1.75" />
			<path fill="none" stroke="#000000" stroke-width="0.5" stroke-miterlimit="10" d="M190.138,116.458
                   			c0.923,1.973,1.418,4.223,1.165,6.417" />
			<path fill="none" stroke="#000000" stroke-width="0.5" stroke-miterlimit="10" d="M187.802,125.21
                   			c-0.602-0.653-0.785-1.457-0.581-2.335" />
			<path fill="none" stroke="#000000" stroke-width="0.5" stroke-miterlimit="10" d="M183.135,101.869
                   			c-0.683,0.732-0.875,2.168-0.585,3.501" />
			<path fill="none" stroke="#000000" stroke-width="0.5" stroke-miterlimit="10" d="M180.8,108.286
                   			c0.602,2.035,2.09,3.71,2.92,5.836" />
			<path fill="none" stroke="#000000" stroke-width="0.5" stroke-miterlimit="10" d="M191.303,131.042
                   			c0.514,2.014,1.02,3.757,1.17,5.836" />
			<path fill="none" stroke="#000000" stroke-width="0.5" stroke-miterlimit="10" d="M191.888,144.466
                   			c-0.13,2.242-0.796,4.13-0.585,6.417" />
			<path fill="none" stroke="#000000" stroke-width="0.5" stroke-miterlimit="10" d="M192.473,157.301
                   			c0.3,0.092,0.512-0.701,0.581-1.752" />
			<path fill="none" stroke="#000000" stroke-width="0.5" stroke-miterlimit="10" d="M198.89,136.294
                   			c-1.524-0.167-1.275,2.732-0.585,4.67" />
			<path fill="none" stroke="#000000" stroke-width="0.5" stroke-miterlimit="10" d="M195.973,157.301
                   			c0.261,1.631,0.062,3.302-0.583,4.67" />
			<path fill="none" stroke="#000000" stroke-width="0.5" stroke-miterlimit="10" d="M193.054,170.723c0,0.971,0,1.945,0,2.917"
			/>
			<path fill="none" stroke="#000000" stroke-width="0.5" stroke-miterlimit="10" d="M191.303,180.641
                   			c0.175,1.803-0.017,3.546-0.58,5.252" />
			<path fill="none" stroke="#000000" stroke-width="0.5" stroke-miterlimit="10" d="M187.221,194.061c0,0.779,0,1.556,0,2.335"
			/>
			<path fill="none" stroke="#000000" stroke-width="0.5" stroke-miterlimit="10" d="M186.637,200.481
                   			c0.126,3.348-2.616,7.035-4.087,9.918" />
		</g>
		<path fill="none" stroke="#000000" stroke-width="0.5" stroke-miterlimit="10" d="M93.86,101.869c0,0,9.337-40.261,33.259-43.762
                   		c19.256-2.335,40.843-12.254,64.184,45.512c9.922,19.837,23.346,78.185-4.082,103.861c-16.339,11.671-79.36,39.679-93.945-23.338
                   		C90.944,161.967,85.107,108.29,93.86,101.869z" />
		<path fill="none" stroke="#000000" stroke-width="0.5" stroke-miterlimit="10" d="M163.008,95.243
                   		c0.305,0.698,0.595,1.385,0.868,1.932c0.489,0.975,0.907,1.942,1.316,2.896c0.619,1.436,1.258,2.923,2.113,4.393l0.729,1.238
                   		c2.916,5.005,5.45,9.292,7.412,14.565c1.914,5.104,3.464,10.595,5.142,16.725c1.341,4.821,2.849,11.221,2.849,17.967
                   		c0.003,2.67-0.15,5.312-0.298,7.931c-0.126,2.233-0.249,4.435-0.287,6.623l-0.038,3.114c-0.037,3.877-0.074,7.535-0.516,11.231
                   		c-0.502,4.178-1.129,9.379-2.633,13.382c-1.467,3.904-3.784,7.156-6.239,10.578l-0.722,1.016
                   		c-3.218,4.533-8.001,7.727-13.679,9.357c-0.653,0.075-1.276,0.137-1.915,0.229c-1.145,0.164-2.229,0.488-3.262,0.813
                   		c-1.094,0.103-2.243,0.188-3.398,0.194c-0.103,0-0.202,0-0.301,0c-4.325,0-9.143-0.618-12.958-1.678
                   		c-3.774-1.047-6.048-3.911-8.629-7.584c-0.714-1.008-1.47-2.017-2.232-3.039c-2.024-2.715-4.134-5.521-5.451-8.445
                   		c-1.667-3.723-2.697-7.87-3.703-11.891l-0.386-1.532c-1.866-7.412-2.232-16.725-1.077-27.676c0.277-2.619,0.312-5.152,0.343-7.604
                   		c0.03-2.219,0.071-4.314,0.252-6.438c0.236-2.592,0.704-5.29,1.16-7.881c0.379-2.229,0.769-4.441,1.033-6.639
                   		c0.605-5.002,1.384-9.676,2.291-13.892c0.239-1.148,0.417-2.325,0.584-3.498c0.191-1.357,0.362-2.643,0.673-3.85l0.249-0.93"
		/>
	</g>
</svg>