<?xml version='1.0' encoding='utf-8'?>
<svg id="svg1552" width="75" height="75" version="1.0" viewBox="0 0 832 704" xmlns="http://www.w3.org/2000/svg">
    <g id="outlines">
        <path id="path1546" d="m393.5 20.6c-78.3 5.2-149.7 31.9-210.5 79-14.5 11.2-46 42.5-56.8 56.5-37.1 48.1-57.9 97.2-65.9 155.9-2.3 17.3-2.3 57.7 0 75 8 58.7 28.8 107.8 65.9 155.9 10.8 14 42.3 45.3 56.8 56.5 56 43.4 117.8 68.4 191 77.2 17.6 2.2 63.5 2.5 81 0.6 74.6-8 138.9-33.6 196-77.8 14.5-11.2 46-42.5 56.8-56.5 32.5-42.1 53-86.5 62.6-135.4 3.8-19.6 5-32.8 5-58s-1.2-38.4-5-58c-9.6-48.9-30.1-93.3-62.6-135.4-10.8-14-42.3-45.3-56.8-56.5-55.7-43.2-118.3-68.6-190-77.1-13-1.5-54.9-2.7-67.5-1.9zm71.1 15.3c95.7 12.9 179.3 59.4 234.6 130.6 41.3 53.1 63.8 117.6 63.8 183 0 138-98 260.1-242.1 301.9-17.7 5.1-40.2 9.7-60.4 12.3-19.8 2.5-67.2 2.5-87 0-60.4-7.8-111.9-26.6-159.5-58.2-60.6-40.4-104-95.2-126.5-159.8-30.4-87.3-18.5-180.9 33-259.2 33.7-51.2 83.7-93.5 142-120.2 39.2-17.9 83-29 129-32.7 13.4-1.1 58.5 0.4 73.1 2.3z" fill="#000000" stroke="#000000" stroke-width="0.5" stroke-miterlimit="10" />
        <path id="path1548" d="m361.2 247.1c-29 2-56.3 14-69.7 30.7-18.8 23.5-19.1 55-0.7 85.7 30.2 50.7 102 88.4 168.2 88.5 50.1 0 87.4-22 95.5-56.2 1.9-8.1 1.9-23.5 0-31.8-8.6-36.7-42.4-73-89-95.5-34.3-16.6-69.4-23.7-104.3-21.4zm35.8 3c36.7 4 78.3 21.6 108 45.6 10 8.1 23.4 22.1 29.9 31.3s13.1 22.2 16.1 31.5c3.1 9.8 3.9 27.6 1.6 36.5-9.1 35.8-48.1 56.9-101.1 54.7-39.3-1.7-81.3-16.5-114.6-40.3-11.2-8-28.6-24.9-36.3-35.1-10.7-14.3-17.9-30-20.5-44.7-4-22.5 4.6-45.5 22.3-59.5 22.6-17.9 53.6-24.5 94.6-20z" fill="#000000" stroke="#000000" stroke-width="0.5" stroke-miterlimit="10" />
    </g>
    <g id="unm">
        <path id="path1560" d="m383.74 664.18c-11.202-0.863-24.874-2.888-40.209-5.956-69.663-13.939-133.12-47.571-181.8-96.348-26.935-26.991-44.448-51.615-60.8-85.487-32.902-68.156-38.433-144.45-15.611-215.35 23.527-73.084 74.877-135.71 145.59-177.55 52.797-31.242 119.26-49.653 179.16-49.63 33.581 0.0129 52.91 1.6173 77.423 6.4261 41.336 8.1092 81.887 23.272 116.35 43.504 36.751 21.577 71.831 52.65 97.079 85.989 32.661 43.128 52.32 91.123 59.604 145.52 2.088 15.586 2.065 54.004-0.042 69.284-7.978 57.887-28.933 106.34-66.236 153.15-10.201 12.802-35.588 38.004-49.367 49.009-40.437 32.295-87.751 55.492-138.26 67.787-19.796 4.819-41.732 8.507-57.364 9.645-13.91 1.013-52.399 1.015-65.525 4e-3zm101.65-214.04c34.19-5.82 58.091-22.867 67.818-48.373 2.273-5.959 2.362-6.779 2.38-21.845 0.019-15.553 1e-3 -15.706-2.778-23.69-9.94-28.554-34.322-56.751-66.274-76.64-36.747-22.876-79.993-34.833-119.61-33.072-49.302 2.192-82.24 24.418-89.006 60.058-7.774 40.95 26.225 90.378 82.682 120.2 27.276 14.408 56.067 22.722 87.978 25.404 7.507 0.631 27.672-0.488 36.808-2.043z" fill="#ffffff" stroke="#000000" stroke-width=".84616" stroke-miterlimit="10" />
        <path id="path1562" d="m439.27 448.42c-30.83-3.774-63.157-15.037-89.171-31.068-24.376-15.021-46.777-36.989-57.776-56.657-8.393-15.008-12.4-28.611-12.404-42.114-0.012-38.389 31.733-65.097 81.886-68.893 17.403-1.318 41.076 0.741 58.422 5.08 52.651 13.171 100.51 46.341 121.36 84.121 8.374 15.167 11.925 27.768 11.894 42.207-0.029 13.817-4.851 27.044-13.788 37.826-11.245 13.565-31.331 24.022-54.35 28.293-8.924 1.657-36.501 2.378-46.078 1.205z" fill="#ffffff" stroke="#000000" stroke-width=".84616" stroke-miterlimit="10" />
    </g>
</svg>
