<svg xmlns="http://www.w3.org/2000/svg" width="75" height="75" viewBox="0 0 300 300" xml:space="preserve" license="CCBY4.0" author="Provart Lab - Bio Analytic Resource, University of Toronto">
  <g id="shapes">
    <path id="pollin" fill="none" d="M94 102s9-40 33-44c19-2 41-12 64 46 10 19 24 78-4 103-16 12-79 40-94-23-2-22-8-76 1-82z"/>
  </g>
  <g id="outline" fill="none" stroke="#000" stroke-width=".5" stroke-miterlimit="10">
    <path d="m136 86 3 3m6-13 2 4m-4 22 2 3m-11 7 2 3m12-24 2 3m-26-7 2 6m5 6 1 3m-24 1v2m-5 15 1 2m0 17v1m-2 14c1-1 1 1 1 2m1 13v1m-3 13-1-1m-1-24h-1m0-11-1-1m1-19v-1m4-20v1m12-23-1 5m-1 11-1 1m2 7v-3m4-23h-1m12-7-1 5m16-17-1 1m-3 0-5 2m-3-3 1 4m6 7 1 2m3-3v3m-14 46 1 6m2-3-1-2m-3-10v3m0 9-2 4m-3 7c-1 2-2 4 0 5m6 8h1m6-20v1m15-12h1m9-4 1 4m1 8v3m-9-5h-1v2m-3 1-1 6m0 7-1 2m-11-5-1 2m-5 4 2 4m9 9c2 1 2 3 2 5m0 5-1 1m-12-12-1 1m-3-1-2 4m-4 11 1 4m4 5 2 1m2-12v-2m7-2h2l-1 2m-15-19h-1m13 22 1 2m2 5 5 5m-3 2-3-2m-4-1v4m-1 9v2m-8-6 2 4m6 12 3 1m8 5-1-2m-1-16h1m8-2 3 1m8 4-1 2m-9 1v3m0 10 6-1m10-3 1-2m7-15c2-1 1-1 0-2m1-16-1 1m-3 3-1 4m-5 8c-2 0-3-1-3-3m-5-6h-2m-1-10v-2m4-9v2m4 6c-1 2-1 3 1 3m6-2-1-4m7-16-2-1m2-7v9m-1 12c0 2 1 2 2 1m0-8-2-1m-9-6c0 2-1 3-2 3m-7 3-3-3m-10-7h-1m1 8 2 1m14-6-2-3m2-4h1m4 1c0 1 0 3 2 3m5-4v-2m2-8-2 1m-2-8-1-3m-10-12-1-1m-2-11-2 3m-1 9v3m-5 5c0 1-1 2-2 1m-6 2v7m-1 6 1-2m21-42h1m-4-5-3 1m-1-7-1-3m8-2v3m4 5 1 2m-6-14h1m-7-3-1 1m-3 1v1m-32 4v2m-15 25c-1-1-1 0-2 1m-2 6-1 3m13 4 1 1m-3 9-2 5m-5 15v5m3 39v5m1 7 2 4m3 5c1 1 3 3 3 6m2 0 4 4m54-127v3m5 8-1-1m-4-19h-1m-2-8v2m14 35v2m6 4c1 2 2 5 1 7m-3 2-1-2m-4-21v3m-2 3 3 6m7 17 1 6m0 7-1 7m1 6 1-1m6-20c-2 0-1 3-1 5m-2 16-1 5m-2 9v3m-2 7v5m-4 8v2m0 4c0 4-3 8-4 10"/>
    <path d="M94 102s9-40 33-44c19-2 41-12 64 46 10 19 24 78-4 103-16 12-79 40-94-23-2-22-8-76 1-82z"/>
    <path d="m163 95 1 2 1 3 2 4 1 2 7 14a193 193 0 0 1 8 35v18a102 102 0 0 1-3 24l-7 11v1c-4 4-8 8-14 9h-2l-3 1h-4l-13-1c-4-1-6-4-8-8l-3-3-5-8-4-12v-2c-2-7-2-16-1-27v-8a90 90 0 0 1 1-14l2-7a155 155 0 0 1 2-17l1-4v-1"/>
  </g>
</svg>