<?xml version='1.0' encoding='utf-8'?>
<svg id="svg1150" width="75" height="75" version="1.0" viewBox="0 0 1788 860" xmlns="http://www.w3.org/2000/svg">
    <g id="outlines">
        <path id="path1044" d="m730.5 23.6c-78.3 5.2-149.7 31.9-210.5 79-14.5 11.2-46 42.5-56.8 56.5-37.1 48.1-57.9 97.2-65.9 155.9-2.4 17.6-2.3 57.6 0.1 75.5 3.3 24.6 8.1 44.2 16.2 66.8 2.6 7.1 4.3 13.2 3.8 13.6s-18.7 14.4-40.4 31.1-41.2 31.6-43.2 33.2l-3.6 2.8-6.3-8c-3.4-4.4-6.4-7.8-6.7-7.5-0.9 0.9-24 49-23.7 49.3 0.6 0.6 53.5-10.3 53.5-11.1 0-0.5-2.5-4-5.5-7.9-3-3.8-5.5-7.3-5.5-7.7 0-0.9 84.7-66.1 85.8-66.1 0.5 0 1.6 1.9 2.5 4.1 5.2 13.1 23.9 43.3 38.9 62.8 10.8 14 42.3 45.3 56.8 56.5 56 43.4 117.8 68.4 191 77.2 17.6 2.2 63.5 2.5 81 0.6 74.6-8 139-33.6 196-77.8 13.6-10.5 44.8-41.3 54.5-53.6 3.7-4.8 7.1-8.6 7.4-8.4s24 12.4 52.6 27.1 52.4 27.2 53 27.7-0.7 4.1-3.3 9.4c-2.4 4.8-4.2 8.7-4 8.9 0.6 0.5 54.8 1.5 54.8 1 0-0.6-29.6-41.3-31.5-43.4-1.1-1.1-2.1 0.3-6 7.8l-4.7 9.1-26.1-13.5c-14.4-7.4-38.2-19.7-52.9-27.3-14.7-7.5-26.8-13.9-26.8-14.3 0-0.3 3-5 6.6-10.5 26.3-39.9 42.4-83.1 49.1-132.4 2.3-17.3 2.3-57.7 0-75-8-58.7-28.8-107.8-65.9-155.9-10.8-14-42.3-45.3-56.8-56.5-55.7-43.2-118.3-68.6-190-77.1-13-1.5-54.9-2.7-67.5-1.9zm71.1 15.3c95.7 12.9 179.3 59.4 234.6 130.6 14.4 18.5 28.8 42.2 37.8 62.4 41.6 93.5 33 197.5-23.7 283.9l-7.4 11.2-2.7-1.4c-1.5-0.7-21.7-11.1-45-23.1-38.4-19.7-42.3-22-41.8-23.9 7.4-26.8-2.4-57.1-28-86.1l-7.9-9 2.2-12c6.6-36.2 9.8-80.9 7.4-102.1-3.4-29-16.2-65.9-30.6-88.1-16.6-25.5-37.9-36.8-78.2-41.3-14.6-1.7-48.9-0.8-56.8 1.5-14 4-28.8 13.2-42.5 26.4-8.5 8.3-11.2 13.8-14.6 29.8-1.3 6.5-3.1 13.7-4 16-1.6 4.4-4.2 6.2-5.9 4.1-0.5-0.7-2-1.2-3.3-1-1.5 0.2-7.2-2.5-16.5-8.1-15.1-9-18.1-10.3-34.7-14.5-9.7-2.5-12.1-2.7-31.5-2.7-47.2 0-68.6 8.1-95.7 36.3-28.3 29.5-31.8 52.7-16.8 110.7 7.3 28.3 11 37.7 19.1 48.4 3.3 4.4 3.8 5.6 2.7 6.6-6.5 6.1-88.1 67.6-88.8 66.9-1.4-1.5-8.9-24.2-12-36.4-12-47-12-95.9 0-143 27.6-108.9 116.3-196.5 233.1-230.4 23.3-6.7 52.2-11.9 78.4-14 13.4-1.1 58.5 0.4 73.1 2.3zm26.7 110.5c12.6 2.4 25.1 6.2 33.5 10.2 22.2 10.7 40.9 41.4 52.2 85.8 5.2 20.3 6.4 32.2 5.6 52.6-0.6 14.9-3.1 42.8-4 43.7-0.1 0.2-0.6-6.4-1-14.7-0.3-8.2-1.2-16.7-1.9-18.7-1-3.3-1.7-3.8-4.5-4.1-4.3-0.4-5.9 1-13.5 12.3-3.3 4.9-7.8 11.1-10 13.8-6.7 8.1-23.4 16.6-40.9 20.7-25.1 5.9-70.7 7.2-86.8 2.4-7.4-2.1-14.7-9.8-22-22.8-4.9-8.9-9-13.6-11.9-13.6-0.6 0-1.1-0.9-1.1-2 0-1.3-0.7-2-2-2-1.6 0-2 0.7-2 3 0 1.6-0.4 3-0.9 3-1.9 0-5.2 9.1-8.1 21.6-1.5 7.1-3.3 14-3.8 15.4-1.7 4.3-5 6.8-11.2 8.6-4.3 1.2-10.5 4.7-21.8 12.1-18 12-34.2 20.3-45.7 23.4-7.1 2-10.6 2.2-31 2.3-17.4 0-25.4-0.4-33-1.7-9.8-1.7-24.7-5.8-27.3-7.6-1-0.6 2.2-3.6 11.6-10.9l13-10.1 7.9 3.4c10.7 4.6 20.9 6.5 35 6.5 25.4-0.1 46.7-8.6 64.6-25.9 39.8-38.3 31.7-101.1-16.4-127.5-14.6-8-29.2-11.2-48.1-10.3-32.9 1.4-61.6 19.4-76.3 47.8-6.4 12.4-8.7 21.7-8.7 35.9-0.1 13.7 1.6 21.9 7.1 33.4 5 10.6 11.9 19.6 20.2 26.4l6.8 5.5-12.7 9.9-12.7 9.8-3.9-4.2c-7.2-7.9-12.6-22-20.5-53.3-7.8-31.2-8.8-51.7-3-67 4.6-12.3 16.2-27.4 30-39 20.8-17.5 38.1-23 74.9-24.2 15.3-0.4 18.8-0.2 27.8 1.6 16.7 3.5 25.1 6.6 36.8 13.7 12.9 7.9 19.8 11.4 21.9 11.4 0.9 0 1.8 0.7 2.1 1.5 0.7 1.7 3 2 4.7 0.4 0.7-0.5 2.7-1.9 4.5-3 4.7-2.8 6.7-6.8 9.1-18.7 3.8-18.6 5.6-23.4 10.7-29.1 11.7-13 29.9-24.5 44.6-28.2 6.3-1.6 10.4-1.8 30.3-1.5 15.7 0.3 25.8 0.9 31.8 2zm-198.3 79.6c45.3 12.9 67.1 60.1 46.5 100.9-9.8 19.5-27.4 33.8-50.2 40.8-7.7 2.3-10.5 2.7-23.3 2.7-12.2 0.1-15.7-0.3-22.3-2.2-27.6-8-47.6-28.2-53.3-53.9-2.3-10.6-1.5-26.1 1.9-36.6 8.4-26 32-46.5 60.7-52.8 11.2-2.5 29.1-2 40 1.1zm277.5 122.1c0.4 13.1 0.5 23.9 0.2 23.9s-4.1-2.6-8.4-5.8c-8.5-6.4-18.3-12.7-25.2-16.1l-4.3-2.2 7.8-4.5c9-5 12.6-8.6 21.6-21.7l6.3-9.2 0.6 5.8c0.4 3.2 1 16.6 1.4 29.8zm-182.6-21.7c1.2 1.8 2.1 3.6 2.1 3.9 0 0.4-7.4 3.7-8.4 3.7-0.6 0 1.4-7.1 2.5-9.3 1.3-2.3 1.4-2.2 3.8 1.7zm7.1 12.3c11.2 18.8 21.2 22.8 56.5 22.7 30.4-0.1 53.4-3.2 70.9-9.5l8.5-3 9.8 5.6c14.6 8.3 30.2 20.1 30.9 23.3 1 3.9 2.3 5.2 5.5 5.2 2.3 0 4.2 1.6 10.4 8.6 13.3 15.3 23.5 33.3 27.2 47.9 2.6 10.6 2.3 28.1-0.6 36.5-16.3 47.1-82.3 64.2-155.4 40.3-42-13.8-80.1-41.1-100.4-72.1-12.1-18.3-16.8-33.5-16.1-51.7 0.2-6.1 1-12 1.6-13.1 1.8-3.3 9.9-8.2 17.2-10.4 4.5-1.3 7.5-3 9.7-5.2 4.2-4.5 5.1-6.6 7.7-17.2 2.2-9 2.2-9.1 6.6-11.4 2.4-1.2 4.9-2.2 5.5-2.2s2.6 2.6 4.5 5.7zm-54.4 56.6c0 13.7 0.3 16 2.7 23.2 17.8 53.5 83.4 99.8 154.5 108.9 50.4 6.5 95-8.3 111.9-37.1 1.3-2.4 2.7-4.3 3-4.3 1.3 0 87.3 44.6 87.3 45.2 0 0.4-2.7 4-6.1 8-22.9 27.4-46.3 48.3-76.4 68-46 30.2-98.1 48.9-157 56.5-19.8 2.5-67.2 2.5-87 0-60.4-7.8-111.9-26.6-159.5-58.2-46-30.6-81-68.3-106.8-115-6.2-11.2-11.8-23.3-11.1-23.9 2.4-2 91.7-70.4 92.6-70.9 0.7-0.4 3.1 0.2 5.5 1.4 12.3 6.3 30.6 9.7 55.8 10.6 30.6 1 44.1-1.5 64.9-12.2 8-4.1 25.6-14.7 25.6-15.4 0-0.1 0 6.8 0.1 15.2z" fill="#000000" stroke="#000000" stroke-width="0.5" stroke-miterlimit="10" />
        <path id="path1046" d="m804.5 171c-18 2.4-34.9 10-49.6 22.2-10.9 9.1-21.8 26.4-26.1 41.3-3.2 11.3-3.2 29.7 0 40.8 10.1 35.5 43.4 59.7 82.3 59.7 35.4 0 67.7-19.7 82.3-50.3 6.1-12.7 7.9-20.7 7.8-34.7 0-17.8-4.2-30.8-14.8-45.6-16.9-24-50.2-37.5-81.9-33.4zm31.2 10c25.8 6.2 45.7 23.6 53.9 47.2 3.2 9 4.3 25.5 2.5 35-5.7 29.1-28.9 52.6-60 61-10 2.7-29.5 2.9-39.5 0.5-20-5-35.8-15.6-46-31-9.6-14.6-13.6-30.4-11.6-46.4 4.1-32.5 29.6-59.4 63.5-66.8 9.4-2.1 27.5-1.8 37.2 0.5z" fill="#000000" stroke="#000000" stroke-width="0.5" stroke-miterlimit="10" />
        <path id="path1048" d="m798.3 197.5c-18.7 5.1-33.7 20.4-38.8 39.5-1.9 7.2-1.9 22.1 0 29.5 4.9 18.8 18.8 33.9 36.9 40.3 9.6 3.4 22.1 3.5 32.1 0.4 27.6-8.4 43.8-38 37-67.1-4.9-20.4-21.2-37.4-41.1-42.6-7.2-1.8-19.1-1.8-26.1 0zm20.1 7.5c11.7 1.9 22.7 8.7 30.3 18.8 14.3 18.9 13 45.3-2.9 62.7-17.6 19.2-46 19.5-64.9 0.6-19.5-19.6-19.8-50.1-0.6-69.9 6.7-6.9 19.6-12.5 30.2-13.1 1.1 0 4.6 0.3 7.9 0.9z" fill="#000000" stroke="#000000" stroke-width="0.5" stroke-miterlimit="10" />
        <path id="path1050" d="m696.3 232.7c-2.2 0.8-1.5 4.3 0.7 4.3 1.3 0 2-0.7 2-1.9 0-2.2-0.9-3-2.7-2.4z" fill="#000000" stroke="#000000" stroke-width="0.5" stroke-miterlimit="10" />
        <path id="path1052" d="m698.7 240.8c-2.5 0.5-1.7 3.6 1.1 4 1.2 0.2 2.2 0 2.1-0.5-0.2-2.3-1.6-3.8-3.2-3.5z" fill="#000000" stroke="#000000" stroke-width="0.5" stroke-miterlimit="10" />
        <path id="path1054" d="m700.7 248.8c-1.2 0.2-1.6 0.9-1.3 1.9 0.3 0.8 0.6 1.7 0.6 1.9s0.9 0.4 2 0.4c2 0 2.6-1.6 1.2-3.5-0.4-0.6-1.5-0.9-2.5-0.7z" fill="#000000" stroke="#000000" stroke-width="0.5" stroke-miterlimit="10" />
        <path id="path1056" d="m703.3 256.7c-2.2 0.8-1.5 4.3 0.7 4.3 1.3 0 2-0.7 2-1.9 0-2.2-0.9-3-2.7-2.4z" fill="#000000" stroke="#000000" stroke-width="0.5" stroke-miterlimit="10" />
        <path id="path1058" d="m705.8 264.8c-2.5 0.5-2.3 4.2 0.1 4.2s3.1-1 2.2-3c-0.3-0.9-1.4-1.4-2.3-1.2z" fill="#000000" stroke="#000000" stroke-width="0.5" stroke-miterlimit="10" />
        <path id="path1060" d="m707.7 272.8c-1.1 0.2-1.7 1.1-1.5 2 0.4 2 4.8 3 4.8 1 0-2.2-1.4-3.4-3.3-3z" fill="#000000" stroke="#000000" stroke-width="0.5" stroke-miterlimit="10" />
        <path id="path1062" d="m709.7 280.8c-1.2 0.2-1.6 0.9-1.3 1.9 0.3 0.8 0.6 1.7 0.6 1.9s0.9 0.4 2 0.4c1.3 0 2-0.7 2-1.9 0-2.3-0.8-2.9-3.3-2.3z" fill="#000000" stroke="#000000" stroke-width="0.5" stroke-miterlimit="10" />
        <path id="path1064" d="m711 291c0 1.3 0.7 2 2 2s2-0.7 2-2-0.7-2-2-2-2 0.7-2 2z" fill="#000000" stroke="#000000" stroke-width="0.5" stroke-miterlimit="10" />
        <path id="path1066" d="m714.8 296.8c-1.9 0.4-2.2 1.1-1.2 3.5 0.5 1.4 4.5 1.2 4.3-0.2-0.2-2.1-1.6-3.6-3.1-3.3z" fill="#000000" stroke="#000000" stroke-width="0.5" stroke-miterlimit="10" />
        <path id="path1068" d="m716.7 304.8c-1.2 0.2-1.6 0.9-1.3 1.9 0.3 0.8 0.6 1.8 0.6 2.3 0 0.4 0.9 0.6 2 0.3 3.3-0.9 2.1-5.2-1.3-4.5z" fill="#000000" stroke="#000000" stroke-width="0.5" stroke-miterlimit="10" />
        <path id="path1070" d="m593.5 246c-20.7 3.7-36.2 18.9-42 41.5-5.1 20.1 1.8 44.7 16.9 60.1 31 31.5 78.3 16.5 87.2-27.6 5.4-27.1-8.1-56.5-31.6-68.5-10.4-5.3-20.9-7.2-30.5-5.5zm19.7 10.1c21.1 7.1 34.8 27.5 34.8 51.9 0 15.1-4.3 26.2-13.7 35.8-25.6 25.9-68 7.6-75-32.3-2-11.9-0.7-22 4.2-32.2 3.6-7.7 10.5-15.9 16.2-19.4 9.5-5.9 22.9-7.4 33.5-3.8z" fill="#000000" stroke="#000000" stroke-width="0.5" stroke-miterlimit="10" />
        <path id="path1072" d="m363.2 409c-10.2 4.2-15 14.8-10.1 22.7 3.2 5.2 7 6.7 14.8 5.9 19.1-2 17.6-2.1 19.9 0.9 2.7 3.4 2.8 6.1 0.3 10.1-2 3.3-7.2 6.2-12.7 7.1-3.9 0.6-4.3 2.2-1.4 4.8 1.7 1.6 2.5 1.7 5.8 0.7 17.2-5.2 23-23.3 9.9-31.2-3.9-2.4-6.6-2.5-17.3-0.3-8.2 1.7-8.4 1.7-11.1-0.3-6.3-4.7-3.1-12.2 6.3-15 5.8-1.7 6.1-2 4-4.7-1.4-1.8-4.7-2.1-8.4-0.7z" fill="#000000" stroke="#000000" stroke-width="0.5" stroke-miterlimit="10" />
        <path id="path1074" d="m333.4 432.4c-5.9 2.7-11 8.5-12.5 14.1-2.3 8.4 1.6 19.8 9.7 28 10.9 11.3 24.3 11.2 34.3-0.2 4.4-4.9 5.8-9.1 4.1-12.2-1.6-3.1-2.9-2.6-4.9 2.2-3.7 8.6-12.1 13.2-19.7 10.7-4.5-1.5-11.5-8.3-14.5-14.2-3-5.8-3.2-13.6-0.3-17.5 2.6-3.5 9.8-7.3 14.1-7.3 3.7 0 4-0.6 1.7-3.8-2-2.9-5.5-2.8-12 0.2z" fill="#000000" stroke="#000000" stroke-width="0.5" stroke-miterlimit="10" />
        <path id="path1076" d="m288 467.5-2.3 2.4 8.2 25.3c4.6 13.9 8.7 25.7 9.2 26.2 1.1 1.2 4.9-2.2 4.9-4.4 0-0.9-0.9-4.2-1.9-7.2l-1.9-5.5 8.5-6.6 8.5-6.5 6.1 3.8c6.2 4 7.8 4.1 10.5 0.7 1-1.1 0.9-1.7-0.4-2.8-4-3.3-44-27.9-45.4-27.9-0.9 0-2.7 1.1-4 2.5zm17.5 13.3 10.6 6.9-6.7 5.2c-3.7 2.8-7 4.8-7.4 4.4-0.7-0.8-8-21.7-8-22.8 0-1 1.1-0.4 11.5 6.3z" fill="#000000" stroke="#000000" stroke-width="0.5" stroke-miterlimit="10" />
        <path id="path1078" d="m257 491.7c-5.2 4.1-9.6 8.2-9.8 9.2-0.2 1.1 5.7 9.5 14.4 20.7 8 10.4 15 19.3 15.5 19.8 0.9 1 5.9-1.8 5.9-3.3 0-0.5-2.9-4.6-6.5-9.2s-6.5-8.7-6.5-9c0-0.4 3.2-3.1 7-6 7-5.3 8-7.2 4.9-9.2-1.3-0.8-3.2 0.2-8.8 4.6l-7.3 5.7-2.2-2.8c-1.2-1.5-3.6-4.6-5.4-6.9l-3.3-4.2 7.6-5.7c7.6-5.9 9-8.5 5.8-10.3-1.4-0.7-3.8 0.7-11.3 6.6z" fill="#000000" stroke="#000000" stroke-width="0.5" stroke-miterlimit="10" />
        <path id="path1080" d="m1306.5 544.1c-43.3 3.4-74.3 24.5-82.1 55.9-2.3 9-1.5 27.8 1.6 37.5 18.5 58.6 95 108.1 171.5 111.2 52.7 2.1 91.4-18.4 102.1-54.2 2.7-9 2.5-26.6-0.5-37-11.7-41.5-53.2-80.1-108-100.7-27.1-10.2-58.2-14.9-84.6-12.7zm40 3.5c54.2 7.4 109.7 39.8 136 79.5 37.8 56.8 11 110.3-59.5 118.9-57.1 6.9-130.4-21.3-168.8-65-19.3-22-29.2-44.2-29.2-65.7 0-16 5-29.3 15.1-40.7 21.2-23.7 59.4-33.4 106.4-27z" fill="#000000" stroke="#000000" stroke-width="0.5" stroke-miterlimit="10" />
        <path id="path1082" d="m208 560.2c-9.7 1.3-25 6.9-34.2 12.4-8.8 5.3-21.5 17-26.6 24.5-5 7.5-9.9 18-12.4 26.5-2.9 10.3-3.1 29.5-0.4 39.3 7.8 28.5 30.2 50.2 60.1 58.2 11.6 3.1 32.5 3.2 44.9 0.1 27.2-6.8 50.6-25.8 61.2-49.9 9.1-20.4 8.8-46.6-0.6-65.4-16.9-33.6-52.5-51.3-92-45.7zm35 9.9c25 6.4 45.1 24.4 52.7 47.3 2.4 7.2 2.7 9.7 2.8 21.6 0 11.5-0.3 14.5-2.3 20.4-10.4 30.9-36.9 51.9-70.2 55.5-39.1 4.3-74.4-18.9-83.6-54.9-2.2-8.5-2.2-23.4 0-32.5 10-41.8 56.9-68.5 100.6-57.4z" fill="#000000" stroke="#000000" stroke-width="0.5" stroke-miterlimit="10" />
        <path id="path1084" d="m202 588.9c-9.2 2.9-14.2 6.1-21 13-10.9 11-16 24.3-16 41.2 0 11.3 1.9 20 6.5 29.4 6.9 14.1 19.6 25.9 32.9 30.5 27.3 9.3 54.8-5.5 64.2-34.5 3.3-10 3.7-25.3 1-35.5-5.8-22-22.3-39.3-42.3-44.5-7.6-2-18.5-1.8-25.3 0.4zm20.6 7.2c12.8 2.3 26.9 13 33.7 25.6 5.8 10.8 8.1 27.3 5.6 39.5-2.9 13.7-12.6 26.6-24.4 32.4-5.5 2.7-6.9 2.9-17 2.9-10.6 0-11.3-0.1-18-3.5-21.5-10.7-33.7-37.7-28-61.8 4.3-18.2 16.6-31.4 32.5-34.8 7.1-1.6 8.5-1.6 15.6-0.3z" fill="#000000" stroke="#000000" stroke-width="0.5" stroke-miterlimit="10" />
        <path id="path1086" d="m1035.7 586.2c-18.7 35.7-17.4 32.8-15.2 34.4 1.1 0.8 2.6 1.3 3.4 1.2 0.8-0.2 3.5-4.2 6.1-9.1 2.6-4.8 4.9-9 5.2-9.3s4.3 1.3 8.9 3.6c7.8 4 8.4 4.1 9.6 2.4 0.7-1 1.3-2.1 1.3-2.5s-3.8-2.8-8.5-5.4l-8.5-4.6 3.6-6.7c2.1-3.7 4-7.1 4.5-7.6 0.4-0.4 4.3 1.1 8.8 3.4 8.4 4.4 11.5 4.6 10.9 0.9-0.2-1.5-3.1-3.6-10.3-7.5-5.5-3-10.8-5.4-11.7-5.4-1.1 0-3.7 4-8.1 12.2z" fill="#000000" stroke="#000000" stroke-width="0.5" stroke-miterlimit="10" />
        <path id="path1088" d="m1067.5 614.7c-10.4 9.7-19 18.4-19 19.2 0 0.9 1.2 2 2.8 2.5 2.5 0.9 3.2 0.6 7.7-3.9l4.9-4.9 9.6 5 9.5 4.9-0.7 5.5c-1.1 8.8-1 9.3 1.9 10.9 1.5 0.9 3 1.3 3.3 1 0.3-0.4 2.2-12.7 4.2-27.5l3.6-26.8-2.3-1.8c-1.2-1-3.2-1.8-4.4-1.7-1.3 0-9.2 6.5-21.1 17.6zm18.5 3.1c-1 6.8-2.1 12.6-2.3 12.9-0.6 0.6-14.7-6.5-14.7-7.5 0-0.6 18.3-18.2 18.6-17.8 0.1 0-0.6 5.7-1.6 12.4z" fill="#000000" stroke="#000000" stroke-width="0.5" stroke-miterlimit="10" />
        <path id="path1090" d="m1116.9 621c-5.5 2.9-9.8 7.9-13.5 15.5-2.8 5.6-3.4 8.1-3.4 13.3 0 7.1 1.3 10.2 6.2 14.9 6.4 6.2 19.4 9 22.4 4.9 2.5-3.5 1.7-4.3-3.8-4.3-9.3 0.1-16.2-4.9-17.5-12.7-1.2-7.7 6.2-21.7 13.7-25.8 4.1-2.3 10.6-2 14.6 0.6 1.4 1 4 3.8 5.7 6.2 2.9 4.1 3.3 4.3 4.4 2.8 2.1-2.9 1.5-6.1-1.7-9.8-6.5-7.3-19-9.9-27.1-5.6z" fill="#000000" stroke="#000000" stroke-width="0.5" stroke-miterlimit="10" />
        <path id="path1092" d="m1154.3 637.9c-4 2.5-6.3 6.9-6.3 12 0 3.2 1.1 5.6 5.7 12.3 6.3 9.2 6.9 12.4 3.3 16.3-4.3 4.6-12.8 2.4-17.8-4.6-3.1-4.4-4.6-4.8-6.2-1.8-1.7 3 1.6 7.8 8 11.6 12.9 7.8 27 1.4 25.8-11.6-0.4-3.7-1.6-6.5-5.8-12.4-6.1-8.7-6.9-12.8-3.1-15.9 4.2-3.3 10-1.5 14.7 4.7 3.2 4.2 3.7 4.3 5.3 0.9 1-2.2 0.9-3.1-0.4-5-4.6-7.1-16.8-10.5-23.2-6.5z" fill="#000000" stroke="#000000" stroke-width="0.5" stroke-miterlimit="10" />
        <path id="path1094" d="m394 788v34h4 4v-34-34h-4-4v34z" fill="#000000" stroke="#000000" stroke-width="0.5" stroke-miterlimit="10" />
        <path id="path1096" d="m417 788v34h4 4v-34-34h-4-4v34z" fill="#000000" stroke="#000000" stroke-width="0.5" stroke-miterlimit="10" />
        <path id="path1098" d="m1604 791v34h3.5 3.5v-34-34h-3.5-3.5v34z" fill="#000000" stroke="#000000" stroke-width="0.5" stroke-miterlimit="10" />
        <path id="path1100" d="m1317.7 760.7c-1.4 1.4-0.7 8.1 0.9 8.7 4.7 1.8 8.4-0.1 8.4-4.4 0-1.4-0.5-3.1-1.2-3.8-1.3-1.3-7-1.7-8.1-0.5z" fill="#000000" stroke="#000000" stroke-width="0.5" stroke-miterlimit="10" />
        <path id="path1102" d="m1206 773v6h-4.1c-3.8 0-4 0.1-3.7 2.7 0.3 2.4 0.8 2.8 4.1 3.1l3.7 0.3v15.7c0 18.5 1 21.7 7.3 24.1 5.5 2 13.1 0.5 13.5-2.7 0.6-4.1-0.4-5.3-3.3-4.2-3.6 1.4-7 0.3-8.4-2.6-0.6-1.5-1.1-8.2-1.1-16.4v-14h6.5 6.5v-3-3h-6.5-6.5v-6-6h-4-4v6z" fill="#000000" stroke="#000000" stroke-width="0.5" stroke-miterlimit="10" />
        <path id="path1104" d="m1286 773v6h-4.1c-3.8 0-4 0.1-3.7 2.7 0.3 2.4 0.8 2.8 4.1 3.1l3.7 0.3v15.7c0 18.5 1 21.7 7.3 24.1 5.5 2 13.1 0.5 13.5-2.7 0.6-4.1-0.4-5.3-3.3-4.2-3.6 1.4-7 0.3-8.4-2.6-0.6-1.5-1.1-8.2-1.1-16.4v-14h6.5 6.5v-3-3h-6.5-6.5v-6-6h-4-4v6z" fill="#000000" stroke="#000000" stroke-width="0.5" stroke-miterlimit="10" />
        <path id="path1106" d="m27.2 776.7c-3.9 1.9-6.2 5.9-6.2 10.8 0 6.4 2.2 9 11.4 13.4 10.9 5.2 12.7 8.1 8.1 12.6-3.1 3.2-9.4 3.3-15 0.5-5.2-2.7-5.5-2.6-5.5 1.5 0 4.8 4.1 6.9 13.5 6.9 10.8 0 16.1-3.7 17.2-12.2 0.9-6.5-1.6-9.8-10.5-13.9-9.4-4.3-11.2-5.8-11.2-9.4 0-5.4 7.2-7.5 14.7-4.4 4.6 1.9 4.3 2 4.3-1.8 0-2.6-0.6-3.6-2.5-4.5-3.8-1.7-14.4-1.4-18.3 0.5z" fill="#000000" stroke="#000000" stroke-width="0.5" stroke-miterlimit="10" />
        <path id="path1108" d="m63 806.9v32.1h3.5 3.5v-11c0-6.1 0.3-11 0.6-11s2.1 1.2 3.9 2.6c8.4 6.4 20.4 3.1 25.7-6.9 1.9-3.5 2.2-5.9 2.3-14.2 0-8.5-0.4-10.7-2.3-14.7-3.2-6.4-7.3-8.8-14.9-8.8-5 0-6.7 0.5-10.4 3l-4.4 2.9-0.5-2.7c-0.4-2.2-1.1-2.8-3.8-3l-3.2-0.3v32zm27.5-22.3c4.9 5.3 5.5 19.1 1.1 25.7-4.7 6.9-10.7 6.9-17.8 0-3.7-3.6-3.8-3.8-3.8-11.4 0-6.3 0.4-8.1 2.2-10.4 5.3-6.7 13.9-8.6 18.3-3.9z" fill="#000000" stroke="#000000" stroke-width="0.5" stroke-miterlimit="10" />
        <path id="path1110" d="m122.7 777.1c-7.3 3.8-11.6 14.7-10.3 25.8 1 8.4 3.9 13.6 9.4 16.9 4.2 2.4 5.7 2.7 13.2 2.6 11.1-0.1 16-2 16-6.3 0-3.6 0.3-3.5-6.7-1.5-12.8 3.7-21.9-0.3-23-10l-0.6-4.6h15.7c17.8 0 17.2 0.3 16.1-8.5-0.7-6.2-3.6-10.9-8.4-14.2-4.6-3.1-15.8-3.2-21.4-0.2zm15.7 4.9c2.9 1.1 5.1 4.2 6.1 8.7l0.7 3.3h-12.1c-11.9 0-12.1 0-12.1-2.3 0-2.8 3.2-7.7 6.2-9.3 2.8-1.6 7.7-1.8 11.2-0.4z" fill="#000000" stroke="#000000" stroke-width="0.5" stroke-miterlimit="10" />
        <path id="path1112" d="m165 798.5v23.5h4 4v-15.5-15.5l4.4-4.6c4.3-4.5 4.5-4.5 9.1-3.9l4.6 0.7-0.3-3.8-0.3-3.9-5.2-0.3c-4.8-0.3-5.5 0-9.2 3.4l-4.1 3.6v-3.6c0-3.4-0.1-3.6-3.5-3.6h-3.5v23.5z" fill="#000000" stroke="#000000" stroke-width="0.5" stroke-miterlimit="10" />
        <path id="path1114" d="m200.4 776.3c-0.2 0.7-0.3 11.1-0.2 23.2l0.3 22 3.8 0.3 3.7 0.3v-15.9-15.9l4.5-4.2c5.5-5 9.8-5.5 13.6-1.5 2.3 2.5 2.4 3.1 2.7 20l0.4 17.4h3.9 3.9v-16.2-16.1l4-3.9c3.3-3 4.8-3.8 7.9-3.8 2.4 0 4.4 0.7 5.4 1.8 2.5 2.7 3.7 11 3.7 25.3v12.9h3.5 3.5v-18.5c0-20.1-0.5-22.4-5.6-26.4-2-1.5-4.1-2.1-8.1-2.1-6 0-8.4 0.9-12.6 4.8l-2.8 2.6-2.2-2.6c-3.1-3.7-5.8-4.8-12-4.8-4.4 0-6.2 0.5-9.5 3-2.3 1.6-4.4 3-4.7 3s-0.5-1.4-0.5-3c0-2.7-0.3-3-3-3-1.7 0-3.3 0.6-3.6 1.3z" fill="#000000" stroke="#000000" stroke-width="0.5" stroke-miterlimit="10" />
        <path id="path1116" d="m308.9 777.3c-7.1 4.8-10.7 14.6-9.4 26.1 1.1 10.7 6.8 17.6 15.5 19.1 10.8 1.8 21.2-4.4 18.6-11-0.4-1.1-1.9-0.7-6.6 1.7-5.9 3.1-6.3 3.2-10.2 1.7-6.2-2.1-8-5.4-8.5-14.6-0.4-6.7-0.1-8.4 1.9-12.3 1.8-3.6 3.2-4.8 6.4-5.9 3.9-1.4 4.4-1.3 9.6 1.2 7.1 3.5 8 3.4 7.6-0.5-0.5-5.2-5.3-7.8-14.3-7.8-5.8 0-7.8 0.4-10.6 2.3z" fill="#000000" stroke="#000000" stroke-width="0.5" stroke-miterlimit="10" />
        <path id="path1118" d="m351.7 777.1c-7.3 3.8-11.6 14.7-10.3 25.8 1 8.4 3.9 13.6 9.4 16.9 4.2 2.4 5.7 2.7 13.2 2.6 11.1-0.1 16-2 16-6.3 0-3.6 0.3-3.5-6.7-1.5-12.8 3.7-21.9-0.3-23-10l-0.6-4.6h15.7c17.8 0 17.2 0.3 16.1-8.5-0.7-6.2-3.6-10.9-8.4-14.2-4.6-3.1-15.8-3.2-21.4-0.2zm15.7 4.9c2.9 1.1 5.1 4.2 6.1 8.7l0.7 3.3h-12.1c-11.9 0-12.1 0-12.1-2.3 0-2.8 3.2-7.7 6.2-9.3 2.8-1.6 7.7-1.8 11.2-0.4z" fill="#000000" stroke="#000000" stroke-width="0.5" stroke-miterlimit="10" />
        <path id="path1120" d="m1009.6 778.9c-0.5 0.7 10.3 32.7 14.9 44.4 0.6 1.5 1.7 1.7 5.9 1.5l5.1-0.3 7.8-21.8c4.4-12 7.6-22.4 7.3-23.2-0.3-0.9-1.8-1.5-3.5-1.5-3.8 0-4.3 0.9-11.1 21.3-2.8 8.7-5.4 15.6-5.6 15.4s-3.2-8.5-6.7-18.3l-6.2-17.9-3.7-0.3c-2-0.2-3.9 0.1-4.2 0.7z" fill="#000000" stroke="#000000" stroke-width="0.5" stroke-miterlimit="10" />
        <path id="path1122" d="m1067 780.2c-8.9 4.6-13.2 17.6-10 30.8 1.5 6.5 6.8 12.3 12.5 13.9 9.7 2.7 24.7-0.1 25.3-4.8 0.6-3.7-0.9-4.3-6.2-2.5-6.8 2.3-16.7 1.6-20-1.5-2.4-2.3-5.2-10.4-4.1-12.2 0.4-0.5 7.4-0.9 16.1-0.9h15.4v-6.3c0-7.8-2.9-13.2-8.5-16.4-5.5-3.1-14.4-3.1-20.5-0.1zm18.3 7.8c1.8 2.1 2.7 4.1 2.7 6.5v3.6l-11.7-0.3-11.8-0.3 0.4-2.5c1.4-10.3 13.6-14.6 20.4-7z" fill="#000000" stroke="#000000" stroke-width="0.5" stroke-miterlimit="10" />
        <path id="path1124" d="m1114.4 779.9c-5.5 3.4-7.4 6.7-7.4 13.2 0 3.2 0.5 6.9 1.1 8.3 0.9 1.9 0.8 2.9-0.5 4.7-2.1 3-2.1 9.7 0 12 1.5 1.7 1.5 2-1 4.9-3.7 4.5-3.7 11.1 0.2 15 7.5 7.4 30.3 5.9 35.8-2.5 2.2-3.3 2.8-9.5 1.2-12.4-2.7-5.1-6-6.4-17.4-7.1-11.8-0.8-14.1-1.9-13-6.5 0.5-2.1 1.1-2.5 2.4-1.9 0.9 0.4 4.1 1 7.1 1.2 10.6 0.8 17.1-4.8 17.1-14.7 0-2.9-0.5-6.1-1-7.2-1-1.7-0.7-1.9 2.5-1.9s3.5-0.3 3.5-2.8v-2.9l-10.7-0.6c-15.2-1-16.5-0.9-19.9 1.2zm16 7.1c2.6 2.5 2.7 8.6 0.3 12.3-3.5 5.3-12.7 4.3-15.6-1.8-1.2-2.5-1.2-3.5 0-6.9 0.8-2.4 2.4-4.6 3.9-5.4 3.2-1.7 8.8-0.8 11.4 1.8zm0.9 36.1c5 1.3 6.7 4.7 4.3 8.4-0.9 1.4-2.8 3-4.2 3.5-3.6 1.4-13.4 1.2-16.4-0.3-3.6-1.8-3.9-6.5-0.6-10 2.1-2.3 3.3-2.7 7.8-2.7 2.9 0 7 0.5 9.1 1.1z" fill="#000000" stroke="#000000" stroke-width="0.5" stroke-miterlimit="10" />
        <path id="path1126" d="m1163 780.2c-8.9 4.6-13.2 17.6-10 30.8 1.5 6.5 6.8 12.3 12.5 13.9 9.7 2.7 24.7-0.1 25.3-4.8 0.6-3.7-0.9-4.3-6.2-2.5-6.8 2.3-16.7 1.6-20-1.5-2.4-2.3-5.2-10.4-4.1-12.2 0.4-0.5 7.4-0.9 16.1-0.9h15.4v-6.3c0-7.8-2.9-13.2-8.5-16.4-5.5-3.1-14.4-3.1-20.5-0.1zm18.3 7.8c1.8 2.1 2.7 4.1 2.7 6.5v3.6l-11.7-0.3-11.8-0.3 0.4-2.5c1.4-10.3 13.6-14.6 20.4-7z" fill="#000000" stroke="#000000" stroke-width="0.5" stroke-miterlimit="10" />
        <path id="path1128" d="m1242.7 779.4c-2 0.8-4.4 1.9-5.2 2.6-1.6 1.3-2 5.5-0.7 6.4 0.5 0.3 3.7-0.6 7.2-2.1 10.5-4.2 16.7-1.8 17.7 7l0.5 4.4-8.3 0.5c-13.6 0.7-19.9 5.3-19.9 14.5 0 12.7 16.6 17.9 27.3 8.5 1.6-1.4 1.7-1.3 1.7 1.1s0.4 2.7 3.5 2.7h3.5v-18.3c0-20.7-0.8-23.9-7-26.9-4.2-2.2-14.8-2.3-20.3-0.4zm19.3 28.9c0 4.9-3.2 8.8-8.8 10.8-6.8 2.3-13-3.7-10-9.7 1.8-3.9 5.2-5.4 12.6-5.4h6.2v4.3z" fill="#000000" stroke="#000000" stroke-width="0.5" stroke-miterlimit="10" />
        <path id="path1130" d="m1318.7 778.6c-0.4 0.4-0.7 11-0.7 23.6v22.8h4 4l-0.2-23.3-0.3-23.2-3-0.3c-1.7-0.2-3.4 0-3.8 0.4z" fill="#000000" stroke="#000000" stroke-width="0.5" stroke-miterlimit="10" />
        <path id="path1132" d="m1335.5 779.3c-0.3 0.7 3 11.2 7.3 23.3l7.8 21.9h5.4 5.3l7.9-22c4.3-12 7.6-22.5 7.4-23.2-0.7-1.7-6.2-1.7-7.3-0.1-0.4 0.7-3.6 9.2-7 18.8-3.3 9.6-6.4 16.8-6.7 16s-3.2-9.2-6.4-18.5l-5.9-17-3.7-0.3c-2.4-0.2-3.8 0.1-4.1 1.1z" fill="#000000" stroke="#000000" stroke-width="0.5" stroke-miterlimit="10" />
        <path id="path1134" d="m1392.8 780c-4.2 2.3-8 6.9-9.7 11.9-1.4 4.3-1.4 15.4 0 20.6 1.5 5.3 7.3 11 12.9 12.5 5 1.4 15.5 0.8 20.8-1 2.8-1 3.2-1.7 3.2-4.6 0-1.9-0.1-3.4-0.3-3.4s-2.5 0.7-5.1 1.6c-6.9 2.4-16.7 1.6-20.1-1.6-2.6-2.5-5-9.2-4.1-11.6 0.4-1.1 3.7-1.4 16.1-1.4h15.5v-5.7c0-12.3-7-19.3-19.1-19.3-4.3 0.1-7.6 0.7-10.1 2zm17.9 7.2c1.5 1.5 2.7 4.1 3 6.6l0.6 4.2h-11.7c-13.1 0-13.7-0.4-11.2-6.4 3.1-7.5 13.7-9.9 19.3-4.4z" fill="#000000" stroke="#000000" stroke-width="0.5" stroke-miterlimit="10" />
        <path id="path1136" d="m1456 801.4v23.6h4 4l0.2-16.7 0.3-16.7 4.3-3.3c5.4-4.1 9.8-4.4 13.2-0.8 2.9 3.1 3.8 8.9 3.9 25.2l0.1 12.3h3.5 3.5v-18.1c0-20.2-0.8-23.5-6.4-27.1-2.4-1.5-4.5-1.8-9.3-1.6-5.2 0.3-6.9 0.9-10.2 3.6l-4 3.2-0.3-3.3c-0.3-2.8-0.7-3.2-3.5-3.5l-3.3-0.3v23.5z" fill="#000000" stroke="#000000" stroke-width="0.5" stroke-miterlimit="10" />
        <path id="path1138" d="m1509 796.7c0 17 0.2 19.1 2 22.1 5.3 8.7 17.3 9.6 25.8 1.9l2.2-2v3.1c0 3 0.2 3.2 3.5 3.2h3.5v-23.5-23.5h-3.5-3.5v16 16l-4.1 4c-6.8 6.6-14.2 6.2-17.1-0.8-0.6-1.5-1.3-10-1.6-19l-0.5-16.2h-3.3-3.4v18.7z" fill="#000000" stroke="#000000" stroke-width="0.5" stroke-miterlimit="10" />
        <path id="path1140" d="m1569 780.2c-3.5 1.8-5.1 3.6-7.2 7.8-2.5 4.7-2.8 6.5-2.8 14.4 0.1 17 7.3 24.8 21.7 23.3 7.8-0.8 11.7-3.4 12.1-8 0.2-2-0.1-3.7-0.6-3.7s-3.1 1.2-5.6 2.6c-10.9 6.1-19.6-0.6-19.6-15.2 0-5.5 1.7-10.3 4.8-13.7 3.5-3.7 10.3-3.8 15.7-0.1 4.2 2.8 5.8 2.2 5.3-2.1-0.5-4.4-4.7-6.9-12.6-7.3-5.6-0.3-7.5 0-11.2 2z" fill="#000000" stroke="#000000" stroke-width="0.5" stroke-miterlimit="10" />
        <path id="path1142" d="m1635.5 779.6c-8.5 4.4-11.4 10.3-11.5 23 0 12 2.2 16.6 10.1 20.7 5 2.7 6 2.9 13.4 2.4 4.4-0.3 9.5-1.1 11.3-1.7 2.7-1 3.2-1.7 3.2-4.6 0-3.9-0.4-4-5.3-1.9-2 0.8-6.6 1.5-10.2 1.5-6 0-6.8-0.3-10.1-3.3-2.9-2.6-3.7-4.2-4.1-8l-0.6-4.6 31.8-0.6 0.3-3.7c0.7-8.2-3.9-16.7-10.5-19.4-4.4-1.9-14.1-1.8-17.8 0.2zm14.6 6c3.1 1.5 5.9 6.6 5.9 10.4 0 1.9-0.6 2-12.1 2h-12.1l0.6-3.3c1.7-8.8 10.1-13.1 17.7-9.1z" fill="#000000" stroke="#000000" stroke-width="0.5" stroke-miterlimit="10" />
        <path id="path1144" d="m1676.4 779.4c-0.3 0.9-0.4 9.3-0.2 18.8 0.3 15.9 0.5 17.6 2.6 20.9 4.7 7.7 15.3 9 23.8 3.1l4.4-3.2v3c0 2.8 0.3 3 3.5 3h3.5l-0.2-23.3-0.3-23.2h-3.5-3.5l-0.6 32-3.6 3.7c-5.9 6.1-12.1 6.1-16.1 0.1-1.4-2.2-1.8-5.8-2.2-19.3l-0.5-16.5-3.3-0.3c-2.2-0.2-3.4 0.2-3.8 1.2z" fill="#000000" stroke="#000000" stroke-width="0.5" stroke-miterlimit="10" />
        <path id="path1146" d="m1734.3 779.5c-6.4 2.7-9.1 11.2-5.7 17.7 1.2 2.3 3.6 3.9 9.9 6.9 10.5 4.8 12.9 8.5 8.5 12.9-2.6 2.6-10 2.6-15.7 0.1-4.7-2.2-5.3-1.9-5.3 2.1 0 2.4 0.7 3.2 4.3 4.8 5 2.3 13.4 2.6 18 0.6 4.9-2.1 7.9-5.9 8.4-10.9 0.8-7.2-1.4-10.1-11.5-15-9.6-4.7-11.1-6.3-9.6-10.4 1.4-4 6-5.1 12.8-3 6.8 2.2 6.6 2.2 6.6-1.4 0-2.5-0.6-3.2-3.5-4.5-4.3-1.8-13-1.8-17.2 0.1z" fill="#000000" stroke="#000000" stroke-width="0.5" stroke-miterlimit="10" />
    </g>
    <g id="vn_mpg">
        <path id="path1158" d="m1373.3 743.29c-74.83-13.35-138.58-64.8-146.94-118.58-2.55-16.354 2.38-34.695 12.8-47.621 9.2-11.431 26.42-21.648 45.05-26.738 11.53-3.147 44.04-4.402 59.9-2.313 61.73 8.133 121.66 46.339 144.78 92.301 12.98 25.8 13.2 49.287 0.66 68.894-11.04 17.253-31.79 29.714-57.64 34.615-14.33 2.716-41.72 2.455-58.61-0.559z" fill="#ffffff" stroke="#000000" stroke-width="1.2434" stroke-miterlimit="10" />
    </g>
    <g id="sc_mpg">
        <path id="path1163" d="m203.6 692.31c-28.064-14.023-38.347-50.733-21.509-76.785 6.976-10.794 14.888-16.214 27.425-18.787 20.871-4.283 46.005 15.083 51.038 39.326 2.384 11.486 1.027 27.057-3.052 35.009-4.686 9.134-13.768 18.568-21.253 22.075-9.591 4.495-22.648 4.16-32.649-0.838z" fill="#ffffff" stroke="#000000" stroke-width="1.2434" stroke-miterlimit="10" />
        <path id="path1165" d="m199.56 712.8c-21.74-4.669-41.235-19.706-50.832-39.205-6.227-12.653-8.147-22.141-7.091-35.05 1.449-17.728 8.471-32.416 21.794-45.584 9.975-9.86 18.844-15.276 33.317-20.35 9.683-3.394 12.483-3.823 25.193-3.857 10.305-0.029 16.383 0.588 21.759 2.208 25.917 7.807 47.492 28.993 52.746 51.795 1.977 8.579 1.624 27.161-0.662 34.865-11.685 39.384-54.758 64.084-96.224 55.178zm41.032-10.681c14.392-6.672 26.228-21.924 29.867-38.491 2.231-10.151 1.026-28.589-2.456-37.599-6.873-17.785-21.395-32.115-37.505-37.008-27.384-8.318-54.619 6.618-63.296 34.712-2.924 9.464-3.296 27.45-0.765 36.913 5.247 19.61 20.489 36.736 38.363 43.103 9.664 3.442 26.505 2.676 35.792-1.63z" fill="#ffffff" stroke="#000000" stroke-width="1.2434" stroke-miterlimit="10" />
    </g>
    <g id="mpg">
        <path id="path1171" d="m706.87 665.46c-83.385-11.298-155.94-47.249-212.01-105.05-16.221-16.721-29.575-33.7-40.998-52.126-9.412-15.18-20.751-37.554-19.581-38.635 0.5-0.462 21.427-16.524 46.504-35.693l45.595-34.852 9.315 3.617c15.521 6.026 29.203 7.88 58.65 7.947 21.216 0.048 27.627-0.352 34.193-2.137 9.237-2.51 26.507-10.536 38.984-18.116 4.686-2.848 8.742-5.177 9.014-5.177s0.495 6.126 0.495 13.613c0 16.322 3.095 27.663 11.624 42.589 25.446 44.532 80.584 79.257 140.85 88.707 18.581 2.914 50.004 2.002 65.116-1.889 22.352-5.757 43.735-19.446 51.758-33.136l3.228-5.509 34.988 17.986c47.154 24.241 50.504 26.055 50.524 27.315 0.01 2.14-17.8 22.018-31.83 35.501-53.601 51.529-125.01 84.914-203.54 95.159-19.062 2.487-74.194 2.421-92.88-0.11z" fill="#ffffff" stroke="#000000" stroke-width="1.2434" stroke-miterlimit="10" />
        <path id="path1173" d="m837.06 528.04c-13.619-1.557-40.329-8.652-54.621-14.509-47.77-19.578-85.827-54.67-98.726-91.034-2.788-7.859-3.314-11.499-3.436-23.76-0.127-12.839 0.138-14.795 2.343-17.272 2.486-2.792 16.066-9.9 18.919-9.902 0.831 0 3.452-1.705 5.825-3.789 4.168-3.659 6.149-8.029 9.444-20.825 0.999-3.879 2.465-6.006 5.353-7.767 2.188-1.334 4.339-2.427 4.781-2.43 0.441-2e-3 2.51 2.653 4.597 5.902 5.294 8.241 12.224 14.655 19.123 17.7 18.164 8.016 78.989 5.286 109.66-4.922l7.914-2.634 10.415 6.152c13.783 8.141 27.104 18.558 29.645 23.181 1.128 2.052 3.239 3.906 4.692 4.12 5.812 0.856 22.577 22.168 31.564 40.123 20.337 40.632 3.224 80.054-41.643 95.931-18.286 6.471-41.636 8.504-65.852 5.735z" fill="#ffffff" stroke="#000000" stroke-width="1.2434" stroke-miterlimit="10" />
        <path id="path1175" d="m893.18 364.32c-6.606-4.563-14.07-9.446-16.585-10.85l-4.575-2.553 8.317-5.378c6.171-3.991 10.243-7.984 15.784-15.477 4.106-5.553 7.88-10.255 8.386-10.447 1.044-0.398 2.55 24.148 2.55 41.577 0 6.389-0.42 11.574-0.933 11.521-0.513-0.052-6.338-3.829-12.944-8.393z" fill="#ffffff" stroke="#000000" stroke-width="1.2434" stroke-miterlimit="10" />
        <path id="path1181" d="m719.95 332.83c1.766-5.764 2.522-6.287 4.298-2.969 1.895 3.541 1.806 3.735-2.273 4.991-2.625 0.808-2.83 0.604-2.025-2.022z" fill="#ffffff" stroke="#000000" stroke-width="1.2434" stroke-miterlimit="10" />
        <path id="path1183" d="m1012.7 510.7c-34.478-17.705-53.247-27.693-56.275-29.948-1.989-1.482-2.063-2.556-0.798-11.58 3.327-23.736-6.34-49.25-28.791-75.991l-8.472-10.09 2.963-18.062c6.678-40.699 8.623-83.196 4.829-105.46-4.008-23.514-15.654-56.171-26.705-74.886-7.379-12.497-21.901-26.762-32.846-32.264-20.926-10.521-40.294-13.821-76.705-13.071-30.305 0.625-34.141 1.516-50.549 11.743-10.32 6.432-24.861 19.525-28.846 25.972-1.42 2.297-4.232 10.771-6.25 18.83-3.846 15.363-5.906 21.497-7.213 21.486-3.599-0.032-12.349-3.864-24.111-10.558-8.148-4.637-18.637-9.4-25.163-11.427-10.961-3.404-11.802-3.474-41.032-3.433-32.133 0.045-40.209 1.094-55.277 7.18-13.155 5.313-21.292 11.017-34.9 24.462-14.482 14.309-21.231 23.67-25.983 36.039-2.834 7.378-3.107 9.765-3.058 26.752 0.045 15.62 0.608 21.163 3.466 34.109 7.166 32.461 15.107 55.683 22.34 65.331 1.551 2.069 3.202 4.41 3.669 5.203 0.939 1.596-8.162 9.06-43.922 36.02-29.937 22.57-42.348 31.547-43.612 31.547-2.844 0-14.775-44.078-18.175-67.143-2.948-19.999-2.891-58.967 0.115-78.956 15.256-101.44 80.137-188.16 177.16-236.79 60.045-30.1 123.42-42.32 194.74-37.55 89.046 5.9553 179.54 49.19 236.23 112.86 47.94 53.855 73.51 112.92 79.04 182.62 4 50.423-8.2 107.48-33.04 154.47-6.87 12.995-21.86 37.501-22.98 37.561-0.35 0.019-13.78-6.718-29.85-14.97z" fill="#ffffff" stroke="#000000" stroke-width="1.2434" stroke-miterlimit="10" />
        <path id="path1185" d="m802.65 298.77c-13.8-3.858-24.895-13.626-31.545-27.771-3.315-7.051-3.874-9.666-3.891-18.183-0.025-12.339 2.621-20.434 9.923-30.352 4.517-6.136 7.012-8.143 15.071-12.125 8.824-4.359 10.523-4.768 19.666-4.728 8.071 0.035 11.332 0.66 16.847 3.229 31.101 14.488 38.754 54.455 14.98 78.229-11.325 11.324-26.711 15.71-41.051 11.701z" fill="#ffffff" stroke="#000000" stroke-width="1.2434" stroke-miterlimit="10" />
        <path id="path1189" d="m560.15 399.55c-11.02-2.206-22.192-5.54-23.013-6.868-0.372-0.603 4.618-5.355 11.089-10.56 11.569-9.305 11.826-9.434 15.265-7.665 7.512 3.865 21.38 7.205 32.717 7.88 29.593 1.76 55.587-8.495 75.184-29.661 36.194-39.093 25.626-100.68-21.473-125.14-14.488-7.524-22.951-9.425-41.899-9.412-12.881 9e-3 -18.133 0.568-25.861 2.754-24.897 7.041-43.646 21.855-55.37 43.749-7.227 13.495-9.204 21.584-9.245 37.818-0.059 23.367 6.535 39.364 22.958 55.693l9.637 9.583-11.316 8.757c-6.224 4.817-11.8 8.758-12.39 8.758-0.591 0-3.022-2.658-5.402-5.906-8.823-12.04-21.001-53.494-24.169-82.265-3.075-27.933 5.023-47.255 29.088-69.408 22.573-20.777 40.998-26.927 80.827-26.974 32.333-0.038 37.895 1.559 73.36 21.071 6.839 3.762 13.084 7.155 13.878 7.54 2.099 1.016 11.482-5.571 13.504-9.482 0.951-1.839 3.131-9.554 4.845-17.144 1.713-7.591 4.229-15.985 5.591-18.655 5.273-10.336 26.501-26.528 43.015-32.81 6.936-2.639 9.243-2.826 33.559-2.724 27.748 0.116 38.065 1.478 55.102 7.273 11.906 4.049 17.478 7.141 24.906 13.819 15.869 14.268 29.072 39.987 38.104 74.228 6.203 23.514 7.499 37.467 5.775 62.18-0.777 11.134-1.478 21.632-1.559 23.328-0.135 2.831-0.225 2.778-1.097-0.646-0.522-2.051-1.015-6.318-1.096-9.48-0.228-8.931-1.5-13.494-4.157-14.916-4.721-2.526-7.967-0.161-16.843 12.271-10.901 15.268-14.766 19.03-25.012 24.341-10.52 5.453-21.363 8.937-36.199 11.631-15.555 2.825-64.636 3.173-73.759 0.524-7.272-2.111-14.868-9.297-21.513-20.35-6.537-10.874-10.43-15.833-12.429-15.833-0.945 0-1.718-0.779-1.718-1.732 0-2.318-3.283-3.473-4.584-1.613-3.618 5.168-5.951 11.38-9.685 25.788-2.322 8.963-5.047 17.555-6.055 19.092-1.007 1.538-4.844 3.949-8.525 5.358-3.682 1.408-15.063 7.759-25.291 14.113-20.597 12.794-32.775 18.843-43.619 21.667-9.244 2.408-53.138 2.426-65.125 0.027zm277.9-67.807c24.945-7.751 44.65-24.138 55.546-46.193 6.605-13.368 7.749-18.546 7.778-35.221 0.031-18.164-2.876-28.614-11.716-42.121-11.682-17.85-31.558-31.367-53.097-36.108-24.883-5.478-50.61-0.58-72.745 13.848-19.51 12.717-34.612 36.387-37.293 58.45-2.508 20.646 1.467 37.423 12.926 54.556 11.924 17.828 30.514 29.975 53.217 34.776 11.676 2.468 34.225 1.481 45.384-1.987zm-117.5-24.84c0-1.824-0.829-2.487-3.109-2.487-2.926 0-4.167 2.257-2.279 4.145 1.855 1.855 5.388 0.768 5.388-1.658zm-2.712-7.771c-0.218-1.539-1.236-2.798-2.262-2.798s-2.044 1.259-2.262 2.798c-0.306 2.153 0.215 2.797 2.262 2.797s2.568-0.644 2.262-2.797zm-2.496-8.068c-0.624-3.241-4.74-3.603-4.74-0.416 0 1.779 0.799 2.578 2.578 2.578 1.78 0 2.449-0.67 2.162-2.162zm-2.477-8.096c-0.219-1.539-1.237-2.798-2.263-2.798-1.025 0-2.043 1.259-2.262 2.798-0.306 2.153 0.215 2.797 2.262 2.797s2.569-0.644 2.263-2.797zm-1.252-8.082c-0.505-2.653-5.984-3.776-5.984-1.227 0 2.379 1.212 3.403 4.028 3.403 1.587 0 2.234-0.72 1.956-2.176zm-2.564-7.46c0.679-2.042-3.216-3.499-4.887-1.828-0.716 0.715-0.906 1.939-0.423 2.72 1.099 1.778 4.617 1.187 5.31-0.892zm-2.441-8.847c-0.573-2.978-4.709-3.389-4.709-0.467 0 1.304 0.334 2.705 0.743 3.114 1.372 1.372 4.357-0.62 3.966-2.647zm-2.223-7.629c0-1.582-0.828-2.486-2.279-2.486-2.933 0-3.936 1.045-3.097 3.23 1.055 2.75 5.376 2.153 5.376-0.744zm-2.711-7.673c-0.218-1.486-1.096-2.931-1.951-3.212-2.254-0.743-3.507 3.456-1.425 4.775 2.805 1.776 3.8 1.315 3.376-1.563zm-2.262-8.491c0-1.658-0.829-2.487-2.487-2.487s-2.487 0.829-2.487 2.487 0.829 2.487 2.487 2.487 2.487-0.829 2.487-2.487z" fill="#ffffff" stroke="#000000" stroke-width="1.2434" stroke-miterlimit="10" />
        <path id="path1187" d="m791.42 323.64c-15.712-4.376-30.278-13.484-39.695-24.823-6.671-8.032-13.193-21.07-15.077-30.137-2.014-9.697-0.814-26.371 2.606-36.208 8.243-23.705 31.335-44.194 57.099-50.662 12.142-3.049 35.044-1.951 46.887 2.247 18.563 6.581 34.181 20.117 42.029 36.426 5.451 11.329 7.369 21.624 6.553 35.168-0.806 13.373-4.025 22.271-12.642 34.94-9.568 14.067-24.165 24.818-42.656 31.417-9.737 3.475-35.181 4.396-45.104 1.632zm44.188-18.468c7.952-3.64 19.379-14 23.841-21.614 10.716-18.285 10.388-43.641-0.79-61.06-5.564-8.671-16.347-18.409-24.535-22.157-13.3-6.089-32.83-5.933-45.77 0.367-10.223 4.977-20.387 15.274-25.629 25.966-4.182 8.529-4.255 8.955-4.255 24.868 0 16.054 0.038 16.27 4.522 25.658 8.199 17.169 24.581 29.77 41.484 31.909 10.466 1.324 23.141-0.279 31.132-3.937z" fill="#ffffff" stroke="#000000" stroke-width="1.2434" stroke-miterlimit="10" />
        <path id="path1191" d="m596.12 353.77c-22.825-6.45-39.261-32.149-36.733-57.435 0.935-9.354 7.553-23.217 14.499-30.375 16.777-17.288 46.057-13.568 62.293 7.914 9.312 12.321 13.152 30.748 9.749 46.784-2.848 13.42-13.467 26.512-25.792 31.798-5.912 2.536-17.457 3.167-24.016 1.314z" fill="#ffffff" stroke="#000000" stroke-width="1.2434" stroke-miterlimit="10" />
        <path id="path1193" d="m582.53 370.9c-19.728-5.355-39.147-20.208-47.701-36.486-19.302-36.732-3.078-80.053 37.132-99.149 12.317-5.85 21.676-7.945 35.387-7.924 27.224 0.042 49.067 10.808 63.433 31.265 19.731 28.097 15.948 64.734-9.288 89.948-9.908 9.899-18.77 15.516-31.92 20.232-7.672 2.752-11.587 3.326-24.662 3.621-10.873 0.245-17.597-0.208-22.381-1.507zm32.179-6.776c24.731-4.69 42.425-28.297 42.425-56.602 0-42.668-40.914-74.308-75.572-58.441-36.26 16.6-43.376 67.491-13.75 98.343 13.508 14.067 29.935 19.917 46.897 16.7z" fill="#ffffff" stroke="#000000" stroke-width="1.2434" stroke-miterlimit="10" />
    </g>
</svg>
