<?xml version='1.0' encoding='utf-8'?>
<svg id="svg386" width="605pt" height="944pt" version="1.0" viewBox="0 0 605 944" xmlns="http://www.w3.org/2000/svg">
    <g id="outlines">
        <path id="path382" d="m270.1 22.6c-13.2 3.5-26.6 13.6-32.5 24.4-11.6 21.3-4.4 47.2 17.1 61.6 3.2 2.1 5.9 3.9 6 3.9 0.2 0.1-0.6 1.9-1.7 4-1.1 2.2-2 5.3-2 6.9 0 3 0 2.9-2.9-1.5-4.7-7.5-9.5-10.2-14.6-8.3-2.4 1-4.3 5.5-4.7 11.3-0.3 5-0.4 5.1-1.8 2.9-7.9-12.2-17.2-14-20-4l-1 3.9-4.5-4.4c-3.8-3.6-5.2-4.3-8.5-4.3-5.8 0-7.5 3.1-7.4 12.9l0.2 7.5-2.1-3c-1.2-1.6-3.3-4.1-4.7-5.5s-4.4-5-6.6-8l-4.2-5.5 1.9-3.7c11.7-22.8 1.5-50.4-23.2-62.6-4.6-2.3-11.5-4.8-15.4-5.6-30.3-6.3-61 10.4-68 37-6.9 26.5 11.9 52.7 42.5 59.1 7.3 1.6 21 1.4 26.8-0.2 2-0.6 2.2-0.3 2.2 3.4 0 5 2.1 11 6.1 17.6l3.2 5.1-6.6-6.5c-7.2-7.3-13.7-11-18.9-11-5.4 0-7.3 2-7.2 7.7 0.1 8.4 5.7 17.1 25.8 40.2l2.1 2.4-3.5-2c-1.9-1.1-9-5.3-15.8-9.2-6.8-4-14.7-8.3-17.5-9.7-18.3-8.4-30.5-2.5-21.8 10.7 3.5 5.2 9.2 9.7 22.1 17.3 5.2 3.1 9.2 5.6 8.8 5.6-0.3 0-8-3.3-17-7.4-18.4-8.3-22.9-9.8-30.8-9.9-6.4 0-9.7 1.4-11 4.9-2.6 6.9 6.2 15.4 25.2 24.3 7.3 3.5 12.4 6.1 11.3 5.8-1.1-0.2-5.6-1.4-9.9-2.6-9-2.4-21.7-2.8-25.6-0.8-1.3 0.7-3.1 2.4-3.9 3.9-1.4 2.4-1.4 3 0.1 6.2 3.4 7 10.2 10.3 40.8 19.5l6.5 1.9-5 0.1c-2.7 0-10.8-0.4-18-0.9-26.1-1.8-40 3.5-35.2 13.4 2.2 4.8 9.9 8.3 21.7 10l9.5 1.4-8.7 0.1c-23.5 0.3-36.8 5.2-36.8 13.5 0 6.9 8.2 10.8 23.2 11 4.7 0.1 8.5 0.2 8.4 0.4-0.2 0.1-4.3 0.9-9.2 1.8-12 2-22.9 7.2-25.2 12-1.5 3.2-1.5 3.8-0.2 6.2 4.2 7.5 15.6 8.1 47.9 2.8 11.8-2 22-3.6 22.6-3.6 0.8 0 1 1.7 0.7 5.2-0.6 7.7 1.9 16 10.3 33.7 8 17.3 11.7 26.8 13.4 35.1 0.6 3 1.5 17.4 2 32 0.6 14.6 1.9 35 3 45.5 4 38.7 5 65.2 3.2 79.8l-0.7 5.8 4-0.3 4.1-0.3 0.6-6.5c1.6-16.1 0.2-46.2-4-86.5-1-9.9-1.8-18.1-1.7-18.2 0.1-0.2 2.9 3.9 6.1 9 11.6 18 33.3 36.6 56.4 48.1 10 5 24.1 10.4 36.6 14.1 4.9 1.4 9 2.7 9.2 2.8 0.6 0.7-1.9 25.3-4.2 41.2-7.3 50.3-11.6 92.2-14 137-2.3 43.8-4.3 69.1-7 89-8.1 59.6-8.2 61.1-5.9 66 2.1 4.5 7.1 8.4 11.6 9.1 3 0.5 4 0 8.5-4.1 6.7-6 10.1-12.9 11.3-23.1 0.5-4.3 1.8-15.8 2.9-25.4s3-24 4.1-32c2.6-18.5 5.5-54 7.5-91.3 2.4-45.8 8.3-103.8 14.5-142.4 1.1-6.7 2-13.8 2-15.8 0-3.2 0.3-3.5 2.8-3.5h2.7l-0.3 30.7c-0.1 17-1.1 46.5-2.2 65.8-1.1 19.2-2.4 51.4-3 71.5-1.1 42-1.4 46.3-4 70-1 9.6-2.2 24.2-2.5 32.5-0.4 8.2-1.7 22.2-3 31s-2.6 23.4-3 32.5c-0.3 9.1-1.1 20.4-1.6 25.3-1 9.7-0.4 12 4.8 16.9 9.6 9.1 23.9 5 31.1-8.8 0.6-1.2 1.6-12.4 2.2-25s2.2-31.2 3.5-41.4c1.4-10.2 2.9-27.3 3.5-38s1.8-24.4 2.6-30.4c1.4-11.1 2.8-38.8 3.9-78.6 0.3-12.4 1.5-37.6 2.6-56 1.1-19.2 1.9-46.3 1.9-63.5 0-16.5 0.3-31 0.6-32.1 0.5-1.8 1.6-2.3 6.6-2.8 3.3-0.4 6.2-0.5 6.5-0.2s0 6.9-0.6 14.8-1.3 26-1.6 40.3c-0.4 14.3-1.3 32.7-2 41-1.8 18.7-2.2 132.6-0.6 142 0.6 3.3 1.1 6.1 1.1 6.2s1.5 1 3.3 2.2c7.8 4.8 21 5 25 0.5 2.1-2.4 2.1-2.8 1.8-59.2-0.1-44.2 0.1-60.8 1.3-75.2 0.9-10.2 1.6-25.3 1.6-33.5 0-14.7 0.9-32.8 3.3-68.9l1.2-17.8 11-3.9c33.8-11.9 62.6-32.8 78.4-56.8 3.3-5.1 6.1-9.8 6.1-10.4s0.2-0.8 0.5-0.6c0.2 0.3-0.7 10.4-2.1 22.5-2.8 24-4.2 61.5-2.9 79.8l0.7 10.6h3.7 3.6l-0.3-28.8c-0.4-26.7-0.2-30.7 2.7-57.2 2-18.6 3.3-36 3.6-50 0.7-29.6 1.7-33.6 15-62.1 8.7-18.5 10.9-26 10.2-34.4-0.3-3.4-0.3-6.5 0.1-7.1 0.5-0.7 8.2-0.4 24.2 0.8 30.1 2.4 44.9 2.1 50.8-1 7.9-4.2 7.9-11-0.2-15.7-6.3-3.6-10.6-4.4-30.1-6.1-9.8-0.8-18-1.6-18.2-1.8s5.4-0.6 12.5-0.9c18.5-1 28.6-4.5 31.4-11.1 3.1-7.5-8.1-13.5-25.6-13.6l-6.1-0.1 5.2-1.8c13.7-4.7 17.9-14.7 8-19.1-7.3-3.2-14.6-3.4-34.6-0.6-10.2 1.4-18.6 2.4-18.7 2.3-0.2-0.2 5.6-2.5 12.9-5.2 20.5-7.8 29.1-14.5 28.5-22.5-0.4-4.9-5-7.2-13.4-6.8l-6 0.4 4.6-3.7c8.5-6.7 11.4-14.5 7-18.9-1.6-1.6-3.3-2-8-2-6.6 0-14 2.4-23.7 7.8-3.5 1.8-6.3 3.1-6.3 2.7s1.5-2.4 3.3-4.6c7.7-9 11.1-21.4 6.9-25.2-2.6-2.3-8.5-2.1-13.5 0.4-2.3 1.2-7.5 5.4-11.5 9.3l-7.3 7 2.5-4.5c5.3-9.5 6.8-21.6 3-25.4-2.6-2.5-8.6-1.9-13.1 1.4l-4 2.9 1.9-5c7.5-19.9-2.1-31.3-15.1-17.9-2.5 2.6-6 7.3-7.6 10.4l-3 5.6v-8.8c0-7.1-0.4-9.3-1.7-10.8-2.4-2.6-2.3-3.5 0.5-2.8 1.2 0.3 5.4 0.1 9.2-0.5 22.8-3.5 38.5-23.1 38.5-48.2 0-10.7-1.5-16.8-6.7-27.7-3.6-7.5-5.9-10.8-11.6-16.5-12.3-12.2-24.4-17.1-40.6-16.4-8.2 0.3-10.6 0.8-16.3 3.5-3.7 1.8-9 5.2-11.7 7.8-8.7 8.1-15 23.6-15.1 36.8 0 13.2 5.9 29.2 15.1 40.7l5 6.2-2.7 5.5c-1.6 3-2.9 5.1-3.1 4.7-0.1-0.5-0.7-2.8-1.3-5.1-1.4-5.4-3.3-7.3-7.5-7.3-6.7 0-13.6 8.8-19 24.3-1.5 4.3-2.9 7.6-3 7.5-0.2-0.2 0.3-4.4 1.1-9.3 2.5-16.4 1-28.6-3.9-32-8.1-5.7-16 4.3-19.6 25.1l-1.9 10.9-0.1-8.6c-0.2-14.6-3.3-26.2-8-29-1.6-1.1-1.1-1.9 5.4-8.3 8.3-8.2 12.2-15.5 13.8-25.7 3.8-24.3-14.4-48.4-41.8-55.4-7.5-1.9-25.1-1.9-32.4 0.1zm33.7 6.9c33.4 10.5 45.6 44.9 24.1 67.9-15.6 16.7-41 20.5-63.6 9.6-16.7-8.2-27.5-25.5-26-41.8 2.6-27.7 34.9-45.4 65.5-35.7zm134.8 10.9c31.6 15.6 41.7 59.1 18.9 81.9-10.1 10.2-25.1 13.6-39.8 9.1-2.7-0.8-13.8-7.3-15.2-8.8-0.5-0.7-2.4-2.2-4.2-3.4-4.7-3.3-12.6-15.7-15.4-24.3-4.9-15-2.5-32.3 6-43.5 4.8-6.3 9.5-10 16.7-13 5.2-2.2 7.1-2.4 15.5-2.2 8.8 0.3 10.3 0.7 17.5 4.2zm-301.1 11.1c15.4 3.9 27.1 12.8 33.2 25.3 3.5 7.1 3.8 8.2 3.8 16.6 0 8.1-0.3 9.8-3.2 15.8-17.2 36.3-75.3 37-93 1-3.6-7.1-3.8-8.2-3.8-16.7s0.2-9.6 3.8-16.7c9.9-20.1 36-31.2 59.2-25.3zm187.1 66.3c3.7 5.5 4.4 11.8 4.4 41.9v28.5l-3.7-0.7c-2.1-0.4-3.8-0.8-3.9-0.8-0.1-0.1-1.8-7-3.8-15.2-3.2-12.8-3.8-17.2-4.3-30.1-0.6-15.9 0-20 3.9-24.9 2.5-3.3 4.6-2.9 7.4 1.3zm-54.4 0.9c4.5 5 5.8 10.2 5.8 24.8 0 12.3 0.4 15.8 3.3 28.2 3.7 16 4 15.3-4.4 15.3-3 0-3.8-0.4-4.2-2.3-0.3-1.2-2.7-13-5.2-26.2-5.1-26.3-5.6-35.6-2.2-40.8 1.9-3 3.6-2.7 6.9 1zm83.4 0.5c3.1 6 2.8 13.8-1.6 42.8-2.3 15.1-4.3 27.6-4.5 27.9-0.2 0.2-3.5 0-7.2-0.5-6.7-0.9-6.8-0.9-7.1-4.2-0.5-5.1 6.8-52 9-57.9s6.2-11.3 8.4-11.3c0.7 0 2.1 1.4 3 3.2zm-107.4-0.3c3.5 2.8 7.3 10.4 10.3 20.6 3.3 11.3 10.5 46.8 9.6 47.7-0.3 0.3-3.3 0.8-6.6 1l-5.9 0.3-7.3-26.5c-7.7-27.7-8.9-36.3-6.2-42.3 1.4-3.2 2.8-3.4 6.1-0.8zm60.8 8.5c0 15.7 1.9 34.4 3.9 39 1.8 4 4.3 17.7 4.5 24.6 0.1 1.9 0.4 3.7 0.8 4s1.4 4.8 2.3 10c1.3 7.4 1.9 19.8 2.5 56.5 0.7 43 0.6 48.3-1.1 62-1.5 12-2.1 26.4-2.9 72-1.5 91.8-1.8 98.7-4 113.5-3.6 23.4-3.9 27.8-3.9 58.8-0.1 16.8-1 45.8-2.1 65-1 19.1-2.4 52-3 73.2-1.2 42.4-3.8 72.5-6 69-0.4-0.7-0.4-2.4 0.1-3.7 2.1-5.5 1.1-9.3-3.5-13.9-4.5-4.6-7.7-5.5-11.7-3.4-4.7 2.6-7.2 14.4-4.6 22 0.8 2.5 1.8 7.2 2.2 10.6 0.6 5.5 0.4 6.4-1.9 9.9-4.5 6.5-5.8 13.4-5.9 28.9 0 15.2 1 21 4.6 25.2 4.7 5.5 9.8-0.4 11.8-13.8 0.6-4 1.8-9.6 2.7-12.3 1.8-6 1.8-8.2-0.3-12.1-2.1-4-1.9-6.8 0.6-9 1.2-1 3-3.7 4.1-5.9l1.9-4-0.6 11c-0.3 6-1.5 17.1-2.6 24.5-1.8 12.4-5.2 63.6-4.3 65.2 0.2 0.3-2 3.1-4.9 6.2-4.7 5-5.7 5.6-9.2 5.6-5 0-10.2-3.1-11.1-6.6-1.1-4.3 1.5-49.7 3.6-63.7 1.1-7.1 2.5-21.5 3-32 0.6-10.6 1.9-26.4 3-35.2 2.1-17.9 2.6-28.2 4-76.5 0.6-18.4 1.7-44.5 2.6-58s2-41.6 2.4-62.5c0.5-20.9 1.1-40 1.5-42.5 4.3-32.2 4.4-34.7 5.5-110 1-64.7 1.4-76.5 3.1-89.5 1.9-13.9 2-18.4 1.4-62-0.6-39-1-49-2.6-59-1-6.6-1.9-14.3-1.9-17 0-2.8-0.7-7.5-1.5-10.5-2.5-9-4.4-19.5-5-27.1-0.3-3.9-1-9.1-1.6-11.6-0.5-2.5-1.2-8.8-1.6-13.9l-0.6-9.3 10.4-0.4c5.7-0.1 11.6-0.4 13.2-0.5l2.7-0.2v9.4zm-81.3-2.2c1.2 1.2 3.3 4.5 4.6 7.3 2.3 4.7 19 56.5 18.4 57.1-0.1 0.2-2.1 0.6-4.2 0.9l-4 0.7-12.2-28.4c-12.3-28.3-13.4-31.9-11.2-37.5 1.8-4.9 4.1-5 8.6-0.1zm-52.2 1.5c1.7 2.1 8.1 10.8 14.2 19.3 6.2 8.5 12.5 16.8 14 18.5 6.3 6.9 18.5 28 19.8 34.3 0.4 1.8 1.3 4.5 2 6s3.9 13.7 7 27.2c3.1 13.7 8.4 33.1 12 44 17.9 54.2 24.6 89.6 27 143 0.8 16.8 1.4 39.7 1.5 51 0 21.5-2.7 60.3-5.5 77-2.9 17.7-9.4 72.4-11.4 95.5-1.1 12.6-2.7 36.7-3.6 53.5s-1.8 32.1-2.1 34.1c-0.6 3.5-0.7 3.6-3.4 2.6-2.3-0.9-3.7-0.7-7 0.8-6.3 2.8-9 6.6-9 12.6 0 2.7-0.4 4.9-1 4.9-1.3 0-1.3 1.6 1-40.5 2.7-49.6 8.6-107.3 14.6-144.5 4.8-29 6.4-77 4.4-128.5-1-27.2-1.6-34.2-5-56.5-2.2-14-4.6-28.7-5.4-32.6-2.4-11.5-10.2-38.3-17.6-60.9-3.7-11.6-7.4-23.7-8-27-4.1-20.5-10.4-44.1-14.4-53.7-5.1-12.4-3.9-10.5-25.1-38.8-8.9-11.8-17.4-23.4-18.8-25.7-3-4.8-2.6-5.7 4.2-9.3 2-1 5.4-3.7 7.6-5.9 2.2-2.1 4.2-3.9 4.5-4s1.9 1.6 3.5 3.6zm29.9-1.6c4.9 3.8 8.5 10.6 20.2 37.6 6.4 14.7 11.8 27.3 12.1 28 0.4 1-5.2 3.3-8.3 3.3-0.6 0-2.3-3-3.7-6.8-1.6-4-6.2-11.6-11.5-18.7-9.4-13-14.4-23.2-16.2-33.6-2-10.6 1.2-14.7 7.4-9.8zm179.6 5.9c1.6 6 0.1 12.4-9.1 39-4.5 12.9-8.3 23.7-8.5 23.8-0.1 0.2-3.1-0.3-6.6-1.1l-6.3-1.4 0.3-4.9c0.3-5 12.2-40.6 16.1-48.3 3.2-6.1 7.9-11.1 10.7-11.1 1.9 0 2.5 0.8 3.4 4zm22 1.6c2 1.2 6.1 3 9.1 3.9l5.5 1.7-0.3 4.2c-0.8 9.7-4.8 26.3-10.9 45.1-3.6 11-6.9 21.8-7.4 24s-2.3 10.1-4 17.5-5.3 26.1-8.1 41.5c-8 45-9.7 52.9-15.4 73.5-7.4 27.1-10.2 48.8-11 86-0.4 15.1-1.3 34.5-2.1 43-2.3 25.1-3.4 39.8-3.9 52-0.3 6.3-1.2 20.3-2 31s-1.7 31-2 45-0.8 28.3-1.1 31.8l-0.6 6.2-2.8-3c-3.6-3.8-6.6-3.8-11.8 0-5.4 3.9-6.5 6.2-6 12.2 0.3 2.7 0.1 5.1-0.5 5.5-1.1 0.6-0.5-14.3 1.3-36.7 0.5-6.3 0.9-18.5 1-27 0-8.5 0.5-21.8 1-29.5s1.9-28.6 3-46.5 2.7-39.5 3.6-48 1.9-29.9 2.4-47.5c1-40.4 3.7-61.1 11.1-87.5 5.2-18.3 8.1-32.1 14.9-70.5 8.2-46 11.4-59.4 21-89 3.3-9.9 6.6-22.3 7.5-27.5 2.4-14.5 2.5-15.1 3.8-14.3 0.7 0.3 2.8 1.7 4.7 2.9zm-237.3 38.9c11 14.8 20.8 28.7 21.6 30.8l1.6 3.7-3.2 1.3c-3.8 1.6-1.3 4.5-22-25.4-16.5-23.8-20.7-31.2-20.7-36.9 0-4.4-1.7-6.3 22.7 26.5zm285.7-23.4c1.4 5.8-2.2 15.6-16.1 43.3-6.9 13.8-12.7 25.2-12.8 25.4-0.2 0.2-3.5-1.3-7.4-3.2l-7.1-3.6 13.1-26.3c14.1-28.2 17.5-33.6 22.9-37.3 4.5-3.1 6.3-2.7 7.4 1.7zm-69.3 19c-3.2 10.1-6.7 20.9-7.6 24-1.3 4.8-1.9 5.6-3.5 5.2-1.1-0.3-2-0.8-2-1.2 0-2.2 18.6-50.2 18.8-48.5 0.2 1.2-2.4 10.4-5.7 20.5zm41.9-15.9c0 4.2-3.9 19.3-4.7 18.4-0.8-0.7 3-22.6 3.9-22.6 0.4 0 0.8 1.9 0.8 4.2zm-293.9 5.7c2.4 1.5 6.9 5.5 9.9 8.7 6.7 7.1 37.4 43.2 37.8 44.4 0.2 0.5-2.8 2.5-6.6 4.4l-7 3.5-16.4-19.1c-8.9-10.6-18.2-21.6-20.5-24.5-4.7-6-8.7-15.5-7.8-18.4 0.9-2.8 5.3-2.4 10.6 1zm335.9 12.2c1.5 2.6-0.1 10.2-3.4 16.7-2.1 4.1-23.3 40.2-24.1 41-0.2 0.2-10.5-5.9-12.3-7.3-1-0.8 19.1-36 24.7-43.4 3.2-4.2 9.8-9.1 12.2-9.1 1 0 2.3 0.9 2.9 2.1zm-365 12.6c2.5 0.9 15 7.6 27.8 15 18.6 10.9 24 14.5 27.2 18.3 2.2 2.6 4 5 4 5.2 0 0.5-9.8 6.8-10.5 6.8-0.2 0-12-6.8-26.2-15.1-25-14.5-32.8-20.2-35.9-26.1-1.9-3.7-1.8-4.7 0.9-5.7 2.6-1 6.5-0.5 12.7 1.6zm391.8 1.2c0.6 3.7-2.6 10.7-7.7 17.1-10.3 12.8-12.9 15-27.1 22.6-7.5 4.1-14.2 7.4-14.9 7.4-5.2 0 28-40.2 38.9-47.2 5.6-3.6 10.3-3.5 10.8 0.1zm-207.9 24.8c1.8 12 2.2 20 2.7 59.8 0.6 42.7 0.5 47.2-1.4 63-1.8 14.8-2.2 26.8-3.2 91.5-0.8 54.9-1.5 77.3-2.6 85-2.5 18.1-2 16.7-5.4 16.2-3-0.4-3-0.5-2.5-5.6 3-29.9 3.1-45.8 1-95.1-1.5-33.9-4.3-58.4-10.1-88-2.3-11.7-9.5-37-17.4-61-6.6-20.3-18.7-69.5-17.6-71.4 1.2-1.8 37.6-7.6 50.7-8l3.6-0.1 2.2 13.7zm57.1-9.6c10.6 1.8 26.5 5.5 28.1 6.5 0.4 0.2-0.4 5.5-1.7 11.6-1.3 6.2-4.2 21.4-6.5 33.8-7.9 44.6-11.1 59.8-16.4 79-7.5 26.8-10.4 49.6-11.1 85.5-0.3 14.3-1.4 35.9-2.5 48-2 23.4-3.9 49.6-3.9 55.6v3.6l-6.1 0.7c-3.4 0.4-6.3 0.6-6.4 0.4-0.2-0.2 0.5-6.6 1.6-14.3 1.6-11.9 2.1-25.8 3.4-93 1.1-61.2 1.8-81.4 3.1-89.5 2.2-14.5 1.4-106.7-1-120-0.9-4.7-1.6-9.1-1.6-9.7 0-1.5 3.6-1.1 21 1.8zm-263.5 3.4c2.4 0.9 64.8 28.7 65.4 29.2 0.6 0.4-8.7 8.8-11.4 10.3-1.7 0.9-6.4-0.9-29.8-11.5-15.4-6.9-29.5-13.7-31.5-14.9-9.8-6.3-13.1-13.5-6.7-14.6 3-0.6 10.3 0.2 14 1.5zm440.9 0.1c2.2 0.8 2 3-0.5 7-2.9 4.8-9.1 9-29.4 19.9-9.9 5.3-20.7 11.2-24 13l-6.1 3.4-6.3-5.7-6.4-5.8 27.7-14.8c15.2-8.1 29.5-15.4 31.8-16.1 4.6-1.5 10.7-1.9 13.2-0.9zm-326 15.8c0.8 1.9 3.8 13.7 6.6 26.3 2.8 12.5 8.2 32.5 12 44.3 14.2 44.3 17.8 58.6 23 93 4.6 30.3 6.3 61.8 5.8 108l-0.3 28.5-2.5-0.3c-1.4-0.2-7.8-2.1-14.3-4.3-38.6-12.6-68.9-35.5-83.6-63.1-6.1-11.4-9.1-22.2-10.1-37.3-0.6-7.4-1.9-16-3-20-1.2-3.9-2.9-10.8-4-15.5-2.2-10.3-3-12.4-7.9-22-2.2-4.1-5.1-11.3-6.7-16-2.5-7.7-2.8-9.8-2.8-23s0.3-15.3 2.8-23c5.3-16.1 12.2-27.5 24.5-40.3 7.9-8.3 19.6-17.9 29.2-24 6.7-4.3 26.9-14.6 28.6-14.7 0.7 0 1.9 1.5 2.7 3.4zm224.4 6.6c11.6 6.2 27.2 18.2 36.8 28.2 12.7 13.2 19.6 24.5 25 40.8 2.5 7.7 2.8 9.8 2.8 23s-0.3 15.3-2.8 23c-1.6 4.7-4.4 11.6-6.4 15.5-4 8.1-6.6 15.7-8.1 23.8-0.6 3.1-1.5 6.5-2 7.5-2.1 4-4.2 15.1-5.1 27-1 14.8-4 25.6-10.1 37-11.3 21.3-31.9 39.8-59.4 53.5-8.5 4.2-26.5 11-27.3 10.3-0.2-0.3 0.7-13.9 2.1-30.3 1.6-18.1 2.8-39.8 3.1-55.3 0.6-34.1 3.4-55.5 11.1-83 3.8-13.6 7.7-32 12.9-60.7 6.8-37.1 11.9-62.7 13.1-66 0.5-1.5 2.3-0.8 14.3 5.7zm106.6 2c3.6 1.3 3.3 4.2-0.9 8.5-4.7 4.6-9.2 6.8-32.9 15.9l-19.8 7.6-3.9-4.3c-2.1-2.3-3.8-4.7-3.9-5.2 0-1.3 25.5-14.5 35-18.1 13.4-5 21.4-6.3 26.4-4.4zm-423.2 11.6c14.5 4.2 26.4 7.7 26.5 7.7 0.1 0.1-2.3 3.2-5.3 6.8l-5.5 6.6-22.7-6.7c-26.6-7.8-33.1-10.8-36.1-16.7-1.7-3.4 1.8-5.3 10.1-5.3 5.4 0 11.9 1.5 33 7.6zm438.7 19.7c1.3 0.7 2.9 2 3.5 3 1.5 2.4-2.4 5.8-9.8 8.6-4.4 1.6-44.2 8.1-49.9 8.1-1.2 0-10.2-13.8-9.4-14.6 0.1-0.1 11.5-1.9 25.2-3.8 25.5-3.6 35.1-3.9 40.4-1.3zm-446.4 5.7c8.8 0.6 16.8 1 17.8 1 1.6 0 1.3 0.9-1.9 6.7-2 3.8-4.2 7.3-4.8 7.9-1.5 1.6-40.3-0.9-47.3-3.1-5.9-1.8-11.5-5.9-10.7-8 1.5-3.7 13.2-6.5 24.4-5.8 3.6 0.2 13.7 0.8 22.5 1.3zm458.3 18.5c5.6 2.3 6.8 4.6 3.9 7.2-5.6 5.1-10.4 6.1-41 7.8-13.8 0.8-25.2 1.3-25.2 1.2-0.1-0.1-1.3-3.7-2.6-8l-2.5-7.7 2.5-0.1c1.4 0 11.8-0.7 23.1-1.4 24.3-1.6 36-1.3 41.8 1zm-449.8 3.8c0 0.8-4 16-4.3 16.2-0.1 0.1-10.9 0.7-23.9 1.3-25.1 1.1-32.6 0.5-38.2-3.1-3.3-2.2-3.3-4 0.1-6.6 5-4 12.3-5.2 38.6-6.6 13.9-0.7 25.8-1.3 26.5-1.4 0.6 0 1.2 0.1 1.2 0.2zm419.5 20.1c32.8 2.6 38.9 3.8 44.1 8.7s-3.1 8.9-18 8.8c-9.8 0-55.4-3.3-56-4-0.3-0.4-1.6-15.9-1.3-15.9 0.1 0 14.2 1.1 31.2 2.4zm-424.5 8.9v8.3l-23.2 3.7c-24.8 4-34.8 4.6-40.2 2.3-4.8-2-5.2-3.3-2-6.7 4.4-4.6 12.1-6.8 39.4-11.4 14-2.4 25.6-4.3 25.8-4.4 0.1 0 0.2 3.6 0.2 8.2zm246.8 325.2c-0.1 0.2-1.6 0.1-3.1-0.2-2-0.4-2.5-0.8-1.6-1.4 1.2-0.7 5.6 0.8 4.7 1.6zm-2.8 7.9c0 0.8-0.4 1.7-0.9 2.1-1.2 0.7-2.4-1.2-1.6-2.5 0.9-1.5 2.5-1.2 2.5 0.4zm5.9 23.8c0 7.4-0.4 11.3-0.8 9.8-0.5-1.4-1.4-3.5-2.2-4.7-1.1-1.8-1-3.3 0.5-9.7 1-4.2 2-7.6 2.2-7.6s0.4 5.5 0.3 12.2zm-9.9-2.7c0 0.8-0.7 1.5-1.5 1.5s-1.5-0.7-1.5-1.5 0.7-1.5 1.5-1.5 1.5 0.7 1.5 1.5zm3.9 12.5c2.7 5.2 2.7 6.6-0.1 4-1.2-1.1-2.5-2-2.9-2-0.3 0-1.9-1-3.5-2.3l-2.9-2.2 3.5-0.6c1.9-0.4 3.6-0.7 3.6-0.8 0.1 0 1.1 1.7 2.3 3.9zm-9.5 6.7c-0.4 1.5-1.5 3.9-2.6 5.2-1.8 2.4-1.8 2.3-1.8-5.8v-8.3l2.5 3.1c2 2.3 2.4 3.6 1.9 5.8zm8.9 5.6c0.6 4.2-0.2 6.7-2.2 6.7-3.9 0-4.8-2.9-3-9.3 1-3.7 1.1-3.8 2.9-2.2 1 0.9 2 3 2.3 4.8zm-11.3 19.7c0.1 14.3 2.9 21 8.2 19.7 3.1-0.8 5.5-5 7.8-13.9l1.9-7.3 0.1 25c0.1 13.7 0.3 25.9 0.6 27 1.8 8.5 0.7 10.5-5.8 11.2-3.2 0.4-5.8 0-9-1.5l-4.5-1.9-1-7.9c-1.2-9.3-0.5-62.3 0.8-60.3 0.5 0.8 0.9 5.2 0.9 9.9zm14-5.3c0 0.5-0.7 3.8-1.4 7.5-1.5 7-4 12.8-5.6 12.8-1.5 0-3-7-3-13.7v-6.2l3.8-0.4c2-0.2 4.3-0.4 5-0.5 0.6-0.1 1.2 0.1 1.2 0.5zm-99.9 30c1.2 1.5 1.2 1.6-0.4 1-1-0.4-2.3-0.7-2.8-0.7-0.6 0-0.7-0.5-0.4-1 0.9-1.5 2.1-1.2 3.6 0.7zm-3.1 8.8c0 0.8-0.4 1.5-0.9 1.5-1.3 0-2.2-1.6-1.4-2.4 1.1-1.1 2.3-0.6 2.3 0.9zm47.5 11.5c0.4 0.6-0.7 1-2.7 1-2.5 0-2.9-0.3-1.8-1 1.9-1.3 3.7-1.3 4.5 0zm-44.6 12.4c-0.7 5.8-1.6 10.6-2.1 10.6-0.4 0-0.8-1-0.8-2.3s-0.5-2.8-1.2-3.5c-0.8-0.8-0.4-3 1.7-8.7 1.5-4.2 3-7.4 3.2-7.1 0.3 0.3-0.1 5.2-0.8 11zm-9.9-3.9c0 0.8-0.7 1.5-1.5 1.5-1.6 0-2-1.2-0.8-2.3 1.1-1.2 2.3-0.8 2.3 0.8zm53 1c0 0.8-0.4 1.5-0.9 1.5-1.3 0-2.2-1.6-1.4-2.4 1.1-1.1 2.3-0.6 2.3 0.9zm-49.5 15.8c0.6 2.2 0.1 2-4.5-2.2l-5.1-4.6 3.3-0.5c2.8-0.5 3.5-0.2 4.5 2.1 0.7 1.4 1.5 3.8 1.8 5.2zm-11.6-2.9c1.1 1.9 1 2.8-0.3 5.4-2.4 4.6-4.1 5.2-3.3 1.2 0.4-1.8 0.7-4.5 0.7-6.1 0-3.5 1.2-3.7 2.9-0.5zm7.1 6.5c2.2 4.2 0.9 11.1-2 11.1-3.5 0-4.3-2.5-2.5-8 1.8-5.4 2.8-6.1 4.5-3.1zm56 1.5c0 0.8-0.4 1.7-0.9 2.1-1.2 0.7-2.4-1.2-1.6-2.5 0.9-1.5 2.5-1.2 2.5 0.4zm-1.1 10.8c0.9 0.3-0.8 1.7-4.2 3.5-6.3 3.4-7 2.9-3.1-2.2 2-2.6 3-3.3 4.3-2.6 0.9 0.4 2.3 1 3 1.3zm-53.9 7.1c0 4.4-7 19.7-9 19.7-1.4 0-2.2-7.6-1.5-14.5l0.7-6.5h4.9c3.4 0 4.9 0.4 4.9 1.3zm3.4 13.8c-0.8 6.8-1.9 15.9-2.4 20.1-0.9 8.9-4.6 16.6-9.7 20.5-3.1 2.4-3.4 2.5-5.8 0.9-5.7-3.8-5.8-4.4-3.3-26.7 2-17.6 2.4-19.6 2.9-14.9 1 9.2 3.6 11.8 9 8.9 2.3-1.2 8.6-13.5 9.5-18.7 0.4-1.8 0.8-3.1 1-2.9 0.3 0.2-0.3 6-1.2 12.8zm48.1-7.9c0.6 4.4 0.5 5.4-1.1 6.5-3.1 2.3-4.9 1.2-4.8-2.9 0.1-3.7 2.6-8.8 4.3-8.8 0.5 0 1.2 2.3 1.6 5.2zm-4.9 14.9c5.1 1.3 5.4 2.6 2.9 12.4-1.6 6.1-3.2 8.8-4.5 8-1.6-1-4.9-21.5-3.5-21.5 0.3 0 2.6 0.5 5.1 1.1z" fill="#000000" stroke="#000000" stroke-width="0.5" stroke-miterlimit="10" />
    </g>
    <g id="pt">
        <path id="path444" d="m340.68 648.35c-0.449-1.169 0.727-2.391 1.53-1.588 0.649 0.649 0.159 2.477-0.665 2.477-0.288 0-0.678-0.4-0.865-0.889z" fill="#ffffff" stroke="#ffffff" stroke-width=".56731" stroke-miterlimit="10" />
        <path id="path394" d="m220.07 860.81c-3.335-2.209-4.135-4.201-3.975-9.897 0.124-4.433 2.91-30.429 3.305-30.843 0.11-0.115 0.351 0.523 0.536 1.418 1.69 8.153 4.071 10.311 8.724 7.905 2.4-1.242 5.993-7.198 8.91-14.771 0.725-1.881 1.33-2.985 1.345-2.454 0.071 2.448-3.54 30.612-4.312 33.639-0.478 1.872-1.495 4.73-2.261 6.35-1.591 3.366-5.849 8.346-8.156 9.538-1.454 0.752-1.736 0.692-4.116-0.885z" fill="#ffffff" stroke="#ffffff" stroke-width=".56731" stroke-miterlimit="10" />
        <path id="path396" d="m225.34 824.28c-0.639-1.681-0.766-11.413-0.209-16.051l0.358-2.978h3.562c4.413 0 5.357 0.345 5.357 1.957 0 2.867-5.783 16.341-7.693 17.927-0.642 0.533-0.911 0.365-1.375-0.855z" fill="#ffffff" stroke="#ffffff" stroke-width=".56731" stroke-miterlimit="10" />
        <path id="path398" d="m229.86 796.74c-1.407-1.407-1.407-1.835 2e-3 -6.396 1.503-4.866 2.438-5.649 3.757-3.146 1.307 2.479 1.326 7.206 0.037 9.173-1.177 1.796-2.263 1.902-3.796 0.369z" fill="#ffffff" stroke="#ffffff" stroke-width=".56731" stroke-miterlimit="10" />
        <path id="path402" d="m223.92 784.54c0.225-2.808 0.525-5.301 0.664-5.54 0.393-0.671 1.233 0.056 2.177 1.881 0.762 1.474 0.763 1.885 0.011 3.685-0.466 1.114-1.39 2.713-2.055 3.553l-1.208 1.527z" fill="#ffffff" stroke="#ffffff" stroke-width=".56731" stroke-miterlimit="10" />
        <path id="path404" d="m234.25 780.81c-2.102-1.897-3.822-3.684-3.822-3.972 0-0.287 1.158-0.522 2.574-0.522 2.488 0 2.606 0.08 3.598 2.411 1.014 2.386 1.942 5.532 1.632 5.532-0.088 0-1.88-1.553-3.982-3.449z" fill="#ffffff" stroke="#ffffff" stroke-width=".56731" stroke-miterlimit="10" />
        <path id="path408" d="m242.36 779.03c-9e-3 -0.847-0.432-2.41-0.939-3.474-0.89-1.866-0.86-2.115 0.86-7.252 2.286-6.826 2.878-7.775 2.89-4.63 0.012 3.268-1.652 14.947-2.282 16.024-0.394 0.672-0.516 0.518-0.529-0.668z" fill="#ffffff" stroke="#ffffff" stroke-width=".56731" stroke-miterlimit="10" />
        <path id="path410" d="m240.16 747.2c-0.515-0.621-0.473-0.958 0.188-1.506 0.694-0.576 0.918-0.531 1.217 0.246 0.509 1.327-0.557 2.282-1.405 1.26z" fill="#ffffff" stroke="#ffffff" stroke-width=".56731" stroke-miterlimit="10" />
        <path id="path414" d="m242.77 737.91c-0.546-0.143-0.992-0.496-0.992-0.786 0-0.842 2.063-0.605 2.836 0.326 0.754 0.908 0.304 1.021-1.844 0.46z" fill="#ffffff" stroke="#ffffff" stroke-width=".56731" stroke-miterlimit="10" />
        <path id="path418" d="m232.46 767.3c-0.436-0.706 1.196-1.946 1.948-1.481 0.443 0.273 0.43 0.611-0.044 1.183-0.761 0.917-1.455 1.025-1.904 0.298z" fill="#ffffff" stroke="#ffffff" stroke-width=".56731" stroke-miterlimit="10" />
        <path id="path420" d="m285.46 758.16c1.118-0.722 3.404-0.722 3.404 0 0 0.312-0.957 0.564-2.127 0.559-1.583-8e-3 -1.91-0.15-1.277-0.559z" fill="#ffffff" stroke="#ffffff" stroke-width=".56731" stroke-miterlimit="10" />
        <path id="path424" d="m286.11 768.19c-0.515-0.621-0.473-0.958 0.188-1.507 0.694-0.576 0.918-0.531 1.217 0.247 0.508 1.326-0.557 2.282-1.405 1.26z" fill="#ffffff" stroke="#ffffff" stroke-width=".56731" stroke-miterlimit="10" />
        <path id="path426" d="m288.09 790.1c-0.701-0.701-0.353-2.443 0.489-2.443 0.468 0 0.851 0.496 0.851 1.102 0 1.184-0.748 1.933-1.34 1.341z" fill="#ffffff" stroke="#ffffff" stroke-width=".56731" stroke-miterlimit="10" />
        <path id="path428" d="m279.79 804.22c0-0.644 2.93-4.7 4.077-5.644 1.035-0.852 4.61 0.148 4.286 1.199-0.253 0.82-8.363 5.13-8.363 4.445z" fill="#ffffff" stroke="#ffffff" stroke-width=".56731" stroke-miterlimit="10" />
        <path id="path430" d="m281.6 818.75c-1.483-1.483-0.389-7.358 1.855-9.956l1.348-1.561 0.577 1.508c0.317 0.829 0.748 3.022 0.957 4.873 0.362 3.202 0.305 3.426-1.177 4.591-1.771 1.394-2.587 1.518-3.56 0.545z" fill="#ffffff" stroke="#ffffff" stroke-width=".56731" stroke-miterlimit="10" />
        <path id="path432" d="m279.02 843.96c-0.998-3.556-2.629-13.588-2.634-16.204-2e-3 -1.251 0.212-1.537 0.989-1.319 0.546 0.154 1.887 0.457 2.979 0.674s2.687 0.753 3.545 1.192c1.372 0.701 1.559 1.12 1.551 3.477-0.018 4.841-3.183 14.773-4.874 15.292-0.347 0.107-1.045-1.29-1.556-3.112z" fill="#ffffff" stroke="#ffffff" stroke-width=".56731" stroke-miterlimit="10" />
        <path id="path434" d="m337.16 726.53c-0.975-1.82-1.777-7.658-1.777-12.928v-5.207l2.979-0.357c1.638-0.197 3.709-0.36 4.603-0.363 1.614-5e-3 1.622 0.012 1.225 2.657-1.054 7.027-4.554 17.194-5.919 17.194-0.318 0-0.818-0.448-1.111-0.996z" fill="#ffffff" stroke="#ffffff" stroke-width=".56731" stroke-miterlimit="10" />
        <path id="path436" d="m337.58 698.52c-1.031-1.03-1.155-1.63-0.859-4.148 0.486-4.136 1.411-6.558 2.364-6.192 1.215 0.466 3.103 4.861 3.103 7.223 0 4.132-2.143 5.582-4.608 3.117z" fill="#ffffff" stroke="#ffffff" stroke-width=".56731" stroke-miterlimit="10" />
        <path id="path438" d="m339.45 682.32c-2.583-1.745-4.489-3.371-4.237-3.613 0.253-0.243 1.608-0.526 3.011-0.629l2.552-0.188 1.898 3.587c1.044 1.973 1.801 3.684 1.684 3.801s-2.326-1.214-4.908-2.958z" fill="#ffffff" stroke="#ffffff" stroke-width=".56731" stroke-miterlimit="10" />
        <path id="path440" d="m346.87 677.45c-1.595-3.7-1.582-5.1 0.108-11.478l1.353-5.106 0.051 9.786c0.028 5.382-0.012 9.782-0.09 9.777-0.078-6e-3 -0.718-1.346-1.422-2.979z" fill="#ffffff" stroke="#ffffff" stroke-width=".56731" stroke-miterlimit="10" />
        <path id="path442" d="m329.14 686.58c0-3.796 0.106-6.796 0.235-6.666 2.005 2.022 3.736 4.957 3.736 6.336 0 1.746-2.65 7.232-3.494 7.232-0.262 0-0.477-3.106-0.477-6.902z" fill="#ffffff" stroke="#ffffff" stroke-width=".56731" stroke-miterlimit="10" />
        <path id="path448" d="m336.91 669.29c-0.779-0.779-0.375-1.983 0.603-1.795 0.546 0.105 0.993 0.549 0.993 0.987 0 0.896-1.001 1.403-1.596 0.808z" fill="#ffffff" stroke="#ffffff" stroke-width=".56731" stroke-miterlimit="10" />
        <path id="path452" d="m341.34 638.46c-0.42-0.68 1.253-0.68 2.837 0 0.956 0.411 0.85 0.494-0.676 0.528-0.996 0.022-1.968-0.216-2.161-0.528z" fill="#ffffff" stroke="#ffffff" stroke-width=".56731" stroke-miterlimit="10" />
        <path id="path474" d="m227.68 748.1c-0.248-3.957 3.153-59.465 5.03-82.109 2.502-30.183 5.719-58.963 10.145-90.769 5.519-39.656 6.659-61.816 5.867-114.03-0.722-47.569-1.281-55.127-6.584-89.067-4.11-26.302-7.191-38.728-19.13-77.154-4.944-15.913-11.004-37.612-13.467-48.221-5.259-22.654-11.37-41.938-15.855-50.025-1.761-3.176-11.129-16.451-20.816-29.5-22.079-29.74-21.486-28.661-17.361-31.629 1.764-1.269 5.848-4.421 9.076-7.003l5.869-4.695 19.744 26.525c28.596 38.418 29.33 39.974 41.155 87.25 3.433 13.729 9.375 34.918 13.204 47.087 17.323 55.061 22.534 86.718 25.027 152.04 1.684 44.108 0.243 73.383-5.779 117.43-7.277 53.235-10.831 89.912-14.174 146.3-0.997 16.812-2.015 30.895-2.263 31.296-0.248 0.402-1.938 0.512-3.755 0.245-6.957-1.021-13.908 5.049-15.038 13.131-0.409 2.925-0.811 4.23-0.895 2.899z" fill="#ffffff" stroke="#ffffff" stroke-width="1.1346" stroke-miterlimit="10" />
        <path id="path476" d="m276.89 758.41c0.294-4.398 1.314-29.161 2.266-55.028 0.953-25.868 2.219-55.201 2.814-65.186 0.595-9.984 1.634-37.045 2.31-60.134 0.766-26.163 2.072-49.463 3.467-61.837 1.751-15.535 2.48-33.436 3.352-82.26 1.112-62.285 2.291-92.075 4.584-115.81 1.744-18.053-0.473-97.394-3.358-120.19-1.185-9.36-2.946-20.338-3.913-24.394-1.57-6.587-5.471-34.803-6.783-49.072l-0.496-5.389h12.752 12.752l0.647 19.004c0.514 15.101 1.237 21.298 3.516 30.166 1.577 6.139 3.204 14.308 3.615 18.154s1.47 9.801 2.352 13.233c0.883 3.433 2.084 15.431 2.67 26.664 1.337 25.653 1.342 84.764 7e-3 95.308-0.553 4.368-1.555 28.875-2.227 54.461-3.075 116.99-3.381 124.46-5.716 139.56-1.835 11.866-2.501 24.511-3.402 64.673-0.616 27.458-1.38 51.965-1.698 54.461-0.317 2.497-1.359 26.494-2.315 53.327-1.663 46.702-3.355 75.242-4.529 76.417-0.302 0.301-0.549-0.382-0.549-1.519 0-2.742-8.554-10.792-11.468-10.792-5.011 0-8.289 3.442-10.266 10.779-0.597 2.216-0.731 0.614-0.383-4.594z" fill="#ffffff" stroke="#ffffff" stroke-width="1.1346" stroke-miterlimit="10" />
        <path id="path478" d="m269.79 903.14-3.688-2.248v-12.717c0-20.266 5.153-77.301 5.569-61.634 0.437 16.477 3.821 26.097 9.181 26.097 4.015 0 6.55-4.647 9.285-17.02 2.533-11.461 2.999-19.655 1.498-26.351-0.672-2.999-0.286-4.294 2.141-7.179l2.961-3.519v4.911c0 2.701-0.991 13.59-2.202 24.197-1.211 10.608-2.837 30.106-3.613 43.328l-1.411 24.04-5.031 5.176c-5.696 5.86-8.842 6.485-14.69 2.919z" fill="#ffffff" stroke="#ffffff" stroke-width="1.1346" stroke-miterlimit="10" />
        <path id="path480" d="m272.99 802.15c-0.044-2.808 0.534-11.998 1.285-20.423l1.366-15.317 1.993 8.509c2.494 10.652 2.609 18.037 0.329 21.292-0.966 1.379-2.461 4.428-3.324 6.776l-1.567 4.269z" fill="#ffffff" stroke="#ffffff" stroke-width="1.1346" stroke-miterlimit="10" />
        <path id="path482" d="m330.07 638.2c0.316-1.872 1.14-17.955 1.832-35.74 1.397-35.917 4.921-95.521 7.442-125.88 0.903-10.887 2.159-33.352 2.79-49.924 1.977-51.899 3.317-62.323 13.064-101.61 3.407-13.728 9.532-43.049 13.613-65.156 7.986-43.266 11.282-57.545 19.158-83.01 5.474-17.698 9.091-31.54 10.351-39.612 0.439-2.809 1.01-5.466 1.269-5.906 0.26-0.44 2.84 0.458 5.733 1.997 2.894 1.538 7.236 3.389 9.65 4.112l4.388 1.315-0.733 5.197c-1.393 9.884-5.147 24.574-11.855 46.385-7.579 24.644-11.952 44.12-20.431 90.996-3.217 17.785-8.303 42.037-11.302 53.894-10.028 39.644-10.912 46.108-13.113 95.875-0.924 20.905-2.426 46.434-3.339 56.731-2.319 26.179-6.027 91.176-6.861 120.27-0.384 13.417-0.961 25.325-1.282 26.463-0.532 1.89-0.752 1.914-2.555 0.283-3.982-3.604-11.357-1.423-16.901 4.996-1.274 1.476-1.409 1.23-0.918-1.675z" fill="#ffffff" stroke="#ffffff" stroke-width="1.1346" stroke-miterlimit="10" />
        <path id="path484" d="m334.02 772.35c-4.095-1.626-4.378-4.13-4.194-37.145 0.112-20.178 0.371-25.096 0.945-17.94 0.885 11.028 3.029 15.671 7.235 15.671 3.457 0 5.95-2.898 8.38-9.739l1.981-5.579 0.59 26.096c0.325 14.353 0.179 26.99-0.323 28.082-1.05 2.282-9.457 2.6-14.614 0.554z" fill="#ffffff" stroke="#ffffff" stroke-width="1.1346" stroke-miterlimit="10" />
    </g>
</svg>
