<svg id="svg783" width="75" height="75" version="1.0" viewBox="0 0 556 798" xmlns="http://www.w3.org/2000/svg">
    <g id="outlines">
        <path id="path757" d="m100 26.8c-14.6 4.9-26.4 17.9-29.9 33.2-1.4 5.9-1.4 20.5 0 27.2 1.5 7.4 7.9 20.3 13.3 26.8 2.5 3 4.6 5.8 4.6 6.2s-1.1 7.1-2.5 14.8c-1.7 9.7-4.7 21-9.6 35.8-8.5 26-9.7 31.3-20 87.2-5.6 30.6-9.6 49.4-13.5 63.5-7.8 28-10.9 52.4-11.8 91-0.4 15.4-1.6 37.4-2.6 49-1.1 11.5-2.4 29.3-3 39.5s-1.7 27.7-2.5 39c-0.7 11.3-1.7 32.4-2 47s-1.3 32.3-2 39.5c-1.9 18-2.3 122.4-0.5 134.3 1.5 9.8 2.8 11.5 10.9 13.9 7.5 2.1 15.8 1.2 18.8-2.2 3.2-3.7 4.2-8.3 3-14.1-0.6-2.9-1.2-25.2-1.4-53.9-0.3-39-0.1-52.1 1.2-64 0.8-8.3 1.5-18.2 1.5-22v-7l49.1-53.5c27-29.4 51.3-55.9 54-58.9l4.9-5.3 7 6.6c3.9 3.6 7.4 6.6 7.8 6.6 0.7 0 16.2-52.2 15.7-52.8-0.2-0.3-50.7 18.8-51.5 19.5-0.3 0.3 2.8 3.6 6.9 7.3l7.5 6.8-3 3.4c-5.4 6.6-96.8 105.8-97.4 105.8-0.7 0-0.2-18 1-37 0.5-8.5 1.7-26.3 2.5-39.5s2.4-33.9 3.4-46c1.1-12.1 2.2-33.9 2.5-48.5 0.8-36.6 3.8-59.4 11.2-85.5 3.4-12 7.4-30.2 10.9-49.5 13.1-71.5 14.8-79.1 26.5-114.5 2.9-8.8 9-36.7 9-41.2 0-0.2 1.7-0.3 3.8-0.3 38 0 58.7-41.3 39.4-78.5-5.5-10.7-16.6-21.3-27.7-26.7-8.3-4-9.2-4.2-19.4-4.5-8.3-0.2-11.8 0.1-16.1 1.5zm33.3 9c6.5 3.2 9.9 5.7 15 11.1 27.6 29.3 18 74.7-17 81.1-23.4 4.2-48.9-15.6-55.3-42.9-1.8-7.6-0.8-22.1 2-29.1 4.3-10.9 12.7-19.2 23.3-23.1 4.1-1.5 7.2-1.9 14.4-1.6 8.4 0.3 9.8 0.6 17.6 4.5zm-34 91.6c3.1 1.8 7.7 3.9 10.2 4.6s4.5 1.8 4.5 2.4c0 4.6-5.5 30.8-8 38.1-11.4 33.6-14.4 46.4-26.5 113.5-3.9 21.2-7.5 37.7-11.1 50.5-7.7 26.9-11 52.3-11.9 91-0.3 15.4-1.3 34.7-2.1 43-2.5 26.1-6.5 89.2-7.1 111.9l-0.6 21.8-4.1 4.8c-2.8 3.4-4.9 4.9-6.7 4.9-1.4 0.1-4.4 1.7-6.8 3.7l-4.2 3.7 0.5-5.9c0.3-3.3 0.8-17.6 1.1-31.9s1.2-35.2 2-46.5 1.9-28.6 2.5-38.5 1.9-27.5 3-39c1-11.6 2.1-32.9 2.5-47.5 0.8-37.5 3.7-59.3 11.5-88 3.4-12.4 7.8-32.2 10.5-47 12-66.4 14.2-76.3 22.5-102 5.6-17.3 8.6-28.4 10.1-37.8 1.2-7.2 2.3-13.2 2.4-13.2 0.2 0 2.8 1.5 5.8 3.4zm-59.8 491.6c0.8 1.3-1.5 1.3-3.5 0-1.2-0.8-1.1-1 0.7-1 1.2 0 2.5 0.4 2.8 1zm6.2 3.2c-0.3 0.7-0.5 0.2-0.5-1.2s0.2-1.9 0.5-1.3c0.2 0.7 0.2 1.9 0 2.5zm-8.5 7c-1.5 1.5-2.6 0.4-1.8-1.8 0.5-1.3 0.9-1.5 1.8-0.6s0.9 1.5 0 2.4zm-12.5 4c-0.3 0.7-0.5 0.2-0.5-1.2s0.2-1.9 0.5-1.3c0.2 0.7 0.2 1.9 0 2.5zm19.1 16-1.2 12.5-1.9-3.8c-1.7-3.6-1.8-4.1-0.3-10.1 1.7-6.7 3.7-12.1 4.2-11.6 0.2 0.2-0.2 6-0.8 13zm-10.8-0.2c0 1.1-0.4 2-0.9 2-1.4 0-2.3-1.8-1.6-3 1-1.7 2.5-1.1 2.5 1zm4.8 13.6c1.3 2.6 2 4.9 1.7 5.2s-0.5 0-0.5-0.5c0-0.6-2.4-2.6-5.2-4.4-5.1-3.1-5.2-3.3-2.8-4 4.2-1.2 4.5-1 6.8 3.7zm-10.1 5.9c-0.6 1.6-1.8 4.1-2.9 5.4-1.8 2.4-1.8 2.3-1.8-6.3v-8.6l2.9 3.2c2.5 2.8 2.7 3.6 1.8 6.3zm8.1 2.6c1.4 2.8 1.2 9.1-0.4 9.6-0.6 0.2-2.1-0.4-3.2-1.4-1.9-1.6-2-2.2-1.1-6.6 1.2-5.2 2.6-5.6 4.7-1.6zm-10.5 23.6c0.5 13.3 2.4 17.8 7.1 17.8 3.9 0 6.5-3.7 8.7-12.2l1.8-6.8v30.6c0.1 25 0.4 31.3 1.6 34.3 3.7 8.7-2.7 13.7-13.5 10.6-1.9-0.6-4.1-1.4-4.8-1.8-2.7-1.8-3.8-17.8-3.4-52.7 0.3-33.2 1.4-42.2 2.5-19.8zm12.2 2.4c-1.9 7.4-3.7 11.5-5 11.2-1.5-0.2-3.3-8.1-3.4-14.5l-0.1-5.7 4.8-0.3c5.7-0.4 6 0.4 3.7 9.3z" fill="#000000" stroke="#000000" stroke-width="0.5" stroke-miterlimit="10" />
        <path id="path759" d="m241.7 295.6c-20.1 3.6-40.9 15.8-53.6 31.6-6.6 8.2-13.6 21.7-16.3 31.5-2.9 11.2-3 28.9 0 39.6 6.9 24.6 24.5 44.1 48.5 53.7 21.5 8.6 47.9 8.4 69.9-0.5 20.4-8.3 38.3-25.2 47.2-44.7 5.3-11.4 7-19.6 7-33.3 0-14.2-2.2-23.5-8.4-35.4-11.7-22.5-34.8-38.8-61.1-43-8.7-1.5-23.7-1.2-33.2 0.5zm38.8 8.9c8.5 2.4 19.6 7.7 27 13 20.5 14.6 31.9 40.3 28.6 64.2-2.8 20.1-12.6 37.2-28.5 49.9-23.3 18.6-55.5 23.8-82.8 13.3-39.7-15.3-57.9-57.9-40.7-95.7 9.8-21.8 31.4-39.1 55.7-44.6 3.7-0.9 7.6-1.8 8.7-2 4.1-1 26.2 0.4 32 1.9z" fill="#000000" stroke="#000000" stroke-width="0.5" stroke-miterlimit="10" />
        <path id="path761" d="m240.6 323.1c-7.1 1.7-17.4 7.9-22.9 13.8-17.1 18.5-20.5 46.4-8.6 71 3.2 6.6 5.8 10.1 11.8 16 12.4 12.4 23.6 16.8 40.8 15.9 8.2-0.5 10.3-1 16.6-4.1 13.5-6.7 22.1-16.9 27.3-32.4 3.3-9.7 3.7-25 1.1-35.3-2.3-8.6-7.6-19.2-13.2-26.2-5.7-7.1-17.4-15.1-26.1-17.8-7.1-2.1-19.6-2.6-26.8-0.9zm24.6 9c34.2 11.5 46.8 59 22.9 86-12 13.7-31.1 17.8-47.4 10.1-22.4-10.4-35.1-38.3-28.9-63 1.2-4.6 3.5-10.7 5.2-13.6 3.3-5.9 11.8-14.4 17.1-17.1 9.4-5 21-5.8 31.1-2.4z" fill="#000000" stroke="#000000" stroke-width="0.5" stroke-miterlimit="10" />
        <path id="path763" d="m502.2 561.7 0.3 33.8h3.5 3.5l0.3-33.8 0.2-33.7h-4-4l0.2 33.7z" fill="#000000" stroke="#000000" stroke-width="0.5" stroke-miterlimit="10" />
        <path id="path765" d="m525.2 561.7 0.3 33.8h3.5 3.5l0.3-33.8 0.2-33.7h-4-4l0.2 33.7z" fill="#000000" stroke="#000000" stroke-width="0.5" stroke-miterlimit="10" />
        <path id="path767" d="m138.5 549c-6 2-9.5 6.6-9.5 12.6 0 5.7 2.9 9 10.9 12.6 10.7 4.8 13.1 8.1 9.3 12.8-2.6 3.2-8.8 3.7-14.7 1.1-6.2-2.7-6.5-2.7-6.5 0.9 0 4.7 4.6 7 14 7 11.4 0 17-4.5 17-13.8 0-5.7-3-8.8-12.5-13.2-7.9-3.6-9.5-5.1-9.5-8.9 0-4.7 9.2-6.8 15.4-3.6 1.5 0.8 3.2 1.2 3.7 0.9 1.8-1.1 0.9-5.4-1.5-6.9-3-2-12-2.8-16.1-1.5z" fill="#000000" stroke="#000000" stroke-width="0.5" stroke-miterlimit="10" />
        <path id="path769" d="m188.5 548.7c-1.1 0.3-3.9 1.8-6.2 3.4l-4.2 2.9-0.3-2.7c-0.2-2.3-0.8-2.9-3.5-3.1l-3.3-0.3v32 32.1h3.5 3.5v-11c0-6.1 0.2-11 0.6-11 0.3 0 2.2 1.1 4.2 2.5 2.9 2 4.9 2.5 9.7 2.5 7.6 0 12.3-2.9 15.6-9.7 2-4.1 2.4-6.3 2.4-14.8 0-8.8-0.3-10.5-2.5-14.5-3.8-6.9-11.8-10.2-19.5-8.3zm7.6 7.9c5.6 2.8 8.2 13.6 5.5 22.7-2 6.8-5.2 9.7-10.8 9.7-3.1 0-4.7-0.8-8.3-4.1l-4.5-4.2v-8.1c0-8.1 0-8.2 3.8-11.8 5.8-5.7 9.4-6.8 14.3-4.2z" fill="#000000" stroke="#000000" stroke-width="0.5" stroke-miterlimit="10" />
        <path id="path771" d="m234.6 549.2c-5 1.4-10.8 7.2-12.4 12.4-1.7 5.8-1.5 18.7 0.3 23.1 3.5 8.3 9 11.3 20.7 11.2 4.6 0 9.9-0.5 11.8-1.2 2.9-1 3.6-1.7 3.8-4.5 0.4-3.7-0.1-3.8-7.2-1.7-12.4 3.8-20.9-0.2-22.3-10.4l-0.6-4 31.8-0.6-0.1-6.7c-0.1-11.2-5.9-17.6-16.8-18.3-2.8-0.2-6.8 0.1-9 0.7zm14.4 8.5c2 1.8 3.3 4.1 3.7 6.5l0.6 3.8h-12.2c-13.5 0-13.6-0.1-10.5-6.6 3.2-6.8 12.8-8.7 18.4-3.7z" fill="#000000" stroke="#000000" stroke-width="0.5" stroke-miterlimit="10" />
        <path id="path773" d="m288.5 549c-1.1 0.4-3.1 2-4.4 3.4-3.2 3.4-4.1 3.3-4.1-0.4 0-2.8-0.3-3-3.5-3h-3.5l0.2 23.2 0.3 23.3h3.5 3.5l0.3-15.1 0.3-15.2 4.1-4.7c4.1-4.7 4.2-4.7 9-4.1l4.8 0.7v-3.5c0-5-4.7-7-10.5-4.6z" fill="#000000" stroke="#000000" stroke-width="0.5" stroke-miterlimit="10" />
        <path id="path775" d="m323.5 549.9c-2.2 1-4.6 2.5-5.4 3.4-2 2.5-3.1 2.1-3.1-1.3 0-2.8-0.3-3-3.5-3h-3.5l0.2 23.2 0.3 23.3h3.5 3.5l0.5-16.2c0.5-15.3 0.6-16.3 2.9-18.7 1.3-1.4 3.9-3.2 5.8-4.1 2.9-1.4 4-1.5 6.4-0.4 4.8 1.9 5.4 4 5.9 22.4l0.5 17h3.5 3.5l0.6-32 3.1-3.2c6.1-6.3 11.6-6.6 15.4-0.7 1.5 2.1 1.9 5.7 2.2 19.5l0.5 16.9h3.3 3.4v-18.9c0-17.9-0.1-19-2.3-22.2-5.2-7.8-14-8.8-22.5-2.5l-5 3.6-1.7-2.6c-1.9-2.9-7.1-5.4-11.2-5.4-1.5 0-4.6 0.9-6.8 1.9z" fill="#000000" stroke="#000000" stroke-width="0.5" stroke-miterlimit="10" />
        <path id="path777" d="m420.7 549.5c-4.8 1.7-8.3 4.8-11 10-1.6 3.2-2.1 5.9-2.1 13-0.1 10.7 2.2 16.8 7.5 20.6 3 2.1 4.5 2.4 11.9 2.4 7.3 0 9-0.3 11.8-2.3 2.5-1.9 3.2-3 3.2-5.8 0-4.1-0.8-4.2-5.6-0.9-4 2.7-10.9 3.4-14.6 1.4-3-1.6-5.8-8.6-5.8-14.9 0-12 3.8-17.5 12-17.5 3.5 0 5.7 0.6 8 2.3 3.7 2.8 6 2.3 6-1.2 0-6.6-11.8-10.6-21.3-7.1z" fill="#000000" stroke="#000000" stroke-width="0.5" stroke-miterlimit="10" />
        <path id="path779" d="m462.7 549.4c-7.7 2.8-12.1 9.4-13.3 19.7-1.4 11.7 3.3 22.2 11.3 25.5 4 1.7 18.5 1.7 23.3 0 2.9-1.1 3.6-1.8 3.8-4.6 0.3-3 0.1-3.2-2-2.7-11.4 2.6-13.7 2.9-17.1 2.3-5.8-1.1-9.8-5.2-10.4-10.9l-0.6-4.7h15.6c17.8 0 17.5 0.1 16.2-8.8-0.9-6.2-4.1-11.8-8.2-14.3-4.3-2.7-13.5-3.4-18.6-1.5zm14.6 7.6c2.2 1.7 4.7 7.2 4.7 10.2 0 0.5-5.4 0.8-12 0.8-11.4 0-12-0.1-12-2 0-2.9 2.6-7.6 5.2-9.4 3.3-2.3 10.9-2.1 14.1 0.4z" fill="#000000" stroke="#000000" stroke-width="0.5" stroke-miterlimit="10" />
    </g>
    <g id="sc_invitro">
        <path id="path791" d="m247.89 430.15c-18.071-5.075-32.49-22.089-36.156-42.664-3.955-22.197 6.721-44.836 25.235-53.511 4.931-2.31 6.666-2.598 15.666-2.598 9.83 0 10.339 0.108 17.744 3.752 18.993 9.347 30.075 29.193 28.964 51.872-0.543 11.111-2.619 17.508-8.575 26.426-9.329 13.97-27.477 21.049-42.878 16.723z" fill="#ffffff" stroke="#ffffff" stroke-width=".95914" stroke-miterlimit="10" />
        <path id="path793" d="m241.71 448.9c-34.351-6.252-58.575-30.218-62.967-62.296-0.597-4.355-0.808-10.36-0.471-13.345 3.533-31.255 24.839-56.258 57.051-66.95 7.622-2.53 9.181-2.706 23.978-2.705 13.875 0 16.708 0.275 22.985 2.232 24.919 7.767 42.955 24.736 50.606 47.61 2.22 6.637 2.573 9.292 2.613 19.662 0.054 13.794-1.741 21.155-8.19 33.596-9.934 19.161-29.734 34.448-52.188 40.293-8.628 2.246-26.073 3.24-33.417 1.903zm30.125-10.185c11.451-3.369 23.009-12.724 28.92-23.407 12.069-21.811 10.615-48.001-3.859-69.519-14.465-21.504-43.527-30.349-64.886-19.748-28.303 14.047-38.47 50.208-23.086 82.106 3.54 7.34 5.422 9.857 12.327 16.487 12.244 11.754 20.929 15.436 36.677 15.551 5.337 0.038 10.711-0.53 13.907-1.47z" fill="#ffffff" stroke="#ffffff" stroke-width=".95914" stroke-miterlimit="10" />
    </g>
</svg>
