<svg id="svg82" width="75" height="75" version="1.0" viewBox="0 0 811 750" xmlns="http://www.w3.org/2000/svg">
    <g id="outlines">
        <path id="path50" d="m382.2 36c-90.8 7.2-171.2 42.5-233 102.5-47.4 45.9-78.7 101.8-91.6 163.3-4.7 22.4-6 35.9-6 62.7s1.3 40.3 6 62.7c20.5 97.9 88.6 181.9 185.4 228.7 40.3 19.4 78.4 30.3 124.5 35.7 20.8 2.5 65.2 2.5 86 0 46.1-5.4 84.2-16.3 124.5-35.7 36.4-17.6 65.4-37.8 93.8-65.4 47.4-45.9 78.7-101.8 91.6-163.3 4.7-22.4 6-35.9 6-62.7s-1.3-40.3-6-62.7c-18.3-87.5-75-164.5-157.2-213.7-45.1-27-97.5-44.4-152.2-50.6-16.4-1.9-56.3-2.7-71.8-1.5zm72.3 14.4c103.1 13.1 190.8 63.7 247.4 142.8 35.4 49.6 55.1 110.8 55.1 171.3 0 95.1-46.3 184.1-127.5 245-50.9 38.2-111.8 61.8-180 69.7-14.4 1.7-63.6 1.7-78 0-97.8-11.3-182.1-55.9-239.6-126.7-80-98.3-90.1-230.9-26-338.8 25.9-43.5 64.7-82.9 109.3-110.6 45.3-28.4 103.2-48 155.8-53 6.3-0.6 13.1-1.3 15-1.5 8-0.9 57.2 0.4 68.5 1.8z" fill="#000000" stroke="#000000" stroke-width="0.5" stroke-miterlimit="10" />
        <path id="path52" d="m421.3 152.5c-15.9 3.6-31.3 12.9-46.5 27.9-8.4 8.3-10.9 13.7-14.3 30.1-1.5 7.2-3.4 14.4-4.2 16.2-1.7 3.6-4.3 5-5.5 2.9-0.4-0.8-1.6-1.2-2.7-0.9-2.2 0.6-4.8-0.7-20-9.9-20.7-12.4-45.9-17.8-73.9-15.7-40.7 3-57.3 9.5-80.6 31.9-10.9 10.4-16.4 17.5-22.1 28.3-5.9 11.1-7.5 18.2-7.5 34.7s1.6 26.9 8 51.6c8.1 31.5 13.5 43.9 23.6 53.9 11.8 11.9 32.6 17.8 66.9 19.2 19.7 0.7 37-0.8 47.2-4.2 9-3.1 24-10.6 35.3-17.7l8.5-5.4 0.1 14.6c0 13.1 0.3 15.3 2.8 23 12.4 37.6 49.1 73 96.7 93.3 50.8 21.6 102.9 23.5 139.9 5 10-5 12.6-6.8 20-14.3 9.9-9.8 15-19 17.6-31.1 2-9.4 1.3-24.6-1.6-34.7-4.4-15.5-14.9-33.3-28.2-47.7l-7.4-8 1.3-5.5c2.1-9.2 6.2-39.9 7.8-57.7 1.7-19 1.9-42.3 0.5-53.1-2.7-21-10.7-47.5-20.1-67.1-18-37.4-35.9-51.3-75.9-58.6-13-2.4-56.7-3.1-65.7-1zm68.4 9.9c28.6 6.1 42.2 14.6 55.6 34.7 10.3 15.6 19.6 38.3 25.7 63 4.4 17.9 5.4 28.7 4.7 49.9-0.6 16.7-3 43.6-4 44.6-0.2 0.2-0.7-6.7-1-15.5-0.7-19.3-1.9-23.1-7-23.1-4 0-5.1 1.1-13.7 13.8-9.9 14.6-13.6 18.2-24.2 23.5l-9.4 4.8-6.5-2.9c-3.5-1.6-10.9-4.4-16.3-6.2l-9.9-3.3 6.9-1.7c32.3-8.2 56.3-31.5 65-63 2.5-8.9 2.4-28.9 0-37.9-7.9-29-31.3-51.2-62.3-58.8-10.4-2.5-31.3-2.3-42.7 0.5-30.8 7.7-55.8 30.3-64.5 58.5-6.5 21.2-3.9 44.3 7.1 63.2 5.1 8.7 19.1 22.7 27.7 27.7l6.3 3.6-4.4 0.5c-8.9 1-27.4 3.7-29.3 4.2-1.6 0.5-2.5-0.4-4.8-4.4-2.8-5.1-6.9-9.1-9.3-9.1-0.8 0-1.3-0.3-1.3-0.8 0.5-2.8-0.2-4-2.2-3.5-1.6 0.4-2 1.2-1.6 2.9 0.2 1.4-0.2 2.9-1 3.6-2.4 2-5 7.9-6.8 15.8-1.7 7.2-2 7.7-6.7 10.9-5.9 4.1-13.9 12.7-17.4 18.8-4.6 7.8-37 27.8-54.4 33.7-26.7 8.9-83.1 4.2-101.5-8.4-8.1-5.6-14.7-15.6-19.7-29.9-3.2-9.4-11.7-43-13.3-53.1-1.8-11.1-2-29.6-0.4-37.2 1.5-7.3 6.8-18 12.8-26 10.7-14.1 28.4-29.3 40.9-35 19.3-8.8 58.8-12.6 81.8-7.9 16.8 3.5 24.7 6.6 39.6 15.6 7.6 4.6 15.2 8.6 16.9 9s3.3 1.3 3.6 2.1c0.7 1.9 3.9 1.8 4.7-0.1 0.3-0.8 1.2-1.5 1.9-1.5 2.2 0 6.6-3.8 8.3-7.2 0.8-1.6 2.9-9.1 4.5-16.6 3.8-17.8 6.1-22.5 15.5-30.9 13.1-11.7 22.1-17.3 34.5-21.2 9.5-3 9.5-3 35.4-2.6 21.3 0.3 25.4 0.6 36.2 2.9zm3.3 30.5c25.8 6.8 45 24.2 52.9 47.8 8.3 24.7 2.4 50.5-16.3 70.9-26.8 29.4-73.4 35.8-106 14.4-30.9-20.3-41.4-57.7-25.5-90.3 16.4-33.8 57.9-52.5 94.9-42.8zm70.6 168.6 0.7 26-3.7-2.9c-6.6-5-18.9-13.2-26.3-17.5-4-2.3-7.3-4.4-7.3-4.6s2.7-1.8 6-3.6c8.9-4.7 13-8.8 21.1-20.6l7.4-10.8 0.6 4c0.4 2.2 1.1 15.7 1.5 30zm-182-19.3c1.8 3.5 1.9 3.3-3 5.3l-3.9 1.6 0.6-2.8c1-4.9 2.7-8.4 3.7-7.8 0.6 0.3 1.7 2 2.6 3.7zm79.4 0.7c78.9 13.7 146.2 70.8 148.7 126.1 0.9 17.6-4.4 32.3-16 44.7-16.4 17.5-40.5 26.8-72.7 28-59.7 2.3-126-27.4-162.5-72.7-32.4-40.2-31.2-85.2 3-109.5 12.9-9.3 32.1-16.2 51-18.4 11.5-1.4 35.1-0.5 48.5 1.8z" fill="#000000" stroke="#000000" stroke-width="0.5" stroke-miterlimit="10" />
        <path id="path54" d="m245.1 231.5c-21.2 4.6-40.7 16.3-53 31.8-6.7 8.3-13.7 22.3-16.2 32.6-1.8 7-2.1 10.6-1.7 21.5 0.4 11.4 0.8 14.2 3.5 21.8 9.6 27.5 33 47.2 63.2 53.3 10.2 2.1 31.2 1.6 40.6-0.9 21.5-5.8 41.4-19.4 52.7-35.9 9.2-13.4 13.6-26.4 14.5-42.2 2.2-39.2-25.5-73.6-65.9-81.9-9.5-2-28.8-2-37.7-0.1zm37.9 8.5c35.3 8.4 60.1 40 57.7 73.5-2.4 31.4-24.1 58.2-55.7 68.3-11.1 3.6-18.3 4.5-30.3 3.9-29.5-1.5-53.3-16.3-65.7-40.9-10.4-20.7-9.2-46.2 3.1-67 17.7-30 56.2-46 90.9-37.8z" fill="#000000" stroke="#000000" stroke-width="0.5" stroke-miterlimit="10" />
        <path id="path56" d="m243.5 259.4c-7.8 2.5-15 6.9-21.1 13-25.1 25.2-20.1 72.6 9.9 93.6 9 6.4 16.3 9.1 26.2 9.7 15.1 1 27.4-3.6 38.1-14.2 17.5-17.5 21.3-46.3 9.4-71-6.8-14.3-20.2-26.3-33.9-30.5-7.4-2.3-22.2-2.6-28.6-0.6zm31.8 10.9c8.9 4.4 18.7 14.2 23 23 3.6 7.4 6.7 19.6 6.7 26.1-0.1 12.1-5.3 26.5-12.7 34.7-16.8 18.6-43.4 18.3-61.9-0.6-21.2-21.6-21.3-57.8-0.2-77.2 8.7-7.9 15.8-10.4 28.4-10 8.3 0.3 9.9 0.7 16.7 4z" fill="#000000" stroke="#000000" stroke-width="0.5" stroke-miterlimit="10" />
        <path id="path58" d="m352.3 244.7c-1.8 0.7-1.6 3.2 0.2 3.9 2.1 0.8 3.4-0.3 2.8-2.6-0.5-2.1-0.9-2.2-3-1.3z" fill="#000000" stroke="#000000" stroke-width="0.5" stroke-miterlimit="10" />
        <path id="path60" d="m354.7 252.8c-1.2 0.2-1.6 0.9-1.3 1.9 0.3 0.8 0.6 1.7 0.6 1.9s0.9 0.4 2 0.4c2 0 2.6-1.6 1.2-3.5-0.4-0.6-1.5-0.9-2.5-0.7z" fill="#000000" stroke="#000000" stroke-width="0.5" stroke-miterlimit="10" />
        <path id="path62" d="m356.9 260.7c-2.3 0.6-1.2 4.3 1.2 4.3 1.2 0 1.9-0.7 1.9-1.9 0-2.3-0.8-2.9-3.1-2.4z" fill="#000000" stroke="#000000" stroke-width="0.5" stroke-miterlimit="10" />
        <path id="path64" d="m359.3 268.7c-2 0.8-1.6 4.3 0.5 4.3 2.5 0 3.1-0.7 2.5-3.1-0.5-2-0.9-2.1-3-1.2z" fill="#000000" stroke="#000000" stroke-width="0.5" stroke-miterlimit="10" />
        <path id="path66" d="m361.7 276.8c-1.1 0.2-1.7 1.1-1.5 2 0.4 2 4.8 3 4.8 1 0-2.2-1.4-3.4-3.3-3z" fill="#000000" stroke="#000000" stroke-width="0.5" stroke-miterlimit="10" />
        <path id="path68" d="m363.7 284.8c-1.2 0.2-1.6 0.9-1.3 1.9 0.3 0.8 0.6 1.7 0.6 1.9s0.9 0.4 2 0.4c1.3 0 2-0.7 2-1.9 0-2.3-0.8-2.9-3.3-2.3z" fill="#000000" stroke="#000000" stroke-width="0.5" stroke-miterlimit="10" />
        <path id="path70" d="m366.3 292.7c-2.2 0.8-1.5 4.3 0.7 4.3 1.3 0 2-0.7 2-1.9 0-2.2-0.9-3-2.7-2.4z" fill="#000000" stroke="#000000" stroke-width="0.5" stroke-miterlimit="10" />
        <path id="path72" d="m368.7 300.8c-2.5 0.5-1.7 3.6 1.1 4 1.2 0.2 2.2 0 2.1-0.5-0.2-2.3-1.6-3.8-3.2-3.5z" fill="#000000" stroke="#000000" stroke-width="0.5" stroke-miterlimit="10" />
        <path id="path74" d="m370.7 308.8c-1.2 0.2-1.6 0.9-1.3 1.9 0.3 0.8 0.6 1.7 0.6 1.9s0.9 0.4 2 0.4c2 0 2.6-1.6 1.2-3.5-0.4-0.6-1.5-0.9-2.5-0.7z" fill="#000000" stroke="#000000" stroke-width="0.5" stroke-miterlimit="10" />
        <path id="path76" d="m372.9 316.7c-2.3 0.6-1.2 4.3 1.2 4.3 1.2 0 1.9-0.7 1.9-1.9 0-2.3-0.8-2.9-3.1-2.4z" fill="#000000" stroke="#000000" stroke-width="0.5" stroke-miterlimit="10" />
        <path id="path78" d="m454.6 209.6c-18.6 4.5-34.5 21.1-39.2 41-2.1 8.9-1.4 23.5 1.5 31.7 5.1 14.6 15.5 26.7 28.2 33 9.2 4.5 14.2 5.7 24.4 5.7 15.5 0 26.2-4.5 37.1-15.4 12.1-12.1 17.2-26 16.1-43.9-0.7-11.5-3.5-19.7-9.9-29.2-12.7-19.1-36.1-28.3-58.2-22.9zm23.9 7.9c22.3 5.9 37.7 27.6 36.2 51-1.1 18-10.6 32.3-26.3 40.1-17.1 8.5-37.7 4.5-51.9-10-19.2-19.6-19.2-50.1-0.1-69.2 11.6-11.5 26.9-15.8 42.1-11.9z" fill="#000000" stroke="#000000" stroke-width="0.5" stroke-miterlimit="10" />
    </g>
    <g id="mpg">
        <path id="path119" d="m499.7 540.36c-1.24-0.214-5.905-0.834-10.367-1.38-11.273-1.377-33.16-7.089-45.523-11.881-46.001-17.828-81.369-47.027-98.518-81.333-6.386-12.774-7.953-18.853-8.512-33.015-0.432-10.942-0.267-13.007 1.513-18.93 8.095-26.931 33.197-45.007 70.781-50.97 12.294-1.951 39.247-1.249 53.216 1.386 52.002 9.81 100.96 38.638 126.55 74.525 6.986 9.795 14.704 25.42 17.363 35.15 3.014 11.03 2.835 27.19-0.41 36.997-5.892 17.809-20.921 32.757-41.257 41.033-13.753 5.596-27.381 8.04-47.259 8.472-8.429 0.184-16.339 0.159-17.578-0.054z" fill="#ffffff" stroke="#ffffff" stroke-width=".90144" stroke-miterlimit="10" />
        <path id="path117" d="m447.87 335.25c-20.495-4.994-39.865-20.386-49.034-38.964-4.866-9.861-6.375-16.846-6.392-29.586-0.014-11.519 2.222-21.551 6.867-30.801 10.32-20.554 32.856-37.668 56.084-42.592 9.077-1.923 26.937-1.672 36.031 0.508 13.887 3.33 26.875 10.602 36.422 20.394 6.682 6.853 9.182 10.264 12.936 17.648 5.179 10.186 7.077 18.498 7.058 30.911-0.018 11.896-1.347 18.331-5.824 28.205-9.75 21.503-34.076 40.246-58.234 44.868-9.762 1.868-26.985 1.584-35.914-0.591zm34.233-14.8c9.795-2.075 15.282-5.317 24.38-14.403 12.787-12.771 16.631-22.045 16.631-40.124 0-17.86-4.824-30.296-16.107-41.528-10.858-10.808-21.461-15.741-35.926-16.714-16.505-1.11-28.676 3.606-40.806 15.811-12.511 12.589-16.181 21.8-16.185 40.629-3e-3 11.951 1.179 17.322 5.952 27.043 4.173 8.497 15.18 19.819 23.502 24.176 11.475 6.007 25.531 7.869 38.559 5.11z" fill="#ffffff" stroke="#ffffff" stroke-width=".90144" stroke-miterlimit="10" />
        <path id="path115" d="m457.28 309.84c-19.346-6.595-31.837-22.343-33.757-42.559-2.401-25.274 19.14-50.03 43.533-50.03 19.953 0 38.751 14.749 44.727 35.094 1.767 6.015 1.878 19.523 0.211 25.753-5.089 19.023-23.886 33.854-42.813 33.781-3.782-0.015-8.169-0.766-11.901-2.039z" fill="#ffffff" stroke="#ffffff" stroke-width=".90144" stroke-miterlimit="10" />
        <path id="path113" d="m232.42 413.65c-19.331-1.828-37.674-6.8-45.856-12.429-7.819-5.38-14.648-16.043-19.418-30.321-2.463-7.375-9.856-35.887-12.844-49.538-0.743-3.394-1.188-11.787-1.196-22.536-0.013-17.031 3e-3 -17.165 2.741-23.909 7.002-17.243 24.482-37.051 43.435-49.218 12.178-7.818 28.591-12.06 53.668-13.871 28.306-2.043 51.036 2.926 72.87 15.932 4.655 2.772 11.384 6.444 14.953 8.159 3.57 1.715 6.966 3.692 7.548 4.392 1.492 1.799 3.885 1.58 5.794-0.529 0.897-0.992 2.1-1.803 2.673-1.803 1.573 0 6.441-5.078 7.562-7.888 0.544-1.363 2.385-8.237 4.092-15.274 4.296-17.705 6.539-22.326 14.521-29.909 11.855-11.26 22.122-17.794 35.154-22.371l7.212-2.533 24.555 0.155c25.795 0.162 32.028 0.752 46.537 4.402 16.9 4.253 28.607 10.375 37.904 19.821 13.886 14.109 27.842 43.174 35.692 74.33 4.456 17.687 4.951 21.876 4.951 41.917 0 21.548-2.147 51.091-3.276 45.072-0.372-1.983-0.702-6.445-0.734-9.916-0.078-8.652-1.492-16.591-3.314-18.604-1.967-2.174-5.817-2.141-8.631 0.073-1.225 0.963-5.232 6.135-8.905 11.493-9.076 13.239-14.771 18.768-25.062 24.332l-8.456 4.572-5.517-2.478c-3.034-1.362-9.912-4.017-15.284-5.899l-9.769-3.423 7.966-2.362c10.277-3.047 18.56-6.958 26.796-12.652 20.718-14.322 34.705-37.201 36.515-59.73 0.863-10.731-0.165-25.292-2.23-31.602-8.619-26.337-30.456-46.785-58.619-54.891-6.238-1.795-9.12-2.046-23.343-2.028-18.884 0.023-25.833 1.423-39.774 8.013-11.124 5.258-18.414 10.328-26.55 18.465-10.579 10.578-16.48 20.133-21.201 34.323-2.409 7.241-2.549 8.531-2.549 23.438 0 14.877 0.144 16.211 2.535 23.437 1.395 4.215 3.927 10.329 5.628 13.589 4.924 9.437 17.849 23.028 28.842 30.327l5.078 3.372-14.316 1.927c-7.873 1.061-15.318 2.084-16.543 2.273-1.829 0.284-2.737-0.43-5.08-3.994-3.628-5.519-6.644-8.732-8.196-8.732-0.67 0-1.614-1.042-2.098-2.316-1.286-3.381-4.824-2.729-5.235 0.964-0.166 1.488-0.827 3.313-1.469 4.057-2.12 2.454-3.864 6.662-5.906 14.25-1.993 7.405-2.084 7.545-8.137 12.435-5.946 4.804-10.163 9.379-15.738 17.074-1.487 2.053-4.124 4.96-5.859 6.46-11.52 9.959-42.424 26.754-54.087 29.395-14.122 3.197-31.934 4.019-50.03 2.307zm45.729-20.999c26.629-5.095 52.957-25.605 63.929-49.801 5.171-11.406 6.554-18.402 6.562-33.207 5e-3 -10.302-0.381-14.916-1.624-19.378-7.8-28.025-28.494-48.809-57.094-57.342-10.386-3.099-32.619-4.054-44.035-1.892-9.729 1.842-22.182 6.623-31.263 12.003-10.226 6.058-24.054 19.919-29.475 29.545-5.101 9.06-9.598 21.023-10.907 29.015-1.262 7.708-0.417 25.921 1.523 32.839 7.886 28.117 30.338 49.582 59.83 57.2 7.175 1.853 10.734 2.214 22.212 2.251 8.239 0.027 16.318-0.463 20.342-1.233zm98.051-74.09c0-1.674-0.483-2.157-2.157-2.157-2.646 0-3.648 2.179-1.835 3.992s3.992 0.812 3.992-1.835zm-2.248-5.771c1.12-1.812-0.534-4.499-2.771-4.499-1.696 0-2.192 0.477-2.192 2.104 0 1.156 0.27 2.373 0.601 2.704 0.915 0.915 3.728 0.717 4.362-0.309zm-1.82-8.086c0.882-1.426-1.328-4.66-2.969-4.344-1.905 0.367-2.55 3.408-0.939 4.429 1.625 1.03 3.241 0.995 3.908-0.085zm-3.143-9.934c0-2.118-0.398-2.705-1.832-2.705-2.02 0-3.155 1.959-2.35 4.057 0.286 0.743 1.343 1.352 2.35 1.352 1.434 0 1.832-0.587 1.832-2.704zm-1.969-7.88c-0.297-2.574-2.113-3.5-4.213-2.148-2.006 1.293-0.389 4.619 2.246 4.619 1.924 0 2.211-0.36 1.967-2.471zm-1.8-7.67c-0.385-2.715-5.246-3.536-5.246-0.886 0 2.261 0.755 2.914 3.368 2.914 1.731 0 2.108-0.408 1.878-2.028zm-2.542-8.367c0-2.792-2.341-3.876-4.249-1.968-1.909 1.909-0.824 4.25 1.968 4.25 1.84 0 2.281-0.441 2.281-2.282zm-2.704-8.085c0-1.802-0.451-2.253-2.253-2.253-1.585 0-2.254 0.491-2.254 1.652 0 2.09 0.765 2.855 2.855 2.855 1.161 0 1.652-0.669 1.652-2.254zm-2.253-7.674c0-1.639-0.546-2.319-2.033-2.53-2.452-0.348-3.619 1.973-1.982 3.944 1.689 2.036 4.015 1.216 4.015-1.414zm-2.403-8.05c0.372-2.546-0.862-3.904-2.855-3.139-1.75 0.672-2.03 4.53-0.376 5.192 1.892 0.757 2.915 0.107 3.231-2.053z" fill="#ffffff" stroke="#ffffff" stroke-width=".90144" stroke-miterlimit="10" />
        <path id="path111" d="m245.18 383.48c-3.889-0.702-10.177-2.318-13.972-3.591-20.85-6.99-37.336-23.53-44.943-45.09-2.327-6.597-2.51-8.116-2.486-20.642 0.024-12.402 0.233-14.119 2.524-20.734 4.207-12.148 9.084-19.753 19.074-29.745 10.285-10.287 18.98-15.693 32.452-20.179 24.382-8.118 48.573-5.154 69.411 8.504 12.498 8.192 21.996 19.903 28.477 35.11 3.069 7.202 3.073 7.232 3.07 21.635-4e-3 15.927-0.604 18.733-6.555 30.649-4.699 9.409-9.17 15.51-16.553 22.59-18.853 18.079-45.103 26.082-70.499 21.493zm32.681-9.282c15.174-4.723 29.422-20.863 33.872-38.371 1.725-6.783 1.766-23.244 0.078-31.205-3.533-16.665-15.994-33.741-30.073-41.211-8.879-4.71-14.169-5.773-27.086-5.44-11.276 0.29-11.671 0.37-18.496 3.746-18.093 8.951-29.158 26.4-30.111 47.482-0.952 21.041 4.974 37.447 18.36 50.833 6.5 6.5 13.892 11.342 21.086 13.814 7.915 2.719 24.195 2.896 32.37 0.352z" fill="#ffffff" stroke="#ffffff" stroke-width=".90144" stroke-miterlimit="10" />
        <path id="path109" d="m253.16 365.62c-2.479-0.615-6.738-2.259-9.465-3.653-6.587-3.368-17.721-14.695-21.462-21.835-8.23-15.71-8.558-35.622-0.826-50.229 3.613-6.827 13.174-16.569 19.142-19.506 3.76-1.849 6.11-2.264 14.311-2.521 11.533-0.363 15.77 0.605 22.946 5.244 23.512 15.196 32.391 46.905 19.767 70.59-9.326 17.497-27.021 26.226-44.413 21.91z" fill="#ffffff" stroke="#ffffff" stroke-width=".90144" stroke-miterlimit="10" />
        <path id="path121" d="m370.79 678.72c-33.702-4.055-72.218-13.939-102.13-26.208-79.779-32.73-143.91-93.06-177.69-167.16-36.773-80.662-34.979-172.36 4.9286-251.98 15.532-30.991 33.137-54.943 60.25-81.975 29.14-29.052 55.876-48.159 91.416-65.327 40.227-19.434 79.115-30.519 125.03-35.64 15.672-1.7482 20.316-1.8955 42.819-1.3579 29.234 0.6983 39.226 1.5016 57.241 4.6018 111.28 19.149 205.56 86.073 252.04 178.9 56.918 113.67 35.999 246.03-53.602 339.15-54.503 56.645-121.81 90.874-206.47 105-13.291 2.217-16.047 2.358-50.565 2.578-20.08 0.128-39.551-0.134-43.27-0.581zm171.49-136.93c12.884-2.504 21.7-5.531 33.296-11.431 8.578-4.365 10.528-5.842 18.034-13.661 9.203-9.589 13.892-17.266 16.618-27.21 1.927-7.028 2.146-24.408 0.422-33.353-3.167-16.427-15-37.276-31.01-54.637-5.26-5.704-5.666-6.431-4.979-8.915 1.152-4.168 4.982-30.635 7.044-48.678 2.443-21.369 3.294-49.314 1.895-62.199-3.214-29.596-15.788-65.668-31.108-89.243-13.841-21.301-31.337-32.47-60.018-38.314-18.347-3.739-61.643-4.458-74.354-1.234-18.27 4.633-45.457 24.612-52.173 38.341-1.368 2.795-4.133 11.834-6.144 20.086-3.97 16.286-5.668 19.744-8.769 17.855-1.017-0.62-2.774-1.127-3.905-1.127-1.13 0-6.307-2.469-11.505-5.486-23.483-13.63-35.548-17.727-58.32-19.804-17.641-1.609-47.641 1.408-63.811 6.417-25.292 7.835-54.942 35.016-65.277 59.841-3.879 9.318-4.893 17.361-4.325 34.302 0.512 15.298 1.604 22.303 6.553 42.058 9.573 38.217 16.436 52.52 30.146 62.828 13.042 9.806 36.538 14.699 70.763 14.737 20.048 0.022 31.616-1.399 41.413-5.087 7.433-2.797 23.152-10.832 32.506-16.614l7.211-4.459 0.595 14.567c0.688 16.825 1.984 22.06 8.897 35.935 25.387 50.956 89.816 90.195 158.63 96.609 9.445 0.88 32.188-0.279 41.678-2.124z" fill="#ffffff" stroke="#ffffff" stroke-width=".90144" stroke-miterlimit="10" />
        <path id="path123" d="m555.14 379.99c-4.462-3.196-12.27-8.321-17.352-11.389-5.082-3.067-9.235-5.824-9.229-6.125s2.541-1.936 5.634-3.634c7.1-3.898 14.101-10.939 20.908-21.026 2.927-4.339 5.597-7.888 5.933-7.888s0.863 4.361 1.171 9.69c0.85 14.715 1.808 46.2 1.404 46.191-0.195-4e-3 -4.006-2.623-8.469-5.819z" fill="#ffffff" stroke="#ffffff" stroke-width=".90144" stroke-miterlimit="10" />
        <path id="path127" d="m375.3 347.67c0-0.16 0.646-2.189 1.437-4.508 1.55-4.55 2.333-4.651 4.442-0.572 1.352 2.614 1.341 2.638-1.919 4-3.392 1.417-3.96 1.572-3.96 1.08z" fill="#ffffff" stroke="#ffffff" stroke-width=".90144" stroke-miterlimit="10" />
    </g>
</svg>
