<?xml version='1.0' encoding='utf-8'?>
<svg id="svg703" width="75" height="75" version="1.0" viewBox="0 0 1036 944" xmlns="http://www.w3.org/2000/svg">
    <g id="outlines">
        <path id="path669" d="m270.1 22.6c-13.2 3.5-26.6 13.6-32.5 24.4-11.6 21.3-4.4 47.2 17.1 61.6 3.2 2.1 5.9 3.9 6 3.9 0.2 0.1-0.6 1.9-1.7 4-1.1 2.2-2 5.3-2 6.9 0 3 0 2.9-2.9-1.5-4.7-7.5-9.5-10.2-14.6-8.3-2.4 1-4.3 5.5-4.7 11.3-0.3 5-0.4 5.1-1.8 2.9-7.9-12.2-17.2-14-20-4l-1 3.9-4.5-4.4c-3.8-3.6-5.2-4.3-8.5-4.3-5.8 0-7.5 3.1-7.4 12.9l0.2 7.5-2.1-3c-1.2-1.6-3.3-4.1-4.7-5.5s-4.4-5-6.6-8l-4.2-5.5 1.9-3.7c11.7-22.8 1.5-50.4-23.2-62.6-4.6-2.3-11.5-4.8-15.4-5.6-30.3-6.3-61 10.4-68 37-6.9 26.5 11.9 52.7 42.5 59.1 7.3 1.6 21 1.4 26.8-0.2 2-0.6 2.2-0.3 2.2 3.4 0 5 2.1 11 6.1 17.6l3.2 5.1-6.6-6.5c-7.2-7.3-13.7-11-18.9-11-5.4 0-7.3 2-7.2 7.7 0.1 8.4 5.7 17.1 25.8 40.2l2.1 2.4-3.5-2c-1.9-1.1-9-5.3-15.8-9.2-6.8-4-14.7-8.3-17.5-9.7-18.3-8.4-30.5-2.5-21.8 10.7 3.5 5.2 9.2 9.7 22.1 17.3 5.2 3.1 9.2 5.6 8.8 5.6-0.3 0-8-3.3-17-7.4-18.4-8.3-22.9-9.8-30.8-9.9-6.4 0-9.7 1.4-11 4.9-2.6 6.9 6.2 15.4 25.2 24.3 7.3 3.5 12.4 6.1 11.3 5.8-1.1-0.2-5.6-1.4-9.9-2.6-9-2.4-21.7-2.8-25.6-0.8-1.3 0.7-3.1 2.4-3.9 3.9-1.4 2.4-1.4 3 0.1 6.2 3.4 7 10.2 10.3 40.8 19.5l6.5 1.9-5 0.1c-2.7 0-10.8-0.4-18-0.9-26.1-1.8-40 3.5-35.2 13.4 2.2 4.8 9.9 8.3 21.7 10l9.5 1.4-8.7 0.1c-23.5 0.3-36.8 5.2-36.8 13.5 0 6.9 8.2 10.8 23.2 11 4.7 0.1 8.5 0.2 8.4 0.4-0.2 0.1-4.3 0.9-9.2 1.8-12 2-22.9 7.2-25.2 12-1.5 3.2-1.5 3.8-0.2 6.2 4.2 7.5 15.6 8.1 47.9 2.8 11.8-2 22-3.6 22.6-3.6 0.8 0 1 1.7 0.7 5.2-0.6 7.7 1.9 16 10.3 33.7 8 17.3 11.7 26.8 13.4 35.1 0.6 3 1.5 17.4 2 32 0.6 14.6 1.9 35 3 45.5 4 38.7 5 65.2 3.2 79.8l-0.7 5.8 4-0.3 4.1-0.3 0.6-6.5c1.6-16.1 0.2-46.2-4-86.5-1-9.9-1.8-18.1-1.7-18.2 0.1-0.2 2.9 3.9 6.1 9 11.6 18 33.3 36.6 56.4 48.1 10 5 24.1 10.4 36.6 14.1 4.9 1.4 9 2.7 9.2 2.8 0.6 0.7-1.9 25.3-4.2 41.2-7.3 50.3-11.6 92.2-14 137-2.3 43.8-4.3 69.1-7 89-8.1 59.6-8.2 61.1-5.9 66 2.1 4.5 7.1 8.4 11.6 9.1 3 0.5 4 0 8.5-4.1 6.7-6 10.1-12.9 11.3-23.1 0.5-4.3 1.8-15.8 2.9-25.4s3-24 4.1-32c2.6-18.5 5.5-54 7.5-91.3 2.4-45.8 8.3-103.8 14.5-142.4 1.1-6.7 2-13.8 2-15.8 0-3.2 0.3-3.5 2.8-3.5h2.7l-0.3 30.7c-0.1 17-1.1 46.5-2.2 65.8-1.1 19.2-2.4 51.4-3 71.5-1.1 42-1.4 46.3-4 70-1 9.6-2.2 24.2-2.5 32.5-0.4 8.2-1.7 22.2-3 31s-2.6 23.4-3 32.5c-0.3 9.1-1.1 20.4-1.6 25.3-1 9.7-0.4 12 4.8 16.9 9.6 9.1 23.9 5 31.1-8.8 0.6-1.2 1.6-12.4 2.2-25s2.2-31.2 3.5-41.4c1.4-10.2 2.9-27.3 3.5-38s1.8-24.4 2.6-30.4c1.4-11.1 2.8-38.8 3.9-78.6 0.3-12.4 1.5-37.6 2.6-56 1.1-19.2 1.9-46.3 1.9-63.5 0-16.5 0.3-31 0.6-32.1 0.5-1.8 1.6-2.3 6.6-2.8 3.3-0.4 6.2-0.5 6.5-0.2s0 6.9-0.6 14.8-1.3 26-1.6 40.3c-0.4 14.3-1.3 32.7-2 41-1.8 18.7-2.2 132.6-0.6 142 0.6 3.3 1.1 6.1 1.1 6.2s1.5 1 3.3 2.2c7.8 4.8 21 5 25 0.5 2.1-2.4 2.1-2.8 1.8-61.7l-0.3-59.3 93.4-28.3c51.3-15.7 94.1-28.5 95.2-28.5 1.4-0.1 2.4 1.7 4.5 8.6 1.5 4.8 2.9 9 3.3 9.3 0.3 0.3 9.5-7.8 20.3-18.1 13.5-12.9 19.3-18.9 18.3-19.4-1.9-1.1-51.8-9.3-52.4-8.7-0.3 0.3 0.7 4.6 2.2 9.6s2.5 9.3 2.3 9.5c-0.6 0.6-185.3 56.5-185.6 56.2-0.2-0.1 0.2-4.7 0.7-10.2 0.5-5.4 1-17.1 1-25.9 0-15.6 0.9-33.5 3.3-69.9l1.2-17.8 11-3.9c33.8-11.9 62.6-32.8 78.4-56.8 3.3-5.1 6.1-9.8 6.1-10.4s0.2-0.8 0.5-0.6c0.2 0.3-0.7 10.4-2.1 22.5-2.8 24-4.2 61.5-2.9 79.8l0.7 10.6h3.7 3.6l-0.3-28.8c-0.4-26.7-0.2-30.7 2.7-57.2 2-18.6 3.3-36 3.6-50 0.7-29.6 1.7-33.6 15-62.1 8.7-18.5 10.9-26 10.2-34.4-0.3-3.4-0.3-6.5 0.1-7.1 0.5-0.7 8.2-0.4 24.2 0.8 30.1 2.4 44.9 2.1 50.8-1 7.9-4.2 7.9-11-0.2-15.7-6.3-3.6-10.6-4.4-30.1-6.1-9.8-0.8-18-1.6-18.2-1.8s5.4-0.6 12.5-0.9c18.5-1 28.6-4.5 31.4-11.1 3.1-7.5-8.1-13.5-25.6-13.6l-6.1-0.1 5.2-1.8c13.7-4.7 17.9-14.7 8-19.1-7.3-3.2-14.6-3.4-34.6-0.6-10.2 1.4-18.6 2.4-18.7 2.3-0.2-0.2 5.6-2.5 12.9-5.2 20.5-7.8 29.1-14.5 28.5-22.5-0.4-4.9-5-7.2-13.4-6.8l-6 0.4 4.6-3.7c8.5-6.7 11.4-14.5 7-18.9-1.6-1.6-3.3-2-8-2-6.6 0-14 2.4-23.7 7.8-3.5 1.8-6.3 3.1-6.3 2.7s1.5-2.4 3.3-4.6c7.7-9 11.1-21.4 6.9-25.2-2.6-2.3-8.5-2.1-13.5 0.4-2.3 1.2-7.5 5.4-11.5 9.3l-7.3 7 2.5-4.5c5.3-9.5 6.8-21.6 3-25.4-2.6-2.5-8.6-1.9-13.1 1.4l-4 2.9 1.9-5c7.5-19.9-2.1-31.3-15.1-17.9-2.5 2.6-6 7.3-7.6 10.4l-3 5.6v-8.8c0-7.1-0.4-9.3-1.7-10.8-2.4-2.6-2.3-3.5 0.5-2.8 1.2 0.3 5.4 0.1 9.2-0.5 22.8-3.5 38.5-23.1 38.5-48.2 0-10.7-1.5-16.8-6.7-27.7-3.6-7.5-5.9-10.8-11.6-16.5-12.3-12.2-24.4-17.1-40.6-16.4-8.2 0.3-10.6 0.8-16.3 3.5-3.7 1.8-9 5.2-11.7 7.8-8.7 8.1-15 23.6-15.1 36.8 0 13.2 5.9 29.2 15.1 40.7l5 6.2-2.7 5.5c-1.6 3-2.9 5.1-3.1 4.7-0.1-0.5-0.7-2.8-1.3-5.1-1.4-5.4-3.3-7.3-7.5-7.3-6.7 0-13.6 8.8-19 24.3-1.5 4.3-2.9 7.6-3 7.5-0.2-0.2 0.3-4.4 1.1-9.3 2.5-16.4 1-28.6-3.9-32-8.1-5.7-16 4.3-19.6 25.1l-1.9 10.9-0.1-8.6c-0.2-14.6-3.3-26.2-8-29-1.6-1.1-1.1-1.9 5.4-8.3 8.3-8.2 12.2-15.5 13.8-25.7 3.8-24.3-14.4-48.4-41.8-55.4-7.5-1.9-25.1-1.9-32.4 0.1zm33.7 6.9c33.4 10.5 45.6 44.9 24.1 67.9-15.6 16.7-41 20.5-63.6 9.6-16.7-8.2-27.5-25.5-26-41.8 2.6-27.7 34.9-45.4 65.5-35.7zm134.8 10.9c31.6 15.6 41.7 59.1 18.9 81.9-10.1 10.2-25.1 13.6-39.8 9.1-2.7-0.8-13.8-7.3-15.2-8.8-0.5-0.7-2.4-2.2-4.2-3.4-4.7-3.3-12.6-15.7-15.4-24.3-4.9-15-2.5-32.3 6-43.5 4.8-6.3 9.5-10 16.7-13 5.2-2.2 7.1-2.4 15.5-2.2 8.8 0.3 10.3 0.7 17.5 4.2zm-301.1 11.1c15.4 3.9 27.1 12.8 33.2 25.3 3.5 7.1 3.8 8.2 3.8 16.6 0 8.1-0.3 9.8-3.2 15.8-17.2 36.3-75.3 37-93 1-3.6-7.1-3.8-8.2-3.8-16.7s0.2-9.6 3.8-16.7c9.9-20.1 36-31.2 59.2-25.3zm187.1 66.3c3.7 5.5 4.4 11.8 4.4 41.9v28.5l-3.7-0.7c-2.1-0.4-3.8-0.8-3.9-0.8-0.1-0.1-1.8-7-3.8-15.2-3.2-12.8-3.8-17.2-4.3-30.1-0.6-15.9 0-20 3.9-24.9 2.5-3.3 4.6-2.9 7.4 1.3zm-54.4 0.9c4.5 5 5.8 10.2 5.8 24.8 0 12.3 0.4 15.8 3.3 28.2 3.7 16 4 15.3-4.4 15.3-3 0-3.8-0.4-4.2-2.3-0.3-1.2-2.7-13-5.2-26.2-5.1-26.3-5.6-35.6-2.2-40.8 1.9-3 3.6-2.7 6.9 1zm83.4 0.5c3.1 6 2.8 13.8-1.6 42.8-2.3 15.1-4.3 27.6-4.5 27.9-0.2 0.2-3.5 0-7.2-0.5-6.7-0.9-6.8-0.9-7.1-4.2-0.5-5.1 6.8-52 9-57.9s6.2-11.3 8.4-11.3c0.7 0 2.1 1.4 3 3.2zm-107.4-0.3c3.5 2.8 7.3 10.4 10.3 20.6 3.3 11.3 10.5 46.8 9.6 47.7-0.3 0.3-3.3 0.8-6.6 1l-5.9 0.3-7.3-26.5c-7.7-27.7-8.9-36.3-6.2-42.3 1.4-3.2 2.8-3.4 6.1-0.8zm60.8 8.5c0 15.7 1.9 34.4 3.9 39 1.8 4 4.3 17.7 4.5 24.6 0.1 1.9 0.4 3.7 0.8 4s1.4 4.8 2.3 10c1.3 7.4 1.9 19.8 2.5 56.5 0.7 43 0.6 48.3-1.1 62-1.5 12-2.1 26.4-2.9 72-1.5 91.8-1.8 98.7-4 113.5-3.6 23.4-3.9 27.8-3.9 58.8-0.1 16.8-1 45.8-2.1 65-1 19.1-2.4 52-3 73.2-1.2 42.4-3.8 72.5-6 69-0.4-0.7-0.4-2.4 0.1-3.7 2.1-5.5 1.1-9.3-3.5-13.9-4.5-4.6-7.7-5.5-11.7-3.4-4.7 2.6-7.2 14.4-4.6 22 0.8 2.5 1.8 7.2 2.2 10.6 0.6 5.5 0.4 6.4-1.9 9.9-4.5 6.5-5.8 13.4-5.9 28.9 0 15.2 1 21 4.6 25.2 4.7 5.5 9.8-0.4 11.8-13.8 0.6-4 1.8-9.6 2.7-12.3 1.8-6 1.8-8.2-0.3-12.1-2.1-4-1.9-6.8 0.6-9 1.2-1 3-3.7 4.1-5.9l1.9-4-0.6 11c-0.3 6-1.5 17.1-2.6 24.5-1.8 12.4-5.2 63.6-4.3 65.2 0.2 0.3-2 3.1-4.9 6.2-4.7 5-5.7 5.6-9.2 5.6-5 0-10.2-3.1-11.1-6.6-1.1-4.3 1.5-49.7 3.6-63.7 1.1-7.1 2.5-21.5 3-32 0.6-10.6 1.9-26.4 3-35.2 2.1-17.9 2.6-28.2 4-76.5 0.6-18.4 1.7-44.5 2.6-58s2-41.6 2.4-62.5c0.5-20.9 1.1-40 1.5-42.5 4.3-32.2 4.4-34.7 5.5-110 1-64.7 1.4-76.5 3.1-89.5 1.9-13.9 2-18.4 1.4-62-0.6-39-1-49-2.6-59-1-6.6-1.9-14.3-1.9-17 0-2.8-0.7-7.5-1.5-10.5-2.5-9-4.4-19.5-5-27.1-0.3-3.9-1-9.1-1.6-11.6-0.5-2.5-1.2-8.8-1.6-13.9l-0.6-9.3 10.4-0.4c5.7-0.1 11.6-0.4 13.2-0.5l2.7-0.2v9.4zm-81.3-2.2c1.2 1.2 3.3 4.5 4.6 7.3 2.3 4.7 19 56.5 18.4 57.1-0.1 0.2-2.1 0.6-4.2 0.9l-4 0.7-12.2-28.4c-12.3-28.3-13.4-31.9-11.2-37.5 1.8-4.9 4.1-5 8.6-0.1zm-52.2 1.5c1.7 2.1 8.1 10.8 14.2 19.3 6.2 8.5 12.5 16.8 14 18.5 6.3 6.9 18.5 28 19.8 34.3 0.4 1.8 1.3 4.5 2 6s3.9 13.7 7 27.2c3.1 13.7 8.4 33.1 12 44 17.9 54.2 24.6 89.6 27 143 0.8 16.8 1.4 39.7 1.5 51 0 21.5-2.7 60.3-5.5 77-2.9 17.7-9.4 72.4-11.4 95.5-1.1 12.6-2.7 36.7-3.6 53.5s-1.8 32.1-2.1 34.1c-0.6 3.5-0.7 3.6-3.4 2.6-2.3-0.9-3.7-0.7-7 0.8-6.3 2.8-9 6.6-9 12.6 0 2.7-0.4 4.9-1 4.9-1.3 0-1.3 1.6 1-40.5 2.7-49.6 8.6-107.3 14.6-144.5 4.8-29 6.4-77 4.4-128.5-1-27.2-1.6-34.2-5-56.5-2.2-14-4.6-28.7-5.4-32.6-2.4-11.5-10.2-38.3-17.6-60.9-3.7-11.6-7.4-23.7-8-27-4.1-20.5-10.4-44.1-14.4-53.7-5.1-12.4-3.9-10.5-25.1-38.8-8.9-11.8-17.4-23.4-18.8-25.7-3-4.8-2.6-5.7 4.2-9.3 2-1 5.4-3.7 7.6-5.9 2.2-2.1 4.2-3.9 4.5-4s1.9 1.6 3.5 3.6zm29.9-1.6c4.9 3.8 8.5 10.6 20.2 37.6 6.4 14.7 11.8 27.3 12.1 28 0.4 1-5.2 3.3-8.3 3.3-0.6 0-2.3-3-3.7-6.8-1.6-4-6.2-11.6-11.5-18.7-9.4-13-14.4-23.2-16.2-33.6-2-10.6 1.2-14.7 7.4-9.8zm179.6 5.9c1.6 6 0.1 12.4-9.1 39-4.5 12.9-8.3 23.7-8.5 23.8-0.1 0.2-3.1-0.3-6.6-1.1l-6.3-1.4 0.3-4.9c0.3-5 12.2-40.6 16.1-48.3 3.2-6.1 7.9-11.1 10.7-11.1 1.9 0 2.5 0.8 3.4 4zm22 1.6c2 1.2 6.1 3 9.1 3.9l5.5 1.7-0.3 4.2c-0.8 9.7-4.8 26.3-10.9 45.1-3.6 11-6.9 21.8-7.4 24s-2.3 10.1-4 17.5-5.3 26.1-8.1 41.5c-8 45-9.7 52.9-15.4 73.5-7.4 27.1-10.2 48.8-11 86-0.4 15.1-1.3 34.5-2.1 43-2.3 25.1-3.4 39.8-3.9 52-0.3 6.3-1.2 20.3-2 31s-1.7 31-2 45-0.8 28.3-1.1 31.8l-0.6 6.2-2.8-3c-3.6-3.8-6.6-3.8-11.8 0-5.4 3.9-6.5 6.2-6 12.2 0.3 2.7 0.1 5.1-0.5 5.5-1.1 0.6-0.5-14.3 1.3-36.7 0.5-6.3 0.9-18.5 1-27 0-8.5 0.5-21.8 1-29.5s1.9-28.6 3-46.5 2.7-39.5 3.6-48 1.9-29.9 2.4-47.5c1-40.4 3.7-61.1 11.1-87.5 5.2-18.3 8.1-32.1 14.9-70.5 8.2-46 11.4-59.4 21-89 3.3-9.9 6.6-22.3 7.5-27.5 2.4-14.5 2.5-15.1 3.8-14.3 0.7 0.3 2.8 1.7 4.7 2.9zm-237.3 38.9c11 14.8 20.8 28.7 21.6 30.8l1.6 3.7-3.2 1.3c-3.8 1.6-1.3 4.5-22-25.4-16.5-23.8-20.7-31.2-20.7-36.9 0-4.4-1.7-6.3 22.7 26.5zm285.7-23.4c1.4 5.8-2.2 15.6-16.1 43.3-6.9 13.8-12.7 25.2-12.8 25.4-0.2 0.2-3.5-1.3-7.4-3.2l-7.1-3.6 13.1-26.3c14.1-28.2 17.5-33.6 22.9-37.3 4.5-3.1 6.3-2.7 7.4 1.7zm-69.3 19c-3.2 10.1-6.7 20.9-7.6 24-1.3 4.8-1.9 5.6-3.5 5.2-1.1-0.3-2-0.8-2-1.2 0-2.2 18.6-50.2 18.8-48.5 0.2 1.2-2.4 10.4-5.7 20.5zm41.9-15.9c0 4.2-3.9 19.3-4.7 18.4-0.8-0.7 3-22.6 3.9-22.6 0.4 0 0.8 1.9 0.8 4.2zm-293.9 5.7c2.4 1.5 6.9 5.5 9.9 8.7 6.7 7.1 37.4 43.2 37.8 44.4 0.2 0.5-2.8 2.5-6.6 4.4l-7 3.5-16.4-19.1c-8.9-10.6-18.2-21.6-20.5-24.5-4.7-6-8.7-15.5-7.8-18.4 0.9-2.8 5.3-2.4 10.6 1zm335.9 12.2c1.5 2.6-0.1 10.2-3.4 16.7-2.1 4.1-23.3 40.2-24.1 41-0.2 0.2-10.5-5.9-12.3-7.3-1-0.8 19.1-36 24.7-43.4 3.2-4.2 9.8-9.1 12.2-9.1 1 0 2.3 0.9 2.9 2.1zm-365 12.6c2.5 0.9 15 7.6 27.8 15 18.6 10.9 24 14.5 27.2 18.3 2.2 2.6 4 5 4 5.2 0 0.5-9.8 6.8-10.5 6.8-0.2 0-12-6.8-26.2-15.1-25-14.5-32.8-20.2-35.9-26.1-1.9-3.7-1.8-4.7 0.9-5.7 2.6-1 6.5-0.5 12.7 1.6zm391.8 1.2c0.6 3.7-2.6 10.7-7.7 17.1-10.3 12.8-12.9 15-27.1 22.6-7.5 4.1-14.2 7.4-14.9 7.4-5.2 0 28-40.2 38.9-47.2 5.6-3.6 10.3-3.5 10.8 0.1zm-207.9 24.8c1.8 12 2.2 20 2.7 59.8 0.6 42.7 0.5 47.2-1.4 63-1.8 14.8-2.2 26.8-3.2 91.5-0.8 54.9-1.5 77.3-2.6 85-2.5 18.1-2 16.7-5.4 16.2-3-0.4-3-0.5-2.5-5.6 3-29.9 3.1-45.8 1-95.1-1.5-33.9-4.3-58.4-10.1-88-2.3-11.7-9.5-37-17.4-61-6.6-20.3-18.7-69.5-17.6-71.4 1.2-1.8 37.6-7.6 50.7-8l3.6-0.1 2.2 13.7zm57.1-9.6c10.6 1.8 26.5 5.5 28.1 6.5 0.4 0.2-0.4 5.5-1.7 11.6-1.3 6.2-4.2 21.4-6.5 33.8-7.9 44.6-11.1 59.8-16.4 79-7.5 26.8-10.4 49.6-11.1 85.5-0.3 14.3-1.4 35.9-2.5 48-2 23.4-3.9 49.6-3.9 55.6v3.6l-6.1 0.7c-3.4 0.4-6.3 0.6-6.4 0.4-0.2-0.2 0.5-6.6 1.6-14.3 1.6-11.9 2.1-25.8 3.4-93 1.1-61.2 1.8-81.4 3.1-89.5 2.2-14.5 1.4-106.7-1-120-0.9-4.7-1.6-9.1-1.6-9.7 0-1.5 3.6-1.1 21 1.8zm-263.5 3.4c2.4 0.9 64.8 28.7 65.4 29.2 0.6 0.4-8.7 8.8-11.4 10.3-1.7 0.9-6.4-0.9-29.8-11.5-15.4-6.9-29.5-13.7-31.5-14.9-9.8-6.3-13.1-13.5-6.7-14.6 3-0.6 10.3 0.2 14 1.5zm440.9 0.1c2.2 0.8 2 3-0.5 7-2.9 4.8-9.1 9-29.4 19.9-9.9 5.3-20.7 11.2-24 13l-6.1 3.4-6.3-5.7-6.4-5.8 27.7-14.8c15.2-8.1 29.5-15.4 31.8-16.1 4.6-1.5 10.7-1.9 13.2-0.9zm-326 15.8c0.8 1.9 3.8 13.7 6.6 26.3 2.8 12.5 8.2 32.5 12 44.3 14.2 44.3 17.8 58.6 23 93 4.6 30.3 6.3 61.8 5.8 108l-0.3 28.5-2.5-0.3c-1.4-0.2-7.8-2.1-14.3-4.3-38.6-12.6-68.9-35.5-83.6-63.1-6.1-11.4-9.1-22.2-10.1-37.3-0.6-7.4-1.9-16-3-20-1.2-3.9-2.9-10.8-4-15.5-2.2-10.3-3-12.4-7.9-22-2.2-4.1-5.1-11.3-6.7-16-2.5-7.7-2.8-9.8-2.8-23s0.3-15.3 2.8-23c5.3-16.1 12.2-27.5 24.5-40.3 7.9-8.3 19.6-17.9 29.2-24 6.7-4.3 26.9-14.6 28.6-14.7 0.7 0 1.9 1.5 2.7 3.4zm224.4 6.6c11.6 6.2 27.2 18.2 36.8 28.2 12.7 13.2 19.6 24.5 25 40.8 2.5 7.7 2.8 9.8 2.8 23s-0.3 15.3-2.8 23c-1.6 4.7-4.4 11.6-6.4 15.5-4 8.1-6.6 15.7-8.1 23.8-0.6 3.1-1.5 6.5-2 7.5-2.1 4-4.2 15.1-5.1 27-1 14.8-4 25.6-10.1 37-11.3 21.3-31.9 39.8-59.4 53.5-8.5 4.2-26.5 11-27.3 10.3-0.2-0.3 0.7-13.9 2.1-30.3 1.6-18.1 2.8-39.8 3.1-55.3 0.6-34.1 3.4-55.5 11.1-83 3.8-13.6 7.7-32 12.9-60.7 6.8-37.1 11.9-62.7 13.1-66 0.5-1.5 2.3-0.8 14.3 5.7zm106.6 2c3.6 1.3 3.3 4.2-0.9 8.5-4.7 4.6-9.2 6.8-32.9 15.9l-19.8 7.6-3.9-4.3c-2.1-2.3-3.8-4.7-3.9-5.2 0-1.3 25.5-14.5 35-18.1 13.4-5 21.4-6.3 26.4-4.4zm-423.2 11.6c14.5 4.2 26.4 7.7 26.5 7.7 0.1 0.1-2.3 3.2-5.3 6.8l-5.5 6.6-22.7-6.7c-26.6-7.8-33.1-10.8-36.1-16.7-1.7-3.4 1.8-5.3 10.1-5.3 5.4 0 11.9 1.5 33 7.6zm438.7 19.7c1.3 0.7 2.9 2 3.5 3 1.5 2.4-2.4 5.8-9.8 8.6-4.4 1.6-44.2 8.1-49.9 8.1-1.2 0-10.2-13.8-9.4-14.6 0.1-0.1 11.5-1.9 25.2-3.8 25.5-3.6 35.1-3.9 40.4-1.3zm-446.4 5.7c8.8 0.6 16.8 1 17.8 1 1.6 0 1.3 0.9-1.9 6.7-2 3.8-4.2 7.3-4.8 7.9-1.5 1.6-40.3-0.9-47.3-3.1-5.9-1.8-11.5-5.9-10.7-8 1.5-3.7 13.2-6.5 24.4-5.8 3.6 0.2 13.7 0.8 22.5 1.3zm458.3 18.5c5.6 2.3 6.8 4.6 3.9 7.2-5.6 5.1-10.4 6.1-41 7.8-13.8 0.8-25.2 1.3-25.2 1.2-0.1-0.1-1.3-3.7-2.6-8l-2.5-7.7 2.5-0.1c1.4 0 11.8-0.7 23.1-1.4 24.3-1.6 36-1.3 41.8 1zm-449.8 3.8c0 0.8-4 16-4.3 16.2-0.1 0.1-10.9 0.7-23.9 1.3-25.1 1.1-32.6 0.5-38.2-3.1-3.3-2.2-3.3-4 0.1-6.6 5-4 12.3-5.2 38.6-6.6 13.9-0.7 25.8-1.3 26.5-1.4 0.6 0 1.2 0.1 1.2 0.2zm419.5 20.1c32.8 2.6 38.9 3.8 44.1 8.7s-3.1 8.9-18 8.8c-9.8 0-55.4-3.3-56-4-0.3-0.4-1.6-15.9-1.3-15.9 0.1 0 14.2 1.1 31.2 2.4zm-424.5 8.9v8.3l-23.2 3.7c-24.8 4-34.8 4.6-40.2 2.3-4.8-2-5.2-3.3-2-6.7 4.4-4.6 12.1-6.8 39.4-11.4 14-2.4 25.6-4.3 25.8-4.4 0.1 0 0.2 3.6 0.2 8.2zm246.8 325.2c-0.1 0.2-1.6 0.1-3.1-0.2-2-0.4-2.5-0.8-1.6-1.4 1.2-0.7 5.6 0.8 4.7 1.6zm-2.8 7.9c0 0.8-0.4 1.7-0.9 2.1-1.2 0.7-2.4-1.2-1.6-2.5 0.9-1.5 2.5-1.2 2.5 0.4zm5.9 23.8c0 7.4-0.4 11.3-0.8 9.8-0.5-1.4-1.4-3.5-2.2-4.7-1.1-1.8-1-3.3 0.5-9.7 1-4.2 2-7.6 2.2-7.6s0.4 5.5 0.3 12.2zm-9.9-2.7c0 0.8-0.7 1.5-1.5 1.5s-1.5-0.7-1.5-1.5 0.7-1.5 1.5-1.5 1.5 0.7 1.5 1.5zm3.9 12.5c2.7 5.2 2.7 6.6-0.1 4-1.2-1.1-2.5-2-2.9-2-0.3 0-1.9-1-3.5-2.3l-2.9-2.2 3.5-0.6c1.9-0.4 3.6-0.7 3.6-0.8 0.1 0 1.1 1.7 2.3 3.9zm-9.5 6.7c-0.4 1.5-1.5 3.9-2.6 5.2-1.8 2.4-1.8 2.3-1.8-5.8v-8.3l2.5 3.1c2 2.3 2.4 3.6 1.9 5.8zm8.9 5.6c0.6 4.2-0.2 6.7-2.2 6.7-3.9 0-4.8-2.9-3-9.3 1-3.7 1.1-3.8 2.9-2.2 1 0.9 2 3 2.3 4.8zm-11.3 19.7c0.1 14.3 2.9 21 8.2 19.7 3.1-0.8 5.5-5 7.8-13.9l1.9-7.3 0.1 25c0.1 13.7 0.3 25.9 0.6 27 1.8 8.5 0.7 10.5-5.8 11.2-3.2 0.4-5.8 0-9-1.5l-4.5-1.9-1-7.9c-1.2-9.3-0.5-62.3 0.8-60.3 0.5 0.8 0.9 5.2 0.9 9.9zm14-5.3c0 0.5-0.7 3.8-1.4 7.5-1.5 7-4 12.8-5.6 12.8-1.5 0-3-7-3-13.7v-6.2l3.8-0.4c2-0.2 4.3-0.4 5-0.5 0.6-0.1 1.2 0.1 1.2 0.5zm-99.9 30c1.2 1.5 1.2 1.6-0.4 1-1-0.4-2.3-0.7-2.8-0.7-0.6 0-0.7-0.5-0.4-1 0.9-1.5 2.1-1.2 3.6 0.7zm-3.1 8.8c0 0.8-0.4 1.5-0.9 1.5-1.3 0-2.2-1.6-1.4-2.4 1.1-1.1 2.3-0.6 2.3 0.9zm47.5 11.5c0.4 0.6-0.7 1-2.7 1-2.5 0-2.9-0.3-1.8-1 1.9-1.3 3.7-1.3 4.5 0zm-44.6 12.4c-0.7 5.8-1.6 10.6-2.1 10.6-0.4 0-0.8-1-0.8-2.3s-0.5-2.8-1.2-3.5c-0.8-0.8-0.4-3 1.7-8.7 1.5-4.2 3-7.4 3.2-7.1 0.3 0.3-0.1 5.2-0.8 11zm-9.9-3.9c0 0.8-0.7 1.5-1.5 1.5-1.6 0-2-1.2-0.8-2.3 1.1-1.2 2.3-0.8 2.3 0.8zm53 1c0 0.8-0.4 1.5-0.9 1.5-1.3 0-2.2-1.6-1.4-2.4 1.1-1.1 2.3-0.6 2.3 0.9zm-49.5 15.8c0.6 2.2 0.1 2-4.5-2.2l-5.1-4.6 3.3-0.5c2.8-0.5 3.5-0.2 4.5 2.1 0.7 1.4 1.5 3.8 1.8 5.2zm-11.6-2.9c1.1 1.9 1 2.8-0.3 5.4-2.4 4.6-4.1 5.2-3.3 1.2 0.4-1.8 0.7-4.5 0.7-6.1 0-3.5 1.2-3.7 2.9-0.5zm7.1 6.5c2.2 4.2 0.9 11.1-2 11.1-3.5 0-4.3-2.5-2.5-8 1.8-5.4 2.8-6.1 4.5-3.1zm56 1.5c0 0.8-0.4 1.7-0.9 2.1-1.2 0.7-2.4-1.2-1.6-2.5 0.9-1.5 2.5-1.2 2.5 0.4zm-1.1 10.8c0.9 0.3-0.8 1.7-4.2 3.5-6.3 3.4-7 2.9-3.1-2.2 2-2.6 3-3.3 4.3-2.6 0.9 0.4 2.3 1 3 1.3zm-53.9 7.1c0 4.4-7 19.7-9 19.7-1.4 0-2.2-7.6-1.5-14.5l0.7-6.5h4.9c3.4 0 4.9 0.4 4.9 1.3zm3.4 13.8c-0.8 6.8-1.9 15.9-2.4 20.1-0.9 8.9-4.6 16.6-9.7 20.5-3.1 2.4-3.4 2.5-5.8 0.9-5.7-3.8-5.8-4.4-3.3-26.7 2-17.6 2.4-19.6 2.9-14.9 1 9.2 3.6 11.8 9 8.9 2.3-1.2 8.6-13.5 9.5-18.7 0.4-1.8 0.8-3.1 1-2.9 0.3 0.2-0.3 6-1.2 12.8zm48.1-7.9c0.6 4.4 0.5 5.4-1.1 6.5-3.1 2.3-4.9 1.2-4.8-2.9 0.1-3.7 2.6-8.8 4.3-8.8 0.5 0 1.2 2.3 1.6 5.2zm-4.9 14.9c5.1 1.3 5.4 2.6 2.9 12.4-1.6 6.1-3.2 8.8-4.5 8-1.6-1-4.9-21.5-3.5-21.5 0.3 0 2.6 0.5 5.1 1.1z" fill="#000000" stroke="#000000" stroke-width="0.5" stroke-miterlimit="10" />
        <path id="path671" d="m724.9 424.5c-38.4 7.3-67.7 36.4-73 72.4-5 34.4 13.7 67.5 46.6 82.7 26.3 12.1 58.6 10.4 85-4.7 14.6-8.2 29.5-24.6 36.1-39.6 6.8-15.2 8.5-35.8 4.5-51.6-7.2-27.7-30.3-50.1-59.6-57.8-10.5-2.7-29.2-3.4-39.6-1.4zm36.1 9.1c3.6 0.9 11 3.7 16.5 6.4 17.6 8.4 31.3 23.7 37.2 41.4 2.4 7.2 2.7 9.6 2.8 21.6 0 11.5-0.3 14.5-2.3 20.4-9 26.8-30 46.1-57.9 53.2-12.6 3.2-29.3 3.3-40.9 0.4-15.9-4.1-31.5-13.7-41.2-25.3-5.3-6.5-11.7-19.1-13.8-27.7-2.1-8.4-2.2-23.5-0.1-32.2 10.1-42 55.8-68.6 99.7-58.2z" fill="#000000" stroke="#000000" stroke-width="0.5" stroke-miterlimit="10" />
        <path id="path673" d="m721.9 452.4c-17.3 4.8-31.4 20.1-36.4 39.6-2.5 9.7-1.7 27.1 1.8 36.8 9.6 27.2 34.6 44.2 59.4 40.4 19.2-3 33.6-15.8 40.6-36.2 2.6-7.3 3-10 3-19 0.1-19.4-5.7-33.6-18.7-46.5-8.5-8.4-15.2-12.5-24.7-15-6.5-1.8-18.7-1.8-25-0.1zm20.3 7.7c11.8 2.5 23.9 11.1 30.9 22 10.5 16.4 11.7 38.2 3.2 55.9-3.5 7.2-12.3 15.9-19.7 19.5-8.3 4-19.8 4.7-29.4 1.6-24.8-8-40.2-37.9-33.3-65 3.4-13.5 10.9-23.9 21.3-29.6 9.2-5 17.6-6.4 27-4.4z" fill="#000000" stroke="#000000" stroke-width="0.5" stroke-miterlimit="10" />
        <path id="path675" d="m966.2 643.7 0.3 33.8h3.5 3.5l0.3-33.8 0.2-33.7h-4-4l0.2 33.7z" fill="#000000" stroke="#000000" stroke-width="0.5" stroke-miterlimit="10" />
        <path id="path677" d="m989.2 643.7 0.3 33.8h3.5 3.5l0.3-33.8 0.2-33.7h-4-4l0.2 33.7z" fill="#000000" stroke="#000000" stroke-width="0.5" stroke-miterlimit="10" />
        <path id="path679" d="m513.4 613.9c-6.1 2.8-8.4 6.3-8.4 12.7 0 4.5 0.5 5.9 3 8.8 3.2 3.6 6.4 5 14 6.1 8.5 1.2 11.1 2.5 12.6 6.2 3.2 7.5-3.4 12.8-14.8 11.9-7.3-0.5-8.1 0.1-5.8 4.5 0.9 1.6 2.2 1.9 7.8 1.9 15.3-0.1 24.4-10.2 19.6-21.8-2.4-5.8-5.8-7.8-16.2-9.7-9.1-1.6-11.8-2.9-13-6.5-2.2-6.1 3.6-10.6 12.5-9.7 5 0.5 5.3 0.4 5.3-1.7 0-1.2-0.5-2.7-1.2-3.4-1.8-1.8-10.8-1.4-15.4 0.7z" fill="#000000" stroke="#000000" stroke-width="0.5" stroke-miterlimit="10" />
        <path id="path681" d="m477.5 624.9c-5.1 2.3-10.1 7.9-11.4 12.8-3.5 12.4 2.7 30.1 12.4 35.8 7.8 4.6 20.5 2.7 27.8-4.2 2.9-2.9 3.3-4.4 1.6-7.4-1-1.9-1.2-1.8-5.3 1.9-10.5 9.7-20.7 7.6-26.9-5.6-5.6-11.9-3.8-23.3 4.3-27.5 2.8-1.5 4.9-1.7 10.8-1.3 7.8 0.6 8.6 0 5.6-4.2-1.3-1.9-2.4-2.2-8.2-2.2-4.3 0-8.1 0.7-10.7 1.9z" fill="#000000" stroke="#000000" stroke-width="0.5" stroke-miterlimit="10" />
        <path id="path683" d="m602.6 631c-5.4 1.7-9.6 7.3-9.6 12.7s3.4 9 12.7 13.6c8 3.8 8.8 4.5 9.1 7.3 0.6 6.6-8.2 9.5-16.3 5.4-5.4-2.7-6.5-2.6-6.5 1 0 4.7 4.6 7 13.8 7 11.4 0 17.2-4.2 17.2-12.6 0-7-1.5-9.1-9.9-13.1-12-5.8-14.4-9-10.1-13.3 2.4-2.4 8.5-2.7 13.5-0.6 3.8 1.6 4.5 1.3 4.5-2.4 0-2-0.7-3-2.7-3.9-3.7-1.7-12.1-2.3-15.7-1.1z" fill="#000000" stroke="#000000" stroke-width="0.5" stroke-miterlimit="10" />
        <path id="path685" d="m650.5 632c-2.2 1.1-5 2.7-6.2 3.6-2.3 1.6-2.3 1.6-2.3-1.5 0-2.9-0.2-3.1-3.5-3.1h-3.5v32 32h4 4v-11-11.1l3.7 2.6c3 2 5 2.5 9.9 2.5 7.5 0 11.8-2.5 15.4-9 3.2-5.9 4-19.4 1.6-26.7-3.5-10.6-13.5-15-23.1-10.3zm12.2 8.5c4 4.6 5.3 13.2 3.2 21-2.7 9.9-11 12.6-18.7 5.9l-4.2-3.6v-9.2c0-9.1 0-9.3 3.3-12.3 6-5.9 12.2-6.5 16.4-1.8z" fill="#000000" stroke="#000000" stroke-width="0.5" stroke-miterlimit="10" />
        <path id="path687" d="m698.6 631.2c-5 1.4-10.8 7.2-12.4 12.4-1.7 5.8-1.5 18.7 0.3 23.1 3.5 8.3 9 11.3 20.7 11.2 4.6 0 9.9-0.5 11.8-1.2 2.9-1 3.6-1.7 3.8-4.5 0.4-3.7-0.1-3.8-7.2-1.7-12.4 3.8-20.9-0.2-22.3-10.4l-0.6-4 31.8-0.6-0.1-6.7c-0.1-11.2-5.9-17.6-16.8-18.3-2.8-0.2-6.8 0.1-9 0.7zm14.4 8.5c2 1.8 3.3 4.1 3.7 6.5l0.6 3.8h-12.2c-13.5 0-13.6-0.1-10.5-6.6 3.2-6.8 12.8-8.7 18.4-3.7z" fill="#000000" stroke="#000000" stroke-width="0.5" stroke-miterlimit="10" />
        <path id="path689" d="m752.5 631c-1.1 0.4-3.1 2-4.4 3.4-3.2 3.4-4.1 3.3-4.1-0.4 0-2.8-0.3-3-3.5-3h-3.5l0.2 23.2 0.3 23.3h3.5 3.5l0.3-15.1 0.3-15.2 4.1-4.7c4.1-4.7 4.2-4.7 9-4.1l4.8 0.7v-3.5c0-5-4.7-7-10.5-4.6z" fill="#000000" stroke="#000000" stroke-width="0.5" stroke-miterlimit="10" />
        <path id="path691" d="m789 631.1c-1.3 0.6-3.9 2.1-5.7 3.5l-3.3 2.5v-3c0-2.9-0.3-3.1-3.5-3.1h-3.5v23.5 23.5h3.5 3.5v-15.8-15.8l4.3-4.1c4.9-4.7 7.4-5.7 11-4.4 4.5 1.7 5.2 4.4 5.7 22.6l0.5 17h3.5 3.5l0.5-16.2c0.5-15.3 0.6-16.3 2.9-18.7 3.9-4.1 8.8-6 12.1-4.6 4.6 1.9 5.4 5 6 23l0.5 16.5h3.5 3.5v-17.5c0-9.6-0.3-18.7-0.7-20.2-0.5-1.4-2.2-4-3.8-5.7-5.7-5.6-15.4-4.9-22.2 1.6l-2.8 2.6-2.1-2.8c-3.8-4.8-11.1-6.7-16.9-4.4z" fill="#000000" stroke="#000000" stroke-width="0.5" stroke-miterlimit="10" />
        <path id="path693" d="m884.7 631.4c-9.1 3.4-12.7 9.9-12.7 23.1 0 7.4 0.4 9.9 2.4 14.2 3.4 7.3 8.2 9.6 18.2 9.1 9.1-0.4 12.7-2.7 13.2-8.1 0.2-2.1 0-3.7-0.5-3.7-0.4 0-2.6 1.2-4.8 2.5-5.6 3.5-12.3 3.4-15.9-0.1-4.3-4.4-5.8-13.5-3.5-21.6 2.5-9.1 9.6-12 18.2-7.4 2.6 1.4 5.3 2.6 5.8 2.6 0.6 0 0.9-1.7 0.7-3.7-0.2-3-1-4.1-3.5-5.6-4.3-2.5-12.8-3.1-17.6-1.3z" fill="#000000" stroke="#000000" stroke-width="0.5" stroke-miterlimit="10" />
        <path id="path695" d="m927.6 631.2c-5 1.4-10.8 7.2-12.4 12.4-1.7 5.8-1.5 18.7 0.3 23.1 3.5 8.3 9 11.3 20.7 11.2 4.6 0 9.9-0.5 11.8-1.2 2.9-1 3.6-1.7 3.8-4.5 0.4-3.7-0.1-3.8-7.2-1.7-12.4 3.8-20.9-0.2-22.3-10.4l-0.6-4 31.8-0.6-0.1-6.7c-0.1-11.2-5.9-17.6-16.8-18.3-2.8-0.2-6.8 0.1-9 0.7zm14.4 8.5c2 1.8 3.3 4.1 3.7 6.5l0.6 3.8h-12.2c-13.5 0-13.6-0.1-10.5-6.6 3.2-6.8 12.8-8.7 18.4-3.7z" fill="#000000" stroke="#000000" stroke-width="0.5" stroke-miterlimit="10" />
        <path id="path697" d="m430.3 639c-1.9 0.8-2.3 1.7-2.3 4.9 0 4.8-1.8 37.1-2.5 45.3-0.4 5.5-0.3 5.8 1.8 5.8 3.7 0 4.4-1.2 5.2-8.7l0.7-7.2 8.6-2.6c4.8-1.5 9.4-2.8 10.3-3.1 1-0.3 2.9 1.5 5.5 5.1 3.9 5.5 6.8 6.8 10.3 4.6 1.7-1.1 2.7 0.4-15.7-24.4-16-21.6-16.4-21.9-21.9-19.7zm9.8 15.2c2.9 4 6.3 8.7 7.6 10.5l2.4 3.2-6.8 2.1c-3.7 1.1-7.6 2.3-8.5 2.6-1.5 0.5-1.8-0.2-1.8-4.3 0-5.6 1.2-21.3 1.6-21.3 0.1 0 2.6 3.3 5.5 7.2z" fill="#000000" stroke="#000000" stroke-width="0.5" stroke-miterlimit="10" />
        <path id="path699" d="m392.6 650.5c-5.9 1.8-11.3 3.8-11.8 4.3-0.6 0.6 1.5 9.3 6.4 25.3 7.1 23.6 7.4 24.4 9.8 24.1 4.3-0.5 4.5-1.7 1.6-11.3-1.6-5.1-3-9.8-3.3-10.5-0.3-0.9 2.4-2.2 8.6-4 9.1-2.8 10.4-3.9 8.2-7.2-0.6-1.1-2.5-0.8-9.6 1.2-4.9 1.4-9 2.4-9.2 2.2-0.2-0.1-1.4-3.8-2.7-8.2l-2.4-7.9 9.5-2.9c8.9-2.8 9.4-3.1 9.1-5.5-0.2-1.4-1-2.7-1.8-2.8s-6.4 1.3-12.4 3.2z" fill="#000000" stroke="#000000" stroke-width="0.5" stroke-miterlimit="10" />
    </g>
    <g id="sc_sivpt">
        <path id="path713" d="m719.81 577.04c-33.843-7.744-57.234-33.406-59.11-64.847-0.829-13.883 0.912-22.389 7.288-35.615 7.003-14.529 18.967-26.636 33.873-34.279 15.803-8.103 21.205-9.386 39.659-9.416 12.604-0.021 17.174 0.413 22.125 2.1 26.467 9.019 45.739 28.124 51.605 51.155 2.282 8.96 2.235 26.822-0.09 34.729-6.002 20.406-21.34 38.708-40.193 47.959-5.915 2.902-13.818 6.07-17.562 7.04-9.759 2.527-29.049 3.129-37.595 1.174zm27.383-7.447c10.018-1.627 22.048-7.977 28.312-14.945 5.687-6.325 12.287-18.947 14.145-27.051 2.99-13.04 0.571-32.054-5.646-44.388-4.257-8.444-18.344-23.192-25.75-26.957-19.892-10.114-42.668-6.727-58.007 8.625-33.413 33.442-14.358 96.493 31.629 104.66 7.228 1.284 7.741 1.285 15.317 0.054z" fill="#ffffff" stroke="#000000" stroke-width="1.1346" stroke-miterlimit="10" />
        <path id="path711" d="m730.42 559.33c-14.148-3.552-27.466-16.09-33.814-31.834-3.809-9.448-4.323-26.527-1.089-36.206 5.202-15.563 14.578-25.227 28.747-29.626 9.541-2.962 16.768-2.308 26.777 2.426 25.429 12.026 36.568 41.826 26.096 69.815-3.069 8.204-12.776 18.717-20.994 22.737-6.895 3.373-18.263 4.562-25.723 2.688z" fill="#ffffff" stroke="#000000" stroke-width="1.1346" stroke-miterlimit="10" />
    </g>
    <g id="pt">
        <path id="path719" d="m228.62 728.99c2.25-47.17 7.15-102.44 12.524-141.26 5.474-39.547 6.218-46.804 7.486-73.02 1.308-27.036 0.714-72.588-1.311-100.58-1.589-21.955-8.361-64.194-13.028-81.262-2.198-8.037-7.596-26.101-11.995-40.142s-9.698-32.959-11.776-42.04c-5.585-24.399-10.403-40.235-15.345-50.431-2.627-5.421-11.524-18.617-22.089-32.764-9.73-13.027-18.44-25.135-19.356-26.907-1.661-3.213-1.652-3.229 4.3-7.066 3.281-2.115 6.938-4.941 8.126-6.28 1.189-1.34 2.778-2.435 3.531-2.435s9.482 10.845 19.397 24.101c30.349 40.576 30.292 40.457 41.716 86.524 3.404 13.729 8.598 32.62 11.542 41.98 14.646 46.564 20.729 73.89 24.248 108.93 2.4 23.885 3.773 65.405 3.116 94.168-0.748 32.725-1.507 41.955-6.442 78.288-7.184 52.894-10.667 89.431-13.576 142.39-0.668 12.169-1.475 24.191-1.792 26.716-0.552 4.398-0.729 4.573-4.229 4.199-4.925-0.526-11.113 2.985-13.673 7.758l-2.078 3.875z" fill="#ffffff" stroke="#000000" stroke-width="1.1346" stroke-miterlimit="10" />
        <path id="path721" d="m272.48 807.28c-0.103-3.372 0.686-13.068 3.83-47.087 0.894-9.672 2.166-33.925 2.826-53.894s1.948-51.37 2.862-69.779 2.203-50.32 2.865-70.913c0.662-20.594 1.935-42.804 2.829-49.356 0.952-6.981 2.11-31.41 2.796-59 2.12-85.204 3.503-124.12 4.716-132.75 0.766-5.444 0.987-25.471 0.614-55.596-0.62-50.08-1.854-66.37-7.048-93.039-1.519-7.8-3.329-18.778-4.021-24.394s-1.705-13.53-2.25-17.586c-0.545-4.057-1.008-9.035-1.028-11.063l-0.037-3.687h12.48 12.481v8.956c0 12.855 2.051 31.121 4.582 40.814 1.2 4.596 2.497 10.978 2.882 14.182 0.384 3.205 1.687 10.677 2.896 16.605 3.513 17.233 5.26 93.507 2.775 121.13-1.133 12.59-2.479 49.793-3.524 97.406-1.442 65.712-2.03 79.287-3.997 92.353-1.765 11.726-2.551 25.159-3.351 57.298-0.574 23.089-1.579 52.703-2.233 65.808-0.653 13.104-1.946 43.366-2.873 67.247-0.927 23.882-2.012 47.677-2.412 52.879l-0.727 9.458-5.31-5.508c-7.497-7.778-12.912-7.352-16.369 1.289-2.342 5.852-2.316 10.441 0.127 22.31l1.966 9.551-3.09 5.497c-1.7 3.024-3.554 7.473-4.121 9.887-0.958 4.078-1.039 4.148-1.136 0.986z" fill="#ffffff" stroke="#000000" stroke-width="1.1346" stroke-miterlimit="10" />
        <path id="path723" d="m330.63 630.8c0.429-5.279 1.267-23.638 1.862-40.799 1.048-30.223 3.895-77.046 7.312-120.27 0.912-11.545 1.963-30.181 2.333-41.414 1.668-50.505 3.683-66.542 12.899-102.68 3.103-12.169 8.995-40.251 13.092-62.404 8.388-45.352 11.919-60.69 19.978-86.798 5.226-16.93 8.998-31.617 10.708-41.697 0.397-2.341 0.889-4.255 1.095-4.255 0.205 0 2.607 1.219 5.338 2.71 2.73 1.49 6.879 3.317 9.219 4.059 3.432 1.088 4.255 1.901 4.255 4.203 0 5.942-4.732 25.554-11.314 46.893-7.672 24.871-12.171 44.525-20.388 89.067-7 37.949-8.361 44.491-12.513 60.135-8.743 32.943-10.852 48.393-12.515 91.655-0.652 16.986-1.936 39.819-2.852 50.739-2.241 26.734-5.978 88.115-6.769 111.19-0.353 10.296-0.939 25.014-1.303 32.706l-0.661 13.984-2.507-2.355c-3.662-3.44-8.449-2.989-13.635 1.285l-4.416 3.641z" fill="#ffffff" stroke="#000000" stroke-width="1.1346" stroke-miterlimit="10" />
        <path id="path725" d="m334.08 772.19c-3.308-1.44-3.554-1.98-4.247-9.316-0.404-4.283-0.678-16.723-0.607-27.643 0.101-15.659 0.357-18.777 1.211-14.75 1.977 9.314 3.896 12.481 7.564 12.481 4.053 0 5.632-1.829 8.121-9.402l1.943-5.916 0.529 26.664c0.319 16.058 0.099 27.227-0.553 28.081-1.418 1.856-9.506 1.741-13.961-0.199z" fill="#ffffff" stroke="#000000" stroke-width="1.1346" stroke-miterlimit="10" />
        <path id="path727" d="m271.79 904.35c-1.248-0.51-3.243-2.011-4.434-3.335-2.082-2.315-2.112-3.35-0.786-27.081 0.759-13.571 2.112-30.546 3.007-37.722 0.896-7.177 1.716-15.091 1.824-17.587s0.528 2.354 0.934 10.779c0.777 16.139 2.418 21.859 6.658 23.205 4.905 1.556 8.349-3.198 10.377-14.328 0.606-3.322 1.967-9.458 3.025-13.634 1.842-7.271 1.834-7.793-0.196-12.295-1.698-3.765-1.848-5.077-0.753-6.589 0.752-1.038 2.379-3.42 3.616-5.292l2.249-3.404 4e-3 2.844c3e-3 1.564-0.777 9.478-1.731 17.586-2.17 18.426-4.865 52.139-5.305 66.368l-0.334 10.779-5.181 5.39c-5.243 5.453-7.975 6.362-12.973 4.316z" fill="#ffffff" stroke="#000000" stroke-width="1.1346" stroke-miterlimit="10" />
        <path id="path729" d="m219.73 859.94c-2.729-2.146-2.961-2.99-2.871-10.478 0.1-8.443 2.88-31.993 3.152-26.707 0.085 1.647 1.122 4.19 2.305 5.65 3.512 4.337 7.746 2.003 12.291-6.776 2.042-3.945 3.712-6.765 3.712-6.268s-0.793 7.562-1.763 15.7c-1.96 16.454-5.099 24.978-10.656 28.934l-3.202 2.28z" fill="#ffffff" stroke="#000000" stroke-width="1.1346" stroke-miterlimit="10" />
        <path id="path733" d="m225.22 824.22c-0.553-1.984-0.539-15.213 0.018-17.353 0.393-1.509 0.533-1.56 4.225-1.552 4.815 0.012 5.483 0.403 4.944 2.899-1.028 4.757-5.962 15.312-7.914 16.932-0.679 0.564-0.903 0.401-1.273-0.926z" fill="#ffffff" stroke="#000000" stroke-width=".56731" stroke-miterlimit="10" />
        <path id="path735" d="m230.58 797.54c-2.061-0.539-2.009-4.808 0.117-9.614l1.192-2.695 1.26 1.26c1.728 1.728 1.845 8.405 0.179 10.246-0.594 0.656-1.233 1.164-1.418 1.128-0.186-0.036-0.784-0.183-1.33-0.325z" fill="#ffffff" stroke="#000000" stroke-width=".56731" stroke-miterlimit="10" />
        <path id="path737" d="m233.28 780.02-3.971-3.679 3.12 0.16c2.945 0.15 3.174 0.27 4.078 2.144 1.235 2.558 1.854 5.113 1.231 5.08-0.268-0.014-2.274-1.682-4.458-3.705z" fill="#ffffff" stroke="#000000" stroke-width=".56731" stroke-miterlimit="10" />
        <path id="path739" d="m242.39 778.92c-0.227-0.936-0.68-2.408-1.007-3.271-0.326-0.864-0.459-2.402-0.294-3.418 0.377-2.324 3.834-11.354 4.204-10.983 0.323 0.322-1.318 14.488-2.014 17.388l-0.477 1.986z" fill="#ffffff" stroke="#000000" stroke-width=".56731" stroke-miterlimit="10" />
        <path id="path741" d="m223.59 787.15c0.872-7.342 1.081-8.51 1.522-8.51 0.263 0 0.897 0.808 1.407 1.794 1.13 2.185 0.486 4.932-1.773 7.567l-1.459 1.702z" fill="#ffffff" stroke="#000000" stroke-width=".56731" stroke-miterlimit="10" />
        <path id="path743" d="m279.81 846.74c-0.765-1.237-2.584-10.86-2.933-15.514l-0.375-4.996 1.647 0.367c5.769 1.286 7.606 2.435 7.6 4.75-6e-3 2.345-2.2 10.89-3.472 13.527-1.158 2.401-1.825 2.905-2.467 1.866z" fill="#ffffff" stroke="#000000" stroke-width=".56731" stroke-miterlimit="10" />
        <path id="path745" d="m281.21 818.06c-0.679-1.787 0.186-6.142 1.722-8.668 1.935-3.181 2.702-2.216 3.235 4.074 0.309 3.645 0.241 3.971-1.034 4.951-1.898 1.459-3.28 1.333-3.923-0.357z" fill="#ffffff" stroke="#000000" stroke-width=".56731" stroke-miterlimit="10" />
        <path id="path747" d="m279.51 804.4c0-0.524 3.256-5.074 4.179-5.84 0.706-0.587 1.253-0.586 2.885 7e-3 1.107 0.401 2.013 0.878 2.013 1.062 0 0.183-1.341 1.14-2.979 2.125-3.127 1.883-6.098 3.173-6.098 2.649z" fill="#ffffff" stroke="#000000" stroke-width=".56731" stroke-miterlimit="10" />
        <path id="path749" d="m336.87 725.77c-0.898-2.756-1.742-9.281-1.755-13.567l-0.011-3.753 2.632-0.36c1.448-0.199 3.611-0.361 4.808-0.361 2.144 0 2.171 0.027 1.848 1.844-1.565 8.805-4.564 17.375-6.256 17.876-0.361 0.107-0.93-0.649-1.266-1.679z" fill="#ffffff" stroke="#000000" stroke-width=".56731" stroke-miterlimit="10" />
        <path id="path751" d="m338.11 699.33c-1.745-1.109-1.842-5.729-0.209-9.965 0.533-1.381 0.756-1.513 1.504-0.892 1.597 1.325 2.507 3.834 2.507 6.911 0 3.851-1.501 5.409-3.802 3.946z" fill="#ffffff" stroke="#000000" stroke-width=".56731" stroke-miterlimit="10" />
        <path id="path753" d="m343.02 684.71c-0.408-0.49-1.651-1.37-2.764-1.954-2.448-1.285-5.536-3.759-5.144-4.121 0.156-0.144 1.486-0.436 2.955-0.649l2.672-0.388 2.016 4.002c1.872 3.718 1.998 5.199 0.265 3.11z" fill="#ffffff" stroke="#000000" stroke-width=".56731" stroke-miterlimit="10" />
        <path id="path755" d="m346.5 676.62c-1.271-2.716-1.278-2.841-0.395-6.96 0.495-2.308 1.264-5.472 1.71-7.032 0.789-2.764 0.811-2.604 0.852 6.24 0.023 4.993-0.164 9.401-0.415 9.797-0.31 0.488-0.872-0.168-1.752-2.045z" fill="#ffffff" stroke="#000000" stroke-width=".56731" stroke-miterlimit="10" />
        <path id="path757" d="m329.46 686.95 0.023-6.736 1.701 1.986c2.334 2.724 2.513 3.941 1.072 7.29-2.339 5.437-2.822 4.999-2.796-2.54z" fill="#ffffff" stroke="#000000" stroke-width=".56731" stroke-miterlimit="10" />
        <path id="path759" d="m341.63 638.52c-0.448-0.724 1.432-0.724 2.553 0 0.665 0.43 0.518 0.552-0.676 0.559-0.84 4e-3 -1.684-0.247-1.877-0.559z" fill="#ffffff" stroke="#000000" stroke-width=".56731" stroke-miterlimit="10" />
        <path id="path761" d="m340.88 648.12c0.104-0.712 0.53-1.407 0.946-1.544 0.515-0.17 0.697 0.165 0.568 1.045-0.105 0.713-0.53 1.408-0.947 1.545-0.514 0.17-0.696-0.166-0.567-1.046z" fill="#ffffff" stroke="#000000" stroke-width=".56731" stroke-miterlimit="10" />
        <path id="path765" d="m336.54 669.18c-0.499-0.807 0.137-1.732 1.191-1.732 0.497 0 0.782 0.399 0.675 0.946-0.221 1.139-1.353 1.616-1.866 0.786z" fill="#ffffff" stroke="#000000" stroke-width=".56731" stroke-miterlimit="10" />
        <path id="path767" d="m298.62 772.12c0.231-1.56 0.417-4.435 0.414-6.388-5e-3 -3.026 0.11-3.436 0.779-2.767 0.652 0.652 0.672 1.537 0.115 5.206-0.368 2.432-0.908 4.953-1.199 5.603-0.353 0.791-0.39 0.244-0.109-1.654z" fill="#ffffff" stroke="#000000" stroke-width=".56731" stroke-miterlimit="10" />
        <path id="path769" d="m285.5 758.26c0.978-0.944 3.955-0.986 3.375-0.048-0.193 0.312-1.152 0.568-2.132 0.568-1.094 0-1.574-0.201-1.243-0.52z" fill="#ffffff" stroke="#000000" stroke-width=".56731" stroke-miterlimit="10" />
        <path id="path777" d="m242.7 737.87c-1.158-0.325-1.231-0.479-0.511-1.077 0.681-0.565 1.033-0.483 1.865 0.436 1.07 1.182 0.887 1.268-1.354 0.641z" fill="#ffffff" stroke="#000000" stroke-width=".56731" stroke-miterlimit="10" />
        <path id="path779" d="m240.08 746.87c-0.463-0.749 0.215-1.811 0.89-1.394 0.689 0.426 0.685 1.961-6e-3 1.961-0.294 0-0.692-0.255-0.884-0.567z" fill="#ffffff" stroke="#000000" stroke-width=".56731" stroke-miterlimit="10" />
        <path id="path781" d="m232.73 767.32c-0.498-0.807 0.138-1.732 1.191-1.732 0.498 0 0.782 0.399 0.676 0.946-0.221 1.139-1.354 1.616-1.867 0.786z" fill="#ffffff" stroke="#000000" stroke-width=".56731" stroke-miterlimit="10" />
        <path id="path785" d="m286.04 767.86c-0.414-0.669 0.123-1.702 0.884-1.702 0.294 0 0.534 0.511 0.534 1.135 0 1.197-0.825 1.527-1.418 0.567z" fill="#ffffff" stroke="#000000" stroke-width=".56731" stroke-miterlimit="10" />
        <path id="path787" d="m287.72 789.39c-0.531-0.86 0.91-2.428 1.599-1.739 0.636 0.636 0.141 2.331-0.681 2.331-0.303 0-0.716-0.266-0.918-0.592z" fill="#ffffff" stroke="#000000" stroke-width=".56731" stroke-miterlimit="10" />
    </g>
</svg>
