<?xml version='1.0' encoding='utf-8'?>
<svg id="svg287" width="811pt" height="750pt" version="1.0" viewBox="0 0 811 750" xmlns="http://www.w3.org/2000/svg">
    <g id="outlines">
        <path id="path255" d="m382.2 36c-90.8 7.2-171.2 42.5-233 102.5-47.4 45.9-78.7 101.8-91.6 163.3-4.7 22.4-6 35.9-6 62.7s1.3 40.3 6 62.7c20.5 97.9 88.6 181.9 185.4 228.7 40.3 19.4 78.4 30.3 124.5 35.7 20.8 2.5 65.2 2.5 86 0 46.1-5.4 84.2-16.3 124.5-35.7 36.4-17.6 65.4-37.8 93.8-65.4 47.4-45.9 78.7-101.8 91.6-163.3 4.7-22.4 6-35.9 6-62.7s-1.3-40.3-6-62.7c-18.3-87.5-75-164.5-157.2-213.7-45.1-27-97.5-44.4-152.2-50.6-16.4-1.9-56.3-2.7-71.8-1.5zm72.3 14.4c103.1 13.1 190.8 63.7 247.4 142.8 35.4 49.6 55.1 110.8 55.1 171.3 0 95.1-46.3 184.1-127.5 245-50.9 38.2-111.8 61.8-180 69.7-14.4 1.7-63.6 1.7-78 0-97.8-11.3-182.1-55.9-239.6-126.7-80-98.3-90.1-230.9-26-338.8 25.9-43.5 64.7-82.9 109.3-110.6 45.3-28.4 103.2-48 155.8-53 6.3-0.6 13.1-1.3 15-1.5 8-0.9 57.2 0.4 68.5 1.8z" fill="#000000" stroke="#000000" stroke-width="0.5" stroke-miterlimit="10" />
        <path id="path257" d="m421.3 152.5c-15.9 3.6-31.3 12.9-46.5 27.9-8.4 8.3-10.9 13.7-14.3 30.1-1.5 7.2-3.4 14.4-4.2 16.2-1.7 3.6-4.3 5-5.5 2.9-0.4-0.8-1.6-1.2-2.7-0.9-2.2 0.6-4.8-0.7-20-9.9-20.7-12.4-45.9-17.8-73.9-15.7-40.7 3-57.3 9.5-80.6 31.9-10.9 10.4-16.4 17.5-22.1 28.3-5.9 11.1-7.5 18.2-7.5 34.7s1.6 26.9 8 51.6c8.1 31.5 13.5 43.9 23.6 53.9 11.8 11.9 32.6 17.8 66.9 19.2 19.7 0.7 37-0.8 47.2-4.2 9-3.1 24-10.6 35.3-17.7l8.5-5.4 0.1 14.6c0 13.1 0.3 15.3 2.8 23 12.4 37.6 49.1 73 96.7 93.3 50.8 21.6 102.9 23.5 139.9 5 10-5 12.6-6.8 20-14.3 9.9-9.8 15-19 17.6-31.1 2-9.4 1.3-24.6-1.6-34.7-4.4-15.5-14.9-33.3-28.2-47.7l-7.4-8 1.3-5.5c2.1-9.2 6.2-39.9 7.8-57.7 1.7-19 1.9-42.3 0.5-53.1-2.7-21-10.7-47.5-20.1-67.1-18-37.4-35.9-51.3-75.9-58.6-13-2.4-56.7-3.1-65.7-1zm68.4 9.9c28.6 6.1 42.2 14.6 55.6 34.7 10.3 15.6 19.6 38.3 25.7 63 4.4 17.9 5.4 28.7 4.7 49.9-0.6 16.7-3 43.6-4 44.6-0.2 0.2-0.7-6.7-1-15.5-0.7-19.3-1.9-23.1-7-23.1-4 0-5.1 1.1-13.7 13.8-9.9 14.6-13.6 18.2-24.2 23.5l-9.4 4.8-6.5-2.9c-3.5-1.6-10.9-4.4-16.3-6.2l-9.9-3.3 6.9-1.7c32.3-8.2 56.3-31.5 65-63 2.5-8.9 2.4-28.9 0-37.9-7.9-29-31.3-51.2-62.3-58.8-10.4-2.5-31.3-2.3-42.7 0.5-30.8 7.7-55.8 30.3-64.5 58.5-6.5 21.2-3.9 44.3 7.1 63.2 5.1 8.7 19.1 22.7 27.7 27.7l6.3 3.6-4.4 0.5c-8.9 1-27.4 3.7-29.3 4.2-1.6 0.5-2.5-0.4-4.8-4.4-2.8-5.1-6.9-9.1-9.3-9.1-0.8 0-1.3-0.3-1.3-0.8 0.5-2.8-0.2-4-2.2-3.5-1.6 0.4-2 1.2-1.6 2.9 0.2 1.4-0.2 2.9-1 3.6-2.4 2-5 7.9-6.8 15.8-1.7 7.2-2 7.7-6.7 10.9-5.9 4.1-13.9 12.7-17.4 18.8-4.6 7.8-37 27.8-54.4 33.7-26.7 8.9-83.1 4.2-101.5-8.4-8.1-5.6-14.7-15.6-19.7-29.9-3.2-9.4-11.7-43-13.3-53.1-1.8-11.1-2-29.6-0.4-37.2 1.5-7.3 6.8-18 12.8-26 10.7-14.1 28.4-29.3 40.9-35 19.3-8.8 58.8-12.6 81.8-7.9 16.8 3.5 24.7 6.6 39.6 15.6 7.6 4.6 15.2 8.6 16.9 9s3.3 1.3 3.6 2.1c0.7 1.9 3.9 1.8 4.7-0.1 0.3-0.8 1.2-1.5 1.9-1.5 2.2 0 6.6-3.8 8.3-7.2 0.8-1.6 2.9-9.1 4.5-16.6 3.8-17.8 6.1-22.5 15.5-30.9 13.1-11.7 22.1-17.3 34.5-21.2 9.5-3 9.5-3 35.4-2.6 21.3 0.3 25.4 0.6 36.2 2.9zm3.3 30.5c25.8 6.8 45 24.2 52.9 47.8 8.3 24.7 2.4 50.5-16.3 70.9-26.8 29.4-73.4 35.8-106 14.4-30.9-20.3-41.4-57.7-25.5-90.3 16.4-33.8 57.9-52.5 94.9-42.8zm70.6 168.6 0.7 26-3.7-2.9c-6.6-5-18.9-13.2-26.3-17.5-4-2.3-7.3-4.4-7.3-4.6s2.7-1.8 6-3.6c8.9-4.7 13-8.8 21.1-20.6l7.4-10.8 0.6 4c0.4 2.2 1.1 15.7 1.5 30zm-182-19.3c1.8 3.5 1.9 3.3-3 5.3l-3.9 1.6 0.6-2.8c1-4.9 2.7-8.4 3.7-7.8 0.6 0.3 1.7 2 2.6 3.7zm79.4 0.7c78.9 13.7 146.2 70.8 148.7 126.1 0.9 17.6-4.4 32.3-16 44.7-16.4 17.5-40.5 26.8-72.7 28-59.7 2.3-126-27.4-162.5-72.7-32.4-40.2-31.2-85.2 3-109.5 12.9-9.3 32.1-16.2 51-18.4 11.5-1.4 35.1-0.5 48.5 1.8z" fill="#000000" stroke="#000000" stroke-width="0.5" stroke-miterlimit="10" />
        <path id="path259" d="m245.1 231.5c-21.2 4.6-40.7 16.3-53 31.8-6.7 8.3-13.7 22.3-16.2 32.6-1.8 7-2.1 10.6-1.7 21.5 0.4 11.4 0.8 14.2 3.5 21.8 9.6 27.5 33 47.2 63.2 53.3 10.2 2.1 31.2 1.6 40.6-0.9 21.5-5.8 41.4-19.4 52.7-35.9 9.2-13.4 13.6-26.4 14.5-42.2 2.2-39.2-25.5-73.6-65.9-81.9-9.5-2-28.8-2-37.7-0.1zm37.9 8.5c35.3 8.4 60.1 40 57.7 73.5-2.4 31.4-24.1 58.2-55.7 68.3-11.1 3.6-18.3 4.5-30.3 3.9-29.5-1.5-53.3-16.3-65.7-40.9-10.4-20.7-9.2-46.2 3.1-67 17.7-30 56.2-46 90.9-37.8z" fill="#000000" stroke="#000000" stroke-width="0.5" stroke-miterlimit="10" />
        <path id="path261" d="m243.5 259.4c-7.8 2.5-15 6.9-21.1 13-25.1 25.2-20.1 72.6 9.9 93.6 9 6.4 16.3 9.1 26.2 9.7 15.1 1 27.4-3.6 38.1-14.2 17.5-17.5 21.3-46.3 9.4-71-6.8-14.3-20.2-26.3-33.9-30.5-7.4-2.3-22.2-2.6-28.6-0.6zm31.8 10.9c8.9 4.4 18.7 14.2 23 23 3.6 7.4 6.7 19.6 6.7 26.1-0.1 12.1-5.3 26.5-12.7 34.7-16.8 18.6-43.4 18.3-61.9-0.6-21.2-21.6-21.3-57.8-0.2-77.2 8.7-7.9 15.8-10.4 28.4-10 8.3 0.3 9.9 0.7 16.7 4z" fill="#000000" stroke="#000000" stroke-width="0.5" stroke-miterlimit="10" />
        <path id="path263" d="m352.3 244.7c-1.8 0.7-1.6 3.2 0.2 3.9 2.1 0.8 3.4-0.3 2.8-2.6-0.5-2.1-0.9-2.2-3-1.3z" fill="#000000" stroke="#000000" stroke-width="0.5" stroke-miterlimit="10" />
        <path id="path265" d="m354.7 252.8c-1.2 0.2-1.6 0.9-1.3 1.9 0.3 0.8 0.6 1.7 0.6 1.9s0.9 0.4 2 0.4c2 0 2.6-1.6 1.2-3.5-0.4-0.6-1.5-0.9-2.5-0.7z" fill="#000000" stroke="#000000" stroke-width="0.5" stroke-miterlimit="10" />
        <path id="path267" d="m356.9 260.7c-2.3 0.6-1.2 4.3 1.2 4.3 1.2 0 1.9-0.7 1.9-1.9 0-2.3-0.8-2.9-3.1-2.4z" fill="#000000" stroke="#000000" stroke-width="0.5" stroke-miterlimit="10" />
        <path id="path269" d="m359.3 268.7c-2 0.8-1.6 4.3 0.5 4.3 2.5 0 3.1-0.7 2.5-3.1-0.5-2-0.9-2.1-3-1.2z" fill="#000000" stroke="#000000" stroke-width="0.5" stroke-miterlimit="10" />
        <path id="path271" d="m361.7 276.8c-1.1 0.2-1.7 1.1-1.5 2 0.4 2 4.8 3 4.8 1 0-2.2-1.4-3.4-3.3-3z" fill="#000000" stroke="#000000" stroke-width="0.5" stroke-miterlimit="10" />
        <path id="path273" d="m363.7 284.8c-1.2 0.2-1.6 0.9-1.3 1.9 0.3 0.8 0.6 1.7 0.6 1.9s0.9 0.4 2 0.4c1.3 0 2-0.7 2-1.9 0-2.3-0.8-2.9-3.3-2.3z" fill="#000000" stroke="#000000" stroke-width="0.5" stroke-miterlimit="10" />
        <path id="path275" d="m366.3 292.7c-2.2 0.8-1.5 4.3 0.7 4.3 1.3 0 2-0.7 2-1.9 0-2.2-0.9-3-2.7-2.4z" fill="#000000" stroke="#000000" stroke-width="0.5" stroke-miterlimit="10" />
        <path id="path277" d="m368.7 300.8c-2.5 0.5-1.7 3.6 1.1 4 1.2 0.2 2.2 0 2.1-0.5-0.2-2.3-1.6-3.8-3.2-3.5z" fill="#000000" stroke="#000000" stroke-width="0.5" stroke-miterlimit="10" />
        <path id="path279" d="m370.7 308.8c-1.2 0.2-1.6 0.9-1.3 1.9 0.3 0.8 0.6 1.7 0.6 1.9s0.9 0.4 2 0.4c2 0 2.6-1.6 1.2-3.5-0.4-0.6-1.5-0.9-2.5-0.7z" fill="#000000" stroke="#000000" stroke-width="0.5" stroke-miterlimit="10" />
        <path id="path281" d="m372.9 316.7c-2.3 0.6-1.2 4.3 1.2 4.3 1.2 0 1.9-0.7 1.9-1.9 0-2.3-0.8-2.9-3.1-2.4z" fill="#000000" stroke="#000000" stroke-width="0.5" stroke-miterlimit="10" />
        <path id="path283" d="m454.6 209.6c-18.6 4.5-34.5 21.1-39.2 41-2.1 8.9-1.4 23.5 1.5 31.7 5.1 14.6 15.5 26.7 28.2 33 9.2 4.5 14.2 5.7 24.4 5.7 15.5 0 26.2-4.5 37.1-15.4 12.1-12.1 17.2-26 16.1-43.9-0.7-11.5-3.5-19.7-9.9-29.2-12.7-19.1-36.1-28.3-58.2-22.9zm23.9 7.9c22.3 5.9 37.7 27.6 36.2 51-1.1 18-10.6 32.3-26.3 40.1-17.1 8.5-37.7 4.5-51.9-10-19.2-19.6-19.2-50.1-0.1-69.2 11.6-11.5 26.9-15.8 42.1-11.9z" fill="#000000" stroke="#000000" stroke-width="0.5" stroke-miterlimit="10" />
    </g>
    <g id="vn_mpg">
        <path id="path295" d="m500.98 540.84c-66.297-5.332-133.41-46.357-156.83-95.868-6.391-13.508-8.033-20.623-8.038-34.816-4e-3 -11.291 0.194-12.725 2.747-19.871 7.994-22.377 26.986-37.452 57.219-45.42 36.41-9.595 85.39-1.958 128.37 20.018 75.513 38.608 107.43 109.69 67.281 149.82-7.067 7.064-11.905 10.503-21.552 15.316-17.283 8.625-44.181 12.83-69.195 10.818z" fill="#ffffff" stroke="#ffffff" stroke-width=".90144" stroke-miterlimit="10" />
    </g>
    <g id="sc_mpg">
        <path id="path300" d="m256.76 366.86c-9.59-1.497-16.025-4.829-24.249-12.554-7.038-6.61-11.768-14.057-14.581-22.954-4.512-14.273-3.666-28.249 2.474-40.889 3.843-7.91 13.077-17.347 20.275-20.719 4.819-2.257 6.178-2.465 16.081-2.465 9.552 0 11.391 0.258 15.719 2.212 18.43 8.317 31.607 29.349 31.607 50.449 0 28.38-22.595 50.781-47.326 46.92z" fill="#ffffff" stroke="#ffffff" stroke-width=".90144" stroke-miterlimit="10" />
        <path id="path302" d="m254.51 385.26c-20.248-2.103-33.306-7.014-46.098-17.337-10.894-8.791-18.949-20.928-23.441-35.318-2.943-9.431-2.969-26.081-0.055-36.295 3.746-13.134 10.639-24.531 20.588-34.041 7.247-6.927 11.955-10.255 20.611-14.573 12.746-6.356 24.45-9.099 38.762-9.083 33.639 0.038 62.121 20.474 72.729 52.185 1.751 5.235 2.085 8.107 2.088 17.951 3e-3 13.925-1.304 19.67-7.217 31.711-10.725 21.841-31.029 37.541-55.667 43.043-6.202 1.386-17.393 2.267-22.3 1.757zm19.807-10.327c17.621-4.06 33.006-20.904 37.486-41.043 2.045-9.192 1.407-24.283-1.406-33.254-5.368-17.124-16.148-30.415-30.687-37.839-7.761-3.964-14.859-5.266-26.367-4.84-8.967 0.331-9.78 0.532-17.311 4.264-13.587 6.732-22.837 17.932-27.634 33.457-1.726 5.584-2.083 8.723-2.053 18.029 0.042 13.258 1.429 19.372 6.949 30.649 6.685 13.654 21.627 26.531 34.937 30.108 5.751 1.545 20.281 1.807 26.086 0.469z" fill="#ffffff" stroke="#ffffff" stroke-width=".90144" stroke-miterlimit="10" />
        <path id="path304" d="m450.12 336.34c-26.641-5.844-48.065-24.992-56.095-50.137-2.576-8.065-3.161-24.427-1.191-33.282 3.16-14.205 9.225-25.5 19.333-36.004 10.504-10.916 23.662-18.749 38.855-23.131 9.643-2.781 26.871-3.427 37.025-1.388 35.915 7.213 60.679 35.925 60.691 70.367 6e-3 19-7.384 36.027-22.039 50.775-9.97 10.035-24.164 18.149-38.267 21.877-10.394 2.747-28.056 3.173-38.312 0.923zm34.631-16.872c7.706-1.884 14.457-6.098 22.179-13.844 11.358-11.395 16.176-23.22 16.176-39.704 0-19.075-7.941-35.962-21.872-46.514-10.625-8.048-21.302-11.62-34.437-11.521-14.714 0.111-25.659 4.803-36.522 15.659-11.4 11.393-16.193 23.138-16.188 39.672 3e-3 11.783 1.641 18.912 6.484 28.22 5.543 10.655 14.081 18.968 25.078 24.417 12.129 6.011 24.592 7.163 39.102 3.615z" fill="#ffffff" stroke="#ffffff" stroke-width=".90144" stroke-miterlimit="10" />
        <path id="path306" d="m462.29 311.88c-23.019-4.62-39.617-25.104-39.428-48.658 0.135-16.978 8.855-31.853 23.989-40.924 28.889-17.314 67.334 7.345 67.258 43.142-0.029 13.978-4.69 24.997-14.48 34.232-10.969 10.348-24.526 14.78-37.339 12.208z" fill="#ffffff" stroke="#ffffff" stroke-width=".90144" stroke-miterlimit="10" />
    </g>
</svg>
