<?xml version='1.0' encoding='utf-8'?>
<svg id="svg1430" width="75" height="75" version="1.0" viewBox="0 0 760 720" xmlns="http://www.w3.org/2000/svg">
    <g id="outlines">
        <path id="path1396" d="m356.5 26.6c-78.3 5.2-149.7 31.9-210.5 79-14.5 11.2-46 42.5-56.8 56.5-37.1 48.1-57.9 97.2-65.9 155.9-2.3 17.3-2.3 57.7 0 75 8 58.7 28.8 107.8 65.9 155.9 10.8 14 42.3 45.3 56.8 56.5 56 43.4 117.8 68.4 191 77.2 17.6 2.2 63.5 2.5 81 0.6 74.6-8 138.9-33.6 196-77.8 14.5-11.2 46-42.5 56.8-56.5 32.5-42.1 53-86.5 62.6-135.4 3.8-19.6 5-32.8 5-58s-1.2-38.4-5-58c-9.6-48.9-30.1-93.3-62.6-135.4-10.8-14-42.3-45.3-56.8-56.5-55.7-43.2-118.3-68.6-190-77.1-13-1.5-54.9-2.7-67.5-1.9zm71.1 15.3c95.7 12.9 179.3 59.4 234.6 130.6 41.3 53.1 63.8 117.6 63.8 183 0 138-98 260.1-242.1 301.9-17.7 5.1-40.2 9.7-60.4 12.3-19.8 2.5-67.2 2.5-87 0-98.2-12.6-182.6-58.9-238.7-131.2-57.1-73.4-77.2-166.5-54.8-254.5 23.2-91.5 90.6-169.7 182.5-211.7 39.2-17.9 83-29 129-32.7 13.4-1.1 58.5 0.4 73.1 2.3z" fill="#000000" stroke="#000000" stroke-width="0.5" stroke-miterlimit="10" />
        <path id="path1398" d="m398.3 142c-19.9 2.5-39.3 13.4-56 31.3-7.2 7.7-9.4 12.8-12.8 29.9-2.8 13.4-4.6 17.8-7.5 17.8-1.1 0-2-0.5-2-1.1 0-0.7-0.9-0.9-2.1-0.6-2.5 0.7-6.9-1.4-16.9-7.8-11.2-7.2-18.1-10.2-30.1-13.4-16.2-4.1-28.2-5.5-42.4-4.7-42.7 2.3-61.2 9.3-85.1 31.9-32.9 31.1-37.5 57.1-21 118.7 6 22.5 10 32.9 15.9 41.7 10.2 15.3 23.5 21.9 51.7 25.9 14 2 45 2.2 56.5 0.4 13.7-2.1 29.6-8.9 47.9-20.4 4.9-3.1 9-5.5 9.1-5.4 0.2 0.2-0.2 3.4-0.7 7.3-1.2 8.3 0.2 21.1 3.3 30.6 17 52.9 83.1 99.4 154.9 109 12.3 1.6 36.7 1.4 48.2-0.5 37-6.1 63.2-25.9 70.2-53.2 2.1-8.1 2.1-24.4 0-33.7-4.1-17.9-15.7-37.7-32.1-54.8l-4.4-4.5 1.5-7c7.6-36.5 11.2-94.6 7.2-115.9-4.7-24.7-13.1-50.3-22.3-67.5-17.8-33.3-37.6-46.8-77.3-52.5-12.9-1.9-43.9-2.7-53.7-1.5zm39.2 8.1c22.1 1.9 42.8 7.4 54.5 14.4 6.6 4 17 14.6 22.9 23.4 6.6 9.7 14.6 27.1 20 43.7 9.3 28.2 11.7 46.7 10 75.4-1.1 19.9-3.6 42.1-3.8 35-0.5-13.4-2.1-31.2-3.1-33-1.5-2.7-5.5-3.6-8.3-1.7-1.3 0.8-6.1 6.9-10.6 13.6-4.6 6.6-10 13.6-12.2 15.5-4.5 4.1-18.6 11.4-27.9 14.4-24.9 8.2-77.7 10.9-97.2 5-5.9-1.7-12.6-8.4-18.2-17.9-7.6-13.1-9.9-16.2-12.8-17.3-1.6-0.6-2.8-1.5-2.8-2.1 0-2.1-1.7-3.5-3.4-2.9-1.1 0.4-1.5 1.3-1 2.6 0.4 1.3-0.1 2.8-1.4 4.1-3.2 3.6-4.2 6.2-7.3 20-1.6 7.3-4 15.2-5.2 17.7-2.1 4.2-2.7 4.6-9.7 7-5.3 1.8-11.8 5.3-22 12.2-16.7 11.2-31.1 18.8-42.1 22.3-10.7 3.3-31 4.8-49.4 3.5-44.8-3.2-59.8-12.2-70.1-42.3-4.1-11.7-12.1-44.4-13.8-55.8-3.7-24.6-0.6-41.4 10.6-57.6 8.8-13 30-31.6 42.4-37.5 16-7.5 52.8-12.5 72.7-9.9 9.4 1.3 25.6 5.1 32.2 7.7 2.2 0.9 9.9 5.1 17 9.4 7.2 4.3 14.7 8.4 16.9 9.1 2.1 0.8 4.1 2 4.3 2.6 0.6 1.6 1.8 1.6 3.5 0 0.7-0.6 2.9-2 4.9-2.9 4.8-2.2 7.3-7.4 9.9-20.8 3.8-18.9 5.3-22.4 13.4-30.3 25-24.3 44.7-30.3 87.1-26.6zm95.4 197.8c0.6 16.2 1 29.6 0.8 29.8s-2.1-1.1-4.3-2.8c-5.9-4.7-18-12.8-26.2-17.5l-7.3-4.2 6.7-3.7c9.3-5.2 13.2-9.1 21.5-21.1 3.9-5.8 7.2-10.4 7.4-10.2s0.9 13.6 1.4 29.7zm-182-15.4 2.1 3.6-4.3 1.8c-2.3 1-4.4 1.7-4.6 1.5-0.6-0.5 3-10.4 3.9-10.4 0.4 0 1.7 1.6 2.9 3.5zm8.5 14.2c11.6 17.7 21.9 21 62.5 20 27.4-0.7 44.3-3 60.2-8.3l11.2-3.8 6.5 3.4c14 7.3 34.2 22 34.2 24.9 0 3.1 3.1 6.3 5.6 5.8 2-0.3 3.6 0.8 8.1 5.7 14.1 15.2 25.3 34.3 29.3 50 2.5 9.8 2.7 25.5 0.5 34.1-2.9 11-7.3 18.4-16.5 27.5-9.4 9.4-19.9 15.7-34.1 20.3-24.7 8.1-58.8 8-91.3-0.2-77.2-19.6-137.8-81.6-130.7-133.8 0.9-6.6 1.5-8.2 3.9-10.1 3.7-3.2 9.6-6.1 15.6-7.9 2.8-0.8 6.3-2.4 7.8-3.4 3.6-2.6 7.3-10.6 9.4-20.3l1.6-7.8 5.2-2.4c2.8-1.3 5.3-2 5.7-1.6 0.3 0.4 2.7 3.9 5.3 7.9z" fill="#000000" stroke="#000000" stroke-width="0.5" stroke-miterlimit="10" />
        <path id="path1400" d="m424.6 174.5c-29.5 6.1-53 24-65 49.6-5.7 11.9-7.1 18.6-7.1 33.9 0 11.4 0.4 14.7 2.3 21 7 22.4 23.1 40.6 44.4 50.4 18.1 8.4 41.6 10.3 62.2 5 13.9-3.5 32.7-14.5 42.2-24.6 9.3-9.9 16.6-22.1 20.4-34.3 3-9.5 3.8-28.2 1.7-38.2-5.4-25.1-21.6-45-45.9-56.2-4.5-2.1-11.2-4.6-14.8-5.6-8.9-2.3-31.3-2.9-40.4-1zm31.8 8c48.7 8.5 75.8 56.6 56 99.3-14 30.5-44.4 48.5-79.3 46.9-13.2-0.5-20.4-2.2-31.1-7.3-19.7-9.3-34.1-26.1-39.6-46.4-2.4-8.8-2.4-26.2 0-35 10.8-39.4 52.3-64.8 94-57.5z" fill="#000000" stroke="#000000" stroke-width="0.5" stroke-miterlimit="10" />
        <path id="path1402" d="m428.2 199.1c-27.2 4.7-47 31.1-44.8 59.4 1.2 15 6.9 27 17.7 37.7 16.7 16.5 40.5 20.4 61.9 10.1 8-3.8 19.8-16 23.9-24.6 8-16.8 7.9-34.1-0.4-51.5-6.1-12.9-19.9-25.1-33-29.1-7.8-2.4-18.4-3.3-25.3-2zm21.9 9.9c12.1 3.7 21.8 11.8 27.8 23 4.5 8.3 6.1 14.9 6.1 24.6 0 23.7-15.5 42.5-38.2 46.4-22.5 3.9-46.2-12.2-52.3-35.5-5.8-22.6 4.2-45.9 24.1-55.9 9.9-5 21.8-5.9 32.5-2.6z" fill="#000000" stroke="#000000" stroke-width="0.5" stroke-miterlimit="10" />
        <path id="path1404" d="m221.2 221c-52.7 7.4-88 55.7-75.7 103.5 2.2 8.7 9.6 23 15.5 30.2 16.7 20.1 44.4 31.6 72.4 30 39.9-2.4 73.2-28.8 82.7-65.6 2.7-10.5 2.7-27.8 0-38.2-7.3-28.6-31.6-51.4-61.8-58.3-8.8-2-24.8-2.8-33.1-1.6zm29.9 9.4c33.5 7.1 57.3 34.2 58.6 66.6 0.6 13-1.1 21.9-6.5 33.2-10.1 21.6-30.6 38-54.7 43.9-12.2 3-29.6 3-40.9 0-42.9-11.5-66.1-52.4-52.2-92.2 8.8-25.4 32-45.2 60.1-51.4 8-1.8 27.4-1.8 35.6-0.1z" fill="#000000" stroke="#000000" stroke-width="0.5" stroke-miterlimit="10" />
        <path id="path1406" d="m214.3 249.5c-17.6 4.8-31.7 19.7-36.8 39-2 7.7-2.1 24.1 0 32 8.2 31.9 38 52.2 66 45 8.7-2.3 15.3-6.2 22.5-13.5 10.8-10.8 16.3-24.8 16.3-41.5 0-39.2-34.4-70-68-61zm24.9 9.1c19.8 6.3 34.7 28.7 34.8 51.9 0 18.9-9.8 36.3-24.6 43.6-24.5 12.1-52.7-2.7-63-33.1-2.8-8.1-2.5-26.3 0.4-34.4 8.6-23.5 30.2-35 52.4-28z" fill="#000000" stroke="#000000" stroke-width="0.5" stroke-miterlimit="10" />
        <path id="path1408" d="m321.4 235.6c-0.7 0.3-1 1.4-0.7 2.5 0.7 2.5 3.8 2.1 3.8-0.5 0-2-1.2-2.8-3.1-2z" fill="#000000" stroke="#000000" stroke-width="0.5" stroke-miterlimit="10" />
        <path id="path1410" d="m323.7 243.7c-1 1-0.8 4.3 0.2 4.3 2.4 0 3.8-1.3 3.4-3.1-0.5-1.9-2.3-2.5-3.6-1.2z" fill="#000000" stroke="#000000" stroke-width="0.5" stroke-miterlimit="10" />
        <path id="path1412" d="m325.4 252.5c-0.6 1.5 0.2 3.5 1.4 3.5 1.8-0.1 3.2-1.8 2.6-3.3-0.8-2.1-3.3-2.2-4-0.2z" fill="#000000" stroke="#000000" stroke-width="0.5" stroke-miterlimit="10" />
        <path id="path1414" d="m328.2 259.8c-1.7 1.2-0.4 4.4 1.7 4 1.7-0.4 2.2-3.9 0.6-4.5-0.5-0.1-1.6 0.1-2.3 0.5z" fill="#000000" stroke="#000000" stroke-width="0.5" stroke-miterlimit="10" />
        <path id="path1416" d="m330.4 267.6c-0.7 0.3-1 1.4-0.7 2.5 0.7 2.6 3.7 2 4.1-0.9 0.3-2.1-0.8-2.7-3.4-1.6z" fill="#000000" stroke="#000000" stroke-width="0.5" stroke-miterlimit="10" />
        <path id="path1418" d="m332.3 276.6c-0.7 2 0.9 3.6 2.9 2.9 1-0.4 1.4-1.4 1.1-2.6-0.6-2.3-3.1-2.5-4-0.3z" fill="#000000" stroke="#000000" stroke-width="0.5" stroke-miterlimit="10" />
        <path id="path1420" d="m335.2 283.8c-1.5 1-0.5 4.2 1.3 4.2s2.6-1.5 1.9-3.4c-0.7-1.8-1.3-1.9-3.2-0.8z" fill="#000000" stroke="#000000" stroke-width="0.5" stroke-miterlimit="10" />
        <path id="path1422" d="m337.4 291.6c-0.7 0.3-1 1.4-0.7 2.5 0.7 2.5 3.8 2.1 3.8-0.5 0-2-1.2-2.8-3.1-2z" fill="#000000" stroke="#000000" stroke-width="0.5" stroke-miterlimit="10" />
        <path id="path1424" d="m339.7 299.7c-1 1-0.8 4.3 0.2 4.3 2.4 0 3.8-1.3 3.4-3.1-0.5-1.9-2.3-2.5-3.6-1.2z" fill="#000000" stroke="#000000" stroke-width="0.5" stroke-miterlimit="10" />
        <path id="path1426" d="m342.1 307.9c-1.7 1.1-0.7 4.1 1.3 4.1 1.9 0 2.8-1.4 2-3.4-0.7-1.8-1.3-1.9-3.3-0.7z" fill="#000000" stroke="#000000" stroke-width="0.5" stroke-miterlimit="10" />
    </g>
    <g id="tcp">
        <path id="path1438" d="m357.93 670.64c-72.815-2.799-153.34-33.87-209.42-80.808-13.298-11.13-23.7-21.02-33.439-31.794-44.721-49.476-71.129-106.59-78.763-170.35-1.984-16.57-1.9978-48.71-0.0276-64.551 10.961-88.129 57.786-164.49 134.01-218.53 48.398-34.315 107.86-56.141 172.93-63.482 13.601-1.5342 39.304-1.7096 62.308-0.425 92.458 5.1629 183.28 48.543 242.62 115.88 43.328 49.169 68.136 104.7 75.996 170.1 1.378 11.461 1.346 45.918-0.053 58.413-7.619 68.043-37.266 129.99-86.208 180.13-54.394 55.724-123.89 90.354-206.4 102.85-9.97 1.511-46.274 3.69-54.952 3.299-1.427-0.064-9.8-0.394-18.605-0.732zm153.5-138.05c37.017-6.471 63.761-28.318 69.031-56.392 0.547-2.914 0.757-10.052 0.503-17.114-0.36-10.03-0.842-13.382-2.797-19.472-4.748-14.787-14.595-31.217-27.228-45.432-3.807-4.284-6.928-8.287-6.935-8.897s0.935-6.256 2.094-12.548c7.205-39.137 9.487-93.17 4.85-114.85-4.587-21.447-12.152-43.975-19.906-59.279-16.739-33.037-35.281-47.239-70.565-54.048-19.974-3.855-59.221-4.568-71.389-1.297-15.611 4.195-29.486 12.554-43.025 25.917-10.622 10.484-12.623 14.321-16.633 31.895-1.504 6.593-3.33 13.475-4.058 15.294-1.304 3.26-3.895 5.274-4.489 3.49-0.168-0.503-1.454-0.915-2.858-0.915-2.994 0-7.509-2.205-19.37-9.459-25.878-15.827-58.744-20.217-99.952-13.35-16.03 2.671-30.652 8.743-42.837 17.788-9.036 6.709-25.381 23.495-30.521 31.345-9.843 15.034-12.766 26.555-12.075 47.598 0.639 19.464 5.825 44.844 14.449 70.713 10.565 31.689 23.365 42.039 59.416 48.043 7.521 1.253 14.257 1.564 33.635 1.556 22.218-9e-3 24.874-0.171 31.968-1.952 12.714-3.193 25.633-9.153 42.865-19.777 4.034-2.486 7.395-4.446 7.469-4.354 0.075 0.092-0.243 2.893-0.707 6.224-1.491 10.7 1.013 26.249 6.252 38.834 19.034 45.722 74.9 85.921 137.26 98.768 5.967 1.229 14.42 2.582 18.784 3.007 10.863 1.057 37.425 0.3 46.767-1.333z" fill="#ffffff" stroke="#000000" stroke-width=".86539" stroke-miterlimit="10" />
        <path id="path1440" d="m474.76 531.68c-40.193-3.366-73.374-14.534-104.71-35.246-39.766-26.283-64.904-63.063-64.904-94.966 0-11.821 1.175-16.727 4.64-19.37 2.871-2.19 11.097-6.131 17.929-8.589 2.18-0.785 5.025-2.534 6.323-3.889 2.994-3.125 6.131-10.726 8.043-19.486l1.492-6.834 4.573-2.094c2.515-1.151 4.974-1.846 5.464-1.543s2.781 3.347 5.09 6.765c4.472 6.616 11.164 13.4 15.363 15.571 1.405 0.727 5.068 2.034 8.141 2.905 4.906 1.391 9.014 1.581 33.711 1.558 35.175-0.032 48.515-1.677 68.827-8.487l8.491-2.847 6.84 3.688c14.965 8.068 33.535 21.971 33.535 25.106 0 1.993 4.05 5.499 6.352 5.499 3.961 0 17.83 16.58 26.461 31.632 13.866 24.183 16.061 48.45 6.179 68.32-10.041 20.189-33.486 35.417-61.923 40.22-9.483 1.602-28.506 2.707-35.915 2.087z" fill="#ffffff" stroke="#000000" stroke-width=".86539" stroke-miterlimit="10" />
        <path id="path1442" d="m524.01 370.38c-5.042-3.638-13.16-8.982-18.039-11.875l-8.872-5.261 6.306-3.682c8.575-5.008 12.329-8.677 20.339-19.874l6.837-9.558 0.606 2.841c0.537 2.521 2.588 53.712 2.161 53.935-0.094 0.049-4.296-2.887-9.338-6.526z" fill="#ffffff" stroke="#000000" stroke-width=".86539" stroke-miterlimit="10" />
        <path id="path1444" d="m344.95 337.52c0-1.927 2.838-7.759 3.559-7.313 0.429 0.265 1.365 1.613 2.081 2.996 1.265 2.447 1.231 2.551-1.262 3.84-2.955 1.528-4.378 1.683-4.378 0.477z" fill="#ffffff" stroke="#000000" stroke-width=".86539" stroke-miterlimit="10" />
        <path id="path1446" d="m199.57 404.07c-39.504-4.362-53.162-13.63-63.031-42.775-6.683-19.734-13.853-52.592-14.575-66.79-0.904-17.795 2.283-30.54 10.898-43.568 7.187-10.869 23.89-26.733 37.212-35.344 12.512-8.087 37.871-13.408 64.112-13.453 12.597-0.021 16.599 0.3 23.798 1.913 18.493 4.142 21.722 5.335 34.869 12.891 17.967 10.326 27.708 15.244 28.958 14.62 9.834-4.908 12.351-9.09 16.2-26.904 3.536-16.366 5.911-21 15.239-29.727 13.669-12.789 25.788-19.698 40.664-23.185 9.45-2.214 39.605-2.223 53.867-0.016 19.736 3.054 36.972 8.48 45.383 14.287 5.022 3.467 13.869 12.377 18.939 19.075 12.276 16.216 25.957 51.963 31.169 81.441 1.529 8.646 1.505 41.679-0.042 58.228-0.658 7.037-1.319 12.671-1.47 12.52-0.15-0.15-0.707-5.519-1.237-11.929-1.26-15.25-1.98-17.952-4.998-18.745-3.057-0.803-5.465-0.413-7.243 1.173-0.788 0.703-4.67 5.826-8.626 11.386-9.321 13.099-13.684 17.704-20.741 21.897-18.955 11.261-41.237 16.091-78.239 16.957-20.836 0.488-31.261-0.301-39.054-2.956-5.965-2.033-11.663-8.169-19.822-21.346-3.791-6.123-7.867-11.737-9.057-12.475-1.19-0.739-3.178-2.51-4.419-3.936-2.594-2.982-5.1-2.7-5.1 0.573 0 1.141-0.789 3.077-1.754 4.303-2.627 3.34-3.96 7.045-6.786 18.862-2.998 12.531-5.607 19.908-7.704 21.784-0.823 0.736-5.001 2.848-9.285 4.692-4.283 1.844-13.435 7.009-20.336 11.477-22.17 14.353-37.323 21.58-50.193 23.938-8.855 1.622-37.072 2.294-47.596 1.132zm52.356-21.913c16.203-4.198 34.01-14.668 44.537-26.185 9.623-10.53 16.871-23.995 20.015-37.187 1.588-6.666 1.777-9.514 1.428-21.528-0.458-15.743-1.718-21.018-7.85-32.863-18.218-35.189-62.159-52.544-103.04-40.696-15.855 4.594-27.544 11.683-39.896 24.194-16.714 16.931-24.102 34.45-24.102 57.153 0 12.205 1.219 18.943 5.125 28.334 11.261 27.073 33.577 44.728 63.809 50.485 9.958 1.896 29.249 1.072 39.976-1.707zm203.05-46.03c14.236-2.697 27.433-8.753 40.458-18.568 13.384-10.085 25.321-27.989 29.403-44.1 6.227-24.575 0.903-50.089-14.496-69.466-12.427-15.638-34.071-27.871-53.333-30.143-13.305-1.569-31.253-0.606-40.558 2.176-15.428 4.613-28.929 12.461-39.555 22.992-9.505 9.422-17.965 22.978-21.882 35.066-4.041 12.467-4.069 34.695-0.059 46.877 9.293 28.236 34.521 49.777 64.709 55.255 8.85 1.605 26.601 1.561 35.312-0.089zm-109.59-26.683c0-2.934-1.15-3.601-3.387-1.965-2.217 1.621-1.101 5.128 1.514 4.756 1.431-0.204 1.873-0.862 1.873-2.791zm-2.546-6.079c1.345-0.999 1.489-1.559 0.721-2.813-1.641-2.675-4.194-1.967-4.504 1.248-0.302 3.134 0.965 3.658 3.783 1.565zm-2.373-9.779c-0.307-2.661-2.991-3.772-3.83-1.586-0.804 2.093 0.275 3.959 2.289 3.959 1.468 0 1.763-0.453 1.541-2.373zm-1.731-7.796c-0.311-2.709-3.583-3.852-4.463-1.56-0.837 2.182 0.327 3.94 2.609 3.94 1.811 0 2.087-0.354 1.854-2.38zm-2.483-6.651c0.766-0.923 0.785-1.703 0.076-3.029-1.066-1.991-1.075-1.995-2.988-1.261-1.361 0.523-1.894 3.854-0.792 4.956 0.953 0.952 2.608 0.655 3.704-0.666zm-2.09-9.229c0.318-1 0.188-2.207-0.287-2.682-1.505-1.505-4.5 0.089-4.5 2.395 0 1.653 0.452 2.105 2.105 2.105 1.379 0 2.304-0.628 2.682-1.818zm-2.346-8.354c0.352-2.481-2.086-3.535-3.925-1.696-1.838 1.838-0.784 4.276 1.696 3.924 1.257-0.179 2.05-0.972 2.229-2.228zm-2.532-6.594c1.445-1.741 0.222-4.003-2.165-4.003-1.724 0-2.071 0.434-2.071 2.596 0 1.962 0.396 2.596 1.625 2.596 0.894 0 2.069-0.535 2.611-1.189zm-1.809-9.302c0.301-2.594-1.923-3.985-3.835-2.399-1.27 1.054-1.585 3.551-0.575 4.561 1.411 1.41 4.151 0.067 4.41-2.162zm-2.427-8.048c0-1.932-1.893-3.07-3.594-2.159-1.963 1.05-2.014 1.985-0.208 3.791 1.073 1.073 1.664 1.161 2.596 0.388 0.663-0.55 1.206-1.459 1.206-2.02z" fill="#ffffff" stroke="#000000" stroke-width=".86539" stroke-miterlimit="10" />
        <path id="path1448" d="m426.25 300.9c-11.968-4.08-22.591-12.954-28.218-23.572-9.848-18.58-6.409-41.877 8.364-56.666 9.437-9.447 20.078-13.535 33.239-12.771 18.693 1.086 34.593 13.521 41.309 32.307 2.516 7.037 3.101 19.642 1.273 27.417-3.908 16.627-16.46 29.694-32.665 34.007-7.007 1.866-16.583 1.569-23.302-0.722z" fill="#ffffff" stroke="#000000" stroke-width=".86539" stroke-miterlimit="10" />
        <path id="path1450" d="m418.86 326.74c-13.078-2.966-25.981-9.932-36.038-19.458-8.305-7.865-13.927-16.154-17.934-26.44l-3.046-7.818 0.014-15.577c0.013-15.446 0.037-15.639 2.803-22.883 4.034-10.563 9.021-18.409 16.953-26.67 11.204-11.67 24.318-19.418 40.229-23.767 8.873-2.425 29.608-2.645 38.518-0.41 34.791 8.731 57.727 36.119 57.758 68.97 0.01 11.627-2.099 20.112-7.854 31.587-7.852 15.656-19.505 27.29-35.074 35.014-13.043 6.471-19.708 7.984-36.779 8.345-10.013 0.212-15.853-0.055-19.55-0.893zm37.092-17.276c10.641-3.572 18.222-9.268 26.315-19.772 15.256-19.802 14.097-50.367-2.692-70.977-15.953-19.585-43.831-26.122-65.514-15.364-32.423 16.087-41.198 59.958-17.688 88.435 14.778 17.9 38.208 24.852 59.579 17.678z" fill="#ffffff" stroke="#000000" stroke-width=".86539" stroke-miterlimit="10" />
        <path id="path1452" d="m225.99 357.35c-16.393-2.739-30.485-15.183-37.754-33.336-3.206-8.006-4.194-19.423-2.578-29.772 3.673-23.512 25.149-40.192 47.014-36.516 9.404 1.581 16.387 5.368 24.096 13.069 7.199 7.191 12.567 16.617 15.054 26.434 1.657 6.54 1.668 20.233 0.022 26.429-3.024 11.378-10.763 22.619-19.266 27.987-7.402 4.673-18.507 7.055-26.588 5.705z" fill="#ffffff" stroke="#000000" stroke-width=".86539" stroke-miterlimit="10" />
        <path id="path1454" d="m210.82 374.23c-26.872-5.768-48.36-25.051-56.382-50.6-2.88-9.173-2.912-26.704-0.066-36.577 6.381-22.134 21.787-39.675 43.984-50.077 12.367-5.795 18.517-7.015 35.397-7.024 13.439-8e-3 15.37 0.19 22.324 2.286 13.8 4.16 24.322 10.478 33.534 20.137 6.83 7.16 8.451 9.422 12.411 17.313 5.245 10.451 6.966 18.137 6.948 31.031-0.018 12.305-1.11 17.788-5.486 27.542-4.065 9.061-10.031 17.303-17.943 24.793-11.433 10.822-25.167 18.031-40.285 21.146-8.26 1.702-26.571 1.718-34.436 0.03zm34.741-9.031c21.262-6.656 35.613-26.557 36.853-51.106 1.743-34.488-22.286-64.328-53.421-66.34-14.16-0.914-25.854 3.79-36.819 14.812-12.127 12.191-16.274 22.752-16.34 41.616-0.041 11.97 0.864 17.236 4.467 25.961 6.767 16.391 22.851 31.23 38.372 35.403 7.1 1.909 20.226 1.74 26.888-0.346z" fill="#ffffff" stroke="#000000" stroke-width=".86539" stroke-miterlimit="10" />
    </g>
</svg>
