<svg id="svg664" width="75" height="75" version="1.0" viewBox="0 0 807 922" xmlns="http://www.w3.org/2000/svg">
    <g id="outlines">
        <path id="path638" d="m250.1 22.6c-13.2 3.5-26.6 13.6-32.5 24.4-11.6 21.3-4.4 47.2 17.1 61.6 3.2 2.1 5.9 3.9 6 3.9 0.2 0.1-0.6 1.9-1.7 4-1.1 2.2-2 5.3-2 6.9 0 3 0 2.9-2.9-1.5-4.7-7.5-9.5-10.2-14.6-8.3-2.4 1-4.3 5.5-4.7 11.3-0.3 5-0.4 5.1-1.8 2.9-7.9-12.2-17.2-14-20-4l-1 3.9-4.5-4.4c-3.8-3.6-5.2-4.3-8.5-4.3-5.8 0-7.5 3.1-7.4 12.9l0.2 7.5-2.1-3c-1.2-1.6-3.3-4.1-4.7-5.5s-4.4-5-6.6-8l-4.2-5.5 1.9-3.7c11.7-22.8 1.5-50.4-23.2-62.6-4.6-2.3-11.5-4.8-15.4-5.6-30.3-6.3-61 10.4-68 37-6.9 26.5 11.9 52.7 42.5 59.1 7.3 1.6 21 1.4 26.8-0.2 2-0.6 2.2-0.3 2.2 3.4 0 5 2.1 11 6.1 17.6l3.2 5.1-6.6-6.5c-7.2-7.3-13.7-11-18.9-11-5.4 0-7.3 2-7.2 7.7 0.1 8.4 5.7 17.1 25.8 40.2l2.1 2.4-3.5-2c-1.9-1.1-9-5.3-15.8-9.2-6.8-4-14.7-8.3-17.5-9.7-18.3-8.4-30.5-2.5-21.8 10.7 3.5 5.2 9.2 9.7 22.1 17.3 5.2 3.1 9.2 5.6 8.8 5.6-0.3 0-8-3.3-17-7.4-18.4-8.3-22.9-9.8-30.8-9.9-6.4 0-9.7 1.4-11 4.9-2.6 6.9 6.2 15.4 25.2 24.3 7.3 3.5 12.4 6.1 11.3 5.8-1.1-0.2-5.6-1.4-9.9-2.6-9-2.4-21.7-2.8-25.6-0.8-1.3 0.7-3.1 2.4-3.9 3.9-1.4 2.4-1.4 3 0.1 6.2 3.4 7 10.2 10.3 40.8 19.5l6.5 1.9-5 0.1c-2.7 0-10.8-0.4-18-0.9-26.1-1.8-40 3.5-35.2 13.4 2.2 4.8 9.9 8.3 21.7 10l9.5 1.4-8.7 0.1c-23.5 0.3-36.8 5.2-36.8 13.5 0 6.9 8.2 10.8 23.2 11 4.7 0.1 8.5 0.2 8.4 0.4-0.2 0.1-4.3 0.9-9.2 1.8-12 2-22.9 7.2-25.2 12-1.5 3.2-1.5 3.8-0.2 6.2 4.2 7.5 15.6 8.1 47.9 2.8 11.8-2 22-3.6 22.6-3.6 0.8 0 1 1.7 0.7 5.2-0.6 7.7 1.9 16 10.3 33.7 8 17.3 11.7 26.8 13.4 35.1 0.6 3 1.5 17.4 2 32 0.6 14.6 1.9 35 3 45.5 4 38.7 5 65.2 3.2 79.8l-0.7 5.8 4-0.3 4.1-0.3 0.6-6.5c1.6-16.1 0.2-46.2-4-86.5-1-9.9-1.8-18.1-1.7-18.2 0.1-0.2 2.9 3.9 6.1 9 11.6 18 33.3 36.6 56.4 48.1 10 5 24.1 10.4 36.6 14.1 4.9 1.4 9 2.7 9.2 2.8 0.6 0.7-1.9 25.3-4.2 41.2-7.3 50.3-11.6 92.2-14 137-2.3 43.8-4.3 69.1-7 89-8.1 59.6-8.2 61.1-5.9 66 2.1 4.5 7.1 8.4 11.6 9.1 3 0.5 4 0 8.5-4.1 6.7-6 10.1-12.9 11.3-23.1 0.5-4.3 1.8-15.8 2.9-25.4s3-24 4.1-32c2.6-18.5 5.5-54 7.5-91.3 2.4-45.8 8.3-103.8 14.5-142.4 1.1-6.7 2-13.8 2-15.8 0-3.2 0.3-3.5 2.8-3.5h2.7l-0.3 30.7c-0.1 17-1.1 46.5-2.2 65.8-1.1 19.2-2.4 51.4-3 71.5-1.1 42-1.4 46.3-4 70-1 9.6-2.2 24.2-2.5 32.5-0.4 8.2-1.7 22.2-3 31s-2.6 23.4-3 32.5c-0.3 9.1-1.1 20.4-1.6 25.3-1 9.7-0.4 12 4.8 16.9 9.6 9.1 23.9 5 31.1-8.8 0.6-1.2 1.6-12.4 2.2-25s2.2-31.2 3.5-41.4c1.4-10.2 2.9-27.3 3.5-38s1.8-24.4 2.6-30.4c1.4-11.1 2.8-38.8 3.9-78.6 0.3-12.4 1.5-37.6 2.6-56 1.1-19.2 1.9-46.3 1.9-63.5 0-16.5 0.3-31 0.6-32.1 0.5-1.8 1.6-2.3 6.6-2.8 3.3-0.4 6.2-0.5 6.5-0.2s0 6.9-0.6 14.8-1.3 26-1.6 40.3c-0.4 14.3-1.3 32.7-2 41-1.8 18.6-2.2 132.6-0.6 142 1.2 6.5 2.9 8.5 9.1 10.7 4 1.3 13.3 1.7 17 0.5 1.4-0.4 3.2-1.7 4.1-3 1.5-2.1 1.6-5.1 0.7-32.7-1.1-35.8-1.2-41-0.3-67.6l0.7-20.1 93.2-28.3c51.2-15.6 93.9-28.4 94.9-28.4 1.5-0.1 2.5 1.9 4.8 9.2l3 9.4 2.2-1.9c1.2-1 10.2-9.4 20-18.7 12-11.4 17.4-17.2 16.5-17.6-1.9-1.1-51.8-9.3-52.4-8.7-0.3 0.3 0.7 4.6 2.2 9.6s2.5 9.3 2.3 9.5c-0.6 0.6-185.3 56.5-185.6 56.2-0.2-0.1 0.2-4.7 0.7-10.2 0.5-5.4 1-17.1 1-25.9 0-15.6 0.9-33.5 3.3-69.9l1.2-17.8 11-3.9c33.8-11.9 62.6-32.8 78.4-56.8 3.3-5.1 6.1-9.8 6.1-10.4s0.2-0.8 0.5-0.6c0.2 0.3-0.7 10.4-2.1 22.5-2.8 24-4.2 61.5-2.9 79.8l0.7 10.6h3.7 3.6l-0.3-28.8c-0.4-26.7-0.2-30.7 2.7-57.2 2-18.6 3.3-36 3.6-50 0.7-29.6 1.7-33.6 15-62.1 8.7-18.5 10.9-26 10.2-34.4-0.3-3.4-0.3-6.5 0.1-7.1 0.5-0.7 8.2-0.4 24.2 0.8 30.1 2.4 44.9 2.1 50.8-1 7.9-4.2 7.9-11-0.2-15.7-6.3-3.6-10.6-4.4-30.1-6.1-9.8-0.8-18-1.6-18.2-1.8s5.4-0.6 12.5-0.9c18.5-1 28.6-4.5 31.4-11.1 3.1-7.5-8.1-13.5-25.6-13.6l-6.1-0.1 5.2-1.8c13.7-4.7 17.9-14.7 8-19.1-7.3-3.2-14.6-3.4-34.6-0.6-10.2 1.4-18.6 2.4-18.7 2.3-0.2-0.2 5.6-2.5 12.9-5.2 20.5-7.8 29.1-14.5 28.5-22.5-0.4-4.9-5-7.2-13.4-6.8l-6 0.4 4.6-3.7c8.5-6.7 11.4-14.5 7-18.9-1.6-1.6-3.3-2-8-2-6.6 0-14 2.4-23.7 7.8-3.5 1.8-6.3 3.1-6.3 2.7s1.5-2.4 3.3-4.6c7.7-9 11.1-21.4 6.9-25.2-2.6-2.3-8.5-2.1-13.5 0.4-2.3 1.2-7.5 5.4-11.5 9.3l-7.3 7 2.5-4.5c5.3-9.5 6.8-21.6 3-25.4-2.6-2.5-8.6-1.9-13.1 1.4l-4 2.9 1.9-5c7.5-19.9-2.1-31.3-15.1-17.9-2.5 2.6-6 7.3-7.6 10.4l-3 5.6v-8.8c0-7.1-0.4-9.3-1.7-10.8-2.4-2.6-2.3-3.5 0.5-2.8 1.2 0.3 5.4 0.1 9.2-0.5 22.8-3.5 38.5-23.1 38.5-48.2 0-10.7-1.5-16.8-6.7-27.7-3.6-7.5-5.9-10.8-11.6-16.5-12.3-12.2-24.4-17.1-40.6-16.4-8.2 0.3-10.6 0.8-16.3 3.5-3.7 1.8-9 5.2-11.7 7.8-8.7 8.1-15 23.6-15.1 36.8 0 13.2 5.9 29.2 15.1 40.7l5 6.2-2.7 5.5c-1.6 3-2.9 5.1-3.1 4.7-0.1-0.5-0.7-2.8-1.3-5.1-1.4-5.4-3.3-7.3-7.5-7.3-6.7 0-13.6 8.8-19 24.3-1.5 4.3-2.9 7.6-3 7.5-0.2-0.2 0.3-4.4 1.1-9.3 2.5-16.4 1-28.6-3.9-32-8.1-5.7-16 4.3-19.6 25.1l-1.9 10.9-0.1-8.6c-0.2-14.6-3.3-26.2-8-29-1.6-1.1-1.1-1.9 5.4-8.3 8.3-8.2 12.2-15.5 13.8-25.7 3.8-24.3-14.4-48.4-41.8-55.4-7.5-1.9-25.1-1.9-32.4 0.1zm33.7 6.9c33.4 10.5 45.6 44.9 24.1 67.9-15.6 16.7-41 20.5-63.6 9.6-16.7-8.2-27.5-25.5-26-41.8 2.6-27.7 34.9-45.4 65.5-35.7zm134.8 10.9c31.6 15.6 41.7 59.1 18.9 81.9-10.1 10.2-25.1 13.6-39.8 9.1-2.7-0.8-13.8-7.3-15.2-8.8-0.5-0.7-2.4-2.2-4.2-3.4-4.7-3.3-12.6-15.7-15.4-24.3-4.9-15-2.5-32.3 6-43.5 4.8-6.3 9.5-10 16.7-13 5.2-2.2 7.1-2.4 15.5-2.2 8.8 0.3 10.3 0.7 17.5 4.2zm-301.1 11.1c15.4 3.9 27.1 12.8 33.2 25.3 3.5 7.1 3.8 8.2 3.8 16.6 0 8.1-0.3 9.8-3.2 15.8-17.2 36.3-75.3 37-93 1-3.6-7.1-3.8-8.2-3.8-16.7s0.2-9.6 3.8-16.7c9.9-20.1 36-31.2 59.2-25.3zm187.1 66.3c3.7 5.5 4.4 11.8 4.4 41.9v28.5l-3.7-0.7c-2.1-0.4-3.8-0.8-3.9-0.8-0.1-0.1-1.8-7-3.8-15.2-3.2-12.8-3.8-17.2-4.3-30.1-0.6-15.9 0-20 3.9-24.9 2.5-3.3 4.6-2.9 7.4 1.3zm-54.4 0.9c4.5 5 5.8 10.2 5.8 24.8 0 12.3 0.4 15.8 3.3 28.2 3.7 16 4 15.3-4.4 15.3-3 0-3.8-0.4-4.2-2.3-0.3-1.2-2.7-13-5.2-26.2-5.1-26.3-5.6-35.6-2.2-40.8 1.9-3 3.6-2.7 6.9 1zm83.4 0.5c3.1 6 2.8 13.8-1.6 42.8-2.3 15.1-4.3 27.6-4.5 27.9-0.2 0.2-3.5 0-7.2-0.5-6.7-0.9-6.8-0.9-7.1-4.2-0.5-5.1 6.8-52 9-57.9s6.2-11.3 8.4-11.3c0.7 0 2.1 1.4 3 3.2zm-107.4-0.3c3.5 2.8 7.3 10.4 10.3 20.6 3.3 11.3 10.5 46.8 9.6 47.7-0.3 0.3-3.3 0.8-6.6 1l-5.9 0.3-7.3-26.5c-7.7-27.7-8.9-36.3-6.2-42.3 1.4-3.2 2.8-3.4 6.1-0.8zm60.8 8.5c0 15.7 1.9 34.4 3.9 39 1.8 4 4.3 17.7 4.5 24.6 0.1 1.9 0.4 3.7 0.8 4s1.4 4.8 2.3 10c1.3 7.4 1.9 19.8 2.5 56.5 0.7 43 0.6 48.3-1.1 62-1.5 12-2.1 26.4-2.9 72-1.5 91.8-1.8 98.7-4 113.5-3.6 23.4-3.9 27.8-3.9 58.8-0.1 16.8-1 45.8-2.1 65-1 19.1-2.4 52-3 73.2-1.2 42.4-3.8 72.5-6 69-0.4-0.7-0.4-2.4 0.1-3.7 2.1-5.5 1.1-9.3-3.5-13.9-4.5-4.6-7.7-5.5-11.7-3.4-4.7 2.6-7.2 14.4-4.6 22 0.8 2.5 1.8 7.2 2.2 10.6 0.6 5.5 0.4 6.4-1.9 9.9-4.5 6.5-5.8 13.4-5.9 28.9 0 15.2 1 21 4.6 25.2 4.7 5.5 9.8-0.4 11.8-13.8 0.6-4 1.8-9.6 2.7-12.3 1.8-6 1.8-8.2-0.3-12.1-2.1-4-1.9-6.8 0.6-9 1.2-1 3-3.7 4.1-5.9l1.9-4-0.6 11c-0.3 6-1.5 17.1-2.6 24.5-1.8 12.4-5.2 63.6-4.3 65.2 0.2 0.3-2 3.1-4.9 6.2-4.7 5-5.7 5.6-9.2 5.6-5 0-10.2-3.1-11.1-6.6-1.1-4.3 1.5-49.7 3.6-63.7 1.1-7.1 2.5-21.5 3-32 0.6-10.6 1.9-26.4 3-35.2 2.1-17.9 2.6-28.2 4-76.5 0.6-18.4 1.7-44.5 2.6-58s2-41.6 2.4-62.5c0.5-20.9 1.1-40 1.5-42.5 4.3-32.2 4.4-34.7 5.5-110 1-64.7 1.4-76.5 3.1-89.5 1.9-13.9 2-18.4 1.4-62-0.6-39-1-49-2.6-59-1-6.6-1.9-14.3-1.9-17 0-2.8-0.7-7.5-1.5-10.5-2.5-9-4.4-19.5-5-27.1-0.3-3.9-1-9.1-1.6-11.6-0.5-2.5-1.2-8.8-1.6-13.9l-0.6-9.3 10.4-0.4c5.7-0.1 11.6-0.4 13.2-0.5l2.7-0.2v9.4zm-81.3-2.2c1.2 1.2 3.3 4.5 4.6 7.3 2.3 4.7 19 56.5 18.4 57.1-0.1 0.2-2.1 0.6-4.2 0.9l-4 0.7-12.2-28.4c-12.3-28.3-13.4-31.9-11.2-37.5 1.8-4.9 4.1-5 8.6-0.1zm-52.2 1.5c1.7 2.1 8.1 10.8 14.2 19.3 6.2 8.5 12.5 16.8 14 18.5 6.3 6.9 18.5 28 19.8 34.3 0.4 1.8 1.3 4.5 2 6s3.9 13.7 7 27.2c3.1 13.7 8.4 33.1 12 44 17.9 54.2 24.6 89.6 27 143 0.8 16.8 1.4 39.7 1.5 51 0 21.5-2.7 60.3-5.5 77-2.9 17.7-9.4 72.4-11.4 95.5-1.1 12.6-2.7 36.7-3.6 53.5s-1.8 32.1-2.1 34.1c-0.6 3.5-0.7 3.6-3.4 2.6-2.3-0.9-3.7-0.7-7 0.8-6.3 2.8-9 6.6-9 12.6 0 2.7-0.4 4.9-1 4.9-1.3 0-1.3 1.6 1-40.5 2.7-49.6 8.6-107.3 14.6-144.5 4.8-29 6.4-77 4.4-128.5-1-27.2-1.6-34.2-5-56.5-2.2-14-4.6-28.7-5.4-32.6-2.4-11.5-10.2-38.3-17.6-60.9-3.7-11.6-7.4-23.7-8-27-4.1-20.5-10.4-44.1-14.4-53.7-5.1-12.4-3.9-10.5-25.1-38.8-8.9-11.8-17.4-23.4-18.8-25.7-3-4.8-2.6-5.7 4.2-9.3 2-1 5.4-3.7 7.6-5.9 2.2-2.1 4.2-3.9 4.5-4s1.9 1.6 3.5 3.6zm29.9-1.6c4.9 3.8 8.5 10.6 20.2 37.6 6.4 14.7 11.8 27.3 12.1 28 0.4 1-5.2 3.3-8.3 3.3-0.6 0-2.3-3-3.7-6.8-1.6-4-6.2-11.6-11.5-18.7-9.4-13-14.4-23.2-16.2-33.6-2-10.6 1.2-14.7 7.4-9.8zm179.6 5.9c1.6 6 0.1 12.4-9.1 39-4.5 12.9-8.3 23.7-8.5 23.8-0.1 0.2-3.1-0.3-6.6-1.1l-6.3-1.4 0.3-4.9c0.3-5 12.2-40.6 16.1-48.3 3.2-6.1 7.9-11.1 10.7-11.1 1.9 0 2.5 0.8 3.4 4zm22 1.6c2 1.2 6.1 3 9.1 3.9l5.5 1.7-0.3 4.2c-0.8 9.7-4.8 26.3-10.9 45.1-3.6 11-6.9 21.8-7.4 24s-2.3 10.1-4 17.5-5.3 26.1-8.1 41.5c-8 45-9.7 52.9-15.4 73.5-7.4 27.1-10.2 48.8-11 86-0.4 15.1-1.3 34.5-2.1 43-2.3 25.1-3.4 39.8-3.9 52-0.3 6.3-1.2 20.3-2 31s-1.7 31-2 45-0.8 28.3-1.1 31.8l-0.6 6.2-2.8-3c-3.6-3.8-6.6-3.8-11.8 0-5.4 3.9-6.5 6.2-6 12.2 0.3 2.7 0.1 5.1-0.5 5.5-1.1 0.6-0.5-14.3 1.3-36.7 0.5-6.3 0.9-18.5 1-27 0-8.5 0.5-21.8 1-29.5s1.9-28.6 3-46.5 2.7-39.5 3.6-48 1.9-29.9 2.4-47.5c1-40.4 3.7-61.1 11.1-87.5 5.2-18.3 8.1-32.1 14.9-70.5 8.2-46 11.4-59.4 21-89 3.3-9.9 6.6-22.3 7.5-27.5 2.4-14.5 2.5-15.1 3.8-14.3 0.7 0.3 2.8 1.7 4.7 2.9zm-237.3 38.9c11 14.8 20.8 28.7 21.6 30.8l1.6 3.7-3.2 1.3c-3.8 1.6-1.3 4.5-22-25.4-16.5-23.8-20.7-31.2-20.7-36.9 0-4.4-1.7-6.3 22.7 26.5zm285.7-23.4c1.4 5.8-2.2 15.6-16.1 43.3-6.9 13.8-12.7 25.2-12.8 25.4-0.2 0.2-3.5-1.3-7.4-3.2l-7.1-3.6 13.1-26.3c14.1-28.2 17.5-33.6 22.9-37.3 4.5-3.1 6.3-2.7 7.4 1.7zm-69.3 19c-3.2 10.1-6.7 20.9-7.6 24-1.3 4.8-1.9 5.6-3.5 5.2-1.1-0.3-2-0.8-2-1.2 0-2.2 18.6-50.2 18.8-48.5 0.2 1.2-2.4 10.4-5.7 20.5zm41.9-15.9c0 4.2-3.9 19.3-4.7 18.4-0.8-0.7 3-22.6 3.9-22.6 0.4 0 0.8 1.9 0.8 4.2zm-293.9 5.7c2.4 1.5 6.9 5.5 9.9 8.7 6.7 7.1 37.4 43.2 37.8 44.4 0.2 0.5-2.8 2.5-6.6 4.4l-7 3.5-16.4-19.1c-8.9-10.6-18.2-21.6-20.5-24.5-4.7-6-8.7-15.5-7.8-18.4 0.9-2.8 5.3-2.4 10.6 1zm335.9 12.2c1.5 2.6-0.1 10.2-3.4 16.7-2.1 4.1-23.3 40.2-24.1 41-0.2 0.2-10.5-5.9-12.3-7.3-1-0.8 19.1-36 24.7-43.4 3.2-4.2 9.8-9.1 12.2-9.1 1 0 2.3 0.9 2.9 2.1zm-365 12.6c2.5 0.9 15 7.6 27.8 15 18.6 10.9 24 14.5 27.2 18.3 2.2 2.6 4 5 4 5.2 0 0.5-9.8 6.8-10.5 6.8-0.2 0-12-6.8-26.2-15.1-25-14.5-32.8-20.2-35.9-26.1-1.9-3.7-1.8-4.7 0.9-5.7 2.6-1 6.5-0.5 12.7 1.6zm391.8 1.2c0.6 3.7-2.6 10.7-7.7 17.1-10.3 12.8-12.9 15-27.1 22.6-7.5 4.1-14.2 7.4-14.9 7.4-5.2 0 28-40.2 38.9-47.2 5.6-3.6 10.3-3.5 10.8 0.1zm-207.9 24.8c1.8 12 2.2 20 2.7 59.8 0.6 42.7 0.5 47.2-1.4 63-1.8 14.8-2.2 26.8-3.2 91.5-0.8 54.9-1.5 77.3-2.6 85-2.5 18.1-2 16.7-5.4 16.2-3-0.4-3-0.5-2.5-5.6 3-29.9 3.1-45.8 1-95.1-1.5-33.9-4.3-58.4-10.1-88-2.3-11.7-9.5-37-17.4-61-6.6-20.3-18.7-69.5-17.6-71.4 1.2-1.8 37.6-7.6 50.7-8l3.6-0.1 2.2 13.7zm57.1-9.6c10.6 1.8 26.5 5.5 28.1 6.5 0.4 0.2-0.4 5.5-1.7 11.6-1.3 6.2-4.2 21.4-6.5 33.8-7.9 44.6-11.1 59.8-16.4 79-7.5 26.8-10.4 49.6-11.1 85.5-0.3 14.3-1.4 35.9-2.5 48-2 23.4-3.9 49.6-3.9 55.6v3.6l-6.1 0.7c-3.4 0.4-6.3 0.6-6.4 0.4-0.2-0.2 0.5-6.6 1.6-14.3 1.6-11.9 2.1-25.8 3.4-93 1.1-61.2 1.8-81.4 3.1-89.5 2.2-14.5 1.4-106.7-1-120-0.9-4.7-1.6-9.1-1.6-9.7 0-1.5 3.6-1.1 21 1.8zm-263.5 3.4c2.4 0.9 64.8 28.7 65.4 29.2 0.6 0.4-8.7 8.8-11.4 10.3-1.7 0.9-6.4-0.9-29.8-11.5-15.4-6.9-29.5-13.7-31.5-14.9-9.8-6.3-13.1-13.5-6.7-14.6 3-0.6 10.3 0.2 14 1.5zm440.9 0.1c2.2 0.8 2 3-0.5 7-2.9 4.8-9.1 9-29.4 19.9-9.9 5.3-20.7 11.2-24 13l-6.1 3.4-6.3-5.7-6.4-5.8 27.7-14.8c15.2-8.1 29.5-15.4 31.8-16.1 4.6-1.5 10.7-1.9 13.2-0.9zm-326 15.8c0.8 1.9 3.8 13.7 6.6 26.3 2.8 12.5 8.2 32.5 12 44.3 14.2 44.3 17.8 58.6 23 93 4.6 30.3 6.3 61.8 5.8 108l-0.3 28.5-2.5-0.3c-1.4-0.2-7.8-2.1-14.3-4.3-38.6-12.6-68.9-35.5-83.6-63.1-6.1-11.4-9.1-22.2-10.1-37.3-0.6-7.4-1.9-16-3-20-1.2-3.9-2.9-10.8-4-15.5-2.2-10.3-3-12.4-7.9-22-2.2-4.1-5.1-11.3-6.7-16-2.5-7.7-2.8-9.8-2.8-23s0.3-15.3 2.8-23c5.3-16.1 12.2-27.5 24.5-40.3 7.9-8.3 19.6-17.9 29.2-24 6.7-4.3 26.9-14.6 28.6-14.7 0.7 0 1.9 1.5 2.7 3.4zm224.4 6.6c11.6 6.2 27.2 18.2 36.8 28.2 12.7 13.2 19.6 24.5 25 40.8 2.5 7.7 2.8 9.8 2.8 23s-0.3 15.3-2.8 23c-1.6 4.7-4.4 11.6-6.4 15.5-4 8.1-6.6 15.7-8.1 23.8-0.6 3.1-1.5 6.5-2 7.5-2.1 4-4.2 15.1-5.1 27-1 14.8-4 25.6-10.1 37-11.3 21.3-31.9 39.8-59.4 53.5-8.5 4.2-26.5 11-27.3 10.3-0.2-0.3 0.7-13.9 2.1-30.3 1.6-18.1 2.8-39.8 3.1-55.3 0.6-34.1 3.4-55.5 11.1-83 3.8-13.6 7.7-32 12.9-60.7 6.8-37.1 11.9-62.7 13.1-66 0.5-1.5 2.3-0.8 14.3 5.7zm106.6 2c3.6 1.3 3.3 4.2-0.9 8.5-4.7 4.6-9.2 6.8-32.9 15.9l-19.8 7.6-3.9-4.3c-2.1-2.3-3.8-4.7-3.9-5.2 0-1.3 25.5-14.5 35-18.1 13.4-5 21.4-6.3 26.4-4.4zm-423.2 11.6c14.5 4.2 26.4 7.7 26.5 7.7 0.1 0.1-2.3 3.2-5.3 6.8l-5.5 6.6-22.7-6.7c-26.6-7.8-33.1-10.8-36.1-16.7-1.7-3.4 1.8-5.3 10.1-5.3 5.4 0 11.9 1.5 33 7.6zm438.7 19.7c1.3 0.7 2.9 2 3.5 3 1.5 2.4-2.4 5.8-9.8 8.6-4.4 1.6-44.2 8.1-49.9 8.1-1.2 0-10.2-13.8-9.4-14.6 0.1-0.1 11.5-1.9 25.2-3.8 25.5-3.6 35.1-3.9 40.4-1.3zm-446.4 5.7c8.8 0.6 16.8 1 17.8 1 1.6 0 1.3 0.9-1.9 6.7-2 3.8-4.2 7.3-4.8 7.9-1.5 1.6-40.3-0.9-47.3-3.1-5.9-1.8-11.5-5.9-10.7-8 1.5-3.7 13.2-6.5 24.4-5.8 3.6 0.2 13.7 0.8 22.5 1.3zm458.3 18.5c5.6 2.3 6.8 4.6 3.9 7.2-5.6 5.1-10.4 6.1-41 7.8-13.8 0.8-25.2 1.3-25.2 1.2-0.1-0.1-1.3-3.7-2.6-8l-2.5-7.7 2.5-0.1c1.4 0 11.8-0.7 23.1-1.4 24.3-1.6 36-1.3 41.8 1zm-449.8 3.8c0 0.8-4 16-4.3 16.2-0.1 0.1-10.9 0.7-23.9 1.3-25.1 1.1-32.6 0.5-38.2-3.1-3.3-2.2-3.3-4 0.1-6.6 5-4 12.3-5.2 38.6-6.6 13.9-0.7 25.8-1.3 26.5-1.4 0.6 0 1.2 0.1 1.2 0.2zm419.5 20.1c32.8 2.6 38.9 3.8 44.1 8.7s-3.1 8.9-18 8.8c-9.8 0-55.4-3.3-56-4-0.3-0.4-1.6-15.9-1.3-15.9 0.1 0 14.2 1.1 31.2 2.4zm-424.5 8.9v8.3l-23.2 3.7c-24.8 4-34.8 4.6-40.2 2.3-4.8-2-5.2-3.3-2-6.7 4.4-4.6 12.1-6.8 39.4-11.4 14-2.4 25.6-4.3 25.8-4.4 0.1 0 0.2 3.6 0.2 8.2zm246.8 325.2c-0.1 0.2-1.6 0.1-3.1-0.2-2-0.4-2.5-0.8-1.6-1.4 1.2-0.7 5.6 0.8 4.7 1.6zm-2.8 7.9c0 0.8-0.4 1.7-0.9 2.1-1.2 0.7-2.4-1.2-1.6-2.5 0.9-1.5 2.5-1.2 2.5 0.4zm5.9 23.8c0 7.4-0.4 11.3-0.8 9.8-0.5-1.4-1.4-3.5-2.2-4.7-1.1-1.8-1-3.3 0.5-9.7 1-4.2 2-7.6 2.2-7.6s0.4 5.5 0.3 12.2zm-9.9-2.7c0 0.8-0.7 1.5-1.5 1.5s-1.5-0.7-1.5-1.5 0.7-1.5 1.5-1.5 1.5 0.7 1.5 1.5zm3.9 12.5c2.7 5.2 2.7 6.6-0.1 4-1.2-1.1-2.5-2-2.9-2-0.3 0-1.9-1-3.5-2.3l-2.9-2.2 3.5-0.6c1.9-0.4 3.6-0.7 3.6-0.8 0.1 0 1.1 1.7 2.3 3.9zm-9.5 6.7c-0.4 1.5-1.5 3.9-2.6 5.2-1.8 2.4-1.8 2.3-1.8-5.8v-8.3l2.5 3.1c2 2.3 2.4 3.6 1.9 5.8zm8.9 5.6c0.6 4.2-0.2 6.7-2.2 6.7-3.9 0-4.8-2.9-3-9.3 1-3.7 1.1-3.8 2.9-2.2 1 0.9 2 3 2.3 4.8zm-11.3 19.7c0.1 14.3 2.9 21 8.2 19.7 3.1-0.8 5.5-5 7.8-13.9l1.9-7.3 0.1 25c0.1 13.7 0.3 25.9 0.6 27 1.8 8.5 0.7 10.5-5.8 11.2-3.2 0.4-5.8 0-9-1.5l-4.5-1.9-1-7.9c-1.2-9.3-0.5-62.3 0.8-60.3 0.5 0.8 0.9 5.2 0.9 9.9zm14-5.3c0 0.5-0.7 3.8-1.4 7.5-1.5 7-4 12.8-5.6 12.8-1.5 0-3-7-3-13.7v-6.2l3.8-0.4c2-0.2 4.3-0.4 5-0.5 0.6-0.1 1.2 0.1 1.2 0.5zm-99.9 30c1.2 1.5 1.2 1.6-0.4 1-1-0.4-2.3-0.7-2.8-0.7-0.6 0-0.7-0.5-0.4-1 0.9-1.5 2.1-1.2 3.6 0.7zm-3.1 8.8c0 0.8-0.4 1.5-0.9 1.5-1.3 0-2.2-1.6-1.4-2.4 1.1-1.1 2.3-0.6 2.3 0.9zm47.5 11.5c0.4 0.6-0.7 1-2.7 1-2.5 0-2.9-0.3-1.8-1 1.9-1.3 3.7-1.3 4.5 0zm-44.6 12.4c-0.7 5.8-1.6 10.6-2.1 10.6-0.4 0-0.8-1-0.8-2.3s-0.5-2.8-1.2-3.5c-0.8-0.8-0.4-3 1.7-8.7 1.5-4.2 3-7.4 3.2-7.1 0.3 0.3-0.1 5.2-0.8 11zm-9.9-3.9c0 0.8-0.7 1.5-1.5 1.5-1.6 0-2-1.2-0.8-2.3 1.1-1.2 2.3-0.8 2.3 0.8zm53 1c0 0.8-0.4 1.5-0.9 1.5-1.3 0-2.2-1.6-1.4-2.4 1.1-1.1 2.3-0.6 2.3 0.9zm-49.5 15.8c0.6 2.2 0.1 2-4.5-2.2l-5.1-4.6 3.3-0.5c2.8-0.5 3.5-0.2 4.5 2.1 0.7 1.4 1.5 3.8 1.8 5.2zm-11.6-2.9c1.1 1.9 1 2.8-0.3 5.4-2.4 4.6-4.1 5.2-3.3 1.2 0.4-1.8 0.7-4.5 0.7-6.1 0-3.5 1.2-3.7 2.9-0.5zm7.1 6.5c2.2 4.2 0.9 11.1-2 11.1-3.5 0-4.3-2.5-2.5-8 1.8-5.4 2.8-6.1 4.5-3.1zm56 1.5c0 0.8-0.4 1.7-0.9 2.1-1.2 0.7-2.4-1.2-1.6-2.5 0.9-1.5 2.5-1.2 2.5 0.4zm-1.1 10.8c0.9 0.3-0.8 1.7-4.2 3.5-6.3 3.4-7 2.9-3.1-2.2 2-2.6 3-3.3 4.3-2.6 0.9 0.4 2.3 1 3 1.3zm-53.9 7.1c0 4.4-7 19.7-9 19.7-1.4 0-2.2-7.6-1.5-14.5l0.7-6.5h4.9c3.4 0 4.9 0.4 4.9 1.3zm3.4 13.8c-0.8 6.8-1.9 15.9-2.4 20.1-0.9 8.9-4.6 16.6-9.7 20.5-3.1 2.4-3.4 2.5-5.8 0.9-5.7-3.8-5.8-4.4-3.3-26.7 2-17.6 2.4-19.6 2.9-14.9 1 9.2 3.6 11.8 9 8.9 2.3-1.2 8.6-13.5 9.5-18.7 0.4-1.8 0.8-3.1 1-2.9 0.3 0.2-0.3 6-1.2 12.8zm48.1-7.9c0.6 4.4 0.5 5.4-1.1 6.5-3.1 2.3-4.9 1.2-4.8-2.9 0.1-3.7 2.6-8.8 4.3-8.8 0.5 0 1.2 2.3 1.6 5.2zm-4.9 14.9c5.1 1.3 5.4 2.6 2.9 12.4-1.6 6.1-3.2 8.8-4.5 8-1.6-1-4.9-21.5-3.5-21.5 0.3 0 2.6 0.5 5.1 1.1z" fill="#000000" stroke="#000000" stroke-width="0.5" stroke-miterlimit="10" />
        <path id="path640" d="m655.9 450.5c-38.4 7.3-67.7 36.4-73 72.4-5 34.4 13.7 67.5 46.6 82.7 26.3 12.1 58.6 10.4 85-4.7 14.6-8.2 29.5-24.6 36.1-39.6 6.8-15.2 8.5-35.8 4.5-51.6-7.2-27.7-30.3-50.1-59.6-57.8-10.5-2.7-29.2-3.4-39.6-1.4zm36.1 9.1c3.6 0.9 11 3.7 16.5 6.4 17.6 8.4 31.3 23.7 37.2 41.4 2.4 7.2 2.7 9.6 2.8 21.6 0 11.5-0.3 14.5-2.3 20.4-9 26.8-30 46.1-57.9 53.2-12.6 3.2-29.3 3.3-40.9 0.4-15.9-4.1-31.5-13.7-41.2-25.3-5.3-6.5-11.7-19.1-13.8-27.7-2.1-8.4-2.2-23.5-0.1-32.2 10.1-42 55.8-68.6 99.7-58.2z" fill="#000000" stroke="#000000" stroke-width="0.5" stroke-miterlimit="10" />
        <path id="path642" d="m652.9 478.4c-17.3 4.8-31.4 20.1-36.4 39.6-2.5 9.7-1.7 27.1 1.8 36.8 9.6 27.2 34.6 44.2 59.4 40.4 19.2-3 33.6-15.8 40.6-36.2 2.6-7.3 3-10 3-19 0.1-19.4-5.7-33.6-18.7-46.5-8.5-8.4-15.2-12.5-24.7-15-6.5-1.8-18.7-1.8-25-0.1zm20.3 7.7c11.8 2.5 23.9 11.1 30.9 22 10.5 16.4 11.7 38.2 3.2 55.9-3.5 7.2-12.3 15.9-19.7 19.5-8.3 4-19.8 4.7-29.4 1.6-24.8-8-40.2-37.9-33.3-65 3.4-13.5 10.9-23.9 21.3-29.6 9.2-5 17.6-6.4 27-4.4z" fill="#000000" stroke="#000000" stroke-width="0.5" stroke-miterlimit="10" />
        <path id="path644" d="m759.2 685.7 0.3 33.8h3.5 3.5l0.3-33.8 0.2-33.7h-4-4l0.2 33.7z" fill="#000000" stroke="#000000" stroke-width="0.5" stroke-miterlimit="10" />
        <path id="path646" d="m782.2 685.7 0.3 33.8h3.5 3.5l0.3-33.8 0.2-33.7h-4-4l0.2 33.7z" fill="#000000" stroke="#000000" stroke-width="0.5" stroke-miterlimit="10" />
        <path id="path648" d="m395.6 673c-5.4 1.7-9.6 7.3-9.6 12.7s3.4 9 12.7 13.6c8 3.8 8.8 4.5 9.1 7.3 0.6 6.6-8.2 9.5-16.3 5.4-5.4-2.7-6.5-2.6-6.5 1 0 4.7 4.6 7 13.8 7 11.4 0 17.2-4.2 17.2-12.6 0-7-1.5-9.1-9.9-13.1-12-5.8-14.4-9-10.1-13.3 2.4-2.4 8.5-2.7 13.5-0.6 3.8 1.6 4.5 1.3 4.5-2.4 0-2-0.7-3-2.7-3.9-3.7-1.7-12.1-2.3-15.7-1.1z" fill="#000000" stroke="#000000" stroke-width="0.5" stroke-miterlimit="10" />
        <path id="path650" d="m443.5 674c-2.2 1.1-5 2.7-6.2 3.6-2.3 1.6-2.3 1.6-2.3-1.5 0-2.9-0.2-3.1-3.5-3.1h-3.5v32 32h4 4v-11-11.1l3.7 2.6c3 2 5 2.5 9.9 2.5 7.5 0 11.8-2.5 15.4-9 3.2-5.9 4-19.4 1.6-26.7-3.5-10.6-13.5-15-23.1-10.3zm12.2 8.5c4 4.6 5.3 13.2 3.2 21-2.7 9.9-11 12.6-18.7 5.9l-4.2-3.6v-9.2c0-9.1 0-9.3 3.3-12.3 6-5.9 12.2-6.5 16.4-1.8z" fill="#000000" stroke="#000000" stroke-width="0.5" stroke-miterlimit="10" />
        <path id="path652" d="m491.6 673.2c-5 1.4-10.8 7.2-12.4 12.4-1.7 5.8-1.5 18.7 0.3 23.1 3.5 8.3 9 11.3 20.7 11.2 4.6 0 9.9-0.5 11.8-1.2 2.9-1 3.6-1.7 3.8-4.5 0.4-3.7-0.1-3.8-7.2-1.7-12.4 3.8-20.9-0.2-22.3-10.4l-0.6-4 31.8-0.6-0.1-6.7c-0.1-11.2-5.9-17.6-16.8-18.3-2.8-0.2-6.8 0.1-9 0.7zm14.4 8.5c2 1.8 3.3 4.1 3.7 6.5l0.6 3.8h-12.2c-13.5 0-13.6-0.1-10.5-6.6 3.2-6.8 12.8-8.7 18.4-3.7z" fill="#000000" stroke="#000000" stroke-width="0.5" stroke-miterlimit="10" />
        <path id="path654" d="m545.5 673c-1.1 0.4-3.1 2-4.4 3.4-3.2 3.4-4.1 3.3-4.1-0.4 0-2.8-0.3-3-3.5-3h-3.5l0.2 23.2 0.3 23.3h3.5 3.5l0.3-15.1 0.3-15.2 4.1-4.7c4.1-4.7 4.2-4.7 9-4.1l4.8 0.7v-3.5c0-5-4.7-7-10.5-4.6z" fill="#000000" stroke="#000000" stroke-width="0.5" stroke-miterlimit="10" />
        <path id="path656" d="m582 673.1c-1.3 0.6-3.9 2.1-5.7 3.5l-3.3 2.5v-3c0-2.9-0.3-3.1-3.5-3.1h-3.5v23.5 23.5h3.5 3.5v-15.8-15.8l4.3-4.1c4.9-4.7 7.4-5.7 11-4.4 4.5 1.7 5.2 4.4 5.7 22.6l0.5 17h3.5 3.5l0.5-16.2c0.5-15.3 0.6-16.3 2.9-18.7 3.9-4.1 8.8-6 12.1-4.6 4.6 1.9 5.4 5 6 23l0.5 16.5h3.5 3.5v-17.5c0-9.6-0.3-18.7-0.7-20.2-0.5-1.4-2.2-4-3.8-5.7-5.7-5.6-15.4-4.9-22.2 1.6l-2.8 2.6-2.1-2.8c-3.8-4.8-11.1-6.7-16.9-4.4z" fill="#000000" stroke="#000000" stroke-width="0.5" stroke-miterlimit="10" />
        <path id="path658" d="m677.7 673.4c-9.1 3.4-12.7 9.9-12.7 23.1 0 7.4 0.4 9.9 2.4 14.2 3.4 7.3 8.2 9.6 18.2 9.1 9.1-0.4 12.7-2.7 13.2-8.1 0.2-2.1 0-3.7-0.5-3.7-0.4 0-2.6 1.2-4.8 2.5-5.6 3.5-12.3 3.4-15.9-0.1-4.3-4.4-5.8-13.5-3.5-21.6 2.5-9.1 9.6-12 18.2-7.4 2.6 1.4 5.3 2.6 5.8 2.6 0.6 0 0.9-1.7 0.7-3.7-0.2-3-1-4.1-3.5-5.6-4.3-2.5-12.8-3.1-17.6-1.3z" fill="#000000" stroke="#000000" stroke-width="0.5" stroke-miterlimit="10" />
        <path id="path660" d="m720.6 673.2c-5 1.4-10.8 7.2-12.4 12.4-1.7 5.8-1.5 18.7 0.3 23.1 3.5 8.3 9 11.3 20.7 11.2 4.6 0 9.9-0.5 11.8-1.2 2.9-1 3.6-1.7 3.8-4.5 0.4-3.7-0.1-3.8-7.2-1.7-12.4 3.8-20.9-0.2-22.3-10.4l-0.6-4 31.8-0.6-0.1-6.7c-0.1-11.2-5.9-17.6-16.8-18.3-2.8-0.2-6.8 0.1-9 0.7zm14.4 8.5c2 1.8 3.3 4.1 3.7 6.5l0.6 3.8h-12.2c-13.5 0-13.6-0.1-10.5-6.6 3.2-6.8 12.8-8.7 18.4-3.7z" fill="#000000" stroke="#000000" stroke-width="0.5" stroke-miterlimit="10" />
    </g>
    <g id="sc_sivpt">
        <path id="path672" d="m659.25 584.68c-12.491-4.076-22.684-13.397-29.194-26.695-7.82-15.975-8.17-31.867-1.034-46.955 8.145-17.224 25.713-27.557 41.806-24.592 23.75 4.377 41.297 26.755 41.297 52.668 0 19.611-9.202 35.422-25.51 43.832-6.159 3.176-20.227 4.072-27.365 1.742z" fill="#ffffff" stroke="#ffffff" stroke-width="1.1082" stroke-miterlimit="10" />
        <path id="path674" d="m656.66 603.84c-9.867-1.007-20.841-4.9-31.301-11.102-19.593-11.617-32.169-31.847-33.676-54.173-0.917-13.579 1.097-23.692 7.141-35.867 4.17-8.401 6.737-11.821 15.115-20.141 8.431-8.374 11.823-10.876 20.619-15.21 13.496-6.649 22.97-8.916 37.678-9.015 14.402-0.097 20.791 1.405 34.907 8.205 18.653 8.986 32.45 24.128 38.157 41.876 2.237 6.956 2.458 9.463 2.041 23.134-0.398 13.067-0.858 16.233-3.111 21.427-15.502 35.742-48.422 54.863-87.57 50.866zm27.627-9.735c17.09-5.319 28.495-17.221 35.165-36.698 1.559-4.553 2.079-9.178 2.056-18.285-0.052-20.508-5.73-33.617-20.767-47.941-11.664-11.111-23.775-15.459-39.976-14.351-20.478 1.399-38.63 17.803-44.457 40.175-2.12 8.137-2.151 22.01-0.072 31.822 4.461 21.052 22.098 40.338 41.71 45.612 8.369 2.251 18.447 2.123 26.341-0.334z" fill="#ffffff" stroke="#ffffff" stroke-width="1.1082" stroke-miterlimit="10" />
    </g>
</svg>
