<?xml version='1.0' encoding='utf-8'?>
<svg id="svg426" width="75" height="75" version="1.0" viewBox="0 0 1561 906" xmlns="http://www.w3.org/2000/svg">
    <g id="outlines">
        <path id="path344" d="m1205.5 58.6c-29.2 3.1-49.1 8.3-70 18.4-46.4 22.4-67.5 59.7-54.6 96.5 10.4 29.7 45.2 55.1 90.6 66.4 16.4 4.1 30.1 5.5 51.5 5.5 34.9 0 60.4-5.3 87.5-18.4 60.2-29 76.2-82.8 36.9-124-20.6-21.5-53.1-36.6-91.4-42.5-10.1-1.5-42.3-2.7-50.5-1.9zm37.5 2.5c32 2.9 62 12.8 84.6 27.9 9.6 6.5 24.7 21.5 29.3 29.2 13.3 22.6 13.3 45 0 67.6-4.6 7.7-19.7 22.7-29.3 29.2-31.5 21-76.4 31.6-120.3 28.2-34.9-2.7-65-12.2-88.9-28.2-9.6-6.5-24.7-21.5-29.3-29.2-13.3-22.6-13.3-45 0-67.6 4.6-7.7 19.7-22.7 29.3-29.2 32.5-21.7 78.8-32.1 124.6-27.9z" fill="#000000" stroke="#000000" stroke-width="0.5" stroke-miterlimit="10" />
        <path id="path346" d="m417 103.6c-18.7 1.6-29.4 2.9-41.5 5-115.5 20.1-215.3 98.5-263 206.6-14.6 33.1-22.9 63.7-28.2 103.3-1.4 10.5-1.7 20.9-1.7 54 0 44.9 0.7 54.6 6.5 84 27.2 139.9 139.5 252.2 279.4 279.4 26.7 5.2 40.3 6.5 70 6.5s43.3-1.3 70-6.5c91.8-17.8 174.8-73.5 226.9-152.3 35.4-53.3 54.7-111.6 59.7-179.6 0.6-8.5 1.2-15.6 1.3-15.8 0.3-0.2 170.2 75.5 171.4 76.4 0.2 0.1-1.5 4.4-3.7 9.5-2.3 5.1-4 9.3-3.9 9.4 0.6 0.5 53.7-2.1 54.3-2.6 0.3-0.4-7.2-10.2-16.7-21.8l-17.3-21.2-9 19-87.5-39.3-87.5-39.2-1.2-17.5c-4.2-62.5-12.4-101.1-30.3-142.3-2.8-6.5-4.8-12.2-4.3-12.6 0.8-0.9 221.3-72 223-72 0.5 0 2.2 4.3 3.8 9.5 1.5 5.2 3.1 9.5 3.4 9.5s9.3-8.7 20-19.4c15.5-15.5 19-19.5 17.5-19.9-4.3-1.2-51.5-7.9-52-7.4-0.3 0.3 0.7 4.6 2.2 9.6s2.5 9.3 2.3 9.5c-0.6 0.5-225.2 72.6-225.4 72.4-0.1-0.2-2.7-5-5.9-10.8-17.2-31.4-44-65.6-69.8-89.1-57.2-52.3-124.2-83.2-200.8-92.5-12-1.4-52.6-2.6-62-1.8zm64 5.9c40.8 5.5 76 16.1 111.5 33.5 54.2 26.5 99.7 65.6 134.8 115.9 8.2 11.7 23.7 37.7 23.7 39.8 0 0.7-0.8 1.3-1.8 1.3-1.2 0-4.9-4.8-11.4-14.8-37.6-57.5-91.3-103-154-130.7-33.2-14.6-63.9-23-103.3-28.2-18.1-2.3-63.7-2.3-82 0.1-59.6 7.7-108.9 25.8-156 57.1-74 49.2-125.3 121-148.4 208-3.5 12.9-4 11.9-1.1-2.1 22.1-107.6 92.2-198.3 190.5-246.4 40.8-20 81.8-31.2 129.5-35.4 10.4-0.9 57 0.4 68 1.9zm0.8 20.9c98.2 12.8 182.6 62 241.1 140.5 11.2 15 20.6 30 19.5 31-0.5 0.4-21.4 7.3-46.4 15.3-42.9 13.7-46.2 14.6-58 15.7-6.8 0.7-14 1.9-16 2.6-11.1 4.2-20.3 7.5-21.1 7.5-0.5 0-0.9-2.4-0.9-5.4v-5.4l6.2-1.1c19.3-3.4 35.8-19.6 42.4-41.6 2.5-8.3 2.5-27.7 0-36-6.8-22.6-23.6-38.7-43.6-41.8-25.2-3.9-49.1 13.5-57.6 41.8-2.5 8.3-2.5 27.7 0 35.9 2.7 9 8.2 19.3 13.2 24.6l4.4 4.7v15c0 14.8 0 15.1-2.2 15.7-1.3 0.3-8.6 0.6-16.3 0.6-11 0-15.6 0.4-21.4 2-4.1 1.2-7.7 1.7-8.1 1.3-3-3.3-13.8-22-17.5-30.4-3.9-8.8-10.8-19.8-12.5-19.9-0.3 0-1.7-1.2-3.3-2.5l-2.7-2.4 3.5-4.7c7.4-9.7 10.5-19.1 10.5-31.9 0-17.3-6.4-31.9-19.5-45-12.2-12.2-25-18.2-41-19.2-10.5-0.6-18.8 1.1-27.1 5.6l-5.3 2.8-2.6-5.3c-7.5-15.3-20.8-27.2-36.5-32.4-5.5-1.9-8.2-2.1-17.6-1.8-10.3 0.3-11.5 0.5-18.5 4-20.2 10-30.6 31.3-27.8 56.8 2.6 22.9 18.6 44.9 38.5 52.9 3 1.2 3.2 1.7 3.9 7.8 0.4 3.6 1.3 8.3 2.1 10.4 0.7 2.2 1.1 3.9 0.9 3.9s-4.1-4.3-8.5-9.5c-8.1-9.5-24.7-23.6-36.6-31.1-3.3-2-8.3-5.9-11.2-8.7l-5.3-4.9-8.7 0.4c-13.2 0.7-16.2 3-16.2 12.4 0 5.7 1.8 9.8 6.9 15.4 2.3 2.5 4.1 5.2 4.1 6 0 1.5 7.7 8.1 16.5 14 10 6.8 28.4 22.1 32.2 26.7 2 2.7 6 7.3 8.8 10.3 2.7 3.1 9.9 12.3 15.8 20.4l10.8 14.9 0.9 34.1c0.6 18.8 1.5 36.7 2.1 39.9 1.2 7.2 0.9 7.6-8 11.8-4.3 2-9.1 5.5-13.6 9.8-3.8 3.7-11.3 9.9-16.5 13.8s-12.9 10.5-17 14.8c-7.7 7.9-14.3 13.2-21.8 17.7-2.5 1.5-6 4.9-8 7.9-2.1 3-8 9.5-13.2 14.5l-9.6 9.2-6.9-2.4c-8.6-2.9-22.2-3.3-30.6-0.8-24.3 7.1-43.3 30.5-45.8 56.1-2.5 26.3 9.2 47.8 30.7 56.5 4.9 1.9 7.5 2.3 17.7 2.2 14.1 0 19-1.5 31.1-9.6 12.8-8.6 23-23.1 27.1-38.8 1.5-5.9 1.9-18 1-30.5-0.2-2.6 1.1-4.3 10.3-13 5.8-5.5 12-12.2 13.9-15 2.4-3.5 5.8-6.6 11.7-10.4 4.8-3.1 12.2-9.4 17.5-14.8 5.1-5.1 12.6-11.8 16.8-14.7l7.6-5.3-0.6 16.6c-0.3 9.1-0.9 17.3-1.2 18.1-0.4 0.8-1.6 7.2-2.6 14.3-1.6 10.2-3 15.2-7.2 25.5-6.2 15.3-8 19-13.1 26.5-4.5 6.6-9.8 17.4-9.8 19.9 0 2.9-4.4 11.9-9.7 19.8-2.8 4.1-9.8 16.7-15.5 28l-10.6 20.5-1.1 13.9c-0.9 11.6-0.9 14.2 0.3 15.5 0.7 0.9 2.4 3.6 3.6 6.1 2.9 5.9 4.7 7.9 8.9 9.6 5.1 2.1 10.6 1.8 13.5-0.9 3.2-2.8 5.7-9.6 6.2-16.7 0.2-3 0.9-10.5 1.4-16.5l1.1-11 10.3-20c5.6-11 13-24.2 16.4-29.4 4.2-6.2 6.9-11.7 8.3-16.5 2.9-10.1 3.4-11.1 10-21.2 3.7-5.7 8.4-14.9 12.3-24.5 5.4-13.1 6.6-17.2 8-27.4 1-6.6 2-12.4 2.4-13 0.3-0.5 0.9-8.9 1.2-18.5l0.6-17.5 5-9.3 4.9-9.4-0.2-12.8-0.2-12.9 2.7-1.9c6.7-4.8 36.9-18.2 40.9-18.2 0.8 0 5.8 2 10.9 4.4 8.3 4 10.6 5.7 19.6 14.8 10.2 10.2 10.4 10.3 18.3 12.5 4.4 1.2 11.2 2.5 15 2.9 3.9 0.4 8.7 1.5 10.7 2.5l3.8 1.9-2 5c-3.1 7.7-10.9 23-15 29-2 3-5.8 9.5-8.5 14.5-2.6 4.9-8.8 16-13.6 24.5l-8.8 15.6-18.3 13c-10.1 7.2-21.2 15.1-24.8 17.6s-9.9 7.7-14 11.5c-9 8.3-22.8 19.7-49.3 40.8-21.2 16.8-24.9 20.9-28.7 31.8-2.3 6.5-2.4 7.8-1 12.9 1.4 4.9 5.3 9.4 10.3 11.9 3.9 2.1 4.1 2.1 12.5 0.3 9.5-2 11-3.1 14.8-11 2.9-6.2 7.5-11 18.4-19.4 14.6-11.2 47.1-37.8 56.6-46.3 5-4.5 19.9-15.8 33-25.1l23.9-16.9 7.5-13.1c4.1-7.2 10.1-18.1 13.3-24.1 3.3-6.1 7.8-13.9 10.1-17.5l4.1-6.4 0.6 30.9c0.6 30.1 0.7 31.4 3.7 44.2 3.3 14.2 3.3 16.9-0.2 31.3-0.9 3.6-2.3 12.5-3.1 19.8s-2.8 19.7-4.6 27.5c-2.8 12.4-3.3 16.8-3.8 34.7-0.7 20.2-0.7 20.6 1.6 24.7 3.4 6.1 9.3 9.3 17.1 9.3 5.4 0 6.5-0.4 9.5-3 1.9-1.7 3.8-4.2 4.1-5.8 0.3-1.5 1-13.7 1.5-27.2 0.9-23.4 2-31.9 5.6-46.1 0.8-3.1 2.2-12.2 3-20.1 0.8-7.8 2.3-17.9 3.4-22.3 3.3-13.6 3.5-18.9 1.1-29-4.7-20-5-22.9-5-53.5-0.1-27.9-0.2-29.9-2.3-36.1l-2.3-6.6 7.8 2.4c4.3 1.3 10 3.4 12.6 4.6 4.3 2 6.6 2.2 26.5 2.5l21.7 0.3v2.9c0 5.7 2.3 13.6 5.8 20.5 6.5 12.4 18 21.7 33.7 27.1 7.1 2.5 9.4 2.8 21 2.8s13.9-0.3 21-2.8c20.2-7 34.7-21.9 38.4-39.4 5.3-25.2-10.3-49.1-38.4-58.8-7.1-2.5-9.4-2.8-21-2.8s-13.9 0.3-21 2.8c-8 2.7-18.1 8.3-20.5 11.1-1 1.3-4.9 1.5-23.2 1.5h-21.9l-12.8-4.4c-7.1-2.4-16.3-5.2-20.5-6.1s-7.8-2.1-8.1-2.6c-0.3-0.4 2-5.9 5.1-12.1s7.6-16.3 10-22.5 6.3-15 8.6-19.6l4.3-8.4 96.5 43.3c53.1 23.8 96.9 43.5 97.4 43.7 1.3 0.4-0.9 20.5-4 37.7-20.1 110.8-91.1 204.8-191.9 254-36 17.6-70.2 27.9-112 33.6-18.5 2.6-66.5 2.6-85 0-41.8-5.7-76.2-16.1-112-33.6-83.8-41-147.9-113.5-178.1-201.5-13.1-38-19.2-74-18.1-106.9 1.6-49.8 13.3-96.4 35.7-142.1 37-75.6 100.4-136.1 177.6-169 31.1-13.3 69.1-23.3 100.9-26.4 6.1-0.6 12.6-1.3 14.5-1.5 8.4-1 54.2 0.3 65.8 1.8zm-120.2 43.8c14.4 4.7 28.5 18.6 34.3 33.8 8.1 21 5.1 42.1-8 56.4-11.4 12.5-26.8 16.5-43.2 11.3-18.2-5.8-33-22.2-38.2-42.2-1.9-7.1-2.1-20-0.5-27 3.6-15.8 14.8-28.4 29.5-33.1 6.5-2.1 18.5-1.7 26.1 0.8zm80.9 30.3c21.6 5.5 39.5 23.2 45 44.5 3.6 13.8 0.5 29.7-7.7 40.1-20.2 25.6-63.9 18.2-83-14.1l-3.6-6.1 4-5.9c7.5-11.3 10.8-26.2 8.9-39.9-0.6-4.2-1.2-8.5-1.4-9.6-0.1-1.4 1.2-2.7 5.3-4.9 10.1-5.5 21.5-6.9 32.5-4.1zm167.8 14.5c11.4 3.5 22.5 13.5 28.6 25.8 1.2 2.4 3.1 7.8 4.2 11.9 7.3 28.8-8 59.7-33.3 67.4-13.3 4.1-29.1 0.8-37.4-7.7-2.3-2.4-4.7-4.4-5.2-4.4-0.6 0-2.6-2.1-4.5-4.8-10.6-14.6-14.2-33.1-9.8-50.4 7.5-29.1 32.4-45.5 57.4-37.8zm-323.7 40c3.2 2.7 9.6 7.6 14.1 10.7 12.2 8.7 24.2 19 29.3 25.1 2.5 3 5.9 7 7.5 9.1l3 3.6-4.5-3.8c-2.4-2-6.2-4.3-8.5-4.9-4.6-1.3-7.4-4.2-7.5-7.7 0-2.4-3.5-7.1-5.3-7.1-0.5 0-2.9-2.2-5.3-4.9-5.2-5.8-12.8-11.1-15.9-11.1-2.8 0-4.5 1.8-4.5 5.1 0 6 12.4 25.3 20.8 32.3 1.6 1.5 5 3.5 7.4 4.6s5.1 2.7 6 3.7c1.6 1.8 6.8 11.7 6.8 12.9s-4.1-2.9-7.6-7.7c-3.5-4.7-25.3-22.7-35.6-29.2-3.1-2-7.3-5.7-9.5-8.3-2.1-2.5-5.4-6.5-7.4-8.7-4.9-5.6-5.9-7.8-5.9-12.7s1.6-5.8 10.6-5.9c5.8-0.1 6.2 0.1 12 4.9zm16.7 20.2 4.7 4.3-2.9 3.2c-2.7 2.9-3 3-4.4 1.5-2.1-2.4-7.7-13.1-7.7-14.8 0-2.1 4.5 0.4 10.3 5.8zm95.4 9.2c11.9 13.2 30.5 22.5 45.2 22.6 7.7 0 15.1 8 22.1 23.8 2.6 5.9 7.7 15.4 11.4 21.1 3.8 5.8 7 11 7.3 11.7 0.8 2-7.8 7-15.2 8.8-3.8 1-13.1 2.8-20.5 4.2-11.1 2-14.3 2.9-17.8 5.4-2.3 1.6-4.5 3-4.8 3s-5.6-5.3-11.9-11.8c-6.2-6.5-14.9-14.4-19.3-17.6l-7.9-5.8-0.6-14.7c-0.6-16.7-2.1-24.7-7.1-37.9-2-5.2-3.9-11.8-4.2-14.7-0.7-5.4-0.7-5.4 2.7-6.8 1.9-0.8 5-2.6 6.9-4l3.4-2.4 3.3 5.5c1.8 3 5 7.3 7 9.6zm-29.1 0.1c0.3 2.7 2.4 9.7 4.5 15.5 6.5 17.6 7 22.1 6.9 60-0.1 18.8 0.3 38.1 1 43.9 0.8 8 0.8 11.1-0.1 13.3s-0.9 3.2 0 4.1c0.6 0.6 1.1 3.8 1.1 7.2 0 3.3 0.7 8.5 1.6 11.5 1.7 6.1 2.9 18.4 2.8 30.5 0 8.3 0.1 8.1-7.1 22-2.5 4.7-2.7 6.2-3.3 23-0.3 9.9-0.9 18.5-1.2 19-0.3 0.6-1.4 6.1-2.3 12.3-1.4 9.4-2.7 13.8-7.8 26-3.3 8.1-8.7 18.7-11.9 23.6-3.2 5-5.9 9.5-6.1 10-0.3 0.7-1.2 0.4-2.4-0.7-2.6-2.2-11-2.3-14.2-0.1-1.2 0.9-3.1 3.6-4.1 6-1.1 2.4-2.4 4.4-3 4.4-0.5 0-1-0.2-1-0.5 0-1.2 3.4-7.2 8.7-15.4 3-4.6 8.2-15 11.6-23 7.5-18 10.5-33.5 11.6-59.6 0.8-18.3 0.9-18.5 7.8-30l3.6-6-1.1-19c-0.8-13-1.7-20.4-2.8-23.5-1.1-3-1.8-8.4-2-16-0.6-19-1.3-60.1-1.5-83.5-0.1-12.3-0.6-22.5-1.1-23.2-0.6-0.7-1.4-2.7-1.8-4.5s-2.7-8.5-4.9-14.8-4.1-12.9-4.1-14.5v-3h10.9 11l0.7 5zm-53.7 5.9c3.8 6 1.7 7.7-3.8 3-3.3-2.7-3.9-4.9-1.8-5.7 2.6-1.1 3.6-0.6 5.6 2.7zm167.4 13.5c3.8 3.5 6.3 7.7 11.8 19.6 2.5 5.5 7.1 14 10.2 18.9 3.1 5 5.7 9.3 5.7 9.7s-2.4 1.2-5.2 1.9c-6.2 1.4-13.8 4.8-13.8 6.1 0 2.7-2.5-0.3-9.2-10.9-4-6.4-8.4-14.2-9.7-17.2-4.5-10.7-8.3-17.2-12.2-21.5l-4-4.3 5.5-1.7c3-0.9 7.1-2.8 9.3-4 3.5-2.2 4-2.3 6.3-0.8 1.4 0.9 3.8 2.7 5.3 4.2zm-162.3-2.9c0 1.3-2 1.3-4 0-1.2-0.8-0.9-1 1.3-1 1.5 0 2.7 0.4 2.7 1zm439.9 14.2c5.3 12.3 13.4 34.8 12.8 35.4-0.2 0.2-2.3-4.5-4.6-10.4-2.4-5.9-7.2-16.4-10.7-23.4-5.9-11.9-6.3-13.3-3.3-13.7 0.3-0.1 3 5.4 5.8 12.1zm-428.9-8.2c0 0.5-0.4 1-1 1-0.5 0-1-0.5-1-1 0-0.6 0.5-1 1-1 0.6 0 1 0.4 1 1zm424.4 14.9c16.5 34.1 27.5 70.2 32.2 105.1 1.3 10.1 2 44 0.8 44-0.8 0-188.8-84.2-189.5-84.9-0.4-0.3-0.4-3.4-0.2-6.9 0.5-6 0.6-6.2 3.3-6.2 7.8 0 24.2-4.5 42-11.5 1.9-0.8 4.8-1.4 6.4-1.5 3.6 0 10.4-5.4 12.2-9.7 1.9-4.5 1.8-6.9-0.7-12-1.2-2.4-2-4.5-1.8-4.7 0.8-0.7 84.5-27.4 86-27.5 1.1-0.1 4 4.9 9.3 15.8zm-405.4-4.6c0 0.4-1.3-0.5-3-2-1.6-1.4-3-3.5-3-4.6 0-1.6 0.6-1.2 3 1.9 1.6 2.1 3 4.2 3 4.7zm233.5 8.5c2.2 0.6 5.2 1.4 6.8 1.7 2.6 0.5 2.7 0.8 2.7 6.9v6.5l-5.2 1c-2.9 0.5-8.1 1.2-11.5 1.4l-6.3 0.5v-11.9-11.9l4.8 2.4c2.6 1.3 6.5 2.9 8.7 3.4zm-242.5-1.7c0 0.5-0.4 0.9-1 0.9-0.5 0-1-0.7-1-1.6 0-0.8 0.5-1.2 1-0.9 0.6 0.3 1 1 1 1.6zm10.8 22.6-0.3 6.8-6-8.5c-8.4-11.7-8.1-10.9-3.6-10.3 4.9 0.7 7.7-0.9 8.8-4.9 0.7-2.9 0.8-2.4 1.1 3.4 0.2 3.8 0.2 9.8 0 13.5zm-5.8-16.7c0 0.5-0.8 1-1.7 1-1.5 0-1.6-0.2-0.3-1 1.9-1.2 2-1.2 2 0zm308.9 8.4c1.2 1.3 2.4 3.9 2.7 5.8 0.5 3 0.1 4-2.5 6.7-1.9 2-4 3.1-5.8 3.1-1.5 0.1-5 0.9-7.8 1.9-18.6 7-22.9 8.4-30 9.8-4.4 0.8-10.1 1.3-12.6 1-2.6-0.3-5-0.2-5.5 0.2-1.7 1.5-12.7 3.1-21.3 3.1h-8.6l4-1.9c2.2-1 4.6-2.5 5.4-3.4 1.7-2.1 4.3-2.1 8.3-0.1 1.8 1 4.3 1.4 6.2 1 1.7-0.2 7.2-1.1 12.3-1.9 11.5-1.8 16.7-4.2 17.1-7.8 0.2-1.9-0.4-3.3-2.3-4.7l-2.6-2.1 19.8-6.5c10.9-3.6 20.1-6.5 20.4-6.5 0.3-0.1 1.5 1 2.8 2.3zm-51.4 7.7c1.1 1.7-0.1 2.1-3.7 1.4-2.9-0.7-3-0.9-1.3-1.6 2.9-1.1 4.3-1.1 5 0.2zm-36.9 6c-2.4 1.9-3.4 2-8.4 1.3l-5.7-0.7 6-0.9c3.3-0.4 6.4-1 7-1.2 2.8-1.2 3.5-0.4 1.1 1.5zm36.3 0c3.5 0.5 7.3 1.5 8.4 2.1 2 1 2 1.1-0.4 2.3-2.4 1.3-14.9 4-15.3 3.3-0.1-0.2-0.7-2.2-1.3-4.6-1.2-4.9-1.5-4.8 8.6-3.1zm-74.3 3.1c-2.5 3.6-1.9 6.4 2.3 10.9 3.9 4.1 4 4.1 10.2 3.8 3.6-0.3 6.4 0 6.6 0.6 0.3 1.1-5.3 3-20.1 7.1-5 1.3-10.2 3.2-11.6 4.2-1.5 0.9-6.5 4.3-11.2 7.4-4.8 3.2-9.2 5.8-10 5.8-0.7 0-3.1 0.7-5.3 1.4-5 1.8-27 5.9-30.9 5.8-4-0.1-11.8 6.5-14.7 12.5-3.1 6.4-7.6 11.3-10.5 11.3-1.3 0-2.8 0.8-3.3 1.9-0.6 1-4.7 3.2-9.4 4.9-4.5 1.8-13 5.6-18.8 8.6l-10.5 5.4-2.2-9.1c-1.1-5.1-2-11-1.8-13.2 0.3-3.6 0.7-4.2 4.7-6.2 2.4-1.2 6.7-3 9.4-3.8 12.1-4 21.2-10.5 25.2-18 0.9-1.6 2.2-3.5 2.9-4.3 0.8-0.7 1.4-2 1.4-2.8 0-2.4 7.2-5.1 20-7.3 21.3-3.8 25.6-5.2 35.3-11.7 4.9-3.2 9.9-6.6 11.2-7.4 1.3-0.9 5.8-2.4 10.1-3.4 4.4-1 9.7-2.7 11.9-3.6 5.4-2.4 6.7-2.8 8.8-2.9 1.7-0.1 1.7 0.1 0.3 2.1zm44.2 0.7c-0.6 1-1.8 1.7-2.5 1.4-1.7-0.7 0.2-3.3 2.3-3.3 1.1 0 1.2 0.4 0.2 1.9zm14.2 0.5c0 3.3-1.3 3.9-6.7 3.1-4.3-0.6-4.4-0.7-2.8-2.5 0.9-1 2.7-2.1 3.9-2.3 4.9-1 5.6-0.7 5.6 1.7zm-178.3 20.6c7.3 7.4 13.3 14.2 13.3 15 0 2.6-6.5 9.4-11.2 11.9l-4.3 2.3-10.2-10-10.3-10v-14.6-14.7l4.7 3.3c2.6 1.8 10.7 9.4 18 16.8zm123.6-18.5c-0.3 0.9-0.8 1.4-1 1.1-0.3-0.3-0.2-0.9 0.2-1.5 0.9-1.6 1.5-1.3 0.8 0.4zm9.7 0.5c0 0.5-0.7 1-1.5 1s-1.5-0.5-1.5-1c0-0.6 0.7-1 1.5-1s1.5 0.4 1.5 1zm19 2c0 0.5-0.7 1-1.5 1s-1.5-0.5-1.5-1c0-0.6 0.7-1 1.5-1s1.5 0.4 1.5 1zm32 16.2c0 5.9-0.9 6.1-8.9 2.6l-7.3-3.3 5.8-1.1c10-1.9 10.4-1.9 10.4 1.8zm-36.5-0.2c0.3 0.5-0.9 4-2.8 7.7s-5.3 11.6-7.6 17.6l-4.3 10.7-3.4-5.6c-1.8-3-5.6-8.4-8.4-12-7.1-8.8-6.7-10 3.5-13.1 4.4-1.4 10.7-3.3 14-4.3 7.1-2.2 8.2-2.3 9-1zm18.8 8.1c6.4 2.9 11.7 5.6 11.7 6.1s-1.3 3.5-3 6.8c-1.6 3.2-5.2 11.5-7.9 18.3-6.2 15.4-17.1 38.7-18.2 38.7-0.5 0-1.3 1.9-1.9 4.2-0.6 2.4-2.2 6-3.6 8-1.3 2.1-3.4 6.4-4.6 9.5-1.1 3.2-2.9 6.4-4 7.1-1.2 0.9-1.6 2-1.2 3.7 0.5 2-4.3 13.6-8.4 20.5-0.5 0.8-1.7 3.3-2.7 5.5-0.9 2.2-3.8 7.4-6.5 11.5-2.6 4.1-6.2 10.4-8 14s-7.4 13.9-12.6 23l-9.4 16.5-22.6 16c-12.5 8.8-25.8 18.7-29.6 22-15.7 13.7-20.5 17.7-46.1 38.2-14.7 11.8-28.1 23.1-29.7 25.1-1.7 2-4 6-5.1 8.8l-2.2 5.1-7.4 1.7c-7.3 1.6-7.6 1.6-10.8-0.4-4.9-3-6.8-7.7-5.5-13.5 1.5-6.6 5.2-13.4 9.7-17.6 2.1-2 11.9-10.1 21.8-18 25.9-20.6 40.2-32.4 47-39 3.3-3.1 11.4-9.5 18-14.1s17.9-12.5 25.1-17.7l13.1-9.5 10.6-18.5c5.8-10.2 11.7-21.1 13.2-24.1s4.5-8.1 6.6-11.2c4.3-6.3 17.9-33.2 17.9-35.4 0-0.8 0.4-1.4 0.8-1.4 1.2 0 3.2-4.6 3.2-7.4 0-1.9 6.5-16.1 9.9-21.6 0.5-0.8 2.6-5.3 4.6-10s4.4-9.2 5.1-10.1c0.8-0.9 1.7-2.5 1.9-3.5 1.2-5.5 17.3-42.4 18.4-42.4 0.4 0 5.9 2.3 12.4 5.1zm-55.3 5.3c0 1.3 2.6 5.6 6 9.9 3.3 4.2 7.4 10.3 9.2 13.7l3.2 6.1-4.5 9.2c-2.4 5.1-4.5 9.4-4.6 9.6s-2.2-0.8-4.7-2.3c-2.4-1.4-5.1-2.6-6-2.6s-2-1.6-2.7-4.2c-1.7-6.5-6.6-15.6-12-22.4-2.7-3.4-4.9-6.4-4.9-6.7s3.3-2.6 7.4-5.2c4-2.5 8.4-5.4 9.6-6.5 2.6-2.3 4-1.8 4 1.4zm-126.8 11.3c3.2 3.2 5.8 6 5.8 6.4s-2.3 1.6-5.1 2.9c-6.1 2.6-6.9 2-6.9-5.5 0-2.8-0.3-6-0.6-7.3-1-3.4 0.6-2.7 6.8 3.5zm-303.5 0.5c-0.3 0.7-0.5 0.2-0.5-1.2s0.2-1.9 0.5-1.3c0.2 0.7 0.2 1.9 0 2.5zm408.4 7.5c6.3 8.1 9.1 12.8 11.5 19.6l1.4 4-4.4-0.6c-2.5-0.4-7.5-1.7-11.2-2.9-6-2-7.4-3-11.9-8.4-2.7-3.3-7.4-7.9-10.3-10.1l-5.3-4.2 3.8-0.7c3.6-0.6 19.5-4 20-4.3 0.2 0 3 3.4 6.4 7.6zm-36.8 0.9c5.8 2.9 13.6 9.5 17.1 14.4 1.9 2.7 5.4 6 7.8 7.4 5 2.9 16.4 6 25.8 7.1 6.5 0.7 14 3.7 14 5.5 0 0.7-7.9 17-10.6 21.8-0.1 0.2-1.9-0.6-4-1.7-2.5-1.4-5.7-2.1-9-2.1-6.4 0-20.2-3.9-24.7-7-1.9-1.3-4.5-3.9-5.8-5.8-3.5-5.1-13.3-12.6-21.8-16.8-4.2-2-7.8-3.8-8-4-0.1-0.1 0.8-1.8 2.2-3.6s3.4-5.2 4.5-7.4c1.8-3.5 7.3-9.4 8.8-9.4 0.3 0 1.9 0.7 3.7 1.6zm-102.8 51.9c0.9 12.7 0.4 16.6-2.7 20.4-2.7 3.3-11.5 10.6-20.8 17.3-3.6 2.5-10.4 8.6-15.2 13.5-8.3 8.6-11.3 11-20.5 16.7-2.3 1.4-5.6 4.7-7.4 7.3-3.3 4.8-21.5 23.3-22.9 23.3-0.4 0-2.3-2.6-4.3-5.8s-5.5-7.6-7.9-9.8l-4.3-3.9 10.6-10.5c5.8-5.8 11.4-12 12.5-13.8 1.1-2.1 5.2-5.5 10.4-8.9s11.8-9 17-14.5c4.7-5 11.2-10.8 14.5-13.1 8.3-5.6 20.9-16.2 22.8-19.1 1.3-1.9 14.3-9.3 16.9-9.5 0.3-0.1 0.9 4.6 1.3 10.4zm349.9-1.5c23.4 6 39.6 24.1 39.6 44.5 0 30.5-35.5 53.2-69.4 44.5-45.5-11.6-53.7-62.6-13.5-84 12.8-6.8 29-8.7 43.3-5zm-136.9 3c2.8 0.6 11.1 3.2 18.5 5.8l13.5 4.7 20.3 0.3 20.2 0.3-1.9 2.7c-3 4.4-6.3 11.4-7.6 16.2l-1.1 4.5-19.5-0.1h-19.4l-11-4.1c-6-2.2-14.4-4.8-18.5-5.8-4.1-0.9-8.9-2.1-10.7-2.7l-3.2-0.9 1.7-4.2c1-2.3 3.4-7.5 5.5-11.6 3.3-6.4 4.1-7.2 6-6.7 1.2 0.4 4.5 1.1 7.2 1.6zm-17.8 28c1.9 0.7 3.6 2.4 4.8 4.8 4.8 10.1 4.8 10.2 5.5 46.2 0.6 33.2 0.8 35 3.5 46.4 3.1 13.2 3.1 13.4-1.4 34.1-1 4.9-2.2 13.4-2.6 18.8s-1.6 12.8-2.6 16.5c-1.9 6.8-1.9 6.4 0.2-7 1.1-6.7 1-8.5-0.5-14.2-2-7.3-1.6-9.5 3.5-19.8 5.2-10.4 3.2-22.8-3.7-22.8-3.8 0-10.2 3.7-11.8 6.8-1.8 3.3-1.8 3.3-5.1-12-2.3-11-2.5-13.8-2.6-41.5-0.1-16.4-0.4-31.2-0.8-32.8-0.5-2.3 0.1-4.8 3-10.7 2-4.3 4.2-9.1 4.7-10.8 1.2-3.3 1.6-3.5 5.9-2zm233.8 32.7c-1.1 10.9-5.2 30.6-9.6 46.3-16.7 59.3-49.7 114.7-93.5 157-57.5 55.5-127.1 88.3-207.9 98.2-6.7 0.8-21.6 1.3-38 1.3-28.4 0-39-0.9-62.5-5.1-25.2-4.6-53.1-12.9-76.4-22.9-92-39.3-163.9-117.4-195.5-212.2-6-18.1-7.6-25.7-2.3-11.3 40.6 111.4 131.7 194.6 245.7 224.5 29.5 7.8 55.4 10.9 89.5 10.9 26.8 0 38.3-0.9 62-5 126.1-21.6 232.6-112.6 274.6-234.6 4.9-14.3 11.7-40 12.9-48.6 1-7.6 1.9-6.4 1 1.5zm-550.4 16.3c15.3 4.8 26 18.3 28.9 36.7 3.7 22.9-10.6 49.9-32.2 60.8-26.7 13.4-54 1.6-62.3-27-2.8-9.3-1.7-24.7 2.4-35 10.9-27.7 38.6-43.2 63.2-35.5zm324.3 58.9c0.4 0.5-0.3 0.7-1.4 0.4-2.3-0.6-2.6-1.3-0.6-1.3 0.8 0 1.7 0.4 2 0.9zm-2.4 8.1c0 0.5-0.4 1-1 1-0.5 0-1-0.5-1-1 0-0.6 0.5-1 1-1 0.6 0 1 0.4 1 1zm-222 8c0 0.5-0.4 1-1 1-0.5 0-1-0.5-1-1 0-0.6 0.5-1 1-1 0.6 0 1 0.4 1 1zm216 10.6c0 0.8-0.5 1.2-1 0.9-0.6-0.4-0.8-1.1-0.5-1.6 0.9-1.4 1.5-1.1 1.5 0.7zm-214.8 2.1c-9 14.2-10 15.3-10.4 12.8-0.6-2.8 0.9-5.3 6.6-11.3 4.6-4.8 6.4-5.5 3.8-1.5zm-13.6 3c-1 1-1.9-0.5-1-1.8 0.6-1.1 0.8-1.1 1.2 0 0.2 0.7 0.1 1.5-0.2 1.8zm222.2 11.3c-0.5 1.4-1.8 3.4-2.8 4.5-1.5 1.7-1.8 4-1.9 16.9-0.1 16.8 0.8 20 5.6 19.4 3.3-0.4 5.8-3.8 8.8-11.9 2.9-7.6 3-7 0.9 3.6-0.9 4.7-1.9 18.2-2.4 32.8-0.9 26.9-1.4 29-6.6 30-3.7 0.7-8.8-0.9-12.4-3.9l-3-2.6v-18.1c0-18.2 1.1-27.5 5.3-44.2 0.9-3.3 2-11.3 2.6-17.7s1.4-13 1.7-14.7l0.6-3 2.3 3.2c1.7 2.5 2 3.8 1.3 5.7zm9.2-5.1c0 0.5 0.3 1.8 0.7 2.8 0.6 1.6 0.5 1.6-1 0.4-1.9-1.5-2.3-4.1-0.7-4.1 0.6 0 1 0.4 1 0.9zm-244.8 7.2c-4 3.6-6 3.8-3.8 0.4 0.9-1.4 2.4-3.7 3.3-5.1l1.7-2.7 1 2.3c0.9 1.9 0.5 2.7-2.2 5.1zm11.8-0.9c0 3-0.1 3.1-1.4 1.2-1-1.3-1.1-2.3-0.4-3.1 1.5-1.9 1.8-1.6 1.8 1.9zm231 5.4c0 5-1.3 6.3-4 3.9-1.7-1.5-1.7-1.9-0.3-6.1 1.2-3.6 1.8-4.3 2.9-3.3 0.8 0.7 1.4 3 1.4 5.5zm-236-0.5c0 2.8-2.9 8.1-4.2 7.7-3-1-3.1-3.5-0.3-7.2s4.5-3.9 4.5-0.5zm-17.4 12.7c-6.5 13-7 21.2-1.3 21.2 2.8 0 10.1-5 11.7-8.1 0.7-1.1 1.4-1.8 1.7-1.5s-0.8 2.9-2.4 5.8c-2.7 4.7-3.1 6.9-4.2 19.3-0.7 7.7-1.1 14.5-1 15 0.4 1.3-2 8.4-3.7 11.2-1.8 2.9-6.2 3-9.8 0.2-1.5-1.2-4-4.7-5.6-7.9l-3-5.9 1.1-11.2 1-11.2 9.1-18.1c5-10 9.3-17.6 9.5-16.9 0.2 0.6-1.2 4.3-3.1 8.1zm12.3 2.9c0.2 0.1-1.3 2.5-3.4 5.2-4.2 5.5-9.1 9.5-9.9 8.2-0.6-0.9 2-9.1 4.4-14.3 1.2-2.6 1.3-2.6 4.9-1 2 0.9 3.8 1.8 4 1.9zm242.1-2.1c0 1.5-4.4 13-5.7 15.1-1.2 1.8-1.8 2.1-2.4 1.1-0.9-1.3-1.3-16.1-0.5-16.9 0.6-0.6 8.6 0.1 8.6 0.7zm-396 34.3c35.8 45.2 82.6 81.4 135.2 104.6 33.2 14.6 63.9 23 103.3 28.2 9.6 1.2 20.4 1.7 41 1.7 29.1 0 40.2-1 65.5-5.5 51.9-9.3 106.4-33.2 148.3-65 4.2-3.3 7.7-5.7 7.7-5.5 0 0.9-16.5 13.3-27 20.3-47.1 31.4-99 50.3-157.5 57.5-14.6 1.7-61.4 1.7-76 0-82.5-10.1-153.7-44.4-211-101.7-13.2-13.2-30.2-32.9-37.4-43.5-3.8-5.5-1-2.4 7.9 8.9zm506 54.4c0 0.2-1 1.2-2.2 2.3l-2.3 1.9 1.9-2.3c1.8-2.1 2.6-2.7 2.6-1.9z" fill="#000000" stroke="#000000" stroke-width="0.5" stroke-miterlimit="10" />
        <path id="path348" d="m429.2 604.3c-1.2 0.7-2.9 2.3-3.8 3.5-0.9 1.3-2.6 2.2-4 2.2-4.8 0-17.4 14.2-17.4 19.7 0 2.6-4.3 5.3-8.4 5.3-1.5 0-3.2 1-4.3 2.5-1 1.4-5 5.8-8.8 9.8-10.9 11.1-12.2 16.8-4 17.5 4.7 0.4 12-3.1 22.3-10.7 8.8-6.5 12.7-10.8 15.4-16.8 2.2-5.1 5.6-7.6 15.5-11.7 11.9-4.9 17.2-13.2 12.1-19-2.8-3.2-10.8-4.5-14.6-2.3zm12.8 6.8c0 0.6-0.4 0.7-1 0.4-0.5-0.3-1-1.1-1-1.6 0-0.6 0.5-0.7 1-0.4 0.6 0.3 1 1.1 1 1.6zm-7.5 3.9c-0.3 0.5-1 1-1.6 1-0.5 0-0.9-0.5-0.9-1 0-0.6 0.7-1 1.6-1 0.8 0 1.2 0.4 0.9 1zm-17.3 10.2c-0.7 0.7-1.2 0.8-1.2 0.2s0.3-1.4 0.7-1.7c0.3-0.4 0.9-0.5 1.2-0.2 0.2 0.3-0.1 1.1-0.7 1.7zm-5.2 10c0 0.7-0.4 1.9-0.9 2.6-0.6 1.1-0.9 0.9-1.4-0.7-0.2-1.1-0.2-2.2 0.1-2.5 1-1 2.2-0.6 2.2 0.6zm-6.8 4.4c-0.6 1.1-2.2 3-3.7 4.4-2.2 2.1-2.8 2.2-3.5 1-1.7-2.6-1.1-3.9 2.8-6.4s6-2 4.4 1zm-11.3 14c-1.3 1.6-12.7 7.4-14.6 7.4-0.7 0-1.3-0.4-1.3-0.8 0-1.5 5.6-8.8 8.6-11.1l2.7-2.2 2.8 2.7c2.2 2.1 2.6 3.1 1.8 4z" fill="#000000" stroke="#000000" stroke-width="0.5" stroke-miterlimit="10" />
        <path id="path350" d="m916 175.2c-7.9 2.3-12.6 8.2-11.7 15 1 7.8 6.3 12.3 15.6 13.3 11.2 1.3 15.2 3.7 15.3 9.4 0.2 6.4-7.6 10.6-17.4 9.4-4-0.5-4.8-0.3-4.8 1.1 0 0.9 1 2.6 2.1 3.7 1.9 1.9 3 2.1 7.9 1.6 13.6-1.2 21.9-10.1 19.1-20.5-2-7.1-7-10.1-20-11.7-11.6-1.5-15-11.2-5.4-15.2 2.5-1 5.1-1.2 8.4-0.8 4.1 0.6 4.9 0.4 4.9-0.9 0-0.9-0.9-2.5-2-3.6-2.2-2.2-6.3-2.5-12-0.8z" fill="#000000" stroke="#000000" stroke-width="0.5" stroke-miterlimit="10" />
        <path id="path352" d="m877.5 187.7c-11.1 5.8-15 17.3-10.9 31.4 3.8 13 11.4 19.9 22 19.9 12.3-0.1 23.5-8.6 19.5-14.9-0.8-1.2-1.8-0.7-5.4 2.6-10.3 9.5-20.9 7.5-26.8-5.1-4.1-8.8-4.7-15.9-1.7-21.6 3.2-6.3 7.3-8.3 16.1-7.6 6.4 0.5 6.7 0.4 6.7-1.8 0-1.2-0.5-2.7-1.2-3.4-1.8-1.8-14.7-1.5-18.3 0.5z" fill="#000000" stroke="#000000" stroke-width="0.5" stroke-miterlimit="10" />
        <path id="path354" d="m829.9 203c-1.4 0.8-1.8 3.7-2.3 16.2-0.3 8.4-0.9 20.8-1.2 27.5-0.6 11.9-0.6 12.3 1.4 12.3 4.7 0 5.2-0.8 5.2-8.6v-7.3l9.9-3.1c5.4-1.6 10.2-3 10.7-3s2.7 2.5 4.8 5.5c2.2 3 4.3 5.5 4.7 5.5 1.9 0 5.9-2 5.9-3 0-0.6-7.3-10.5-16.2-22-13.7-17.9-16.5-21-18.7-21-1.4 0-3.3 0.5-4.2 1zm12.7 18.1c4.2 5.5 7.4 10.2 7.2 10.3-0.9 0.8-16.2 5.5-16.6 5.2-0.5-0.5 0.9-25.6 1.4-25.6 0.2 0 3.8 4.5 8 10.1z" fill="#000000" stroke="#000000" stroke-width="0.5" stroke-miterlimit="10" />
        <path id="path356" d="m791.8 215.3c-5.4 1.8-10.2 3.7-10.8 4.3-0.8 0.8 0.9 7.5 6.4 24.8 4.2 13 7.6 23.8 7.6 24.1 0 0.9 4.4 0.5 6-0.5 1.2-0.7 0.9-2.4-2-11.4-1.8-5.8-3.2-10.7-2.9-10.9 0.2-0.3 4.1-1.7 8.7-3.1 7.2-2.4 8.2-3.1 8.2-5.1 0-1.3-0.4-2.6-0.8-2.9-0.5-0.3-4.3 0.6-8.6 2-4.2 1.3-8.2 2.4-8.9 2.4s-2.5-3.6-3.9-8l-2.6-8 9.1-2.9c8.1-2.6 9.2-3.2 9.2-5.3 0-3.3-3.2-3.2-14.7 0.5z" fill="#000000" stroke="#000000" stroke-width="0.5" stroke-miterlimit="10" />
        <path id="path358" d="m1325.2 284.2c0.3 4.3 0.3 4.3 4.3 4.3s4 0 4.3-4.3l0.3-4.2h-4.6-4.6l0.3 4.2z" fill="#000000" stroke="#000000" stroke-width="0.5" stroke-miterlimit="10" />
        <path id="path360" d="m1214 291.9v6.1h-4.1c-3.9 0-4 0.1-3.7 3.2 0.3 3 0.6 3.3 4.1 3.6l3.7 0.3v16c0 17.5 0.7 20.5 5.5 22.7 3.2 1.5 10.9 1.6 13.6 0.2 1.2-0.7 1.9-2.1 1.9-4.1v-3l-4.9 0.7c-7.4 1-8.1-0.6-8.1-18.3v-14.2l6.3-0.3c6.2-0.3 6.2-0.3 6.2-3.3s0-3-6.2-3.3l-6.2-0.3-0.6-11.4-3.7-0.3-3.8-0.3v6z" fill="#000000" stroke="#000000" stroke-width="0.5" stroke-miterlimit="10" />
        <path id="path362" d="m1294 291.9v6.1h-4.1c-3.9 0-4 0.1-3.7 3.2 0.3 3 0.6 3.3 4.1 3.6l3.7 0.3v16c0 17.5 0.7 20.5 5.5 22.7 3.2 1.5 10.9 1.6 13.6 0.2 1.2-0.7 1.9-2.1 1.9-4.1v-3l-4.9 0.7c-7.4 1-8.1-0.6-8.1-18.3v-14.2l6.3-0.3c6.2-0.3 6.2-0.3 6.2-3.3s0-3-6.2-3.3l-6.2-0.3-0.6-11.4-3.7-0.3-3.8-0.3v6z" fill="#000000" stroke="#000000" stroke-width="0.5" stroke-miterlimit="10" />
        <path id="path364" d="m1078.8 298c-9.5 2.8-14 9.5-14.6 21.6-0.7 12.4 2.4 19.6 9.8 23.4 4.6 2.3 18.1 2.7 24 0.7 2.9-1 3.6-1.7 3.8-4.5 0.4-3.7-0.3-3.9-6.3-1.7-5.2 1.8-11.7 1.9-16.1 0-3.6-1.5-7.3-7.6-7.4-12.2 0-2.2 0.2-2.3 15.8-2.5l15.7-0.3 0.3-4.9c0.9-14.3-11.3-23.8-25-19.6zm12.7 7.6c2.4 1.5 4.5 6.1 4.5 9.5 0 1.7-1 1.9-12 1.9-7.6 0-12-0.4-12-1 0-2.5 3-7.8 5.5-9.8 3.3-2.7 10.4-3 14-0.6z" fill="#000000" stroke="#000000" stroke-width="0.5" stroke-miterlimit="10" />
        <path id="path366" d="m1123.4 298.8c-2.2 1.1-5 3.2-6.2 4.6-3 3.9-3.8 10.8-1.9 15.7 1.5 3.8 1.5 4.2-0.4 7.2-2.4 4-2.4 7.8 0 10.8 1.9 2.4 1.9 2.5-0.5 5.4-2.6 3.3-3.3 10-1.3 13.7 1.8 3.4 8.6 5.8 16.9 5.8 9.7 0 14.6-1.4 18.7-5.5 2.9-2.9 3.3-3.9 3.3-8.7 0-9.1-3.7-11.6-18.5-12.5-10.8-0.7-12.7-1.5-12.3-5.1 0.2-2.1 0.8-2.6 2.3-2.4 1.1 0.2 4.7 0.4 8 0.5 11 0.2 16.9-5.3 16.2-15.3-0.2-3-0.7-6.3-1.1-7.3-0.7-1.4-0.3-1.7 2.8-1.7 3.3 0 3.6-0.2 3.6-3v-3h-6.2c-3.5 0-9.2-0.3-12.8-0.6-5.1-0.4-7.4-0.1-10.6 1.4zm14.3 7.4c3 2.9 3.2 9.4 0.2 13.2-1.6 2.1-2.9 2.6-6.3 2.6-5.3 0-8.3-2.1-9.2-6.5-0.7-4 1-9 3.5-10.5 3-1.8 9.3-1.1 11.8 1.2zm4.1 37.4c3 2.1 2.9 6.4-0.4 9.5-2.2 2.1-3.5 2.4-9.9 2.4-5.8 0-7.7-0.4-9.4-1.9-2.7-2.5-2.7-6.4 0.1-9.3 1.9-2 3.1-2.3 9.8-2.3 5.2 0 8.2 0.5 9.8 1.6z" fill="#000000" stroke="#000000" stroke-width="0.5" stroke-miterlimit="10" />
        <path id="path368" d="m1174.8 298c-9.5 2.8-14 9.5-14.6 21.6-0.7 12.4 2.4 19.6 9.8 23.4 4.6 2.3 18.1 2.7 24 0.7 2.9-1 3.6-1.7 3.8-4.5 0.4-3.7-0.3-3.9-6.3-1.7-5.2 1.8-11.7 1.9-16.1 0-3.6-1.5-7.3-7.6-7.4-12.2 0-2.2 0.2-2.3 15.8-2.5l15.7-0.3 0.3-4.9c0.9-14.3-11.3-23.8-25-19.6zm12.7 7.6c2.4 1.5 4.5 6.1 4.5 9.5 0 1.7-1 1.9-12 1.9-7.6 0-12-0.4-12-1 0-2.5 3-7.8 5.5-9.8 3.3-2.7 10.4-3 14-0.6z" fill="#000000" stroke="#000000" stroke-width="0.5" stroke-miterlimit="10" />
        <path id="path370" d="m1252.5 298.3c-7 2.3-8.5 3.5-8.5 6.7 0 3.6 1.2 3.7 7.1 1 10-4.5 18.1-1.3 18.3 7.1l0.1 4.4-9 0.6c-10 0.6-12.1 1.4-15.9 6-2 2.3-2.6 4.2-2.6 7.5 0 9.2 4.7 13.4 14.8 13.4 4.7 0 6.7-0.5 9.6-2.5 4.5-3 4.4-3 4.8-0.3 0.2 1.8 1 2.3 3.3 2.3h3v-19c0-21.2-0.4-22.9-6.7-26.1-4.2-2.2-13.3-2.7-18.3-1.1zm17.5 29.7c0 4.7-0.2 5.2-4.2 8-5.2 3.8-9.9 4-13.3 0.5-2.9-2.8-3.2-6.1-1-9.3 1.9-2.6 6.2-4 13.3-4.1l5.2-0.1v5z" fill="#000000" stroke="#000000" stroke-width="0.5" stroke-miterlimit="10" />
        <path id="path372" d="m1403.6 298.2c-5 1.4-10.8 7.2-12.4 12.4-1.7 5.8-1.5 18.7 0.3 23.1 3.5 8.3 9 11.3 20.7 11.2 4.6 0 9.9-0.5 11.8-1.2 2.9-1 3.6-1.7 3.8-4.5 0.4-3.7-0.1-3.8-7.2-1.7-12.4 3.8-20.9-0.2-22.3-10.4l-0.6-4 31.8-0.6-0.1-6.7c-0.1-11.2-5.9-17.6-16.8-18.3-2.8-0.2-6.8 0.1-9 0.7zm14.4 8.5c2 1.8 3.3 4.1 3.7 6.5l0.6 3.8h-12.2c-13.5 0-13.6-0.1-10.5-6.6 3.2-6.8 12.8-8.7 18.4-3.7z" fill="#000000" stroke="#000000" stroke-width="0.5" stroke-miterlimit="10" />
        <path id="path374" d="m1017 299.1c0 1.8 15 43.2 16.2 44.6 1.3 1.7 8.2 1.7 9.6 0 1.1-1.3 16.2-42.9 16.2-44.7 0-0.7-1.6-1-4.2-0.8l-4.1 0.3-12.4 37-1.6-4.5c-1-2.5-3.8-10.8-6.5-18.5l-4.7-14-4.2-0.3c-2.8-0.2-4.3 0.1-4.3 0.9z" fill="#000000" stroke="#000000" stroke-width="0.5" stroke-miterlimit="10" />
        <path id="path376" d="m1326 321.5v23.5h3.5 3.5v-23.5-23.5h-3.5-3.5v23.5z" fill="#000000" stroke="#000000" stroke-width="0.5" stroke-miterlimit="10" />
        <path id="path378" d="m1343 299.4c0 2.6 15.1 44 16.3 44.8 1.9 1.2 8.4 0.9 9.4-0.5 1-1.2 16.3-43.6 16.3-45 0-0.5-1.9-0.7-4.2-0.5l-4.3 0.3-6 17.7c-3.3 9.8-6.2 17.8-6.5 17.8s-3.3-8-6.7-17.8l-6-17.7-4.2-0.3c-3.1-0.2-4.1 0-4.1 1.2z" fill="#000000" stroke="#000000" stroke-width="0.5" stroke-miterlimit="10" />
        <path id="path380" d="m1224.2 396.8c-0.9 0.7-1.2 8.2-1 34.3l0.3 33.4 3.8 0.3 3.7 0.3-0.2-34.3-0.3-34.3-2.5-0.3c-1.4-0.1-3.1 0.2-3.8 0.6z" fill="#000000" stroke="#000000" stroke-width="0.5" stroke-miterlimit="10" />
        <path id="path382" d="m1092 418.1c-1.3 0.6-3.9 2.1-5.7 3.5l-3.3 2.5v-3c0-2.9-0.3-3.1-3.5-3.1h-3.5v23.6 23.5l3.8-0.3 3.7-0.3 0.3-16.2 0.2-16.1 4-3.6c6.5-5.9 11.8-5.8 15.7 0.1 1.5 2.3 1.9 5.4 2.1 19.6l0.4 16.8 3.6-0.3 3.7-0.3v-18c0-15.2-0.3-18.6-1.8-21.6-3.2-6.4-12.5-9.6-19.7-6.8z" fill="#000000" stroke="#000000" stroke-width="0.5" stroke-miterlimit="10" />
        <path id="path384" d="m1190.5 418.9c-8.4 3.9-11.7 10.4-11.7 23.1 0 9.7 2.4 16.6 7.1 19.9 6.4 4.6 17.1 4.9 23.4 0.7 2.5-1.7 3.3-3 3.5-5.9 0.2-2 0-3.7-0.3-3.7-0.4 0-2.6 1.2-5.1 2.6-7.5 4.4-14.9 3.2-18.1-3-2.1-4-2.8-13.2-1.3-18.5 0.6-2.4 2.5-5.8 4.1-7.4 2.7-2.6 3.5-2.9 7.8-2.5 2.7 0.3 6.2 1.4 7.9 2.6 4.3 3.1 5.4 2.8 5-1.6-0.3-3.3-0.8-4-4.8-6-5.4-2.7-12-2.8-17.5-0.3z" fill="#000000" stroke="#000000" stroke-width="0.5" stroke-miterlimit="10" />
        <path id="path386" d="m1256.7 418.5c-4.9 1.7-8.1 4.7-10.7 10-2.7 5.7-2.8 20.1-0.1 26.1 3.9 8.6 14.1 12.6 26.3 10.4 8.3-1.5 9.8-2.4 9.8-6 0-3.4-0.8-3.6-6.5-1.5-8.2 2.9-17.7 1.2-21-3.9-0.9-1.4-1.9-4.3-2.2-6.5l-0.6-4 31.8-0.6 0.3-4.2c0.4-5.3-1.2-11.3-4-14.8-4.5-5.8-14.8-8-23.1-5zm11.8 5.9c3.8 1.6 6 4.6 7 9.3l0.7 3.3h-12.2-12.2l0.6-3.2c0.9-4.6 3.3-7.7 6.9-9.3 4.1-1.8 5-1.8 9.2-0.1z" fill="#000000" stroke="#000000" stroke-width="0.5" stroke-miterlimit="10" />
        <path id="path388" d="m1354.3 418.9c-4.8 2.3-7.3 6.2-7.3 11.9 0 5.5 3 8.9 11.5 12.7 3.9 1.8 7.9 4 8.8 5 4.2 4.1-0.2 10.5-7.2 10.5-2 0-5.6-0.9-8-2-5.8-2.7-6.1-2.6-6.1 1.6 0 3.1 0.4 3.7 3.8 5.1 5 2.2 15.7 2.1 20-0.1 7-3.6 9.5-13.8 4.8-19.2-1.2-1.5-6.1-4.6-10.7-6.8-8.6-4.2-9.7-5.5-8.5-10.1 1.2-4.7 11.1-5.4 16.4-1.2 1.8 1.4 3.5-0.5 3-3.4-0.7-5.4-12.4-7.6-20.5-4z" fill="#000000" stroke="#000000" stroke-width="0.5" stroke-miterlimit="10" />
        <path id="path390" d="m1128.4 419.4c-0.3 0.9-0.4 9.1-0.2 18.3 0.4 17.6 1 20.5 5.6 24.6 5.3 4.8 15.4 4.1 21.7-1.4l3.5-3.1v3.6c0 3.4 0.1 3.6 3.5 3.6h3.5v-23.5-23.5h-4-4v16.4 16.4l-4.1 3.5c-2.2 1.9-5.1 3.7-6.4 3.9-3 0.6-8-1.5-9.1-3.8-0.5-1.1-1.1-9.6-1.4-18.9l-0.5-17-3.8-0.3c-2.6-0.2-3.9 0.1-4.3 1.2z" fill="#000000" stroke="#000000" stroke-width="0.5" stroke-miterlimit="10" />
        <path id="path392" d="m1296 434.2c0 9 0.5 18.1 1.1 20.3 3 11 15 14.5 24.9 7.4 2.2-1.6 4.2-2.9 4.5-2.9s0.5 1.4 0.5 3.1c0 2.8 0.2 3 3.3 2.7l3.2-0.3 0.3-23.3 0.2-23.2h-4-4v16.2 16.1l-4 3.9c-3.9 3.6-5.8 4.3-10.5 3.8-5.7-0.6-7.5-7-7.5-26.5v-13.5h-4-4v16.2z" fill="#000000" stroke="#000000" stroke-width="0.5" stroke-miterlimit="10" />
        <path id="path394" d="m826.5 450.7c-5.4 12-10 22.5-10.2 23.5-0.5 1.8 3 4.3 5.1 3.5 0.6-0.3 2.9-4.5 5.1-9.3 2.1-4.9 4.2-9.3 4.6-9.7 0.3-0.5 4.2 0.7 8.4 2.7 8.7 4 10 4.3 10.9 2 1.1-2.9 0.6-3.4-7.9-7.4l-8.6-3.9 1.5-3.3c0.7-1.8 2.4-5.4 3.5-8l2.2-4.7 7.7 3.5c4.2 2 8.4 3.8 9.4 4.1 1.8 0.6 4.5-3.4 3.1-4.7-1.5-1.6-21-10-23-10-1.6 0-3.8 4.1-11.8 21.7z" fill="#000000" stroke="#000000" stroke-width="0.5" stroke-miterlimit="10" />
        <path id="path396" d="m863.6 468.7c-17.6 18.2-18.8 19.7-17.1 20.9 3.2 2.3 5.2 1.6 10-3.5l4.6-4.9 19.4 8.6v7.8c0 7.6 0.1 7.8 2.7 8.8 1.5 0.5 3 0.8 3.2 0.5 0.4-0.3 4.6-50.4 4.6-54.2 0-0.9-5.6-3.7-7.2-3.7-0.7 0.1-9.8 8.9-20.2 19.7zm20-6.5c-0.3 2.4-0.8 8-1.2 12.5-0.4 5.6-1.1 8.3-1.9 8.3-1.7 0-14.5-5.9-14.5-6.6 0-1 16.4-18.3 17.4-18.3 0.4-0.1 0.6 1.8 0.2 4.1z" fill="#000000" stroke="#000000" stroke-width="0.5" stroke-miterlimit="10" />
        <path id="path398" d="m915.2 470.7c-7.8 3.8-15 15.3-16.7 26.4-1.9 13 8.3 24 22.6 24.3 6.1 0.1 7.2-0.5 8.4-4.3 0.7-2.3 0.6-2.4-3.4-1.7-5.7 0.9-11.6-0.9-15.8-4.8-3.1-2.8-3.7-4-4-8.7-0.6-7.3 2.6-15.7 8.1-21.4 7.3-7.6 16.2-7.2 23.5 1.2 3.4 3.8 4.3 4.4 5.6 3.3 0.8-0.7 1.5-2.1 1.5-3.1 0-2.7-5.9-9-10.5-11-5.1-2.3-14.8-2.4-19.3-0.2z" fill="#000000" stroke="#000000" stroke-width="0.5" stroke-miterlimit="10" />
        <path id="path400" d="m952.4 485.9c-2 1.2-3.8 3.6-4.9 6.4-2.3 6-0.9 10.9 5.5 18.5 6.2 7.5 7.2 9.9 5.5 13.8-3 7.2-11.6 6.5-19.3-1.4-4.2-4.4-4.5-4.5-5.8-2.7-1.8 2.5-1.8 3.2 0.7 6.6 5 7.1 17.9 10.8 24.9 7.2 4.8-2.5 8-7.6 8-12.8 0-4.3-0.8-5.7-9.7-17.5-3.9-5.1-4.2-8.8-1-11.8 4-3.8 10.2-2.2 15.1 4 2.6 3.2 2.7 3.2 4.1 1.4 2-2.6 1.9-3.8-0.5-6.9-4.8-6.1-16.4-8.6-22.6-4.8z" fill="#000000" stroke="#000000" stroke-width="0.5" stroke-miterlimit="10" />
        <path id="path402" d="m1158.5 543.1c-35.8 4.4-66.2 30-75.7 63.6-3.1 11.1-3.1 29.6 0 40.6 5.6 19.5 17.6 35.6 34.7 46.2 38.3 23.9 91.7 14.9 119.6-20.2 6.9-8.7 14-22.8 16.4-32.8 2.5-10 2.3-27.6-0.3-37.6-8.5-32.1-36.8-55.6-71.7-59.8-10.1-1.2-13-1.2-23 0zm31.2 9.9c25.8 6.2 45.7 23.6 53.9 47.2 3.5 10 4.4 26.3 2 37.2-2.2 9.9-9 23.3-16 31.8-10.2 12.3-26.4 22.4-43.2 26.9-12.2 3.3-31.8 3.1-43.7-0.5-20.5-6.2-35.9-17.9-45.5-34.7-17-29.8-8.2-69.3 20.3-91.6 9.2-7.2 20.7-13 31.9-15.9 12.1-3.1 28.5-3.3 40.3-0.4z" fill="#000000" stroke="#000000" stroke-width="0.5" stroke-miterlimit="10" />
        <path id="path404" d="m1152.3 571.4c-17.8 4.4-33.2 20.5-37.8 39.7-2.2 9.4-1.9 23.8 0.6 32.9 5.9 21.5 22.1 38.4 41.4 43.5 28.6 7.4 56.6-12.5 62.2-44 3.8-21.4-3.8-44.2-19.6-58.7-13.2-12.2-30.8-17.3-46.8-13.4zm29.3 11.5c17.7 8.7 29.4 28.4 29.4 49.6 0 24.2-14.6 43.7-35.7 47.4-27.1 4.9-54.3-21.8-54.3-53.4 0-16.6 8.6-33.5 21-41.5 7.6-4.9 12.2-6 23.1-5.7 8.5 0.2 10.3 0.6 16.5 3.6z" fill="#000000" stroke="#000000" stroke-width="0.5" stroke-miterlimit="10" />
        <path id="path406" d="m1396.2 766.7 0.3 33.8 3.8 0.3 3.7 0.3v-34-34.1h-4-4l0.2 33.7z" fill="#000000" stroke="#000000" stroke-width="0.5" stroke-miterlimit="10" />
        <path id="path408" d="m1419.2 766.7 0.3 33.8 3.8 0.3 3.7 0.3v-34-34.1h-4-4l0.2 33.7z" fill="#000000" stroke="#000000" stroke-width="0.5" stroke-miterlimit="10" />
        <path id="path410" d="m1029.3 756c-3.7 2.2-6.3 6.7-6.3 10.7 0 5.1 3.5 9.2 10.8 12.5 7.9 3.7 11.2 6.4 11.2 9.3 0 6-8.1 8.3-16.5 4.6-5.2-2.3-6.5-2.1-6.5 1.3 0 5.4 10 8.8 19.4 6.7 7.6-1.7 11.6-6.2 11.6-13 0-6.6-2.5-9.5-11.9-13.7-10.3-4.7-12.5-8-8.1-12.4 2.4-2.4 7.6-2.6 12.7-0.5 5 2.1 5.5 1.9 5.1-1.7-0.4-4.3-3.5-5.8-11.8-5.8-4.7 0-7.4 0.5-9.7 2z" fill="#000000" stroke="#000000" stroke-width="0.5" stroke-miterlimit="10" />
        <path id="path412" d="m1065 785.9v32.1h4 4v-11.1-11l2.6 2c10 7.8 23.8 3.3 28-9.1 2.3-7.1 1.6-20.7-1.5-26.6-3-5.9-7.1-8.2-14.8-8.2-5.5 0-6.6 0.4-10.7 3.4l-4.5 3.5-0.3-3.2c-0.3-2.8-0.7-3.2-3.5-3.5l-3.3-0.3v32zm27.5-22.5c3 3 4.8 9.7 4.3 16.1-1.3 14.6-11 19.5-20.5 10.3-3.3-3.1-3.3-3.3-3.3-12.3 0-8.7 0.1-9.3 2.8-11.7 4-3.7 6.2-4.7 10.5-4.8 2.7 0 4.5 0.7 6.2 2.4z" fill="#000000" stroke="#000000" stroke-width="0.5" stroke-miterlimit="10" />
        <path id="path414" d="m1124.3 756.5c-6.3 3.8-9.3 10.6-9.3 21.2 0 11.8 3 18 10.5 22.1 4.1 2.2 18.6 2.2 23.8-0.1 3.1-1.3 3.7-2.1 3.7-4.6 0-3.6-0.3-3.6-6-1.6-5.1 1.8-13.6 1.9-16.9 0.2-3.6-1.8-6.2-5.8-6.8-10.5l-0.6-4.1 31.8-0.6v-6c0-12.3-6.4-18.5-19-18.5-5.7 0-7.8 0.5-11.2 2.5zm17.6 5.1c1.3 0.9 2.9 3.2 3.7 5 2.7 6.4 2.7 6.4-10.6 6.4-13.2 0-13.5-0.2-10.5-6 3.4-6.5 11.9-9.2 17.4-5.4z" fill="#000000" stroke="#000000" stroke-width="0.5" stroke-miterlimit="10" />
        <path id="path416" d="m1167.4 755.3c-0.2 0.7-0.3 11.1-0.2 23.2l0.3 22 3.8 0.3 3.7 0.3v-15.4-15.4l4.4-4.8c4.4-4.7 4.5-4.7 9.1-4.1l4.6 0.7-0.6-7.6-5.2-0.3c-4.8-0.3-5.5 0-9.2 3.4l-4.1 3.6v-3.6c0-3.3-0.2-3.6-3-3.6-1.7 0-3.3 0.6-3.6 1.3z" fill="#000000" stroke="#000000" stroke-width="0.5" stroke-miterlimit="10" />
        <path id="path418" d="m1203 777.4v23.6h3.5 3.5v-15.9-15.8l4.5-4.2c4.6-4.2 8.5-5.2 12.4-3.1 3.1 1.6 3.5 3.8 4.1 21.5l0.5 17 3.8 0.3 3.7 0.3v-15.8-15.9l4.4-4.3c3.8-3.7 4.8-4.2 8.1-3.9 2.8 0.2 4.4 1.1 5.9 3.1 1.9 2.6 2.1 4.4 2.4 19.8l0.4 17 3.6-0.3 3.7-0.3 0.3-15c0.4-18.7-0.6-24.3-5.4-28.4-3-2.7-4.2-3.1-9.4-3.1-5.1 0-6.4 0.4-10.4 3.5l-4.5 3.4-3.4-3.4c-3.2-3.2-4-3.5-9.4-3.5-4.8 0-6.8 0.5-10.5 2.9l-4.7 3-0.3-2.7c-0.2-2.2-0.9-2.8-3.5-3l-3.3-0.3v23.5z" fill="#000000" stroke="#000000" stroke-width="0.5" stroke-miterlimit="10" />
        <path id="path420" d="m1312.2 755.7c-7.5 3.7-10.6 11.4-10.1 25 0.4 7.8 0.8 9.5 3.1 13.1 3.8 5.7 7.8 7.6 15.8 7.6 4.8 0 7.6-0.6 10.8-2.2 3.9-2.1 4.2-2.6 4.2-6.2 0-2.2-0.2-4-0.5-4s-2.2 1.1-4.3 2.4c-5.1 3.3-9.3 4-13.5 2.2-5.3-2.2-7.2-6.4-7.2-16.1 0-5.8 0.5-8.9 1.8-11.3 3.3-6.2 12.3-7.7 18.1-3.1 3.5 2.8 5.6 2.4 5.6-0.9 0-3.5-0.8-4.6-4.7-6.6-4.2-2.1-14.7-2.1-19.1 0.1z" fill="#000000" stroke="#000000" stroke-width="0.5" stroke-miterlimit="10" />
        <path id="path422" d="m1353.3 756.5c-6.3 3.8-9.3 10.6-9.3 21.2 0 11.8 3 18 10.5 22.1 4.1 2.2 18.6 2.2 23.8-0.1 3.1-1.3 3.7-2.1 3.7-4.6 0-3.6-0.3-3.6-6-1.6-5.1 1.8-13.6 1.9-16.9 0.2-3.6-1.8-6.2-5.8-6.8-10.5l-0.6-4.1 31.8-0.6v-6c0-12.3-6.4-18.5-19-18.5-5.7 0-7.8 0.5-11.2 2.5zm17.6 5.1c1.3 0.9 2.9 3.2 3.7 5 2.7 6.4 2.7 6.4-10.6 6.4-13.2 0-13.5-0.2-10.5-6 3.4-6.5 11.9-9.2 17.4-5.4z" fill="#000000" stroke="#000000" stroke-width="0.5" stroke-miterlimit="10" />
    </g>
    <g id="vn_invitro">
        <path id="path434" d="m1193.4 241.21c-20.39-2.89-42.84-9.579-58.53-17.437-19.68-9.853-41.22-29.607-48.16-44.171-5.44-11.395-6.61-16.427-6.57-28.241 0.07-18.999 5.85-30.834 23.69-48.458 13.75-13.586 23.34-19.835 42.18-27.489 52.29-21.24 117.42-18.952 166.72 5.8555 12.46 6.267 20.17 11.98 31.41 23.278 15.35 15.416 21.62 29.151 21.64 47.401 0.02 10.753-2.08 19.157-7.31 29.257-5.57 10.76-24.49 29.57-37.27 37.049-16.5 9.655-39.65 17.953-61.03 21.874-13.99 2.564-51.97 3.179-66.77 1.081z" fill="#ffffff" stroke="#ffffff" stroke-width="1.0889" stroke-miterlimit="10" />
    </g>
    <g id="sc_invitro">
        <path id="path441" d="m1149.6 696.43c-15.82-2.875-30.57-11.024-42.09-23.254-35.18-37.357-17.09-97.766 34.97-116.76 23.25-8.486 51.27-5.446 71.54 7.762 14.47 9.425 26.7 26.143 30.3 41.393 6.96 29.539-5.89 60.266-32.7 78.201-18.45 12.336-39.81 16.697-62.02 12.661zm33.14-9.189c22.33-6.951 37.15-28.801 37.1-54.719-0.03-18.542-6.15-33.491-18.92-46.223-20.82-20.766-50.04-22.226-69.97-3.498-12.85 12.065-18.07 24.232-18.17 42.256-0.07 13.633 1.42 20.643 6.72 31.579 7.04 14.532 23.1 28.228 36.93 31.488 7.26 1.712 19.26 1.309 26.31-0.883z" fill="#ffffff" stroke="#ffffff" stroke-width="1.0889" stroke-miterlimit="10" />
        <path id="path439" d="m1156 677.46c-7.46-2.773-14.22-7.53-20.31-14.311-22.27-24.77-16.59-66.122 10.94-79.677 6.67-3.285 7.96-3.538 17.32-3.407 8.35 0.117 11.18 0.628 16.21 2.931 7.84 3.591 18.93 14.244 23.24 22.329 13.95 26.168 5.51 59.003-18.14 70.571-8.05 3.938-21.01 4.631-29.26 1.564z" fill="#ffffff" stroke="#ffffff" stroke-width="1.0889" stroke-miterlimit="10" />
    </g>
</svg>
