<svg xmlns="http://www.w3.org/2000/svg" width="75" height="75" viewBox="0 0 300 300" xml:space="preserve" license="CCBY4.0" author="Provart Lab - Bio Analytic Resource, University of Toronto">
  <g id="shapes">
    <path fill="none" d="M98 143h112l-5 57-3 7 1 2-2 13h1l-5 14v7l-1 1-8 15-12 10-11 4 1 1h-7v1s-14 2-17-1l-15-10c-2-3-11-13-13-18l-7-20 1-4-3-12-4-32v-6l-1-9-2-20z" id="roottip"/>
  </g>
  <g id="outlines" fill="none">
    <path d="m140 55 1 15 1 7v13l1 2v14a182 182 0 0 1 2 14v7l-1 9 1 2-1 1v3l1 2h5a7 7 0 0 0 5-1 7 7 0 0 0 5 0h1l2 1 2-1 1-1v-10l-1-2v-5a76 76 0 0 1 0-13 16 16 0 0 0 0-3v-3l-1-3v-6a224 224 0 0 0-1-31V53"/>
    <path d="m129 46 2 12 1 14v8l1 9 1 3v11l1 9-1 3 1 12-1 12 1 2-1 1 1 2 2-1 3 1 2-1 1 1c2 0 2-2 1-3v-37c0-3-2-7-1-10v-5l-1-9v-9l-1-3V58l-2-12m24 0 1 10v7l-1 2v8l1 4v15l1 10v25l1 7 1 3a125 125 0 0 1-1 5c0 1 1 3 2 2h4l1-2v-2l1-11-2-10v-1l1-8V99l-1-10v-3c1-3 0-6-1-9l1-1v-2l-1-1v-5a295 295 0 0 1 0-20"/>
    <path d="M173 51c-2 2-3 3-3 5a15 15 0 0 0 1 5v3l1 1v1l-1 1v3l2 23 1 16-1 4v6a152 152 0 0 1 1 15l-1 1v7l2 2h1l1-1 5 1h4c2 0 2-2 1-3v-3l1-1-1-1v-1l1-4v-5l1-7V82l-1-7V55m-74 11v4l4 22-1 2 1 17c0 6 3 11 3 17l1 4 1 8c1 3 4 5 8 4l1-1h2v-2c1-1 2-3 1-5v-11l-1-6 1-3-1-22-2-21-1-5-1-27m-16 19v1"/>
    <path d="M101 70a62 62 0 0 0 1 6v1l-1 9 2 10 1 2 1 6v2a225 225 0 0 0 4 30v5l1 1h-1c0 1 1 2 2 1h7l2 1c2 0 3-2 3-3l-1-3v-3l-2-15v-5c0-2-1-3-2-3l-1-10 1-2-2-17"/>
    <path d="m92 81 1 2a385 385 0 0 0 4 29l1 16-1 3v5l1 5c0 2 2 3 3 3h6l1-1h1v-5l-1-8-1-8v-1l-2-12v-4l-1-2-1-10-1-16-1-2m111-13-1-3"/>
    <path stroke="#000" stroke-miterlimit="10" d="m138 36 2 20c2 11 2 22 3 34l-1 2h-7m-33-5 1 6m59-55 2 51 1 25 2 3m-53-49c0 6 2 12 3 17v5l1 22 15 1m77 7v23h-7m-15-82 1 18v32l1 3m-55 29v-12l-13 1m16 106-9 7 9 9 6 1M93 87l4 34 1 14c0 12 1 20 3 33v4m8 50c-3 2-1 5 0 7l7 21"/>
    <path stroke="#000" stroke-miterlimit="10" d="M230 144c-168 0-196-1-100-1m0-98 1 22v3m69 95v-2h-13m-15-73 2 19m-31 9-8 1-2-47c-6-5-12-3-18-2m0 133c4 14 7 27 14 40m35-153h24m-1-27-15 1m-2 191-5 3-1 6-4-1c-4-5-5-11-1-17m29-171-15 1m-38 89-11-2v25l-9 1m58-41c1 3 3 4 6 4s6 0 8 3l-1 1"/>
    <path stroke="#000" stroke-miterlimit="10" d="M132 87c-4-1-9-2-14 1m14 15c-4-1-9-3-14 0m24 153v9h9v1l6-2m44-152-27 3m10 92 7 1c5 2 1 6 1 9 1 2-1 5-2 8m-66-31-8 2-1 6m28-110 1 18v41l-1 2c-2-1-5 0-7-2-3-4-7-4-12-4m78 60c4-6 3-14 4-21l2-21c-5-3-7 0-10 4m-53 6 1 9-21 5 1 2"/>
    <path stroke="#000" stroke-miterlimit="10" d="M187 168c4 0 8-1 12 1l-2 11 8 2m-17-39 13 1m-14-1-20 1m-52-60-12 1m98 53h-12m-23 109c4 7 9 13 10 21m-11-151 2 44 8 1v9l-7-1m32-20-10 1-4 2m14 4h-12m-44 0c1 6 2 11 0 17l-7-1m24 70c6-4 11-9 12-17l-7-5 2-4 11 8-2 5 8 6-5 9m8-42c6-1 10 2 15 6l-3 12m-4-1 6 2-5 13m-92-26 3 12"/>
    <path stroke="#000" stroke-miterlimit="10" d="M188 259c-6 6-13 12-22 14m21-98v-16l-9-2m-65 13 23 2c0 4-2 7-6 6l-5-2m-3 82c5 8 13 13 21 16 5 2 10 1 16 2l-1-9 1-4m30-148-2 27v5m-43 59-15-1c-3 2-6 3-9 1l-3 1m19-36v-18h-8m68 91-8 14m21-114-1 20m-17-71 11 1v33"/>
    <path stroke="#000" stroke-miterlimit="10" d="M143 254c1-5 3-9 9-11v8l-2 13m-25-83 3 1c4 1 8 1 10-3l4 1m33-7 11 2m-82 0c-4-1-2 3-2 4l3 27m16-59c-3-1-7-2-10 1m68 100 7 10m-63-109-1 7-10 1v1l-12-1m8-22-10 1m86 65v-7h-15m-43 8-5-1-6 1m4-84-11 1m23 89-13 4m67-28-17-5m-47-27h-9m64 11 10 2m-33 79c5-3 7 1 8 2l3 11m17-35c7 2 12 7 16 13v5l1 3m-22-73 9 1m0 26 9 1m-64 21-9 3m-14-94-8 2m7-14 1 9c1 2 0 5 4 6m90-12h-9m-73 112-4 9m8-57h-7c-3 0-4 1-3 4"/>
    <path stroke="#000" stroke-miterlimit="10" d="m188 192-13-4v10l-9-1 2-32h6m-31-16h-8m38-31v29h-5m-30 58v-7h-11l1 6m49 28-8 11m-34-117v-3l-9-2m-1 126-3 9m51-16 6 6-7 9m-50-98 1 5-10 1m38 104 1 8m-5-35c-5-6-8-12-7-19l2-5h1l5 5-7 2m-23-7-8 5m65-9-1 8m17-5c-3-1-5-4-9-3-2 1-4 0-7-1m4 15 8 5m-73-54h7m-5-81h-8m63-38 1 28v2m-36 146 9 13m-2-117-7-1m-28 2 1 12m100-4h-7m-5 43-1 5 8 2m-69 64-4 8m-31-112 7 2m12-38 4 26m53 65c-2-4-6-2-9-3m-29 5v9h-12m13 10-14 7m11-126 6-1m55 90 7 2m-5-26 7 1M104 95l1 9 2 11-6 2m36 51h7m-3 76-6 5m29 16 1 9h-6m44-142h6m-83 62v1h-1l1-3h7m9 74-2 6m63-150 6 1m-72 34h7v-4m30 2v6m-36 59-6 2m3 12-6 3m48-129c-4 0-5 3-4 6 0 2 1 4-3 4m-25 94 1-12h-4m20 34-9 3m19-131h-6m-33-35h6m6 114v4l-7 2m-23 4-2-4-6 1m65 38-6-4m20 11 5 6m-22 2 5 5m-62-143-6 2m82-1h-6m-10 29-5 2m4-69h-5"/>
    <path stroke="#000" stroke-miterlimit="10" d="M142 212c5 0 4 3 3 6m22 4-4 10m-52-59h-5m50 65v5m40-55-1 14-2 7m-20-3c3-1 5-2 8 0m-42-3h5m33 34 4 3m-70-81 2 22-4 1m20 28 1 5m37-18v22m-30-56h7m44-36h-7m-64 3h-4m89 4v9m-93 1 1 13m58-1h5c1-3 1-5-3-4m16 34h4m-43 41 5 11v2m34-64-1 15m5 36-5 7m-17-73v4m-23 25v7m-14 19 2 10m48-8-2 7m-33-3 1 4-4 1m13 26-12 2m-27-3 3 4m55-75v7m-79-85h4m74 69v8m-71 3h4m4-18-4 1m30 22v9m-13 19h-3m51-87-3-1m4 48-3-1M99 91h-3m40 86 1 2m65-25-1 5m-27 64-1 2m-28 16-2 2m-16 1v1"/>
  </g>
</svg>