<?xml version="1.0" encoding="utf-8"?>
<!-- Generator: Adobe Illustrator 16.0.0, SVG Export Plug-In . SVG Version: 6.00 Build 0) -->
<!DOCTYPE svg PUBLIC "-//W3C//DTD SVG 1.1//EN" "http://www.w3.org/Graphics/SVG/1.1/DTD/svg11.dtd">
<svg author="Provart Lab - Bio Analytic Resource, University of Toronto" license="CCBY4.0" version="1.1" xmlns="http://www.w3.org/2000/svg" xmlns:xlink="http://www.w3.org/1999/xlink" x="0px" y="0px" width="300px"
    height="300px" viewBox="0 0 300 300" enable-background="new 0 0 300 300" xml:space="preserve">
	<g id="shapes">
		<g id="roottip">
			<path fill="none" d="M98.178,143.456l112.03-0.079l-5.458,56.235c0,0-1.472,7.203-2.704,7.552s1.086,1.377,1.086,1.377
                   			l-2.537,12.993l1.751,0.441l-5.252,13.787c0,0,0,6.126,0.219,7.658S196,244.079,196,244.079s-6.784,13.565-8.097,14.879
                   			s-9.846,8.752-11.597,9.628s-10.941,4.158-10.941,4.158l0.209,1.312L159,273.619V275c0,0-13.547,1.683-17.486-0.943
                   			s-12.035-7.439-14.879-10.284s-10.722-13.13-12.254-17.287s-7.44-18.38-7.002-20.568s1.094-3.501,1.094-3.501l-3.282-12.254
                   			l-3.72-32.386l-0.875-5.688l-0.875-9.409L98.178,143.456z" />
		</g>
	</g>
	<g id="outlines">
		<path fill="none" d="M139.979,54.918c0.427,5.029,1.28,9.891,1.286,14.984c0.004,2.543,0.461,4.939,1.125,7.283
                   		c-0.082,0.428-0.133,0.863-0.143,1.311c-0.088,3.879,0.222,7.748,0.25,11.625c0.004,0.496,0.061,0.98,0.156,1.451
                   		c-0.342,1.252-0.376,2.599-0.016,3.918c0.106,0.386,0.18,0.772,0.261,1.162c-0.052,0.023,0.112,1.601,0.122,1.875
                   		c0.043,1.486-0.019,2.979-0.023,4.469c-0.002,0.43,0.038,0.852,0.109,1.263c-0.22,0.71-0.311,1.461-0.234,2.237
                   		c0.249,2.622,0.49,5.244,0.625,7.875c0.061,1.172,0.36,2.284,0.85,3.281c-0.057,0.732-0.007,1.516,0.168,2.338
                   		c0.479,2.245,0.143,4.717,0.107,7.006c-0.045,3.14,0.168,6.239-0.125,9.375c-0.044,0.475-0.021,0.938,0.046,1.391
                   		c-0.25,0.256-0.421,0.587-0.421,0.984c0,1.211-0.013,2.418-0.125,3.625c-0.076,0.813,0.74,1.5,1.5,1.5
                   		c0.218,0,0.415-0.043,0.591-0.119c1.283,0.113,2.541,0.078,3.809-0.185c0.02-0.005,0.033-0.016,0.054-0.02
                   		c0.674,0.205,1.364,0.321,2.049,0.321c1.262,0,2.382-0.292,3.354-0.796c0.35,0.16,0.712,0.299,1.09,0.402
                   		c1.328,0.355,2.628,0.355,3.956,0c0.107-0.029,0.223-0.071,0.334-0.108c0.006,0,0.011,0.002,0.017,0.002
                   		c0.06,0.002,0.115,0.008,0.173,0.013c0.086,0.015,0.36,0.047,0.403,0.054c0.478,0.07,0.955,0.14,1.435,0.193
                   		c0.825,0.099,1.681,0.108,2.435-0.288c0.032-0.018,0.052-0.047,0.083-0.063c0.719-0.254,1.019-1.029,0.89-1.718
                   		c0.083-1.002-0.151-2.149-0.169-2.935c-0.008-0.356-0.117-0.646-0.289-0.871c0.169-0.643,0.268-1.31,0.396-2.384
                   		c0.129-1.088-0.2-2.298-0.354-3.333c-0.098-0.667-0.301-1.338-0.539-1.998c0.409-1.593,0.391-3.319-0.209-4.798
                   		c-0.1-1.304-0.143-2.609-0.176-3.915c-0.035-1.372-0.031-2.744,0.004-4.115c0.011-0.427,0.036-0.853,0.062-1.279
                   		c0.285-1.282,0.259-2.464-0.011-3.52c0.08-0.643,0.111-1.264,0.116-1.912c0.003-0.398-0.023-0.777-0.069-1.145
                   		c0.044-1.032,0.022-2.07-0.056-3.105c-0.094-1.229-0.336-2.354-0.832-3.384c0.043-0.733,0.108-1.412,0.189-1.997
                   		c0.195-1.422,0.136-2.835-0.205-4.124c0.296-9.946,0.165-20.147-0.881-30.021c0.046-0.274,0.08-0.559,0.104-0.851
                   		c0.042-0.542,0.083-1.083,0.125-1.625c0.089-1.157-0.054-2.171-0.365-3.049c-0.126-2.777-0.185-5.511,0.014-8.429"
		/>
		<path fill="none" d="M128.997,45.748c0.096,4.309,1.399,8.311,1.928,12.55c0.558,4.479,0.114,9.022,0.751,13.529
                   		c0.083,0.586,0.24,1.094,0.456,1.528c0.01,2.256,0.031,4.513,0.115,6.768c0.11,2.982,0.869,5.882,0.875,8.875
                   		c0.002,1.025,0.258,1.886,0.685,2.585c-0.021,0.178-0.058,0.349-0.06,0.54c-0.015,1.128,0.099,2.091,0.293,3.152
                   		c-0.188,0.463-0.301,0.99-0.293,1.598c0.024,2.176,0.248,4.338,0.515,6.498c0.062,2.783,0.302,5.552,0.582,8.318
                   		c-0.757,0.645-1.254,1.617-1.222,2.934c0.102,4.07,0.711,8.08,1.125,12.125c0.417,4.064-0.102,8.193-0.375,12.25
                   		c-0.059,0.836,0.115,1.526,0.434,2.086c-0.12,0.175-0.234,0.354-0.354,0.532c-0.448,0.685-0.143,1.653,0.538,2.052
                   		c0.641,0.376,1.392,0.204,1.865-0.304c0.892,0.511,1.972,0.685,3.118,0.259c0.792,0.114,1.597,0.034,2.296-0.238
                   		c0.237,0.221,0.561,0.363,0.978,0.363c1.496,0.002,1.831-1.78,1.021-2.596c0.096-0.385,0.14-0.807,0.107-1.277
                   		c-0.451-7.078-0.383-14.161-0.375-21.25c0.001-0.499-0.093-0.935-0.229-1.337c0.067-4.516,0.241-9.022-0.021-13.538
                   		c-0.188-3.204-1.289-6.438-0.955-9.627c0.307-0.965,0.467-1.977,0.58-3.123c0.069-0.702-0.041-1.297-0.259-1.809
                   		c0.002-0.063,0.009-0.125,0.009-0.191c-0.006-2.99-0.656-5.9-0.875-8.875c-0.216-2.941-0.124-5.928-0.125-8.875
                   		c0-1.189-0.344-2.16-0.899-2.911c-0.361-3.323-0.145-6.708-0.298-10.039c-0.195-4.255-1.833-8.28-1.928-12.55"
		/>
		<path fill="none" d="M162.996,46.492c0.242,3.148,0.383,6.307,0.73,9.447c-0.031,0.291-0.062,0.582-0.105,0.871
                   		c-0.121,0.818,0.014,1.551,0.313,2.172c-0.145,1.269-0.277,2.535-0.355,3.802c-0.557,0.554-0.866,1.368-0.726,2.458
                   		c0.053,0.388,0.1,0.775,0.146,1.165c-0.345,0.665-0.479,1.467-0.257,2.391c0.171,0.712,0.183,2.491,0.242,3.728
                   		c0.066,1.386,0.25,2.81,0.776,4.098c0.137,3.633,0.173,7.271,0.22,10.914c-0.628,0.927,0.352,1.447,0.366,4.099
                   		c0.021,3.356,0.206,7.319,0.261,10.612c0.067,4.029-0.106,7.925,0.514,11.927c0.009,0.062,0.028,0.111,0.043,0.168
                   		c-0.014,0.093-0.036,0.182-0.043,0.276c-0.1,1.332-0.081,2.639,0.002,3.935c-0.124,0.325-0.224,0.672-0.252,1.065
                   		c-0.197,2.562-0.392,5.088-0.163,7.656c0.193,2.218,1.515,4.708,1.163,6.912c-0.181,1.122,0.126,2.078,0.688,2.812
                   		c-0.087,1.116-0.193,2.237-0.312,3.368c-0.064,0.623,0.023,1.147,0.211,1.598c-0.731,1.022,0.063,2.839,1.562,2.351
                   		c1.186-0.39,2.378-0.211,3.604-0.196c1.364,0.016,1.762-1.47,1.201-2.355c0.216-0.402,0.367-0.864,0.424-1.395
                   		c0.402-3.843,0.758-7.631,0.377-11.495c-0.336-3.418-1.123-6.71-1.428-10.078c0.068-0.193,0.137-0.391,0.178-0.616
                   		c0.508-2.775,0.538-5.503,0.479-8.259c0.248-0.466,0.402-1.015,0.396-1.672c-0.033-3.05-0.467-6.075-0.5-9.125
                   		c0-0.01-0.003-0.018-0.003-0.025c0.042-3.367-0.88-6.734-0.872-10.1c0.003-1.146,0.55-1.996-0.123-2.557
                   		c0.82-3.176,0.315-6.002-0.273-8.976c0.257-0.481,0.411-1.021,0.396-1.595c-0.021-0.787-0.146-1.57-0.293-2.344
                   		c-0.021-0.098-0.061-0.346-0.09-0.516c-0.009-0.214-0.069-0.428-0.057-0.643c0.036-0.528-0.35-1.023-0.413-1.475
                   		c0.112-0.422,0.147-0.883,0.07-1.385c0.271-0.482,0.433-1.062,0.405-1.768c-0.123-3.333-0.24-6.665-0.25-10
                   		c-0.001-0.417-0.078-0.782-0.188-1.122c0.395-2.948,0.75-5.892,0.438-8.753" />
		<path fill="none" d="M172.545,51.41c-1.344,1.107-2.225,2.763-2.166,4.586c0.046,1.43,0.271,2.861,0.714,4.221
                   		c0.09,0.275,0.19,0.547,0.29,0.817c-0.167,0.868-0.153,1.782,0.085,2.682c0.08,0.302,0.136,0.606,0.196,0.911
                   		c-0.053,0.457-0.116,0.913-0.16,1.369c-0.036,0.377-0.032,0.729-0.011,1.068c-0.223,0.752-0.317,1.6-0.239,2.557
                   		c0.625,7.658,0.832,15.383,1.379,23.061c0.383,5.379,0.906,10.726,1.112,16.084c-0.783,1.112-1.229,2.44-1.116,3.855
                   		c0.178,2.284,0.357,4.568,0.511,6.855c0.095,1.405,0.173,2.813,0.229,4.225c0.018,0.464,0.021,0.928,0.021,1.392
                   		c-0.215,1.02-0.18,2.085,0.152,3.163c-0.061,0.378-0.082,0.754-0.037,1.115c0.188,1.534,0.229,3.077,0.127,4.616
                   		c-0.028,0.068-0.059,0.14-0.087,0.211c-0.097,0.229-0.193,0.458-0.29,0.687c-0.333,1.241-0.333,2.481,0,3.725
                   		c0.03,0.107,0.071,0.215,0.106,0.32c-0.054,0.062-0.111,0.113-0.151,0.187c-0.19,0.337-0.331,0.687-0.311,1.081
                   		c-0.011,0.165,0.018,0.318,0.078,0.467c0.023,0.054,0.047,0.108,0.068,0.163c0.002,0.017,0.005,0.035,0.011,0.069
                   		c0.006,0.041,0.023,0.075,0.034,0.115c0,0.072,0.006,0.146,0.006,0.218c0,0.425-0.038,0.849-0.094,1.269
                   		c-0.107,0.812,0.764,1.5,1.5,1.5c0.414,0,0.737-0.15,0.981-0.388c0.133,0.003,0.271-0.006,0.416-0.041
                   		c0.522-0.126,1.052-0.219,1.579-0.3c1.328,0.511,2.799,0.604,4.188,0.266c0.14,0.047,0.289,0.082,0.459,0.088
                   		c1.07,0.036,2.174,0.146,3.15-0.112c0.234,0.221,0.558,0.362,0.975,0.362c1.486,0,1.826-1.766,1.029-2.587
                   		c0.012-0.396-0.015-0.801,0.021-1.101c0.073-0.637,0.025-1.271-0.013-1.905c0.146-0.499,0.291-1,0.408-1.509
                   		c0.109-0.482,0.002-0.895-0.229-1.206c0.009-0.066,0.022-0.125,0.03-0.192c0.159-1.296,0.206-2.597,0.155-3.896
                   		c0.1-0.585,0.13-1.185,0.099-1.777c0.094-0.471,0.151-0.952,0.121-1.451c-0.005-0.075-0.01-0.13-0.015-0.187
                   		c0.114-0.632,0.238-1.26,0.339-1.894c0.371-2.39,0.379-4.781,0.676-7.172c0.047-0.376,0.038-0.744,0.001-1.104
                   		c0.479-1.485,0.436-2.915,0.02-4.193c0.009-0.749-0.093-1.498-0.293-2.217c0.048-2.619,0.467-5.387,0.354-7.908
                   		c-0.17-3.854-0.198-7.4,0.046-11.324c0.002-0.023,0-0.047,0.001-0.07c0.367-0.867,0.562-1.879,0.499-3.055
                   		c-0.126-2.337-0.623-4.636-0.626-6.977c-0.003-2.551,0.502-5.058-0.499-7.512c-0.055-0.135-0.129-0.252-0.189-0.382
                   		c-0.061-5.668-0.051-11.329-0.186-17.007c-0.016-0.68-0.112-1.307-0.273-1.882" />
		<path fill="none" d="M113.863,66.438c-0.263,1.074-0.301,2.24-0.131,3.414c1.066,7.393,2.582,14.907,3.885,22.455
                   		c-0.229,0.653-0.358,1.385-0.367,2.191c-0.06,5.41-0.572,10.854,0.289,16.227c0.936,5.841,3.234,11.463,3.461,17.398
                   		c0.055,1.45,0.498,2.644,1.182,3.592c-0.159,2.694-0.477,5.354,0.428,8.011c1.137,3.354,4.429,5.521,7.995,4.54
                   		c0.624-0.172,1.216-0.446,1.758-0.805c0.557,0.261,1.246,0.177,1.7-0.277c0.455-0.457,0.535-1.146,0.271-1.703
                   		c1.006-1.519,1.416-3.416,0.809-5.208c-0.074-0.2-0.128-0.407-0.181-0.613c-0.029-0.6,0.004-1.2,0.037-1.795
                   		c0.07-1.249,0.229-2.488,0.251-3.739c0.017-0.976-0.224-1.896-0.626-2.731c0.242-0.674,0.38-1.395,0.376-2.144
                   		c-0.011-2.258-0.234-4.5-0.626-6.723c0.331-0.816,0.479-1.781,0.376-2.902c-0.669-7.18-0.695-14.375-0.865-21.577
                   		c-0.168-7.147-1.422-14.335-1.51-21.423c-0.021-1.751-0.611-3.132-1.523-4.15c-0.057-9.076-0.2-18.215-1.332-27.203"
		/>
		<path fill="none" d="M113.9,59.531c0.049,0.492,0.096,0.982,0.145,1.474" />
		<path fill="none" d="M101.337,69.527c-0.049,1.689-0.055,3.389,0.037,5.098c0.036,0.673,0.176,1.275,0.373,1.831
                   		c0.002,0.015,0,0.028,0.002,0.044c0.294,3.27-0.188,6.493-0.283,9.761c-0.092,3.211,1.047,6.523,1.873,9.584
                   		c0.248,0.921,0.644,1.677,1.139,2.286c0.15,1.785,0.233,3.574,0.146,5.369c-0.044,0.913,0.089,1.713,0.35,2.41
                   		c0.831,9.848,1.896,19.604,4.005,29.249c-0.063,0.132-0.107,0.282-0.104,0.466c0.039,1.429,0.639,2.812,0.285,4.234
                   		c-0.092,0.366,0.021,0.661,0.222,0.88c-0.002,0.217,0.018,0.438,0.083,0.676c0.021,0.07,0.055,0.139,0.082,0.208
                   		c-0.047,0.16-0.094,0.322-0.137,0.486c-0.271,1.029,0.987,1.555,1.623,1.01c0.479,0.197,1.01,0.245,1.506,0.042
                   		c0.064-0.027,0.136-0.035,0.203-0.062c1.551,0.812,3.45,0.847,5.127,0.185c0.809,0.185,1.607,0.372,2.381,0.466
                   		c1.767,0.215,2.642-1.747,2.411-3.165c-0.13-0.798-0.322-1.521-0.286-2.335c0.026-0.579-0.118-1.05-0.366-1.42
                   		c-0.003-0.266-0.009-0.525-0.009-0.774v-0.431c0-0.324-0.091-0.629-0.131-0.926c-0.223-4.817-0.978-9.56-2.168-14.23
                   		c-0.03-1.824,0.041-3.656,0.049-5.469c0.008-1.639-0.797-2.752-1.895-3.35c-0.367-3.209-0.484-6.477-0.684-9.711
                   		c0.281-0.676,0.449-1.439,0.459-2.314c0.062-5.751-1.337-11.366-1.729-17.088" />
		<path fill="none" d="M98.217,37.04" />
		<path fill="none" d="M92.162,80.823c0.137,0.819,0.438,1.463,0.844,1.96c0.727,7.135,1.635,14.245,2.758,21.324
                   		c-0.451,0.71-0.609,1.628-0.262,2.699c0.42,1.287,0.721,2.597,0.953,3.916c-0.045,0.465,0.021,0.957,0.23,1.466
                   		c0.706,5.224,0.414,10.624,1.13,15.856c-0.499,0.725-0.718,1.662-0.438,2.761c0.398,1.579-0.352,3.424-0.394,5.042
                   		c-0.05,1.847,0.538,3.699,1.019,5.458c0.436,1.587,1.809,2.452,3.375,2.569c1.842,0.138,3.605,0.025,5.432-0.25
                   		c0.461-0.069,0.865-0.265,1.215-0.54c0.08,0.021,0.155,0.034,0.229,0.04c0.234,0.021,0.381-0.103,0.443-0.266
                   		c0.451-0.072,0.527-0.659,0.223-0.889c0.424-0.828,0.561-1.82,0.332-2.649c-0.133-0.483-0.346-0.892-0.615-1.229
                   		c0.041-0.135,0.088-0.263,0.115-0.411c0.482-2.6-0.11-4.846-0.75-7.359c-0.688-2.707-0.369-5.625-1-8.375
                   		c-0.062-0.27-0.146-0.513-0.246-0.732c-0.128-4.12-0.305-8.23-1.535-12.269c-0.057-0.186-0.179-0.35-0.255-0.514
                   		c0.269-0.633,0.312-1.384,0.062-2.236c-0.152-0.514-0.306-1.026-0.44-1.543c-0.044-0.494-0.09-0.989-0.136-1.483
                   		c-0.313-3.375-1.217-6.459-1.857-9.72c-0.585-5.449-0.764-10.954-1.088-16.447c-0.039-0.652-0.23-1.197-0.513-1.661"
		/>
		<path fill="none" d="M211.57,62.322c0.272-1.002,0.193-2.104-0.236-3.043" />
		<path fill="none" stroke="#000000" stroke-miterlimit="10" d="M137.841,35.639c0.64,6.742,1.977,13.418,2.624,20.159
                   		c1.081,11.237,1.868,22.503,2.743,33.761c0.027,0.349-0.336,0.726-1.039,2.133c-2.142,0.166-4.895,0.377-7.646,0.59"
		/>
		<path fill="none" stroke="#000000" stroke-miterlimit="10" d="M101.876,86.831c0.133,2.013,0.694,3.996,1.058,5.992" />
		<path fill="none" stroke="#000000" stroke-miterlimit="10" d="M162.302,38.171c0.363,19.604,1.201,31.24,1.653,50.843
                   		c0.19,8.354,0.632,16.704,1.15,25.045c0.06,0.948,1.36,1.821,2.089,2.729" />
		<path fill="none" stroke="#000000" stroke-miterlimit="10" d="M113.923,68.312c0.459,5.664,1.733,11.262,2.612,16.894
                   		c0.254,1.622,0.462,3.261,0.541,4.899c0.342,7.09,0.628,14.183,0.967,22.026c5.553,0.306,10.47,0.574,15.386,0.843"
		/>
		<path fill="none" stroke="#000000" stroke-miterlimit="10" d="M210.26,119.511c-0.271,7.8-0.047,15.617-0.047,23.959
                   		c-2.877,0-5.25,0-7.624,0" />
		<path fill="none" stroke="#000000" stroke-miterlimit="10" d="M187.949,61.242c0.043,5.811,0.89,11.613,0.979,17.428
                   		c0.168,10.889,0.037,21.781,0.071,32.673c0.002,0.729,0.34,1.452,0.521,2.179" />
		<path fill="none" stroke="#000000" stroke-miterlimit="10" d="M134.52,142.927c0-3.812,0-7.624,0-12.282
                   		c-4.229,0.472-8.378,0.933-12.523,1.393" />
		<path fill="none" stroke="#000000" stroke-miterlimit="10" d="M138.332,238.227c-2.817,2.051-5.635,4.1-8.852,6.438
                   		c3.193,3.377,5.818,6.609,8.955,9.229c1.159,0.969,3.524,0.489,5.342,0.674" />
		<path fill="none" stroke="#000000" stroke-miterlimit="10" d="M93.195,86.83c1.137,11.286,3.023,22.496,4.211,33.778
                   		c0.508,4.848-0.24,9.818,0.148,14.688c0.927,11.514,1.908,19.507,3.185,32.683c0.14,1.438,0.019,2.901,0.019,4.354"
		/>
		<path fill="none" stroke="#000000" stroke-miterlimit="10" d="M109.469,221.89c-3.454,2.102-1.449,5.501-0.865,7.562
                   		c1.951,6.884,4.859,13.496,7.4,20.213" />
		<path fill="none" stroke="#000000" stroke-miterlimit="10" d="M230,143.5c-167.768,0-196.348-0.028-100.383-0.028" />
		<path fill="none" stroke="#000000" stroke-miterlimit="10" d="M129.698,44.954c0.76,11.402,0.786,9.935,1.521,21.735
                   		c0.066,1.071-0.331,2.176-0.512,3.266" />
		<path fill="none" stroke="#000000" stroke-miterlimit="10" d="M200.413,165.255c-0.32-1.282-0.64-2.562-0.68-2.724
                   		c-4.409,0-8.4,0-12.393,0" />
		<path fill="none" stroke="#000000" stroke-miterlimit="10" d="M172.095,90.104c0.545,6.174,1.09,12.346,1.634,18.518" />
		<path fill="none" stroke="#000000" stroke-miterlimit="10" d="M142.688,117.877c-2.358,0.236-4.72,0.472-7.711,0.771
                   		c-0.792-15.443-1.603-31.258-2.408-47.004c-5.661-4.584-11.712-2.554-17.652-1.688" />
		<path fill="none" stroke="#000000" stroke-miterlimit="10" d="M115.459,203.374c3.451,13.372,6.944,26.729,13.07,39.21" />
		<path fill="none" stroke="#000000" stroke-miterlimit="10" d="M164.471,89.561c3.449,0,6.898,0,10.35,0c4.537,0,9.074,0,13.611,0"
		/>
		<path fill="none" stroke="#000000" stroke-miterlimit="10" d="M186.799,62.875c-4.899,0.363-9.803,0.727-14.704,1.089" />
		<path fill="none" stroke="#000000" stroke-miterlimit="10" d="M169.917,255.108c-1.628,1.098-3.257,2.193-4.906,3.308
                   		c-0.33,1.779-0.667,3.598-1.036,5.594c-1.354-0.447-2.604-0.861-3.858-1.275c-3.932-5.207-4.722-10.625-1.089-16.338"
		/>
		<path fill="none" stroke="#000000" stroke-miterlimit="10" d="M187.888,75.4c-4.899,0.36-9.803,0.727-14.703,1.088" />
		<path fill="none" stroke="#000000" stroke-miterlimit="10" d="M135.064,164.71c-4.15-0.487-8.301-0.976-11.438-1.345
                   		c0,8.27,0,15.72,0,24.217c-2.1,0.263-5.407,0.675-8.713,1.089" />
		<path fill="none" stroke="#000000" stroke-miterlimit="10" d="M173.185,147.828c0.622,3.432,3.174,3.712,5.988,3.848
                   		c3.033,0.146,6.288,0.108,7.599,3.786c0.036,0.104-0.312,0.396-0.524,0.521c-0.135,0.079-0.354,0.016-0.536,0.016"
		/>
		<path fill="none" stroke="#000000" stroke-miterlimit="10" d="M132.342,86.836c-4.795-0.615-9.617-1.579-14.159,1.09" />
		<path fill="none" stroke="#000000" stroke-miterlimit="10" d="M132.342,102.629c-4.742-0.385-9.536-2.136-14.159,0.545" />
		<path fill="none" stroke="#000000" stroke-miterlimit="10" d="M141.599,256.197c0,2.903,0,5.809,0,8.984c3.633,0,6.719,0,9.805,0
                   		c-0.023,0.122-0.047,0.244-0.069,0.366c1.838-0.395,3.677-0.789,5.515-1.184" />
		<path fill="none" stroke="#000000" stroke-miterlimit="10" d="M200.957,112.431c-9.076,0.907-18.152,1.816-27.229,2.726" />
		<path fill="none" stroke="#000000" stroke-miterlimit="10" d="M184.075,207.188c2.179,0.361,4.425,0.503,6.521,1.134
                   		c5.385,1.618,1.311,5.852,1.885,8.729c0.446,2.233-1.87,5.021-2.961,7.562" />
		<path fill="none" stroke="#000000" stroke-miterlimit="10" d="M124.173,194.117c-2.743,0.639-5.486,1.279-8.309,1.937
                   		c-0.341,2.037-0.646,3.862-0.949,5.688" />
		<path fill="none" stroke="#000000" stroke-miterlimit="10" d="M142.688,91.736c0.363,5.99,0.919,11.978,1.052,17.973
                   		c0.305,13.611,0.408,27.228,0.56,40.842c0.006,0.542-0.345,1.087-0.844,2.562c-2.395-0.66-5.554-0.609-7.157-2.164
                   		c-3.597-3.488-7.697-3.755-12.124-3.665" />
		<path fill="none" stroke="#000000" stroke-miterlimit="10" d="M202.047,207.188c3.461-6.687,2.61-14.152,3.725-21.253
                   		c1.072-6.839,1.426-13.791,2.117-20.951c-4.714-3.424-7.316-0.345-9.652,3.54" />
		<path fill="none" stroke="#000000" stroke-miterlimit="10" d="M144.866,174.512c0.2,3.075,0.397,6.15,0.635,9.781
                   		c-6.858,1.521-13.223,2.932-20.199,4.479c0.245,0.611,0.647,1.616,1.05,2.621" />
		<path fill="none" stroke="#000000" stroke-miterlimit="10" d="M187.343,167.978c3.822,0.474,7.947-1.172,11.376,1.182
                   		c-0.697,3.857-1.317,7.297-2.04,11.287c3.141,0.417,5.889,0.78,8.637,1.146" />
		<path fill="none" stroke="#000000" stroke-miterlimit="10" d="M187.888,142.927c4.356,0.363,8.713,0.729,13.069,1.09" />
		<path fill="none" stroke="#000000" stroke-miterlimit="10" d="M186.799,143.472c-6.717,0.184-13.434,0.362-20.147,0.545" />
		<path fill="none" stroke="#000000" stroke-miterlimit="10" d="M115.459,84.113c-4.174,0.361-8.35,0.727-12.524,1.089" />
		<path fill="none" stroke="#000000" stroke-miterlimit="10" d="M200.957,138.026c-3.993,0-7.987,0-11.98,0" />
		<path fill="none" stroke="#000000" stroke-miterlimit="10" d="M165.561,247.484c4.438,6.279,9.317,12.319,10.893,20.147" />
		<path fill="none" stroke="#000000" stroke-miterlimit="10" d="M165.016,117.332c0.763,14.53,1.521,29.062,2.279,43.532
                   		c2.827,0.453,5.212,0.837,7.523,1.208c0,3.237,0,5.94,0,8.728c-2.542-0.462-4.538-0.826-6.535-1.188" />
		<path fill="none" stroke="#000000" stroke-miterlimit="10" d="M199.868,150.007c-3.449,0.362-6.924,0.574-10.333,1.172
                   		c-1.18,0.206-2.192,1.369-3.281,2.097" />
		<path fill="none" stroke="#000000" stroke-miterlimit="10" d="M199.868,156.541c-3.993,0.183-7.987,0.363-11.98,0.545" />
		<path fill="none" stroke="#000000" stroke-miterlimit="10" d="M143.777,157.086c0.809,5.628,2.591,11.254,0.642,16.824
                   		c-2.806-0.403-4.991-0.718-7.177-1.031" />
		<path fill="none" stroke="#000000" stroke-miterlimit="10" d="M160.659,242.584c6.515-3.479,11.503-8.22,12.479-17.045
                   		c-1.703-1.137-4.397-2.938-7.306-4.876c0.605-0.91,1.192-1.79,2.114-3.173c3.809,2.538,7.491,4.993,11.29,7.522
                   		c-1.079,2.182-1.767,3.564-2.637,5.321c2.96,1.956,5.776,3.816,8.664,5.725c-1.861,3.105-3.706,6.177-5.549,9.246"
		/>
		<path fill="none" stroke="#000000" stroke-miterlimit="10" d="M187.888,202.83c6.043-0.876,10.542,2.573,15.245,5.723
                   		c-0.867,3.906-1.794,8.077-2.72,12.248" />
		<path fill="none" stroke="#000000" stroke-miterlimit="10" d="M196.057,219.712c1.889,0.707,3.773,1.414,5.753,2.156
                   		c-1.695,4.764-3.181,8.927-4.663,13.091" />
		<path fill="none" stroke="#000000" stroke-miterlimit="10" d="M105.113,209.364c0.905,3.994,1.812,7.985,2.723,11.979" />
		<path fill="none" stroke="#000000" stroke-miterlimit="10" d="M187.888,258.921c-6.308,6.508-13.193,12.104-22.327,14.158" />
		<path fill="none" stroke="#000000" stroke-miterlimit="10" d="M186.799,174.512c0-5.265,0-10.528,0-15.581
                   		c-3.28-0.693-5.997-1.27-8.714-1.845" />
		<path fill="none" stroke="#000000" stroke-miterlimit="10" d="M113.281,170.155c7.617,0.48,15.231,0.964,22.887,1.446
                   		c0.192,4.624-2.436,7.274-6.545,6.16c-1.659-0.45-3.271-1.071-4.905-1.618" />
		<path fill="none" stroke="#000000" stroke-miterlimit="10" d="M121.994,257.831c5.289,7.881,12.536,13.579,21.313,16.665
                   		c4.276,1.503,9.36,0.712,15.457,1.03c-0.336-3.413-0.737-5.926-0.765-8.438c-0.013-1.267,0.66-2.54,1.023-3.811"
		/>
		<path fill="none" stroke="#000000" stroke-miterlimit="10" d="M188.977,115.154c-0.545,8.895-1.075,17.79-1.644,26.683
                   		c-0.115,1.819-0.354,3.631-0.534,5.446" />
		<path fill="none" stroke="#000000" stroke-miterlimit="10" d="M144.322,206.098c-5.087-0.509-10.173-1.019-15.703-1.568
                   		c-2.229,2.758-5.193,3.675-8.844,1.645c-0.616-0.344-1.774,0.288-2.684,0.47" />
		<path fill="none" stroke="#000000" stroke-miterlimit="10" d="M136.153,170.7c0-5.812,0-11.626,0-17.972c-3.448,0-5.811,0-8.169,0"
		/>
		<path fill="none" stroke="#000000" stroke-miterlimit="10" d="M196.057,243.673c-2.542,4.719-5.083,9.439-7.625,14.158" />
		<path fill="none" stroke="#000000" stroke-miterlimit="10" d="M209.126,144.017c-0.363,6.534-0.726,13.069-1.089,19.604" />
		<path fill="none" stroke="#000000" stroke-miterlimit="10" d="M102.933,75.4" />
		<path fill="none" stroke="#000000" stroke-miterlimit="10" d="M113.281,74.312" />
		<path fill="none" stroke="#000000" stroke-miterlimit="10" d="M190.61,92.826c3.469,0.39,6.937,0.779,10.892,1.224
                   		c0,11.288,0,22.188,0,33.085" />
		<path fill="none" stroke="#000000" stroke-miterlimit="10" d="M143.232,254.02c0.373-5.394,2.65-9.354,9.104-11.149
                   		c-0.141,2.839-0.099,5.384-0.426,7.88c-0.602,4.554-1.417,9.08-2.145,13.618" />
		<path fill="none" stroke="#000000" stroke-miterlimit="10" d="M124.718,181.047c1.089,0.182,2.208,0.26,3.264,0.562
                   		c4.182,1.199,8.052,1.311,10.266-2.428c1.667,0.331,2.783,0.555,3.897,0.774" />
		<path fill="none" stroke="#000000" stroke-miterlimit="10" d="M175.362,173.423c3.631,0.545,7.261,1.089,10.892,1.634" />
		<path fill="none" stroke="#000000" stroke-miterlimit="10" d="M104.023,174.512c-4.434-0.014-2.137,3.495-2.018,4.89
                   		c0.771,8.922,2.018,17.803,3.105,26.696" />
		<path fill="none" stroke="#000000" stroke-miterlimit="10" d="M121.45,146.739c-3.54-0.506-7.164-1.801-10.347,1.089" />
		<path fill="none" stroke="#000000" stroke-miterlimit="10" d="M179.175,248.029c2.359,3.447,4.72,6.896,7.079,10.347" />
		<path fill="none" stroke="#000000" stroke-miterlimit="10" d="M122.539,148.917c-0.13,2.564-0.26,5.13-0.35,6.889
                   		c-4.086,0.536-7.383,0.971-10.676,1.4c0.055,0.161,0.105,0.32,0.158,0.479c-3.82-0.198-7.642-0.397-11.462-0.6"
		/>
		<path fill="none" stroke="#000000" stroke-miterlimit="10" d="M108.381,135.303c-3.449,0.185-6.896,0.363-10.348,0.545" />
		<path fill="none" stroke="#000000" stroke-miterlimit="10" d="M183.531,200.651c0.135-1.978,0.27-3.952,0.444-6.534
                   		c-5.532,0-10.067,0-14.604,0" />
		<path fill="none" stroke="#000000" stroke-miterlimit="10" d="M126.352,201.74c-1.814-0.361-3.632-0.725-5.273-1.051
                   		c-1.972,0.56-3.793,1.076-5.617,1.596" />
		<path fill="none" stroke="#000000" stroke-miterlimit="10" d="M118.727,117.877c-3.446,0.362-6.896,0.727-10.346,1.089" />
		<path fill="none" stroke="#000000" stroke-miterlimit="10" d="M131.252,208.275c-4.354,1.271-8.713,2.541-13.069,3.812" />
		<path fill="none" stroke="#000000" stroke-miterlimit="10" d="M184.62,183.77c-5.445-1.634-10.894-3.268-16.337-4.898" />
		<path fill="none" stroke="#000000" stroke-miterlimit="10" d="M121.45,152.185c-3.27,0-6.535,0-9.803,0" />
		<path fill="none" stroke="#000000" stroke-miterlimit="10" d="M175.907,163.076c3.268,0.727,6.534,1.452,9.802,2.179" />
		<path fill="none" stroke="#000000" stroke-miterlimit="10" d="M153.035,244.217c4.689-3.183,7.032,0.687,8.464,2.021
                   		c1.247,4.635,2.109,7.843,2.972,11.051" />
		<path fill="none" stroke="#000000" stroke-miterlimit="10" d="M180.809,221.89c7.436,1.735,12.262,6.703,15.701,13.119
                   		c0.797,1.484,0.425,3.585,0.647,5.396c0.11,0.916,0.352,1.814,0.532,2.724" />
		<path fill="none" stroke="#000000" stroke-miterlimit="10" d="M175.907,169.611c3.086,0.544,6.172,1.089,9.258,1.634" />
		<path fill="none" stroke="#000000" stroke-miterlimit="10" d="M185.165,197.384c2.904,0.185,5.809,0.363,8.713,0.545" />
		<path fill="none" stroke="#000000" stroke-miterlimit="10" d="M130.163,218.622c-2.904,1.09-5.81,2.179-8.713,3.268" />
		<path fill="none" stroke="#000000" stroke-miterlimit="10" d="M107.291,128.224c-2.904,0.545-5.809,1.089-8.713,1.636" />
		<path fill="none" stroke="#000000" stroke-miterlimit="10" d="M106.202,116.243c0.363,2.904,0.665,5.816,1.106,8.71
                   		c0.359,2.356-0.353,5.366,3.248,5.993" />
		<path fill="none" stroke="#000000" stroke-miterlimit="10" d="M200.957,118.966c-2.904,0-5.809,0-8.713,0" />
		<path fill="none" stroke="#000000" stroke-miterlimit="10" d="M119.271,231.146c-1.452,2.904-2.904,5.81-4.356,8.714" />
		<path fill="none" stroke="#000000" stroke-miterlimit="10" d="M122.539,182.681c-2.178,0.184-4.354,0.479-6.535,0.518
                   		c-2.786,0.047-4.104,0.936-2.723,3.841" />
		<path fill="none" stroke="#000000" stroke-miterlimit="10" d="M187.888,191.938c-4.255-1.284-8.509-2.571-13.342-4.032
                   		c0,3.834,0,6.385,0,10.113c-2.917-0.274-5.452-0.516-8.573-0.811c0.581-11.1,1.111-21.251,1.706-32.627
                   		c2.122,0.235,4.086,0.454,6.05,0.673" />
		<path fill="none" stroke="#000000" stroke-miterlimit="10" d="M143.232,149.462c-2.725-0.182-5.445-0.362-8.168-0.545" />
		<path fill="none" stroke="#000000" stroke-miterlimit="10" d="M193.333,56.885" />
		<path fill="none" stroke="#000000" stroke-miterlimit="10" d="M172.64,118.422c0.184,3.812,0.461,7.622,0.521,11.438
                   		c0.09,5.627,0.021,11.254,0.021,17.426c-1.804,0-3.625,0-5.444,0" />
		<path fill="none" stroke="#000000" stroke-miterlimit="10" d="M137.787,205.008c0.182-1.996,0.364-3.993,0.621-6.807
                   		c-3.891,0-7.7,0-11.816,0c0.59,2.647,0.991,4.455,1.395,6.263" />
		<path fill="none" stroke="#000000" stroke-miterlimit="10" d="M176.996,231.692c-2.723,3.812-5.445,7.624-8.168,11.436" />
		<path fill="none" stroke="#000000" stroke-miterlimit="10" d="M134.52,125.501c0-0.907,0-1.815,0-2.902
                   		c-2.875-0.479-5.794-0.968-8.713-1.454" />
		<path fill="none" stroke="#000000" stroke-miterlimit="10" d="M124.718,247.484c-0.908,2.723-1.813,5.444-2.724,8.169" />
		<path fill="none" stroke="#000000" stroke-miterlimit="10" d="M172.64,240.405c2.117,1.883,4.235,3.765,6.692,5.95
                   		c-2.466,2.771-5.124,5.764-7.781,8.753" />
		<path fill="none" stroke="#000000" stroke-miterlimit="10" d="M121.994,157.086c0.22,1.776,0.438,3.554,0.568,4.606
                   		c-4.062,0.347-6.943,0.594-9.826,0.839" />
		<path fill="none" stroke="#000000" stroke-miterlimit="10" d="M151.401,266.545c0.182,2.723,0.361,5.445,0.545,8.168" />
		<path fill="none" stroke="#000000" stroke-miterlimit="10" d="M146.5,239.86c-4.172-5.479-7.214-11.443-6.983-18.514
                   		c0.056-1.646,1.31-3.256,2.011-4.882c0.646-0.083,1.29-0.167,1.935-0.25c1.089,1.089,2.179,2.178,4.339,4.339
                   		c-3.447,1.146-5.368,1.785-7.289,2.423" />
		<path fill="none" stroke="#000000" stroke-miterlimit="10" d="M118.183,216.444c-2.724,1.449-5.444,2.902-8.169,4.354" />
		<path fill="none" stroke="#000000" stroke-miterlimit="10" d="M175.362,212.088c-0.544,2.723-1.089,5.445-1.634,8.168" />
		<path fill="none" stroke="#000000" stroke-miterlimit="10" d="M191.155,215.354c-2.853-1.706-5.229-4.179-9.316-2.909
                   		c-1.833,0.566-4.298-0.9-6.477-1.445" />
		<path fill="none" stroke="#000000" stroke-miterlimit="10" d="M179.175,226.246c2.541,1.452,5.082,2.905,7.624,4.354" />
		<path fill="none" stroke="#000000" stroke-miterlimit="10" d="M113.826,176.69c2.541,0,5.082,0,7.624,0" />
		<path fill="none" stroke="#000000" stroke-miterlimit="10" d="M116.004,96.094c-2.541,0-5.082,0-7.623,0" />
		<path fill="none" stroke="#000000" stroke-miterlimit="10" d="M171.074,57.973c0.188,9.262,0.678,18.518,0.994,27.775
                   		c0.029,0.9-0.335,1.812-0.518,2.722" />
		<path fill="none" stroke="#000000" stroke-miterlimit="10" d="M136.153,234.415c2.902,4.175,5.809,8.351,8.713,12.525" />
		<path fill="none" stroke="#000000" stroke-miterlimit="10" d="M143.232,130.402c-2.541-0.545-5.082-1.09-7.624-1.636" />
		<path fill="none" stroke="#000000" stroke-miterlimit="10" d="M108.381,131.491c0.363,3.812,0.728,7.624,1.088,11.436" />
		<path fill="none" stroke="#000000" stroke-miterlimit="10" d="M203.136,89.561" />
		<path fill="none" stroke="#000000" stroke-miterlimit="10" d="M209.126,138.57c-2.359,0-4.72,0-7.079,0" />
		<path fill="none" stroke="#000000" stroke-miterlimit="10" d="M197.146,181.592c-0.415,1.806-0.831,3.607-1.276,5.542
                   		c2.879,0.718,5.617,1.4,8.354,2.082" />
		<path fill="none" stroke="#000000" stroke-miterlimit="10" d="M135.064,253.475c-1.271,2.36-2.542,4.722-3.812,7.08" />
		<path fill="none" stroke="#000000" stroke-miterlimit="10" d="M100.212,149.462c2.359,0.362,4.72,0.729,7.079,1.089" />
		<path fill="none" stroke="#000000" stroke-miterlimit="10" d="M119.271,112.976c1.09,8.531,2.179,17.063,3.268,25.597" />
		<path fill="none" stroke="#000000" stroke-miterlimit="10" d="M175.907,204.464c-1.769-4.125-5.791-2.227-8.713-3.268" />
		<path fill="none" stroke="#000000" stroke-miterlimit="10" d="M138.332,206.098c0,2.725,0,5.445,0,8.713c-4.176,0-8.352,0-12.525,0
                   		" />
		<path fill="none" stroke="#000000" stroke-miterlimit="10" d="M138.876,225.157c-4.538,2.179-9.076,4.354-13.614,6.535" />
		<path fill="none" stroke="#000000" stroke-miterlimit="10" d="M100.756,69.41" />
		<path fill="none" stroke="#000000" stroke-miterlimit="10" d="M135.608,105.896c2.179-0.184,4.355-0.363,6.533-0.547" />
		<path fill="none" stroke="#000000" stroke-miterlimit="10" d="M197.146,194.661c2.178,0.907,4.354,1.813,6.532,2.723" />
		<path fill="none" stroke="#000000" stroke-miterlimit="10" d="M199.323,171.245c2.179,0.182,4.354,0.362,6.535,0.544" />
		<path fill="none" stroke="#000000" stroke-miterlimit="10" d="M104.023,95.005c0.182,3.086,0.17,6.198,0.595,9.25
                   		c0.504,3.625,1.382,7.197,2.146,11.031c-2.333,0.584-4.17,1.042-6.008,1.502" />
		<path fill="none" stroke="#000000" stroke-miterlimit="10" d="M137.242,167.978c2.179,0,4.354,0,6.535,0" />
		<path fill="none" stroke="#000000" stroke-miterlimit="10" d="M140.51,243.673c-1.812,1.634-3.631,3.27-5.443,4.901" />
		<path fill="none" stroke="#000000" stroke-miterlimit="10" d="M164.471,264.911c0.272,2.553,0.546,5.104,0.932,8.713
                   		c-2.017,0-4.194,0-6.375,0" />
		<path fill="none" stroke="#000000" stroke-miterlimit="10" d="M100.756,79.757" />
		<path fill="none" stroke="#000000" stroke-miterlimit="10" d="M94.222,79.757" />
		<path fill="none" stroke="#000000" stroke-miterlimit="10" d="M202.591,132.035c2.179,0,4.356,0,6.535,0" />
		<path fill="none" stroke="#000000" stroke-miterlimit="10" d="M126.352,193.572c0,0.554,0,1.107,0,1.663
                   		c-0.431-0.108-0.859-0.22-1.291-0.326c0.514-1.214,1.023-2.427,1.255-2.972c2.765,0,4.938,0,7.115,0" />
		<path fill="none" stroke="#000000" stroke-miterlimit="10" d="M141.599,266c-0.544,1.996-1.089,3.994-1.633,5.99" />
		<path fill="none" stroke="#000000" stroke-miterlimit="10" d="M203.136,122.233c1.997,0.36,3.993,0.727,5.99,1.089" />
		<path fill="none" stroke="#000000" stroke-miterlimit="10" d="M137.242,157.086c2.179,0,4.356,0,7.12,0
                   		c-0.25-1.86-0.417-3.109-0.585-4.354" />
		<path fill="none" stroke="#000000" stroke-miterlimit="10" d="M174.273,155.452c-0.184,1.996-0.363,3.994-0.545,5.99" />
		<path fill="none" stroke="#000000" stroke-miterlimit="10" d="M138.332,220.256c-1.997,0.545-3.994,1.09-5.99,1.634" />
		<path fill="none" stroke="#000000" stroke-miterlimit="10" d="M134.52,233.87c-1.995,1.089-3.991,2.179-5.988,3.268" />
		<path fill="none" stroke="#000000" stroke-miterlimit="10" d="M176.996,108.074c-4.317-0.088-4.889,2.906-4.236,5.965
                   		c0.521,2.448,0.834,3.942-2.299,3.838" />
		<path fill="none" stroke="#000000" stroke-miterlimit="10" d="M144.866,212.088c0.233-3.992,0.471-7.98,0.737-12.523
                   		c-1.278,0-2.369,0-3.462,0" />
		<path fill="none" stroke="#000000" stroke-miterlimit="10" d="M161.748,233.87c-2.904,1.089-5.809,2.179-8.713,3.268" />
		<path fill="none" stroke="#000000" stroke-miterlimit="10" d="M172.095,105.896c-1.997,0.182-3.993,0.36-5.989,0.543" />
		<path fill="none" stroke="#000000" stroke-miterlimit="10" d="M132.886,71.044c1.997,0,3.993,0,5.99,0" />
		<path fill="none" stroke="#000000" stroke-miterlimit="10" d="M144.866,184.859c0.162,1.434,0.324,2.865,0.518,4.572
                   		c-2.646,0.532-4.85,0.976-7.052,1.416" />
		<path fill="none" stroke="#000000" stroke-miterlimit="10" d="M115.459,195.206c-0.801-1.604-1.602-3.206-2.281-4.565
                   		c-1.852,0.408-3.869,0.854-5.887,1.3" />
		<path fill="none" stroke="#000000" stroke-miterlimit="10" d="M171.551,229.514c-1.813-1.089-3.631-2.178-5.444-3.268" />
		<path fill="none" stroke="#000000" stroke-miterlimit="10" d="M186.254,237.138c1.452,1.815,2.904,3.63,4.356,5.446" />
		<path fill="none" stroke="#000000" stroke-miterlimit="10" d="M169.372,244.762c1.634,1.636,3.268,3.27,4.901,4.901" />
		<path fill="none" stroke="#000000" stroke-miterlimit="10" d="M111.646,106.984c-1.814,0.545-3.631,1.09-5.444,1.635" />
		<path fill="none" stroke="#000000" stroke-miterlimit="10" d="M204.225,110.253" />
		<path fill="none" stroke="#000000" stroke-miterlimit="10" d="M209.67,110.253" />
		<path fill="none" stroke="#000000" stroke-miterlimit="10" d="M187.888,108.074c-1.813,0-3.631,0-5.444,0" />
		<path fill="none" stroke="#000000" stroke-miterlimit="10" d="M172.095,137.481c-1.634,0.36-3.267,0.727-4.898,1.089" />
		<path fill="none" stroke="#000000" stroke-miterlimit="10" d="M171.006,70.499c-1.634-0.183-3.268-0.362-4.9-0.544" />
		<path fill="none" stroke="#000000" stroke-miterlimit="10" d="M142.144,211.543c4.641,0.301,3.407,3.27,2.725,5.99" />
		<path fill="none" stroke="#000000" stroke-miterlimit="10" d="M166.649,222.435c-1.091,3.085-2.181,6.174-3.27,9.26" />
		<path fill="none" stroke="#000000" stroke-miterlimit="10" d="M111.104,173.423c-1.635,0-3.268,0-4.899,0" />
		<path fill="none" stroke="#000000" stroke-miterlimit="10" d="M155.758,237.683c0.184,1.636,0.363,3.27,0.545,4.901" />
		<path fill="none" stroke="#000000" stroke-miterlimit="10" d="M196.057,188.126c-0.361,4.539-0.608,9.09-1.137,13.609
                   		c-0.278,2.391-1.042,4.725-1.587,7.085" />
		<path fill="none" stroke="#000000" stroke-miterlimit="10" d="M172.64,206.098c2.877-0.615,5.722-1.794,8.714-0.545" />
		<path fill="none" stroke="#000000" stroke-miterlimit="10" d="M139.421,202.83c1.634,0,3.27,0,4.901,0" />
		<path fill="none" stroke="#000000" stroke-miterlimit="10" d="M176.996,236.593c1.452,1.271,2.904,2.541,4.354,3.812" />
		<path fill="none" stroke="#000000" stroke-miterlimit="10" d="M110.559,158.72c0.873,7.597,1.746,15.189,2.612,22.727
                   		c-1.883,0.353-2.792,0.521-3.702,0.689" />
		<path fill="none" stroke="#000000" stroke-miterlimit="10" d="M128.529,210.454c0.545,1.451,1.089,2.904,1.634,4.354" />
		<path fill="none" stroke="#000000" stroke-miterlimit="10" d="M166.649,197.384c0,7.08,0,14.159,0,21.238" />
		<path fill="none" stroke="#000000" stroke-miterlimit="10" d="M137.242,162.531c2.179,0,4.354,0,6.535,0" />
		<path fill="none" stroke="#000000" stroke-miterlimit="10" d="M187.888,126.59c-2.179,0-4.354,0-6.534,0" />
		<path fill="none" stroke="#000000" stroke-miterlimit="10" d="M117.094,129.857c-1.453,0-2.902,0-4.355,0" />
		<path fill="none" stroke="#000000" stroke-miterlimit="10" d="M201.502,133.669c0,3.27,0,6.535,0,9.803" />
		<path fill="none" stroke="#000000" stroke-miterlimit="10" d="M109.469,144.017c0.184,4.176,0.363,8.352,0.545,12.524" />
		<path fill="none" stroke="#000000" stroke-miterlimit="10" d="M168.283,155.997c1.638,0,3.273,0,4.986,0
                   		c0.959-3.21,0.395-4.725-2.811-4.356" />
		<path fill="none" stroke="#000000" stroke-miterlimit="10" d="M186.254,186.493c1.271,0,2.541,0,3.812,0" />
		<path fill="none" stroke="#000000" stroke-miterlimit="10" d="M146.5,226.791c1.768,3.549,3.536,7.099,5.735,11.517
                   		c0.05-0.266-0.12,0.646-0.289,1.555" />
		<path fill="none" stroke="#000000" stroke-miterlimit="10" d="M185.709,176.146c-0.363,4.899-0.726,9.803-1.089,14.702" />
		<path fill="none" stroke="#000000" stroke-miterlimit="10" d="M189.521,226.791c-1.452,2.541-2.904,5.083-4.356,7.624" />
		<path fill="none" stroke="#000000" stroke-miterlimit="10" d="M167.738,161.442c0,1.271,0,2.541,0,3.812" />
		<path fill="none" stroke="#000000" stroke-miterlimit="10" d="M144.866,190.305c0.182,2.36,0.362,4.722,0.545,7.079" />
		<path fill="none" stroke="#000000" stroke-miterlimit="10" d="M130.708,215.899c0.726,3.447,1.452,6.896,2.178,10.347" />
		<path fill="none" stroke="#000000" stroke-miterlimit="10" d="M181.354,217.533c-0.906,2.541-1.813,5.083-2.724,7.624" />
		<path fill="none" stroke="#000000" stroke-miterlimit="10" d="M145.956,222.435c0.361,1.084,0.724,2.167,1.188,3.561
                   		c-1.678,0.343-2.795,0.57-3.909,0.798" />
		<path fill="none" stroke="#000000" stroke-miterlimit="10" d="M155.758,253.475c-3.993,0.363-7.986,0.729-11.979,1.092" />
		<path fill="none" stroke="#000000" stroke-miterlimit="10" d="M117.094,251.841c0.907,1.271,1.814,2.541,2.725,3.812" />
		<path fill="none" stroke="#000000" stroke-miterlimit="10" d="M174.818,181.047c0.181,2.36,0.36,4.72,0.544,7.079" />
		<path fill="none" stroke="#000000" stroke-miterlimit="10" d="M95.855,102.629c1.27,0,2.541,0,3.812,0" />
		<path fill="none" stroke="#000000" stroke-miterlimit="10" d="M174.273,171.789c0,2.723,0,5.446,0,8.169" />
		<path fill="none" stroke="#000000" stroke-miterlimit="10" d="M103.479,183.226c1.271,0,2.544,0,3.812,0" />
		<path fill="none" stroke="#000000" stroke-miterlimit="10" d="M110.559,164.71c-1.09,0.362-2.178,0.727-3.268,1.089" />
		<path fill="none" stroke="#000000" stroke-miterlimit="10" d="M137.242,188.126c-0.183,3.086-0.363,6.173-0.544,9.258" />
		<path fill="none" stroke="#000000" stroke-miterlimit="10" d="M123.628,215.899c-0.907,0.182-1.815,0.36-2.723,0.545" />
		<path fill="none" stroke="#000000" stroke-miterlimit="10" d="M172.095,128.769c-0.907-0.361-1.812-0.727-2.723-1.09" />
		<path fill="none" stroke="#000000" stroke-miterlimit="10" d="M173.185,175.602c-0.906-0.361-1.813-0.727-2.724-1.09" />
		<path fill="none" stroke="#000000" stroke-miterlimit="10" d="M98.578,90.648c-0.908,0.182-1.815,0.36-2.723,0.543" />
		<path fill="none" stroke="#000000" stroke-miterlimit="10" d="M136.153,177.235c0.361,0.727,0.726,1.449,1.089,2.178" />
		<path fill="none" stroke="#000000" stroke-miterlimit="10" d="M201.502,154.363c-0.182,1.634-0.363,3.268-0.545,4.898" />
		<path fill="none" stroke="#000000" stroke-miterlimit="10" d="M174.273,222.979c-0.363,0.729-0.728,1.452-1.091,2.181" />
		<path fill="none" stroke="#000000" stroke-miterlimit="10" d="M144.866,241.494c-0.544,0.363-1.089,0.727-1.634,1.09" />
		<path fill="none" stroke="#000000" stroke-miterlimit="10" d="M127.44,243.673c-0.184,0.362-0.387,0.718-0.534,1.093
                   		c-0.062,0.156-0.013,0.358-0.013,0.541" />
	</g>
</svg>