<svg xmlns="http://www.w3.org/2000/svg" viewBox="0 0 300 300"><g id="shapes"><path fill="none" d="M98.178 143.456l112.03-.079-5.458 56.235s-1.472 7.203-2.704 7.552 1.086 1.377 1.086 1.377l-2.537 12.993 1.751.441-5.252 13.787s0 6.126.219 7.658-1.313.659-1.313.659-6.784 13.565-8.097 14.879-9.846 8.752-11.597 9.628-10.941 4.158-10.941 4.158l.209 1.312-6.574-.437V275s-13.547 1.683-17.486-.943-12.035-7.439-14.879-10.284-10.722-13.13-12.254-17.287-7.44-18.38-7.002-20.568 1.094-3.501 1.094-3.501l-3.282-12.254-3.72-32.386-.875-5.688-.875-9.409-1.543-19.224z" id="roottip"/></g><g id="outlines"><path fill="none" d="M139.979 54.918c.427 5.029 1.28 9.891 1.286 14.984.004 2.543.461 4.939 1.125 7.283-.082.428-.133.863-.143 1.311-.088 3.879.222 7.748.25 11.625.004.496.061.98.156 1.451-.342 1.252-.376 2.599-.016 3.918.106.386.18.772.261 1.162-.052.023.112 1.601.122 1.875.043 1.486-.019 2.979-.023 4.469-.002.43.038.852.109 1.263-.22.71-.311 1.461-.234 2.237.249 2.622.49 5.244.625 7.875.061 1.172.36 2.284.85 3.281-.057.732-.007 1.516.168 2.338.479 2.245.143 4.717.107 7.006-.045 3.14.168 6.239-.125 9.375-.044.475-.021.938.046 1.391-.25.256-.421.587-.421.984 0 1.211-.013 2.418-.125 3.625-.076.813.74 1.5 1.5 1.5.218 0 .415-.043.591-.119 1.283.113 2.541.078 3.809-.185.02-.005.033-.016.054-.02.674.205 1.364.321 2.049.321 1.262 0 2.382-.292 3.354-.796.35.16.712.299 1.09.402 1.328.355 2.628.355 3.956 0 .107-.029.223-.071.334-.108.006 0 .011.002.017.002.06.002.115.008.173.013.086.015.36.047.403.054.478.07.955.14 1.435.193.825.099 1.681.108 2.435-.288.032-.018.052-.047.083-.063.719-.254 1.019-1.029.89-1.718.083-1.002-.151-2.149-.169-2.935-.008-.356-.117-.646-.289-.871.169-.643.268-1.31.396-2.384.129-1.088-.2-2.298-.354-3.333-.098-.667-.301-1.338-.539-1.998.409-1.593.391-3.319-.209-4.798-.1-1.304-.143-2.609-.176-3.915-.035-1.372-.031-2.744.004-4.115.011-.427.036-.853.062-1.279.285-1.282.259-2.464-.011-3.52.08-.643.111-1.264.116-1.912.003-.398-.023-.777-.069-1.145.044-1.032.022-2.07-.056-3.105-.094-1.229-.336-2.354-.832-3.384.043-.733.108-1.412.189-1.997.195-1.422.136-2.835-.205-4.124.296-9.946.165-20.147-.881-30.021.046-.274.08-.559.104-.851.042-.542.083-1.083.125-1.625.089-1.157-.054-2.171-.365-3.049-.126-2.777-.185-5.511.014-8.429"/><path fill="none" d="M128.997 45.748c.096 4.309 1.399 8.311 1.928 12.55.558 4.479.114 9.022.751 13.529.083.586.24 1.094.456 1.528.01 2.256.031 4.513.115 6.768.11 2.982.869 5.882.875 8.875.002 1.025.258 1.886.685 2.585-.021.178-.058.349-.06.54-.015 1.128.099 2.091.293 3.152-.188.463-.301.99-.293 1.598.024 2.176.248 4.338.515 6.498.062 2.783.302 5.552.582 8.318-.757.645-1.254 1.617-1.222 2.934.102 4.07.711 8.08 1.125 12.125.417 4.064-.102 8.193-.375 12.25-.059.836.115 1.526.434 2.086-.12.175-.234.354-.354.532-.448.685-.143 1.653.538 2.052.641.376 1.392.204 1.865-.304.892.511 1.972.685 3.118.259.792.114 1.597.034 2.296-.238.237.221.561.363.978.363 1.496.002 1.831-1.78 1.021-2.596.096-.385.14-.807.107-1.277-.451-7.078-.383-14.161-.375-21.25.001-.499-.093-.935-.229-1.337.067-4.516.241-9.022-.021-13.538-.188-3.204-1.289-6.438-.955-9.627.307-.965.467-1.977.58-3.123.069-.702-.041-1.297-.259-1.809.002-.063.009-.125.009-.191-.006-2.99-.656-5.9-.875-8.875-.216-2.941-.124-5.928-.125-8.875 0-1.189-.344-2.16-.899-2.911-.361-3.323-.145-6.708-.298-10.039-.195-4.255-1.833-8.28-1.928-12.55M162.996 46.492c.242 3.148.383 6.307.73 9.447-.031.291-.062.582-.105.871-.121.818.014 1.551.313 2.172-.145 1.269-.277 2.535-.355 3.802-.557.554-.866 1.368-.726 2.458.053.388.1.775.146 1.165-.345.665-.479 1.467-.257 2.391.171.712.183 2.491.242 3.728.066 1.386.25 2.81.776 4.098.137 3.633.173 7.271.22 10.914-.628.927.352 1.447.366 4.099.021 3.356.206 7.319.261 10.612.067 4.029-.106 7.925.514 11.927.009.062.028.111.043.168-.014.093-.036.182-.043.276-.1 1.332-.081 2.639.002 3.935-.124.325-.224.672-.252 1.065-.197 2.562-.392 5.088-.163 7.656.193 2.218 1.515 4.708 1.163 6.912-.181 1.122.126 2.078.688 2.812-.087 1.116-.193 2.237-.312 3.368-.064.623.023 1.147.211 1.598-.731 1.022.063 2.839 1.562 2.351 1.186-.39 2.378-.211 3.604-.196 1.364.016 1.762-1.47 1.201-2.355.216-.402.367-.864.424-1.395.402-3.843.758-7.631.377-11.495-.336-3.418-1.123-6.71-1.428-10.078.068-.193.137-.391.178-.616.508-2.775.538-5.503.479-8.259.248-.466.402-1.015.396-1.672-.033-3.05-.467-6.075-.5-9.125 0-.01-.003-.018-.003-.025.042-3.367-.88-6.734-.872-10.1.003-1.146.55-1.996-.123-2.557.82-3.176.315-6.002-.273-8.976.257-.481.411-1.021.396-1.595-.021-.787-.146-1.57-.293-2.344-.021-.098-.061-.346-.09-.516-.009-.214-.069-.428-.057-.643.036-.528-.35-1.023-.413-1.475.112-.422.147-.883.07-1.385.271-.482.433-1.062.405-1.768-.123-3.333-.24-6.665-.25-10-.001-.417-.078-.782-.188-1.122.395-2.948.75-5.892.438-8.753"/><path fill="none" d="M172.545 51.41c-1.344 1.107-2.225 2.763-2.166 4.586.046 1.43.271 2.861.714 4.221.09.275.19.547.29.817-.167.868-.153 1.782.085 2.682.08.302.136.606.196.911-.053.457-.116.913-.16 1.369-.036.377-.032.729-.011 1.068-.223.752-.317 1.6-.239 2.557.625 7.658.832 15.383 1.379 23.061.383 5.379.906 10.726 1.112 16.084-.783 1.112-1.229 2.44-1.116 3.855.178 2.284.357 4.568.511 6.855.095 1.405.173 2.813.229 4.225.018.464.021.928.021 1.392-.215 1.02-.18 2.085.152 3.163-.061.378-.082.754-.037 1.115.188 1.534.229 3.077.127 4.616-.028.068-.059.14-.087.211-.097.229-.193.458-.29.687-.333 1.241-.333 2.481 0 3.725.03.107.071.215.106.32-.054.062-.111.113-.151.187-.19.337-.331.687-.311 1.081-.011.165.018.318.078.467.023.054.047.108.068.163.002.017.005.035.011.069.006.041.023.075.034.115 0 .072.006.146.006.218 0 .425-.038.849-.094 1.269-.107.812.764 1.5 1.5 1.5.414 0 .737-.15.981-.388.133.003.271-.006.416-.041.522-.126 1.052-.219 1.579-.3 1.328.511 2.799.604 4.188.266.14.047.289.082.459.088 1.07.036 2.174.146 3.15-.112.234.221.558.362.975.362 1.486 0 1.826-1.766 1.029-2.587.012-.396-.015-.801.021-1.101.073-.637.025-1.271-.013-1.905.146-.499.291-1 .408-1.509.109-.482.002-.895-.229-1.206.009-.066.022-.125.03-.192.159-1.296.206-2.597.155-3.896.1-.585.13-1.185.099-1.777.094-.471.151-.952.121-1.451-.005-.075-.01-.13-.015-.187.114-.632.238-1.26.339-1.894.371-2.39.379-4.781.676-7.172.047-.376.038-.744.001-1.104.479-1.485.436-2.915.02-4.193.009-.749-.093-1.498-.293-2.217.048-2.619.467-5.387.354-7.908-.17-3.854-.198-7.4.046-11.324.002-.023 0-.047.001-.07.367-.867.562-1.879.499-3.055-.126-2.337-.623-4.636-.626-6.977-.003-2.551.502-5.058-.499-7.512-.055-.135-.129-.252-.189-.382-.061-5.668-.051-11.329-.186-17.007-.016-.68-.112-1.307-.273-1.882M113.863 66.438c-.263 1.074-.301 2.24-.131 3.414 1.066 7.393 2.582 14.907 3.885 22.455-.229.653-.358 1.385-.367 2.191-.06 5.41-.572 10.854.289 16.227.936 5.841 3.234 11.463 3.461 17.398.055 1.45.498 2.644 1.182 3.592-.159 2.694-.477 5.354.428 8.011 1.137 3.354 4.429 5.521 7.995 4.54.624-.172 1.216-.446 1.758-.805.557.261 1.246.177 1.7-.277.455-.457.535-1.146.271-1.703 1.006-1.519 1.416-3.416.809-5.208-.074-.2-.128-.407-.181-.613-.029-.6.004-1.2.037-1.795.07-1.249.229-2.488.251-3.739.017-.976-.224-1.896-.626-2.731.242-.674.38-1.395.376-2.144-.011-2.258-.234-4.5-.626-6.723.331-.816.479-1.781.376-2.902-.669-7.18-.695-14.375-.865-21.577-.168-7.147-1.422-14.335-1.51-21.423-.021-1.751-.611-3.132-1.523-4.15-.057-9.076-.2-18.215-1.332-27.203M113.9 59.531c.049.492.096.982.145 1.474"/><path fill="none" d="M101.337 69.527c-.049 1.689-.055 3.389.037 5.098.036.673.176 1.275.373 1.831.002.015 0 .028.002.044.294 3.27-.188 6.493-.283 9.761-.092 3.211 1.047 6.523 1.873 9.584.248.921.644 1.677 1.139 2.286.15 1.785.233 3.574.146 5.369-.044.913.089 1.713.35 2.41.831 9.848 1.896 19.604 4.005 29.249-.063.132-.107.282-.104.466.039 1.429.639 2.812.285 4.234-.092.366.021.661.222.88-.002.217.018.438.083.676.021.07.055.139.082.208-.047.16-.094.322-.137.486-.271 1.029.987 1.555 1.623 1.01.479.197 1.01.245 1.506.042.064-.027.136-.035.203-.062 1.551.812 3.45.847 5.127.185.809.185 1.607.372 2.381.466 1.767.215 2.642-1.747 2.411-3.165-.13-.798-.322-1.521-.286-2.335.026-.579-.118-1.05-.366-1.42-.003-.266-.009-.525-.009-.774v-.431c0-.324-.091-.629-.131-.926-.223-4.817-.978-9.56-2.168-14.23-.03-1.824.041-3.656.049-5.469.008-1.639-.797-2.752-1.895-3.35-.367-3.209-.484-6.477-.684-9.711.281-.676.449-1.439.459-2.314.062-5.751-1.337-11.366-1.729-17.088"/><path fill="none" d="M92.162 80.823c.137.819.438 1.463.844 1.96.727 7.135 1.635 14.245 2.758 21.324-.451.71-.609 1.628-.262 2.699.42 1.287.721 2.597.953 3.916-.045.465.021.957.23 1.466.706 5.224.414 10.624 1.13 15.856-.499.725-.718 1.662-.438 2.761.398 1.579-.352 3.424-.394 5.042-.05 1.847.538 3.699 1.019 5.458.436 1.587 1.809 2.452 3.375 2.569 1.842.138 3.605.025 5.432-.25.461-.069.865-.265 1.215-.54.08.021.155.034.229.04.234.021.381-.103.443-.266.451-.072.527-.659.223-.889.424-.828.561-1.82.332-2.649-.133-.483-.346-.892-.615-1.229.041-.135.088-.263.115-.411.482-2.6-.11-4.846-.75-7.359-.688-2.707-.369-5.625-1-8.375-.062-.27-.146-.513-.246-.732-.128-4.12-.305-8.23-1.535-12.269-.057-.186-.179-.35-.255-.514.269-.633.312-1.384.062-2.236-.152-.514-.306-1.026-.44-1.543-.044-.494-.09-.989-.136-1.483-.313-3.375-1.217-6.459-1.857-9.72-.585-5.449-.764-10.954-1.088-16.447-.039-.652-.23-1.197-.513-1.661M211.57 62.322c.272-1.002.193-2.104-.236-3.043"/><path fill="none" stroke="#000000" stroke-miterlimit="10" d="M137.841 35.639c.64 6.742 1.977 13.418 2.624 20.159 1.081 11.237 1.868 22.503 2.743 33.761.027.349-.336.726-1.039 2.133-2.142.166-4.895.377-7.646.59M101.876 86.831c.133 2.013.694 3.996 1.058 5.992M162.302 38.171c.363 19.604 1.201 31.24 1.653 50.843.19 8.354.632 16.704 1.15 25.045.06.948 1.36 1.821 2.089 2.729M113.923 68.312c.459 5.664 1.733 11.262 2.612 16.894.254 1.622.462 3.261.541 4.899.342 7.09.628 14.183.967 22.026 5.553.306 10.47.574 15.386.843M210.26 119.511c-.271 7.8-.047 15.617-.047 23.959h-7.624M187.949 61.242c.043 5.811.89 11.613.979 17.428.168 10.889.037 21.781.071 32.673.002.729.34 1.452.521 2.179M134.52 142.927v-12.282c-4.229.472-8.378.933-12.523 1.393M138.332 238.227c-2.817 2.051-5.635 4.1-8.852 6.438 3.193 3.377 5.818 6.609 8.955 9.229 1.159.969 3.524.489 5.342.674M93.195 86.83c1.137 11.286 3.023 22.496 4.211 33.778.508 4.848-.24 9.818.148 14.688.927 11.514 1.908 19.507 3.185 32.683.14 1.438.019 2.901.019 4.354M109.469 221.89c-3.454 2.102-1.449 5.501-.865 7.562 1.951 6.884 4.859 13.496 7.4 20.213M230 143.5c-167.768 0-196.348-.028-100.383-.028M129.698 44.954c.76 11.402.786 9.935 1.521 21.735.066 1.071-.331 2.176-.512 3.266M200.413 165.255c-.32-1.282-.64-2.562-.68-2.724H187.34M172.095 90.104c.545 6.174 1.09 12.346 1.634 18.518"/><path fill="none" stroke="#000000" stroke-miterlimit="10" d="M142.688 117.877c-2.358.236-4.72.472-7.711.771-.792-15.443-1.603-31.258-2.408-47.004-5.661-4.584-11.712-2.554-17.652-1.688M115.459 203.374c3.451 13.372 6.944 26.729 13.07 39.21M164.471 89.561h23.961M186.799 62.875c-4.899.363-9.803.727-14.704 1.089M169.917 255.108c-1.628 1.098-3.257 2.193-4.906 3.308-.33 1.779-.667 3.598-1.036 5.594-1.354-.447-2.604-.861-3.858-1.275-3.932-5.207-4.722-10.625-1.089-16.338M187.888 75.4c-4.899.36-9.803.727-14.703 1.088M135.064 164.71c-4.15-.487-8.301-.976-11.438-1.345v24.217c-2.1.263-5.407.675-8.713 1.089M173.185 147.828c.622 3.432 3.174 3.712 5.988 3.848 3.033.146 6.288.108 7.599 3.786.036.104-.312.396-.524.521-.135.079-.354.016-.536.016M132.342 86.836c-4.795-.615-9.617-1.579-14.159 1.09M132.342 102.629c-4.742-.385-9.536-2.136-14.159.545M141.599 256.197v8.984h9.805c-.023.122-.047.244-.069.366 1.838-.395 3.677-.789 5.515-1.184M200.957 112.431c-9.076.907-18.152 1.816-27.229 2.726M184.075 207.188c2.179.361 4.425.503 6.521 1.134 5.385 1.618 1.311 5.852 1.885 8.729.446 2.233-1.87 5.021-2.961 7.562M124.173 194.117c-2.743.639-5.486 1.279-8.309 1.937-.341 2.037-.646 3.862-.949 5.688"/><path fill="none" stroke="#000000" stroke-miterlimit="10" d="M142.688 91.736c.363 5.99.919 11.978 1.052 17.973.305 13.611.408 27.228.56 40.842.006.542-.345 1.087-.844 2.562-2.395-.66-5.554-.609-7.157-2.164-3.597-3.488-7.697-3.755-12.124-3.665M202.047 207.188c3.461-6.687 2.61-14.152 3.725-21.253 1.072-6.839 1.426-13.791 2.117-20.951-4.714-3.424-7.316-.345-9.652 3.54M144.866 174.512c.2 3.075.397 6.15.635 9.781-6.858 1.521-13.223 2.932-20.199 4.479.245.611.647 1.616 1.05 2.621"/><path fill="none" stroke="#000000" stroke-miterlimit="10" d="M187.343 167.978c3.822.474 7.947-1.172 11.376 1.182-.697 3.857-1.317 7.297-2.04 11.287 3.141.417 5.889.78 8.637 1.146M187.888 142.927c4.356.363 8.713.729 13.069 1.09M186.799 143.472c-6.717.184-13.434.362-20.147.545M115.459 84.113c-4.174.361-8.35.727-12.524 1.089M200.957 138.026h-11.98M165.561 247.484c4.438 6.279 9.317 12.319 10.893 20.147"/><path fill="none" stroke="#000000" stroke-miterlimit="10" d="M165.016 117.332c.763 14.53 1.521 29.062 2.279 43.532 2.827.453 5.212.837 7.523 1.208v8.728c-2.542-.462-4.538-.826-6.535-1.188M199.868 150.007c-3.449.362-6.924.574-10.333 1.172-1.18.206-2.192 1.369-3.281 2.097M199.868 156.541c-3.993.183-7.987.363-11.98.545M143.777 157.086c.809 5.628 2.591 11.254.642 16.824-2.806-.403-4.991-.718-7.177-1.031M160.659 242.584c6.515-3.479 11.503-8.22 12.479-17.045-1.703-1.137-4.397-2.938-7.306-4.876.605-.91 1.192-1.79 2.114-3.173 3.809 2.538 7.491 4.993 11.29 7.522-1.079 2.182-1.767 3.564-2.637 5.321 2.96 1.956 5.776 3.816 8.664 5.725-1.861 3.105-3.706 6.177-5.549 9.246M187.888 202.83c6.043-.876 10.542 2.573 15.245 5.723-.867 3.906-1.794 8.077-2.72 12.248M196.057 219.712c1.889.707 3.773 1.414 5.753 2.156-1.695 4.764-3.181 8.927-4.663 13.091M105.113 209.364c.905 3.994 1.812 7.985 2.723 11.979M187.888 258.921c-6.308 6.508-13.193 12.104-22.327 14.158M186.799 174.512v-15.581c-3.28-.693-5.997-1.27-8.714-1.845M113.281 170.155c7.617.48 15.231.964 22.887 1.446.192 4.624-2.436 7.274-6.545 6.16-1.659-.45-3.271-1.071-4.905-1.618M121.994 257.831c5.289 7.881 12.536 13.579 21.313 16.665 4.276 1.503 9.36.712 15.457 1.03-.336-3.413-.737-5.926-.765-8.438-.013-1.267.66-2.54 1.023-3.811M188.977 115.154c-.545 8.895-1.075 17.79-1.644 26.683-.115 1.819-.354 3.631-.534 5.446M144.322 206.098c-5.087-.509-10.173-1.019-15.703-1.568-2.229 2.758-5.193 3.675-8.844 1.645-.616-.344-1.774.288-2.684.47M136.153 170.7v-17.972h-8.169M196.057 243.673c-2.542 4.719-5.083 9.439-7.625 14.158M209.126 144.017c-.363 6.534-.726 13.069-1.089 19.604M190.61 92.826c3.469.39 6.937.779 10.892 1.224v33.085"/><path fill="none" stroke="#000000" stroke-miterlimit="10" d="M143.232 254.02c.373-5.394 2.65-9.354 9.104-11.149-.141 2.839-.099 5.384-.426 7.88-.602 4.554-1.417 9.08-2.145 13.618M124.718 181.047c1.089.182 2.208.26 3.264.562 4.182 1.199 8.052 1.311 10.266-2.428 1.667.331 2.783.555 3.897.774M175.362 173.423c3.631.545 7.261 1.089 10.892 1.634M104.023 174.512c-4.434-.014-2.137 3.495-2.018 4.89.771 8.922 2.018 17.803 3.105 26.696M121.45 146.739c-3.54-.506-7.164-1.801-10.347 1.089M179.175 248.029c2.359 3.447 4.72 6.896 7.079 10.347M122.539 148.917c-.13 2.564-.26 5.13-.35 6.889-4.086.536-7.383.971-10.676 1.4.055.161.105.32.158.479-3.82-.198-7.642-.397-11.462-.6M108.381 135.303c-3.449.185-6.896.363-10.348.545M183.531 200.651c.135-1.978.27-3.952.444-6.534h-14.604M126.352 201.74c-1.814-.361-3.632-.725-5.273-1.051-1.972.56-3.793 1.076-5.617 1.596M118.727 117.877c-3.446.362-6.896.727-10.346 1.089M131.252 208.275c-4.354 1.271-8.713 2.541-13.069 3.812M184.62 183.77c-5.445-1.634-10.894-3.268-16.337-4.898M121.45 152.185h-9.803M175.907 163.076c3.268.727 6.534 1.452 9.802 2.179M153.035 244.217c4.689-3.183 7.032.687 8.464 2.021 1.247 4.635 2.109 7.843 2.972 11.051M180.809 221.89c7.436 1.735 12.262 6.703 15.701 13.119.797 1.484.425 3.585.647 5.396.11.916.352 1.814.532 2.724M175.907 169.611c3.086.544 6.172 1.089 9.258 1.634M185.165 197.384c2.904.185 5.809.363 8.713.545M130.163 218.622c-2.904 1.09-5.81 2.179-8.713 3.268M107.291 128.224c-2.904.545-5.809 1.089-8.713 1.636"/><path fill="none" stroke="#000000" stroke-miterlimit="10" d="M106.202 116.243c.363 2.904.665 5.816 1.106 8.71.359 2.356-.353 5.366 3.248 5.993M200.957 118.966h-8.713M119.271 231.146c-1.452 2.904-2.904 5.81-4.356 8.714M122.539 182.681c-2.178.184-4.354.479-6.535.518-2.786.047-4.104.936-2.723 3.841M187.888 191.938c-4.255-1.284-8.509-2.571-13.342-4.032v10.113c-2.917-.274-5.452-.516-8.573-.811.581-11.1 1.111-21.251 1.706-32.627 2.122.235 4.086.454 6.05.673M143.232 149.462c-2.725-.182-5.445-.362-8.168-.545M172.64 118.422c.184 3.812.461 7.622.521 11.438.09 5.627.021 11.254.021 17.426h-5.444M137.787 205.008c.182-1.996.364-3.993.621-6.807h-11.816c.59 2.647.991 4.455 1.395 6.263M176.996 231.692c-2.723 3.812-5.445 7.624-8.168 11.436M134.52 125.501v-2.902c-2.875-.479-5.794-.968-8.713-1.454M124.718 247.484c-.908 2.723-1.813 5.444-2.724 8.169M172.64 240.405c2.117 1.883 4.235 3.765 6.692 5.95-2.466 2.771-5.124 5.764-7.781 8.753M121.994 157.086c.22 1.776.438 3.554.568 4.606-4.062.347-6.943.594-9.826.839M151.401 266.545c.182 2.723.361 5.445.545 8.168M146.5 239.86c-4.172-5.479-7.214-11.443-6.983-18.514.056-1.646 1.31-3.256 2.011-4.882.646-.083 1.29-.167 1.935-.25 1.089 1.089 2.179 2.178 4.339 4.339-3.447 1.146-5.368 1.785-7.289 2.423M118.183 216.444c-2.724 1.449-5.444 2.902-8.169 4.354M175.362 212.088c-.544 2.723-1.089 5.445-1.634 8.168M191.155 215.354c-2.853-1.706-5.229-4.179-9.316-2.909-1.833.566-4.298-.9-6.477-1.445M179.175 226.246c2.541 1.452 5.082 2.905 7.624 4.354M113.826 176.69h7.624M116.004 96.094h-7.623M171.074 57.973c.188 9.262.678 18.518.994 27.775.029.9-.335 1.812-.518 2.722M136.153 234.415c2.902 4.175 5.809 8.351 8.713 12.525M143.232 130.402c-2.541-.545-5.082-1.09-7.624-1.636M108.381 131.491c.363 3.812.728 7.624 1.088 11.436M209.126 138.57h-7.079M197.146 181.592c-.415 1.806-.831 3.607-1.276 5.542 2.879.718 5.617 1.4 8.354 2.082M135.064 253.475c-1.271 2.36-2.542 4.722-3.812 7.08M100.212 149.462c2.359.362 4.72.729 7.079 1.089M119.271 112.976c1.09 8.531 2.179 17.063 3.268 25.597M175.907 204.464c-1.769-4.125-5.791-2.227-8.713-3.268M138.332 206.098v8.713h-12.525M138.876 225.157c-4.538 2.179-9.076 4.354-13.614 6.535M135.608 105.896c2.179-.184 4.355-.363 6.533-.547M197.146 194.661c2.178.907 4.354 1.813 6.532 2.723M199.323 171.245c2.179.182 4.354.362 6.535.544M104.023 95.005c.182 3.086.17 6.198.595 9.25.504 3.625 1.382 7.197 2.146 11.031-2.333.584-4.17 1.042-6.008 1.502M137.242 167.978h6.535M140.51 243.673c-1.812 1.634-3.631 3.27-5.443 4.901M164.471 264.911c.272 2.553.546 5.104.932 8.713h-6.375M202.591 132.035h6.535M126.352 193.572v1.663c-.431-.108-.859-.22-1.291-.326.514-1.214 1.023-2.427 1.255-2.972h7.115M141.599 266c-.544 1.996-1.089 3.994-1.633 5.99M203.136 122.233c1.997.36 3.993.727 5.99 1.089M137.242 157.086h7.12c-.25-1.86-.417-3.109-.585-4.354M174.273 155.452c-.184 1.996-.363 3.994-.545 5.99M138.332 220.256c-1.997.545-3.994 1.09-5.99 1.634M134.52 233.87c-1.995 1.089-3.991 2.179-5.988 3.268M176.996 108.074c-4.317-.088-4.889 2.906-4.236 5.965.521 2.448.834 3.942-2.299 3.838M144.866 212.088c.233-3.992.471-7.98.737-12.523h-3.462M161.748 233.87c-2.904 1.089-5.809 2.179-8.713 3.268M172.095 105.896c-1.997.182-3.993.36-5.989.543M132.886 71.044h5.99M144.866 184.859c.162 1.434.324 2.865.518 4.572-2.646.532-4.85.976-7.052 1.416M115.459 195.206c-.801-1.604-1.602-3.206-2.281-4.565-1.852.408-3.869.854-5.887 1.3M171.551 229.514c-1.813-1.089-3.631-2.178-5.444-3.268M186.254 237.138c1.452 1.815 2.904 3.63 4.356 5.446M169.372 244.762c1.634 1.636 3.268 3.27 4.901 4.901M111.646 106.984c-1.814.545-3.631 1.09-5.444 1.635M187.888 108.074h-5.444M172.095 137.481c-1.634.36-3.267.727-4.898 1.089M171.006 70.499c-1.634-.183-3.268-.362-4.9-.544M142.144 211.543c4.641.301 3.407 3.27 2.725 5.99M166.649 222.435c-1.091 3.085-2.181 6.174-3.27 9.26M111.104 173.423h-4.899M155.758 237.683c.184 1.636.363 3.27.545 4.901M196.057 188.126c-.361 4.539-.608 9.09-1.137 13.609-.278 2.391-1.042 4.725-1.587 7.085M172.64 206.098c2.877-.615 5.722-1.794 8.714-.545M139.421 202.83h4.901M176.996 236.593c1.452 1.271 2.904 2.541 4.354 3.812M110.559 158.72c.873 7.597 1.746 15.189 2.612 22.727-1.883.353-2.792.521-3.702.689M128.529 210.454c.545 1.451 1.089 2.904 1.634 4.354M166.649 197.384v21.238M137.242 162.531h6.535M187.888 126.59h-6.534M117.094 129.857h-4.355M201.502 133.669v9.803M109.469 144.017c.184 4.176.363 8.352.545 12.524M168.283 155.997h4.986c.959-3.21.395-4.725-2.811-4.356M186.254 186.493h3.812"/><path fill="none" stroke="#000000" stroke-miterlimit="10" d="M146.5 226.791c1.768 3.549 3.536 7.099 5.735 11.517.05-.266-.12.646-.289 1.555M185.709 176.146c-.363 4.899-.726 9.803-1.089 14.702M189.521 226.791c-1.452 2.541-2.904 5.083-4.356 7.624M167.738 161.442v3.812M144.866 190.305c.182 2.36.362 4.722.545 7.079M130.708 215.899c.726 3.447 1.452 6.896 2.178 10.347M181.354 217.533c-.906 2.541-1.813 5.083-2.724 7.624M145.956 222.435c.361 1.084.724 2.167 1.188 3.561-1.678.343-2.795.57-3.909.798M155.758 253.475c-3.993.363-7.986.729-11.979 1.092M117.094 251.841c.907 1.271 1.814 2.541 2.725 3.812M174.818 181.047c.181 2.36.36 4.72.544 7.079M95.855 102.629h3.812M174.273 171.789v8.169M103.479 183.226h3.812M110.559 164.71c-1.09.362-2.178.727-3.268 1.089M137.242 188.126c-.183 3.086-.363 6.173-.544 9.258M123.628 215.899c-.907.182-1.815.36-2.723.545M172.095 128.769c-.907-.361-1.812-.727-2.723-1.09M173.185 175.602c-.906-.361-1.813-.727-2.724-1.09M98.578 90.648c-.908.182-1.815.36-2.723.543M136.153 177.235c.361.727.726 1.449 1.089 2.178M201.502 154.363c-.182 1.634-.363 3.268-.545 4.898M174.273 222.979c-.363.729-.728 1.452-1.091 2.181M144.866 241.494c-.544.363-1.089.727-1.634 1.09M127.44 243.673c-.184.362-.387.718-.534 1.093-.062.156-.013.358-.013.541"/></g></svg>