<?xml version="1.0" encoding="utf-8"?>
<!-- Generator: Adobe Illustrator 16.0.0, SVG Export Plug-In . SVG Version: 6.00 Build 0)  -->
<!DOCTYPE svg PUBLIC "-//W3C//DTD SVG 1.1//EN" "http://www.w3.org/Graphics/SVG/1.1/DTD/svg11.dtd">
<svg author="Provart Lab - Bio Analytic Resource, University of Toronto" license="CCBY4.0" version="1.1" xmlns="http://www.w3.org/2000/svg" xmlns:xlink="http://www.w3.org/1999/xlink" x="0px" y="0px" width="300px"
    height="300px" viewBox="0 0 300 300" enable-background="new 0 0 300 300" xml:space="preserve">
	<g id="shapes">
		<g id="shoot">
			<path fill="none" d="M32.312,82.743c0,0-0.297-9.479,28.738-33.182c7.999-5.036,23.405-13.035,34.662-5.036
					c9.48,5.925,34.663,22.811,34.663,22.811c-3.556-3.852-12.443-11.257-16.59-14.221c-3.853-5.036-5.036-7.702-2.963-19.553
					c0.889-8.296,0.889-8.296,0.889-8.296c4.444,3.852,21.035,17.184,21.924,22.516c-0.297,4.444,1.479,9.777,4.146,12.443
					c0.889-4.739,2.075-6.516,2.075-6.516c2.666,5.036,10.962,10.37,9.776,18.072c2.075-1.186,7.999-5.629,7.407-18.96
					c0.592-8.296,6.814-18.368,15.406-20.442c5.924-0.889,13.035,0,12.146,8.887c-1.48,4.147-7.998,15.407-18.072,20.145
					c-3.258,4.147-4.742,5.925-4.742,5.925c4.742-2.963,17.48-8.591,19.852-8.888c3.555-4.147,16.295-15.701,34.07-16.886
					c8.295,0.592,25.479,4.444,27.256,5.333c-3.557,2.074-11.555,12.146-12.74,14.221c3.555,3.258,16.887,12.739,18.664,16.887
					c6.52,2.666,15.998,7.407,17.775,7.999c-2.074,2.075-13.924,16.887-45.92,1.187c-6.221-6.222-17.775-20.443-41.477-18.665
					c-10.664,2.667-25.773,8.888-27.848,10.666c0,1.777,0.889,2.666,3.555,1.777c4.445-1.186,21.629-6.518,32.293,7.11
					c3.26,4.741,5.035,6.221,5.035,6.221c-2.963,1.481-16.885,10.962-28.439-0.888c-3.852-4.741-7.111-8.591-11.258-8.296
					c2.369,3.555,8.592,12.443,11.555,14.22c6.221,1.778,35.551,9.185,38.217,21.331c2.369,9.482,3.258,14.814,2.369,18.369
					c-4.443,2.37-20.441,11.555-37.328-9.479c-5.035-7.407-7.701-11.851-8.592-25.774c-3.258-6.519-4.74-10.369-10.665-15.406
					c-2.963-0.889-7.407,0-7.407,0c-4.741,0.888-11.257,0.296-16.887,7.998c-6.221,6.222-19.255,23.107-39.994,21.034
					c-6.813-2.072-18.665-9.479-13.924-20.738c3.555-6.518,13.035-15.109,14.221-15.999c6.518-2.369,18.072-5.333,34.07,0.592
					c8.59,1.48,21.33,2.963,21.33,2.963c-3.257-2.963-12.442-15.109-34.958-17.776c-10.666,0-20.739,0.889-34.366,10.073
					c-6.813,3.852-9.479,5.925-22.811,5.925C39.422,81.854,36.164,81.854,32.312,82.743z" />
		</g>
		<g id="root">
			<path fill="none" d="M141.409,88.075l5.926-0.37c-0.297,5.036-0.964,21.997-0.964,22.886c-2.075,2.372-7.999,11.259-5.925,18.073
					c2.964,5.629,13.332,18.664,14.22,24.885c0,6.223,0.297,15.704,0.297,17.185c-0.592,5.036-1.777,9.774-4.146,15.403
					c-1.481,4.15-2.074,7.113-0.592,13.037c-0.592,4.443-2.962,12.441-3.258,18.662c-0.593,5.631,0.889,8.592,2.369,11.555
					c1.481,3.852,4.147,13.037,4.444,17.184c-0.297,5.629-2.074,24.588,0.592,31.402c-4.443-7.109-7.407-15.701-5.628-25.477
					c1.186-7.703,1.48-8.889,1.48-8.889c-2.075-2.369-9.48-20.443-8.295-28.738c1.186-8.59,2.666-20.738,2.368-27.551
					c2.964-8.592,9.777-22.516,4.741-32.588c-4.741-9.777-15.406-21.331-14.517-32.886c1.186-6.518,5.333-15.109,6.814-21.034
					C141.631,95.779,141.409,88.075,141.409,88.075z" />
		</g>
	</g>
	<g id="outlines">
		<path fill="none" stroke="#000000" stroke-width="0.5" stroke-miterlimit="10" d="M32.312,82.743c0,0-0.297-9.479,28.738-33.182
					c7.999-5.036,23.405-13.035,34.662-5.036c9.48,5.925,34.663,22.811,34.663,22.811c-3.556-3.852-12.443-11.257-16.59-14.221
					c-3.853-5.036-5.036-7.702-2.963-19.553c0.889-8.296,0.889-8.296,0.889-8.296c4.444,3.852,21.035,17.184,21.924,22.516
					c-0.297,4.444,1.479,9.777,4.146,12.443c0.889-4.739,2.075-6.516,2.075-6.516c2.666,5.036,10.962,10.37,9.776,18.072
					c2.075-1.186,7.999-5.629,7.407-18.96c0.592-8.296,6.814-18.368,15.406-20.442c5.924-0.889,13.035,0,12.146,8.887
					c-1.48,4.147-7.998,15.407-18.072,20.145c-3.258,4.147-4.742,5.925-4.742,5.925c4.742-2.963,17.48-8.591,19.852-8.888
					c3.555-4.147,16.295-15.701,34.07-16.886c8.295,0.592,25.479,4.444,27.256,5.333c-3.557,2.074-11.555,12.146-12.74,14.221
					c3.555,3.258,16.887,12.739,18.664,16.887c6.52,2.666,15.998,7.407,17.775,7.999c-2.074,2.075-13.924,16.887-45.92,1.187
					c-6.221-6.222-17.775-20.443-41.477-18.665c-10.664,2.667-25.773,8.888-27.848,10.666c0,1.777,0.889,2.666,3.555,1.777
					c4.445-1.186,21.629-6.518,32.293,7.11c3.26,4.741,5.035,6.221,5.035,6.221c-2.963,1.481-16.885,10.962-28.439-0.888
					c-3.852-4.741-7.111-8.591-11.258-8.296c2.369,3.555,8.592,12.443,11.555,14.22c6.221,1.778,35.551,9.185,38.217,21.331
					c2.369,9.482,3.258,14.814,2.369,18.369c-4.443,2.37-20.441,11.555-37.328-9.479c-5.035-7.407-7.701-11.851-8.592-25.774
					c-3.258-6.519-4.74-10.369-10.665-15.406c-2.963-0.889-7.407,0-7.407,0c-4.741,0.888-11.257,0.296-16.887,7.998
					c-6.221,6.222-19.255,23.107-39.994,21.034c-6.813-2.072-18.665-9.479-13.924-20.738c3.555-6.518,13.035-15.109,14.221-15.999
					c6.518-2.369,18.072-5.333,34.07,0.592c8.59,1.48,21.33,2.963,21.33,2.963c-3.257-2.963-12.442-15.109-34.958-17.776
					c-10.666,0-20.739,0.889-34.366,10.073c-6.813,3.852-9.479,5.925-22.811,5.925C39.422,81.854,36.164,81.854,32.312,82.743z"
		/>
		<path fill="none" stroke="#000000" stroke-width="0.5" stroke-miterlimit="10" d="M141.409,88.075l5.926-0.37
					c-0.297,5.036-0.964,21.997-0.964,22.886c-2.075,2.372-7.999,11.259-5.925,18.073c2.964,5.629,13.332,18.664,14.22,24.885
					c0,6.223,0.297,15.704,0.297,17.185c-0.592,5.036-1.777,9.774-4.146,15.403c-1.481,4.15-2.074,7.113-0.592,13.037
					c-0.592,4.443-2.962,12.441-3.258,18.662c-0.593,5.631,0.889,8.592,2.369,11.555c1.481,3.852,4.147,13.037,4.444,17.184
					c-0.297,5.629-2.074,24.588,0.592,31.402c-4.443-7.109-7.407-15.701-5.628-25.477c1.186-7.703,1.48-8.889,1.48-8.889
					c-2.075-2.369-9.48-20.443-8.295-28.738c1.186-8.59,2.666-20.738,2.368-27.551c2.964-8.592,9.777-22.516,4.741-32.588
					c-4.741-9.777-15.406-21.331-14.517-32.886c1.186-6.518,5.333-15.109,6.814-21.034C141.631,95.779,141.409,88.075,141.409,88.075z"
		/>
		<path fill="none" stroke="#000000" stroke-width="0.5" stroke-miterlimit="10" d="M154.963,170.733
					c1.777,1.097,6.734,5.222,6.514,13.556c-0.564,8.734-0.18,14.146,3.377,15.92c1.898,1.186,3.441,8.916,2.848,14.26
					M165.225,274.271c-1.693-1.129-1.789-4.078-1.861-6.449c-0.025-0.771-3.076-10.326-3.09-16.078
					c-0.943-5.35-5.518-8.453-5.715-8.584l-1.43-0.656 M157.768,296.157c0.012-0.949,2.316-4.767-3.598-18.751 M141.927,214.873
					c-0.37,0.279-10.747,8.924-8.58,18.85l0.21,0.93c1.705,7.615,3.05,13.629-2.185,22.723 M134.468,126.295
					c-0.292,0.336-8.002,9.325-6.134,17.726c0.563,1.851,1.428,3.712,2.261,5.517c2.386,5.142,4.641,9.997,1.373,15.715
					M146.371,110.591c0.908,2.854,2.885,11.63,3.575,16.205c1.812,7.251,3.714,8.697,6.921,10.621 M221.328,50.154
					c-0.008,0-0.018,0-0.025,0c-3.783,0-4.939-1.279-9.457-0.961c-5.85,0.854-9.248,4.076-10.963,4 M137.779,60.226
					c0.09,4.005-0.679,9.5,1.657,12.539c0.135,0.179,0.499,0.685,0.499,0.685c-0.232-0.197-8.359-5.37-12.573-9.083 M181.627,58.448
					c6.408-2.405,15.203-4.091,19.85-3.85c13.383,0.072,26.936,5.834,28.738,6.517 M150.223,77.41c2.268-3.187,2.74-4.89,11.553-10.074
					" />
		<path fill="none" stroke="#000000" stroke-width="0.5" stroke-miterlimit="10" d="M183.387,128.197
					c-1.523-7.612-15.965-20.398-16.578-20.935" />
		<path fill="none" stroke="#000000" stroke-width="0.5" stroke-miterlimit="10" d="M177.432,91.054
					c-1.594-4.785-11.926-7.146-13.1-7.401" />
		<path fill="none" stroke="#000000" stroke-width="0.5" stroke-miterlimit="10" d="M110.136,88.466
					c-9.948,1.226-23.813,9.955-24.397,10.324" />
		<path fill="none" stroke="#000000" stroke-width="0.5" stroke-miterlimit="10" d="M125.086,87.187
					c-11.777-0.59-28.96,15.263-29.685,15.938" />
		<path fill="none" stroke="#000000" stroke-width="0.5" stroke-miterlimit="10" d="M100.185,56.97
					C75.049,56.097,53.684,69.118,53.47,69.25" />
		<path fill="none" stroke="#000000" stroke-width="0.5" stroke-miterlimit="10" d="M129.149,56.867
					c-2.305-1.845-7.027-10.469-8.651-13.636" />
		<path fill="none" stroke="#000000" stroke-width="0.5" stroke-miterlimit="10" d="M146.076,72.671l0.001-0.647
					c0.009-1.656,0.017-3.368-0.562-4.971c-0.439-1.22-1.138-2.212-1.813-3.171c-0.444-0.631-0.904-1.285-1.286-1.998" />
		<path fill="none" stroke="#000000" stroke-width="0.5" stroke-miterlimit="10" d="M171.502,41.841
					c-2.594,2.727-5.23,5.925-7.42,8.998c-1.396,1.967-2.148,4.05-2.875,6.065c-0.445,1.225-0.861,2.384-1.416,3.526" />
		<path fill="none" stroke="#000000" stroke-width="0.5" stroke-miterlimit="10" d="M165.533,51.87" />
		<path fill="none" stroke="#000000" stroke-width="0.5" stroke-miterlimit="10" d="M162.879,57.508" />
		<path fill="none" stroke="#000000" stroke-width="0.5" stroke-miterlimit="10" d="M237.012,78.811
					c-1.814-1.572-3.764-2.997-5.658-4.373c-1.496-1.097-3.053-2.231-4.51-3.422c-5.984-4.89-20.184-10.586-38.025-8.26" />
	</g>
</svg>