<svg xmlns="http://www.w3.org/2000/svg" viewBox="0 0 300 300" xml:space="preserve" license="CCBY4.0" author="Provart Lab - Bio Analytic Resource, University of Toronto">
  <g id="shapes" fill="none">
    <path d="M32 83s0-10 29-33c8-5 23-13 35-5l34 22c-3-4-12-11-16-14-4-5-5-8-3-19l1-9c4 4 21 17 22 23-1 4 1 10 4 12l2-6c3 5 11 10 10 18 2-1 8-6 7-19 1-8 7-19 15-21 6-1 13 0 13 9-2 4-8 16-18 20l-5 6 20-9c3-4 16-15 34-16 8 0 25 4 27 5-4 2-12 12-13 14 4 3 17 13 19 17l18 8c-2 2-14 17-46 1-6-6-18-20-42-18-10 2-26 8-28 10 0 2 1 3 4 2 4-1 22-7 32 7l5 6c-3 2-17 11-28-1-4-4-7-8-11-8 2 4 8 13 11 14 6 2 36 10 38 22 3 9 4 14 3 18-5 2-21 12-38-9-5-8-7-12-8-26-3-7-5-11-11-16h-7c-5 1-12 1-17 8-6 7-19 23-40 21-7-2-19-9-14-20 3-7 13-15 14-16 7-3 18-6 34 0l22 3c-4-3-13-15-35-18-11 0-21 1-35 11-7 3-9 5-23 5l-15 1z" id="shoot"/>
    <path d="M141 88h6l-1 23c-2 2-8 11-6 18 3 5 14 18 15 25v17l-4 15c-2 4-2 7-1 13l-3 19c-1 5 1 8 2 11l5 18c-1 5-2 24 0 31-4-7-7-16-5-26l1-8c-2-3-9-21-8-29 1-9 3-21 2-28 3-8 10-22 5-32s-15-22-14-33l6-21V88z" id="root"/>
  </g>
  <g id="outlines" fill="none" stroke="#000" stroke-width=".5" stroke-miterlimit="10">
    <path d="M32 83s0-10 29-33c8-5 23-13 35-5l34 22c-3-4-12-11-16-14-4-5-5-8-3-19l1-9c4 4 21 17 22 23-1 4 1 10 4 12l2-6c3 5 11 10 10 18 2-1 8-6 7-19 1-8 7-19 15-21 6-1 13 0 13 9-2 4-8 16-18 20l-5 6 20-9c3-4 16-15 34-16 8 0 25 4 27 5-4 2-12 12-13 14 4 3 17 13 19 17l18 8c-2 2-14 17-46 1-6-6-18-20-42-18-10 2-26 8-28 10 0 2 1 3 4 2 4-1 22-7 32 7l5 6c-3 2-17 11-28-1-4-4-7-8-11-8 2 4 8 13 11 14 6 2 36 10 38 22 3 9 4 14 3 18-5 2-21 12-38-9-5-8-7-12-8-26-3-7-5-11-11-16h-7c-5 1-12 1-17 8-6 7-19 23-40 21-7-2-19-9-14-20 3-7 13-15 14-16 7-3 18-6 34 0l22 3c-4-3-13-15-35-18-11 0-21 1-35 11-7 3-9 5-23 5l-15 1z"/>
    <path d="M141 88h6l-1 23c-2 2-8 11-6 18 3 5 14 18 15 25v17l-4 15c-2 4-2 7-1 13l-3 19c-1 5 1 8 2 11l5 18c-1 5-2 24 0 31-4-7-7-16-5-26l1-8c-2-3-9-21-8-29 1-9 3-21 2-28 3-8 10-22 5-32s-15-22-14-33l6-21V88z"/>
    <path d="M155 171c2 1 7 5 6 13 0 9 0 14 4 16 2 1 3 9 3 14m-3 60-2-6-3-16c-1-6-5-9-5-9h-2m5 53c0-1 2-5-4-19m-12-62s-11 9-9 19l1 1c1 7 3 13-3 22m3-131c0 1-8 10-6 18l3 6c2 5 4 10 1 15m14-54 4 16c2 7 4 8 7 10m64-87-9-1c-6 1-9 4-11 4m-63 7c0 4-1 10 1 13h1l-13-9m55-6c6-2 15-4 19-3 14 0 27 5 29 6m-80 16c2-3 3-4 12-10m21 61c-1-7-16-20-16-21m10-16c-1-5-11-7-13-7m-54 4c-10 2-24 10-24 11m39-12c-12 0-29 15-30 16m5-46c-25-1-46 12-47 12m76-12-9-14m26 30v-6l-2-3-2-2m30-20-8 9-3 6-1 3m77 19-6-5-4-3c-6-5-20-11-38-8"/>
  </g>
</svg>