<svg xmlns="http://www.w3.org/2000/svg" viewBox="0 0 300 300"><g id="shapes"><path fill="none" d="M32.312 82.743s-.297-9.479 28.738-33.182c7.999-5.036 23.405-13.035 34.662-5.036 9.48 5.925 34.663 22.811 34.663 22.811-3.556-3.852-12.443-11.257-16.59-14.221-3.853-5.036-5.036-7.702-2.963-19.553l.889-8.296c4.444 3.852 21.035 17.184 21.924 22.516-.297 4.444 1.479 9.777 4.146 12.443.889-4.739 2.075-6.516 2.075-6.516 2.666 5.036 10.962 10.37 9.776 18.072 2.075-1.186 7.999-5.629 7.407-18.96.592-8.296 6.814-18.368 15.406-20.442 5.924-.889 13.035 0 12.146 8.887-1.48 4.147-7.998 15.407-18.072 20.145-3.258 4.147-4.742 5.925-4.742 5.925 4.742-2.963 17.48-8.591 19.852-8.888 3.555-4.147 16.295-15.701 34.07-16.886 8.295.592 25.479 4.444 27.256 5.333-3.557 2.074-11.555 12.146-12.74 14.221 3.555 3.258 16.887 12.739 18.664 16.887 6.52 2.666 15.998 7.407 17.775 7.999-2.074 2.075-13.924 16.887-45.92 1.187-6.221-6.222-17.775-20.443-41.477-18.665-10.664 2.667-25.773 8.888-27.848 10.666 0 1.777.889 2.666 3.555 1.777 4.445-1.186 21.629-6.518 32.293 7.11 3.26 4.741 5.035 6.221 5.035 6.221-2.963 1.481-16.885 10.962-28.439-.888-3.852-4.741-7.111-8.591-11.258-8.296 2.369 3.555 8.592 12.443 11.555 14.22 6.221 1.778 35.551 9.185 38.217 21.331 2.369 9.482 3.258 14.814 2.369 18.369-4.443 2.37-20.441 11.555-37.328-9.479-5.035-7.407-7.701-11.851-8.592-25.774-3.258-6.519-4.74-10.369-10.665-15.406-2.963-.889-7.407 0-7.407 0-4.741.888-11.257.296-16.887 7.998-6.221 6.222-19.255 23.107-39.994 21.034-6.813-2.072-18.665-9.479-13.924-20.738C73.494 90.151 82.974 81.56 84.16 80.67c6.518-2.369 18.072-5.333 34.07.592 8.59 1.48 21.33 2.963 21.33 2.963-3.257-2.963-12.442-15.109-34.958-17.776-10.666 0-20.739.889-34.366 10.073-6.813 3.852-9.479 5.925-22.811 5.925-8.003-.593-11.261-.593-15.113.296z" id="shoot"/><path fill="none" d="M141.409 88.075l5.926-.37c-.297 5.036-.964 21.997-.964 22.886-2.075 2.372-7.999 11.259-5.925 18.073 2.964 5.629 13.332 18.664 14.22 24.885 0 6.223.297 15.704.297 17.185-.592 5.036-1.777 9.774-4.146 15.403-1.481 4.15-2.074 7.113-.592 13.037-.592 4.443-2.962 12.441-3.258 18.662-.593 5.631.889 8.592 2.369 11.555 1.481 3.852 4.147 13.037 4.444 17.184-.297 5.629-2.074 24.588.592 31.402-4.443-7.109-7.407-15.701-5.628-25.477 1.186-7.703 1.48-8.889 1.48-8.889-2.075-2.369-9.48-20.443-8.295-28.738 1.186-8.59 2.666-20.738 2.368-27.551 2.964-8.592 9.777-22.516 4.741-32.588-4.741-9.777-15.406-21.331-14.517-32.886 1.186-6.518 5.333-15.109 6.814-21.034.296-5.035.074-12.739.074-12.739z" id="root"/></g><g id="outlines"><path fill="none" stroke="#000000" stroke-width=".5" stroke-miterlimit="10" d="M32.312 82.743s-.297-9.479 28.738-33.182c7.999-5.036 23.405-13.035 34.662-5.036 9.48 5.925 34.663 22.811 34.663 22.811-3.556-3.852-12.443-11.257-16.59-14.221-3.853-5.036-5.036-7.702-2.963-19.553l.889-8.296c4.444 3.852 21.035 17.184 21.924 22.516-.297 4.444 1.479 9.777 4.146 12.443.889-4.739 2.075-6.516 2.075-6.516 2.666 5.036 10.962 10.37 9.776 18.072 2.075-1.186 7.999-5.629 7.407-18.96.592-8.296 6.814-18.368 15.406-20.442 5.924-.889 13.035 0 12.146 8.887-1.48 4.147-7.998 15.407-18.072 20.145-3.258 4.147-4.742 5.925-4.742 5.925 4.742-2.963 17.48-8.591 19.852-8.888 3.555-4.147 16.295-15.701 34.07-16.886 8.295.592 25.479 4.444 27.256 5.333-3.557 2.074-11.555 12.146-12.74 14.221 3.555 3.258 16.887 12.739 18.664 16.887 6.52 2.666 15.998 7.407 17.775 7.999-2.074 2.075-13.924 16.887-45.92 1.187-6.221-6.222-17.775-20.443-41.477-18.665-10.664 2.667-25.773 8.888-27.848 10.666 0 1.777.889 2.666 3.555 1.777 4.445-1.186 21.629-6.518 32.293 7.11 3.26 4.741 5.035 6.221 5.035 6.221-2.963 1.481-16.885 10.962-28.439-.888-3.852-4.741-7.111-8.591-11.258-8.296 2.369 3.555 8.592 12.443 11.555 14.22 6.221 1.778 35.551 9.185 38.217 21.331 2.369 9.482 3.258 14.814 2.369 18.369-4.443 2.37-20.441 11.555-37.328-9.479-5.035-7.407-7.701-11.851-8.592-25.774-3.258-6.519-4.74-10.369-10.665-15.406-2.963-.889-7.407 0-7.407 0-4.741.888-11.257.296-16.887 7.998-6.221 6.222-19.255 23.107-39.994 21.034-6.813-2.072-18.665-9.479-13.924-20.738C73.494 90.151 82.974 81.56 84.16 80.67c6.518-2.369 18.072-5.333 34.07.592 8.59 1.48 21.33 2.963 21.33 2.963-3.257-2.963-12.442-15.109-34.958-17.776-10.666 0-20.739.889-34.366 10.073-6.813 3.852-9.479 5.925-22.811 5.925-8.003-.593-11.261-.593-15.113.296z"/><path fill="none" stroke="#000000" stroke-width=".5" stroke-miterlimit="10" d="M141.409 88.075l5.926-.37c-.297 5.036-.964 21.997-.964 22.886-2.075 2.372-7.999 11.259-5.925 18.073 2.964 5.629 13.332 18.664 14.22 24.885 0 6.223.297 15.704.297 17.185-.592 5.036-1.777 9.774-4.146 15.403-1.481 4.15-2.074 7.113-.592 13.037-.592 4.443-2.962 12.441-3.258 18.662-.593 5.631.889 8.592 2.369 11.555 1.481 3.852 4.147 13.037 4.444 17.184-.297 5.629-2.074 24.588.592 31.402-4.443-7.109-7.407-15.701-5.628-25.477 1.186-7.703 1.48-8.889 1.48-8.889-2.075-2.369-9.48-20.443-8.295-28.738 1.186-8.59 2.666-20.738 2.368-27.551 2.964-8.592 9.777-22.516 4.741-32.588-4.741-9.777-15.406-21.331-14.517-32.886 1.186-6.518 5.333-15.109 6.814-21.034.296-5.035.074-12.739.074-12.739z"/><path fill="none" stroke="#000000" stroke-width=".5" stroke-miterlimit="10" d="M154.963 170.733c1.777 1.097 6.734 5.222 6.514 13.556-.564 8.734-.18 14.146 3.377 15.92 1.898 1.186 3.441 8.916 2.848 14.26m-2.477 59.802c-1.693-1.129-1.789-4.078-1.861-6.449-.025-.771-3.076-10.326-3.09-16.078-.943-5.35-5.518-8.453-5.715-8.584l-1.43-.656m4.639 53.653c.012-.949 2.316-4.767-3.598-18.751m-12.243-62.533c-.37.279-10.747 8.924-8.58 18.85l.21.93c1.705 7.615 3.05 13.629-2.185 22.723m3.096-131.081c-.292.336-8.002 9.325-6.134 17.726.563 1.851 1.428 3.712 2.261 5.517 2.386 5.142 4.641 9.997 1.373 15.715m14.403-54.662c.908 2.854 2.885 11.63 3.575 16.205 1.812 7.251 3.714 8.697 6.921 10.621m64.461-87.263h-.025c-3.783 0-4.939-1.279-9.457-.961-5.85.854-9.248 4.076-10.963 4m-63.104 7.033c.09 4.005-.679 9.5 1.657 12.539.135.179.499.685.499.685-.232-.197-8.359-5.37-12.573-9.083m54.265-5.919c6.408-2.405 15.203-4.091 19.85-3.85 13.383.072 26.936 5.834 28.738 6.517M150.223 77.41c2.268-3.187 2.74-4.89 11.553-10.074M183.387 128.197c-1.523-7.612-15.965-20.398-16.578-20.935M177.432 91.054c-1.594-4.785-11.926-7.146-13.1-7.401M110.136 88.466c-9.948 1.226-23.813 9.955-24.397 10.324M125.086 87.187c-11.777-.59-28.96 15.263-29.685 15.938M100.185 56.97c-25.136-.873-46.501 12.148-46.715 12.28M129.149 56.867c-2.305-1.845-7.027-10.469-8.651-13.636M146.076 72.671l.001-.647c.009-1.656.017-3.368-.562-4.971-.439-1.22-1.138-2.212-1.813-3.171-.444-.631-.904-1.285-1.286-1.998M171.502 41.841c-2.594 2.727-5.23 5.925-7.42 8.998-1.396 1.967-2.148 4.05-2.875 6.065-.445 1.225-.861 2.384-1.416 3.526M237.012 78.811c-1.814-1.572-3.764-2.997-5.658-4.373-1.496-1.097-3.053-2.231-4.51-3.422-5.984-4.89-20.184-10.586-38.025-8.26"/></g></svg>