<?xml version="1.0" encoding="utf-8"?>
<!-- Generator: Adobe Illustrator 20.1.0, SVG Export Plug-In . SVG Version: 6.00 Build 0)  -->
<svg author="Provart Lab - Bio Analytic Resource, University of Toronto" license="CCBY4.0" version="1.1" id="Layer_1" xmlns="http://www.w3.org/2000/svg" xmlns:xlink="http://www.w3.org/1999/xlink" x="0px" y="0px"
    viewBox="0 0 38.3 57.8" style="enable-background:new 0 0 38.3 57.8;" xml:space="preserve" width="300px" height="300px">
	<style type="text/css">
		.st0 {
			fill: none;
			stroke: #010101;
			stroke-width: 0.5;
			stroke-miterlimit: 10;
		}
	</style>
	<path class="st0" d="M21,57c-4,0.8-8.2,1.7-11-4.2c-2.2-1.7-3.7-5-4.2-7C4,41.7-0.3,36,0.3,23.5c0-3.7,1.5-6.7,3.7-11.8
				c1.7-3.2,3.5-5.3,7.8-9.5c0,0,3.7-3,9.2-1.5c5.2,0.8,14.7,4.5,16.7,13c0.8,5.2,0.2,17.3-0.3,20.5c-1,2.7-2.2,7.2-2.2,8.8
				C34.2,45.8,31.2,54.7,21,57" />
	<path class="st0" d="M34.6,18.1c-0.6-1.3-1.1-2.8-1.7-4.1c-0.6-1.2-1.4-2.3-2.3-3.3c-1.5-1.9-3.3-3.5-5.3-4.7
				c-2.1-1.3-4.5-2.2-7-1.9c-2.5,0.4-4.5,1.2-6.5,2.8c-2,1.8-4.1,3.8-5.6,6.1c-0.7,1.2-1.1,2.5-1.4,3.8C4.6,18.4,4.2,20,4,21.5
				c-0.2,1.5-0.6,3-0.6,4.4c-0.1,1.5,0.1,3,0.2,4.6c0.1,1.4,0.1,2.7,0.5,4c0.3,1.1,0.9,2.5,2.1,2.9c0.5,0.1,0.9,0.1,1.4,0.1
				c0.6,0.1,1.4,0.1,2-0.1c0.4,2.4,2.4,4.2,4.7,4.7c2.7,0.6,5.6-0.9,7.1-3.1l0.2-0.3c0.3-0.4,0.5-0.8,0.8-1.2c0.1,2.2,0.1,4.4,0.3,6.6
				c0.2,1.8,0.4,4.4,2.5,4.8c1.8,0.4,3.6-0.7,4.7-2.1c1.2-1.5,2.2-3.4,3-5.1c1.8-3.6,3.3-7.6,3.7-11.7c0.2-2.1,0.4-4.2,0.1-6.2
				C36.3,21.9,35.5,20,34.6,18.1C34.3,17.6,35.6,20.2,34.6,18.1z M9.5,37.5c0.2-1.3,1.5-4.7,1.7-6c0.2-1.4,0.2-2.9,0.6-4.2
				c0.3-1.3,0.8-2.6,1.3-3.9c0.2-0.6,0.4-1.3,0.7-1.8c0.3-0.5,0.8-1,0.8-1.7 M21.6,24.1c0,0.9-0.1,1.7-0.1,2.6c0,1.2,0.2,2.5,0.4,3.7
				c0.2,1.4,0.4,5.9,0.4,7.3" />
</svg>