<svg id="Layer_1" xmlns="http://www.w3.org/2000/svg" viewBox="0 0 32.5 48.9" width="300" height="300"><style>.st0{fill:none;stroke:#010101;stroke-width:.5;stroke-miterlimit:10}</style><path class="st0" d="M13 1.2s2.3-1.5 4.7-.7c2.7.2 7.2-1 8.7 3 1.2 2.2 3.2 4.2 3.7 7 .8 2.8 2.5 6.5 2.2 11.7-.3 4.2-2 11-3.7 14.5-.8 2.7-3.7 9.3-14.7 12-1.7-.5-6.7-3.4-10.2-11.7C2.5 32.7.2 28 .4 23.7 0 18.8.7 16 3.3 11.5c3.2-4.7 6.2-8 9.7-10.3z" id="Seeds_Stage_7_wo_Siliques"/><path class="st0" d="M27.8 24.3c-.1.8-.2 1.6-.2 2.5v1.1c0 1.5 0 2.9-.5 4.4l-.1.4c-.5 1.3-.8 2.6-1.4 3.9-.5 1.2-1.2 2.7-2.3 3.4-1.7 1-2.3-.9-2.3-2.2-.1-1.9-.2-3.9-.2-5.9-.1-2.1-.4-4.1-1.5-5.9-1.1-1.7-2.4-3.4-3.9-4.8-.7-.7-1.4-1.1-2.3-1.6-.6-.3-1.5-.8-1.4-1.7.3-2.1 3.2-1.6 4.6-1.3 2.6 1.6 7.3 2.8 7.3 6.6h1c0-4.3-4.9-5.6-7.9-7.5h-.1c-.9-.6-1.9-1.3-2.4-2.3-.4-.9-.3-2 .7-2.5 2.3-1.1 4.9.4 6.9 1.5 2 1 3.5 2.5 4.7 4.4 1.4 2.5 1.6 4.9 1.3 7.5-.1.8.1-1.1 0 0z"/></svg>