<?xml version="1.0" encoding="utf-8"?>
<!-- Generator: Adobe Illustrator 20.1.0, SVG Export Plug-In . SVG Version: 6.00 Build 0)  -->
<svg author="Provart Lab - Bio Analytic Resource, University of Toronto" license="CCBY4.0" version="1.1" id="Layer_1" xmlns="http://www.w3.org/2000/svg" xmlns:xlink="http://www.w3.org/1999/xlink" x="0px" y="0px"
    viewBox="0 0 32.6 45.8" style="enable-background:new 0 0 32.6 45.8;" xml:space="preserve" width="300px" height="300px">
	<style type="text/css">
		.st0 {
			fill: none;
			stroke: #010101;
			stroke-width: 0.5;
			stroke-miterlimit: 10;
		}
	</style>
	<path class="st0" d="M0.9,13.9c0,0,0.5-3.7,4.2-6.7c3.3-3.3,6.7-9.3,14.8-6c4.7,2.2,10,7,11.3,12.2c0.5,3.3,1.7,9.2,0.7,14.7
			c-1.2,4.5-2.3,9.7-5.7,12.2c-2.7,2.7-6.7,7.5-14.3,4.2c-3.2-2-5.8-3-8.8-10c-0.8-1.8-2.8-7.2-2.8-10.2C0.2,20.4,0.9,13.9,0.9,13.9z"
	/>
	<path id="embryo" class="st0" d="M27.9,26.4c-0.6,1.3-0.8,2.8-1.3,4.1c-0.5,1.4-1.1,2.8-1.8,4.1c-0.7,1.4-1.5,2.6-2.4,3.9
			c-0.7,1.1-1.5,2.5-2.6,3.3c-1.3-1.5-0.2-3.6,0.7-4.9c1.2-1.6,2.5-3.3,2.4-5.4c-0.1-2-1.6-4.1-0.9-6.2c0.2-0.8,0.8-1.7,1.8-1.7
			c0.6,0,1.3,1.1,1.6,1.5l1.2,1.3l-0.3-1.8c-0.1-0.8,0.7-0.9,1.3-0.7C28.6,24.6,28.3,25.6,27.9,26.4C27.8,26.7,28.1,25.9,27.9,26.4z"
	/>
</svg>