<?xml version="1.0" encoding="utf-8"?>
<!-- Generator: Adobe Illustrator 16.0.0, SVG Export Plug-In . SVG Version: 6.00 Build 0)  -->
<!DOCTYPE svg PUBLIC "-//W3C//DTD SVG 1.1//EN" "http://www.w3.org/Graphics/SVG/1.1/DTD/svg11.dtd">
<svg version="1.1" id="Layer_1" xmlns="http://www.w3.org/2000/svg" xmlns:xlink="http://www.w3.org/1999/xlink" x="0px" y="0px"
	 width="300px" height="300px" viewBox="0 0 300 300" enable-background="new 0 0 300 300" xml:space="preserve">
<path fill="none" stroke="#010101" stroke-miterlimit="10" d="M89.403,112.933c0,0,1.969-13.238,16.54-23.974
	c12.994-11.809,26.382-33.28,58.28-21.47c18.508,7.872,39.378,25.049,44.498,43.655c1.97,11.81,6.693,32.922,2.756,52.603
	c-4.725,16.104-9.057,34.709-22.445,43.654c-10.633,9.663-26.384,26.839-56.312,15.03c-12.6-7.156-22.839-10.734-34.653-35.783
	c-3.151-6.44-11.027-25.765-11.027-36.5C86.647,136.192,89.403,112.933,89.403,112.933z"/>
<path id="embryo" fill="none" stroke="#010101" stroke-miterlimit="10" d="M195.725,157.662c-2.363,4.653-3.148,10.021-5.117,14.672
	c-1.969,5.01-4.333,10.02-7.09,14.672c-2.756,5.01-5.907,9.304-9.451,13.955c-2.755,3.937-5.906,8.946-10.238,11.808
	c-5.119-5.368-0.787-12.88,2.757-17.534c4.727-5.725,9.845-11.807,9.45-19.322c-0.394-7.156-6.301-14.672-3.543-22.187
	c0.788-2.862,3.149-6.082,7.087-6.082c2.363,0,5.12,3.936,6.301,5.367l4.728,4.651l-1.184-6.44c-0.393-2.863,2.758-3.22,5.121-2.505
	C198.482,151.222,197.299,154.801,195.725,157.662C195.33,158.736,196.514,155.873,195.725,157.662z"/>
</svg>
