<svg id="Layer_1" xmlns="http://www.w3.org/2000/svg" viewBox="0 0 32.6 45.8" width="300" height="300"><style>.st0{fill:none;stroke:#010101;stroke-width:.5;stroke-miterlimit:10}</style><path class="st0" d="M.9 13.9s.5-3.7 4.2-6.7c3.3-3.3 6.7-9.3 14.8-6 4.7 2.2 10 7 11.3 12.2.5 3.3 1.7 9.2.7 14.7-1.2 4.5-2.3 9.7-5.7 12.2-2.7 2.7-6.7 7.5-14.3 4.2-3.2-2-5.8-3-8.8-10C2.3 32.7.3 27.3.3 24.3c-.1-3.9.6-10.4.6-10.4z"/><path id="embryo" class="st0" d="M27.9 26.4c-.6 1.3-.8 2.8-1.3 4.1-.5 1.4-1.1 2.8-1.8 4.1-.7 1.4-1.5 2.6-2.4 3.9-.7 1.1-1.5 2.5-2.6 3.3-1.3-1.5-.2-3.6.7-4.9 1.2-1.6 2.5-3.3 2.4-5.4-.1-2-1.6-4.1-.9-6.2.2-.8.8-1.7 1.8-1.7.6 0 1.3 1.1 1.6 1.5l1.2 1.3-.3-1.8c-.1-.8.7-.9 1.3-.7 1 .7.7 1.7.3 2.5-.1.3.2-.5 0 0z"/></svg>