<?xml version="1.0" encoding="utf-8"?>
<!-- Generator: Adobe Illustrator 20.1.0, SVG Export Plug-In . SVG Version: 6.00 Build 0)  -->
<svg author="Provart Lab - Bio Analytic Resource, University of Toronto" license="CCBY4.0" version="1.1" id="Layer_1" xmlns="http://www.w3.org/2000/svg" xmlns:xlink="http://www.w3.org/1999/xlink" x="0px" y="0px"
    viewBox="0 0 32.5 48.9" style="enable-background:new 0 0 32.5 48.9;" xml:space="preserve" width="300px" height="300px">
	<style type="text/css">
		.st0 {
			fill: none;
			stroke: #010101;
			stroke-width: 0.5;
			stroke-miterlimit: 10;
		}
	</style>
	<g id="Seeds_Stage_7_wo_Siliques">
		<path class="st0" d="M13,1.2c0,0,2.3-1.5,4.7-0.7c2.7,0.2,7.2-1,8.7,3c1.2,2.2,3.2,4.2,3.7,7c0.8,2.8,2.5,6.5,2.2,11.7
					c-0.3,4.2-2,11-3.7,14.5c-0.8,2.7-3.7,9.3-14.7,12C12.2,48.2,7.2,45.3,3.7,37c-1.2-4.3-3.5-9-3.3-13.3C0,18.8,0.7,16,3.3,11.5
					C6.5,6.8,9.5,3.5,13,1.2z" />
	</g>
	<path class="st0" d="M27.8,24.3c-0.1,0.8-0.2,1.6-0.2,2.5l0,1.1c0,1.5,0,2.9-0.5,4.4L27,32.7c-0.5,1.3-0.8,2.6-1.4,3.9
				c-0.5,1.2-1.2,2.7-2.3,3.4C21.6,41,21,39.1,21,37.8c-0.1-1.9-0.2-3.9-0.2-5.9c-0.1-2.1-0.4-4.1-1.5-5.9c-1.1-1.7-2.4-3.4-3.9-4.8
				c-0.7-0.7-1.4-1.1-2.3-1.6c-0.6-0.3-1.5-0.8-1.4-1.7c0.3-2.1,3.2-1.6,4.6-1.3c2.6,1.6,7.3,2.8,7.3,6.6l1,0c0-4.3-4.9-5.6-7.9-7.5
				l0,0c0,0,0,0-0.1,0c-0.9-0.6-1.9-1.3-2.4-2.3c-0.4-0.9-0.3-2,0.7-2.5c2.3-1.1,4.9,0.4,6.9,1.5c2,1,3.5,2.5,4.7,4.4
				C27.9,19.3,28.1,21.7,27.8,24.3C27.7,25.1,27.9,23.2,27.8,24.3z" />
</svg>