<svg id="Layer_1" xmlns="http://www.w3.org/2000/svg" viewBox="0 0 38.3 57.8"><style>.st0{fill:none;stroke:#010101;stroke-width:.5;stroke-miterlimit:10}</style><path class="st0" d="M21 57c-4 .8-8.2 1.7-11-4.2-2.2-1.7-3.7-5-4.2-7C4 41.7-.3 36 .3 23.5c0-3.7 1.5-6.7 3.7-11.8 1.7-3.2 3.5-5.3 7.8-9.5 0 0 3.7-3 9.2-1.5 5.2.8 14.7 4.5 16.7 13 .8 5.2.2 17.3-.3 20.5-1 2.7-2.2 7.2-2.2 8.8-1 2.8-4 11.7-14.2 14"/><path class="st0" d="M34.6 18.1c-.6-1.3-1.1-2.8-1.7-4.1-.6-1.2-1.4-2.3-2.3-3.3-1.5-1.9-3.3-3.5-5.3-4.7-2.1-1.3-4.5-2.2-7-1.9-2.5.4-4.5 1.2-6.5 2.8-2 1.8-4.1 3.8-5.6 6.1-.7 1.2-1.1 2.5-1.4 3.8-.2 1.6-.6 3.2-.8 4.7-.2 1.5-.6 3-.6 4.4-.1 1.5.1 3 .2 4.6.1 1.4.1 2.7.5 4 .3 1.1.9 2.5 2.1 2.9.5.1.9.1 1.4.1.6.1 1.4.1 2-.1.4 2.4 2.4 4.2 4.7 4.7 2.7.6 5.6-.9 7.1-3.1l.2-.3c.3-.4.5-.8.8-1.2.1 2.2.1 4.4.3 6.6.2 1.8.4 4.4 2.5 4.8 1.8.4 3.6-.7 4.7-2.1 1.2-1.5 2.2-3.4 3-5.1 1.8-3.6 3.3-7.6 3.7-11.7.2-2.1.4-4.2.1-6.2-.4-1.9-1.2-3.8-2.1-5.7-.3-.5 1 2.1 0 0zM9.5 37.5c.2-1.3 1.5-4.7 1.7-6 .2-1.4.2-2.9.6-4.2.3-1.3.8-2.6 1.3-3.9.2-.6.4-1.3.7-1.8.3-.5.8-1 .8-1.7m7 4.2c0 .9-.1 1.7-.1 2.6 0 1.2.2 2.5.4 3.7.2 1.4.4 5.9.4 7.3"/></svg>