<svg version="1.1" id="Layer_1" xmlns="http://www.w3.org/2000/svg" x="0" y="0" viewBox="0 0 32.6 45.8" style="enable-background:new 0 0 32.6 45.8" xml:space="preserve" width="75" height="75" license="CCBY4.0" author="Provart Lab - Bio Analytic Resource, University of Toronto">
  <style>
    .st0{fill:none;stroke:#010101;stroke-width:.5;stroke-miterlimit:10}
  </style>
  <path class="st0" d="M1 14s0-4 4-7c3-3 7-9 15-6 5 2 10 7 11 12 1 4 2 10 1 15s-2 10-6 12c-2 3-6 8-14 4-3-1-6-2-9-9L0 24l1-10z"/>
  <path id="embryo" class="st0" d="m28 26-1 4a30 30 0 0 1-5 9l-2 3c-2-2 0-4 0-5 2-2 3-3 3-6 0-1-2-4-1-6l2-1 1 1 2 1-1-1 2-1v2c0 1 0 0 0 0z"/>
</svg>