<svg version="1.1" id="Layer_1" xmlns="http://www.w3.org/2000/svg" x="0" y="0" viewBox="0 0 32.5 48.9" style="enable-background:new 0 0 32.5 48.9" xml:space="preserve" width="75" height="75" license="CCBY4.0" author="Provart Lab - Bio Analytic Resource, University of Toronto">
  <style>
    .st0{fill:none;stroke:#010101;stroke-width:.5;stroke-miterlimit:10}
  </style>
  <path class="st0" d="M13 1h5c2 0 7-1 8 3 2 2 4 4 4 7 1 2 3 6 2 11l-3 15c-1 2-4 9-15 12-2-1-7-4-10-12-2-4-4-9-4-13 0-5 1-8 3-12L13 1z" id="Seeds_Stage_7_wo_Siliques"/>
  <path class="st0" d="M28 24v4l-1 4v1l-1 4-3 3c-1 1-2-1-2-2v-6l-2-6-4-5-2-1-1-2c0-2 3-2 4-1 3 1 8 2 8 6h1c0-4-5-5-8-7l-3-3 1-2c2-1 5 0 7 1l5 5 1 7c0 1 0-1 0 0z"/>
</svg>