<svg version="1.1" id="Layer_1" xmlns="http://www.w3.org/2000/svg" x="0" y="0" viewBox="0 0 38.3 57.8" style="enable-background:new 0 0 38.3 57.8" xml:space="preserve" width="75" height="75" license="CCBY4.0" author="Provart Lab - Bio Analytic Resource, University of Toronto">
  <style>
    .st0{fill:none;stroke:#010101;stroke-width:.5;stroke-miterlimit:10}
  </style>
  <path class="st0" d="M21 57c-4 1-8 2-11-4l-4-7c-2-4-6-10-6-22 0-4 2-7 4-12l8-10s4-3 9-1c5 0 15 4 17 13 1 5 0 17-1 20l-2 9c-1 3-4 12-14 14"/>
  <path class="st0" d="m35 18-2-4-2-3-6-5-7-2-6 3-6 6-1 4-1 5-1 4 1 4v5l2 2h4c0 3 2 5 4 5 3 1 6-1 7-3h1v-1l1 6c0 2 0 5 2 5l5-2 3-5 4-12v-6a26 26 0 0 0-2-6zM10 38l1-6 1-5 1-4 1-1 1-2m7 4v14"/>
</svg>