<svg version="1.1" id="Layer_1" xmlns="http://www.w3.org/2000/svg" x="0" y="0" viewBox="0 0 27.6 74.8" style="enable-background:new 0 0 27.6 74.8" xml:space="preserve" width="75" height="75" license="CCBY4.0" author="Provart Lab - Bio Analytic Resource, University of Toronto">
  <style>
    .st0{fill:none;stroke:#010101;stroke-width:.5;stroke-miterlimit:10}
  </style>
  <path class="st0" d="M10 1s3 4 6 5c2 2 3 3 3 7l1 4c2 1 6 4 6 7l1 8v8c-2 2-3 4-2 6 1 1 2 2 0 5l-1 5c0 1 1 4-1 6l-6 5v8l-4-1-1-7-3-3c-2-2-4-3-4-9 0-4 0-6-2-8s-3-3-2-6l1-9c-1-2-2-6-1-9l2-9c1-2 4-4 4-7l2-4 1-2z" id="Senescing_Leaf"/>
  <path class="st0" d="M14 17v1l-1 3-1 4c0 3 2 4 3 6 2 2 2 5 2 8l-1 8v5s0-2 0 0"/>
</svg>