<svg id="Layer_1" xmlns="http://www.w3.org/2000/svg" viewBox="0 0 27.6 74.8" width="300" height="300"><style>.st0{fill:none;stroke:#010101;stroke-width:.5;stroke-miterlimit:10}</style><path class="st0" d="M10.1.5s3.1 4.4 6 5.9c1.8 1.2 3 2.9 2.6 6.9-.1 1.4.2 2.4 1.2 3.5 1.9 1.6 6.1 3.8 6 7.1-.1 2.5 0 6.1.9 7.9.4 2.3 1 5.5-.1 8.1-1.4 2.5-2.2 4.6-1.6 5.8.8 1.2 1.9 2.6.1 5.6-1.4 2.1-1.6 3.4-1.4 5s1.2 3.8-1.3 5.5c-2.6 1.8-5.3 3.8-5.2 5.2-.2 2.2-.2 7.5-.2 7.5-.8.2-4.1-1-4.1-1 0-2.2.4-5.8-1-6.6-1.2-1.1-2.2-3.4-3.5-3.4-1.2-1.4-3.2-3-3.2-8.1-.1-4.8-.1-6.5-2.7-8.7C1 45.1 0 44.1.6 41c.1-2.6 1.6-7.5 1.4-9.4-.6-2-2.5-5.4-1.4-9s2.1-7.9 2.6-8.4c1.2-1.8 4-3.8 3.8-7 0-1.9 1.1-3.9 1.8-4.4C9.5 2 10.1.5 10.1.5z" id="Senescing_Leaf"/><path class="st0" d="M13.5 16.8v.7c0 1.3 0 2.6-.3 3.9-.3 1.2-.7 2.4-.8 3.6-.1 2.7 1.7 4.1 3 6.2 1.4 2.3 1.8 4.9 1.8 7.6 0 2.8 0 5.4-.7 8.1l-.1.2c-.3 1.4-.5 3-.5 4.9 0 0 0-1.8 0 0"/></svg>