<?xml version="1.0" encoding="utf-8"?>
<!-- Generator: Adobe Illustrator 20.1.0, SVG Export Plug-In . SVG Version: 6.00 Build 0)  -->
<svg version="1.1" author="Provart Lab - Bio Analytic Resource, University of Toronto" license="CCBY4.0" id="Layer_1" xmlns="http://www.w3.org/2000/svg" xmlns:xlink="http://www.w3.org/1999/xlink" x="0px" y="0px"
    viewBox="0 0 27.6 74.8" style="enable-background:new 0 0 27.6 74.8;" xml:space="preserve" width="300px" height="300px">
	<style type="text/css">
		.st0 {
			fill: none;
			stroke: #010101;
			stroke-width: 0.5;
			stroke-miterlimit: 10;
		}
	</style>
	<g id="Senescing_Leaf">
		<path class="st0" d="M10.1,0.5c0,0,3.1,4.4,6,5.9c1.8,1.2,3,2.9,2.6,6.9c-0.1,1.4,0.2,2.4,1.2,3.5c1.9,1.6,6.1,3.8,6,7.1
				c-0.1,2.5,0,6.1,0.9,7.9c0.4,2.3,1,5.5-0.1,8.1c-1.4,2.5-2.2,4.6-1.6,5.8c0.8,1.2,1.9,2.6,0.1,5.6c-1.4,2.1-1.6,3.4-1.4,5
				s1.2,3.8-1.3,5.5c-2.6,1.8-5.3,3.8-5.2,5.2c-0.2,2.2-0.2,7.5-0.2,7.5c-0.8,0.2-4.1-1-4.1-1c0-2.2,0.4-5.8-1-6.6
				c-1.2-1.1-2.2-3.4-3.5-3.4c-1.2-1.4-3.2-3-3.2-8.1c-0.1-4.8-0.1-6.5-2.7-8.7C1,45.1,0,44.1,0.6,41c0.1-2.6,1.6-7.5,1.4-9.4
				c-0.6-2-2.5-5.4-1.4-9s2.1-7.9,2.6-8.4c1.2-1.8,4-3.8,3.8-7c0-1.9,1.1-3.9,1.8-4.4C9.5,2,10.1,0.5,10.1,0.5z" />
	</g>
	<path class="st0" d="M13.5,16.8l0,0.7c0,1.3,0,2.6-0.3,3.9c-0.3,1.2-0.7,2.4-0.8,3.6c-0.1,2.7,1.7,4.1,3,6.2
				c1.4,2.3,1.8,4.9,1.8,7.6c0,2.8,0,5.4-0.7,8.1l-0.1,0.2c-0.3,1.4-0.5,3-0.5,4.9c0,0,0-1.8,0,0" />
</svg>