<svg xmlns="http://www.w3.org/2000/svg" width="75" height="75" viewBox="0 0 300 300" xml:space="preserve" license="CCBY4.0" author="Provart Lab - Bio Analytic Resource, University of Toronto">
  <g id="shapes">
    <path id="shootapexinflorescence" fill="none" d="M92 219c-2 0-10-107-10-107-4-1-24-7-18-22 6-6 16-18 25-11l3 3c3 0 6 0 14-7 7-4 25-13 36-11 10 2 28 4 34 9l9 9c2 0 5 0 4-7s-2-19 5-22l10-5c6 2 27 7 38 18s9 26 3 38c-4 7-9 15-36 15-4 1-8 5-8 10v110c-28 1-45-17-109-20z"/>
  </g>
  <path fill="none" stroke="#000" stroke-width=".5" stroke-miterlimit="10" d="M92 219c-2-5-10-107-10-107-4-1-24-7-18-22 6-6 16-18 25-11l3 3c3 0 6 0 14-7 7-4 25-13 36-11 10 2 28 4 34 9l9 9c2 0 5 0 4-7s-2-19 5-22l10-5c6 2 27 7 38 18s9 26 3 38c-4 7-9 15-36 15-4 1-8 5-8 10v110c-30 1-48-18-109-20z" id="outline"/>
</svg>