<svg xmlns="http://www.w3.org/2000/svg" width="75" height="75" viewBox="0 0 300 300"><g id="shapes"><path id="shootapexinflorescence" fill="none" d="M92.144 218.664c-1.811 0-10.205-106.433-10.205-106.433-3.483-1.229-24.383-6.967-17.622-21.925 5.328-6.762 15.368-18.646 24.384-11.679 2.458 2.254 3.278 3.482 3.278 3.482 3.278-.204 6.352-.409 13.933-7.171 7.582-4.098 24.793-12.704 35.653-10.86 10.86 1.435 28.482 4.303 34.219 9.221 4.917 4.918 9.016 9.016 9.016 9.016 2.049 0 5.327-.614 4.303-7.171-1.229-7.582-1.64-19.261 4.713-22.334 6.146-3.688 10.655-4.508 10.655-4.508 5.122 1.229 26.432 6.352 37.497 17.622 11.064 11.27 8.811 26.228 3.278 37.907-4.508 7.172-9.016 15.163-36.063 15.573-3.893.819-7.786 4.303-7.786 9.426.205 4.098-.409 110.425-.409 110.425C173.334 240 156 222.333 92.144 218.664z"/></g><path fill="none" stroke="#000000" stroke-width=".5" stroke-miterlimit="10" d="M92.144 218.664C90 214.334 81.939 112.231 81.939 112.231c-3.483-1.229-24.383-6.967-17.622-21.925 5.328-6.762 15.368-18.646 24.384-11.679 2.458 2.254 3.278 3.482 3.278 3.482 3.278-.204 6.352-.409 13.933-7.171 7.582-4.098 24.793-12.704 35.653-10.86 10.86 1.435 28.482 4.303 34.219 9.221 4.917 4.918 9.016 9.016 9.016 9.016 2.049 0 5.327-.614 4.303-7.171-1.229-7.582-1.64-19.261 4.713-22.334 6.146-3.688 10.655-4.508 10.655-4.508 5.122 1.229 26.432 6.352 37.497 17.622 11.064 11.27 8.811 26.228 3.278 37.907-4.508 7.172-9.016 15.163-36.063 15.573-3.893.819-7.786 4.303-7.786 9.426.205 4.098-.409 110.425-.409 110.425-30.154.245-48.154-18.088-108.844-20.591z" id="outline"/></svg>