<?xml version="1.0" encoding="utf-8"?>
<!-- Generator: Adobe Illustrator 16.0.0, SVG Export Plug-In . SVG Version: 6.00 Build 0) -->
<!DOCTYPE svg PUBLIC "-//W3C//DTD SVG 1.1//EN" "http://www.w3.org/Graphics/SVG/1.1/DTD/svg11.dtd">
<svg version="1.1" author="Provart Lab - Bio Analytic Resource, University of Toronto" license="CCBY4.0" xmlns="http://www.w3.org/2000/svg" xmlns:xlink="http://www.w3.org/1999/xlink" x="0px" y="0px" width="75px"
    height="75px" viewBox="0 0 300 300" enable-background="new 0 0 300 300" xml:space="preserve">
	<g id="shapes">
		<path id="shootapexinflorescence" fill="none" d="M92.144,218.664c-1.811,0-10.205-106.433-10.205-106.433
                   		c-3.483-1.229-24.383-6.967-17.622-21.925c5.328-6.762,15.368-18.646,24.384-11.679c2.458,2.254,3.278,3.482,3.278,3.482
                   		c3.278-0.204,6.352-0.409,13.933-7.171c7.582-4.098,24.793-12.704,35.653-10.86c10.86,1.435,28.482,4.303,34.219,9.221
                   		c4.917,4.918,9.016,9.016,9.016,9.016c2.049,0,5.327-0.614,4.303-7.171c-1.229-7.582-1.64-19.261,4.713-22.334
                   		c6.146-3.688,10.655-4.508,10.655-4.508c5.122,1.229,26.432,6.352,37.497,17.622c11.064,11.27,8.811,26.228,3.278,37.907
                   		c-4.508,7.172-9.016,15.163-36.063,15.573c-3.893,0.819-7.786,4.303-7.786,9.426c0.205,4.098-0.409,110.425-0.409,110.425
                   		C173.334,240,156,222.333,92.144,218.664z" />
	</g>
	<g id="outline">
		<path fill="none" stroke="#000000" stroke-width="0.5" stroke-miterlimit="10" d="M92.144,218.664
                   		C90,214.334,81.939,112.231,81.939,112.231c-3.483-1.229-24.383-6.967-17.622-21.925c5.328-6.762,15.368-18.646,24.384-11.679
                   		c2.458,2.254,3.278,3.482,3.278,3.482c3.278-0.204,6.352-0.409,13.933-7.171c7.582-4.098,24.793-12.704,35.653-10.86
                   		c10.86,1.435,28.482,4.303,34.219,9.221c4.917,4.918,9.016,9.016,9.016,9.016c2.049,0,5.327-0.614,4.303-7.171
                   		c-1.229-7.582-1.64-19.261,4.713-22.334c6.146-3.688,10.655-4.508,10.655-4.508c5.122,1.229,26.432,6.352,37.497,17.622
                   		c11.064,11.27,8.811,26.228,3.278,37.907c-4.508,7.172-9.016,15.163-36.063,15.573c-3.893,0.819-7.786,4.303-7.786,9.426
                   		c0.205,4.098-0.409,110.425-0.409,110.425C170.834,239.5,152.834,221.167,92.144,218.664z" />
	</g>
</svg>