<?xml version="1.0" encoding="utf-8"?>
<!-- Generator: Adobe Illustrator 20.1.0, SVG Export Plug-In . SVG Version: 6.00 Build 0)  -->
<svg version="1.1" author="Provart Lab - Bio Analytic Resource, University of Toronto" license="CCBY4.0" id="Layer_1" xmlns="http://www.w3.org/2000/svg" xmlns:xlink="http://www.w3.org/1999/xlink" x="0px" y="0px"
    viewBox="0 0 104.4 78.2" style="enable-background:new 0 0 104.4 78.2;" xml:space="preserve" width="300px" height="300px">
	<style type="text/css">
		.st0 {
			fill: none;
			stroke: #010101;
			stroke-width: 0.5;
			stroke-miterlimit: 10;
		}
	</style>
	<g id="Shoot_Apex_Vegetative">
		<path class="st0" d="M7.4,51.9c0,0-11.2-11.6-5.5-23.3c3.8-7.4,9-12.5,9.9-11c0,2,0.3,12.9,0.3,12.9c3.8-1.2,40.1-7.1,64.5-1.4
				c2.3-0.2,6-0.8,5.3-9.8c-1.2-9.8-1.7-13.9-2.5-14.9c-0.8-1.6-1-4.7,4-4.1c3.7,1.4,20.7,8.8,20.7,38.2c-2.3,3.9-12,15.5-11.9,16.3
				c0.2,3.5,0.7,19.4,0.7,19.4C85.2,74.4,8,77.9,8,77.9L7.4,51.9z" />
	</g>
</svg>