<?xml version="1.0" encoding="utf-8"?>
<!-- Generator: Adobe Illustrator 20.1.0, SVG Export Plug-In . SVG Version: 6.00 Build 0)  -->
<svg version="1.1" author="Provart Lab - Bio Analytic Resource, University of Toronto" license="CCBY4.0" id="Layer_1" xmlns="http://www.w3.org/2000/svg" xmlns:xlink="http://www.w3.org/1999/xlink" x="0px" y="0px"
    viewBox="0 0 24.7 118.8" style="enable-background:new 0 0 24.7 118.8;" xml:space="preserve" width="300px" height="300px">
	<style type="text/css">
		.st0 {
			fill: none;
			stroke: #010101;
			stroke-width: 0.5;
			stroke-miterlimit: 10;
		}
	</style>
	<path class="st0" d="M24.4,118.1v-0.2c0-1.5-0.2-2.9-0.4-4.3c-0.1-0.5,0.2,1.4,0,0c-0.2-1.6-0.5-3-0.9-4.5c-0.5-1.5-0.6-3-0.8-4.6
			c-0.5-2.9-1.3-5.8-3.3-8c0.1-1.3,0-2.7,0.1-4l0-0.4c0.4-3.1,0.6-6.2,0.7-9.3c0.1-3-1.1-5.9-1.4-8.9c-0.3-3.1-0.6-6.2-1.1-9.3
			c-0.5-2.9-0.9-5.9-1.5-8.8c-0.3-1.4-0.7-2.8-0.8-4.2c-0.2-1.6-0.2-3.2-0.4-4.8c-0.5-3.1-0.9-6.1-1.3-9.2c-0.4-3.2-1-6.3-1.5-9.5
			c-0.2-1.4-0.4-2.9-0.5-4.3c-0.1-1.5,0-3-0.2-4.4c-0.2-1.3-0.6-2.6-0.8-3.9c-0.3-1.5-0.4-2.9-0.7-4.4C9.2,9.6,8.8,8.2,8.7,6.7
			c-0.1-1.3,0-2.8-0.5-4C7.5,1.1,5.1-0.3,3.3,0.5C1.7,1.1,1.5,3.2,1.4,4.6l0,0.4C1.2,6.4,0.9,7.8,0.8,9.3c-0.1,1.6-0.4,3.1-0.5,4.7
			c-0.2,2.8-0.1,5.6,0.4,8.4c0.6,3.1,1.3,6.1,1.7,9.2c0.5,3.1,0.9,6.2,1.3,9.3c0.9,6,0.8,12.2,1.5,18.3C5.9,65.3,7,71.5,8.4,77.5
			c0.9,3.8,1.8,7.5,2.9,11.3c0.6,1.9,1.1,3.8,1.7,5.7c0.4,1.4,1.1,2.8,2.4,3.5c0.1,3,0.9,5.8,1.4,8.8c0.5,3.1,1,6.3,1.6,9.4l0.5,2.6
			M15.4,98c3.3,2.7,3.3-1,3.5-1.5" />

</svg>