<svg id="Layer_1" xmlns="http://www.w3.org/2000/svg" viewBox="0 0 10.1 64.8"><style>.st0{fill:none;stroke:#010101;stroke-width:.5;stroke-miterlimit:10}</style><path class="st0" d="M2.7 4.6s2.2-8.3 4.2-2c-.2 3-.5 5.3 1.7 8.5 1.2 3.7 1.8 8.8 1 15.3-.4 4.7-.3 9.4-.4 11.6-.7 2.8.3 7.8 0 8.5-1.3 1.3-2.5 3.3-3 4-1.2.8-3.5 4.1-4.7-3.5-.3-4.3.2-14.7 1-19.7-.2-6.3.2-9.7-.3-18.3.1-2.7.5-4.4.5-4.4z"/><path class="st0" d="M5.2 51.2v2c0 2.2.1 4.4-.2 6.6-.1.9-.1 1.7 0 2.6 0 .5.2 1.6-.1 2M3 51.5c.2.8-.4 2.4-.5 3.3-.2 1.1-.1 2.2-.2 3.3-.1 1.2-.4 2.3-.7 3.4-.3 1.1-1.2 2-1.4 3.2m3-59.5c.9.1 1.9 0 2.8 0"/></svg>