<?xml version="1.0" encoding="utf-8"?>
<!-- Generator: Adobe Illustrator 20.1.0, SVG Export Plug-In . SVG Version: 6.00 Build 0)  -->
<svg version="1.1" author="Provart Lab - Bio Analytic Resource, University of Toronto" license="CCBY4.0" id="Layer_1" xmlns="http://www.w3.org/2000/svg" xmlns:xlink="http://www.w3.org/1999/xlink" x="0px" y="0px"
    viewBox="0 0 10.1 64.8" style="enable-background:new 0 0 10.1 64.8;" xml:space="preserve" width="300px" height="300px">
	<style type="text/css">
		.st0 {
			fill: none;
			stroke: #010101;
			stroke-width: 0.5;
			stroke-miterlimit: 10;
		}
	</style>
	<path class="st0" d="M2.7,4.6c0,0,2.2-8.3,4.2-2c-0.2,3-0.5,5.3,1.7,8.5c1.2,3.7,1.8,8.8,1,15.3C9.2,31.1,9.3,35.8,9.2,38
				c-0.7,2.8,0.3,7.8,0,8.5c-1.3,1.3-2.5,3.3-3,4C5,51.3,2.7,54.6,1.5,47c-0.3-4.3,0.2-14.7,1-19.7C2.3,21,2.7,17.6,2.2,9
				C2.3,6.3,2.7,4.6,2.7,4.6z" />
	<path class="st0" d="M5.2,51.2l0,2c0,2.2,0.1,4.4-0.2,6.6c-0.1,0.9-0.1,1.7,0,2.6c0,0.5,0.2,1.6-0.1,2 M3,51.5
				c0.2,0.8-0.4,2.4-0.5,3.3c-0.2,1.1-0.1,2.2-0.2,3.3c-0.1,1.2-0.4,2.3-0.7,3.4c-0.3,1.1-1.2,2-1.4,3.2 M3.2,5.2c0.9,0.1,1.9,0,2.8,0"
	/>
</svg>