<svg id="Layer_1" xmlns="http://www.w3.org/2000/svg" viewBox="0 0 24.7 118.8"><path d="M24.4 118.1v-.2c0-1.5-.2-2.9-.4-4.3-.1-.5.2 1.4 0 0-.2-1.6-.5-3-.9-4.5-.5-1.5-.6-3-.8-4.6-.5-2.9-1.3-5.8-3.3-8 .1-1.3 0-2.7.1-4v-.4c.4-3.1.6-6.2.7-9.3.1-3-1.1-5.9-1.4-8.9-.3-3.1-.6-6.2-1.1-9.3-.5-2.9-.9-5.9-1.5-8.8-.3-1.4-.7-2.8-.8-4.2-.2-1.6-.2-3.2-.4-4.8-.5-3.1-.9-6.1-1.3-9.2-.4-3.2-1-6.3-1.5-9.5-.2-1.4-.4-2.9-.5-4.3-.1-1.5 0-3-.2-4.4-.2-1.3-.6-2.6-.8-3.9-.3-1.5-.4-2.9-.7-4.4-.4-1.5-.8-2.9-.9-4.4-.1-1.3 0-2.8-.5-4-.7-1.6-3.1-3-4.9-2.2-1.6.6-1.8 2.7-1.9 4.1V5C1.2 6.4.9 7.8.8 9.3.7 10.9.4 12.4.3 14c-.2 2.8-.1 5.6.4 8.4.6 3.1 1.3 6.1 1.7 9.2.5 3.1.9 6.2 1.3 9.3.9 6 .8 12.2 1.5 18.3.7 6.1 1.8 12.3 3.2 18.3.9 3.8 1.8 7.5 2.9 11.3.6 1.9 1.1 3.8 1.7 5.7.4 1.4 1.1 2.8 2.4 3.5.1 3 .9 5.8 1.4 8.8.5 3.1 1 6.3 1.6 9.4l.5 2.6M15.4 98c3.3 2.7 3.3-1 3.5-1.5" fill="none" stroke="#010101" stroke-width=".5" stroke-miterlimit="10"/></svg>