<svg version="1.1" id="Layer_1" xmlns="http://www.w3.org/2000/svg" x="0" y="0" viewBox="0 0 24.7 118.8" style="enable-background:new 0 0 24.7 118.8" xml:space="preserve" width="75" height="75" license="CCBY4.0" author="Provart Lab - Bio Analytic Resource, University of Toronto">
  <path d="M24 118v-4c0-1 0 1 0 0l-1-5-1-5c0-2-1-5-3-7v-5l1-9-2-9-1-9-1-9-1-4v-5l-2-9-1-10-1-4v-5l-1-4v-4L9 7 8 3c0-2-3-3-5-2L1 5v4l-1 5 1 8 1 10 2 9 1 18a163 163 0 0 0 6 30l2 5 2 4 2 9 1 9 1 3m-4-21c4 3 4-1 4-1" style="fill:none;stroke:#010101;stroke-width:.5;stroke-miterlimit:10"/>
</svg>