<svg version="1.1" id="Layer_1" xmlns="http://www.w3.org/2000/svg" x="0" y="0" width="75" height="75" viewBox="0 0 612 792" xml:space="preserve" license="CCBY4.0" author="Provart Lab - Bio Analytic Resource, University of Toronto">
  <g id="outline">
    <path fill="#1E1E1E" d="M424 347c-2-46-9-89-10-90-11-61-58-110-74-125l-6-5c-15-3-29 16-33 21-1-3-6-15-16-16a222 222 0 0 0-107 120c-23 63-16 137 23 220 0 0 15 16 37 17 1 2 13 24 24 61 10 36 21 93 14 163v1c1 0 21 7 42 7 10 0 21-1 30-7v-1c0-2-9-187 20-237 22-6 37-20 37-20 16-11 22-48 19-109zM202 471c-39-82-46-156-23-219a221 221 0 0 1 104-118c-8 8-38 42-58 91a255 255 0 0 0 20 231h1a254 254 0 0 1-20-230c22-55 56-90 60-93 10 2 15 15 15 16a432 432 0 0 0-10 304c-15 22-32 33-49 34-23 2-39-15-40-16zm145 242c-24 16-66 2-70 0a448 448 0 0 0-38-224l3-1c18-1 34-12 50-35 27 28 55 28 75 23-28 51-21 229-20 237zm57-257s-15 13-36 19c-19 5-48 6-76-23 0-2-14-37-20-91-6-51-5-129 30-212l10-12c5-5 13-11 22-9l5 5c20 35 18 115 12 177-7 66-18 125-18 125 1 0 12-59 19-125 5-60 8-138-11-175 18 17 62 64 73 123 0 0 7 43 9 89 2 42 1 95-19 109z"/>
    <path d="M318 722c-22 0-41-8-42-8v-1a447 447 0 0 0-39-224c-21-1-36-17-36-17h-1c-38-83-46-157-22-220a223 223 0 0 1 107-121h1c9 2 14 11 16 16 4-6 15-21 29-21l3 1h1l5 5c15 14 63 63 75 125 0 1 7 44 10 90 3 62-4 99-20 110 0 0-15 13-36 19-29 50-21 235-21 237v1c-8 5-18 8-30 8zm-40-9c3 1 21 7 40 7 11 0 21-2 28-7 0-11-7-185 20-236l-19 2c-20 0-39-8-55-25-15 22-32 34-50 35h-2a449 449 0 0 1 38 224zm-1 0zm70 0zm21-238-1 1c-28 51-20 229-20 237 0-2-8-187 21-238h-1 1zm-91 238zm-39-225v1-1h1a43 43 0 0 0-1 0zm-36-17a56 56 0 0 0 40 16c17-1 34-13 49-34a432 432 0 0 1 9-304c0-2-5-14-14-16-5 5-38 39-59 93a253 253 0 0 0 19 229v1l-1 1h-1a255 255 0 0 1-20-231c19-47 46-79 57-90a225 225 0 0 0-102 116c-23 63-15 137 23 219zm-1 0s11 12 28 16c-16-4-27-15-28-16zm91-18a383 383 0 0 1 0-1v1zm1-1a74 74 0 0 0 75 22c21-6 36-19 36-19 19-13 21-66 19-108-3-46-10-89-10-89-10-56-51-102-70-121 18 38 15 115 9 173-6 67-18 125-18 126h-2v-1s12-60 18-126c6-61 9-141-11-176l-5-4-3-1c-8 0-14 5-19 10-6 5-10 11-10 11a430 430 0 0 0-9 303zM169 286zm255 64c2 41 0 93-19 106 15-11 22-47 19-106zm-198 67 19 39-19-39zm107 18zm-63-285c-13 16-31 42-44 75a254 254 0 0 0 0 1c13-34 31-60 44-76zm-40 23zm71-24 10-12c5-4 12-10 20-10l3 1-3-1c-14 0-27 17-29 21l-1 1zm-15-17c9 2 14 14 15 16-1-4-6-14-15-16l-2 2 1-2h1zm53 0 1 2-1-1v-1zm-5-4z"/>
  </g>
  <g id="anthers" fill="none">
    <path d="M242 487c17-1 34-12 49-34-1-4-14-39-20-92-6-51-5-129 30-212 0-1-5-14-15-16-4 3-38 38-60 93a254 254 0 0 0 20 230h-1a255 255 0 0 1-20-231c20-49 50-83 58-91a221 221 0 0 0-104 118c-23 63-16 137 23 219 1 1 17 18 40 16z"/>
    <path d="M414 258c-11-59-55-106-73-123 19 37 16 115 11 175a1480 1480 0 0 0-1 0c6-62 8-142-12-177l-5-5c-9-2-17 4-22 9l-10 12a431 431 0 0 0-10 303c28 29 57 28 76 23 21-6 36-19 36-19 20-14 21-67 19-109-2-46-9-89-9-89z"/>
  </g>
  <path fill="none" d="M292 453c-16 23-32 34-50 35l-3 1c2 4 14 26 24 61 10 36 21 93 14 163 4 2 46 16 70 0-1-8-8-186 20-237-20 5-48 5-75-23z" id="filament"/>
</svg>