<svg id="Layer_1" xmlns="http://www.w3.org/2000/svg" width="75" height="75" viewBox="0 0 612 792"><g id="outline"><path fill="#1E1E1E" d="M424.132 346.755c-2.403-45.795-9.565-88.907-9.641-89.347-11.519-61.291-58.713-110.176-74.784-125.325v-.001c-3.285-3.097-5.273-4.788-5.386-4.882l-.101-.084-.128-.024c-15.491-2.958-29.579 16.05-32.632 20.5-1.155-3.051-6.117-14.506-15.983-16.021l-.008-.019c-.005.002-.031.014-.063.029l-.004-.004-.013.013c-1.362.643-19.988 9.594-41.937 28.163-20.938 17.714-49.281 48.061-65.401 92.036-23.26 63.451-15.579 137.387 22.83 219.754l.084.127c.159.173 15.2 16.285 36.726 16.853 1.314 2.373 13.384 24.671 23.922 61.593 10.247 35.903 21.09 93.356 14.556 163.172l-.035.376.353.137c.298.116 20.151 7.682 41.046 7.682 10.557 0 21.381-1.933 30.079-7.73l.234-.157-.014-.281c-.087-1.871-8.423-187.432 20.386-237.642.09-.024.185-.049.273-.074 21.338-6.079 36.313-19.15 36.418-19.245 15.99-11.101 22.457-47.974 19.223-109.599zM201.753 471.048c-38.259-82.081-45.92-155.731-22.769-218.9 16.039-43.762 44.246-73.97 65.083-91.605 17.679-14.962 33.183-23.65 39.18-26.762-8.179 8.574-38.021 41.926-57.92 91.503-13.585 33.846-19.944 68.512-18.898 103.036 1.308 43.152 14.251 86.194 38.471 127.933l.865-.502c-24.132-41.585-37.03-84.461-38.336-127.437-1.045-34.381 5.284-68.908 18.811-102.621 21.886-54.545 55.841-89.386 59.511-93.052 10.249 1.936 14.977 15.854 15.024 15.997l.037-.012c-34.761 83.037-35.444 161.3-29.892 212.346 5.756 52.91 19.216 88.303 20.516 91.628-15.436 21.972-32.177 33.697-49.764 34.856-22.544 1.474-38.884-15.316-39.919-16.408zm145.068 242.024c-24.307 15.934-65.386 1.484-69.621-.073 6.475-69.812-4.378-127.268-14.636-163.194-10.024-35.111-21.442-57.055-23.719-61.256h.004c.947 0 1.909-.029 2.879-.094 17.833-1.172 34.765-12.948 50.334-35.007 26.901 27.631 55.214 27.751 74.802 22.59-27.851 50.746-20.406 228.769-20.043 237.034zm57.473-257.51c-.146.13-14.954 13.052-36.075 19.07-19.445 5.538-48.374 6.174-75.79-22.244-.804-2.03-14.654-37.66-20.514-91.528-5.543-50.959-4.859-129.105 29.841-211.925.039-.06 3.962-6.11 9.895-11.68 5.396-5.068 13.604-10.766 22.128-9.207.442.378 2.287 1.976 5.134 4.654 20.519 35.415 17.708 115.684 11.729 176.822-6.49 66.375-18.016 125.125-18.131 125.709l.98.192c.116-.586 11.647-59.375 18.145-125.798 5.846-59.756 8.649-137.768-10.357-174.669 17.751 17.165 61.262 64.251 72.229 122.62.072.43 7.228 43.485 9.627 89.225 2.209 42.118.742 95.166-18.841 108.759z"/><path d="M317.532 721.979c-21.165 0-41.029-7.638-41.228-7.715l-.704-.272.07-.752c6.528-69.736-4.303-127.125-14.539-162.987-10.219-35.804-21.87-57.818-23.742-61.239-21.587-.706-36.644-16.841-36.793-17.005l-.132-.188c-38.504-82.56-46.191-156.625-22.883-220.203 16.158-44.078 44.563-74.493 65.548-92.246 21.698-18.357 40.436-27.465 41.971-28.198l.3-.292.105.102.141-.065.126.193c9.167 1.55 14.106 11.29 15.811 15.431 3.996-5.644 15.664-20.261 29.208-20.261 1.142 0 2.284.108 3.396.32l.257.049.198.168c.02.015 1.999 1.688 5.406 4.9 14.634 13.795 63.286 63.621 74.934 125.597.072.435 7.261 43.903 9.647 89.413 3.244 61.811-3.295 98.83-19.436 110.031-.089.087-15.069 13.19-36.566 19.315l-.079.021c-28.542 50.233-20.304 235.323-20.218 237.189l.027.563-.472.314c-7.775 5.189-17.988 7.817-30.353 7.817zm-39.799-9.318c3.335 1.198 21.31 7.331 39.797 7.331 11.7 0 21.381-2.416 28.778-7.185-.468-10.86-7.457-184.313 19.577-236.004-6.271 1.562-12.56 2.354-18.709 2.354-20.252 0-38.771-8.389-55.054-24.933-15.564 21.871-32.506 33.556-50.363 34.729-.689.045-1.388.074-2.085.087 2.94 5.538 13.806 27.131 23.369 60.626 10.247 35.883 21.099 93.263 14.69 162.995zm-.643.83c.54.199 1.579.571 3.034 1.049-1.388-.456-2.422-.824-3.034-1.049zm70.111-.07l-.105.069c-.48.314-.972.621-1.472.917.536-.317 1.064-.646 1.577-.986zm20.661-238.163l-.561 1.021c-27.815 50.682-20.313 229.196-19.98 236.771l.012.282h.001c-.09-1.917-8.355-187.705 20.451-237.913l.099-.173c-.129.036-.26.072-.39.108l.368-.096zm-91.195 238.075l.035-.38c.776-8.361 1.303-16.551 1.611-24.541-.313 8.111-.851 16.428-1.646 24.921zm-38.672-225.294l.133.24c.038.067.084.151.139.252l-.262-.482h.844c.948 0 1.906-.031 2.847-.093 4.422-.29 8.79-1.241 13.096-2.847-4.303 1.604-8.667 2.555-13.085 2.846-1.232.08-2.486.11-3.712.084zm-35.823-17.277c1.184 1.231 16.089 16.286 36.695 16.286.922 0 1.855-.03 2.773-.091 17.368-1.145 33.932-12.729 49.233-34.426-1.902-4.918-14.816-39.718-20.45-91.507-5.553-51.046-4.879-129.305 29.831-212.363-.502-1.407-5.088-13.526-14.338-15.479-4.596 4.625-37.703 39.089-59.212 92.695-13.501 33.649-19.818 68.108-18.775 102.419 1.304 42.892 14.179 85.689 38.269 127.201l.251.433-1.73 1.004-.251-.433c-24.262-41.811-37.228-84.933-38.539-128.168-1.048-34.593 5.322-69.327 18.934-103.237 18.461-45.993 45.386-77.983 55.953-89.453-7.149 3.912-20.968 12.198-36.425 25.28-20.792 17.597-48.936 47.737-64.938 91.396-23.096 63.02-15.453 136.515 22.719 218.443zm-.836.572l.045.059c.085.086 10.928 11.694 27.32 15.473-15.997-3.711-26.774-14.905-27.311-15.474l-.054-.058zm90.665-18.666l.42.432c16.188 16.627 34.611 25.059 54.757 25.059 2.642 0 5.309-.148 7.988-.442-2.669.292-5.325.438-7.958.438-20.317 0-38.868-8.553-55.139-25.417l-.105-.163c-.595-1.503-14.649-37.45-20.546-91.657-.16-1.47-.314-2.961-.463-4.475.149 1.513.304 3.007.463 4.475 5.729 52.66 18.991 87.682 20.485 91.502l.098.248-.155.219c-.053.076-.106.151-.16.228l.315-.447zm.857-.554c16.058 16.614 34.343 25.039 54.35 25.039 6.86 0 13.883-1.011 20.874-3 21.08-6.01 35.734-18.836 35.88-18.965 19.433-13.494 20.876-66.369 18.673-108.354-2.409-45.901-9.549-88.741-9.621-89.168-10.513-55.943-50.943-101.47-70.015-120.319 17.705 38.086 14.803 114.368 9.134 172.334-6.55 66.964-18.037 125.266-18.151 125.847l-.098.488-1.961-.387.097-.49c.115-.59 11.681-59.774 18.123-125.662 5.967-61.004 8.787-141.121-11.628-176.459-2.711-2.549-4.493-4.1-4.959-4.5-.88-.153-1.783-.23-2.69-.23-7.385 0-14.339 5.076-18.873 9.333-5.798 5.445-9.654 11.339-9.815 11.587-34.624 82.659-35.301 160.7-29.764 211.6 5.792 53.254 19.464 88.81 20.444 91.306zM169.121 286.429c-10.153 55.149.625 117.162 32.213 184.903l-.034-.073c-31.561-67.712-42.328-129.702-32.179-184.83zm254.65 63.097c2.005 41.771.146 93.022-19.192 106.447-.004.003-.029.025-.076.066.043-.037.067-.059.072-.062 15.65-10.865 22.089-46.657 19.196-106.451zm-197.436 67.955c5.215 12.79 11.468 25.497 18.748 38.086-7.28-12.588-13.533-25.294-18.748-38.086zm106.761 17.361c1.097-5.63 11.248-58.635 17.529-120.141-6.205 60.677-16.433 114.459-17.529 120.141zm-63.192-284.868c-12.792 16.062-30.694 42.065-44.113 75.495-13.56 33.782-19.906 68.38-18.862 102.834.234 7.744.845 15.487 1.829 23.217-.983-7.724-1.593-15.456-1.828-23.193-1.047-34.45 5.294-69.044 18.847-102.822 13.432-33.476 31.377-59.517 44.127-75.531zm-39.703 22.592c-15.68 15.528-32.919 36.96-45.589 64.605 12.67-27.647 29.911-49.078 45.589-64.605zm71.133-23.904l-.019.049c.368-.577 4.242-6.419 9.992-11.819 4.665-4.381 11.847-9.604 19.559-9.604 1.013 0 2.022.091 3.003.271l.116.021c-1.044-.198-2.118-.299-3.191-.299-14.076 0-26.559 17.155-28.918 20.594l-.542.787zm-15.749-16.563l.259.049c9.454 1.785 14.297 13.369 15.236 15.861l.004-.001-.09-.239c-1.248-3.297-6.035-14.129-15.441-15.68l-1.378 1.444c.546-.565.958-.981 1.224-1.247l.186-.187zm53.726.297l.033.058c.367.633.729 1.282 1.079 1.944l-.953-1.852c-.035-.033-.07-.067-.104-.1-.02-.016-.038-.033-.055-.05zm-5.03-4.572c.319.276 1.019.886 2.035 1.805-.986-.892-1.677-1.496-2.035-1.805z"/></g><g id="anthers"><path fill="none" d="M241.673 487.456c17.586-1.159 34.328-12.886 49.764-34.856-1.3-3.325-14.76-38.72-20.516-91.628-5.553-51.045-4.869-129.309 29.892-212.346l-.037.012c-.047-.143-4.775-14.062-15.024-15.997-3.67 3.666-37.625 38.507-59.511 93.052-13.527 33.713-19.856 68.24-18.811 102.621 1.306 42.976 14.204 85.852 38.336 127.437l-.865.502c-24.22-41.738-37.164-84.781-38.471-127.933-1.046-34.524 5.312-69.19 18.898-103.036 19.9-49.577 49.741-82.929 57.92-91.503-5.997 3.112-21.5 11.8-39.18 26.762-20.838 17.636-49.044 47.844-65.083 91.605-23.152 63.169-15.49 136.819 22.769 218.9 1.034 1.092 17.374 17.882 39.919 16.408z"/><path fill="none" d="M413.507 257.583c-10.969-58.369-54.479-105.455-72.229-122.62 19.008 36.902 16.203 114.913 10.357 174.669-6.496 66.422-18.027 125.212-18.145 125.798l-.98-.192c.115-.586 11.641-59.334 18.131-125.709 5.979-61.138 8.789-141.407-11.729-176.822-2.847-2.678-4.69-4.276-5.134-4.654-8.522-1.559-16.731 4.138-22.128 9.207-5.932 5.57-9.854 11.62-9.895 11.68-34.7 82.82-35.384 160.966-29.841 211.925 5.86 53.868 19.71 89.497 20.514 91.527 27.416 28.418 56.342 27.782 75.79 22.244 21.121-6.02 35.93-18.94 36.075-19.07 19.583-13.595 21.05-66.642 18.84-108.755-2.4-45.743-9.554-88.799-9.626-89.228z"/></g><path fill="none" d="M292.062 453.448c-15.569 22.059-32.5 33.835-50.334 35.007-.971.062-1.932.094-2.879.094h-.004c2.277 4.201 13.695 26.145 23.719 61.256 10.257 35.928 21.111 93.383 14.636 163.194 4.235 1.559 45.314 16.007 69.621.073-.363-8.267-7.81-186.288 20.043-237.034-19.588 5.161-47.9 5.041-74.802-22.59z" id="filament"/></svg>