<?xml version="1.0" encoding="utf-8"?>
<!-- Generator: Adobe Illustrator 16.0.0, SVG Export Plug-In . SVG Version: 6.00 Build 0) -->
<!DOCTYPE svg PUBLIC "-//W3C//DTD SVG 1.1//EN" "http://www.w3.org/Graphics/SVG/1.1/DTD/svg11.dtd">
<svg version="1.1" author="Provart Lab - Bio Analytic Resource, University of Toronto" license="CCBY4.0" id="Layer_1" xmlns="http://www.w3.org/2000/svg" xmlns:xlink="http://www.w3.org/1999/xlink" x="0px" y="0px"
    width="75px" height="75px" viewBox="0 0 612 792" enable-background="new 0 0 612 792" xml:space="preserve">
	<g id="outline">
		<g>
			<g>
				<path fill="#1E1E1E" d="M424.132,346.755c-2.403-45.795-9.565-88.907-9.641-89.347c-11.519-61.291-58.713-110.176-74.784-125.325
                   				c0,0,0,0,0-0.001c-3.285-3.097-5.273-4.788-5.386-4.882l-0.101-0.084l-0.128-0.024c-15.491-2.958-29.579,16.05-32.632,20.5
                   				c-1.155-3.051-6.117-14.506-15.983-16.021l-0.008-0.019c-0.005,0.002-0.031,0.014-0.063,0.029l-0.004-0.004
                   				c-0.001,0.001-0.011,0.011-0.013,0.013c-1.362,0.643-19.988,9.594-41.937,28.163c-20.938,17.714-49.281,48.061-65.401,92.036
                   				c-23.26,63.451-15.579,137.387,22.83,219.754l0.084,0.127c0.159,0.173,15.2,16.285,36.726,16.853
                   				c1.314,2.373,13.384,24.671,23.922,61.593c10.247,35.903,21.09,93.356,14.556,163.172l-0.035,0.376l0.353,0.137
                   				c0.298,0.116,20.151,7.682,41.046,7.682c10.557,0,21.381-1.933,30.079-7.73l0.234-0.157l-0.014-0.281
                   				c-0.087-1.871-8.423-187.432,20.386-237.642c0.09-0.024,0.185-0.049,0.273-0.074c21.338-6.079,36.313-19.15,36.418-19.245
                   				C420.899,445.253,427.366,408.38,424.132,346.755z M201.753,471.048c-38.259-82.081-45.92-155.731-22.769-218.9
                   				c16.039-43.762,44.246-73.97,65.083-91.605c17.679-14.962,33.183-23.65,39.18-26.762c-8.179,8.574-38.021,41.926-57.92,91.503
                   				c-13.585,33.846-19.944,68.512-18.898,103.036c1.308,43.152,14.251,86.194,38.471,127.933l0.865-0.502
                   				c-24.132-41.585-37.03-84.461-38.336-127.437c-1.045-34.381,5.284-68.908,18.811-102.621
                   				c21.886-54.545,55.841-89.386,59.511-93.052c10.249,1.936,14.977,15.854,15.024,15.997l0.037-0.012
                   				c-34.761,83.037-35.444,161.3-29.892,212.346c5.756,52.91,19.216,88.303,20.516,91.628
                   				c-15.436,21.972-32.177,33.697-49.764,34.856C219.128,488.93,202.788,472.14,201.753,471.048z M346.821,713.072
                   				c-24.307,15.934-65.386,1.484-69.621-0.073c6.475-69.812-4.378-127.268-14.636-163.194
                   				c-10.024-35.111-21.442-57.055-23.719-61.256c0.001,0,0.002,0,0.004,0c0.947,0,1.909-0.029,2.879-0.094
                   				c17.833-1.172,34.765-12.948,50.334-35.007c26.901,27.631,55.214,27.751,74.802,22.59
                   				C339.013,526.784,346.458,704.807,346.821,713.072z M404.294,455.562c-0.146,0.13-14.954,13.052-36.075,19.07
                   				c-19.445,5.538-48.374,6.174-75.79-22.244c-0.804-2.03-14.654-37.66-20.514-91.528c-5.543-50.959-4.859-129.105,29.841-211.925
                   				c0.039-0.06,3.962-6.11,9.895-11.68c5.396-5.068,13.604-10.766,22.128-9.207c0.442,0.378,2.287,1.976,5.134,4.654
                   				c20.519,35.415,17.708,115.684,11.729,176.822c-6.49,66.375-18.016,125.125-18.131,125.709l0.98,0.192
                   				c0.116-0.586,11.647-59.375,18.145-125.798c5.846-59.756,8.649-137.768-10.357-174.669
                   				c17.751,17.165,61.262,64.251,72.229,122.62c0.072,0.43,7.228,43.485,9.627,89.225
                   				C425.344,388.921,423.877,441.969,404.294,455.562z" />
				<path d="M317.532,721.979c-21.165,0-41.029-7.638-41.228-7.715l-0.704-0.272l0.07-0.752
                   				c6.528-69.736-4.303-127.125-14.539-162.987c-10.219-35.804-21.87-57.818-23.742-61.239
                   				c-21.587-0.706-36.644-16.841-36.793-17.005l-0.132-0.188c-38.504-82.56-46.191-156.625-22.883-220.203
                   				c16.158-44.078,44.563-74.493,65.548-92.246c21.698-18.357,40.436-27.465,41.971-28.198l0.3-0.292l0.105,0.102l0.141-0.065
                   				l0.126,0.193c9.167,1.55,14.106,11.29,15.811,15.431c3.996-5.644,15.664-20.261,29.208-20.261c1.142,0,2.284,0.108,3.396,0.32
                   				l0.257,0.049l0.198,0.168c0.02,0.015,1.999,1.688,5.406,4.9c14.634,13.795,63.286,63.621,74.934,125.597
                   				c0.072,0.435,7.261,43.903,9.647,89.413c3.244,61.811-3.295,98.83-19.436,110.031c-0.089,0.087-15.069,13.19-36.566,19.315
                   				l-0.079,0.021c-28.542,50.233-20.304,235.323-20.218,237.189l0.027,0.563l-0.472,0.314
                   				C340.11,719.351,329.897,721.979,317.532,721.979z M277.733,712.661c3.335,1.198,21.31,7.331,39.797,7.331
                   				c11.7,0,21.381-2.416,28.778-7.185c-0.468-10.86-7.457-184.313,19.577-236.004c-6.271,1.562-12.56,2.354-18.709,2.354
                   				c-20.252,0-38.771-8.389-55.054-24.933c-15.564,21.871-32.506,33.556-50.363,34.729c-0.689,0.045-1.388,0.074-2.085,0.087
                   				c2.94,5.538,13.806,27.131,23.369,60.626C273.29,585.549,284.142,642.929,277.733,712.661z M277.09,713.491
                   				c0.54,0.199,1.579,0.571,3.034,1.049C278.736,714.084,277.702,713.716,277.09,713.491z M347.201,713.421l-0.105,0.069
                   				c-0.48,0.314-0.972,0.621-1.472,0.917C346.16,714.09,346.688,713.761,347.201,713.421z M367.862,475.258l-0.561,1.021
                   				c-27.815,50.682-20.313,229.196-19.98,236.771l0.012,0.282c0.001,0,0.001,0,0.001,0c-0.09-1.917-8.355-187.705,20.451-237.913
                   				l0.099-0.173c-0.129,0.036-0.26,0.072-0.39,0.108L367.862,475.258z M276.667,713.333l0.035-0.38
                   				c0.776-8.361,1.303-16.551,1.611-24.541C278,696.523,277.462,704.84,276.667,713.333L276.667,713.333z M237.995,488.039
                   				l0.133,0.24c0.038,0.067,0.084,0.151,0.139,0.252l-0.262-0.482h0.844c0.948,0,1.906-0.031,2.847-0.093
                   				c4.422-0.29,8.79-1.241,13.096-2.847c-4.303,1.604-8.667,2.555-13.085,2.846C240.475,488.035,239.221,488.065,237.995,488.039z
                   				 M202.172,470.762c1.184,1.231,16.089,16.286,36.695,16.286c0.922,0,1.855-0.03,2.773-0.091
                   				c17.368-1.145,33.932-12.729,49.233-34.426c-1.902-4.918-14.816-39.718-20.45-91.507c-5.553-51.046-4.879-129.305,29.831-212.363
                   				c-0.502-1.407-5.088-13.526-14.338-15.479c-4.596,4.625-37.703,39.089-59.212,92.695
                   				c-13.501,33.649-19.818,68.108-18.775,102.419c1.304,42.892,14.179,85.689,38.269,127.201l0.251,0.433l-1.73,1.004l-0.251-0.433
                   				c-24.262-41.811-37.228-84.933-38.539-128.168c-1.048-34.593,5.322-69.327,18.934-103.237
                   				c18.461-45.993,45.386-77.983,55.953-89.453c-7.149,3.912-20.968,12.198-36.425,25.28
                   				c-20.792,17.597-48.936,47.737-64.938,91.396C156.357,315.339,164,388.834,202.172,470.762z M201.336,471.334l0.045,0.059
                   				c0.085,0.086,10.928,11.694,27.32,15.473c-15.997-3.711-26.774-14.905-27.311-15.474L201.336,471.334z M292.001,452.668
                   				l0.42,0.432c16.188,16.627,34.611,25.059,54.757,25.059c2.642,0,5.309-0.148,7.988-0.442c-2.669,0.292-5.325,0.438-7.958,0.438
                   				c-20.317,0-38.868-8.553-55.139-25.417l-0.105-0.163c-0.595-1.503-14.649-37.45-20.546-91.657
                   				c-0.16-1.47-0.314-2.961-0.463-4.475c0.149,1.513,0.304,3.007,0.463,4.475c5.729,52.66,18.991,87.682,20.485,91.502
                   				L292.001,452.668l-0.155,0.219c-0.053,0.076-0.106,0.151-0.16,0.228L292.001,452.668z M292.858,452.114
                   				c16.058,16.614,34.343,25.039,54.35,25.039c6.86,0,13.883-1.011,20.874-3c21.08-6.01,35.734-18.836,35.88-18.965
                   				c19.433-13.494,20.876-66.369,18.673-108.354c-2.409-45.901-9.549-88.741-9.621-89.168
                   				c-10.513-55.943-50.943-101.47-70.015-120.319c17.705,38.086,14.803,114.368,9.134,172.334
                   				c-6.55,66.964-18.037,125.266-18.151,125.847l-0.098,0.488l-1.961-0.387l0.097-0.49c0.115-0.59,11.681-59.774,18.123-125.662
                   				c5.967-61.004,8.787-141.121-11.628-176.459c-2.711-2.549-4.493-4.1-4.959-4.5c-0.88-0.153-1.783-0.23-2.69-0.23
                   				c-7.385,0-14.339,5.076-18.873,9.333c-5.798,5.445-9.654,11.339-9.815,11.587c-34.624,82.659-35.301,160.7-29.764,211.6
                   				C278.206,414.062,291.878,449.618,292.858,452.114z M169.121,286.429c-10.153,55.149,0.625,117.162,32.213,184.903l-0.034-0.073
                   				C169.739,403.547,158.972,341.557,169.121,286.429z M423.771,349.526c2.005,41.771,0.146,93.022-19.192,106.447
                   				c-0.004,0.003-0.029,0.025-0.076,0.066c0.043-0.037,0.067-0.059,0.072-0.062C420.225,445.112,426.664,409.32,423.771,349.526z
                   				 M226.335,417.481c5.215,12.79,11.468,25.497,18.748,38.086l0,0C237.803,442.979,231.55,430.273,226.335,417.481z
                   				 M333.096,434.842L333.096,434.842c1.097-5.63,11.248-58.635,17.529-120.141C344.42,375.378,334.192,429.16,333.096,434.842z
                   				 M269.904,149.974c-12.792,16.062-30.694,42.065-44.113,75.495c-13.56,33.782-19.906,68.38-18.862,102.834
                   				c0.234,7.744,0.845,15.487,1.829,23.217c-0.983-7.724-1.593-15.456-1.828-23.193c-1.047-34.45,5.294-69.044,18.847-102.822
                   				C239.209,192.029,257.154,165.988,269.904,149.974z M230.201,172.566c-15.68,15.528-32.919,36.96-45.589,64.605
                   				C197.282,209.524,214.523,188.093,230.201,172.566z M301.334,148.662l-0.019,0.049c0.368-0.577,4.242-6.419,9.992-11.819
                   				c4.665-4.381,11.847-9.604,19.559-9.604c1.013,0,2.022,0.091,3.003,0.271l0.116,0.021c-1.044-0.198-2.118-0.299-3.191-0.299
                   				c-14.076,0-26.559,17.155-28.918,20.594L301.334,148.662z M285.585,132.099l0.259,0.049c9.454,1.785,14.297,13.369,15.236,15.861
                   				l0.004-0.001l-0.09-0.239c-1.248-3.297-6.035-14.129-15.441-15.68l-1.378,1.444c0.546-0.565,0.958-0.981,1.224-1.247
                   				L285.585,132.099z M339.311,132.396l0.033,0.058c0.367,0.633,0.729,1.282,1.079,1.944l-0.953-1.852
                   				c-0.035-0.033-0.07-0.067-0.104-0.1C339.346,132.43,339.328,132.413,339.311,132.396z M334.281,127.824
                   				c0.319,0.276,1.019,0.886,2.035,1.805C335.33,128.737,334.639,128.133,334.281,127.824z" />
			</g>
		</g>
	</g>
	<g id="anthers">
		<path fill="none" d="M241.673,487.456c17.586-1.159,34.328-12.886,49.764-34.856c-1.3-3.325-14.76-38.72-20.516-91.628
                   		c-5.553-51.045-4.869-129.309,29.892-212.346l-0.037,0.012c-0.047-0.143-4.775-14.062-15.024-15.997
                   		c-3.67,3.666-37.625,38.507-59.511,93.052c-13.527,33.713-19.856,68.24-18.811,102.621c1.306,42.976,14.204,85.852,38.336,127.437
                   		l-0.865,0.502c-24.22-41.738-37.164-84.781-38.471-127.933c-1.046-34.524,5.312-69.19,18.898-103.036
                   		c19.9-49.577,49.741-82.929,57.92-91.503c-5.997,3.112-21.5,11.8-39.18,26.762c-20.838,17.636-49.044,47.844-65.083,91.605
                   		c-23.152,63.169-15.49,136.819,22.769,218.9C202.788,472.14,219.128,488.93,241.673,487.456z" />
		<path fill="none" d="M413.507,257.583c-10.969-58.369-54.479-105.455-72.229-122.62c19.008,36.902,16.203,114.913,10.357,174.669
                   		c-6.496,66.422-18.027,125.212-18.145,125.798l-0.98-0.192c0.115-0.586,11.641-59.334,18.131-125.709
                   		c5.979-61.138,8.789-141.407-11.729-176.822c-2.847-2.678-4.69-4.276-5.134-4.654c-8.522-1.559-16.731,4.138-22.128,9.207
                   		c-5.932,5.57-9.854,11.62-9.895,11.68c-34.7,82.82-35.384,160.966-29.841,211.925c5.86,53.868,19.71,89.497,20.514,91.527
                   		c27.416,28.418,56.342,27.782,75.79,22.244c21.121-6.02,35.93-18.94,36.075-19.07c19.583-13.595,21.05-66.642,18.84-108.755
                   		C420.733,301.068,413.579,258.012,413.507,257.583z" />
	</g>
	<g id="filament">
		<path fill="none" d="M292.062,453.448c-15.569,22.059-32.5,33.835-50.334,35.007c-0.971,0.062-1.932,0.094-2.879,0.094
                   		c-0.001,0-0.002,0-0.004,0c2.277,4.201,13.695,26.145,23.719,61.256c10.257,35.928,21.111,93.383,14.636,163.194
                   		c4.235,1.559,45.314,16.007,69.621,0.073c-0.363-8.267-7.81-186.288,20.043-237.034
                   		C347.276,481.199,318.964,481.079,292.062,453.448z" />
	</g>
</svg>