<svg id="Layer_1" xmlns="http://www.w3.org/2000/svg" viewBox="250 50 430 500" class="st0"><g id="samples"><path d="M547.319 90.517c-.771-.45-1.562-.112-2.054.539.062-.102.033-.083-.088.055.146-.136-.286.171-.26.155-.224.132-.439.223-.65.307-.553.219-1.11.424-1.648.678-.686-.101-1.435.021-2.198.478-.896.533-1.247.644-2.348 1.016-.982.332-1.976.632-2.941 1.006-.87.337-1.602.904-2.061 1.625-.229.005-.459.025-.689.062-1.605.259-3.118.879-4.586 1.582-.656-.439-1.423-.693-2.211-.694.467-.316.926-.643 1.368-.996.598-.478.977-1.009 1.184-1.556.619-.42 1.224-.871 1.846-1.267 1.324-.843 2.565-1.293 3.723-2.427.599-.587.93-1.229 1.084-1.875.961-.719 1.854-1.529 2.708-2.369.59-.258 1.164-.554 1.704-.926.336-.231.605-.524.814-.849.484-.316.95-.665 1.357-1.125.604-.684.441-1.512-.025-2.047-.116-.891-.75-1.701-1.91-1.701-.869 0-1.438.458-1.722 1.062-.365.022-.724.124-1.04.342-1.481 1.021-3.229 1.343-4.902 1.936-.449.159-.842.419-1.148.744-.873.021-1.771.361-2.576 1.151-.766.75-1.991 1.105-2.894 1.679-.937.595-1.85 1.163-2.788 1.706.626-1.771 1.14-3.548 2.039-5.269 1.163-2.226 2.396-4.352 4.176-6.146.702-.708.848-1.533.648-2.27.026-.02.056-.04.08-.062.454-.378.558-.833.457-1.254.006-.1-.013-.191-.034-.284.2-.188.403-.371.601-.566.913-.912-.501-2.327-1.414-1.414-.365.365-.732.727-1.125 1.062-.006.005-.008.014-.014.019-.201.057-.401.158-.591.315-.082.068-.172.126-.256.192-.633-.063-1.303.135-1.89.726-.323.326-.631.67-.936 1.017-1.413.731-2.878 1.403-4.16 2.289-1.838 1.268-3.672 2.869-5.401 4.305-1.608 1.336-2.764 3.01-4.194 4.495 2.289-4.568 5.218-8.775 7.521-13.333.462-.715.953-1.33 1.241-2.16.02-.056.021-.113.036-.169.197-.234.392-.475.572-.728.643-.885.155-2.226-.717-2.736-1.01-.591-2.1-.164-2.734.718.291-.403-.201.217-.286.308-.176.186-.354.368-.522.556-.042.047-.076.094-.115.141-.642.087-1.241.461-1.633 1.243-.16.321-.331.637-.497.955-.115.121-.227.256-.32.422-1.759 3.067-4.693 5.532-6.902 8.284-.341.424-.646.872-.942 1.324-.6.517-1.195 1.014-1.708 1.626-.313.378-.567.779-.814 1.202-.099.167-.201.327-.312.485.221-.318-.299.122.022-.076-.669.412-.943 1.021-.943 1.629-.592.604-1.183 1.207-1.768 1.814-.062-.439-.128-.877-.228-1.311-.02-.087-.053-.16-.079-.239-.137-.664-.252-1.328-.275-2 .268-3.318 1.575-6.088 3.717-9.532 2.003-3.218 3.36-6.506 4.202-10.165.14-.608.018-1.153-.26-1.579-.089-.77-.646-1.321-1.312-1.569.021-.063.042-.126.062-.188.204-.613-.763-.875-.965-.266-.035.107-.071.215-.106.323-.603.064-1.146.407-1.443 1.058-.114.123-.225.261-.316.431-2.596 4.688-6.67 8.34-8.938 13.25-1.189 2.575-2.561 5.052-3.771 7.62-.641 1.354-1.147 3.932-2.293 4.913-.732.628-.795 1.416-.482 2.068-.668.847-1.356 1.68-2.041 2.517-.113-.919-.429-1.837-.845-2.652.001-.089-.003-.177-.001-.267.05-1.895.686-3.629.612-5.539.064-.13.12-.273.161-.432.831-3.151 1.571-6.476 2.188-9.677.454-2.359 1.182-4.937 1.058-7.38.088-.488.17-.978.188-1.483.037-1.021-.37-2.038-.426-3.054-.024-.467-.179-.848-.407-1.146-.057-.211-.102-.425-.163-.636-.058-.192-.14-.356-.229-.506.094-.188.143-.406.077-.665-.056-.227-.079-.458-.125-.688-.104-.535-.731-.835-1.229-.699-.537.148-.783.665-.7 1.183-.823.123-1.578.689-1.716 1.549-.396.229-.687.639-.693 1.232-.028 2.061-.974 4.42-1.407 6.445-.254 1.381-.738 2.684-1.458 3.909-.562.714-1.451 1.166-1.93 1.952-.266.438-.396 1.484-.499 2.648-.125-.316-.279-.613-.462-.886.326-1.25.564-2.527.568-3.88 0-.771-.192-1.409-.498-1.945.121-.217.222-.446.266-.695.357-2.024.479-4.163-.125-6.157-.049-.161-.117-.312-.188-.459.159-1.081.27-2.163.171-3.244-.046-.508-.196-.945-.414-1.319.293-.411.389-.967.085-1.563-.21-.413-.496-.833-.546-1.306-.085-.813-.617-1.5-1.5-1.5-.754 0-1.585.685-1.5 1.5.005.038.015.071.02.109-.773.44-1.169 1.103-1.354 1.879-.546.479-.88 1.208-.79 2.199.004.035.002.068.006.103-.315.255-.542.624-.567 1.084-.026.497-.057 1.006-.082 1.517-.043.084-.084.172-.113.272-1.426 4.606-1.79 9.714-1.928 14.525-.379 1.138-.781 2.279-1.072 3.426.264-3.12.753-6.065.24-9.304-.133-.837-.457-1.47-.896-1.931.016-.084.036-.166.039-.255.043-2.205-.386-4.307-.806-6.461-.485-2.503-.479-4.529-1.649-6.858-.242-.482-.72-.706-1.211-.719-.01-.008-.017-.014-.023-.022-.438-.471-.961-.547-1.419-.393-.679-.125-1.381.168-1.524 1.055-.411 2.52-1.134 4.846-1.312 7.43-.08 1.143-.074 2.31-.043 3.455.008.297.003.751.037 1.149-.058.06-.108.122-.17.18-.527.496-.562 1.333-.171 1.911-.007.198.019.399.102.597-.186.486-.304 1.003-.311 1.544-.229.502-.367 1.053-.372 1.633-.004.329-.021.656-.033.984-.329-.904-.641-1.74-.914-2.497.224-1.002-.299-1.955-.714-2.94-.059-.138-.138-.261-.229-.369.018-.154.016-.295-.055-.425-.595-2.546-.83-5.258-1.718-7.726.015-.071.043-.139.036-.214-.093-1.025-.201-2.035-.918-2.832-.024-.027-.055-.035-.079-.058-.137-.378-.365-.679-.659-.891-.005-.016.001-.032-.005-.047-.096-.269-.146-.513-.151-.797-.036-1.287-2.036-1.291-2 0 .006.207.025.412.055.615-.633.266-1.111.848-1.082 1.76.025.788.007 1.555-.071 2.318-.244.225-.43.521-.523.9-.134.473-.234.952-.309 1.438-.062.327-.059.625-.007.892-.335 1.795-.812 3.577-.578 5.397-.092.087-.188.171-.271.265-.441-.272-.93-.465-1.436-.597-.109-.45-.347-.942-.671-1.417-1.063-1.551-1.07-3.604-1.42-5.388-.314-1.599-.973-3-1.979-4.265-.178-.223-.426-.299-.678-.29-.691-.656-1.479-1.085-2.592-1.191-.817-.078-1.105.703-.882 1.313-.015.022-.032.032-.046.057-.256.512-.278 1.104-.119 1.662.521 1.812.316 3.692.482 5.554.133 1.489.438 2.984.668 4.461.338 2.16.179 4.38.806 6.469.054.178.146.31.252.418.148 1.703.375 3.397.622 5.096.218 1.491.47 2.977.705 4.464.112.709.225 1.418.333 2.128-.022.083-.05.179-.083.3-.225.703-.292 1.356-.242 1.959-.432-.411-.875-.784-1.451-1.073-.678-.901-1.174-1.941-1.738-3.076-.412-.827-1.079-1.495-1.38-2.376-.273-.798-.583-1.558-1.055-2.217-.145-.849-.421-1.646-.896-2.398-.021-.035-.049-.06-.073-.093-.164-1.206-.354-2.398-.978-3.451-.445-4.236-3.196-8.833-5.513-11.735-.211-.265-.442-.589-.685-.696-.085-.93-.719-1.955-1.921-1.955h-.009c-.466 0-.85-.739-1.363-1.088-.048-.032-.099.027-.149.016-.013-.086-.031-.129-.04-.217-.055-.638-1.055-.624-1 .02.08.945.378 1.81.838 2.627-.28.597-.272 1.345.022 1.936-.049.262-.051.55.022.861.851 3.623 1.854 7.063 2.835 10.653.688 2.519 1.766 4.847 2.626 7.288-.113.788.058 1.635.659 2.4.494.631.916 1.323 1.304 2.034.001 1.094.521 2.061 1.132 2.955.058.083.102.17.154.254.031.728.244 1.432.675 2.111.305.48.572.84.809 1.183.274 1.014.809 2.019 1.271 2.856.077.139.165.255.252.373-.276.143-.552.287-.829.429-.514-.482-1.092-.89-1.646-1.328-.175-.138-.333-.287-.491-.437-.742-2.015-1.933-3.581-3.354-5.181-.968-1.091-1.903-2.181-2.741-3.379-.084-.121-.234-.291-.398-.477-.258-.751-.605-1.429-1.039-2.148-.292-.484-.761-.769-1.271-.879-.486-.863-.939-1.749-1.419-2.621-.318-.585-.789-.88-1.286-.962-.337-.382-.708-.738-1.058-1.101-.725-.754-1.445-1.632-2.031-2.499-.228-.337-.528-.604-.871-.775-.54-.715-1.079-1.434-1.658-2.12-1.718-2.033-3.8-3.814-5.938-5.385-.318-.235-.635-.34-.936-.364-1.274-.872-3.581.202-3.127 2.186.529 2.322 2.275 3.818 3.936 5.389 1.848 1.75 2.95 4.229 4.649 6.107.773 1.658 1.694 3.208 2.804 4.669.392.517.803 1.016 1.207 1.519.416 1.614 1.312 3.385 2.543 4.511.004.003.008.005.012.009.525.936 1.104 1.831 1.787 2.654-1.234-.622-2.465-1.254-3.657-1.96-2.203-1.305-3.812-3.292-5.774-4.903-.096-.246-.229-.481-.412-.69-.778-.883-1.841-1.316-2.842-1.875-.298-.166-.621-.242-.943-.252-1.478-1.148-2.709-2.527-4.221-3.634-1.816-1.331-3.928-2.463-5.836-3.677-.083-.052-.164-.084-.245-.124-.489-.622-1.178-1.021-1.912-.952-.63-.56-1.444-.909-2.212-1.225-.505-.208-1.099.221-1.23.699-.158.574.195 1.022.699 1.23.374.154.758.339 1.104.569-.24.569-.26 1.229.122 1.726.771 1.005 1.687 1.847 2.625 2.663.033.112.069.224.125.337.515 1.05 1.451 1.46 2.138 2.359.895 1.174 1.52 2.055 2.771 2.877 1.098.721 2.1 1.233 3.039 2.184.913.922 1.27 1.904 1.479 2.991-.271.276-.446.631-.521 1.013-.078-.03-.153-.065-.231-.094-.156-.286-.394-.548-.746-.753-3.12-1.806-6.817-3.037-10.125-4.5-1.803-.797-3.584-1.415-5.25-2.5-1.405-.916-2.627-2.124-4.125-2.875-.442-.222-.874-.271-1.267-.201-1.034-1.225-3.564-.817-3.555 1.24.008 1.954 1.377 2.64 2.643 3.821.571.533 1.199 1.178 1.495 1.918.279.697.066 1.68.007 2.459-1.675-.492-3.34-1.011-4.972-1.529-.641-.204-1.212-.187-1.708-.033-1.139-.465-2.324-.694-3.557-.878-1.078-.161-2.146.252-2.46 1.397-.262.954.317 2.299 1.397 2.46.247.037.503.074.762.114.166.39.447.74.823.997.524.357 1.125.614 1.733.803.333.402.799.729 1.416.926.774.246 1.568.485 2.355.729.252.434.601.819 1.053 1.094.545.332 1.127.579 1.726.779.123.099.25.196.399.284 1.16.684 2.396 1.146 3.625 1.688 1.096.483 2.014 1.259 3.09 1.774.198.308.449.599.785.851 3.023 2.266 7.413 3.347 10.856 5.001.816.392 1.642.772 2.469 1.149.002.001.003.003.005.005.922.838 1.962 1.203 3.059 1.501.572.47 1.144.936 1.735 1.343 1.779 1.221 3.708 1.667 5.766 2.159.241 1.993 2.237 3.739 4.326 2.278 1.823-1.275 3.262-2.957 5.041-4.277 1.673-1.242 3.458-2.333 5.255-3.391 1.727-.522 3.17-1.506 4.663-2.459 1.362.399 2.915.204 4.271-.968 1.553-1.34 4.535-1.939 6.407-2.748.128-.056.256-.107.385-.161.155.102.322.184.504.23.566.705 1.15 1.403 2.02 1.403 1.412 0 1.41-1.882 2.01-2.926.506-.041.966-.16 1.371-.427.348.567.937 1.016 1.596 1.264.027.112.08.215.146.313.053.452.357.869.945.869.662 0 .979-.525.961-1.038.015-.053.035-.104.038-.159.135-.062.268-.122.391-.212.636-.466 1.209-.985 1.777-1.51.282-.089.551-.213.778-.38.37 1.219 1.185 2.198 2.704 2.457 1.714.291 3.774-.124 5.536-.108 2.369.022 4.693.081 7.016.594.582.128 1.104.085 1.57-.059 1.333.911 3.244 1.207 4.589 1.943.429.235.852.356 1.255.387.898.671 1.991 1.041 2.98.863 2.328 1.781 5.874-.218 8.194-1.705.146.769.18 1.908.572 2.779.425.937 1.488 1.339 2.062 1.977.389.434 1.005.793 1.57.971.03.049.047.083.097.15.898 1.228 2.173 1.249 3.334 2.022.004.002.008.003.012.006.173.979.655 1.889 1.38 2.504-.118.078-.202.205-.191.394.013.23.052.458.062.688.019.348.304.538.633.482.289-.049.573-.098.867-.107.14-.004.236-.063.315-.139.021-.003.043.002.065-.004.976-.262 1.969-.558 2.807-1.137.28-.098.563-.194.848-.291.771.518 1.806.585 2.664.105.325-.183.674-.318 1-.5.152-.086.292-.188.419-.303.09-.044.186-.074.27-.135.275-.199.562-.365.875-.5.439-.19.753-.543.953-.96 3.454-1.424 6.782-3.076 9.858-5.182 1.633-.437 3.225-.954 4.699-1.805.816-.471 1.445-1.118 2.294-1.531.804-.392 1.582-.654 2.322-1.159.252-.17.464-.36.649-.559.31-.084.624-.16.952-.213.896-.146 1.594-.753 2.031-1.526.24-.021.481-.07.719-.162 2.322-.898 4.801-1.442 6.961-2.728.967-.576 1.458-1.384 1.608-2.237.343-.106.643-.319.794-.653.282-.621.441-1.229.422-1.875.115-.21.222-.43.322-.652.271-.229.524-.482.756-.786.487-.655.095-1.677-.548-2.054z" id="Stigma_tissue" fill="none"/><path d="M533 233.114V155.5c0-.246-.012-.489-.02-.734.496-3.316.601-6.671.27-10.016-.315-2.348-.631-4.696-.946-7.045-1.124-4.006-3.06-7.538-5.796-10.602-2.08-2.708-4.623-4.955-7.633-6.735-4.237-2.482-9.117-3.708-13.988-3.604-1.617-1.034-3.21-1.891-4.973-2.729-.29-.272-.588-.54-.914-.795-8.602-6.739-17.222-9.756-28.194-9.814-4.086-.021-9.093.293-12.275-1.608-1.424.143-2.468 3.772-3.468 2.745-3.706-3.812-6.824-2.016-9.578-1.025-7.353.17-14.414 4.557-19.637 10.204-.314.18-.63.364-.944.541-4.253 2.387-7.641 4.75-11.602 7.826-5.313 4.129-8.366 12.167-10.677 18.315-2.625 6.98-1.677 14.004-.591 21.099-.025.49-.038.982-.034 1.478.21 24.285.083 48.574.864 72.85.184 5.7.478 11.351 1.042 17.025.3 3.017-.647 12.13.565 3.622-.39 2.774-.782 5.547-1.14 8.328-.441 3.451-.119 6.711.657 9.879-.068 1.002-.072 2.018.01 3.047.108 1.359.196 2.72.292 4.08-.352 1.833-.468 3.729-.292 5.67.675 7.451.507 14.904.375 22.375-.081 4.545.041 9.008.326 13.456-.213 1.762-.249 3.522-.106 5.283-.084.672-.173 1.343-.252 2.016-.332 2.845-.488 5.701-.575 8.562-.212 7.047.354 14.08.934 21.111-1.111 6.169-.831 12.749.043 18.901-.479 2.721-.831 5.46-1.14 8.242-.078 1.188-.03 2.372.146 3.551-.194-2.07.559 4.836.916 7.788.081 2.485.002 4.986.084 7.462.034 1.026.123 2.04.262 3.038-.151 2.414-.107 4.85.036 7.256.051.85.198 1.706.368 2.554-.181.688-.361 1.373-.487 2.073-.222 1.231-.219 2.361.312 3.478-.788 3.014 1.688 6.125 4.532 6.423 2.983 2.986 7.203 4.549 11.148 6.002 4.864 1.792 9.606 2.378 14.312 1.437 1.02.438 2.186.568 3.347.313 2.196-.483 4.446-1.458 6.344-2.834 1.697-.546 3.378-1.142 5.069-1.742.521-.188 1.049-.337 1.574-.498.936-.062 2.822-.223 4.1-.08 4.986.559 9.978-.336 14.99-.264 2.456.034 4.907-1.9 7.362-1.789.812.043 1.621-.884 2.434-.817 2.546.434 5.093 4.407 7.578 4.267.966.519 1.964.961 2.983 1.338 2.324 1.548 4.891 1.739 7.605 2.486 3.743 1.029 17.396.101 20.42-1.672.616-.358 1.241-.77 1.866-1.213.03-.003.062 0 .093-.003 1.076-.107 2.166-.195 3.213-.471.35-.092.661-.198.961-.312 1.203-.099 2.213-.475 3.062-1.018 3.68-.474 4.884-4.479 3.606-7.261.294-2.264.062-4.429-.469-6.612.571-3.866 1.212-7.625.995-11.53-.122-2.194-.385-4.384-.702-6.564.707-2.398 1.076-4.892 1.084-7.479 0-1.727-.173-3.439-.505-5.118.034-1.146.017-2.307-.069-3.481.043.315.085.635.128.95-.533-4.53.094-9.057-.054-13.601-.006-.179-.021-.354-.029-.534.142-1.294.27-2.58.417-3.832.612-5.104.626-10.37.683-15.508.196-18.553-.537-37.062.182-55.626.093-2.386-.193-4.705-.786-6.917.65-9.69 1.133-19.391 1.266-29.108.128-9.579.601-19.382-.98-28.866zM494.451 111.63c1.416.418 2.738 1 3.979 1.721-1.213-.547-2.519-1.105-3.979-1.721z" id="Ovary_tissue" fill="none"/></g><g id="outlines"><path fill="none" stroke="#000000" stroke-width=".75" stroke-linecap="round" stroke-linejoin="round" stroke-miterlimit="10" d="M481.754 266.504c-1.734 21.757-1.587 43.562-1.494 65.357.078 18.513-.304 36.986-1.325 55.488-.681 12.346-.527 24.81.185 37.247.229 4.057 1.486 5.664 4.141 7.603 14.479 10.562 29.663 6.909 44.832 2.187 2.961-.923 4.633-3.311 3.848-6.771-.164-.726-.029-1.518-.023-2.275.253-30.905.116-61.82.842-92.714 1.452-61.812.222-123.625.664-185.435.096-13.333-9.973-27.735-22.071-30.989-2.472-.665-5.64.513-8.292 1.416-6.231 2.124-13.915.673-18.346 7.479-.835 1.283-1.911 2.38-1.394 3.84 2.474 6.979 1.128 14.653.729 21.249-.774 12.892.712 25.916-1.948 38.875-1.797 8.75-.343 18.168-.343 27.288v48.958c7.011.783 9.599-5.44 15.11-6.897 1.683.828 2.927 1.82 1.777 5.117-1.785 5.133 1.379 8.301 5.879 10.643 5.031 2.618 7.242-1.153 9.886-3.888 4.136-4.279 6.231-9.581 3.679-15.105-2.829-6.122-9.133-8.396-15.062-10.682-1.381-.531-2.773.488-2.945 1.508-1.791 10.604-10.062 7.897-16.805 8.345M422.476 116.791c-13.544 6.057-21.587 20.874-20.615 36.484.754 12.129.181 24.306.688 36.479.865 20.747.481 41.543.967 62.311 1.135 48.382.541 96.77.752 145.154.038 8.614.458 17.229.744 25.839.062 1.875-.315 3.621 1.433 5.396 7.356 7.459 27.843 13.597 36.383 8.745 8.063-4.583 16.115-4.168 24.49-4.262 4.108-.044 8.277.371 12.157-1.52"/><path fill="none" stroke="#000000" stroke-width=".75" stroke-linecap="round" stroke-linejoin="round" stroke-miterlimit="10" d="M486.312 435.218c-8.03 9.413-13.004 19.829-12.266 32.687.537 9.349.105 18.754.105 28.492h-13.682c0-8.979.305-17.61-.07-26.217-.542-12.47-4.363-23.749-13.607-32.682M455.154 416.219c-2.026-.507-4.028-1.271-6.084-1.472-5.873-.571-10.677-2.278-10.719-9.572-7.804 1.676-13.666 4.876-16.586 11.825-2.387 5.681-.17 12.264 4.471 15.986 3.395 2.724 7.516 2.051 10.575 1.132 3.095-.931 3.926-5.059 4.068-8.773.071-1.811-2.75-3.554.618-5.862 5.942.641 10.081 5.701 15.097 9.017.582.386.079 2.414.079 3.681"/><path fill="none" stroke="#000000" stroke-width=".75" stroke-linecap="round" stroke-linejoin="round" stroke-miterlimit="10" d="M456.675 426.098c.854-10.386-1.046-20.685-.329-31.181.876-12.825-.81-25.813-1.146-38.737-.229-8.75-5.522-13.686-15.997-13.678 2.034 4.436 2.417 8.585-1.48 12.207-2.759 2.564-6.122 2.864-9.128 2.088-5.882-1.52-9.989-14.056-6.884-19.62 3.5-6.268 9.216-8.894 15.964-9.88 3.275 7.894 6.417 9.688 16.722 9.08 0-8.554.035-17.174-.064-25.794-.009-.678.804-1.533-.641-2.374-4.312-2.51-8.377-5.446-12.266-8.033-3.494 2.604-2.186 5.593-2.13 8.125.082 3.73-1.141 6.716-4.69 7.441-2.883.589-6.007 2.136-9.15-.522-4.585-3.877-7.258-11.467-5.254-16.797 2-5.319 11.013-11.867 15.953-11.34 1.961.209 3.965 1.011 2.285 3.74M481.754 335.662c4.888.461 9.467-.505 13.67-3.056 1.077-.655 2.657-1.32 2.946-2.297 1.59-5.376 2.108-5.92 6.165-3.735 14.112 7.592 15.009 16.087 7.549 25.754-2.17 2.812-5.132 4.079-9.095 2.438-4.028-1.666-6.473-3.837-6.065-8.468.176-2.011.029-4.051.029-6.258-6.949-1.724-9.664 5.783-15.199 7.021M467.314 102.351c-.165-13.945 1.172-27.928-1.433-41.815-.577-3.075-.228-6.212-5.248-6.083-2.17 10.75-3.075 21.719-2.221 32.682.277 3.554.146 7.119.529 10.658.448 4.177 1.238 7.827 6.85 5.319M451.354 215.586c-3.854-.091-7.781.494-11.406-1.504-2.157-1.189-6.328-.66-3.998-5.436.273-.563-2.135-2.322-4.355-2.259-10.06.284-17.675 11.6-13.677 20.599 3.254 7.326 7.855 10.542 12.88 8.272 6.054-2.734 6.332-7.948 4.465-13.615 2.414-2.13 4.502-2.104 7.026-.04 2.713 2.22 5.083 5.231 9.065 5.383M484.794 186.708c5.556-1.12 8.604-7.007 14.189-7.687 3.466 1.438 1.075 3.687.929 5.4-.432 4.966 1.816 7.967 6.15 9.907 4.265 1.907 7.192.243 9.918-3.038 7.121-8.58 4.041-19.771-6.883-24.31-1.915-.795-4.009-1.158-6.377-1.82-2.101 10.105-10.772 9.204-17.929 10.907M480.994 375.18c3.546-.76 7.061-1.797 10.646-2.211 4.812-.557 5.841-3.699 5.425-7.771 13.965 2.223 19.256 7.471 18.106 17.58-.655 5.772-4.171 10.066-9.199 11.886-3.063 1.106-6.83-1.322-8.954-4.33-1.553-2.198-2.595-4.696-.938-7.618.479-.845 1.09-2.421-.553-3.844-1.921-1.662-3.892-.249-4.526.266-3.336 2.693-6.05 6.226-10.767 6.685"/><path fill="none" stroke="#000000" stroke-width=".75" stroke-linecap="round" stroke-linejoin="round" stroke-miterlimit="10" d="M454.395 376.7c-5.247 1.057-9.403-3.02-14.438-3.109-.77-.013-1.76-.778-2.245-1.477-4.069-5.863-4.041-5.883-9.917-2.254-9.619 5.938-10.829 14.709-3.924 22.901 3.423 4.063 7.07 3.02 10.734 2.062 3.957-1.03 4.912-4.303 4.686-8.253-.132-2.272-1.192-5.021 1.423-6.833 4.972 1.792 8.354 6.444 13.679 7.6M481.754 307.543c6.407-.349 8.429-8.672 15.126-8.364 2.034 1.04 2.14 3.124 1.496 4.521-2.321 5.029.468 8.889 4.035 10.348 3.246 1.327 7.912 1.364 11.276-1.928 8.359-8.184 5.158-19.803-6.826-25.159-2.271-1.015-4.445-1.591-6.87-1.449-1.695 7.153-8.326 10.744-18.237 9.874M480.233 425.338c3.04-2.024 6.273-3.822 9.043-6.171 1.521-1.291 3.124-1.985 4.583-1.312 1.76.812 1.393 2.402 1.046 4.479-.768 4.591.184 9.648 5.871 10.426 4.644.637 9.275 1.323 11.691-5.797 3.347-9.854 2.78-14.641-6.422-19.821-2.565-1.443-5.438-2.344-8.155-3.483-3.341 7.435-9.88 11.131-17.657 10.278M483.273 225.466c3.932-1.682 7.363-4.088 10.708-6.754 1.634-1.303 3.982-1.615 6.263.105-2.373 4.854-1.8 9.443 2.835 12.662 3.737 2.596 7.896 2.562 11.323-.723 8.894-8.521 5.664-20.561-6.812-25.808-4.694-1.976-4.589-1.945-6.185 3.771-.271.967-1.822 1.971-2.952 2.236-5.027 1.181-10.116 2.099-15.183 3.112M484.794 134.27c4.45-.777 8.833-1.606 12.992-3.652 1.407-.692 3.513-1.154 3.603-2.437.659-9.389 4.89-3.643 8.508-2.336 12.189 4.398 12.677 16.701 5.221 24.309-2.274 2.319-5.354 4.495-9.027 2.33-3.706-2.185-6.957-4.768-6.104-9.855.35-2.086 2.854-4.471-1.482-6.033-5.185.393-7.466 7.737-13.708 7.555M440.715 89.432c-4.939-5.092-5.505-12.208-8.146-18.332-2.077-4.813-4.297-9.039-9.31-11.886 1.5 16.912 9.569 31.649 15.936 46.937M449.075 176.068c-1.445.357-2.278-1.435-3.033-1.392-7.147.42-12.588-1.529-14.017-10.135-4.151 2.612-7.779 4.565-11.036 7.01-8.162 6.127-6.96 18.079 2.271 22.708 3.193 1.602 6.49 1.757 9.104-1.466 1.809-2.231 5.395-3.772 3.009-7.591-1.005-1.608-1.095-3.036.017-4.579 1.796-2.495 3.889-.58 5.271.114 7.99 4.009 12.396 9.363 11.796 19.669-.999 17.153.2 34.432.367 51.659.017 1.753.849 3.732-1.613 6.368-3.849-3.939-13.485 1.676-13.664-9.407-.008-.523-2.065-1.643-2.884-1.423-6.281 1.7-12.291 4.309-15.11 10.592-2.256 5.028-.845 10.386 1.496 15.102 2.416 4.868 8.122 4.187 11.105 2.682 3.389-1.71 8.369-4.965 5.585-11.025-.622-1.353-.042-2.901 1.584-3.781 4.021-.326 6.075 3.615 9.655 4.852 4.053 1.398 6.063 5.219 5.574 10.373-.646 6.788-.158 13.683-.158 21.492-6.521-.956-11.778-2.698-16.704-5.569-.11-.064-.104-.535.007-.726.176-.299.484-.52.737-.771M446.795 135.79c-4.33.092-8.236-1.448-12.182-2.983-1.326-.516-3.072-.014-3.037-2.337.114-7.501-4.277-4.53-7.559-2.99-10.111 4.748-14.223 11.791-8.354 21.974 3.17 5.504 8.088 7.529 12.133 5.335 4.813-2.611 6.187-7.547 3.852-13.553 2.229-1.407 4.152-2.78 6.889-.233 2.79 2.599 5.756 5.349 9.781 6.186M373.667 90.281c-1.667 2.385 0 3.395 0 3.395 12.548 7.316 29.462 16.447 42.703 22.412.706.318 1.039 1.463 1.546 2.223M522.792 87.912c.372-6.147 7.339-8.997 7.593-16.846-8.493 4.743-15.48 9.695-21.41 16.729-5.401 6.41-9.947 13.578-17.219 18.536-5.927 4.041-10.493-.51-15.218-1.461-3.254-.655-1.901-6.051-1.196-10.175 2.088-12.228 2.203-24.738 1.771-37.179-.047-1.338-1.237-2.636-2.029-4.217-6.964 5.029-5.139 19.914-7.262 25.892"/><path fill="none" stroke="#000000" stroke-width=".75" stroke-linecap="round" stroke-linejoin="round" stroke-miterlimit="10" d="M435.082 98.551c-4.095-6.352-20.063-28.635-27.468-31.285-3.86 1.433-1.116 5.07-.919 5.265 8.987 8.861 12.889 21.481 22.531 29.92 7.261 6.352 6.904 6.757 15.287 1.42M502.271 113.75c2.156-2.893 5.401-4.316 8.375-6.055 11.814-6.908 21.829-15.958 31.473-24.58-.863-2.746-2.122-3.384-3.341-2.753-6.645 3.439-14.046 6.062-19.574 10.835-7.024 6.065-13.821 12.497-20.731 18.753M423.996 115.271c4.685 1.752 9.43 3.609 14.441 3.714 7.298.154 9.681 4.743 9.782 10.727.263 15.212 3.739 30.292 1.688 45.606-.477 3.547 3.935 6.655 1.443 10.63M457.654 73.864c-1.758-5.508-1.745-14.646-6.245-19.457-6.106 7.33-3.6 40.438 3.745 50.223.254 0 .604.099.73-.027.127-.127-.079-.611.045-.712.982-.797 2.012-1.541 3.022-2.301M375.358 90.951c18.336 1.737 33.772 15.527 48.638 24.319M499.233 85.632c-1.454-6.196 3.521-10.144 5.362-15.183 1.205-3.29 4.169-6.317.273-10.521-9.508 8.964-13.607 21.154-19.912 33.748-2.864-13.178 7.917-24.084 1.47-35.979-6.357 4.201-3.183 11.724-7.715 15.777M441.475 56.753c-2.507-1.308-3.981-.816-3.784 2.279.191 3.044.268 6.12.785 9.113 1.762 10.136 2.712 20.389 5.094 30.451.941 3.986 2.967 5.646 6.141 7.062.637-1.279 1.141-2.293 1.646-3.307M544.831 97.791c-10.894 5.573-21.786 11.146-32.679 16.719M544.831 97.791c3.756-4.4 3.604-7.902 2.321-7.474-5.167 1.724-10.247 3.769-15.202 6.039-1.776.814-3.041 2.834-5.358 1.435"/><path fill="none" stroke="#000000" stroke-width=".75" stroke-linecap="round" stroke-linejoin="round" stroke-miterlimit="10" d="M423.261 95.936c-2.255-.476-26.992-23.466-30.116-19.628 3.132 4.221 5.413 9.359 10.361 12.314 2.171 1.297 4.168 2.408 3.771 5.37M433.875 108.431c-4.06 4.479-7.102 1.198-9.843-1.556-11.244-11.294-26.464-16.043-39.587-24.23-1.192-.743-2.208.531-3.042 1.543-.346 3.597 4.996 3.837 4.595 7.523M484.794 106.151c6.676-8.993 23.582-30.881 31.54-38.885 0 0 1.632-1.4 3.482 0 1.85 1.4-5.816 11.925-5.816 11.925l-3.355 6.714M484.033 92.471c-1.269 4.053-2.532 8.107-3.8 12.16M493.153 106.911c1.173 4.659 7.87 4.642 8.357 9.88M441.475 56.753c3.59 1.982 1.919 10.443 5.964 12.159"/></g></svg>