<?xml version="1.0" encoding="utf-8"?>
<!-- Generator: Adobe Illustrator 16.0.0, SVG Export Plug-In . SVG Version: 6.00 Build 0) -->
<!DOCTYPE svg PUBLIC "-//W3C//DTD SVG 1.1//EN" "http://www.w3.org/Graphics/SVG/1.1/DTD/svg11.dtd">
<svg version="1.1" author="Provart Lab - Bio Analytic Resource, University of Toronto" license="CCBY4.0" id="Layer_1" xmlns="http://www.w3.org/2000/svg" xmlns:xlink="http://www.w3.org/1999/xlink" x="0px" y="0px"
    width="100%" viewBox="250 50 430 500" enable-background="new 230 0 450 500" xml:space="preserve" class="st0">
	<g id="samples">
		<g id="Stigma_tissue" fill="none">
			<path d="M547.319,90.517c-0.771-0.45-1.562-0.112-2.054,0.539c0.062-0.102,0.033-0.083-0.088,0.055
                     c0.146-0.136-0.286,0.171-0.26,0.155c-0.224,0.132-0.439,0.223-0.65,0.307c-0.553,0.219-1.11,0.424-1.648,0.678
                     c-0.686-0.101-1.435,0.021-2.198,0.478c-0.896,0.533-1.247,0.644-2.348,1.016c-0.982,0.332-1.976,0.632-2.941,1.006
                     c-0.87,0.337-1.602,0.904-2.061,1.625c-0.229,0.005-0.459,0.025-0.689,0.062c-1.605,0.259-3.118,0.879-4.586,1.582
                     c-0.656-0.439-1.423-0.693-2.211-0.694c0.467-0.316,0.926-0.643,1.368-0.996c0.598-0.478,0.977-1.009,1.184-1.556
                     c0.619-0.42,1.224-0.871,1.846-1.267c1.324-0.843,2.565-1.293,3.723-2.427c0.599-0.587,0.93-1.229,1.084-1.875
                     c0.961-0.719,1.854-1.529,2.708-2.369c0.59-0.258,1.164-0.554,1.704-0.926c0.336-0.231,0.605-0.524,0.814-0.849
                     c0.484-0.316,0.95-0.665,1.357-1.125c0.604-0.684,0.441-1.512-0.025-2.047c-0.116-0.891-0.75-1.701-1.91-1.701
                     c-0.869,0-1.438,0.458-1.722,1.062c-0.365,0.022-0.724,0.124-1.04,0.342c-1.481,1.021-3.229,1.343-4.902,1.936
                     c-0.449,0.159-0.842,0.419-1.148,0.744c-0.873,0.021-1.771,0.361-2.576,1.151c-0.766,0.75-1.991,1.105-2.894,1.679
                     c-0.937,0.595-1.85,1.163-2.788,1.706c0.626-1.771,1.14-3.548,2.039-5.269c1.163-2.226,2.396-4.352,4.176-6.146
                     c0.702-0.708,0.848-1.533,0.648-2.27c0.026-0.02,0.056-0.04,0.08-0.062c0.454-0.378,0.558-0.833,0.457-1.254
                     c0.006-0.1-0.013-0.191-0.034-0.284c0.2-0.188,0.403-0.371,0.601-0.566c0.913-0.912-0.501-2.327-1.414-1.414
                     c-0.365,0.365-0.732,0.727-1.125,1.062c-0.006,0.005-0.008,0.014-0.014,0.019c-0.201,0.057-0.401,0.158-0.591,0.315
                     c-0.082,0.068-0.172,0.126-0.256,0.192c-0.633-0.063-1.303,0.135-1.89,0.726c-0.323,0.326-0.631,0.67-0.936,1.017
                     c-1.413,0.731-2.878,1.403-4.16,2.289c-1.838,1.268-3.672,2.869-5.401,4.305c-1.608,1.336-2.764,3.01-4.194,4.495
                     c2.289-4.568,5.218-8.775,7.521-13.333c0.462-0.715,0.953-1.33,1.241-2.16c0.02-0.056,0.021-0.113,0.036-0.169
                     c0.197-0.234,0.392-0.475,0.572-0.728c0.643-0.885,0.155-2.226-0.717-2.736c-1.01-0.591-2.1-0.164-2.734,0.718
                     c0.291-0.403-0.201,0.217-0.286,0.308c-0.176,0.186-0.354,0.368-0.522,0.556c-0.042,0.047-0.076,0.094-0.115,0.141
                     c-0.642,0.087-1.241,0.461-1.633,1.243c-0.16,0.321-0.331,0.637-0.497,0.955c-0.115,0.121-0.227,0.256-0.32,0.422
                     c-1.759,3.067-4.693,5.532-6.902,8.284c-0.341,0.424-0.646,0.872-0.942,1.324c-0.6,0.517-1.195,1.014-1.708,1.626
                     c-0.313,0.378-0.567,0.779-0.814,1.202c-0.099,0.167-0.201,0.327-0.312,0.485c0.221-0.318-0.299,0.122,0.022-0.076
                     c-0.669,0.412-0.943,1.021-0.943,1.629c-0.592,0.604-1.183,1.207-1.768,1.814c-0.062-0.439-0.128-0.877-0.228-1.311
                     c-0.02-0.087-0.053-0.16-0.079-0.239c-0.137-0.664-0.252-1.328-0.275-2c0.268-3.318,1.575-6.088,3.717-9.532
                     c2.003-3.218,3.36-6.506,4.202-10.165c0.14-0.608,0.018-1.153-0.26-1.579c-0.089-0.77-0.646-1.321-1.312-1.569
                     c0.021-0.063,0.042-0.126,0.062-0.188c0.204-0.613-0.763-0.875-0.965-0.266c-0.035,0.107-0.071,0.215-0.106,0.323
                     c-0.603,0.064-1.146,0.407-1.443,1.058c-0.114,0.123-0.225,0.261-0.316,0.431c-2.596,4.688-6.67,8.34-8.938,13.25
                     c-1.189,2.575-2.561,5.052-3.771,7.62c-0.641,1.354-1.147,3.932-2.293,4.913c-0.732,0.628-0.795,1.416-0.482,2.068
                     c-0.668,0.847-1.356,1.68-2.041,2.517c-0.113-0.919-0.429-1.837-0.845-2.652c0.001-0.089-0.003-0.177-0.001-0.267
                     c0.05-1.895,0.686-3.629,0.612-5.539c0.064-0.13,0.12-0.273,0.161-0.432c0.831-3.151,1.571-6.476,2.188-9.677
                     c0.454-2.359,1.182-4.937,1.058-7.38c0.088-0.488,0.17-0.978,0.188-1.483c0.037-1.021-0.37-2.038-0.426-3.054
                     c-0.024-0.467-0.179-0.848-0.407-1.146c-0.057-0.211-0.102-0.425-0.163-0.636c-0.058-0.192-0.14-0.356-0.229-0.506
                     c0.094-0.188,0.143-0.406,0.077-0.665c-0.056-0.227-0.079-0.458-0.125-0.688c-0.104-0.535-0.731-0.835-1.229-0.699
                     c-0.537,0.148-0.783,0.665-0.7,1.183c-0.823,0.123-1.578,0.689-1.716,1.549c-0.396,0.229-0.687,0.639-0.693,1.232
                     c-0.028,2.061-0.974,4.42-1.407,6.445c-0.254,1.381-0.738,2.684-1.458,3.909c-0.562,0.714-1.451,1.166-1.93,1.952
                     c-0.266,0.438-0.396,1.484-0.499,2.648c-0.125-0.316-0.279-0.613-0.462-0.886c0.326-1.25,0.564-2.527,0.568-3.88
                     c0-0.771-0.192-1.409-0.498-1.945c0.121-0.217,0.222-0.446,0.266-0.695c0.357-2.024,0.479-4.163-0.125-6.157
                     c-0.049-0.161-0.117-0.312-0.188-0.459c0.159-1.081,0.27-2.163,0.171-3.244c-0.046-0.508-0.196-0.945-0.414-1.319
                     c0.293-0.411,0.389-0.967,0.085-1.563c-0.21-0.413-0.496-0.833-0.546-1.306c-0.085-0.813-0.617-1.5-1.5-1.5
                     c-0.754,0-1.585,0.685-1.5,1.5c0.005,0.038,0.015,0.071,0.02,0.109c-0.773,0.44-1.169,1.103-1.354,1.879
                     c-0.546,0.479-0.88,1.208-0.79,2.199c0.004,0.035,0.002,0.068,0.006,0.103c-0.315,0.255-0.542,0.624-0.567,1.084
                     c-0.026,0.497-0.057,1.006-0.082,1.517c-0.043,0.084-0.084,0.172-0.113,0.272c-1.426,4.606-1.79,9.714-1.928,14.525
                     c-0.379,1.138-0.781,2.279-1.072,3.426c0.264-3.12,0.753-6.065,0.24-9.304c-0.133-0.837-0.457-1.47-0.896-1.931
                     c0.016-0.084,0.036-0.166,0.039-0.255c0.043-2.205-0.386-4.307-0.806-6.461c-0.485-2.503-0.479-4.529-1.649-6.858
                     c-0.242-0.482-0.72-0.706-1.211-0.719c-0.01-0.008-0.017-0.014-0.023-0.022c-0.438-0.471-0.961-0.547-1.419-0.393
                     c-0.679-0.125-1.381,0.168-1.524,1.055c-0.411,2.52-1.134,4.846-1.312,7.43c-0.08,1.143-0.074,2.31-0.043,3.455
                     c0.008,0.297,0.003,0.751,0.037,1.149c-0.058,0.06-0.108,0.122-0.17,0.18c-0.527,0.496-0.562,1.333-0.171,1.911
                     c-0.007,0.198,0.019,0.399,0.102,0.597c-0.186,0.486-0.304,1.003-0.311,1.544c-0.229,0.502-0.367,1.053-0.372,1.633
                     c-0.004,0.329-0.021,0.656-0.033,0.984c-0.329-0.904-0.641-1.74-0.914-2.497c0.224-1.002-0.299-1.955-0.714-2.94
                     c-0.059-0.138-0.138-0.261-0.229-0.369c0.018-0.154,0.016-0.295-0.055-0.425c-0.595-2.546-0.83-5.258-1.718-7.726
                     c0.015-0.071,0.043-0.139,0.036-0.214c-0.093-1.025-0.201-2.035-0.918-2.832c-0.024-0.027-0.055-0.035-0.079-0.058
                     c-0.137-0.378-0.365-0.679-0.659-0.891c-0.005-0.016,0.001-0.032-0.005-0.047c-0.096-0.269-0.146-0.513-0.151-0.797
                     c-0.036-1.287-2.036-1.291-2,0c0.006,0.207,0.025,0.412,0.055,0.615c-0.633,0.266-1.111,0.848-1.082,1.76
                     c0.025,0.788,0.007,1.555-0.071,2.318c-0.244,0.225-0.43,0.521-0.523,0.9c-0.134,0.473-0.234,0.952-0.309,1.438
                     c-0.062,0.327-0.059,0.625-0.007,0.892c-0.335,1.795-0.812,3.577-0.578,5.397c-0.092,0.087-0.188,0.171-0.271,0.265
                     c-0.441-0.272-0.93-0.465-1.436-0.597c-0.109-0.45-0.347-0.942-0.671-1.417c-1.063-1.551-1.07-3.604-1.42-5.388
                     c-0.314-1.599-0.973-3-1.979-4.265c-0.178-0.223-0.426-0.299-0.678-0.29c-0.691-0.656-1.479-1.085-2.592-1.191
                     c-0.817-0.078-1.105,0.703-0.882,1.313c-0.015,0.022-0.032,0.032-0.046,0.057c-0.256,0.512-0.278,1.104-0.119,1.662
                     c0.521,1.812,0.316,3.692,0.482,5.554c0.133,1.489,0.438,2.984,0.668,4.461c0.338,2.16,0.179,4.38,0.806,6.469
                     c0.054,0.178,0.146,0.31,0.252,0.418c0.148,1.703,0.375,3.397,0.622,5.096c0.218,1.491,0.47,2.977,0.705,4.464
                     c0.112,0.709,0.225,1.418,0.333,2.128c-0.022,0.083-0.05,0.179-0.083,0.3c-0.225,0.703-0.292,1.356-0.242,1.959
                     c-0.432-0.411-0.875-0.784-1.451-1.073c-0.678-0.901-1.174-1.941-1.738-3.076c-0.412-0.827-1.079-1.495-1.38-2.376
                     c-0.273-0.798-0.583-1.558-1.055-2.217c-0.145-0.849-0.421-1.646-0.896-2.398c-0.021-0.035-0.049-0.06-0.073-0.093
                     c-0.164-1.206-0.354-2.398-0.978-3.451c-0.445-4.236-3.196-8.833-5.513-11.735c-0.211-0.265-0.442-0.589-0.685-0.696
                     c-0.085-0.93-0.719-1.955-1.921-1.955h-0.009c-0.466,0-0.85-0.739-1.363-1.088c-0.048-0.032-0.099,0.027-0.149,0.016
                     c-0.013-0.086-0.031-0.129-0.04-0.217c-0.055-0.638-1.055-0.624-1,0.02c0.08,0.945,0.378,1.81,0.838,2.627
                     c-0.28,0.597-0.272,1.345,0.022,1.936c-0.049,0.262-0.051,0.55,0.022,0.861c0.851,3.623,1.854,7.063,2.835,10.653
                     c0.688,2.519,1.766,4.847,2.626,7.288c-0.113,0.788,0.058,1.635,0.659,2.4c0.494,0.631,0.916,1.323,1.304,2.034
                     c0.001,1.094,0.521,2.061,1.132,2.955c0.058,0.083,0.102,0.17,0.154,0.254c0.031,0.728,0.244,1.432,0.675,2.111
                     c0.305,0.48,0.572,0.84,0.809,1.183c0.274,1.014,0.809,2.019,1.271,2.856c0.077,0.139,0.165,0.255,0.252,0.373
                     c-0.276,0.143-0.552,0.287-0.829,0.429c-0.514-0.482-1.092-0.89-1.646-1.328c-0.175-0.138-0.333-0.287-0.491-0.437
                     c-0.742-2.015-1.933-3.581-3.354-5.181c-0.968-1.091-1.903-2.181-2.741-3.379c-0.084-0.121-0.234-0.291-0.398-0.477
                     c-0.258-0.751-0.605-1.429-1.039-2.148c-0.292-0.484-0.761-0.769-1.271-0.879c-0.486-0.863-0.939-1.749-1.419-2.621
                     c-0.318-0.585-0.789-0.88-1.286-0.962c-0.337-0.382-0.708-0.738-1.058-1.101c-0.725-0.754-1.445-1.632-2.031-2.499
                     c-0.228-0.337-0.528-0.604-0.871-0.775c-0.54-0.715-1.079-1.434-1.658-2.12c-1.718-2.033-3.8-3.814-5.938-5.385
                     c-0.318-0.235-0.635-0.34-0.936-0.364c-1.274-0.872-3.581,0.202-3.127,2.186c0.529,2.322,2.275,3.818,3.936,5.389
                     c1.848,1.75,2.95,4.229,4.649,6.107c0.773,1.658,1.694,3.208,2.804,4.669c0.392,0.517,0.803,1.016,1.207,1.519
                     c0.416,1.614,1.312,3.385,2.543,4.511c0.004,0.003,0.008,0.005,0.012,0.009c0.525,0.936,1.104,1.831,1.787,2.654
                     c-1.234-0.622-2.465-1.254-3.657-1.96c-2.203-1.305-3.812-3.292-5.774-4.903c-0.096-0.246-0.229-0.481-0.412-0.69
                     c-0.778-0.883-1.841-1.316-2.842-1.875c-0.298-0.166-0.621-0.242-0.943-0.252c-1.478-1.148-2.709-2.527-4.221-3.634
                     c-1.816-1.331-3.928-2.463-5.836-3.677c-0.083-0.052-0.164-0.084-0.245-0.124c-0.489-0.622-1.178-1.021-1.912-0.952
                     c-0.63-0.56-1.444-0.909-2.212-1.225c-0.505-0.208-1.099,0.221-1.23,0.699c-0.158,0.574,0.195,1.022,0.699,1.23
                     c0.374,0.154,0.758,0.339,1.104,0.569c-0.24,0.569-0.26,1.229,0.122,1.726c0.771,1.005,1.687,1.847,2.625,2.663
                     c0.033,0.112,0.069,0.224,0.125,0.337c0.515,1.05,1.451,1.46,2.138,2.359c0.895,1.174,1.52,2.055,2.771,2.877
                     c1.098,0.721,2.1,1.233,3.039,2.184c0.913,0.922,1.27,1.904,1.479,2.991c-0.271,0.276-0.446,0.631-0.521,1.013
                     c-0.078-0.03-0.153-0.065-0.231-0.094c-0.156-0.286-0.394-0.548-0.746-0.753c-3.12-1.806-6.817-3.037-10.125-4.5
                     c-1.803-0.797-3.584-1.415-5.25-2.5c-1.405-0.916-2.627-2.124-4.125-2.875c-0.442-0.222-0.874-0.271-1.267-0.201
                     c-1.034-1.225-3.564-0.817-3.555,1.24c0.008,1.954,1.377,2.64,2.643,3.821c0.571,0.533,1.199,1.178,1.495,1.918
                     c0.279,0.697,0.066,1.68,0.007,2.459c-1.675-0.492-3.34-1.011-4.972-1.529c-0.641-0.204-1.212-0.187-1.708-0.033
                     c-1.139-0.465-2.324-0.694-3.557-0.878c-1.078-0.161-2.146,0.252-2.46,1.397c-0.262,0.954,0.317,2.299,1.397,2.46
                     c0.247,0.037,0.503,0.074,0.762,0.114c0.166,0.39,0.447,0.74,0.823,0.997c0.524,0.357,1.125,0.614,1.733,0.803
                     c0.333,0.402,0.799,0.729,1.416,0.926c0.774,0.246,1.568,0.485,2.355,0.729c0.252,0.434,0.601,0.819,1.053,1.094
                     c0.545,0.332,1.127,0.579,1.726,0.779c0.123,0.099,0.25,0.196,0.399,0.284c1.16,0.684,2.396,1.146,3.625,1.688
                     c1.096,0.483,2.014,1.259,3.09,1.774c0.198,0.308,0.449,0.599,0.785,0.851c3.023,2.266,7.413,3.347,10.856,5.001
                     c0.816,0.392,1.642,0.772,2.469,1.149c0.002,0.001,0.003,0.003,0.005,0.005c0.922,0.838,1.962,1.203,3.059,1.501
                     c0.572,0.47,1.144,0.936,1.735,1.343c1.779,1.221,3.708,1.667,5.766,2.159c0.241,1.993,2.237,3.739,4.326,2.278
                     c1.823-1.275,3.262-2.957,5.041-4.277c1.673-1.242,3.458-2.333,5.255-3.391c1.727-0.522,3.17-1.506,4.663-2.459
                     c1.362,0.399,2.915,0.204,4.271-0.968c1.553-1.34,4.535-1.939,6.407-2.748c0.128-0.056,0.256-0.107,0.385-0.161
                     c0.155,0.102,0.322,0.184,0.504,0.23c0.566,0.705,1.15,1.403,2.02,1.403c1.412,0,1.41-1.882,2.01-2.926
                     c0.506-0.041,0.966-0.16,1.371-0.427c0.348,0.567,0.937,1.016,1.596,1.264c0.027,0.112,0.08,0.215,0.146,0.313
                     c0.053,0.452,0.357,0.869,0.945,0.869c0.662,0,0.979-0.525,0.961-1.038c0.015-0.053,0.035-0.104,0.038-0.159
                     c0.135-0.062,0.268-0.122,0.391-0.212c0.636-0.466,1.209-0.985,1.777-1.51c0.282-0.089,0.551-0.213,0.778-0.38
                     c0.37,1.219,1.185,2.198,2.704,2.457c1.714,0.291,3.774-0.124,5.536-0.108c2.369,0.022,4.693,0.081,7.016,0.594
                     c0.582,0.128,1.104,0.085,1.57-0.059c1.333,0.911,3.244,1.207,4.589,1.943c0.429,0.235,0.852,0.356,1.255,0.387
                     c0.898,0.671,1.991,1.041,2.98,0.863c2.328,1.781,5.874-0.218,8.194-1.705c0.146,0.769,0.18,1.908,0.572,2.779
                     c0.425,0.937,1.488,1.339,2.062,1.977c0.389,0.434,1.005,0.793,1.57,0.971c0.03,0.049,0.047,0.083,0.097,0.15
                     c0.898,1.228,2.173,1.249,3.334,2.022c0.004,0.002,0.008,0.003,0.012,0.006c0.173,0.979,0.655,1.889,1.38,2.504
                     c-0.118,0.078-0.202,0.205-0.191,0.394c0.013,0.23,0.052,0.458,0.062,0.688c0.019,0.348,0.304,0.538,0.633,0.482
                     c0.289-0.049,0.573-0.098,0.867-0.107c0.14-0.004,0.236-0.063,0.315-0.139c0.021-0.003,0.043,0.002,0.065-0.004
                     c0.976-0.262,1.969-0.558,2.807-1.137c0.28-0.098,0.563-0.194,0.848-0.291c0.771,0.518,1.806,0.585,2.664,0.105
                     c0.325-0.183,0.674-0.318,1-0.5c0.152-0.086,0.292-0.188,0.419-0.303c0.09-0.044,0.186-0.074,0.27-0.135
                     c0.275-0.199,0.562-0.365,0.875-0.5c0.439-0.19,0.753-0.543,0.953-0.96c3.454-1.424,6.782-3.076,9.858-5.182
                     c1.633-0.437,3.225-0.954,4.699-1.805c0.816-0.471,1.445-1.118,2.294-1.531c0.804-0.392,1.582-0.654,2.322-1.159
                     c0.252-0.17,0.464-0.36,0.649-0.559c0.31-0.084,0.624-0.16,0.952-0.213c0.896-0.146,1.594-0.753,2.031-1.526
                     c0.24-0.021,0.481-0.07,0.719-0.162c2.322-0.898,4.801-1.442,6.961-2.728c0.967-0.576,1.458-1.384,1.608-2.237
                     c0.343-0.106,0.643-0.319,0.794-0.653c0.282-0.621,0.441-1.229,0.422-1.875c0.115-0.21,0.222-0.43,0.322-0.652
                     c0.271-0.229,0.524-0.482,0.756-0.786C548.354,91.916,547.962,90.894,547.319,90.517z" />
		</g>
		<g id="Ovary_tissue" fill="none">
			<path d="M533,233.114V155.5c0-0.246-0.012-0.489-0.02-0.734c0.496-3.316,0.601-6.671,0.27-10.016
                     c-0.315-2.348-0.631-4.696-0.946-7.045c-1.124-4.006-3.06-7.538-5.796-10.602c-2.08-2.708-4.623-4.955-7.633-6.735
                     c-4.237-2.482-9.117-3.708-13.988-3.604c-1.617-1.034-3.21-1.891-4.973-2.729c-0.29-0.272-0.588-0.54-0.914-0.795
                     c-8.602-6.739-17.222-9.756-28.194-9.814c-4.086-0.021-9.093,0.293-12.275-1.608c-1.424,0.143-2.468,3.772-3.468,2.745
                     c-3.706-3.812-6.824-2.016-9.578-1.025c-7.353,0.17-14.414,4.557-19.637,10.204c-0.314,0.18-0.63,0.364-0.944,0.541
                     c-4.253,2.387-7.641,4.75-11.602,7.826c-5.313,4.129-8.366,12.167-10.677,18.315c-2.625,6.98-1.677,14.004-0.591,21.099
                     c-0.025,0.49-0.038,0.982-0.034,1.478c0.21,24.285,0.083,48.574,0.864,72.85c0.184,5.7,0.478,11.351,1.042,17.025
                     c0.3,3.017-0.647,12.13,0.565,3.622c-0.39,2.774-0.782,5.547-1.14,8.328c-0.441,3.451-0.119,6.711,0.657,9.879
                     c-0.068,1.002-0.072,2.018,0.01,3.047c0.108,1.359,0.196,2.72,0.292,4.08c-0.352,1.833-0.468,3.729-0.292,5.67
                     c0.675,7.451,0.507,14.904,0.375,22.375c-0.081,4.545,0.041,9.008,0.326,13.456c-0.213,1.762-0.249,3.522-0.106,5.283
                     c-0.084,0.672-0.173,1.343-0.252,2.016c-0.332,2.845-0.488,5.701-0.575,8.562c-0.212,7.047,0.354,14.08,0.934,21.111
                     c-1.111,6.169-0.831,12.749,0.043,18.901c-0.479,2.721-0.831,5.46-1.14,8.242c-0.078,1.188-0.03,2.372,0.146,3.551
                     c-0.194-2.07,0.559,4.836,0.916,7.788c0.081,2.485,0.002,4.986,0.084,7.462c0.034,1.026,0.123,2.04,0.262,3.038
                     c-0.151,2.414-0.107,4.85,0.036,7.256c0.051,0.85,0.198,1.706,0.368,2.554c-0.181,0.688-0.361,1.373-0.487,2.073
                     c-0.222,1.231-0.219,2.361,0.312,3.478c-0.788,3.014,1.688,6.125,4.532,6.423c2.983,2.986,7.203,4.549,11.148,6.002
                     c4.864,1.792,9.606,2.378,14.312,1.437c1.02,0.438,2.186,0.568,3.347,0.313c2.196-0.483,4.446-1.458,6.344-2.834
                     c1.697-0.546,3.378-1.142,5.069-1.742c0.521-0.188,1.049-0.337,1.574-0.498c0.936-0.062,2.822-0.223,4.1-0.08
                     c4.986,0.559,9.978-0.336,14.99-0.264c2.456,0.034,4.907-1.9,7.362-1.789c0.812,0.043,1.621-0.884,2.434-0.817
                     c2.546,0.434,5.093,4.407,7.578,4.267c0.966,0.519,1.964,0.961,2.983,1.338c2.324,1.548,4.891,1.739,7.605,2.486
                     c3.743,1.029,17.396,0.101,20.42-1.672c0.616-0.358,1.241-0.77,1.866-1.213c0.03-0.003,0.062,0,0.093-0.003
                     c1.076-0.107,2.166-0.195,3.213-0.471c0.35-0.092,0.661-0.198,0.961-0.312c1.203-0.099,2.213-0.475,3.062-1.018
                     c3.68-0.474,4.884-4.479,3.606-7.261c0.294-2.264,0.062-4.429-0.469-6.612c0.571-3.866,1.212-7.625,0.995-11.53
                     c-0.122-2.194-0.385-4.384-0.702-6.564c0.707-2.398,1.076-4.892,1.084-7.479c0-1.727-0.173-3.439-0.505-5.118
                     c0.034-1.146,0.017-2.307-0.069-3.481c0.043,0.315,0.085,0.635,0.128,0.95c-0.533-4.53,0.094-9.057-0.054-13.601
                     c-0.006-0.179-0.021-0.354-0.029-0.534c0.142-1.294,0.27-2.58,0.417-3.832c0.612-5.104,0.626-10.37,0.683-15.508
                     c0.196-18.553-0.537-37.062,0.182-55.626c0.093-2.386-0.193-4.705-0.786-6.917c0.65-9.69,1.133-19.391,1.266-29.108
                     C534.108,252.401,534.581,242.598,533,233.114z M494.451,111.63c1.416,0.418,2.738,1,3.979,1.721
                     C497.217,112.804,495.911,112.246,494.451,111.63z" />
		</g>
	</g>
	<g id="outlines">
		<g>
			<path fill="none" stroke="#000000" stroke-width="0.75" stroke-linecap="round" stroke-linejoin="round" stroke-miterlimit="10"
			    d="
                     M481.754,266.504c-1.734,21.757-1.587,43.562-1.494,65.357c0.078,18.513-0.304,36.986-1.325,55.488
                     c-0.681,12.346-0.527,24.81,0.185,37.247c0.229,4.057,1.486,5.664,4.141,7.603c14.479,10.562,29.663,6.909,44.832,2.187
                     c2.961-0.923,4.633-3.311,3.848-6.771c-0.164-0.726-0.029-1.518-0.023-2.275c0.253-30.905,0.116-61.82,0.842-92.714
                     c1.452-61.812,0.222-123.625,0.664-185.435c0.096-13.333-9.973-27.735-22.071-30.989c-2.472-0.665-5.64,0.513-8.292,1.416
                     c-6.231,2.124-13.915,0.673-18.346,7.479c-0.835,1.283-1.911,2.38-1.394,3.84c2.474,6.979,1.128,14.653,0.729,21.249
                     c-0.774,12.892,0.712,25.916-1.948,38.875c-1.797,8.75-0.343,18.168-0.343,27.288c0,16.217,0,32.433,0,48.958
                     c7.011,0.783,9.599-5.44,15.11-6.897c1.683,0.828,2.927,1.82,1.777,5.117c-1.785,5.133,1.379,8.301,5.879,10.643
                     c5.031,2.618,7.242-1.153,9.886-3.888c4.136-4.279,6.231-9.581,3.679-15.105c-2.829-6.122-9.133-8.396-15.062-10.682
                     c-1.381-0.531-2.773,0.488-2.945,1.508c-1.791,10.604-10.062,7.897-16.805,8.345" />

			<path fill="none" stroke="#000000" stroke-width="0.75" stroke-linecap="round" stroke-linejoin="round" stroke-miterlimit="10"
			    d="
                     M422.476,116.791c-13.544,6.057-21.587,20.874-20.615,36.484c0.754,12.129,0.181,24.306,0.688,36.479
                     c0.865,20.747,0.481,41.543,0.967,62.311c1.135,48.382,0.541,96.77,0.752,145.154c0.038,8.614,0.458,17.229,0.744,25.839
                     c0.062,1.875-0.315,3.621,1.433,5.396c7.356,7.459,27.843,13.597,36.383,8.745c8.063-4.583,16.115-4.168,24.49-4.262
                     c4.108-0.044,8.277,0.371,12.157-1.52" />

			<path fill="none" stroke="#000000" stroke-width="0.75" stroke-linecap="round" stroke-linejoin="round" stroke-miterlimit="10"
			    d="
                     M486.312,435.218c-8.03,9.413-13.004,19.829-12.266,32.687c0.537,9.349,0.105,18.754,0.105,28.492c-4.813,0-8.867,0-13.682,0
                     c0-8.979,0.305-17.61-0.07-26.217c-0.542-12.47-4.363-23.749-13.607-32.682" />

			<path fill="none" stroke="#000000" stroke-width="0.75" stroke-linecap="round" stroke-linejoin="round" stroke-miterlimit="10"
			    d="
                     M455.154,416.219c-2.026-0.507-4.028-1.271-6.084-1.472c-5.873-0.571-10.677-2.278-10.719-9.572
                     c-7.804,1.676-13.666,4.876-16.586,11.825c-2.387,5.681-0.17,12.264,4.471,15.986c3.395,2.724,7.516,2.051,10.575,1.132
                     c3.095-0.931,3.926-5.059,4.068-8.773c0.071-1.811-2.75-3.554,0.618-5.862c5.942,0.641,10.081,5.701,15.097,9.017
                     c0.582,0.386,0.079,2.414,0.079,3.681" />

			<path fill="none" stroke="#000000" stroke-width="0.75" stroke-linecap="round" stroke-linejoin="round" stroke-miterlimit="10"
			    d="
                     M456.675,426.098c0.854-10.386-1.046-20.685-0.329-31.181c0.876-12.825-0.81-25.813-1.146-38.737
                     c-0.229-8.75-5.522-13.686-15.997-13.678c2.034,4.436,2.417,8.585-1.48,12.207c-2.759,2.564-6.122,2.864-9.128,2.088
                     c-5.882-1.52-9.989-14.056-6.884-19.62c3.5-6.268,9.216-8.894,15.964-9.88c3.275,7.894,6.417,9.688,16.722,9.08
                     c0-8.554,0.035-17.174-0.064-25.794c-0.009-0.678,0.804-1.533-0.641-2.374c-4.312-2.51-8.377-5.446-12.266-8.033
                     c-3.494,2.604-2.186,5.593-2.13,8.125c0.082,3.73-1.141,6.716-4.69,7.441c-2.883,0.589-6.007,2.136-9.15-0.522
                     c-4.585-3.877-7.258-11.467-5.254-16.797c2-5.319,11.013-11.867,15.953-11.34c1.961,0.209,3.965,1.011,2.285,3.74"
			/>

			<path fill="none" stroke="#000000" stroke-width="0.75" stroke-linecap="round" stroke-linejoin="round" stroke-miterlimit="10"
			    d="
                     M481.754,335.662c4.888,0.461,9.467-0.505,13.67-3.056c1.077-0.655,2.657-1.32,2.946-2.297c1.59-5.376,2.108-5.92,6.165-3.735
                     c14.112,7.592,15.009,16.087,7.549,25.754c-2.17,2.812-5.132,4.079-9.095,2.438c-4.028-1.666-6.473-3.837-6.065-8.468
                     c0.176-2.011,0.029-4.051,0.029-6.258c-6.949-1.724-9.664,5.783-15.199,7.021" />

			<path fill="none" stroke="#000000" stroke-width="0.75" stroke-linecap="round" stroke-linejoin="round" stroke-miterlimit="10"
			    d="
                     M467.314,102.351c-0.165-13.945,1.172-27.928-1.433-41.815c-0.577-3.075-0.228-6.212-5.248-6.083
                     c-2.17,10.75-3.075,21.719-2.221,32.682c0.277,3.554,0.146,7.119,0.529,10.658c0.448,4.177,1.238,7.827,6.85,5.319"
			/>

			<path fill="none" stroke="#000000" stroke-width="0.75" stroke-linecap="round" stroke-linejoin="round" stroke-miterlimit="10"
			    d="
                     M451.354,215.586c-3.854-0.091-7.781,0.494-11.406-1.504c-2.157-1.189-6.328-0.66-3.998-5.436
                     c0.273-0.563-2.135-2.322-4.355-2.259c-10.06,0.284-17.675,11.6-13.677,20.599c3.254,7.326,7.855,10.542,12.88,8.272
                     c6.054-2.734,6.332-7.948,4.465-13.615c2.414-2.13,4.502-2.104,7.026-0.04c2.713,2.22,5.083,5.231,9.065,5.383"
			/>

			<path fill="none" stroke="#000000" stroke-width="0.75" stroke-linecap="round" stroke-linejoin="round" stroke-miterlimit="10"
			    d="
                     M484.794,186.708c5.556-1.12,8.604-7.007,14.189-7.687c3.466,1.438,1.075,3.687,0.929,5.4c-0.432,4.966,1.816,7.967,6.15,9.907
                     c4.265,1.907,7.192,0.243,9.918-3.038c7.121-8.58,4.041-19.771-6.883-24.31c-1.915-0.795-4.009-1.158-6.377-1.82
                     c-2.101,10.105-10.772,9.204-17.929,10.907" />

			<path fill="none" stroke="#000000" stroke-width="0.75" stroke-linecap="round" stroke-linejoin="round" stroke-miterlimit="10"
			    d="
                     M480.994,375.18c3.546-0.76,7.061-1.797,10.646-2.211c4.812-0.557,5.841-3.699,5.425-7.771
                     c13.965,2.223,19.256,7.471,18.106,17.58c-0.655,5.772-4.171,10.066-9.199,11.886c-3.063,1.106-6.83-1.322-8.954-4.33
                     c-1.553-2.198-2.595-4.696-0.938-7.618c0.479-0.845,1.09-2.421-0.553-3.844c-1.921-1.662-3.892-0.249-4.526,0.266
                     c-3.336,2.693-6.05,6.226-10.767,6.685" />

			<path fill="none" stroke="#000000" stroke-width="0.75" stroke-linecap="round" stroke-linejoin="round" stroke-miterlimit="10"
			    d="
                     M454.395,376.7c-5.247,1.057-9.403-3.02-14.438-3.109c-0.77-0.013-1.76-0.778-2.245-1.477c-4.069-5.863-4.041-5.883-9.917-2.254
                     c-9.619,5.938-10.829,14.709-3.924,22.901c3.423,4.063,7.07,3.02,10.734,2.062c3.957-1.03,4.912-4.303,4.686-8.253
                     c-0.132-2.272-1.192-5.021,1.423-6.833c4.972,1.792,8.354,6.444,13.679,7.6" />

			<path fill="none" stroke="#000000" stroke-width="0.75" stroke-linecap="round" stroke-linejoin="round" stroke-miterlimit="10"
			    d="
                     M481.754,307.543c6.407-0.349,8.429-8.672,15.126-8.364c2.034,1.04,2.14,3.124,1.496,4.521c-2.321,5.029,0.468,8.889,4.035,10.348
                     c3.246,1.327,7.912,1.364,11.276-1.928c8.359-8.184,5.158-19.803-6.826-25.159c-2.271-1.015-4.445-1.591-6.87-1.449
                     c-1.695,7.153-8.326,10.744-18.237,9.874" />

			<path fill="none" stroke="#000000" stroke-width="0.75" stroke-linecap="round" stroke-linejoin="round" stroke-miterlimit="10"
			    d="
                     M480.233,425.338c3.04-2.024,6.273-3.822,9.043-6.171c1.521-1.291,3.124-1.985,4.583-1.312c1.76,0.812,1.393,2.402,1.046,4.479
                     c-0.768,4.591,0.184,9.648,5.871,10.426c4.644,0.637,9.275,1.323,11.691-5.797c3.347-9.854,2.78-14.641-6.422-19.821
                     c-2.565-1.443-5.438-2.344-8.155-3.483c-3.341,7.435-9.88,11.131-17.657,10.278" />

			<path fill="none" stroke="#000000" stroke-width="0.75" stroke-linecap="round" stroke-linejoin="round" stroke-miterlimit="10"
			    d="
                     M483.273,225.466c3.932-1.682,7.363-4.088,10.708-6.754c1.634-1.303,3.982-1.615,6.263,0.105c-2.373,4.854-1.8,9.443,2.835,12.662
                     c3.737,2.596,7.896,2.562,11.323-0.723c8.894-8.521,5.664-20.561-6.812-25.808c-4.694-1.976-4.589-1.945-6.185,3.771
                     c-0.271,0.967-1.822,1.971-2.952,2.236c-5.027,1.181-10.116,2.099-15.183,3.112" />

			<path fill="none" stroke="#000000" stroke-width="0.75" stroke-linecap="round" stroke-linejoin="round" stroke-miterlimit="10"
			    d="
                     M484.794,134.27c4.45-0.777,8.833-1.606,12.992-3.652c1.407-0.692,3.513-1.154,3.603-2.437c0.659-9.389,4.89-3.643,8.508-2.336
                     c12.189,4.398,12.677,16.701,5.221,24.309c-2.274,2.319-5.354,4.495-9.027,2.33c-3.706-2.185-6.957-4.768-6.104-9.855
                     c0.35-2.086,2.854-4.471-1.482-6.033c-5.185,0.393-7.466,7.737-13.708,7.555" />

			<path fill="none" stroke="#000000" stroke-width="0.75" stroke-linecap="round" stroke-linejoin="round" stroke-miterlimit="10"
			    d="
                     M440.715,89.432c-4.939-5.092-5.505-12.208-8.146-18.332c-2.077-4.813-4.297-9.039-9.31-11.886
                     c1.5,16.912,9.569,31.649,15.936,46.937" />

			<path fill="none" stroke="#000000" stroke-width="0.75" stroke-linecap="round" stroke-linejoin="round" stroke-miterlimit="10"
			    d="
                     M449.075,176.068c-1.445,0.357-2.278-1.435-3.033-1.392c-7.147,0.42-12.588-1.529-14.017-10.135
                     c-4.151,2.612-7.779,4.565-11.036,7.01c-8.162,6.127-6.96,18.079,2.271,22.708c3.193,1.602,6.49,1.757,9.104-1.466
                     c1.809-2.231,5.395-3.772,3.009-7.591c-1.005-1.608-1.095-3.036,0.017-4.579c1.796-2.495,3.889-0.58,5.271,0.114
                     c7.99,4.009,12.396,9.363,11.796,19.669c-0.999,17.153,0.2,34.432,0.367,51.659c0.017,1.753,0.849,3.732-1.613,6.368
                     c-3.849-3.939-13.485,1.676-13.664-9.407c-0.008-0.523-2.065-1.643-2.884-1.423c-6.281,1.7-12.291,4.309-15.11,10.592
                     c-2.256,5.028-0.845,10.386,1.496,15.102c2.416,4.868,8.122,4.187,11.105,2.682c3.389-1.71,8.369-4.965,5.585-11.025
                     c-0.622-1.353-0.042-2.901,1.584-3.781c4.021-0.326,6.075,3.615,9.655,4.852c4.053,1.398,6.063,5.219,5.574,10.373
                     c-0.646,6.788-0.158,13.683-0.158,21.492c-6.521-0.956-11.778-2.698-16.704-5.569c-0.11-0.064-0.104-0.535,0.007-0.726
                     c0.176-0.299,0.484-0.52,0.737-0.771" />

			<path fill="none" stroke="#000000" stroke-width="0.75" stroke-linecap="round" stroke-linejoin="round" stroke-miterlimit="10"
			    d="
                     M446.795,135.79c-4.33,0.092-8.236-1.448-12.182-2.983c-1.326-0.516-3.072-0.014-3.037-2.337c0.114-7.501-4.277-4.53-7.559-2.99
                     c-10.111,4.748-14.223,11.791-8.354,21.974c3.17,5.504,8.088,7.529,12.133,5.335c4.813-2.611,6.187-7.547,3.852-13.553
                     c2.229-1.407,4.152-2.78,6.889-0.233c2.79,2.599,5.756,5.349,9.781,6.186" />

			<path fill="none" stroke="#000000" stroke-width="0.75" stroke-linecap="round" stroke-linejoin="round" stroke-miterlimit="10"
			    d="
                     M373.667,90.281c-1.667,2.385,0,3.395,0,3.395c12.548,7.316,29.462,16.447,42.703,22.412c0.706,0.318,1.039,1.463,1.546,2.223"
			/>

			<path fill="none" stroke="#000000" stroke-width="0.75" stroke-linecap="round" stroke-linejoin="round" stroke-miterlimit="10"
			    d="
                     M522.792,87.912c0.372-6.147,7.339-8.997,7.593-16.846c-8.493,4.743-15.48,9.695-21.41,16.729
                     c-5.401,6.41-9.947,13.578-17.219,18.536c-5.927,4.041-10.493-0.51-15.218-1.461c-3.254-0.655-1.901-6.051-1.196-10.175
                     c2.088-12.228,2.203-24.738,1.771-37.179c-0.047-1.338-1.237-2.636-2.029-4.217c-6.964,5.029-5.139,19.914-7.262,25.892"
			/>

			<path fill="none" stroke="#000000" stroke-width="0.75" stroke-linecap="round" stroke-linejoin="round" stroke-miterlimit="10"
			    d="
                     M435.082,98.551c-4.095-6.352-20.063-28.635-27.468-31.285c-3.86,1.433-1.116,5.07-0.919,5.265
                     c8.987,8.861,12.889,21.481,22.531,29.92c7.261,6.352,6.904,6.757,15.287,1.42" />

			<path fill="none" stroke="#000000" stroke-width="0.75" stroke-linecap="round" stroke-linejoin="round" stroke-miterlimit="10"
			    d="
                     M502.271,113.75c2.156-2.893,5.401-4.316,8.375-6.055c11.814-6.908,21.829-15.958,31.473-24.58
                     c-0.863-2.746-2.122-3.384-3.341-2.753c-6.645,3.439-14.046,6.062-19.574,10.835c-7.024,6.065-13.821,12.497-20.731,18.753"
			/>

			<path fill="none" stroke="#000000" stroke-width="0.75" stroke-linecap="round" stroke-linejoin="round" stroke-miterlimit="10"
			    d="
                     M423.996,115.271c4.685,1.752,9.43,3.609,14.441,3.714c7.298,0.154,9.681,4.743,9.782,10.727
                     c0.263,15.212,3.739,30.292,1.688,45.606c-0.477,3.547,3.935,6.655,1.443,10.63" />

			<path fill="none" stroke="#000000" stroke-width="0.75" stroke-linecap="round" stroke-linejoin="round" stroke-miterlimit="10"
			    d="
                     M457.654,73.864c-1.758-5.508-1.745-14.646-6.245-19.457c-6.106,7.33-3.6,40.438,3.745,50.223c0.254,0,0.604,0.099,0.73-0.027
                     c0.127-0.127-0.079-0.611,0.045-0.712c0.982-0.797,2.012-1.541,3.022-2.301" />

			<path fill="none" stroke="#000000" stroke-width="0.75" stroke-linecap="round" stroke-linejoin="round" stroke-miterlimit="10"
			    d="
                     M375.358,90.951c18.336,1.737,33.772,15.527,48.638,24.319" />

			<path fill="none" stroke="#000000" stroke-width="0.75" stroke-linecap="round" stroke-linejoin="round" stroke-miterlimit="10"
			    d="
                     M499.233,85.632c-1.454-6.196,3.521-10.144,5.362-15.183c1.205-3.29,4.169-6.317,0.273-10.521
                     c-9.508,8.964-13.607,21.154-19.912,33.748c-2.864-13.178,7.917-24.084,1.47-35.979c-6.357,4.201-3.183,11.724-7.715,15.777"
			/>

			<path fill="none" stroke="#000000" stroke-width="0.75" stroke-linecap="round" stroke-linejoin="round" stroke-miterlimit="10"
			    d="
                     M441.475,56.753c-2.507-1.308-3.981-0.816-3.784,2.279c0.191,3.044,0.268,6.12,0.785,9.113
                     c1.762,10.136,2.712,20.389,5.094,30.451c0.941,3.986,2.967,5.646,6.141,7.062c0.637-1.279,1.141-2.293,1.646-3.307"
			/>

			<path fill="none" stroke="#000000" stroke-width="0.75" stroke-linecap="round" stroke-linejoin="round" stroke-miterlimit="10"
			    d="
                     M544.831,97.791c-10.894,5.573-21.786,11.146-32.679,16.719" />

			<path fill="none" stroke="#000000" stroke-width="0.75" stroke-linecap="round" stroke-linejoin="round" stroke-miterlimit="10"
			    d="
                     M544.831,97.791c3.756-4.4,3.604-7.902,2.321-7.474c-5.167,1.724-10.247,3.769-15.202,6.039c-1.776,0.814-3.041,2.834-5.358,1.435
                     " />

			<path fill="none" stroke="#000000" stroke-width="0.75" stroke-linecap="round" stroke-linejoin="round" stroke-miterlimit="10"
			    d="
                     M423.261,95.936c-2.255-0.476-26.992-23.466-30.116-19.628c3.132,4.221,5.413,9.359,10.361,12.314
                     c2.171,1.297,4.168,2.408,3.771,5.37" />

			<path fill="none" stroke="#000000" stroke-width="0.75" stroke-linecap="round" stroke-linejoin="round" stroke-miterlimit="10"
			    d="
                     M433.875,108.431c-4.06,4.479-7.102,1.198-9.843-1.556c-11.244-11.294-26.464-16.043-39.587-24.23
                     c-1.192-0.743-2.208,0.531-3.042,1.543c-0.346,3.597,4.996,3.837,4.595,7.523" />

			<path fill="none" stroke="#000000" stroke-width="0.75" stroke-linecap="round" stroke-linejoin="round" stroke-miterlimit="10"
			    d="
                     M484.794,106.151c6.676-8.993,23.582-30.881,31.54-38.885c0,0,1.632-1.4,3.482,0c1.85,1.4-5.816,11.925-5.816,11.925l-3.355,6.714
                     " />

			<path fill="none" stroke="#000000" stroke-width="0.75" stroke-linecap="round" stroke-linejoin="round" stroke-miterlimit="10"
			    d="
                     M484.033,92.471c-1.269,4.053-2.532,8.107-3.8,12.16" />

			<path fill="none" stroke="#000000" stroke-width="0.75" stroke-linecap="round" stroke-linejoin="round" stroke-miterlimit="10"
			    d="
                     M493.153,106.911c1.173,4.659,7.87,4.642,8.357,9.88" />

			<path fill="none" stroke="#000000" stroke-width="0.75" stroke-linecap="round" stroke-linejoin="round" stroke-miterlimit="10"
			    d="
                     M441.475,56.753c3.59,1.982,1.919,10.443,5.964,12.159" />
		</g>
	</g>
</svg>