<?xml version="1.0" encoding="utf-8"?>
<!-- Generator: Adobe Illustrator 20.1.0, SVG Export Plug-In . SVG Version: 6.00 Build 0)  -->
<svg version="1.1" id="All" xmlns="http://www.w3.org/2000/svg" xmlns:xlink="http://www.w3.org/1999/xlink" x="0px" y="0px"
	 viewBox="0 0 612 792" style="enable-background:new 0 0 612 792;" xml:space="preserve">
<style type="text/css">
	.st0{;stroke:#010101;stroke-width:0.5;stroke-miterlimit:10;}
</style>
<path id="silique" fill="none" class="st0" d="M318,455.2V455c0-1.5-0.2-2.9-0.4-4.3c-0.1-0.5,0.2,1.4,0,0c-0.2-1.6-0.5-3-0.9-4.5
	c-0.5-1.5-0.6-3-0.8-4.6c-0.5-2.9-1.3-5.8-3.3-8c0.1-1.3,0-2.7,0.1-4v-0.4c0.4-3.1,0.6-6.2,0.7-9.3c0.1-3-1.1-5.9-1.4-8.9
	c-0.3-3.1-0.6-6.2-1.1-9.3c-0.5-2.9-0.9-5.9-1.5-8.8c-0.3-1.4-0.7-2.8-0.8-4.2c-0.2-1.6-0.2-3.2-0.4-4.8c-0.5-3.1-0.9-6.1-1.3-9.2
	c-0.4-3.2-1-6.3-1.5-9.5c-0.2-1.4-0.4-2.9-0.5-4.3c-0.1-1.5,0-3-0.2-4.4c-0.2-1.3-0.6-2.6-0.8-3.9c-0.3-1.5-0.4-2.9-0.7-4.4
	c-0.3-1.4-0.6-2.8-0.8-4.3c-0.1-1.3,0-2.8-0.5-4c-0.7-1.7-3.1-3.1-4.9-2.3c-1.6,0.7-1.8,2.7-1.9,4.2v0.4c-0.2,1.4-0.4,2.8-0.5,4.3
	c-0.1,1.6-0.4,3.1-0.5,4.7c-0.2,2.8-0.1,5.6,0.4,8.4c0.6,3.1,1.3,6.1,1.7,9.2c0.5,3.1,0.9,6.2,1.3,9.3c0.9,6,0.8,12.2,1.5,18.3
	c0.7,6.2,1.7,12.3,3.1,18.4c0.9,3.8,1.8,7.5,2.9,11.3c0.6,1.9,1.1,3.8,1.7,5.7c0.4,1.4,1.1,2.8,2.4,3.5c0.1,3,0.9,5.8,1.4,8.8
	c0.5,3.1,1,6.3,1.6,9.4l0.5,2.6 M309,435.1c3.3,2.7,3.3-1,3.5-1.5"/>
<g id="seed">
	<path class="st0" fill="none" d="M329.5,379.5c0,0,7.5-6.3,13.7-2.2c4.8,3.7,7.3,6.5,9.5,10c1.3,3.5,2.7,10.2-1,18.3
		c-2.8,5.8-6.2,12.5-9.8,14.3c-2.8,0.8-4.5,0.8-4.5,0.8c-0.7,0.5-2,2.7-3.5-0.2c-1.2-1-6.5-1.2-11-10.3c-2-5.2-3.2-13.8-1.5-18.3
		C323,387.7,324,382.3,329.5,379.5z"/>
	<path class="st0" fill="none" d="M344.9,409.7c-0.9,0.9-1.9,1.7-2.4,2.8c-0.5,1.2-0.8,2.5-1.5,3.7c-0.2,0.4-1.6,2.3-2.2,1.4
		c-0.6-0.9,0.6-2.9,0.9-3.7c0.9-2.6,0.7-5.6,2.9-7.6c1.2-1.1,2-0.1,2.8,0.9C346.1,408.3,345.7,408.8,344.9,409.7
		C344.7,409.8,346.2,408.3,344.9,409.7z"/>
</g>
</svg>
