<svg version="1.1" id="Layer_1" xmlns="http://www.w3.org/2000/svg" x="10" y="0" viewBox="300 320 30 150" xml:space="preserve" width="75" height="75" license="CCBY4.0" author="Provart Lab - Bio Analytic Resource, University of Toronto">
  <path id="silique" fill="none" d="M318 455v-4c0-1 0 1 0 0l-1-5-1-4c-1-3-1-6-3-8v-14c1-3-1-6-1-9l-1-9-2-9v-4l-1-5-1-9-2-10v-9l-1-3-1-5-1-4v-4c-1-2-3-3-5-2-2 0-2 2-2 4v4l-1 5 1 9 1 9 2 9 1 18a164 164 0 0 0 6 30l2 6 2 3 2 9 1 9 1 3m-4-21c3 3 3-1 4-1" style="stroke:#010101;stroke-width:.5;stroke-miterlimit:10"/>
</svg>