<svg version="1.1" id="Layer_1" xmlns="http://www.w3.org/2000/svg" x="0" y="0" width="75" height="75" viewBox="50 0 200 250" xml:space="preserve" license="CCBY4.0" author="Provart Lab - Bio Analytic Resource, University of Toronto">
  <path fill="none" stroke="#000" stroke-width=".5" stroke-miterlimit="10" d="M156 139c-1 10-2 13-9 20l-21 27-11 38c0-14 1-36 9-46 7-9 16-18 26-42l6 3z" id="root"/>
  <path fill="none" stroke="#000" stroke-width=".5" stroke-miterlimit="10" d="M150 136c-1-17 0-71-2-75 0 0 6-2 8-1v79l-6-3z" id="hypocotyl"/>
  <path fill="none" stroke="#000" stroke-width=".5" stroke-miterlimit="10" d="M91 55s11-23 50-10c5 3 9 8 16 6 7-3 20-10 45-5 4 4 17 12 13 28-4 6-11 13-31-2-9-7-17-14-28-12l-8 1c-4-2-10-1-15 3-7 4-25 17-36 11-6-4-11-6-6-20z" id="cotyledon"/>
  <path fill="none" stroke="#000" stroke-width=".5" stroke-miterlimit="10" d="M131 179c1 5 2 9 5 14m-7 17-3-24m-3 39-1-5-1-3-2-11m-1 32-1-15v-8m-7 52c1-12 2-32 5-45m-10 34c-1-4 5-14 8-18m2-22c-3 3-6 11-8 14a88 88 0 0 1-3 6m7-23 2-7 3-6m10-25c-6 1-14 13-15 16m92-123c-1-5-6-7-9-9l-12-4m-54-7c-4 0-10 0-14 2s-10 6-12 10"/>
</svg>