<?xml version="1.0" encoding="utf-8"?>
<!-- Generator: Adobe Illustrator 16.0.0, SVG Export Plug-In . SVG Version: 6.00 Build 0) -->
<!DOCTYPE svg PUBLIC "-//W3C//DTD SVG 1.1//EN" "http://www.w3.org/Graphics/SVG/1.1/DTD/svg11.dtd">
<svg version="1.1" author="Provart Lab - Bio Analytic Resource, University of Toronto" license="CCBY4.0" id="Layer_1" xmlns="http://www.w3.org/2000/svg" xmlns:xlink="http://www.w3.org/1999/xlink" x="0px" y="0px"
    width="75px" height="75px" viewBox="50 0 200 250" enable-background="new 50 0 200 250" xml:space="preserve">
	<g id="root">
		<path fill="none" stroke="#000000" stroke-width="0.5" stroke-miterlimit="10" d="M156,138.667
                   		c-0.597,10.588-2.333,13.333-9.162,19.945c-7.159,9.806-18.494,23.53-20.582,27.06c-2.685,7.061-10.739,32.943-11.335,38.041
                   		c0.299-14.117,0.596-36.078,9.248-45.883c7.159-8.629,15.809-17.648,25.356-41.961L156,138.667z" />
	</g>
	<g id="hypocotyl">
		<path fill="none" stroke="#000000" stroke-width="0.5" stroke-miterlimit="10" d="M149.525,135.869
                   		c-0.301-17.257,0.297-70.986-1.196-75.299c0,0,5.965-1.176,8.054-0.783c0.596,8.628,0.511,53.722-0.384,79.213L149.525,135.869z"
		/>
	</g>
	<g id="cotyledon">
		<path fill="none" stroke="#000000" stroke-width="0.5" stroke-miterlimit="10" d="M90.759,55.081c0,0,11.633-23.53,50.413-9.805
                   		c4.773,3.136,9.248,7.452,16.108,5.489c6.86-3.137,19.985-9.805,44.445-4.706c4.476,3.53,17.602,11.766,12.827,28.236
                   		c-3.279,5.49-11.036,12.548-31.021-1.96c-8.65-7.059-16.108-14.508-27.146-12.548c-8.054,0.783-8.054,0.783-8.054,0.783
                   		c-3.879-1.569-10.442-0.783-15.513,3.137c-7.159,4.706-24.758,16.864-35.796,11.372C90.759,71.159,85.985,68.806,90.759,55.081z"
		/>
	</g>
	<path fill="none" stroke="#000000" stroke-width="0.5" stroke-miterlimit="10" d="M131.401,178.657
                   	c0.118,5.046,1.915,9.412,4.239,14.297 M129.23,209.857c-0.587-7.41-2.028-18.162-2.974-24.186 M122.965,224.742
                   	c-0.158-1.682-0.693-3.172-1.212-4.618c-0.326-0.91-0.633-1.77-0.841-2.647c-0.252-1.065-1.35-10.17-1.502-11.351 M118.208,238.451
                   	c-0.575-5.127-1.169-10.429-1.504-15.622l0.269-7.696 M109.542,266.991c1.141-12.449,2.893-32.147,5.409-44.652 M104.768,256.128
                   	c-0.375-4.11,4.891-14.118,7.788-18.409 M114.921,216.016c-2.942,2.815-6.109,10.887-8.082,14.447
                   	c-0.964,1.738-1.961,3.533-3.057,5.221c-0.084,0.103-0.168,0.231-0.245,0.395 M110.891,212.935c0.765-2.578,1.72-5.789,2.083-6.776
                   	c0.644-1.756,2.328-4.414,3.298-5.956 M126.145,175.47c-6.623,0.66-14.515,12.926-15.559,15.062" />
	<path fill="none" stroke="#000000" stroke-width="0.5" stroke-miterlimit="10" d="M203.476,67.665
                   	c-1.06-4.38-6.044-7.079-9.025-8.693l-0.562-0.303c-3.766-2.061-7.856-3.127-11.392-3.962" />
	<path fill="none" stroke="#000000" stroke-width="0.5" stroke-miterlimit="10" d="M193.202,60.841" />
	<path fill="none" stroke="#000000" stroke-width="0.5" stroke-miterlimit="10" d="M128.048,47.628
                   	c-4.536-0.035-9.813,0.32-14.396,2.841c-3.608,1.979-9.646,5.296-11.46,9.958" />
</svg>