<svg id="Layer_1" xmlns="http://www.w3.org/2000/svg" width="75" height="75" viewBox="50 0 200 250"><path fill="none" stroke="#000000" stroke-width=".5" stroke-miterlimit="10" d="M156 138.667c-.597 10.588-2.333 13.333-9.162 19.945-7.159 9.806-18.494 23.53-20.582 27.06-2.685 7.061-10.739 32.943-11.335 38.041.299-14.117.596-36.078 9.248-45.883 7.159-8.629 15.809-17.648 25.356-41.961l6.475 2.798z" id="root"/><path fill="none" stroke="#000000" stroke-width=".5" stroke-miterlimit="10" d="M149.525 135.869c-.301-17.257.297-70.986-1.196-75.299 0 0 5.965-1.176 8.054-.783.596 8.628.511 53.722-.384 79.213l-6.474-3.131z" id="hypocotyl"/><path fill="none" stroke="#000000" stroke-width=".5" stroke-miterlimit="10" d="M90.759 55.081s11.633-23.53 50.413-9.805c4.773 3.136 9.248 7.452 16.108 5.489 6.86-3.137 19.985-9.805 44.445-4.706 4.476 3.53 17.602 11.766 12.827 28.236-3.279 5.49-11.036 12.548-31.021-1.96-8.65-7.059-16.108-14.508-27.146-12.548l-8.054.783c-3.879-1.569-10.442-.783-15.513 3.137-7.159 4.706-24.758 16.864-35.796 11.372-6.263-3.92-11.037-6.273-6.263-19.998z" id="cotyledon"/><path fill="none" stroke="#000000" stroke-width=".5" stroke-miterlimit="10" d="M131.401 178.657c.118 5.046 1.915 9.412 4.239 14.297m-6.41 16.903c-.587-7.41-2.028-18.162-2.974-24.186m-3.291 39.071c-.158-1.682-.693-3.172-1.212-4.618-.326-.91-.633-1.77-.841-2.647-.252-1.065-1.35-10.17-1.502-11.351m-1.202 32.325c-.575-5.127-1.169-10.429-1.504-15.622l.269-7.696m-7.431 51.858c1.141-12.449 2.893-32.147 5.409-44.652m-10.183 33.789c-.375-4.11 4.891-14.118 7.788-18.409m2.365-21.703c-2.942 2.815-6.109 10.887-8.082 14.447-.964 1.738-1.961 3.533-3.057 5.221-.084.103-.168.231-.245.395m7.354-23.144c.765-2.578 1.72-5.789 2.083-6.776.644-1.756 2.328-4.414 3.298-5.956m9.873-24.733c-6.623.66-14.515 12.926-15.559 15.062M203.476 67.665c-1.06-4.38-6.044-7.079-9.025-8.693l-.562-.303c-3.766-2.061-7.856-3.127-11.392-3.962M128.048 47.628c-4.536-.035-9.813.32-14.396 2.841-3.608 1.979-9.646 5.296-11.46 9.958"/></svg>