<?xml version="1.0" encoding="utf-8"?>
<!-- Generator: Adobe Illustrator 20.1.0, SVG Export Plug-In . SVG Version: 6.00 Build 0)  -->
<svg version="1.1" author="Provart Lab - Bio Analytic Resource, University of Toronto" license="CCBY4.0" id="Layer_1" xmlns="http://www.w3.org/2000/svg" xmlns:xlink="http://www.w3.org/1999/xlink" x="0px" y="0px"
    viewBox="0 0 40 40" style="enable-background:new 0 0 24.4 42.1;" xml:space="preserve">
	<style type="text/css">
		.st0 {
			fill: none;
			stroke: #010101;
			stroke-width: 0.5;
			stroke-miterlimit: 10;
		}
	</style>
	<g id="Rosette_Leaf_2">
		<path class="st0" d="M0.8,6c0,0-0.2-3.9,4.1-5.5c3.8-1,14,0.4,17.8,8c1.5,3.5,3.2,10.8-2.4,15.9c-2.6,1.9-6.2,4.4-6.2,4.4
				c0.8,4.2,2.4,12.5,2.4,12.9C15.1,41,12,39.9,12,39.9c-1.1-5.8-2.2-11.2-2.2-11.2c-4-3.5-9.9-8.2-9.5-14.4C0.1,10,0.8,6,0.8,6z"
		/>
	</g>
	<path class="st0" d="M11.8,24.4c-0.8-3.8-2-9.8-2-9.8" />
</svg>