<svg width="46" height="46" xmlns="http://www.w3.org/2000/svg" xmlns:xlink="http://www.w3.org/1999/xlink">
  <defs>
    <filter x="-50%" y="-50%" width="200%" height="200%" filterUnits="objectBoundingBox" id="filter-1">
      <feOffset dy="1" in="SourceAlpha" result="shadowOffsetOuter1"/>
      <feGaussianBlur stdDeviation=".5" in="shadowOffsetOuter1" result="shadowBlurOuter1"/>
      <feColorMatrix values="0 0 0 0 0 0 0 0 0 0 0 0 0 0 0 0 0 0 0.168 0" in="shadowBlurOuter1" result="shadowMatrixOuter1"/>
      <feOffset in="SourceAlpha" result="shadowOffsetOuter2"/>
      <feGaussianBlur stdDeviation=".5" in="shadowOffsetOuter2" result="shadowBlurOuter2"/>
      <feColorMatrix values="0 0 0 0 0 0 0 0 0 0 0 0 0 0 0 0 0 0 0.084 0" in="shadowBlurOuter2" result="shadowMatrixOuter2"/>
      <feMerge>
        <feMergeNode in="shadowMatrixOuter1"/>
        <feMergeNode in="shadowMatrixOuter2"/>
        <feMergeNode in="SourceGraphic"/>
      </feMerge>
    </filter>
    <rect id="path-2" x="0" y="0" width="40" height="40" rx="2"/>
  </defs>
  <g id="Google-Button" stroke="none" stroke-width="1" fill="none" fill-rule="evenodd">
    <g id="btn_google_light_normal" transform="translate(-1 -1)">
      <g id="button" transform="translate(4 4)" filter="url(#filter-1)">
        <g id="button-bg">
          <use fill="#FFF" xlink:href="#path-2"/>
          <use xlink:href="#path-2"/>
          <use xlink:href="#path-2"/>
          <use xlink:href="#path-2"/>
        </g>
      </g>
      <g id="logo_googleg_48dp" transform="translate(15 15)">
        <path d="m18 9-1-2H9v4h5l-2 3v2h3c2-2 3-4 3-7Z" id="Shape" fill="#4285F4"/>
        <path d="m9 18 6-2-3-2a5 5 0 0 1-8-3H1v2c1 3 4 5 8 5Z" id="Shape" fill="#34A853"/>
        <path d="M4 11a5 5 0 0 1 0-4V5H1a9 9 0 0 0 0 8l3-2Z" id="Shape" fill="#FBBC05"/>
        <path d="m9 4 3 1 3-3-6-2C5 0 2 2 1 5l3 2c1-2 3-3 5-3Z" id="Shape" fill="#EA4335"/>
        <path d="M0 0h18v18H0V0Z" id="Shape"/>
      </g>
    </g>
  </g>
</svg>