<?xml version="1.0" standalone="no"?>
<!DOCTYPE svg PUBLIC "-//W3C//DTD SVG 20010904//EN" "http://www.w3.org/TR/2001/REC-SVG-20010904/DTD/svg10.dtd">
<svg version="1.0" xmlns="http://www.w3.org/2000/svg" width="192.000000pt" height="192.000000pt" viewBox="0 0 192.000000 192.000000" preserveAspectRatio="xMidYMid meet">
    <metadata>
        Created by potrace 1.11, written by Peter Selinger 2001-2013
    </metadata>
    <g transform="translate(0.000000,192.000000) scale(0.100000,-0.100000)" fill="#000000" stroke="none">
        <path d="M825 1703 c-57 -13 -152 -46 -172 -58 -12 -8 -27 -15 -33 -15 -22 0 -136 -85 -196 -145 -63 -64 -134 -162 -134 -185 0 -7 -6 -21 -14 -29 -7 -9 -25 -57 -40 -108 -21 -74 -26 -113 -26 -204 0 -179 43 -306 153 -454 96 -129 215 -213 387 -271 80 -27 340 -27 420 0 259 88 418 244 511 501 34 93 39 304 10 410 -40 144 -96 241 -201 345 -152 153 -318 221 -532 219 -62 -1 -122 -3 -133 -6z m-178 -554 c50 -19 73 -48 73 -94 0 -22 -7 -51 -16 -63 -15 -22 -15 -25 6 -47 13 -14 24 -41 27 -68 5 -39 2 -47 -30 -80 l-34 -37 -137 0 -136 0 0 193 c0 107 3 197 7 200 11 11 209 8 240 -4z m359 -36 c9 -21 22 -56 29 -78 7 -22 29 -85 49 -139 20 -55 36 -105 36 -113 0 -7 -11 -13 -25 -13 -19 0 -28 9 -44 45 l-20 46 -73 -3 -73 -3 -19 -42 c-16 -36 -24 -43 -48 -43 -15 0 -28 3 -28 8 1 10 34 108 59 170 12 29 21 62 21 74 0 11 12 45 27 75 25 48 30 53 60 53 28 0 35 -5 49 -37z m431 18 c57 -26 77 -66 60 -118 -7 -21 -22 -43 -35 -49 -43 -21 -48 -32 -25 -56 25 -28 73 -111 73 -126 0 -7 -12 -12 -27 -12 -22 0 -33 9 -50 38 -11 20 -38 56 -58 80 -33 38 -42 43 -74 40 l-36 -3 -3 -77 -3 -78 -29 0 -30 0 0 183 c0 101 3 187 7 190 3 4 47 7 97 7 68 0 102 -5 133 -19z" />
        <path d="M482 1043 l3 -38 63 -3 c72 -3 95 8 90 47 -3 25 -5 26 -81 29 l-78 3 3 -38z" />
        <path d="M482 878 l3 -43 50 -3 c100 -6 141 19 114 70 -8 15 -22 18 -90 18 l-80 0 3 -42z" />
        <path d="M936 1017 c-10 -23 -20 -57 -23 -74 l-6 -33 46 0 c25 0 49 5 52 11 6 9 -29 114 -44 131 -4 4 -15 -11 -25 -35z" />
        <path d="M1264 1076 c-3 -8 -4 -29 -2 -48 l3 -33 73 -3 c46 -2 79 2 88 9 17 14 18 61 2 77 -18 18 -157 16 -164 -2z" />
    </g>
</svg>