<svg version="1" xmlns="http://www.w3.org/2000/svg" width="682.667" height="682.667" viewBox="0 0 512.000000 512.000000"><path d="M244.9 55.4c-.3.3-3.8.6-7.9.7-10.5.3-34.4 5-36.7 7.2-.3.4-1.3.7-2.2.7-.9 0-2.8.6-4.3 1.4-1.5.8-4.2 1.7-6 2.1-1.8.4-7.3 2.7-12.2 5.1-4.9 2.4-9.5 4.4-10.2 4.4-.8 0-1.4.4-1.4 1 0 .5-.7 1-1.5 1s-3.4 1.3-5.7 3c-2.2 1.6-4.5 3-5 3s-1.6.6-2.3 1.2c-2.9 2.6-4.4 3.8-4.9 3.8-.9 0-6.9 4.3-14 10-9.3 7.5-21.4 19.2-27.1 26.5-2.7 3.3-5.6 6.8-6.6 7.8-2.5 2.4-9.9 13.4-9.9 14.6 0 .6-.4 1.1-.9 1.1s-1.3 1-1.6 2.2c-.4 1.3-1.8 3.7-3.1 5.5-1.3 1.7-2.4 3.6-2.4 4.1 0 1.4-3.1 7.4-5.7 10.8-1.3 1.8-2.6 4.9-2.9 7-.2 2.1-.8 4.1-1.2 4.4-.5.3-1.9 3.9-3.2 8-1.3 4.1-2.8 8-3.3 8.7-.5.7-1.2 3.6-1.7 6.5s-1.4 7.3-1.9 9.8c-3 12.5-3.4 17.8-3.4 41 .1 25.2 0 24.7 5.1 47 .5 1.9 1.3 4.4 1.9 5.5.6 1.1 1.4 3.3 1.7 5 1.7 8.8 10.9 30.3 13.6 32 .6.4 1 1.3 1 2.1 0 .9 1.1 3 2.4 4.7 1.3 1.8 2.7 4.2 3.1 5.4.3 1.3 1 2.3 1.5 2.3.4 0 1 1 1.4 2.3.3 1.3 1.7 3.6 3.1 5.1 1.4 1.5 2.5 3 2.5 3.5 0 .4 1.3 2 3 3.6 1.6 1.6 3 3.2 3 3.7 0 2.6 26.8 30 31.7 32.3 1.7.8 3.3 1.9 3.5 2.3.9 1.9 11 9.2 17 12.2 3.7 1.8 7.3 3.9 7.9 4.6.6.8 1.8 1.4 2.6 1.4s2.9 1.1 4.6 2.4c1.8 1.3 5.5 3.3 8.2 4.6 2.8 1.2 5.7 2.6 6.5 3 .9.4 3.1 1.1 5 1.5 1.9.4 4.1 1.1 5 1.5 5.5 2.7 9.9 4.1 17.2 5.5 4.6.9 10 2 12.1 2.6 12 3.2 66.4 3.6 69.5.5 1.1-1.1 2.2-1.1 4.9-.3 2.5.8 3.6.8 4.1 0 .4-.6 3.4-1.9 6.7-2.8 3.3-.9 9.2-3 13.2-4.6 3.9-1.6 7.9-2.9 8.7-2.9.9 0 2.4-.4 3.4-.9.9-.5 6-3 11.2-5.6 10.9-5.3 12-5.9 17.7-9.7 2.3-1.5 4.6-2.8 5.2-2.8.6 0 2.6-1.3 4.4-3 1.9-1.6 3.9-3 4.5-3 .6 0 1.5-.6 1.9-1.4.4-.7 2.8-2.7 5.3-4.4 2.5-1.7 6.3-4.9 8.5-7.1 2.1-2.3 4.5-4.1 5.2-4.1.7 0 1.3-.7 1.3-1.5s.7-1.5 1.5-1.5 1.5-.5 1.5-1c0-1 .3-1.4 8.8-10.3 2.8-3 5.2-6 5.2-6.7 0-.6 1-2.1 2.3-3.3 2.1-2.1 7.1-8.9 9.2-12.5.6-1 2.7-4.3 4.8-7.4 2-3.1 3.7-6.1 3.7-6.7 0-.6 1-2.8 2.3-4.9 1.2-2 2.8-4.8 3.5-6.2.6-1.4 1.6-3.2 2.1-4 .5-.8 1.6-4 2.6-7 1.8-5.9 2.4-7.5 4.7-13 .8-1.9 2.3-6.9 3.2-11 1-4.1 2.2-8.2 2.6-9.1.5-.9 1.4-9.4 2-19 1.5-21.4.6-45.4-2.1-57.6-1.1-4.8-2.4-11.3-2.9-14.3-.6-3-1.8-7.1-2.7-9-.9-1.9-1.9-4.2-2.3-5-.4-.8-1.7-4.7-2.9-8.7-1.2-3.9-2.9-7.7-3.7-8.4-.8-.6-1.4-1.8-1.4-2.7 0-.8-1.1-3-2.5-4.8-1.4-1.8-2.5-3.8-2.5-4.4 0-.6-1.1-2.6-2.5-4.4-1.4-1.8-2.5-3.7-2.5-4.2 0-1.5-9.5-15.8-12.3-18.4-1.5-1.4-2.7-2.8-2.7-3.2 0-2.1-24.3-27-30-30.8-1.9-1.3-4-2.8-4.5-3.4-3.4-3.6-11.9-9.7-17.7-12.6-3.7-1.8-7.3-3.9-7.9-4.6-.6-.8-2-1.4-3-1.4s-2-.4-2.4-.9c-1-1.7-11.9-7.2-15.1-7.6-1.7-.3-4.4-1.1-6-2-1.6-.8-3.6-1.5-4.5-1.5-.8 0-2-.5-2.6-1.1-.6-.6-2.5-1.3-4.3-1.6-1.8-.2-3.9-1.1-4.7-1.9-.8-.8-3.4-1.4-6.2-1.4-2.6 0-5.1-.4-5.7-1-2.4-2.4-51.4-6.6-53.5-4.6zm-74.1 147.5c.9.5 3.9 1.7 6.6 2.7 5.2 1.8 12.5 8.6 15.8 14.7 2.7 5 2.3 15-.8 21.7-1.4 3-3.4 6.4-4.4 7.5-3 3.2-2.7 4.9 1.3 8.5 2.1 1.8 5.2 5.6 6.8 8.4 2.5 4.5 2.9 6.1 2.9 13.3 0 7.6-.3 8.7-3.2 13.5-3.1 5.1-6 8.4-12.1 13.7-4.1 3.7-10.3 4.4-43.8 4.8-30 .3-30.6.3-32.4-1.7-1.9-2.1-2-4.4-2-53s.1-50.9 1.9-52.9c1.9-2 2.7-2.1 31.8-2.1 16.4 0 30.6.4 31.6.9zM267 205c1.2.6 3.2 5 5.5 12.2 2.1 6.2 4.3 12.6 5.1 14.3 1.3 2.9 5.9 15.9 17 47.5 3 8.5 6.3 17.4 7.4 19.7 1.1 2.4 2 5.6 2 7.3 0 3.8-2.7 5-11.5 5-8.1 0-10.2-1.8-14-12-1.5-4.1-3.1-8.4-3.5-9.6-.7-1.8-1.8-2.2-7.7-2.5-3.7-.3-12.1-.2-18.6.1l-11.8.5-2.5 6c-1.4 3.3-3.2 8.1-4 10.7-.8 2.6-2.3 5.2-3.4 5.8-2.4 1.3-15.6 1.3-18.1 0-2.8-1.5-2.4-6.2 1.1-14.5 1.7-3.8 3-7.5 3-8.2 0-.7.6-2.7 1.4-4.5.8-1.8 3.3-8.7 5.6-15.3 2.3-6.6 5.2-14.5 6.4-17.5 1.3-3 2.6-8 3-11 .6-6 3.7-14.9 6.5-18.9 1-1.4 2.8-5.1 4-8.1 1.3-3 3-6.1 3.9-6.8 1.9-1.5 20.4-1.7 23.2-.2zm120.1 1.6c10 4.7 16.9 15.2 16.9 26 0 10.2-2.3 16.1-9 22.6-3.1 3.1-6.8 5.8-8 6-1.3.1-2.8 1.1-3.4 2-.8 1.4-.4 2.4 2 5 4 4.3 17.1 24.6 22.1 34.5 3.5 6.9 2.7 7.7-8 8.1-9.8.4-13-.6-15.3-5-3.2-6.2-19.3-28.4-23.6-32.6-2.4-2.3-5.9-4.7-7.8-5.2-4.8-1.4-11.4-1.2-12.8.2-.8.8-1.2 6.7-1.2 19.8 0 23.1.3 22.5-10.8 22.5-5.2 0-8.5-.5-9.5-1.4-1.5-1.2-1.7-6-1.7-51 0-44.1.2-49.9 1.6-52l1.6-2.3 31.2.4c29.1.3 31.4.4 35.7 2.4z"/><path d="M131.4 226.3c-.3.8-.4 4.9-.2 9.3l.3 7.9 13 .3c18.2.4 25.5-2.2 25.5-9.2-.1-7.5-5.4-9.6-24.3-9.6-10.6 0-13.9.3-14.3 1.3zM133.3 267.7c-2.2.4-2.3.9-2.3 10.3 0 6.8.4 10.1 1.3 10.7.6.4 7.1.9 14.2 1.1 19 .5 26.4-2.6 26.7-11 .2-4.8-1.8-7.7-6.5-9.9-3.5-1.5-6.4-1.8-17.7-1.7-7.4 0-14.5.3-15.7.5zM252.6 241.3c-.8 2.3-2.9 8-4.6 12.6-1.7 4.6-2.8 9.2-2.5 10.1 1 3.2 17 3.5 19.6.4.9-1.1.5-3.4-1.7-9.6-1.5-4.6-3.4-9.2-4.1-10.3-.7-1.1-1.3-2.7-1.3-3.7 0-.9-.9-2.2-1.9-2.8-1.7-.8-2.1-.4-3.5 3.3zM340.6 225.5c-1.2 1.3-1.6 3.6-1.6 10 0 11.2.4 11.5 16.5 11.5 13.8-.1 21.9-2.1 24.1-6.2 2.2-3.9 1.7-10.3-1-13.5l-2.4-2.8-17-.3c-14.6-.3-17.2-.1-18.6 1.3z"/></svg>