<svg version="1" xmlns="http://www.w3.org/2000/svg" width="320" height="320" viewBox="0 0 240.000000 240.000000"><path d="M106 28c-33.9 5.2-62.8 29.4-73.9 61.8-8.3 24.1-5.6 54.4 6.6 75.5 13 22.3 31.3 36.8 56.1 44.4 7.9 2.4 10.3 2.7 25.2 2.7 15.5.1 17.1-.1 25.5-2.7 29.9-9.5 51-29.3 62.1-58.4 6.8-17.8 7.2-40.7 1-59.5-10-30.5-33.5-52.9-64.7-61.8-8.3-2.4-28.5-3.5-37.9-2zM82.3 96.4c1.8.7 4.6 2.8 6.1 4.7 2.4 2.9 2.8 3.9 2.4 8.1-.4 3.3-1.3 5.7-2.8 7.4l-2.4 2.4 2.2 1.6c5.2 3.6 6.7 11.8 3.1 17.8-3.8 6.6-5.5 7.1-24.1 7.4l-16.8.4v-24.9c0-13.8.3-25.3.7-25.6 1.3-1.4 28.2-.8 31.6.7zm43-.3c.9.6 1.7 1.7 1.7 2.5 0 .9.6 3 1.4 4.7 2.4 5.5 14.6 40.1 14.6 41.4 0 .9-1.6 1.3-4.9 1.3-5.5 0-6.3-.7-8.4-7l-1.5-4.5-8.1-.2c-8.8-.3-8.7-.3-11.2 6.7-1.5 4.3-1.8 4.5-5.8 4.8-2.4.2-4.9.1-5.7-.2-1-.4.4-5.4 5.7-20.8 3.8-11.2 7.6-21.7 8.4-23.5.8-1.7 1.5-3.6 1.5-4.1 0-.6.6-1.2 1.3-1.5 2.1-.8 9.1-.5 11 .4zm57.2.9c1.9 1 3.9 3.3 5.4 6.4 2.2 4.5 2.3 5.3 1.2 9.5-1.2 4.6-5.9 10.1-8.7 10.1-1.8 0-1.8 1.6-.1 2.3.7.3 3.7 4.5 6.7 9.3 3 4.9 5.8 9.1 6.2 9.2 2.3 1-1 2.2-6 2.2h-5.7l-4.7-7.3c-7-10.8-9.1-12.8-13.7-13.4l-4.1-.6v21.4l-5.2-.3-5.3-.3-.3-24.4c-.2-18.9.1-24.7 1-25.3 2.2-1.5 29.9-.4 33.3 1.2z"/><path d="M61 109.9v5l7.8-.2c8.3-.2 11.2-1.5 11.2-4.8s-3.9-4.9-11.7-4.9H61v4.9zM61 130.6v5.6l9-.4c4.9-.1 9.3-.8 9.8-1.3 2.2-2.3 2.3-5.4.3-7.4-1.8-1.8-3.4-2.1-10.6-2.1H61v5.6zM117.3 116.9c-1.3 3.6-2.3 7-2.3 7.4 0 .8 8.4 1 9.2.2.4-.5-3.5-13.2-4.4-14-.2-.2-1.3 2.7-2.5 6.4zM159.2 110.2l.3 5.3 7.1.3c5.9.2 7.5-.1 9.7-1.8 6.3-5 1.9-9-9.6-9h-7.8l.3 5.2z"/></svg>