<svg version="1.0" xmlns="http://www.w3.org/2000/svg" width="933.3" height="933.3" viewBox="0 0 700 700">
  <path d="M321 9A344 344 0 0 0 17 421 342 342 0 1 0 321 9zM186 260c20 2 30 6 39 16a43 43 0 0 1-8 66l-4 2 7 3c19 9 29 29 25 50-5 21-17 35-36 41-7 1-59 3-93 3l-22-1V259h39l53 1zm217 89 36 91-20 1-19-1-5-11-8-21-3-9h-72l-1 3-14 37c0 2-2 2-19 2l-19-1 69-179 1-2h38l36 90zm164-88c12 3 20 7 26 13 9 9 14 22 14 36 0 25-14 43-39 49l-7 2 5 3c7 5 17 16 26 28 11 17 29 46 29 48l-21 1h-22l-16-25c-27-40-32-46-41-49l-14-2h-11v75h-36l-1-90v-91h50l58 2z"/>
  <path d="M131 311v20h27c26-1 28-1 32-3 5-3 9-7 10-11 4-12-3-24-14-26l-30-1h-25v21zm0 75v24h21c28 0 38-1 44-4 16-7 15-32 0-40-6-3-15-4-41-4h-24v24zm216-82-23 64 24 1h24a3643 3643 0 0 0-25-65zm149 9v23h19c39 0 46-2 51-12 6-11 3-23-6-29-5-4-14-5-42-5h-22v23z"/>
</svg>