<?xml version="1.0" standalone="no"?>
<!DOCTYPE svg PUBLIC "-//W3C//DTD SVG 20010904//EN" "http://www.w3.org/TR/2001/REC-SVG-20010904/DTD/svg10.dtd">
<svg version="1.0" xmlns="http://www.w3.org/2000/svg" width="700.000000pt" height="700.000000pt"
    viewBox="0 0 700.000000 700.000000" preserveAspectRatio="xMidYMid meet">
    <metadata>
        Created by potrace 1.14, written by Peter Selinger 2001-2017
    </metadata>
    <g transform="translate(0.000000,700.000000) scale(0.100000,-0.100000)" fill="#000000" stroke="none">
        <path d="M3205 6909 c-1024 -94 -1960 -651 -2533 -1505 -515 -770 -694 -1704 -501 -2619 249 -1182 1129 -2160 2282 -2534 505 -164 1038 -209 1565 -131 599 88 1164 337 1652 727 120 97 346 318 455 448 423 502 687 1097 781 1760 21 151 30 579 15 742 -75 815 -416 1546 -991 2123 -534 537 -1226 876 -1990 976 -148 19 -585 27 -735 13z m-1348 -2509 c204 -16 302 -56 398 -162 119 -132 146 -310 72 -472 -29 -63 -110 -153 -162 -182 -19 -10 -35 -21 -35 -24 0 -3 31 -18 67 -35 193 -86 294 -287 251 -497 -43 -207 -171 -352 -359 -404 -65 -18 -585 -36 -924 -32 l-220 3 -3 908 -2 907 392 0 c216 0 452 -5 525 -10z m2175 -890 c197 -492 358 -901 358 -908 0 -10 -42 -12 -196 -10 l-196 3 -45 115 c-24 63 -60 157 -79 208 l-36 92 -358 0 -358 0 -10 -27 c-35 -96 -131 -361 -137 -375 -6 -16 -25 -18 -195 -18 -104 0 -191 3 -193 8 -4 6 653 1703 691 1787 l12 25 192 -2 192 -3 358 -895z m1638 876 c116 -23 200 -64 263 -129 89 -91 137 -218 137 -362 0 -249 -140 -423 -387 -483 -40 -9 -73 -19 -73 -22 0 -3 21 -18 48 -35 76 -48 171 -151 258 -280 112 -167 294 -460 294 -474 0 -8 -62 -11 -213 -11 l-213 0 -168 251 c-267 398 -319 460 -403 488 -21 7 -86 15 -145 18 l-108 6 -2 -379 -3 -379 -180 0 -180 0 -3 909 -2 908 497 -5 c403 -4 514 -8 583 -21z" />
        <path d="M1310 3894 l0 -205 273 3 c256 3 274 4 312 25 53 28 93 72 105 114 35 121 -26 234 -140 258 -29 6 -158 11 -300 11 l-250 0 0 -206z" />
        <path d="M1310 3140 l0 -240 208 0 c279 1 386 10 446 39 151 74 149 323 -4 401 -61 31 -150 40 -407 40 l-243 0 0 -240z" />
        <path d="M3468 3958 c-54 -143 -228 -628 -228 -637 0 -8 67 -11 240 -11 132 0 240 2 240 4 0 6 -240 649 -244 653 -2 2 -6 -2 -8 -9z" />
        <path d="M4960 3870 l0 -230 193 0 c384 1 460 19 511 122 52 104 26 231 -59 291 -53 37 -146 47 -427 47 l-218 0 0 -230z" />
    </g>
</svg>